G04 #@! TF.GenerationSoftware,KiCad,Pcbnew,5.0.2+dfsg1-1~bpo9+1*
G04 #@! TF.CreationDate,2019-04-25T13:48:24-07:00*
G04 #@! TF.ProjectId,HW,48572e6b-6963-4616-945f-706362585858,rev?*
G04 #@! TF.SameCoordinates,Original*
G04 #@! TF.FileFunction,Soldermask,Bot*
G04 #@! TF.FilePolarity,Negative*
%FSLAX46Y46*%
G04 Gerber Fmt 4.6, Leading zero omitted, Abs format (unit mm)*
G04 Created by KiCad (PCBNEW 5.0.2+dfsg1-1~bpo9+1) date Thu 25 Apr 2019 01:48:24 PM PDT*
%MOMM*%
%LPD*%
G01*
G04 APERTURE LIST*
%ADD10C,0.100000*%
G04 APERTURE END LIST*
D10*
G36*
X138026630Y-145662299D02*
X138186855Y-145710903D01*
X138334520Y-145789831D01*
X138463949Y-145896051D01*
X138570169Y-146025480D01*
X138649097Y-146173145D01*
X138697701Y-146333370D01*
X138714112Y-146500000D01*
X138697701Y-146666630D01*
X138649097Y-146826855D01*
X138570169Y-146974520D01*
X138463949Y-147103949D01*
X138334520Y-147210169D01*
X138186855Y-147289097D01*
X138026630Y-147337701D01*
X137901752Y-147350000D01*
X137818248Y-147350000D01*
X137693370Y-147337701D01*
X137533145Y-147289097D01*
X137385480Y-147210169D01*
X137256051Y-147103949D01*
X137149831Y-146974520D01*
X137070903Y-146826855D01*
X137022299Y-146666630D01*
X137005888Y-146500000D01*
X137022299Y-146333370D01*
X137070903Y-146173145D01*
X137149831Y-146025480D01*
X137256051Y-145896051D01*
X137385480Y-145789831D01*
X137533145Y-145710903D01*
X137693370Y-145662299D01*
X137818248Y-145650000D01*
X137901752Y-145650000D01*
X138026630Y-145662299D01*
X138026630Y-145662299D01*
G37*
G36*
X135486630Y-145662299D02*
X135646855Y-145710903D01*
X135794520Y-145789831D01*
X135923949Y-145896051D01*
X136030169Y-146025480D01*
X136109097Y-146173145D01*
X136157701Y-146333370D01*
X136174112Y-146500000D01*
X136157701Y-146666630D01*
X136109097Y-146826855D01*
X136030169Y-146974520D01*
X135923949Y-147103949D01*
X135794520Y-147210169D01*
X135646855Y-147289097D01*
X135486630Y-147337701D01*
X135361752Y-147350000D01*
X135278248Y-147350000D01*
X135153370Y-147337701D01*
X134993145Y-147289097D01*
X134845480Y-147210169D01*
X134716051Y-147103949D01*
X134609831Y-146974520D01*
X134530903Y-146826855D01*
X134482299Y-146666630D01*
X134465888Y-146500000D01*
X134482299Y-146333370D01*
X134530903Y-146173145D01*
X134609831Y-146025480D01*
X134716051Y-145896051D01*
X134845480Y-145789831D01*
X134993145Y-145710903D01*
X135153370Y-145662299D01*
X135278248Y-145650000D01*
X135361752Y-145650000D01*
X135486630Y-145662299D01*
X135486630Y-145662299D01*
G37*
G36*
X115850000Y-147350000D02*
X114150000Y-147350000D01*
X114150000Y-145650000D01*
X115850000Y-145650000D01*
X115850000Y-147350000D01*
X115850000Y-147350000D01*
G37*
G36*
X117706630Y-145662299D02*
X117866855Y-145710903D01*
X118014520Y-145789831D01*
X118143949Y-145896051D01*
X118250169Y-146025480D01*
X118329097Y-146173145D01*
X118377701Y-146333370D01*
X118394112Y-146500000D01*
X118377701Y-146666630D01*
X118329097Y-146826855D01*
X118250169Y-146974520D01*
X118143949Y-147103949D01*
X118014520Y-147210169D01*
X117866855Y-147289097D01*
X117706630Y-147337701D01*
X117581752Y-147350000D01*
X117498248Y-147350000D01*
X117373370Y-147337701D01*
X117213145Y-147289097D01*
X117065480Y-147210169D01*
X116936051Y-147103949D01*
X116829831Y-146974520D01*
X116750903Y-146826855D01*
X116702299Y-146666630D01*
X116685888Y-146500000D01*
X116702299Y-146333370D01*
X116750903Y-146173145D01*
X116829831Y-146025480D01*
X116936051Y-145896051D01*
X117065480Y-145789831D01*
X117213145Y-145710903D01*
X117373370Y-145662299D01*
X117498248Y-145650000D01*
X117581752Y-145650000D01*
X117706630Y-145662299D01*
X117706630Y-145662299D01*
G37*
G36*
X120246630Y-145662299D02*
X120406855Y-145710903D01*
X120554520Y-145789831D01*
X120683949Y-145896051D01*
X120790169Y-146025480D01*
X120869097Y-146173145D01*
X120917701Y-146333370D01*
X120934112Y-146500000D01*
X120917701Y-146666630D01*
X120869097Y-146826855D01*
X120790169Y-146974520D01*
X120683949Y-147103949D01*
X120554520Y-147210169D01*
X120406855Y-147289097D01*
X120246630Y-147337701D01*
X120121752Y-147350000D01*
X120038248Y-147350000D01*
X119913370Y-147337701D01*
X119753145Y-147289097D01*
X119605480Y-147210169D01*
X119476051Y-147103949D01*
X119369831Y-146974520D01*
X119290903Y-146826855D01*
X119242299Y-146666630D01*
X119225888Y-146500000D01*
X119242299Y-146333370D01*
X119290903Y-146173145D01*
X119369831Y-146025480D01*
X119476051Y-145896051D01*
X119605480Y-145789831D01*
X119753145Y-145710903D01*
X119913370Y-145662299D01*
X120038248Y-145650000D01*
X120121752Y-145650000D01*
X120246630Y-145662299D01*
X120246630Y-145662299D01*
G37*
G36*
X122786630Y-145662299D02*
X122946855Y-145710903D01*
X123094520Y-145789831D01*
X123223949Y-145896051D01*
X123330169Y-146025480D01*
X123409097Y-146173145D01*
X123457701Y-146333370D01*
X123474112Y-146500000D01*
X123457701Y-146666630D01*
X123409097Y-146826855D01*
X123330169Y-146974520D01*
X123223949Y-147103949D01*
X123094520Y-147210169D01*
X122946855Y-147289097D01*
X122786630Y-147337701D01*
X122661752Y-147350000D01*
X122578248Y-147350000D01*
X122453370Y-147337701D01*
X122293145Y-147289097D01*
X122145480Y-147210169D01*
X122016051Y-147103949D01*
X121909831Y-146974520D01*
X121830903Y-146826855D01*
X121782299Y-146666630D01*
X121765888Y-146500000D01*
X121782299Y-146333370D01*
X121830903Y-146173145D01*
X121909831Y-146025480D01*
X122016051Y-145896051D01*
X122145480Y-145789831D01*
X122293145Y-145710903D01*
X122453370Y-145662299D01*
X122578248Y-145650000D01*
X122661752Y-145650000D01*
X122786630Y-145662299D01*
X122786630Y-145662299D01*
G37*
G36*
X127866630Y-145662299D02*
X128026855Y-145710903D01*
X128174520Y-145789831D01*
X128303949Y-145896051D01*
X128410169Y-146025480D01*
X128489097Y-146173145D01*
X128537701Y-146333370D01*
X128554112Y-146500000D01*
X128537701Y-146666630D01*
X128489097Y-146826855D01*
X128410169Y-146974520D01*
X128303949Y-147103949D01*
X128174520Y-147210169D01*
X128026855Y-147289097D01*
X127866630Y-147337701D01*
X127741752Y-147350000D01*
X127658248Y-147350000D01*
X127533370Y-147337701D01*
X127373145Y-147289097D01*
X127225480Y-147210169D01*
X127096051Y-147103949D01*
X126989831Y-146974520D01*
X126910903Y-146826855D01*
X126862299Y-146666630D01*
X126845888Y-146500000D01*
X126862299Y-146333370D01*
X126910903Y-146173145D01*
X126989831Y-146025480D01*
X127096051Y-145896051D01*
X127225480Y-145789831D01*
X127373145Y-145710903D01*
X127533370Y-145662299D01*
X127658248Y-145650000D01*
X127741752Y-145650000D01*
X127866630Y-145662299D01*
X127866630Y-145662299D01*
G37*
G36*
X130406630Y-145662299D02*
X130566855Y-145710903D01*
X130714520Y-145789831D01*
X130843949Y-145896051D01*
X130950169Y-146025480D01*
X131029097Y-146173145D01*
X131077701Y-146333370D01*
X131094112Y-146500000D01*
X131077701Y-146666630D01*
X131029097Y-146826855D01*
X130950169Y-146974520D01*
X130843949Y-147103949D01*
X130714520Y-147210169D01*
X130566855Y-147289097D01*
X130406630Y-147337701D01*
X130281752Y-147350000D01*
X130198248Y-147350000D01*
X130073370Y-147337701D01*
X129913145Y-147289097D01*
X129765480Y-147210169D01*
X129636051Y-147103949D01*
X129529831Y-146974520D01*
X129450903Y-146826855D01*
X129402299Y-146666630D01*
X129385888Y-146500000D01*
X129402299Y-146333370D01*
X129450903Y-146173145D01*
X129529831Y-146025480D01*
X129636051Y-145896051D01*
X129765480Y-145789831D01*
X129913145Y-145710903D01*
X130073370Y-145662299D01*
X130198248Y-145650000D01*
X130281752Y-145650000D01*
X130406630Y-145662299D01*
X130406630Y-145662299D01*
G37*
G36*
X132946630Y-145662299D02*
X133106855Y-145710903D01*
X133254520Y-145789831D01*
X133383949Y-145896051D01*
X133490169Y-146025480D01*
X133569097Y-146173145D01*
X133617701Y-146333370D01*
X133634112Y-146500000D01*
X133617701Y-146666630D01*
X133569097Y-146826855D01*
X133490169Y-146974520D01*
X133383949Y-147103949D01*
X133254520Y-147210169D01*
X133106855Y-147289097D01*
X132946630Y-147337701D01*
X132821752Y-147350000D01*
X132738248Y-147350000D01*
X132613370Y-147337701D01*
X132453145Y-147289097D01*
X132305480Y-147210169D01*
X132176051Y-147103949D01*
X132069831Y-146974520D01*
X131990903Y-146826855D01*
X131942299Y-146666630D01*
X131925888Y-146500000D01*
X131942299Y-146333370D01*
X131990903Y-146173145D01*
X132069831Y-146025480D01*
X132176051Y-145896051D01*
X132305480Y-145789831D01*
X132453145Y-145710903D01*
X132613370Y-145662299D01*
X132738248Y-145650000D01*
X132821752Y-145650000D01*
X132946630Y-145662299D01*
X132946630Y-145662299D01*
G37*
G36*
X125326630Y-145662299D02*
X125486855Y-145710903D01*
X125634520Y-145789831D01*
X125763949Y-145896051D01*
X125870169Y-146025480D01*
X125949097Y-146173145D01*
X125997701Y-146333370D01*
X126014112Y-146500000D01*
X125997701Y-146666630D01*
X125949097Y-146826855D01*
X125870169Y-146974520D01*
X125763949Y-147103949D01*
X125634520Y-147210169D01*
X125486855Y-147289097D01*
X125326630Y-147337701D01*
X125201752Y-147350000D01*
X125118248Y-147350000D01*
X124993370Y-147337701D01*
X124833145Y-147289097D01*
X124685480Y-147210169D01*
X124556051Y-147103949D01*
X124449831Y-146974520D01*
X124370903Y-146826855D01*
X124322299Y-146666630D01*
X124305888Y-146500000D01*
X124322299Y-146333370D01*
X124370903Y-146173145D01*
X124449831Y-146025480D01*
X124556051Y-145896051D01*
X124685480Y-145789831D01*
X124833145Y-145710903D01*
X124993370Y-145662299D01*
X125118248Y-145650000D01*
X125201752Y-145650000D01*
X125326630Y-145662299D01*
X125326630Y-145662299D01*
G37*
G36*
X126004712Y-139140565D02*
X126089295Y-139148896D01*
X126209727Y-139185429D01*
X126252088Y-139198279D01*
X126402112Y-139278468D01*
X126533612Y-139386388D01*
X126641532Y-139517888D01*
X126721721Y-139667912D01*
X126721722Y-139667916D01*
X126771104Y-139830705D01*
X126787778Y-140000000D01*
X126771104Y-140169295D01*
X126734571Y-140289727D01*
X126721721Y-140332088D01*
X126641532Y-140482112D01*
X126533612Y-140613612D01*
X126402112Y-140721532D01*
X126252088Y-140801721D01*
X126209727Y-140814571D01*
X126089295Y-140851104D01*
X126004712Y-140859435D01*
X125962421Y-140863600D01*
X125877579Y-140863600D01*
X125835288Y-140859435D01*
X125750705Y-140851104D01*
X125630273Y-140814571D01*
X125587912Y-140801721D01*
X125437888Y-140721532D01*
X125306388Y-140613612D01*
X125198468Y-140482112D01*
X125118279Y-140332088D01*
X125105429Y-140289727D01*
X125068896Y-140169295D01*
X125052222Y-140000000D01*
X125068896Y-139830705D01*
X125118278Y-139667916D01*
X125118279Y-139667912D01*
X125198468Y-139517888D01*
X125306388Y-139386388D01*
X125437888Y-139278468D01*
X125587912Y-139198279D01*
X125630273Y-139185429D01*
X125750705Y-139148896D01*
X125835288Y-139140565D01*
X125877579Y-139136400D01*
X125962421Y-139136400D01*
X126004712Y-139140565D01*
X126004712Y-139140565D01*
G37*
G36*
X128544712Y-139140565D02*
X128629295Y-139148896D01*
X128749727Y-139185429D01*
X128792088Y-139198279D01*
X128942112Y-139278468D01*
X129073612Y-139386388D01*
X129181532Y-139517888D01*
X129261721Y-139667912D01*
X129261722Y-139667916D01*
X129311104Y-139830705D01*
X129327778Y-140000000D01*
X129311104Y-140169295D01*
X129274571Y-140289727D01*
X129261721Y-140332088D01*
X129181532Y-140482112D01*
X129073612Y-140613612D01*
X128942112Y-140721532D01*
X128792088Y-140801721D01*
X128749727Y-140814571D01*
X128629295Y-140851104D01*
X128544712Y-140859435D01*
X128502421Y-140863600D01*
X128417579Y-140863600D01*
X128375288Y-140859435D01*
X128290705Y-140851104D01*
X128170273Y-140814571D01*
X128127912Y-140801721D01*
X127977888Y-140721532D01*
X127846388Y-140613612D01*
X127738468Y-140482112D01*
X127658279Y-140332088D01*
X127645429Y-140289727D01*
X127608896Y-140169295D01*
X127592222Y-140000000D01*
X127608896Y-139830705D01*
X127658278Y-139667916D01*
X127658279Y-139667912D01*
X127738468Y-139517888D01*
X127846388Y-139386388D01*
X127977888Y-139278468D01*
X128127912Y-139198279D01*
X128170273Y-139185429D01*
X128290705Y-139148896D01*
X128375288Y-139140565D01*
X128417579Y-139136400D01*
X128502421Y-139136400D01*
X128544712Y-139140565D01*
X128544712Y-139140565D01*
G37*
G36*
X123464712Y-139140565D02*
X123549295Y-139148896D01*
X123669727Y-139185429D01*
X123712088Y-139198279D01*
X123862112Y-139278468D01*
X123993612Y-139386388D01*
X124101532Y-139517888D01*
X124181721Y-139667912D01*
X124181722Y-139667916D01*
X124231104Y-139830705D01*
X124247778Y-140000000D01*
X124231104Y-140169295D01*
X124194571Y-140289727D01*
X124181721Y-140332088D01*
X124101532Y-140482112D01*
X123993612Y-140613612D01*
X123862112Y-140721532D01*
X123712088Y-140801721D01*
X123669727Y-140814571D01*
X123549295Y-140851104D01*
X123464712Y-140859435D01*
X123422421Y-140863600D01*
X123337579Y-140863600D01*
X123295288Y-140859435D01*
X123210705Y-140851104D01*
X123090273Y-140814571D01*
X123047912Y-140801721D01*
X122897888Y-140721532D01*
X122766388Y-140613612D01*
X122658468Y-140482112D01*
X122578279Y-140332088D01*
X122565429Y-140289727D01*
X122528896Y-140169295D01*
X122512222Y-140000000D01*
X122528896Y-139830705D01*
X122578278Y-139667916D01*
X122578279Y-139667912D01*
X122658468Y-139517888D01*
X122766388Y-139386388D01*
X122897888Y-139278468D01*
X123047912Y-139198279D01*
X123090273Y-139185429D01*
X123210705Y-139148896D01*
X123295288Y-139140565D01*
X123337579Y-139136400D01*
X123422421Y-139136400D01*
X123464712Y-139140565D01*
X123464712Y-139140565D01*
G37*
G36*
X131863600Y-140863600D02*
X130136400Y-140863600D01*
X130136400Y-139136400D01*
X131863600Y-139136400D01*
X131863600Y-140863600D01*
X131863600Y-140863600D01*
G37*
G36*
X120924712Y-139140565D02*
X121009295Y-139148896D01*
X121129727Y-139185429D01*
X121172088Y-139198279D01*
X121322112Y-139278468D01*
X121453612Y-139386388D01*
X121561532Y-139517888D01*
X121641721Y-139667912D01*
X121641722Y-139667916D01*
X121691104Y-139830705D01*
X121707778Y-140000000D01*
X121691104Y-140169295D01*
X121654571Y-140289727D01*
X121641721Y-140332088D01*
X121561532Y-140482112D01*
X121453612Y-140613612D01*
X121322112Y-140721532D01*
X121172088Y-140801721D01*
X121129727Y-140814571D01*
X121009295Y-140851104D01*
X120924712Y-140859435D01*
X120882421Y-140863600D01*
X120797579Y-140863600D01*
X120755288Y-140859435D01*
X120670705Y-140851104D01*
X120550273Y-140814571D01*
X120507912Y-140801721D01*
X120357888Y-140721532D01*
X120226388Y-140613612D01*
X120118468Y-140482112D01*
X120038279Y-140332088D01*
X120025429Y-140289727D01*
X119988896Y-140169295D01*
X119972222Y-140000000D01*
X119988896Y-139830705D01*
X120038278Y-139667916D01*
X120038279Y-139667912D01*
X120118468Y-139517888D01*
X120226388Y-139386388D01*
X120357888Y-139278468D01*
X120507912Y-139198279D01*
X120550273Y-139185429D01*
X120670705Y-139148896D01*
X120755288Y-139140565D01*
X120797579Y-139136400D01*
X120882421Y-139136400D01*
X120924712Y-139140565D01*
X120924712Y-139140565D01*
G37*
G36*
X123464712Y-136600565D02*
X123549295Y-136608896D01*
X123669727Y-136645429D01*
X123712088Y-136658279D01*
X123862112Y-136738468D01*
X123993612Y-136846388D01*
X124101532Y-136977888D01*
X124181721Y-137127912D01*
X124181722Y-137127916D01*
X124231104Y-137290705D01*
X124247778Y-137460000D01*
X124231104Y-137629295D01*
X124194571Y-137749727D01*
X124181721Y-137792088D01*
X124101532Y-137942112D01*
X123993612Y-138073612D01*
X123862112Y-138181532D01*
X123712088Y-138261721D01*
X123669727Y-138274571D01*
X123549295Y-138311104D01*
X123464712Y-138319435D01*
X123422421Y-138323600D01*
X123337579Y-138323600D01*
X123295288Y-138319435D01*
X123210705Y-138311104D01*
X123090273Y-138274571D01*
X123047912Y-138261721D01*
X122897888Y-138181532D01*
X122766388Y-138073612D01*
X122658468Y-137942112D01*
X122578279Y-137792088D01*
X122565429Y-137749727D01*
X122528896Y-137629295D01*
X122512222Y-137460000D01*
X122528896Y-137290705D01*
X122578278Y-137127916D01*
X122578279Y-137127912D01*
X122658468Y-136977888D01*
X122766388Y-136846388D01*
X122897888Y-136738468D01*
X123047912Y-136658279D01*
X123090273Y-136645429D01*
X123210705Y-136608896D01*
X123295288Y-136600565D01*
X123337579Y-136596400D01*
X123422421Y-136596400D01*
X123464712Y-136600565D01*
X123464712Y-136600565D01*
G37*
G36*
X126004712Y-136600565D02*
X126089295Y-136608896D01*
X126209727Y-136645429D01*
X126252088Y-136658279D01*
X126402112Y-136738468D01*
X126533612Y-136846388D01*
X126641532Y-136977888D01*
X126721721Y-137127912D01*
X126721722Y-137127916D01*
X126771104Y-137290705D01*
X126787778Y-137460000D01*
X126771104Y-137629295D01*
X126734571Y-137749727D01*
X126721721Y-137792088D01*
X126641532Y-137942112D01*
X126533612Y-138073612D01*
X126402112Y-138181532D01*
X126252088Y-138261721D01*
X126209727Y-138274571D01*
X126089295Y-138311104D01*
X126004712Y-138319435D01*
X125962421Y-138323600D01*
X125877579Y-138323600D01*
X125835288Y-138319435D01*
X125750705Y-138311104D01*
X125630273Y-138274571D01*
X125587912Y-138261721D01*
X125437888Y-138181532D01*
X125306388Y-138073612D01*
X125198468Y-137942112D01*
X125118279Y-137792088D01*
X125105429Y-137749727D01*
X125068896Y-137629295D01*
X125052222Y-137460000D01*
X125068896Y-137290705D01*
X125118278Y-137127916D01*
X125118279Y-137127912D01*
X125198468Y-136977888D01*
X125306388Y-136846388D01*
X125437888Y-136738468D01*
X125587912Y-136658279D01*
X125630273Y-136645429D01*
X125750705Y-136608896D01*
X125835288Y-136600565D01*
X125877579Y-136596400D01*
X125962421Y-136596400D01*
X126004712Y-136600565D01*
X126004712Y-136600565D01*
G37*
G36*
X128544712Y-136600565D02*
X128629295Y-136608896D01*
X128749727Y-136645429D01*
X128792088Y-136658279D01*
X128942112Y-136738468D01*
X129073612Y-136846388D01*
X129181532Y-136977888D01*
X129261721Y-137127912D01*
X129261722Y-137127916D01*
X129311104Y-137290705D01*
X129327778Y-137460000D01*
X129311104Y-137629295D01*
X129274571Y-137749727D01*
X129261721Y-137792088D01*
X129181532Y-137942112D01*
X129073612Y-138073612D01*
X128942112Y-138181532D01*
X128792088Y-138261721D01*
X128749727Y-138274571D01*
X128629295Y-138311104D01*
X128544712Y-138319435D01*
X128502421Y-138323600D01*
X128417579Y-138323600D01*
X128375288Y-138319435D01*
X128290705Y-138311104D01*
X128170273Y-138274571D01*
X128127912Y-138261721D01*
X127977888Y-138181532D01*
X127846388Y-138073612D01*
X127738468Y-137942112D01*
X127658279Y-137792088D01*
X127645429Y-137749727D01*
X127608896Y-137629295D01*
X127592222Y-137460000D01*
X127608896Y-137290705D01*
X127658278Y-137127916D01*
X127658279Y-137127912D01*
X127738468Y-136977888D01*
X127846388Y-136846388D01*
X127977888Y-136738468D01*
X128127912Y-136658279D01*
X128170273Y-136645429D01*
X128290705Y-136608896D01*
X128375288Y-136600565D01*
X128417579Y-136596400D01*
X128502421Y-136596400D01*
X128544712Y-136600565D01*
X128544712Y-136600565D01*
G37*
G36*
X131084712Y-136600565D02*
X131169295Y-136608896D01*
X131289727Y-136645429D01*
X131332088Y-136658279D01*
X131482112Y-136738468D01*
X131613612Y-136846388D01*
X131721532Y-136977888D01*
X131801721Y-137127912D01*
X131801722Y-137127916D01*
X131851104Y-137290705D01*
X131867778Y-137460000D01*
X131851104Y-137629295D01*
X131814571Y-137749727D01*
X131801721Y-137792088D01*
X131721532Y-137942112D01*
X131613612Y-138073612D01*
X131482112Y-138181532D01*
X131332088Y-138261721D01*
X131289727Y-138274571D01*
X131169295Y-138311104D01*
X131084712Y-138319435D01*
X131042421Y-138323600D01*
X130957579Y-138323600D01*
X130915288Y-138319435D01*
X130830705Y-138311104D01*
X130710273Y-138274571D01*
X130667912Y-138261721D01*
X130517888Y-138181532D01*
X130386388Y-138073612D01*
X130278468Y-137942112D01*
X130198279Y-137792088D01*
X130185429Y-137749727D01*
X130148896Y-137629295D01*
X130132222Y-137460000D01*
X130148896Y-137290705D01*
X130198278Y-137127916D01*
X130198279Y-137127912D01*
X130278468Y-136977888D01*
X130386388Y-136846388D01*
X130517888Y-136738468D01*
X130667912Y-136658279D01*
X130710273Y-136645429D01*
X130830705Y-136608896D01*
X130915288Y-136600565D01*
X130957579Y-136596400D01*
X131042421Y-136596400D01*
X131084712Y-136600565D01*
X131084712Y-136600565D01*
G37*
G36*
X120924712Y-136600565D02*
X121009295Y-136608896D01*
X121129727Y-136645429D01*
X121172088Y-136658279D01*
X121322112Y-136738468D01*
X121453612Y-136846388D01*
X121561532Y-136977888D01*
X121641721Y-137127912D01*
X121641722Y-137127916D01*
X121691104Y-137290705D01*
X121707778Y-137460000D01*
X121691104Y-137629295D01*
X121654571Y-137749727D01*
X121641721Y-137792088D01*
X121561532Y-137942112D01*
X121453612Y-138073612D01*
X121322112Y-138181532D01*
X121172088Y-138261721D01*
X121129727Y-138274571D01*
X121009295Y-138311104D01*
X120924712Y-138319435D01*
X120882421Y-138323600D01*
X120797579Y-138323600D01*
X120755288Y-138319435D01*
X120670705Y-138311104D01*
X120550273Y-138274571D01*
X120507912Y-138261721D01*
X120357888Y-138181532D01*
X120226388Y-138073612D01*
X120118468Y-137942112D01*
X120038279Y-137792088D01*
X120025429Y-137749727D01*
X119988896Y-137629295D01*
X119972222Y-137460000D01*
X119988896Y-137290705D01*
X120038278Y-137127916D01*
X120038279Y-137127912D01*
X120118468Y-136977888D01*
X120226388Y-136846388D01*
X120357888Y-136738468D01*
X120507912Y-136658279D01*
X120550273Y-136645429D01*
X120670705Y-136608896D01*
X120755288Y-136600565D01*
X120797579Y-136596400D01*
X120882421Y-136596400D01*
X120924712Y-136600565D01*
X120924712Y-136600565D01*
G37*
G36*
X115567027Y-127360852D02*
X115708401Y-127403738D01*
X115838694Y-127473380D01*
X115952896Y-127567104D01*
X116046620Y-127681306D01*
X116116262Y-127811599D01*
X116159148Y-127952973D01*
X116170000Y-128063161D01*
X116170000Y-128936839D01*
X116159148Y-129047027D01*
X116116262Y-129188401D01*
X116046620Y-129318694D01*
X115952899Y-129432893D01*
X115838690Y-129526622D01*
X115708400Y-129596262D01*
X115567026Y-129639148D01*
X115420000Y-129653628D01*
X115272973Y-129639148D01*
X115131599Y-129596262D01*
X115001306Y-129526620D01*
X114887107Y-129432899D01*
X114793378Y-129318690D01*
X114723738Y-129188400D01*
X114680852Y-129047026D01*
X114670000Y-128936838D01*
X114670000Y-128063162D01*
X114680853Y-127952973D01*
X114723739Y-127811599D01*
X114793381Y-127681306D01*
X114887105Y-127567104D01*
X115001307Y-127473380D01*
X115131600Y-127403738D01*
X115272974Y-127360852D01*
X115420000Y-127346372D01*
X115567027Y-127360852D01*
X115567027Y-127360852D01*
G37*
G36*
X118107027Y-127360852D02*
X118248401Y-127403738D01*
X118378694Y-127473380D01*
X118492896Y-127567104D01*
X118586620Y-127681306D01*
X118656262Y-127811599D01*
X118699148Y-127952973D01*
X118710000Y-128063161D01*
X118710000Y-128936839D01*
X118699148Y-129047027D01*
X118656262Y-129188401D01*
X118586620Y-129318694D01*
X118492899Y-129432893D01*
X118378690Y-129526622D01*
X118248400Y-129596262D01*
X118107026Y-129639148D01*
X117960000Y-129653628D01*
X117812973Y-129639148D01*
X117671599Y-129596262D01*
X117541306Y-129526620D01*
X117427107Y-129432899D01*
X117333378Y-129318690D01*
X117263738Y-129188400D01*
X117220852Y-129047026D01*
X117210000Y-128936838D01*
X117210000Y-128063162D01*
X117220853Y-127952973D01*
X117263739Y-127811599D01*
X117333381Y-127681306D01*
X117427105Y-127567104D01*
X117541307Y-127473380D01*
X117671600Y-127403738D01*
X117812974Y-127360852D01*
X117960000Y-127346372D01*
X118107027Y-127360852D01*
X118107027Y-127360852D01*
G37*
G36*
X121250000Y-129650000D02*
X119750000Y-129650000D01*
X119750000Y-127350000D01*
X121250000Y-127350000D01*
X121250000Y-129650000D01*
X121250000Y-129650000D01*
G37*
G36*
X140933195Y-101507522D02*
X140982267Y-101517283D01*
X141120942Y-101574724D01*
X141245750Y-101658118D01*
X141351882Y-101764250D01*
X141435276Y-101889058D01*
X141492717Y-102027734D01*
X141522000Y-102174948D01*
X141522000Y-102325052D01*
X141492717Y-102472266D01*
X141435276Y-102610942D01*
X141351882Y-102735750D01*
X141245750Y-102841882D01*
X141245747Y-102841884D01*
X141120942Y-102925276D01*
X140982267Y-102982717D01*
X140933195Y-102992478D01*
X140835052Y-103012000D01*
X140684948Y-103012000D01*
X140586805Y-102992478D01*
X140537733Y-102982717D01*
X140399058Y-102925276D01*
X140274253Y-102841884D01*
X140274250Y-102841882D01*
X140168118Y-102735750D01*
X140084724Y-102610942D01*
X140027283Y-102472266D01*
X139998000Y-102325052D01*
X139998000Y-102174948D01*
X140027283Y-102027734D01*
X140084724Y-101889058D01*
X140168118Y-101764250D01*
X140274250Y-101658118D01*
X140399058Y-101574724D01*
X140537733Y-101517283D01*
X140586805Y-101507522D01*
X140684948Y-101488000D01*
X140835052Y-101488000D01*
X140933195Y-101507522D01*
X140933195Y-101507522D01*
G37*
G36*
X134433195Y-101507522D02*
X134482267Y-101517283D01*
X134620942Y-101574724D01*
X134745750Y-101658118D01*
X134851882Y-101764250D01*
X134935276Y-101889058D01*
X134992717Y-102027734D01*
X135022000Y-102174948D01*
X135022000Y-102325052D01*
X134992717Y-102472266D01*
X134935276Y-102610942D01*
X134851882Y-102735750D01*
X134745750Y-102841882D01*
X134745747Y-102841884D01*
X134620942Y-102925276D01*
X134482267Y-102982717D01*
X134433195Y-102992478D01*
X134335052Y-103012000D01*
X134184948Y-103012000D01*
X134086805Y-102992478D01*
X134037733Y-102982717D01*
X133899058Y-102925276D01*
X133774253Y-102841884D01*
X133774250Y-102841882D01*
X133668118Y-102735750D01*
X133584724Y-102610942D01*
X133527283Y-102472266D01*
X133498000Y-102325052D01*
X133498000Y-102174948D01*
X133527283Y-102027734D01*
X133584724Y-101889058D01*
X133668118Y-101764250D01*
X133774250Y-101658118D01*
X133899058Y-101574724D01*
X134037733Y-101517283D01*
X134086805Y-101507522D01*
X134184948Y-101488000D01*
X134335052Y-101488000D01*
X134433195Y-101507522D01*
X134433195Y-101507522D01*
G37*
G36*
X140933195Y-97007522D02*
X140982267Y-97017283D01*
X141120942Y-97074724D01*
X141245750Y-97158118D01*
X141351882Y-97264250D01*
X141435276Y-97389058D01*
X141492717Y-97527734D01*
X141522000Y-97674948D01*
X141522000Y-97825052D01*
X141492717Y-97972266D01*
X141435276Y-98110942D01*
X141351882Y-98235750D01*
X141245750Y-98341882D01*
X141245747Y-98341884D01*
X141120942Y-98425276D01*
X140982267Y-98482717D01*
X140933195Y-98492478D01*
X140835052Y-98512000D01*
X140684948Y-98512000D01*
X140586805Y-98492478D01*
X140537733Y-98482717D01*
X140399058Y-98425276D01*
X140274253Y-98341884D01*
X140274250Y-98341882D01*
X140168118Y-98235750D01*
X140084724Y-98110942D01*
X140027283Y-97972266D01*
X139998000Y-97825052D01*
X139998000Y-97674948D01*
X140027283Y-97527734D01*
X140084724Y-97389058D01*
X140168118Y-97264250D01*
X140274250Y-97158118D01*
X140399058Y-97074724D01*
X140537733Y-97017283D01*
X140586805Y-97007522D01*
X140684948Y-96988000D01*
X140835052Y-96988000D01*
X140933195Y-97007522D01*
X140933195Y-97007522D01*
G37*
G36*
X134433195Y-97007522D02*
X134482267Y-97017283D01*
X134620942Y-97074724D01*
X134745750Y-97158118D01*
X134851882Y-97264250D01*
X134935276Y-97389058D01*
X134992717Y-97527734D01*
X135022000Y-97674948D01*
X135022000Y-97825052D01*
X134992717Y-97972266D01*
X134935276Y-98110942D01*
X134851882Y-98235750D01*
X134745750Y-98341882D01*
X134745747Y-98341884D01*
X134620942Y-98425276D01*
X134482267Y-98482717D01*
X134433195Y-98492478D01*
X134335052Y-98512000D01*
X134184948Y-98512000D01*
X134086805Y-98492478D01*
X134037733Y-98482717D01*
X133899058Y-98425276D01*
X133774253Y-98341884D01*
X133774250Y-98341882D01*
X133668118Y-98235750D01*
X133584724Y-98110942D01*
X133527283Y-97972266D01*
X133498000Y-97825052D01*
X133498000Y-97674948D01*
X133527283Y-97527734D01*
X133584724Y-97389058D01*
X133668118Y-97264250D01*
X133774250Y-97158118D01*
X133899058Y-97074724D01*
X134037733Y-97017283D01*
X134086805Y-97007522D01*
X134184948Y-96988000D01*
X134335052Y-96988000D01*
X134433195Y-97007522D01*
X134433195Y-97007522D01*
G37*
G36*
X130626630Y-92162299D02*
X130786855Y-92210903D01*
X130934520Y-92289831D01*
X131063949Y-92396051D01*
X131170169Y-92525480D01*
X131249097Y-92673145D01*
X131297701Y-92833370D01*
X131314112Y-93000000D01*
X131297701Y-93166630D01*
X131249097Y-93326855D01*
X131170169Y-93474520D01*
X131063949Y-93603949D01*
X130934520Y-93710169D01*
X130786855Y-93789097D01*
X130626630Y-93837701D01*
X130501752Y-93850000D01*
X130418248Y-93850000D01*
X130293370Y-93837701D01*
X130133145Y-93789097D01*
X129985480Y-93710169D01*
X129856051Y-93603949D01*
X129749831Y-93474520D01*
X129670903Y-93326855D01*
X129622299Y-93166630D01*
X129605888Y-93000000D01*
X129622299Y-92833370D01*
X129670903Y-92673145D01*
X129749831Y-92525480D01*
X129856051Y-92396051D01*
X129985480Y-92289831D01*
X130133145Y-92210903D01*
X130293370Y-92162299D01*
X130418248Y-92150000D01*
X130501752Y-92150000D01*
X130626630Y-92162299D01*
X130626630Y-92162299D01*
G37*
G36*
X133850000Y-93850000D02*
X132150000Y-93850000D01*
X132150000Y-92150000D01*
X133850000Y-92150000D01*
X133850000Y-93850000D01*
X133850000Y-93850000D01*
G37*
G36*
X128086630Y-92162299D02*
X128246855Y-92210903D01*
X128394520Y-92289831D01*
X128523949Y-92396051D01*
X128630169Y-92525480D01*
X128709097Y-92673145D01*
X128757701Y-92833370D01*
X128774112Y-93000000D01*
X128757701Y-93166630D01*
X128709097Y-93326855D01*
X128630169Y-93474520D01*
X128523949Y-93603949D01*
X128394520Y-93710169D01*
X128246855Y-93789097D01*
X128086630Y-93837701D01*
X127961752Y-93850000D01*
X127878248Y-93850000D01*
X127753370Y-93837701D01*
X127593145Y-93789097D01*
X127445480Y-93710169D01*
X127316051Y-93603949D01*
X127209831Y-93474520D01*
X127130903Y-93326855D01*
X127082299Y-93166630D01*
X127065888Y-93000000D01*
X127082299Y-92833370D01*
X127130903Y-92673145D01*
X127209831Y-92525480D01*
X127316051Y-92396051D01*
X127445480Y-92289831D01*
X127593145Y-92210903D01*
X127753370Y-92162299D01*
X127878248Y-92150000D01*
X127961752Y-92150000D01*
X128086630Y-92162299D01*
X128086630Y-92162299D01*
G37*
G36*
X141350000Y-93350000D02*
X139650000Y-93350000D01*
X139650000Y-91650000D01*
X141350000Y-91650000D01*
X141350000Y-93350000D01*
X141350000Y-93350000D01*
G37*
G36*
X112666630Y-91322299D02*
X112826855Y-91370903D01*
X112974520Y-91449831D01*
X113103949Y-91556051D01*
X113210169Y-91685480D01*
X113289097Y-91833145D01*
X113337701Y-91993370D01*
X113354112Y-92160000D01*
X113337701Y-92326630D01*
X113289097Y-92486855D01*
X113210169Y-92634520D01*
X113103949Y-92763949D01*
X112974520Y-92870169D01*
X112826855Y-92949097D01*
X112666630Y-92997701D01*
X112541752Y-93010000D01*
X112458248Y-93010000D01*
X112333370Y-92997701D01*
X112173145Y-92949097D01*
X112025480Y-92870169D01*
X111896051Y-92763949D01*
X111789831Y-92634520D01*
X111710903Y-92486855D01*
X111662299Y-92326630D01*
X111645888Y-92160000D01*
X111662299Y-91993370D01*
X111710903Y-91833145D01*
X111789831Y-91685480D01*
X111896051Y-91556051D01*
X112025480Y-91449831D01*
X112173145Y-91370903D01*
X112333370Y-91322299D01*
X112458248Y-91310000D01*
X112541752Y-91310000D01*
X112666630Y-91322299D01*
X112666630Y-91322299D01*
G37*
G36*
X133166630Y-89622299D02*
X133326855Y-89670903D01*
X133474520Y-89749831D01*
X133603949Y-89856051D01*
X133710169Y-89985480D01*
X133789097Y-90133145D01*
X133837701Y-90293370D01*
X133854112Y-90460000D01*
X133837701Y-90626630D01*
X133789097Y-90786855D01*
X133710169Y-90934520D01*
X133603949Y-91063949D01*
X133474520Y-91170169D01*
X133326855Y-91249097D01*
X133166630Y-91297701D01*
X133041752Y-91310000D01*
X132958248Y-91310000D01*
X132833370Y-91297701D01*
X132673145Y-91249097D01*
X132525480Y-91170169D01*
X132396051Y-91063949D01*
X132289831Y-90934520D01*
X132210903Y-90786855D01*
X132162299Y-90626630D01*
X132145888Y-90460000D01*
X132162299Y-90293370D01*
X132210903Y-90133145D01*
X132289831Y-89985480D01*
X132396051Y-89856051D01*
X132525480Y-89749831D01*
X132673145Y-89670903D01*
X132833370Y-89622299D01*
X132958248Y-89610000D01*
X133041752Y-89610000D01*
X133166630Y-89622299D01*
X133166630Y-89622299D01*
G37*
G36*
X128086630Y-89622299D02*
X128246855Y-89670903D01*
X128394520Y-89749831D01*
X128523949Y-89856051D01*
X128630169Y-89985480D01*
X128709097Y-90133145D01*
X128757701Y-90293370D01*
X128774112Y-90460000D01*
X128757701Y-90626630D01*
X128709097Y-90786855D01*
X128630169Y-90934520D01*
X128523949Y-91063949D01*
X128394520Y-91170169D01*
X128246855Y-91249097D01*
X128086630Y-91297701D01*
X127961752Y-91310000D01*
X127878248Y-91310000D01*
X127753370Y-91297701D01*
X127593145Y-91249097D01*
X127445480Y-91170169D01*
X127316051Y-91063949D01*
X127209831Y-90934520D01*
X127130903Y-90786855D01*
X127082299Y-90626630D01*
X127065888Y-90460000D01*
X127082299Y-90293370D01*
X127130903Y-90133145D01*
X127209831Y-89985480D01*
X127316051Y-89856051D01*
X127445480Y-89749831D01*
X127593145Y-89670903D01*
X127753370Y-89622299D01*
X127878248Y-89610000D01*
X127961752Y-89610000D01*
X128086630Y-89622299D01*
X128086630Y-89622299D01*
G37*
G36*
X130626630Y-89622299D02*
X130786855Y-89670903D01*
X130934520Y-89749831D01*
X131063949Y-89856051D01*
X131170169Y-89985480D01*
X131249097Y-90133145D01*
X131297701Y-90293370D01*
X131314112Y-90460000D01*
X131297701Y-90626630D01*
X131249097Y-90786855D01*
X131170169Y-90934520D01*
X131063949Y-91063949D01*
X130934520Y-91170169D01*
X130786855Y-91249097D01*
X130626630Y-91297701D01*
X130501752Y-91310000D01*
X130418248Y-91310000D01*
X130293370Y-91297701D01*
X130133145Y-91249097D01*
X129985480Y-91170169D01*
X129856051Y-91063949D01*
X129749831Y-90934520D01*
X129670903Y-90786855D01*
X129622299Y-90626630D01*
X129605888Y-90460000D01*
X129622299Y-90293370D01*
X129670903Y-90133145D01*
X129749831Y-89985480D01*
X129856051Y-89856051D01*
X129985480Y-89749831D01*
X130133145Y-89670903D01*
X130293370Y-89622299D01*
X130418248Y-89610000D01*
X130501752Y-89610000D01*
X130626630Y-89622299D01*
X130626630Y-89622299D01*
G37*
G36*
X140666630Y-89122299D02*
X140826855Y-89170903D01*
X140974520Y-89249831D01*
X141103949Y-89356051D01*
X141210169Y-89485480D01*
X141289097Y-89633145D01*
X141337701Y-89793370D01*
X141354112Y-89960000D01*
X141337701Y-90126630D01*
X141289097Y-90286855D01*
X141210169Y-90434520D01*
X141103949Y-90563949D01*
X140974520Y-90670169D01*
X140826855Y-90749097D01*
X140666630Y-90797701D01*
X140541752Y-90810000D01*
X140458248Y-90810000D01*
X140333370Y-90797701D01*
X140173145Y-90749097D01*
X140025480Y-90670169D01*
X139896051Y-90563949D01*
X139789831Y-90434520D01*
X139710903Y-90286855D01*
X139662299Y-90126630D01*
X139645888Y-89960000D01*
X139662299Y-89793370D01*
X139710903Y-89633145D01*
X139789831Y-89485480D01*
X139896051Y-89356051D01*
X140025480Y-89249831D01*
X140173145Y-89170903D01*
X140333370Y-89122299D01*
X140458248Y-89110000D01*
X140541752Y-89110000D01*
X140666630Y-89122299D01*
X140666630Y-89122299D01*
G37*
G36*
X112666630Y-88782299D02*
X112826855Y-88830903D01*
X112974520Y-88909831D01*
X113103949Y-89016051D01*
X113210169Y-89145480D01*
X113289097Y-89293145D01*
X113337701Y-89453370D01*
X113354112Y-89620000D01*
X113337701Y-89786630D01*
X113289097Y-89946855D01*
X113210169Y-90094520D01*
X113103949Y-90223949D01*
X112974520Y-90330169D01*
X112826855Y-90409097D01*
X112666630Y-90457701D01*
X112541752Y-90470000D01*
X112458248Y-90470000D01*
X112333370Y-90457701D01*
X112173145Y-90409097D01*
X112025480Y-90330169D01*
X111896051Y-90223949D01*
X111789831Y-90094520D01*
X111710903Y-89946855D01*
X111662299Y-89786630D01*
X111645888Y-89620000D01*
X111662299Y-89453370D01*
X111710903Y-89293145D01*
X111789831Y-89145480D01*
X111896051Y-89016051D01*
X112025480Y-88909831D01*
X112173145Y-88830903D01*
X112333370Y-88782299D01*
X112458248Y-88770000D01*
X112541752Y-88770000D01*
X112666630Y-88782299D01*
X112666630Y-88782299D01*
G37*
G36*
X140666630Y-86582299D02*
X140826855Y-86630903D01*
X140974520Y-86709831D01*
X141103949Y-86816051D01*
X141210169Y-86945480D01*
X141289097Y-87093145D01*
X141337701Y-87253370D01*
X141354112Y-87420000D01*
X141337701Y-87586630D01*
X141289097Y-87746855D01*
X141210169Y-87894520D01*
X141103949Y-88023949D01*
X140974520Y-88130169D01*
X140826855Y-88209097D01*
X140666630Y-88257701D01*
X140541752Y-88270000D01*
X140458248Y-88270000D01*
X140333370Y-88257701D01*
X140173145Y-88209097D01*
X140025480Y-88130169D01*
X139896051Y-88023949D01*
X139789831Y-87894520D01*
X139710903Y-87746855D01*
X139662299Y-87586630D01*
X139645888Y-87420000D01*
X139662299Y-87253370D01*
X139710903Y-87093145D01*
X139789831Y-86945480D01*
X139896051Y-86816051D01*
X140025480Y-86709831D01*
X140173145Y-86630903D01*
X140333370Y-86582299D01*
X140458248Y-86570000D01*
X140541752Y-86570000D01*
X140666630Y-86582299D01*
X140666630Y-86582299D01*
G37*
G36*
X112666630Y-86242299D02*
X112826855Y-86290903D01*
X112974520Y-86369831D01*
X113103949Y-86476051D01*
X113210169Y-86605480D01*
X113289097Y-86753145D01*
X113337701Y-86913370D01*
X113354112Y-87080000D01*
X113337701Y-87246630D01*
X113289097Y-87406855D01*
X113210169Y-87554520D01*
X113103949Y-87683949D01*
X112974520Y-87790169D01*
X112826855Y-87869097D01*
X112666630Y-87917701D01*
X112541752Y-87930000D01*
X112458248Y-87930000D01*
X112333370Y-87917701D01*
X112173145Y-87869097D01*
X112025480Y-87790169D01*
X111896051Y-87683949D01*
X111789831Y-87554520D01*
X111710903Y-87406855D01*
X111662299Y-87246630D01*
X111645888Y-87080000D01*
X111662299Y-86913370D01*
X111710903Y-86753145D01*
X111789831Y-86605480D01*
X111896051Y-86476051D01*
X112025480Y-86369831D01*
X112173145Y-86290903D01*
X112333370Y-86242299D01*
X112458248Y-86230000D01*
X112541752Y-86230000D01*
X112666630Y-86242299D01*
X112666630Y-86242299D01*
G37*
G36*
X140666630Y-84042299D02*
X140826855Y-84090903D01*
X140974520Y-84169831D01*
X141103949Y-84276051D01*
X141210169Y-84405480D01*
X141289097Y-84553145D01*
X141337701Y-84713370D01*
X141354112Y-84880000D01*
X141337701Y-85046630D01*
X141289097Y-85206855D01*
X141210169Y-85354520D01*
X141103949Y-85483949D01*
X140974520Y-85590169D01*
X140826855Y-85669097D01*
X140666630Y-85717701D01*
X140541752Y-85730000D01*
X140458248Y-85730000D01*
X140333370Y-85717701D01*
X140173145Y-85669097D01*
X140025480Y-85590169D01*
X139896051Y-85483949D01*
X139789831Y-85354520D01*
X139710903Y-85206855D01*
X139662299Y-85046630D01*
X139645888Y-84880000D01*
X139662299Y-84713370D01*
X139710903Y-84553145D01*
X139789831Y-84405480D01*
X139896051Y-84276051D01*
X140025480Y-84169831D01*
X140173145Y-84090903D01*
X140333370Y-84042299D01*
X140458248Y-84030000D01*
X140541752Y-84030000D01*
X140666630Y-84042299D01*
X140666630Y-84042299D01*
G37*
G36*
X112666630Y-83702299D02*
X112826855Y-83750903D01*
X112974520Y-83829831D01*
X113103949Y-83936051D01*
X113210169Y-84065480D01*
X113289097Y-84213145D01*
X113337701Y-84373370D01*
X113354112Y-84540000D01*
X113337701Y-84706630D01*
X113289097Y-84866855D01*
X113210169Y-85014520D01*
X113103949Y-85143949D01*
X112974520Y-85250169D01*
X112826855Y-85329097D01*
X112666630Y-85377701D01*
X112541752Y-85390000D01*
X112458248Y-85390000D01*
X112333370Y-85377701D01*
X112173145Y-85329097D01*
X112025480Y-85250169D01*
X111896051Y-85143949D01*
X111789831Y-85014520D01*
X111710903Y-84866855D01*
X111662299Y-84706630D01*
X111645888Y-84540000D01*
X111662299Y-84373370D01*
X111710903Y-84213145D01*
X111789831Y-84065480D01*
X111896051Y-83936051D01*
X112025480Y-83829831D01*
X112173145Y-83750903D01*
X112333370Y-83702299D01*
X112458248Y-83690000D01*
X112541752Y-83690000D01*
X112666630Y-83702299D01*
X112666630Y-83702299D01*
G37*
G36*
X140666630Y-81502299D02*
X140826855Y-81550903D01*
X140974520Y-81629831D01*
X141103949Y-81736051D01*
X141210169Y-81865480D01*
X141289097Y-82013145D01*
X141337701Y-82173370D01*
X141354112Y-82340000D01*
X141337701Y-82506630D01*
X141289097Y-82666855D01*
X141210169Y-82814520D01*
X141103949Y-82943949D01*
X140974520Y-83050169D01*
X140826855Y-83129097D01*
X140666630Y-83177701D01*
X140541752Y-83190000D01*
X140458248Y-83190000D01*
X140333370Y-83177701D01*
X140173145Y-83129097D01*
X140025480Y-83050169D01*
X139896051Y-82943949D01*
X139789831Y-82814520D01*
X139710903Y-82666855D01*
X139662299Y-82506630D01*
X139645888Y-82340000D01*
X139662299Y-82173370D01*
X139710903Y-82013145D01*
X139789831Y-81865480D01*
X139896051Y-81736051D01*
X140025480Y-81629831D01*
X140173145Y-81550903D01*
X140333370Y-81502299D01*
X140458248Y-81490000D01*
X140541752Y-81490000D01*
X140666630Y-81502299D01*
X140666630Y-81502299D01*
G37*
G36*
X112666630Y-81162299D02*
X112826855Y-81210903D01*
X112974520Y-81289831D01*
X113103949Y-81396051D01*
X113210169Y-81525480D01*
X113289097Y-81673145D01*
X113337701Y-81833370D01*
X113354112Y-82000000D01*
X113337701Y-82166630D01*
X113289097Y-82326855D01*
X113210169Y-82474520D01*
X113103949Y-82603949D01*
X112974520Y-82710169D01*
X112826855Y-82789097D01*
X112666630Y-82837701D01*
X112541752Y-82850000D01*
X112458248Y-82850000D01*
X112333370Y-82837701D01*
X112173145Y-82789097D01*
X112025480Y-82710169D01*
X111896051Y-82603949D01*
X111789831Y-82474520D01*
X111710903Y-82326855D01*
X111662299Y-82166630D01*
X111645888Y-82000000D01*
X111662299Y-81833370D01*
X111710903Y-81673145D01*
X111789831Y-81525480D01*
X111896051Y-81396051D01*
X112025480Y-81289831D01*
X112173145Y-81210903D01*
X112333370Y-81162299D01*
X112458248Y-81150000D01*
X112541752Y-81150000D01*
X112666630Y-81162299D01*
X112666630Y-81162299D01*
G37*
G36*
X140666630Y-78962299D02*
X140826855Y-79010903D01*
X140974520Y-79089831D01*
X141103949Y-79196051D01*
X141210169Y-79325480D01*
X141289097Y-79473145D01*
X141337701Y-79633370D01*
X141354112Y-79800000D01*
X141337701Y-79966630D01*
X141289097Y-80126855D01*
X141210169Y-80274520D01*
X141103949Y-80403949D01*
X140974520Y-80510169D01*
X140826855Y-80589097D01*
X140666630Y-80637701D01*
X140541752Y-80650000D01*
X140458248Y-80650000D01*
X140333370Y-80637701D01*
X140173145Y-80589097D01*
X140025480Y-80510169D01*
X139896051Y-80403949D01*
X139789831Y-80274520D01*
X139710903Y-80126855D01*
X139662299Y-79966630D01*
X139645888Y-79800000D01*
X139662299Y-79633370D01*
X139710903Y-79473145D01*
X139789831Y-79325480D01*
X139896051Y-79196051D01*
X140025480Y-79089831D01*
X140173145Y-79010903D01*
X140333370Y-78962299D01*
X140458248Y-78950000D01*
X140541752Y-78950000D01*
X140666630Y-78962299D01*
X140666630Y-78962299D01*
G37*
G36*
X112666630Y-78622299D02*
X112826855Y-78670903D01*
X112974520Y-78749831D01*
X113103949Y-78856051D01*
X113210169Y-78985480D01*
X113289097Y-79133145D01*
X113337701Y-79293370D01*
X113354112Y-79460000D01*
X113337701Y-79626630D01*
X113289097Y-79786855D01*
X113210169Y-79934520D01*
X113103949Y-80063949D01*
X112974520Y-80170169D01*
X112826855Y-80249097D01*
X112666630Y-80297701D01*
X112541752Y-80310000D01*
X112458248Y-80310000D01*
X112333370Y-80297701D01*
X112173145Y-80249097D01*
X112025480Y-80170169D01*
X111896051Y-80063949D01*
X111789831Y-79934520D01*
X111710903Y-79786855D01*
X111662299Y-79626630D01*
X111645888Y-79460000D01*
X111662299Y-79293370D01*
X111710903Y-79133145D01*
X111789831Y-78985480D01*
X111896051Y-78856051D01*
X112025480Y-78749831D01*
X112173145Y-78670903D01*
X112333370Y-78622299D01*
X112458248Y-78610000D01*
X112541752Y-78610000D01*
X112666630Y-78622299D01*
X112666630Y-78622299D01*
G37*
G36*
X140666630Y-76422299D02*
X140826855Y-76470903D01*
X140974520Y-76549831D01*
X141103949Y-76656051D01*
X141210169Y-76785480D01*
X141289097Y-76933145D01*
X141337701Y-77093370D01*
X141354112Y-77260000D01*
X141337701Y-77426630D01*
X141289097Y-77586855D01*
X141210169Y-77734520D01*
X141103949Y-77863949D01*
X140974520Y-77970169D01*
X140826855Y-78049097D01*
X140666630Y-78097701D01*
X140541752Y-78110000D01*
X140458248Y-78110000D01*
X140333370Y-78097701D01*
X140173145Y-78049097D01*
X140025480Y-77970169D01*
X139896051Y-77863949D01*
X139789831Y-77734520D01*
X139710903Y-77586855D01*
X139662299Y-77426630D01*
X139645888Y-77260000D01*
X139662299Y-77093370D01*
X139710903Y-76933145D01*
X139789831Y-76785480D01*
X139896051Y-76656051D01*
X140025480Y-76549831D01*
X140173145Y-76470903D01*
X140333370Y-76422299D01*
X140458248Y-76410000D01*
X140541752Y-76410000D01*
X140666630Y-76422299D01*
X140666630Y-76422299D01*
G37*
G36*
X112666630Y-76082299D02*
X112826855Y-76130903D01*
X112974520Y-76209831D01*
X113103949Y-76316051D01*
X113210169Y-76445480D01*
X113289097Y-76593145D01*
X113337701Y-76753370D01*
X113354112Y-76920000D01*
X113337701Y-77086630D01*
X113289097Y-77246855D01*
X113210169Y-77394520D01*
X113103949Y-77523949D01*
X112974520Y-77630169D01*
X112826855Y-77709097D01*
X112666630Y-77757701D01*
X112541752Y-77770000D01*
X112458248Y-77770000D01*
X112333370Y-77757701D01*
X112173145Y-77709097D01*
X112025480Y-77630169D01*
X111896051Y-77523949D01*
X111789831Y-77394520D01*
X111710903Y-77246855D01*
X111662299Y-77086630D01*
X111645888Y-76920000D01*
X111662299Y-76753370D01*
X111710903Y-76593145D01*
X111789831Y-76445480D01*
X111896051Y-76316051D01*
X112025480Y-76209831D01*
X112173145Y-76130903D01*
X112333370Y-76082299D01*
X112458248Y-76070000D01*
X112541752Y-76070000D01*
X112666630Y-76082299D01*
X112666630Y-76082299D01*
G37*
G36*
X140666630Y-73882299D02*
X140826855Y-73930903D01*
X140974520Y-74009831D01*
X141103949Y-74116051D01*
X141210169Y-74245480D01*
X141289097Y-74393145D01*
X141337701Y-74553370D01*
X141354112Y-74720000D01*
X141337701Y-74886630D01*
X141289097Y-75046855D01*
X141210169Y-75194520D01*
X141103949Y-75323949D01*
X140974520Y-75430169D01*
X140826855Y-75509097D01*
X140666630Y-75557701D01*
X140541752Y-75570000D01*
X140458248Y-75570000D01*
X140333370Y-75557701D01*
X140173145Y-75509097D01*
X140025480Y-75430169D01*
X139896051Y-75323949D01*
X139789831Y-75194520D01*
X139710903Y-75046855D01*
X139662299Y-74886630D01*
X139645888Y-74720000D01*
X139662299Y-74553370D01*
X139710903Y-74393145D01*
X139789831Y-74245480D01*
X139896051Y-74116051D01*
X140025480Y-74009831D01*
X140173145Y-73930903D01*
X140333370Y-73882299D01*
X140458248Y-73870000D01*
X140541752Y-73870000D01*
X140666630Y-73882299D01*
X140666630Y-73882299D01*
G37*
G36*
X112666630Y-73542299D02*
X112826855Y-73590903D01*
X112974520Y-73669831D01*
X113103949Y-73776051D01*
X113210169Y-73905480D01*
X113289097Y-74053145D01*
X113337701Y-74213370D01*
X113354112Y-74380000D01*
X113337701Y-74546630D01*
X113289097Y-74706855D01*
X113210169Y-74854520D01*
X113103949Y-74983949D01*
X112974520Y-75090169D01*
X112826855Y-75169097D01*
X112666630Y-75217701D01*
X112541752Y-75230000D01*
X112458248Y-75230000D01*
X112333370Y-75217701D01*
X112173145Y-75169097D01*
X112025480Y-75090169D01*
X111896051Y-74983949D01*
X111789831Y-74854520D01*
X111710903Y-74706855D01*
X111662299Y-74546630D01*
X111645888Y-74380000D01*
X111662299Y-74213370D01*
X111710903Y-74053145D01*
X111789831Y-73905480D01*
X111896051Y-73776051D01*
X112025480Y-73669831D01*
X112173145Y-73590903D01*
X112333370Y-73542299D01*
X112458248Y-73530000D01*
X112541752Y-73530000D01*
X112666630Y-73542299D01*
X112666630Y-73542299D01*
G37*
G36*
X140666630Y-71342299D02*
X140826855Y-71390903D01*
X140974520Y-71469831D01*
X141103949Y-71576051D01*
X141210169Y-71705480D01*
X141289097Y-71853145D01*
X141337701Y-72013370D01*
X141354112Y-72180000D01*
X141337701Y-72346630D01*
X141289097Y-72506855D01*
X141210169Y-72654520D01*
X141103949Y-72783949D01*
X140974520Y-72890169D01*
X140826855Y-72969097D01*
X140666630Y-73017701D01*
X140541752Y-73030000D01*
X140458248Y-73030000D01*
X140333370Y-73017701D01*
X140173145Y-72969097D01*
X140025480Y-72890169D01*
X139896051Y-72783949D01*
X139789831Y-72654520D01*
X139710903Y-72506855D01*
X139662299Y-72346630D01*
X139645888Y-72180000D01*
X139662299Y-72013370D01*
X139710903Y-71853145D01*
X139789831Y-71705480D01*
X139896051Y-71576051D01*
X140025480Y-71469831D01*
X140173145Y-71390903D01*
X140333370Y-71342299D01*
X140458248Y-71330000D01*
X140541752Y-71330000D01*
X140666630Y-71342299D01*
X140666630Y-71342299D01*
G37*
G36*
X112666630Y-71002299D02*
X112826855Y-71050903D01*
X112974520Y-71129831D01*
X113103949Y-71236051D01*
X113210169Y-71365480D01*
X113289097Y-71513145D01*
X113337701Y-71673370D01*
X113354112Y-71840000D01*
X113337701Y-72006630D01*
X113289097Y-72166855D01*
X113210169Y-72314520D01*
X113103949Y-72443949D01*
X112974520Y-72550169D01*
X112826855Y-72629097D01*
X112666630Y-72677701D01*
X112541752Y-72690000D01*
X112458248Y-72690000D01*
X112333370Y-72677701D01*
X112173145Y-72629097D01*
X112025480Y-72550169D01*
X111896051Y-72443949D01*
X111789831Y-72314520D01*
X111710903Y-72166855D01*
X111662299Y-72006630D01*
X111645888Y-71840000D01*
X111662299Y-71673370D01*
X111710903Y-71513145D01*
X111789831Y-71365480D01*
X111896051Y-71236051D01*
X112025480Y-71129831D01*
X112173145Y-71050903D01*
X112333370Y-71002299D01*
X112458248Y-70990000D01*
X112541752Y-70990000D01*
X112666630Y-71002299D01*
X112666630Y-71002299D01*
G37*
G36*
X140666630Y-68802299D02*
X140826855Y-68850903D01*
X140974520Y-68929831D01*
X141103949Y-69036051D01*
X141210169Y-69165480D01*
X141289097Y-69313145D01*
X141337701Y-69473370D01*
X141354112Y-69640000D01*
X141337701Y-69806630D01*
X141289097Y-69966855D01*
X141210169Y-70114520D01*
X141103949Y-70243949D01*
X140974520Y-70350169D01*
X140826855Y-70429097D01*
X140666630Y-70477701D01*
X140541752Y-70490000D01*
X140458248Y-70490000D01*
X140333370Y-70477701D01*
X140173145Y-70429097D01*
X140025480Y-70350169D01*
X139896051Y-70243949D01*
X139789831Y-70114520D01*
X139710903Y-69966855D01*
X139662299Y-69806630D01*
X139645888Y-69640000D01*
X139662299Y-69473370D01*
X139710903Y-69313145D01*
X139789831Y-69165480D01*
X139896051Y-69036051D01*
X140025480Y-68929831D01*
X140173145Y-68850903D01*
X140333370Y-68802299D01*
X140458248Y-68790000D01*
X140541752Y-68790000D01*
X140666630Y-68802299D01*
X140666630Y-68802299D01*
G37*
G36*
X113350000Y-70150000D02*
X111650000Y-70150000D01*
X111650000Y-68450000D01*
X113350000Y-68450000D01*
X113350000Y-70150000D01*
X113350000Y-70150000D01*
G37*
G36*
X132946630Y-62662299D02*
X133106855Y-62710903D01*
X133254520Y-62789831D01*
X133383949Y-62896051D01*
X133490169Y-63025480D01*
X133569097Y-63173145D01*
X133617701Y-63333370D01*
X133634112Y-63500000D01*
X133617701Y-63666630D01*
X133569097Y-63826855D01*
X133490169Y-63974520D01*
X133383949Y-64103949D01*
X133254520Y-64210169D01*
X133106855Y-64289097D01*
X132946630Y-64337701D01*
X132821752Y-64350000D01*
X132738248Y-64350000D01*
X132613370Y-64337701D01*
X132453145Y-64289097D01*
X132305480Y-64210169D01*
X132176051Y-64103949D01*
X132069831Y-63974520D01*
X131990903Y-63826855D01*
X131942299Y-63666630D01*
X131925888Y-63500000D01*
X131942299Y-63333370D01*
X131990903Y-63173145D01*
X132069831Y-63025480D01*
X132176051Y-62896051D01*
X132305480Y-62789831D01*
X132453145Y-62710903D01*
X132613370Y-62662299D01*
X132738248Y-62650000D01*
X132821752Y-62650000D01*
X132946630Y-62662299D01*
X132946630Y-62662299D01*
G37*
G36*
X117706630Y-62662299D02*
X117866855Y-62710903D01*
X118014520Y-62789831D01*
X118143949Y-62896051D01*
X118250169Y-63025480D01*
X118329097Y-63173145D01*
X118377701Y-63333370D01*
X118394112Y-63500000D01*
X118377701Y-63666630D01*
X118329097Y-63826855D01*
X118250169Y-63974520D01*
X118143949Y-64103949D01*
X118014520Y-64210169D01*
X117866855Y-64289097D01*
X117706630Y-64337701D01*
X117581752Y-64350000D01*
X117498248Y-64350000D01*
X117373370Y-64337701D01*
X117213145Y-64289097D01*
X117065480Y-64210169D01*
X116936051Y-64103949D01*
X116829831Y-63974520D01*
X116750903Y-63826855D01*
X116702299Y-63666630D01*
X116685888Y-63500000D01*
X116702299Y-63333370D01*
X116750903Y-63173145D01*
X116829831Y-63025480D01*
X116936051Y-62896051D01*
X117065480Y-62789831D01*
X117213145Y-62710903D01*
X117373370Y-62662299D01*
X117498248Y-62650000D01*
X117581752Y-62650000D01*
X117706630Y-62662299D01*
X117706630Y-62662299D01*
G37*
G36*
X130406630Y-62662299D02*
X130566855Y-62710903D01*
X130714520Y-62789831D01*
X130843949Y-62896051D01*
X130950169Y-63025480D01*
X131029097Y-63173145D01*
X131077701Y-63333370D01*
X131094112Y-63500000D01*
X131077701Y-63666630D01*
X131029097Y-63826855D01*
X130950169Y-63974520D01*
X130843949Y-64103949D01*
X130714520Y-64210169D01*
X130566855Y-64289097D01*
X130406630Y-64337701D01*
X130281752Y-64350000D01*
X130198248Y-64350000D01*
X130073370Y-64337701D01*
X129913145Y-64289097D01*
X129765480Y-64210169D01*
X129636051Y-64103949D01*
X129529831Y-63974520D01*
X129450903Y-63826855D01*
X129402299Y-63666630D01*
X129385888Y-63500000D01*
X129402299Y-63333370D01*
X129450903Y-63173145D01*
X129529831Y-63025480D01*
X129636051Y-62896051D01*
X129765480Y-62789831D01*
X129913145Y-62710903D01*
X130073370Y-62662299D01*
X130198248Y-62650000D01*
X130281752Y-62650000D01*
X130406630Y-62662299D01*
X130406630Y-62662299D01*
G37*
G36*
X127866630Y-62662299D02*
X128026855Y-62710903D01*
X128174520Y-62789831D01*
X128303949Y-62896051D01*
X128410169Y-63025480D01*
X128489097Y-63173145D01*
X128537701Y-63333370D01*
X128554112Y-63500000D01*
X128537701Y-63666630D01*
X128489097Y-63826855D01*
X128410169Y-63974520D01*
X128303949Y-64103949D01*
X128174520Y-64210169D01*
X128026855Y-64289097D01*
X127866630Y-64337701D01*
X127741752Y-64350000D01*
X127658248Y-64350000D01*
X127533370Y-64337701D01*
X127373145Y-64289097D01*
X127225480Y-64210169D01*
X127096051Y-64103949D01*
X126989831Y-63974520D01*
X126910903Y-63826855D01*
X126862299Y-63666630D01*
X126845888Y-63500000D01*
X126862299Y-63333370D01*
X126910903Y-63173145D01*
X126989831Y-63025480D01*
X127096051Y-62896051D01*
X127225480Y-62789831D01*
X127373145Y-62710903D01*
X127533370Y-62662299D01*
X127658248Y-62650000D01*
X127741752Y-62650000D01*
X127866630Y-62662299D01*
X127866630Y-62662299D01*
G37*
G36*
X125326630Y-62662299D02*
X125486855Y-62710903D01*
X125634520Y-62789831D01*
X125763949Y-62896051D01*
X125870169Y-63025480D01*
X125949097Y-63173145D01*
X125997701Y-63333370D01*
X126014112Y-63500000D01*
X125997701Y-63666630D01*
X125949097Y-63826855D01*
X125870169Y-63974520D01*
X125763949Y-64103949D01*
X125634520Y-64210169D01*
X125486855Y-64289097D01*
X125326630Y-64337701D01*
X125201752Y-64350000D01*
X125118248Y-64350000D01*
X124993370Y-64337701D01*
X124833145Y-64289097D01*
X124685480Y-64210169D01*
X124556051Y-64103949D01*
X124449831Y-63974520D01*
X124370903Y-63826855D01*
X124322299Y-63666630D01*
X124305888Y-63500000D01*
X124322299Y-63333370D01*
X124370903Y-63173145D01*
X124449831Y-63025480D01*
X124556051Y-62896051D01*
X124685480Y-62789831D01*
X124833145Y-62710903D01*
X124993370Y-62662299D01*
X125118248Y-62650000D01*
X125201752Y-62650000D01*
X125326630Y-62662299D01*
X125326630Y-62662299D01*
G37*
G36*
X122786630Y-62662299D02*
X122946855Y-62710903D01*
X123094520Y-62789831D01*
X123223949Y-62896051D01*
X123330169Y-63025480D01*
X123409097Y-63173145D01*
X123457701Y-63333370D01*
X123474112Y-63500000D01*
X123457701Y-63666630D01*
X123409097Y-63826855D01*
X123330169Y-63974520D01*
X123223949Y-64103949D01*
X123094520Y-64210169D01*
X122946855Y-64289097D01*
X122786630Y-64337701D01*
X122661752Y-64350000D01*
X122578248Y-64350000D01*
X122453370Y-64337701D01*
X122293145Y-64289097D01*
X122145480Y-64210169D01*
X122016051Y-64103949D01*
X121909831Y-63974520D01*
X121830903Y-63826855D01*
X121782299Y-63666630D01*
X121765888Y-63500000D01*
X121782299Y-63333370D01*
X121830903Y-63173145D01*
X121909831Y-63025480D01*
X122016051Y-62896051D01*
X122145480Y-62789831D01*
X122293145Y-62710903D01*
X122453370Y-62662299D01*
X122578248Y-62650000D01*
X122661752Y-62650000D01*
X122786630Y-62662299D01*
X122786630Y-62662299D01*
G37*
G36*
X120246630Y-62662299D02*
X120406855Y-62710903D01*
X120554520Y-62789831D01*
X120683949Y-62896051D01*
X120790169Y-63025480D01*
X120869097Y-63173145D01*
X120917701Y-63333370D01*
X120934112Y-63500000D01*
X120917701Y-63666630D01*
X120869097Y-63826855D01*
X120790169Y-63974520D01*
X120683949Y-64103949D01*
X120554520Y-64210169D01*
X120406855Y-64289097D01*
X120246630Y-64337701D01*
X120121752Y-64350000D01*
X120038248Y-64350000D01*
X119913370Y-64337701D01*
X119753145Y-64289097D01*
X119605480Y-64210169D01*
X119476051Y-64103949D01*
X119369831Y-63974520D01*
X119290903Y-63826855D01*
X119242299Y-63666630D01*
X119225888Y-63500000D01*
X119242299Y-63333370D01*
X119290903Y-63173145D01*
X119369831Y-63025480D01*
X119476051Y-62896051D01*
X119605480Y-62789831D01*
X119753145Y-62710903D01*
X119913370Y-62662299D01*
X120038248Y-62650000D01*
X120121752Y-62650000D01*
X120246630Y-62662299D01*
X120246630Y-62662299D01*
G37*
G36*
X115850000Y-64350000D02*
X114150000Y-64350000D01*
X114150000Y-62650000D01*
X115850000Y-62650000D01*
X115850000Y-64350000D01*
X115850000Y-64350000D01*
G37*
G36*
X135486630Y-62662299D02*
X135646855Y-62710903D01*
X135794520Y-62789831D01*
X135923949Y-62896051D01*
X136030169Y-63025480D01*
X136109097Y-63173145D01*
X136157701Y-63333370D01*
X136174112Y-63500000D01*
X136157701Y-63666630D01*
X136109097Y-63826855D01*
X136030169Y-63974520D01*
X135923949Y-64103949D01*
X135794520Y-64210169D01*
X135646855Y-64289097D01*
X135486630Y-64337701D01*
X135361752Y-64350000D01*
X135278248Y-64350000D01*
X135153370Y-64337701D01*
X134993145Y-64289097D01*
X134845480Y-64210169D01*
X134716051Y-64103949D01*
X134609831Y-63974520D01*
X134530903Y-63826855D01*
X134482299Y-63666630D01*
X134465888Y-63500000D01*
X134482299Y-63333370D01*
X134530903Y-63173145D01*
X134609831Y-63025480D01*
X134716051Y-62896051D01*
X134845480Y-62789831D01*
X134993145Y-62710903D01*
X135153370Y-62662299D01*
X135278248Y-62650000D01*
X135361752Y-62650000D01*
X135486630Y-62662299D01*
X135486630Y-62662299D01*
G37*
G36*
X138026630Y-62662299D02*
X138186855Y-62710903D01*
X138334520Y-62789831D01*
X138463949Y-62896051D01*
X138570169Y-63025480D01*
X138649097Y-63173145D01*
X138697701Y-63333370D01*
X138714112Y-63500000D01*
X138697701Y-63666630D01*
X138649097Y-63826855D01*
X138570169Y-63974520D01*
X138463949Y-64103949D01*
X138334520Y-64210169D01*
X138186855Y-64289097D01*
X138026630Y-64337701D01*
X137901752Y-64350000D01*
X137818248Y-64350000D01*
X137693370Y-64337701D01*
X137533145Y-64289097D01*
X137385480Y-64210169D01*
X137256051Y-64103949D01*
X137149831Y-63974520D01*
X137070903Y-63826855D01*
X137022299Y-63666630D01*
X137005888Y-63500000D01*
X137022299Y-63333370D01*
X137070903Y-63173145D01*
X137149831Y-63025480D01*
X137256051Y-62896051D01*
X137385480Y-62789831D01*
X137533145Y-62710903D01*
X137693370Y-62662299D01*
X137818248Y-62650000D01*
X137901752Y-62650000D01*
X138026630Y-62662299D01*
X138026630Y-62662299D01*
G37*
M02*
