G04 #@! TF.GenerationSoftware,KiCad,Pcbnew,5.0.2+dfsg1-1~bpo9+1*
G04 #@! TF.CreationDate,2019-04-25T13:48:24-07:00*
G04 #@! TF.ProjectId,HW,48572e6b-6963-4616-945f-706362585858,rev?*
G04 #@! TF.SameCoordinates,Original*
G04 #@! TF.FileFunction,Copper,L2,Bot*
G04 #@! TF.FilePolarity,Positive*
%FSLAX46Y46*%
G04 Gerber Fmt 4.6, Leading zero omitted, Abs format (unit mm)*
G04 Created by KiCad (PCBNEW 5.0.2+dfsg1-1~bpo9+1) date Thu 25 Apr 2019 01:48:24 PM PDT*
%MOMM*%
%LPD*%
G01*
G04 APERTURE LIST*
G04 #@! TA.AperFunction,ComponentPad*
%ADD10C,1.524000*%
G04 #@! TD*
G04 #@! TA.AperFunction,ComponentPad*
%ADD11O,1.700000X1.700000*%
G04 #@! TD*
G04 #@! TA.AperFunction,ComponentPad*
%ADD12R,1.700000X1.700000*%
G04 #@! TD*
G04 #@! TA.AperFunction,ComponentPad*
%ADD13R,1.500000X2.300000*%
G04 #@! TD*
G04 #@! TA.AperFunction,ComponentPad*
%ADD14O,1.500000X2.300000*%
G04 #@! TD*
G04 #@! TA.AperFunction,ComponentPad*
%ADD15R,1.727200X1.727200*%
G04 #@! TD*
G04 #@! TA.AperFunction,ComponentPad*
%ADD16O,1.727200X1.727200*%
G04 #@! TD*
G04 #@! TA.AperFunction,ViaPad*
%ADD17C,0.800000*%
G04 #@! TD*
G04 #@! TA.AperFunction,ViaPad*
%ADD18C,0.500000*%
G04 #@! TD*
G04 #@! TA.AperFunction,Conductor*
%ADD19C,1.000000*%
G04 #@! TD*
G04 #@! TA.AperFunction,Conductor*
%ADD20C,0.127000*%
G04 #@! TD*
G04 #@! TA.AperFunction,Conductor*
%ADD21C,0.200000*%
G04 #@! TD*
G04 #@! TA.AperFunction,Conductor*
%ADD22C,0.254000*%
G04 #@! TD*
G04 APERTURE END LIST*
D10*
G04 #@! TO.P,SW1,1*
G04 #@! TO.N,/MCU/nRST*
X134260000Y-97750000D03*
G04 #@! TO.P,SW1,2*
X140760000Y-97750000D03*
G04 #@! TO.P,SW1,3*
G04 #@! TO.N,GND*
X134260000Y-102250000D03*
G04 #@! TO.P,SW1,4*
G04 #@! TO.N,N/C*
X140760000Y-102250000D03*
G04 #@! TD*
D11*
G04 #@! TO.P,J1,10*
G04 #@! TO.N,GND*
X137860000Y-146500000D03*
G04 #@! TO.P,J1,9*
G04 #@! TO.N,/D2*
X135320000Y-146500000D03*
G04 #@! TO.P,J1,8*
G04 #@! TO.N,/D1*
X132780000Y-146500000D03*
G04 #@! TO.P,J1,7*
G04 #@! TO.N,/D0*
X130240000Y-146500000D03*
G04 #@! TO.P,J1,6*
G04 #@! TO.N,/AOUT2*
X127700000Y-146500000D03*
G04 #@! TO.P,J1,5*
G04 #@! TO.N,/AOUT1*
X125160000Y-146500000D03*
G04 #@! TO.P,J1,4*
G04 #@! TO.N,/AOUT0*
X122620000Y-146500000D03*
G04 #@! TO.P,J1,3*
G04 #@! TO.N,/AIN2*
X120080000Y-146500000D03*
G04 #@! TO.P,J1,2*
G04 #@! TO.N,/AIN1*
X117540000Y-146500000D03*
D12*
G04 #@! TO.P,J1,1*
G04 #@! TO.N,/AIN0*
X115000000Y-146500000D03*
G04 #@! TD*
G04 #@! TO.P,J4,1*
G04 #@! TO.N,+3V3*
X115000000Y-63500000D03*
D11*
G04 #@! TO.P,J4,2*
G04 #@! TO.N,/POT0*
X117540000Y-63500000D03*
G04 #@! TO.P,J4,3*
G04 #@! TO.N,/POT1*
X120080000Y-63500000D03*
G04 #@! TO.P,J4,4*
G04 #@! TO.N,/POT2*
X122620000Y-63500000D03*
G04 #@! TO.P,J4,5*
G04 #@! TO.N,/POT3*
X125160000Y-63500000D03*
G04 #@! TO.P,J4,6*
G04 #@! TO.N,Net-(J4-Pad6)*
X127700000Y-63500000D03*
G04 #@! TO.P,J4,7*
G04 #@! TO.N,/D3*
X130240000Y-63500000D03*
G04 #@! TO.P,J4,8*
G04 #@! TO.N,/D4*
X132780000Y-63500000D03*
G04 #@! TO.P,J4,9*
G04 #@! TO.N,/D5*
X135320000Y-63500000D03*
G04 #@! TO.P,J4,10*
G04 #@! TO.N,GND*
X137860000Y-63500000D03*
G04 #@! TD*
D12*
G04 #@! TO.P,J2,1*
G04 #@! TO.N,+3V3*
X133000000Y-93000000D03*
D11*
G04 #@! TO.P,J2,2*
G04 #@! TO.N,SWDIO*
X133000000Y-90460000D03*
G04 #@! TO.P,J2,3*
G04 #@! TO.N,/MCU/nRST*
X130460000Y-93000000D03*
G04 #@! TO.P,J2,4*
G04 #@! TO.N,SWCLK*
X130460000Y-90460000D03*
G04 #@! TO.P,J2,5*
G04 #@! TO.N,GND*
X127920000Y-93000000D03*
G04 #@! TO.P,J2,6*
G04 #@! TO.N,Net-(J2-Pad6)*
X127920000Y-90460000D03*
G04 #@! TD*
G04 #@! TO.P,J6,10*
G04 #@! TO.N,/MCU/USART1_RX*
X112500000Y-92160000D03*
G04 #@! TO.P,J6,9*
G04 #@! TO.N,/MCU/USART1_TX*
X112500000Y-89620000D03*
G04 #@! TO.P,J6,8*
G04 #@! TO.N,GND*
X112500000Y-87080000D03*
G04 #@! TO.P,J6,7*
G04 #@! TO.N,/MCU/DAC2*
X112500000Y-84540000D03*
G04 #@! TO.P,J6,6*
G04 #@! TO.N,Net-(J6-Pad6)*
X112500000Y-82000000D03*
G04 #@! TO.P,J6,5*
G04 #@! TO.N,/OUT_Cond/Vin*
X112500000Y-79460000D03*
G04 #@! TO.P,J6,4*
G04 #@! TO.N,/POT0*
X112500000Y-76920000D03*
G04 #@! TO.P,J6,3*
G04 #@! TO.N,/POT1*
X112500000Y-74380000D03*
G04 #@! TO.P,J6,2*
G04 #@! TO.N,/POT2*
X112500000Y-71840000D03*
D12*
G04 #@! TO.P,J6,1*
G04 #@! TO.N,/POT3*
X112500000Y-69300000D03*
G04 #@! TD*
G04 #@! TO.P,J5,1*
G04 #@! TO.N,/D0*
X140500000Y-92500000D03*
D11*
G04 #@! TO.P,J5,2*
G04 #@! TO.N,/D1*
X140500000Y-89960000D03*
G04 #@! TO.P,J5,3*
G04 #@! TO.N,/D2*
X140500000Y-87420000D03*
G04 #@! TO.P,J5,4*
G04 #@! TO.N,/D3*
X140500000Y-84880000D03*
G04 #@! TO.P,J5,5*
G04 #@! TO.N,/D4*
X140500000Y-82340000D03*
G04 #@! TO.P,J5,6*
G04 #@! TO.N,/D5*
X140500000Y-79800000D03*
G04 #@! TO.P,J5,7*
G04 #@! TO.N,Net-(J5-Pad7)*
X140500000Y-77260000D03*
G04 #@! TO.P,J5,8*
G04 #@! TO.N,Net-(J5-Pad8)*
X140500000Y-74720000D03*
G04 #@! TO.P,J5,9*
G04 #@! TO.N,Net-(J5-Pad9)*
X140500000Y-72180000D03*
G04 #@! TO.P,J5,10*
G04 #@! TO.N,Net-(J5-Pad10)*
X140500000Y-69640000D03*
G04 #@! TD*
D13*
G04 #@! TO.P,U3,1*
G04 #@! TO.N,+12V*
X120500000Y-128500000D03*
D14*
G04 #@! TO.P,U3,2*
G04 #@! TO.N,GND*
X117960000Y-128500000D03*
G04 #@! TO.P,U3,3*
G04 #@! TO.N,+3V3*
X115420000Y-128500000D03*
G04 #@! TD*
D15*
G04 #@! TO.P,J3,1*
G04 #@! TO.N,Net-(D2-Pad1)*
X131000000Y-140000000D03*
D16*
G04 #@! TO.P,J3,2*
X131000000Y-137460000D03*
G04 #@! TO.P,J3,3*
G04 #@! TO.N,GND*
X128460000Y-140000000D03*
G04 #@! TO.P,J3,4*
X128460000Y-137460000D03*
G04 #@! TO.P,J3,5*
X125920000Y-140000000D03*
G04 #@! TO.P,J3,6*
X125920000Y-137460000D03*
G04 #@! TO.P,J3,7*
X123380000Y-140000000D03*
G04 #@! TO.P,J3,8*
X123380000Y-137460000D03*
G04 #@! TO.P,J3,9*
G04 #@! TO.N,Net-(D1-Pad2)*
X120840000Y-140000000D03*
G04 #@! TO.P,J3,10*
X120840000Y-137460000D03*
G04 #@! TD*
D17*
G04 #@! TO.N,GND*
X122500000Y-80500000D03*
X121000000Y-70000000D03*
X121000000Y-74000000D03*
X126000000Y-69000000D03*
X126000000Y-71000000D03*
X125000000Y-77000000D03*
X123000000Y-76000000D03*
X118000000Y-81000000D03*
X119500000Y-79500000D03*
X119500000Y-107000000D03*
X116500000Y-102000000D03*
X113500000Y-110500000D03*
X120500000Y-109500000D03*
X127500000Y-104500000D03*
X134000000Y-111000000D03*
X140000000Y-112500000D03*
X135500000Y-123500000D03*
X127500000Y-119000000D03*
X123500000Y-120000000D03*
X126000000Y-127000000D03*
X125000000Y-132500000D03*
X139000000Y-129500000D03*
X129000000Y-135500000D03*
X122000000Y-135000000D03*
X117500000Y-142000000D03*
X139000000Y-140500000D03*
X115500000Y-132000000D03*
X116000000Y-123000000D03*
X113000000Y-120500000D03*
X136500000Y-87000000D03*
X137000000Y-73500000D03*
X132500000Y-72500000D03*
X128000000Y-77000000D03*
X124500000Y-80000000D03*
X129500000Y-111000000D03*
G04 #@! TO.N,+3V3*
X111500000Y-95750000D03*
X116250000Y-95750000D03*
X123000000Y-95750000D03*
X130750000Y-95750000D03*
X125000000Y-66500000D03*
G04 #@! TO.N,/POT0*
X120402000Y-75250000D03*
G04 #@! TO.N,/POT1*
X121127000Y-72250000D03*
G04 #@! TO.N,/POT2*
X122620000Y-71250000D03*
G04 #@! TO.N,/POT3*
X123250000Y-68750000D03*
G04 #@! TO.N,Net-(R18-Pad2)*
X135562500Y-120187500D03*
X129250000Y-121500000D03*
G04 #@! TO.N,/OUT_Cond/Vin*
X119500000Y-76500000D03*
X130000000Y-115000000D03*
X112750000Y-97250000D03*
G04 #@! TO.N,+1.65V*
X137750000Y-108500000D03*
X126750000Y-108500000D03*
X116250000Y-108500000D03*
D18*
G04 #@! TO.N,Net-(R7-Pad1)*
X116937500Y-116437500D03*
D17*
X119000000Y-116500000D03*
G04 #@! TO.N,-12V*
X133000000Y-125000000D03*
X113750000Y-125000000D03*
X126250000Y-125000000D03*
G04 #@! TO.N,+12V*
X135000000Y-127500000D03*
D18*
G04 #@! TO.N,/MCU/nRST*
X125500000Y-80500000D03*
G04 #@! TO.N,Net-(J6-Pad6)*
X122750000Y-77250000D03*
G04 #@! TO.N,/MCU/DAC2*
X123500000Y-78000000D03*
D17*
G04 #@! TO.N,Net-(J5-Pad10)*
X127500000Y-80500000D03*
D18*
G04 #@! TO.N,/MCU/USART1_TX*
X125250000Y-89500000D03*
D17*
G04 #@! TO.N,/MCU/USART1_RX*
X125750000Y-92000000D03*
D18*
G04 #@! TO.N,Net-(J5-Pad7)*
X132000000Y-78750000D03*
G04 #@! TO.N,Net-(J5-Pad8)*
X132000000Y-77750000D03*
G04 #@! TO.N,Net-(J5-Pad9)*
X132500000Y-77250000D03*
G04 #@! TO.N,/D0*
X122750000Y-79000000D03*
D17*
X139500000Y-98250000D03*
D18*
G04 #@! TO.N,/D1*
X122750000Y-79750000D03*
G04 #@! TO.N,/D2*
X131750000Y-82250000D03*
G04 #@! TO.N,/D3*
X132250000Y-81250000D03*
G04 #@! TO.N,/D4*
X132000000Y-80500000D03*
G04 #@! TO.N,/D5*
X132000000Y-79500000D03*
G04 #@! TD*
D19*
G04 #@! TO.N,+3V3*
X113670000Y-128500000D02*
X111500000Y-126330000D01*
X115420000Y-128500000D02*
X113670000Y-128500000D01*
X111500000Y-126330000D02*
X111500000Y-95750000D01*
X111500000Y-95750000D02*
X111500000Y-95750000D01*
X111500000Y-95750000D02*
X116250000Y-95750000D01*
X116250000Y-95750000D02*
X123750000Y-95750000D01*
X123750000Y-95750000D02*
X130750000Y-95750000D01*
X130750000Y-95750000D02*
X131000000Y-95750000D01*
D20*
X124434315Y-66500000D02*
X125000000Y-66500000D01*
X117023000Y-66500000D02*
X124434315Y-66500000D01*
X115000000Y-64477000D02*
X117023000Y-66500000D01*
X115000000Y-63500000D02*
X115000000Y-64477000D01*
G04 #@! TO.N,/POT0*
X120402000Y-75250000D02*
X117500000Y-75250000D01*
X115830000Y-76920000D02*
X112500000Y-76920000D01*
X117500000Y-75250000D02*
X115830000Y-76920000D01*
G04 #@! TO.N,/POT1*
X118997000Y-74380000D02*
X112500000Y-74380000D01*
X121127000Y-72250000D02*
X118997000Y-74380000D01*
G04 #@! TO.N,/POT2*
X122620000Y-71250000D02*
X118250000Y-71250000D01*
X117660000Y-71840000D02*
X112500000Y-71840000D01*
X118250000Y-71250000D02*
X117660000Y-71840000D01*
G04 #@! TO.N,/POT3*
X113050000Y-68750000D02*
X112500000Y-69300000D01*
X123250000Y-68750000D02*
X113050000Y-68750000D01*
G04 #@! TO.N,Net-(R18-Pad2)*
X135562500Y-120187500D02*
X130562500Y-120187500D01*
X130562500Y-120187500D02*
X129250000Y-121500000D01*
X129250000Y-121500000D02*
X129250000Y-121500000D01*
G04 #@! TO.N,/OUT_Cond/Vin*
X113702081Y-79460000D02*
X116662081Y-76500000D01*
X112500000Y-79460000D02*
X113702081Y-79460000D01*
X116662081Y-76500000D02*
X119500000Y-76500000D01*
X119500000Y-76500000D02*
X119500000Y-76500000D01*
X130000000Y-115000000D02*
X130000000Y-115000000D01*
X130000000Y-115000000D02*
X115500000Y-115000000D01*
X115500000Y-115000000D02*
X112750000Y-112250000D01*
X112750000Y-112250000D02*
X112750000Y-97250000D01*
X112750000Y-97250000D02*
X112750000Y-97250000D01*
G04 #@! TO.N,+1.65V*
X137750000Y-108500000D02*
X126750000Y-108500000D01*
X126750000Y-108500000D02*
X126750000Y-108500000D01*
X126750000Y-108500000D02*
X116250000Y-108500000D01*
X116250000Y-108500000D02*
X116250000Y-108500000D01*
G04 #@! TO.N,Net-(R7-Pad1)*
X117000000Y-116500000D02*
X116937500Y-116437500D01*
X119000000Y-116500000D02*
X117000000Y-116500000D01*
D21*
G04 #@! TO.N,-12V*
X133000000Y-125000000D02*
X126250000Y-125000000D01*
X113750000Y-125000000D02*
X113750000Y-125000000D01*
X126250000Y-125000000D02*
X113750000Y-125000000D01*
G04 #@! TO.N,+12V*
X135000000Y-127500000D02*
X135000000Y-127500000D01*
X135000000Y-127500000D02*
X134000000Y-128500000D01*
X134000000Y-128500000D02*
X120500000Y-128500000D01*
D20*
G04 #@! TO.N,/MCU/nRST*
X129419499Y-91959499D02*
X130460000Y-93000000D01*
X125500000Y-80500000D02*
X129419499Y-85919499D01*
X129419499Y-85919499D02*
X129419499Y-91959499D01*
X133170000Y-94710000D02*
X134260000Y-97750000D01*
X130460000Y-94710000D02*
X133170000Y-94710000D01*
X130460000Y-93000000D02*
X130460000Y-94710000D01*
X139998001Y-96988001D02*
X140760000Y-97750000D01*
X135021999Y-96988001D02*
X139998001Y-96988001D01*
X134260000Y-97750000D02*
X135021999Y-96988001D01*
G04 #@! TO.N,Net-(J6-Pad6)*
X122750000Y-77250000D02*
X122750000Y-77250000D01*
X117250000Y-77250000D02*
X122750000Y-77250000D01*
X112500000Y-82000000D02*
X117250000Y-77250000D01*
G04 #@! TO.N,/MCU/DAC2*
X123500000Y-78000000D02*
X119040000Y-78000000D01*
X118790000Y-78250000D02*
X112500000Y-84540000D01*
X119040000Y-78000000D02*
X118790000Y-78250000D01*
G04 #@! TO.N,Net-(J5-Pad10)*
X139297919Y-69640000D02*
X138937919Y-70000000D01*
X140500000Y-69640000D02*
X139297919Y-69640000D01*
X138937919Y-70000000D02*
X138000000Y-70000000D01*
X138000000Y-70000000D02*
X127500000Y-80500000D01*
X127500000Y-80500000D02*
X127500000Y-80500000D01*
G04 #@! TO.N,/MCU/USART1_TX*
X112620000Y-89500000D02*
X112500000Y-89620000D01*
X125250000Y-89500000D02*
X112620000Y-89500000D01*
G04 #@! TO.N,/MCU/USART1_RX*
X112660000Y-92000000D02*
X112500000Y-92160000D01*
X125750000Y-92000000D02*
X112660000Y-92000000D01*
G04 #@! TO.N,Net-(J5-Pad7)*
X132000000Y-78750000D02*
X137250000Y-78750000D01*
X138740000Y-77260000D02*
X140500000Y-77260000D01*
X137250000Y-78750000D02*
X138740000Y-77260000D01*
G04 #@! TO.N,Net-(J5-Pad8)*
X137470000Y-77750000D02*
X140500000Y-74720000D01*
X132000000Y-77750000D02*
X137470000Y-77750000D01*
G04 #@! TO.N,Net-(J5-Pad9)*
X136000000Y-76680000D02*
X140500000Y-72180000D01*
X135430000Y-77250000D02*
X136000000Y-76680000D01*
X132500000Y-77250000D02*
X135430000Y-77250000D01*
G04 #@! TO.N,/D0*
X122750000Y-79000000D02*
X124750000Y-79000000D01*
X138250000Y-92500000D02*
X140500000Y-92500000D01*
X124750000Y-79000000D02*
X138250000Y-92500000D01*
X131089999Y-145650001D02*
X131849999Y-145650001D01*
X130240000Y-146500000D02*
X131089999Y-145650001D01*
X131849999Y-145650001D02*
X135250000Y-142250000D01*
X135250000Y-142250000D02*
X140500000Y-142250000D01*
X140500000Y-142250000D02*
X141500000Y-141250000D01*
X141500000Y-141250000D02*
X141500000Y-119750000D01*
X141500000Y-119750000D02*
X141500000Y-104250000D01*
X141500000Y-104250000D02*
X139500000Y-102250000D01*
X139500000Y-102250000D02*
X139500000Y-98250000D01*
X139500000Y-98250000D02*
X139500000Y-98250000D01*
G04 #@! TO.N,/D1*
X122309499Y-78788559D02*
X122598058Y-78500000D01*
X122309499Y-79309499D02*
X122309499Y-78788559D01*
X122750000Y-79750000D02*
X122309499Y-79309499D01*
X136069224Y-89960000D02*
X139297919Y-89960000D01*
X139297919Y-89960000D02*
X140500000Y-89960000D01*
X124609224Y-78500000D02*
X136069224Y-89960000D01*
X122598058Y-78500000D02*
X124609224Y-78500000D01*
X142000000Y-91460000D02*
X140500000Y-89960000D01*
X132780000Y-146500000D02*
X136280000Y-143000000D01*
X136280000Y-143000000D02*
X141000000Y-143000000D01*
X141000000Y-143000000D02*
X142000000Y-142000000D01*
X142000000Y-142000000D02*
X142000000Y-91460000D01*
G04 #@! TO.N,/D2*
X131750000Y-82250000D02*
X134000000Y-82250000D01*
X139170000Y-87420000D02*
X140500000Y-87420000D01*
X134000000Y-82250000D02*
X139170000Y-87420000D01*
X142500000Y-88250000D02*
X141349999Y-88269999D01*
X135320000Y-146500000D02*
X138320000Y-143500000D01*
X142500000Y-142500000D02*
X142500000Y-88250000D01*
X141349999Y-88269999D02*
X140500000Y-87420000D01*
X138320000Y-143500000D02*
X141250000Y-143500000D01*
X141250000Y-143500000D02*
X141500000Y-143500000D01*
X141500000Y-143500000D02*
X142500000Y-142500000D01*
G04 #@! TO.N,/D3*
X132250000Y-81250000D02*
X134500000Y-81250000D01*
X138130000Y-84880000D02*
X140500000Y-84880000D01*
X134500000Y-81250000D02*
X138130000Y-84880000D01*
G04 #@! TO.N,/D4*
X132000000Y-80500000D02*
X135500000Y-80500000D01*
X137340000Y-82340000D02*
X140500000Y-82340000D01*
X135500000Y-80500000D02*
X137340000Y-82340000D01*
G04 #@! TO.N,/D5*
X140200000Y-79500000D02*
X140500000Y-79800000D01*
X132000000Y-79500000D02*
X140200000Y-79500000D01*
G04 #@! TD*
D22*
G04 #@! TO.N,GND*
G36*
X133192379Y-96841964D02*
X133075680Y-96958663D01*
X132863000Y-97472119D01*
X132863000Y-98027881D01*
X133075680Y-98541337D01*
X133468663Y-98934320D01*
X133982119Y-99147000D01*
X134537881Y-99147000D01*
X135051337Y-98934320D01*
X135444320Y-98541337D01*
X135657000Y-98027881D01*
X135657000Y-97686501D01*
X138613133Y-97686501D01*
X138465000Y-98044126D01*
X138465000Y-98455874D01*
X138622569Y-98836280D01*
X138801501Y-99015212D01*
X138801500Y-102181210D01*
X138787817Y-102250000D01*
X138801500Y-102318790D01*
X138801500Y-102318793D01*
X138842028Y-102522540D01*
X138996410Y-102753589D01*
X139054731Y-102792558D01*
X140801501Y-104539329D01*
X140801500Y-119818793D01*
X140801501Y-119818798D01*
X140801500Y-140960671D01*
X140210673Y-141551500D01*
X135318794Y-141551500D01*
X135250000Y-141537816D01*
X134977459Y-141592028D01*
X134804730Y-141707441D01*
X134804728Y-141707443D01*
X134746410Y-141746410D01*
X134707443Y-141804728D01*
X131560672Y-144951501D01*
X131158787Y-144951501D01*
X131089998Y-144937818D01*
X131021209Y-144951501D01*
X131021205Y-144951501D01*
X130817458Y-144992029D01*
X130692048Y-145075826D01*
X130386256Y-145015000D01*
X130093744Y-145015000D01*
X129660582Y-145101161D01*
X129169375Y-145429375D01*
X128970000Y-145727761D01*
X128770625Y-145429375D01*
X128279418Y-145101161D01*
X127846256Y-145015000D01*
X127553744Y-145015000D01*
X127120582Y-145101161D01*
X126629375Y-145429375D01*
X126430000Y-145727761D01*
X126230625Y-145429375D01*
X125739418Y-145101161D01*
X125306256Y-145015000D01*
X125013744Y-145015000D01*
X124580582Y-145101161D01*
X124089375Y-145429375D01*
X123890000Y-145727761D01*
X123690625Y-145429375D01*
X123199418Y-145101161D01*
X122766256Y-145015000D01*
X122473744Y-145015000D01*
X122040582Y-145101161D01*
X121549375Y-145429375D01*
X121350000Y-145727761D01*
X121150625Y-145429375D01*
X120659418Y-145101161D01*
X120226256Y-145015000D01*
X119933744Y-145015000D01*
X119500582Y-145101161D01*
X119009375Y-145429375D01*
X118810000Y-145727761D01*
X118610625Y-145429375D01*
X118119418Y-145101161D01*
X117686256Y-145015000D01*
X117393744Y-145015000D01*
X116960582Y-145101161D01*
X116469375Y-145429375D01*
X116457184Y-145447619D01*
X116448157Y-145402235D01*
X116307809Y-145192191D01*
X116097765Y-145051843D01*
X115850000Y-145002560D01*
X114150000Y-145002560D01*
X113902235Y-145051843D01*
X113692191Y-145192191D01*
X113551843Y-145402235D01*
X113502560Y-145650000D01*
X113502560Y-147350000D01*
X113551843Y-147597765D01*
X113692191Y-147807809D01*
X113902235Y-147948157D01*
X114150000Y-147997440D01*
X115850000Y-147997440D01*
X116097765Y-147948157D01*
X116307809Y-147807809D01*
X116448157Y-147597765D01*
X116457184Y-147552381D01*
X116469375Y-147570625D01*
X116960582Y-147898839D01*
X117393744Y-147985000D01*
X117686256Y-147985000D01*
X118119418Y-147898839D01*
X118610625Y-147570625D01*
X118810000Y-147272239D01*
X119009375Y-147570625D01*
X119500582Y-147898839D01*
X119933744Y-147985000D01*
X120226256Y-147985000D01*
X120659418Y-147898839D01*
X121150625Y-147570625D01*
X121350000Y-147272239D01*
X121549375Y-147570625D01*
X122040582Y-147898839D01*
X122473744Y-147985000D01*
X122766256Y-147985000D01*
X123199418Y-147898839D01*
X123690625Y-147570625D01*
X123890000Y-147272239D01*
X124089375Y-147570625D01*
X124580582Y-147898839D01*
X125013744Y-147985000D01*
X125306256Y-147985000D01*
X125739418Y-147898839D01*
X126230625Y-147570625D01*
X126430000Y-147272239D01*
X126629375Y-147570625D01*
X127120582Y-147898839D01*
X127553744Y-147985000D01*
X127846256Y-147985000D01*
X128279418Y-147898839D01*
X128770625Y-147570625D01*
X128970000Y-147272239D01*
X129169375Y-147570625D01*
X129660582Y-147898839D01*
X130093744Y-147985000D01*
X130386256Y-147985000D01*
X130819418Y-147898839D01*
X131310625Y-147570625D01*
X131510000Y-147272239D01*
X131709375Y-147570625D01*
X132200582Y-147898839D01*
X132633744Y-147985000D01*
X132926256Y-147985000D01*
X133359418Y-147898839D01*
X133850625Y-147570625D01*
X134050000Y-147272239D01*
X134249375Y-147570625D01*
X134740582Y-147898839D01*
X135173744Y-147985000D01*
X135466256Y-147985000D01*
X135899418Y-147898839D01*
X136390625Y-147570625D01*
X136603843Y-147251522D01*
X136664817Y-147381358D01*
X137093076Y-147771645D01*
X137503110Y-147941476D01*
X137733000Y-147820155D01*
X137733000Y-146627000D01*
X137987000Y-146627000D01*
X137987000Y-147820155D01*
X138216890Y-147941476D01*
X138626924Y-147771645D01*
X139055183Y-147381358D01*
X139301486Y-146856892D01*
X139180819Y-146627000D01*
X137987000Y-146627000D01*
X137733000Y-146627000D01*
X137713000Y-146627000D01*
X137713000Y-146373000D01*
X137733000Y-146373000D01*
X137733000Y-145179845D01*
X137987000Y-145179845D01*
X137987000Y-146373000D01*
X139180819Y-146373000D01*
X139301486Y-146143108D01*
X139055183Y-145618642D01*
X138626924Y-145228355D01*
X138216890Y-145058524D01*
X137987000Y-145179845D01*
X137733000Y-145179845D01*
X137664260Y-145143568D01*
X138609329Y-144198500D01*
X141431210Y-144198500D01*
X141500000Y-144212183D01*
X141568790Y-144198500D01*
X141568794Y-144198500D01*
X141772541Y-144157972D01*
X141873000Y-144090847D01*
X141873000Y-148873000D01*
X111127000Y-148873000D01*
X111127000Y-137460000D01*
X119312041Y-137460000D01*
X119428350Y-138044725D01*
X119759570Y-138540430D01*
X120043281Y-138730000D01*
X119759570Y-138919570D01*
X119428350Y-139415275D01*
X119312041Y-140000000D01*
X119428350Y-140584725D01*
X119759570Y-141080430D01*
X120255275Y-141411650D01*
X120692402Y-141498600D01*
X120987598Y-141498600D01*
X121424725Y-141411650D01*
X121920430Y-141080430D01*
X122121854Y-140778979D01*
X122173179Y-140888490D01*
X122605053Y-141282688D01*
X123020974Y-141454958D01*
X123253000Y-141333817D01*
X123253000Y-140127000D01*
X123507000Y-140127000D01*
X123507000Y-141333817D01*
X123739026Y-141454958D01*
X124154947Y-141282688D01*
X124586821Y-140888490D01*
X124650000Y-140753687D01*
X124713179Y-140888490D01*
X125145053Y-141282688D01*
X125560974Y-141454958D01*
X125793000Y-141333817D01*
X125793000Y-140127000D01*
X126047000Y-140127000D01*
X126047000Y-141333817D01*
X126279026Y-141454958D01*
X126694947Y-141282688D01*
X127126821Y-140888490D01*
X127190000Y-140753687D01*
X127253179Y-140888490D01*
X127685053Y-141282688D01*
X128100974Y-141454958D01*
X128333000Y-141333817D01*
X128333000Y-140127000D01*
X126047000Y-140127000D01*
X125793000Y-140127000D01*
X123507000Y-140127000D01*
X123253000Y-140127000D01*
X123233000Y-140127000D01*
X123233000Y-139873000D01*
X123253000Y-139873000D01*
X123253000Y-137587000D01*
X123507000Y-137587000D01*
X123507000Y-139873000D01*
X125793000Y-139873000D01*
X125793000Y-137587000D01*
X126047000Y-137587000D01*
X126047000Y-139873000D01*
X128333000Y-139873000D01*
X128333000Y-137587000D01*
X126047000Y-137587000D01*
X125793000Y-137587000D01*
X123507000Y-137587000D01*
X123253000Y-137587000D01*
X123233000Y-137587000D01*
X123233000Y-137333000D01*
X123253000Y-137333000D01*
X123253000Y-136126183D01*
X123507000Y-136126183D01*
X123507000Y-137333000D01*
X125793000Y-137333000D01*
X125793000Y-136126183D01*
X126047000Y-136126183D01*
X126047000Y-137333000D01*
X128333000Y-137333000D01*
X128333000Y-136126183D01*
X128587000Y-136126183D01*
X128587000Y-137333000D01*
X128607000Y-137333000D01*
X128607000Y-137587000D01*
X128587000Y-137587000D01*
X128587000Y-139873000D01*
X128607000Y-139873000D01*
X128607000Y-140127000D01*
X128587000Y-140127000D01*
X128587000Y-141333817D01*
X128819026Y-141454958D01*
X129234947Y-141282688D01*
X129520480Y-141022064D01*
X129538243Y-141111365D01*
X129678591Y-141321409D01*
X129888635Y-141461757D01*
X130136400Y-141511040D01*
X131863600Y-141511040D01*
X132111365Y-141461757D01*
X132321409Y-141321409D01*
X132461757Y-141111365D01*
X132511040Y-140863600D01*
X132511040Y-139136400D01*
X132461757Y-138888635D01*
X132321409Y-138678591D01*
X132111365Y-138538243D01*
X132085349Y-138533068D01*
X132411650Y-138044725D01*
X132527959Y-137460000D01*
X132411650Y-136875275D01*
X132080430Y-136379570D01*
X131584725Y-136048350D01*
X131147598Y-135961400D01*
X130852402Y-135961400D01*
X130415275Y-136048350D01*
X129919570Y-136379570D01*
X129718146Y-136681021D01*
X129666821Y-136571510D01*
X129234947Y-136177312D01*
X128819026Y-136005042D01*
X128587000Y-136126183D01*
X128333000Y-136126183D01*
X128100974Y-136005042D01*
X127685053Y-136177312D01*
X127253179Y-136571510D01*
X127190000Y-136706313D01*
X127126821Y-136571510D01*
X126694947Y-136177312D01*
X126279026Y-136005042D01*
X126047000Y-136126183D01*
X125793000Y-136126183D01*
X125560974Y-136005042D01*
X125145053Y-136177312D01*
X124713179Y-136571510D01*
X124650000Y-136706313D01*
X124586821Y-136571510D01*
X124154947Y-136177312D01*
X123739026Y-136005042D01*
X123507000Y-136126183D01*
X123253000Y-136126183D01*
X123020974Y-136005042D01*
X122605053Y-136177312D01*
X122173179Y-136571510D01*
X122121854Y-136681021D01*
X121920430Y-136379570D01*
X121424725Y-136048350D01*
X120987598Y-135961400D01*
X120692402Y-135961400D01*
X120255275Y-136048350D01*
X119759570Y-136379570D01*
X119428350Y-136875275D01*
X119312041Y-137460000D01*
X111127000Y-137460000D01*
X111127000Y-127562131D01*
X112788389Y-129223521D01*
X112851711Y-129318289D01*
X113227145Y-129569146D01*
X113558217Y-129635000D01*
X113669999Y-129657235D01*
X113781781Y-129635000D01*
X114245387Y-129635000D01*
X114421471Y-129898528D01*
X114879600Y-130204641D01*
X115420000Y-130312133D01*
X115960399Y-130204641D01*
X116418528Y-129898529D01*
X116705742Y-129468684D01*
X116729028Y-129547349D01*
X117070460Y-129969145D01*
X117547316Y-130228173D01*
X117618815Y-130242318D01*
X117833000Y-130119656D01*
X117833000Y-128627000D01*
X117813000Y-128627000D01*
X117813000Y-128373000D01*
X117833000Y-128373000D01*
X117833000Y-126880344D01*
X118087000Y-126880344D01*
X118087000Y-128373000D01*
X118107000Y-128373000D01*
X118107000Y-128627000D01*
X118087000Y-128627000D01*
X118087000Y-130119656D01*
X118301185Y-130242318D01*
X118372684Y-130228173D01*
X118849540Y-129969145D01*
X119103609Y-129655275D01*
X119151843Y-129897765D01*
X119292191Y-130107809D01*
X119502235Y-130248157D01*
X119750000Y-130297440D01*
X121250000Y-130297440D01*
X121497765Y-130248157D01*
X121707809Y-130107809D01*
X121848157Y-129897765D01*
X121897440Y-129650000D01*
X121897440Y-129235000D01*
X133927616Y-129235000D01*
X134000000Y-129249398D01*
X134072384Y-129235000D01*
X134072388Y-129235000D01*
X134286783Y-129192354D01*
X134529905Y-129029905D01*
X134570911Y-128968535D01*
X135004446Y-128535000D01*
X135205874Y-128535000D01*
X135586280Y-128377431D01*
X135877431Y-128086280D01*
X136035000Y-127705874D01*
X136035000Y-127294126D01*
X135877431Y-126913720D01*
X135586280Y-126622569D01*
X135205874Y-126465000D01*
X134794126Y-126465000D01*
X134413720Y-126622569D01*
X134122569Y-126913720D01*
X133965000Y-127294126D01*
X133965000Y-127495554D01*
X133695554Y-127765000D01*
X121897440Y-127765000D01*
X121897440Y-127350000D01*
X121848157Y-127102235D01*
X121707809Y-126892191D01*
X121497765Y-126751843D01*
X121250000Y-126702560D01*
X119750000Y-126702560D01*
X119502235Y-126751843D01*
X119292191Y-126892191D01*
X119151843Y-127102235D01*
X119103609Y-127344725D01*
X118849540Y-127030855D01*
X118372684Y-126771827D01*
X118301185Y-126757682D01*
X118087000Y-126880344D01*
X117833000Y-126880344D01*
X117618815Y-126757682D01*
X117547316Y-126771827D01*
X117070460Y-127030855D01*
X116729028Y-127452651D01*
X116705742Y-127531316D01*
X116418529Y-127101471D01*
X115960400Y-126795359D01*
X115420000Y-126687867D01*
X114879601Y-126795359D01*
X114421472Y-127101471D01*
X114245387Y-127365000D01*
X114140132Y-127365000D01*
X112635000Y-125859869D01*
X112635000Y-124794126D01*
X112715000Y-124794126D01*
X112715000Y-125205874D01*
X112872569Y-125586280D01*
X113163720Y-125877431D01*
X113544126Y-126035000D01*
X113955874Y-126035000D01*
X114336280Y-125877431D01*
X114478711Y-125735000D01*
X125521289Y-125735000D01*
X125663720Y-125877431D01*
X126044126Y-126035000D01*
X126455874Y-126035000D01*
X126836280Y-125877431D01*
X126978711Y-125735000D01*
X132271289Y-125735000D01*
X132413720Y-125877431D01*
X132794126Y-126035000D01*
X133205874Y-126035000D01*
X133586280Y-125877431D01*
X133877431Y-125586280D01*
X134035000Y-125205874D01*
X134035000Y-124794126D01*
X133877431Y-124413720D01*
X133586280Y-124122569D01*
X133205874Y-123965000D01*
X132794126Y-123965000D01*
X132413720Y-124122569D01*
X132271289Y-124265000D01*
X126978711Y-124265000D01*
X126836280Y-124122569D01*
X126455874Y-123965000D01*
X126044126Y-123965000D01*
X125663720Y-124122569D01*
X125521289Y-124265000D01*
X114478711Y-124265000D01*
X114336280Y-124122569D01*
X113955874Y-123965000D01*
X113544126Y-123965000D01*
X113163720Y-124122569D01*
X112872569Y-124413720D01*
X112715000Y-124794126D01*
X112635000Y-124794126D01*
X112635000Y-121294126D01*
X128215000Y-121294126D01*
X128215000Y-121705874D01*
X128372569Y-122086280D01*
X128663720Y-122377431D01*
X129044126Y-122535000D01*
X129455874Y-122535000D01*
X129836280Y-122377431D01*
X130127431Y-122086280D01*
X130285000Y-121705874D01*
X130285000Y-121452827D01*
X130851828Y-120886000D01*
X134797289Y-120886000D01*
X134976220Y-121064931D01*
X135356626Y-121222500D01*
X135768374Y-121222500D01*
X136148780Y-121064931D01*
X136439931Y-120773780D01*
X136597500Y-120393374D01*
X136597500Y-119981626D01*
X136439931Y-119601220D01*
X136148780Y-119310069D01*
X135768374Y-119152500D01*
X135356626Y-119152500D01*
X134976220Y-119310069D01*
X134797289Y-119489000D01*
X130631288Y-119489000D01*
X130562499Y-119475317D01*
X130493710Y-119489000D01*
X130493706Y-119489000D01*
X130289959Y-119529528D01*
X130058910Y-119683910D01*
X130019941Y-119742231D01*
X129297173Y-120465000D01*
X129044126Y-120465000D01*
X128663720Y-120622569D01*
X128372569Y-120913720D01*
X128215000Y-121294126D01*
X112635000Y-121294126D01*
X112635000Y-113122827D01*
X114957441Y-115445269D01*
X114996410Y-115503590D01*
X115227459Y-115657972D01*
X115431206Y-115698500D01*
X115431210Y-115698500D01*
X115499999Y-115712183D01*
X115568788Y-115698500D01*
X116424921Y-115698500D01*
X116187233Y-115936188D01*
X116052500Y-116261463D01*
X116052500Y-116613537D01*
X116187233Y-116938812D01*
X116436188Y-117187767D01*
X116761463Y-117322500D01*
X117113537Y-117322500D01*
X117412900Y-117198500D01*
X118234789Y-117198500D01*
X118413720Y-117377431D01*
X118794126Y-117535000D01*
X119205874Y-117535000D01*
X119586280Y-117377431D01*
X119877431Y-117086280D01*
X120035000Y-116705874D01*
X120035000Y-116294126D01*
X119877431Y-115913720D01*
X119662211Y-115698500D01*
X129234789Y-115698500D01*
X129413720Y-115877431D01*
X129794126Y-116035000D01*
X130205874Y-116035000D01*
X130586280Y-115877431D01*
X130877431Y-115586280D01*
X131035000Y-115205874D01*
X131035000Y-114794126D01*
X130877431Y-114413720D01*
X130586280Y-114122569D01*
X130205874Y-113965000D01*
X129794126Y-113965000D01*
X129413720Y-114122569D01*
X129234789Y-114301500D01*
X115789328Y-114301500D01*
X113448500Y-111960673D01*
X113448500Y-108294126D01*
X115215000Y-108294126D01*
X115215000Y-108705874D01*
X115372569Y-109086280D01*
X115663720Y-109377431D01*
X116044126Y-109535000D01*
X116455874Y-109535000D01*
X116836280Y-109377431D01*
X117015211Y-109198500D01*
X125984789Y-109198500D01*
X126163720Y-109377431D01*
X126544126Y-109535000D01*
X126955874Y-109535000D01*
X127336280Y-109377431D01*
X127515211Y-109198500D01*
X136984789Y-109198500D01*
X137163720Y-109377431D01*
X137544126Y-109535000D01*
X137955874Y-109535000D01*
X138336280Y-109377431D01*
X138627431Y-109086280D01*
X138785000Y-108705874D01*
X138785000Y-108294126D01*
X138627431Y-107913720D01*
X138336280Y-107622569D01*
X137955874Y-107465000D01*
X137544126Y-107465000D01*
X137163720Y-107622569D01*
X136984789Y-107801500D01*
X127515211Y-107801500D01*
X127336280Y-107622569D01*
X126955874Y-107465000D01*
X126544126Y-107465000D01*
X126163720Y-107622569D01*
X125984789Y-107801500D01*
X117015211Y-107801500D01*
X116836280Y-107622569D01*
X116455874Y-107465000D01*
X116044126Y-107465000D01*
X115663720Y-107622569D01*
X115372569Y-107913720D01*
X115215000Y-108294126D01*
X113448500Y-108294126D01*
X113448500Y-103230213D01*
X133459392Y-103230213D01*
X133528857Y-103472397D01*
X134052302Y-103659144D01*
X134607368Y-103631362D01*
X134991143Y-103472397D01*
X135060608Y-103230213D01*
X134260000Y-102429605D01*
X133459392Y-103230213D01*
X113448500Y-103230213D01*
X113448500Y-102042302D01*
X132850856Y-102042302D01*
X132878638Y-102597368D01*
X133037603Y-102981143D01*
X133279787Y-103050608D01*
X134080395Y-102250000D01*
X134439605Y-102250000D01*
X135240213Y-103050608D01*
X135482397Y-102981143D01*
X135669144Y-102457698D01*
X135641362Y-101902632D01*
X135482397Y-101518857D01*
X135240213Y-101449392D01*
X134439605Y-102250000D01*
X134080395Y-102250000D01*
X133279787Y-101449392D01*
X133037603Y-101518857D01*
X132850856Y-102042302D01*
X113448500Y-102042302D01*
X113448500Y-101269787D01*
X133459392Y-101269787D01*
X134260000Y-102070395D01*
X135060608Y-101269787D01*
X134991143Y-101027603D01*
X134467698Y-100840856D01*
X133912632Y-100868638D01*
X133528857Y-101027603D01*
X133459392Y-101269787D01*
X113448500Y-101269787D01*
X113448500Y-98015211D01*
X113627431Y-97836280D01*
X113785000Y-97455874D01*
X113785000Y-97044126D01*
X113719088Y-96885000D01*
X131111783Y-96885000D01*
X131442855Y-96819146D01*
X131818289Y-96568289D01*
X132069146Y-96192855D01*
X132157235Y-95750000D01*
X132089307Y-95408500D01*
X132678407Y-95408500D01*
X133192379Y-96841964D01*
X133192379Y-96841964D01*
G37*
X133192379Y-96841964D02*
X133075680Y-96958663D01*
X132863000Y-97472119D01*
X132863000Y-98027881D01*
X133075680Y-98541337D01*
X133468663Y-98934320D01*
X133982119Y-99147000D01*
X134537881Y-99147000D01*
X135051337Y-98934320D01*
X135444320Y-98541337D01*
X135657000Y-98027881D01*
X135657000Y-97686501D01*
X138613133Y-97686501D01*
X138465000Y-98044126D01*
X138465000Y-98455874D01*
X138622569Y-98836280D01*
X138801501Y-99015212D01*
X138801500Y-102181210D01*
X138787817Y-102250000D01*
X138801500Y-102318790D01*
X138801500Y-102318793D01*
X138842028Y-102522540D01*
X138996410Y-102753589D01*
X139054731Y-102792558D01*
X140801501Y-104539329D01*
X140801500Y-119818793D01*
X140801501Y-119818798D01*
X140801500Y-140960671D01*
X140210673Y-141551500D01*
X135318794Y-141551500D01*
X135250000Y-141537816D01*
X134977459Y-141592028D01*
X134804730Y-141707441D01*
X134804728Y-141707443D01*
X134746410Y-141746410D01*
X134707443Y-141804728D01*
X131560672Y-144951501D01*
X131158787Y-144951501D01*
X131089998Y-144937818D01*
X131021209Y-144951501D01*
X131021205Y-144951501D01*
X130817458Y-144992029D01*
X130692048Y-145075826D01*
X130386256Y-145015000D01*
X130093744Y-145015000D01*
X129660582Y-145101161D01*
X129169375Y-145429375D01*
X128970000Y-145727761D01*
X128770625Y-145429375D01*
X128279418Y-145101161D01*
X127846256Y-145015000D01*
X127553744Y-145015000D01*
X127120582Y-145101161D01*
X126629375Y-145429375D01*
X126430000Y-145727761D01*
X126230625Y-145429375D01*
X125739418Y-145101161D01*
X125306256Y-145015000D01*
X125013744Y-145015000D01*
X124580582Y-145101161D01*
X124089375Y-145429375D01*
X123890000Y-145727761D01*
X123690625Y-145429375D01*
X123199418Y-145101161D01*
X122766256Y-145015000D01*
X122473744Y-145015000D01*
X122040582Y-145101161D01*
X121549375Y-145429375D01*
X121350000Y-145727761D01*
X121150625Y-145429375D01*
X120659418Y-145101161D01*
X120226256Y-145015000D01*
X119933744Y-145015000D01*
X119500582Y-145101161D01*
X119009375Y-145429375D01*
X118810000Y-145727761D01*
X118610625Y-145429375D01*
X118119418Y-145101161D01*
X117686256Y-145015000D01*
X117393744Y-145015000D01*
X116960582Y-145101161D01*
X116469375Y-145429375D01*
X116457184Y-145447619D01*
X116448157Y-145402235D01*
X116307809Y-145192191D01*
X116097765Y-145051843D01*
X115850000Y-145002560D01*
X114150000Y-145002560D01*
X113902235Y-145051843D01*
X113692191Y-145192191D01*
X113551843Y-145402235D01*
X113502560Y-145650000D01*
X113502560Y-147350000D01*
X113551843Y-147597765D01*
X113692191Y-147807809D01*
X113902235Y-147948157D01*
X114150000Y-147997440D01*
X115850000Y-147997440D01*
X116097765Y-147948157D01*
X116307809Y-147807809D01*
X116448157Y-147597765D01*
X116457184Y-147552381D01*
X116469375Y-147570625D01*
X116960582Y-147898839D01*
X117393744Y-147985000D01*
X117686256Y-147985000D01*
X118119418Y-147898839D01*
X118610625Y-147570625D01*
X118810000Y-147272239D01*
X119009375Y-147570625D01*
X119500582Y-147898839D01*
X119933744Y-147985000D01*
X120226256Y-147985000D01*
X120659418Y-147898839D01*
X121150625Y-147570625D01*
X121350000Y-147272239D01*
X121549375Y-147570625D01*
X122040582Y-147898839D01*
X122473744Y-147985000D01*
X122766256Y-147985000D01*
X123199418Y-147898839D01*
X123690625Y-147570625D01*
X123890000Y-147272239D01*
X124089375Y-147570625D01*
X124580582Y-147898839D01*
X125013744Y-147985000D01*
X125306256Y-147985000D01*
X125739418Y-147898839D01*
X126230625Y-147570625D01*
X126430000Y-147272239D01*
X126629375Y-147570625D01*
X127120582Y-147898839D01*
X127553744Y-147985000D01*
X127846256Y-147985000D01*
X128279418Y-147898839D01*
X128770625Y-147570625D01*
X128970000Y-147272239D01*
X129169375Y-147570625D01*
X129660582Y-147898839D01*
X130093744Y-147985000D01*
X130386256Y-147985000D01*
X130819418Y-147898839D01*
X131310625Y-147570625D01*
X131510000Y-147272239D01*
X131709375Y-147570625D01*
X132200582Y-147898839D01*
X132633744Y-147985000D01*
X132926256Y-147985000D01*
X133359418Y-147898839D01*
X133850625Y-147570625D01*
X134050000Y-147272239D01*
X134249375Y-147570625D01*
X134740582Y-147898839D01*
X135173744Y-147985000D01*
X135466256Y-147985000D01*
X135899418Y-147898839D01*
X136390625Y-147570625D01*
X136603843Y-147251522D01*
X136664817Y-147381358D01*
X137093076Y-147771645D01*
X137503110Y-147941476D01*
X137733000Y-147820155D01*
X137733000Y-146627000D01*
X137987000Y-146627000D01*
X137987000Y-147820155D01*
X138216890Y-147941476D01*
X138626924Y-147771645D01*
X139055183Y-147381358D01*
X139301486Y-146856892D01*
X139180819Y-146627000D01*
X137987000Y-146627000D01*
X137733000Y-146627000D01*
X137713000Y-146627000D01*
X137713000Y-146373000D01*
X137733000Y-146373000D01*
X137733000Y-145179845D01*
X137987000Y-145179845D01*
X137987000Y-146373000D01*
X139180819Y-146373000D01*
X139301486Y-146143108D01*
X139055183Y-145618642D01*
X138626924Y-145228355D01*
X138216890Y-145058524D01*
X137987000Y-145179845D01*
X137733000Y-145179845D01*
X137664260Y-145143568D01*
X138609329Y-144198500D01*
X141431210Y-144198500D01*
X141500000Y-144212183D01*
X141568790Y-144198500D01*
X141568794Y-144198500D01*
X141772541Y-144157972D01*
X141873000Y-144090847D01*
X141873000Y-148873000D01*
X111127000Y-148873000D01*
X111127000Y-137460000D01*
X119312041Y-137460000D01*
X119428350Y-138044725D01*
X119759570Y-138540430D01*
X120043281Y-138730000D01*
X119759570Y-138919570D01*
X119428350Y-139415275D01*
X119312041Y-140000000D01*
X119428350Y-140584725D01*
X119759570Y-141080430D01*
X120255275Y-141411650D01*
X120692402Y-141498600D01*
X120987598Y-141498600D01*
X121424725Y-141411650D01*
X121920430Y-141080430D01*
X122121854Y-140778979D01*
X122173179Y-140888490D01*
X122605053Y-141282688D01*
X123020974Y-141454958D01*
X123253000Y-141333817D01*
X123253000Y-140127000D01*
X123507000Y-140127000D01*
X123507000Y-141333817D01*
X123739026Y-141454958D01*
X124154947Y-141282688D01*
X124586821Y-140888490D01*
X124650000Y-140753687D01*
X124713179Y-140888490D01*
X125145053Y-141282688D01*
X125560974Y-141454958D01*
X125793000Y-141333817D01*
X125793000Y-140127000D01*
X126047000Y-140127000D01*
X126047000Y-141333817D01*
X126279026Y-141454958D01*
X126694947Y-141282688D01*
X127126821Y-140888490D01*
X127190000Y-140753687D01*
X127253179Y-140888490D01*
X127685053Y-141282688D01*
X128100974Y-141454958D01*
X128333000Y-141333817D01*
X128333000Y-140127000D01*
X126047000Y-140127000D01*
X125793000Y-140127000D01*
X123507000Y-140127000D01*
X123253000Y-140127000D01*
X123233000Y-140127000D01*
X123233000Y-139873000D01*
X123253000Y-139873000D01*
X123253000Y-137587000D01*
X123507000Y-137587000D01*
X123507000Y-139873000D01*
X125793000Y-139873000D01*
X125793000Y-137587000D01*
X126047000Y-137587000D01*
X126047000Y-139873000D01*
X128333000Y-139873000D01*
X128333000Y-137587000D01*
X126047000Y-137587000D01*
X125793000Y-137587000D01*
X123507000Y-137587000D01*
X123253000Y-137587000D01*
X123233000Y-137587000D01*
X123233000Y-137333000D01*
X123253000Y-137333000D01*
X123253000Y-136126183D01*
X123507000Y-136126183D01*
X123507000Y-137333000D01*
X125793000Y-137333000D01*
X125793000Y-136126183D01*
X126047000Y-136126183D01*
X126047000Y-137333000D01*
X128333000Y-137333000D01*
X128333000Y-136126183D01*
X128587000Y-136126183D01*
X128587000Y-137333000D01*
X128607000Y-137333000D01*
X128607000Y-137587000D01*
X128587000Y-137587000D01*
X128587000Y-139873000D01*
X128607000Y-139873000D01*
X128607000Y-140127000D01*
X128587000Y-140127000D01*
X128587000Y-141333817D01*
X128819026Y-141454958D01*
X129234947Y-141282688D01*
X129520480Y-141022064D01*
X129538243Y-141111365D01*
X129678591Y-141321409D01*
X129888635Y-141461757D01*
X130136400Y-141511040D01*
X131863600Y-141511040D01*
X132111365Y-141461757D01*
X132321409Y-141321409D01*
X132461757Y-141111365D01*
X132511040Y-140863600D01*
X132511040Y-139136400D01*
X132461757Y-138888635D01*
X132321409Y-138678591D01*
X132111365Y-138538243D01*
X132085349Y-138533068D01*
X132411650Y-138044725D01*
X132527959Y-137460000D01*
X132411650Y-136875275D01*
X132080430Y-136379570D01*
X131584725Y-136048350D01*
X131147598Y-135961400D01*
X130852402Y-135961400D01*
X130415275Y-136048350D01*
X129919570Y-136379570D01*
X129718146Y-136681021D01*
X129666821Y-136571510D01*
X129234947Y-136177312D01*
X128819026Y-136005042D01*
X128587000Y-136126183D01*
X128333000Y-136126183D01*
X128100974Y-136005042D01*
X127685053Y-136177312D01*
X127253179Y-136571510D01*
X127190000Y-136706313D01*
X127126821Y-136571510D01*
X126694947Y-136177312D01*
X126279026Y-136005042D01*
X126047000Y-136126183D01*
X125793000Y-136126183D01*
X125560974Y-136005042D01*
X125145053Y-136177312D01*
X124713179Y-136571510D01*
X124650000Y-136706313D01*
X124586821Y-136571510D01*
X124154947Y-136177312D01*
X123739026Y-136005042D01*
X123507000Y-136126183D01*
X123253000Y-136126183D01*
X123020974Y-136005042D01*
X122605053Y-136177312D01*
X122173179Y-136571510D01*
X122121854Y-136681021D01*
X121920430Y-136379570D01*
X121424725Y-136048350D01*
X120987598Y-135961400D01*
X120692402Y-135961400D01*
X120255275Y-136048350D01*
X119759570Y-136379570D01*
X119428350Y-136875275D01*
X119312041Y-137460000D01*
X111127000Y-137460000D01*
X111127000Y-127562131D01*
X112788389Y-129223521D01*
X112851711Y-129318289D01*
X113227145Y-129569146D01*
X113558217Y-129635000D01*
X113669999Y-129657235D01*
X113781781Y-129635000D01*
X114245387Y-129635000D01*
X114421471Y-129898528D01*
X114879600Y-130204641D01*
X115420000Y-130312133D01*
X115960399Y-130204641D01*
X116418528Y-129898529D01*
X116705742Y-129468684D01*
X116729028Y-129547349D01*
X117070460Y-129969145D01*
X117547316Y-130228173D01*
X117618815Y-130242318D01*
X117833000Y-130119656D01*
X117833000Y-128627000D01*
X117813000Y-128627000D01*
X117813000Y-128373000D01*
X117833000Y-128373000D01*
X117833000Y-126880344D01*
X118087000Y-126880344D01*
X118087000Y-128373000D01*
X118107000Y-128373000D01*
X118107000Y-128627000D01*
X118087000Y-128627000D01*
X118087000Y-130119656D01*
X118301185Y-130242318D01*
X118372684Y-130228173D01*
X118849540Y-129969145D01*
X119103609Y-129655275D01*
X119151843Y-129897765D01*
X119292191Y-130107809D01*
X119502235Y-130248157D01*
X119750000Y-130297440D01*
X121250000Y-130297440D01*
X121497765Y-130248157D01*
X121707809Y-130107809D01*
X121848157Y-129897765D01*
X121897440Y-129650000D01*
X121897440Y-129235000D01*
X133927616Y-129235000D01*
X134000000Y-129249398D01*
X134072384Y-129235000D01*
X134072388Y-129235000D01*
X134286783Y-129192354D01*
X134529905Y-129029905D01*
X134570911Y-128968535D01*
X135004446Y-128535000D01*
X135205874Y-128535000D01*
X135586280Y-128377431D01*
X135877431Y-128086280D01*
X136035000Y-127705874D01*
X136035000Y-127294126D01*
X135877431Y-126913720D01*
X135586280Y-126622569D01*
X135205874Y-126465000D01*
X134794126Y-126465000D01*
X134413720Y-126622569D01*
X134122569Y-126913720D01*
X133965000Y-127294126D01*
X133965000Y-127495554D01*
X133695554Y-127765000D01*
X121897440Y-127765000D01*
X121897440Y-127350000D01*
X121848157Y-127102235D01*
X121707809Y-126892191D01*
X121497765Y-126751843D01*
X121250000Y-126702560D01*
X119750000Y-126702560D01*
X119502235Y-126751843D01*
X119292191Y-126892191D01*
X119151843Y-127102235D01*
X119103609Y-127344725D01*
X118849540Y-127030855D01*
X118372684Y-126771827D01*
X118301185Y-126757682D01*
X118087000Y-126880344D01*
X117833000Y-126880344D01*
X117618815Y-126757682D01*
X117547316Y-126771827D01*
X117070460Y-127030855D01*
X116729028Y-127452651D01*
X116705742Y-127531316D01*
X116418529Y-127101471D01*
X115960400Y-126795359D01*
X115420000Y-126687867D01*
X114879601Y-126795359D01*
X114421472Y-127101471D01*
X114245387Y-127365000D01*
X114140132Y-127365000D01*
X112635000Y-125859869D01*
X112635000Y-124794126D01*
X112715000Y-124794126D01*
X112715000Y-125205874D01*
X112872569Y-125586280D01*
X113163720Y-125877431D01*
X113544126Y-126035000D01*
X113955874Y-126035000D01*
X114336280Y-125877431D01*
X114478711Y-125735000D01*
X125521289Y-125735000D01*
X125663720Y-125877431D01*
X126044126Y-126035000D01*
X126455874Y-126035000D01*
X126836280Y-125877431D01*
X126978711Y-125735000D01*
X132271289Y-125735000D01*
X132413720Y-125877431D01*
X132794126Y-126035000D01*
X133205874Y-126035000D01*
X133586280Y-125877431D01*
X133877431Y-125586280D01*
X134035000Y-125205874D01*
X134035000Y-124794126D01*
X133877431Y-124413720D01*
X133586280Y-124122569D01*
X133205874Y-123965000D01*
X132794126Y-123965000D01*
X132413720Y-124122569D01*
X132271289Y-124265000D01*
X126978711Y-124265000D01*
X126836280Y-124122569D01*
X126455874Y-123965000D01*
X126044126Y-123965000D01*
X125663720Y-124122569D01*
X125521289Y-124265000D01*
X114478711Y-124265000D01*
X114336280Y-124122569D01*
X113955874Y-123965000D01*
X113544126Y-123965000D01*
X113163720Y-124122569D01*
X112872569Y-124413720D01*
X112715000Y-124794126D01*
X112635000Y-124794126D01*
X112635000Y-121294126D01*
X128215000Y-121294126D01*
X128215000Y-121705874D01*
X128372569Y-122086280D01*
X128663720Y-122377431D01*
X129044126Y-122535000D01*
X129455874Y-122535000D01*
X129836280Y-122377431D01*
X130127431Y-122086280D01*
X130285000Y-121705874D01*
X130285000Y-121452827D01*
X130851828Y-120886000D01*
X134797289Y-120886000D01*
X134976220Y-121064931D01*
X135356626Y-121222500D01*
X135768374Y-121222500D01*
X136148780Y-121064931D01*
X136439931Y-120773780D01*
X136597500Y-120393374D01*
X136597500Y-119981626D01*
X136439931Y-119601220D01*
X136148780Y-119310069D01*
X135768374Y-119152500D01*
X135356626Y-119152500D01*
X134976220Y-119310069D01*
X134797289Y-119489000D01*
X130631288Y-119489000D01*
X130562499Y-119475317D01*
X130493710Y-119489000D01*
X130493706Y-119489000D01*
X130289959Y-119529528D01*
X130058910Y-119683910D01*
X130019941Y-119742231D01*
X129297173Y-120465000D01*
X129044126Y-120465000D01*
X128663720Y-120622569D01*
X128372569Y-120913720D01*
X128215000Y-121294126D01*
X112635000Y-121294126D01*
X112635000Y-113122827D01*
X114957441Y-115445269D01*
X114996410Y-115503590D01*
X115227459Y-115657972D01*
X115431206Y-115698500D01*
X115431210Y-115698500D01*
X115499999Y-115712183D01*
X115568788Y-115698500D01*
X116424921Y-115698500D01*
X116187233Y-115936188D01*
X116052500Y-116261463D01*
X116052500Y-116613537D01*
X116187233Y-116938812D01*
X116436188Y-117187767D01*
X116761463Y-117322500D01*
X117113537Y-117322500D01*
X117412900Y-117198500D01*
X118234789Y-117198500D01*
X118413720Y-117377431D01*
X118794126Y-117535000D01*
X119205874Y-117535000D01*
X119586280Y-117377431D01*
X119877431Y-117086280D01*
X120035000Y-116705874D01*
X120035000Y-116294126D01*
X119877431Y-115913720D01*
X119662211Y-115698500D01*
X129234789Y-115698500D01*
X129413720Y-115877431D01*
X129794126Y-116035000D01*
X130205874Y-116035000D01*
X130586280Y-115877431D01*
X130877431Y-115586280D01*
X131035000Y-115205874D01*
X131035000Y-114794126D01*
X130877431Y-114413720D01*
X130586280Y-114122569D01*
X130205874Y-113965000D01*
X129794126Y-113965000D01*
X129413720Y-114122569D01*
X129234789Y-114301500D01*
X115789328Y-114301500D01*
X113448500Y-111960673D01*
X113448500Y-108294126D01*
X115215000Y-108294126D01*
X115215000Y-108705874D01*
X115372569Y-109086280D01*
X115663720Y-109377431D01*
X116044126Y-109535000D01*
X116455874Y-109535000D01*
X116836280Y-109377431D01*
X117015211Y-109198500D01*
X125984789Y-109198500D01*
X126163720Y-109377431D01*
X126544126Y-109535000D01*
X126955874Y-109535000D01*
X127336280Y-109377431D01*
X127515211Y-109198500D01*
X136984789Y-109198500D01*
X137163720Y-109377431D01*
X137544126Y-109535000D01*
X137955874Y-109535000D01*
X138336280Y-109377431D01*
X138627431Y-109086280D01*
X138785000Y-108705874D01*
X138785000Y-108294126D01*
X138627431Y-107913720D01*
X138336280Y-107622569D01*
X137955874Y-107465000D01*
X137544126Y-107465000D01*
X137163720Y-107622569D01*
X136984789Y-107801500D01*
X127515211Y-107801500D01*
X127336280Y-107622569D01*
X126955874Y-107465000D01*
X126544126Y-107465000D01*
X126163720Y-107622569D01*
X125984789Y-107801500D01*
X117015211Y-107801500D01*
X116836280Y-107622569D01*
X116455874Y-107465000D01*
X116044126Y-107465000D01*
X115663720Y-107622569D01*
X115372569Y-107913720D01*
X115215000Y-108294126D01*
X113448500Y-108294126D01*
X113448500Y-103230213D01*
X133459392Y-103230213D01*
X133528857Y-103472397D01*
X134052302Y-103659144D01*
X134607368Y-103631362D01*
X134991143Y-103472397D01*
X135060608Y-103230213D01*
X134260000Y-102429605D01*
X133459392Y-103230213D01*
X113448500Y-103230213D01*
X113448500Y-102042302D01*
X132850856Y-102042302D01*
X132878638Y-102597368D01*
X133037603Y-102981143D01*
X133279787Y-103050608D01*
X134080395Y-102250000D01*
X134439605Y-102250000D01*
X135240213Y-103050608D01*
X135482397Y-102981143D01*
X135669144Y-102457698D01*
X135641362Y-101902632D01*
X135482397Y-101518857D01*
X135240213Y-101449392D01*
X134439605Y-102250000D01*
X134080395Y-102250000D01*
X133279787Y-101449392D01*
X133037603Y-101518857D01*
X132850856Y-102042302D01*
X113448500Y-102042302D01*
X113448500Y-101269787D01*
X133459392Y-101269787D01*
X134260000Y-102070395D01*
X135060608Y-101269787D01*
X134991143Y-101027603D01*
X134467698Y-100840856D01*
X133912632Y-100868638D01*
X133528857Y-101027603D01*
X133459392Y-101269787D01*
X113448500Y-101269787D01*
X113448500Y-98015211D01*
X113627431Y-97836280D01*
X113785000Y-97455874D01*
X113785000Y-97044126D01*
X113719088Y-96885000D01*
X131111783Y-96885000D01*
X131442855Y-96819146D01*
X131818289Y-96568289D01*
X132069146Y-96192855D01*
X132157235Y-95750000D01*
X132089307Y-95408500D01*
X132678407Y-95408500D01*
X133192379Y-96841964D01*
G36*
X125163720Y-92877431D02*
X125544126Y-93035000D01*
X125955874Y-93035000D01*
X126336280Y-92877431D01*
X126510212Y-92703499D01*
X126599181Y-92873000D01*
X127793000Y-92873000D01*
X127793000Y-92853000D01*
X128047000Y-92853000D01*
X128047000Y-92873000D01*
X128067000Y-92873000D01*
X128067000Y-93127000D01*
X128047000Y-93127000D01*
X128047000Y-94320155D01*
X128276890Y-94441476D01*
X128686924Y-94271645D01*
X129115183Y-93881358D01*
X129176157Y-93751522D01*
X129389375Y-94070625D01*
X129761501Y-94319271D01*
X129761501Y-94615000D01*
X111611783Y-94615000D01*
X111500000Y-94592765D01*
X111388217Y-94615000D01*
X111127000Y-94666959D01*
X111127000Y-92778089D01*
X111429375Y-93230625D01*
X111920582Y-93558839D01*
X112353744Y-93645000D01*
X112646256Y-93645000D01*
X113079418Y-93558839D01*
X113381653Y-93356892D01*
X126478514Y-93356892D01*
X126724817Y-93881358D01*
X127153076Y-94271645D01*
X127563110Y-94441476D01*
X127793000Y-94320155D01*
X127793000Y-93127000D01*
X126599181Y-93127000D01*
X126478514Y-93356892D01*
X113381653Y-93356892D01*
X113570625Y-93230625D01*
X113898839Y-92739418D01*
X113906978Y-92698500D01*
X124984789Y-92698500D01*
X125163720Y-92877431D01*
X125163720Y-92877431D01*
G37*
X125163720Y-92877431D02*
X125544126Y-93035000D01*
X125955874Y-93035000D01*
X126336280Y-92877431D01*
X126510212Y-92703499D01*
X126599181Y-92873000D01*
X127793000Y-92873000D01*
X127793000Y-92853000D01*
X128047000Y-92853000D01*
X128047000Y-92873000D01*
X128067000Y-92873000D01*
X128067000Y-93127000D01*
X128047000Y-93127000D01*
X128047000Y-94320155D01*
X128276890Y-94441476D01*
X128686924Y-94271645D01*
X129115183Y-93881358D01*
X129176157Y-93751522D01*
X129389375Y-94070625D01*
X129761501Y-94319271D01*
X129761501Y-94615000D01*
X111611783Y-94615000D01*
X111500000Y-94592765D01*
X111388217Y-94615000D01*
X111127000Y-94666959D01*
X111127000Y-92778089D01*
X111429375Y-93230625D01*
X111920582Y-93558839D01*
X112353744Y-93645000D01*
X112646256Y-93645000D01*
X113079418Y-93558839D01*
X113381653Y-93356892D01*
X126478514Y-93356892D01*
X126724817Y-93881358D01*
X127153076Y-94271645D01*
X127563110Y-94441476D01*
X127793000Y-94320155D01*
X127793000Y-93127000D01*
X126599181Y-93127000D01*
X126478514Y-93356892D01*
X113381653Y-93356892D01*
X113570625Y-93230625D01*
X113898839Y-92739418D01*
X113906978Y-92698500D01*
X124984789Y-92698500D01*
X125163720Y-92877431D01*
G36*
X121610999Y-78719765D02*
X121610999Y-78719769D01*
X121597316Y-78788559D01*
X121610999Y-78857349D01*
X121610999Y-79240709D01*
X121597316Y-79309499D01*
X121610999Y-79378289D01*
X121610999Y-79378292D01*
X121651527Y-79582039D01*
X121805909Y-79813088D01*
X121864230Y-79852057D01*
X121865000Y-79852827D01*
X121865000Y-79926037D01*
X121999733Y-80251312D01*
X122248688Y-80500267D01*
X122573963Y-80635000D01*
X122926037Y-80635000D01*
X123251312Y-80500267D01*
X123500267Y-80251312D01*
X123635000Y-79926037D01*
X123635000Y-79698500D01*
X124460673Y-79698500D01*
X124755297Y-79993124D01*
X124749733Y-79998688D01*
X124615000Y-80323963D01*
X124615000Y-80676037D01*
X124749733Y-81001312D01*
X124998688Y-81250267D01*
X125258371Y-81357831D01*
X128720999Y-86145615D01*
X128721000Y-89209217D01*
X128499418Y-89061161D01*
X128066256Y-88975000D01*
X127773744Y-88975000D01*
X127340582Y-89061161D01*
X126849375Y-89389375D01*
X126521161Y-89880582D01*
X126405908Y-90460000D01*
X126521161Y-91039418D01*
X126849375Y-91530625D01*
X127149786Y-91731353D01*
X126785000Y-92063795D01*
X126785000Y-91794126D01*
X126627431Y-91413720D01*
X126336280Y-91122569D01*
X125955874Y-90965000D01*
X125544126Y-90965000D01*
X125163720Y-91122569D01*
X124984789Y-91301500D01*
X113712362Y-91301500D01*
X113570625Y-91089375D01*
X113272239Y-90890000D01*
X113570625Y-90690625D01*
X113898839Y-90199418D01*
X113899022Y-90198500D01*
X124696921Y-90198500D01*
X124748688Y-90250267D01*
X125073963Y-90385000D01*
X125426037Y-90385000D01*
X125751312Y-90250267D01*
X126000267Y-90001312D01*
X126135000Y-89676037D01*
X126135000Y-89323963D01*
X126000267Y-88998688D01*
X125751312Y-88749733D01*
X125426037Y-88615000D01*
X125073963Y-88615000D01*
X124748688Y-88749733D01*
X124696921Y-88801500D01*
X113739090Y-88801500D01*
X113570625Y-88549375D01*
X113251522Y-88336157D01*
X113381358Y-88275183D01*
X113771645Y-87846924D01*
X113941476Y-87436890D01*
X113820155Y-87207000D01*
X112627000Y-87207000D01*
X112627000Y-87227000D01*
X112373000Y-87227000D01*
X112373000Y-87207000D01*
X112353000Y-87207000D01*
X112353000Y-86953000D01*
X112373000Y-86953000D01*
X112373000Y-86933000D01*
X112627000Y-86933000D01*
X112627000Y-86953000D01*
X113820155Y-86953000D01*
X113941476Y-86723110D01*
X113771645Y-86313076D01*
X113381358Y-85884817D01*
X113251522Y-85823843D01*
X113570625Y-85610625D01*
X113898839Y-85119418D01*
X114014092Y-84540000D01*
X113926779Y-84101048D01*
X119329328Y-78698500D01*
X121615229Y-78698500D01*
X121610999Y-78719765D01*
X121610999Y-78719765D01*
G37*
X121610999Y-78719765D02*
X121610999Y-78719769D01*
X121597316Y-78788559D01*
X121610999Y-78857349D01*
X121610999Y-79240709D01*
X121597316Y-79309499D01*
X121610999Y-79378289D01*
X121610999Y-79378292D01*
X121651527Y-79582039D01*
X121805909Y-79813088D01*
X121864230Y-79852057D01*
X121865000Y-79852827D01*
X121865000Y-79926037D01*
X121999733Y-80251312D01*
X122248688Y-80500267D01*
X122573963Y-80635000D01*
X122926037Y-80635000D01*
X123251312Y-80500267D01*
X123500267Y-80251312D01*
X123635000Y-79926037D01*
X123635000Y-79698500D01*
X124460673Y-79698500D01*
X124755297Y-79993124D01*
X124749733Y-79998688D01*
X124615000Y-80323963D01*
X124615000Y-80676037D01*
X124749733Y-81001312D01*
X124998688Y-81250267D01*
X125258371Y-81357831D01*
X128720999Y-86145615D01*
X128721000Y-89209217D01*
X128499418Y-89061161D01*
X128066256Y-88975000D01*
X127773744Y-88975000D01*
X127340582Y-89061161D01*
X126849375Y-89389375D01*
X126521161Y-89880582D01*
X126405908Y-90460000D01*
X126521161Y-91039418D01*
X126849375Y-91530625D01*
X127149786Y-91731353D01*
X126785000Y-92063795D01*
X126785000Y-91794126D01*
X126627431Y-91413720D01*
X126336280Y-91122569D01*
X125955874Y-90965000D01*
X125544126Y-90965000D01*
X125163720Y-91122569D01*
X124984789Y-91301500D01*
X113712362Y-91301500D01*
X113570625Y-91089375D01*
X113272239Y-90890000D01*
X113570625Y-90690625D01*
X113898839Y-90199418D01*
X113899022Y-90198500D01*
X124696921Y-90198500D01*
X124748688Y-90250267D01*
X125073963Y-90385000D01*
X125426037Y-90385000D01*
X125751312Y-90250267D01*
X126000267Y-90001312D01*
X126135000Y-89676037D01*
X126135000Y-89323963D01*
X126000267Y-88998688D01*
X125751312Y-88749733D01*
X125426037Y-88615000D01*
X125073963Y-88615000D01*
X124748688Y-88749733D01*
X124696921Y-88801500D01*
X113739090Y-88801500D01*
X113570625Y-88549375D01*
X113251522Y-88336157D01*
X113381358Y-88275183D01*
X113771645Y-87846924D01*
X113941476Y-87436890D01*
X113820155Y-87207000D01*
X112627000Y-87207000D01*
X112627000Y-87227000D01*
X112373000Y-87227000D01*
X112373000Y-87207000D01*
X112353000Y-87207000D01*
X112353000Y-86953000D01*
X112373000Y-86953000D01*
X112373000Y-86933000D01*
X112627000Y-86933000D01*
X112627000Y-86953000D01*
X113820155Y-86953000D01*
X113941476Y-86723110D01*
X113771645Y-86313076D01*
X113381358Y-85884817D01*
X113251522Y-85823843D01*
X113570625Y-85610625D01*
X113898839Y-85119418D01*
X114014092Y-84540000D01*
X113926779Y-84101048D01*
X119329328Y-78698500D01*
X121615229Y-78698500D01*
X121610999Y-78719765D01*
G36*
X131115000Y-77926037D02*
X131249190Y-78250000D01*
X131115000Y-78573963D01*
X131115000Y-78926037D01*
X131197413Y-79125000D01*
X131115000Y-79323963D01*
X131115000Y-79676037D01*
X131249190Y-80000000D01*
X131115000Y-80323963D01*
X131115000Y-80676037D01*
X131249733Y-81001312D01*
X131365000Y-81116579D01*
X131365000Y-81426037D01*
X131374022Y-81447818D01*
X131248688Y-81499733D01*
X130999733Y-81748688D01*
X130865000Y-82073963D01*
X130865000Y-82426037D01*
X130999733Y-82751312D01*
X131248688Y-83000267D01*
X131573963Y-83135000D01*
X131926037Y-83135000D01*
X132251312Y-83000267D01*
X132303079Y-82948500D01*
X133710673Y-82948500D01*
X138627441Y-87865269D01*
X138666410Y-87923590D01*
X138897459Y-88077972D01*
X139101206Y-88118500D01*
X139101210Y-88118500D01*
X139169999Y-88132183D01*
X139187540Y-88128694D01*
X139429375Y-88490625D01*
X139727761Y-88690000D01*
X139429375Y-88889375D01*
X139180729Y-89261500D01*
X136358552Y-89261500D01*
X128280381Y-81183330D01*
X128377431Y-81086280D01*
X128535000Y-80705874D01*
X128535000Y-80452827D01*
X131115000Y-77872827D01*
X131115000Y-77926037D01*
X131115000Y-77926037D01*
G37*
X131115000Y-77926037D02*
X131249190Y-78250000D01*
X131115000Y-78573963D01*
X131115000Y-78926037D01*
X131197413Y-79125000D01*
X131115000Y-79323963D01*
X131115000Y-79676037D01*
X131249190Y-80000000D01*
X131115000Y-80323963D01*
X131115000Y-80676037D01*
X131249733Y-81001312D01*
X131365000Y-81116579D01*
X131365000Y-81426037D01*
X131374022Y-81447818D01*
X131248688Y-81499733D01*
X130999733Y-81748688D01*
X130865000Y-82073963D01*
X130865000Y-82426037D01*
X130999733Y-82751312D01*
X131248688Y-83000267D01*
X131573963Y-83135000D01*
X131926037Y-83135000D01*
X132251312Y-83000267D01*
X132303079Y-82948500D01*
X133710673Y-82948500D01*
X138627441Y-87865269D01*
X138666410Y-87923590D01*
X138897459Y-88077972D01*
X139101206Y-88118500D01*
X139101210Y-88118500D01*
X139169999Y-88132183D01*
X139187540Y-88128694D01*
X139429375Y-88490625D01*
X139727761Y-88690000D01*
X139429375Y-88889375D01*
X139180729Y-89261500D01*
X136358552Y-89261500D01*
X128280381Y-81183330D01*
X128377431Y-81086280D01*
X128535000Y-80705874D01*
X128535000Y-80452827D01*
X131115000Y-77872827D01*
X131115000Y-77926037D01*
G36*
X141873000Y-69021911D02*
X141570625Y-68569375D01*
X141079418Y-68241161D01*
X140646256Y-68155000D01*
X140353744Y-68155000D01*
X139920582Y-68241161D01*
X139429375Y-68569375D01*
X139173311Y-68952602D01*
X139025378Y-68982028D01*
X138794329Y-69136410D01*
X138755358Y-69194734D01*
X138648592Y-69301500D01*
X138068788Y-69301500D01*
X137999999Y-69287817D01*
X137931210Y-69301500D01*
X137931206Y-69301500D01*
X137727459Y-69342028D01*
X137496410Y-69496410D01*
X137457441Y-69554731D01*
X127547173Y-79465000D01*
X127294126Y-79465000D01*
X126913720Y-79622569D01*
X126816670Y-79719619D01*
X125151785Y-78054734D01*
X125112814Y-77996410D01*
X124881765Y-77842028D01*
X124678018Y-77801500D01*
X124678014Y-77801500D01*
X124609224Y-77787817D01*
X124540434Y-77801500D01*
X124375696Y-77801500D01*
X124250267Y-77498688D01*
X124001312Y-77249733D01*
X123676037Y-77115000D01*
X123635000Y-77115000D01*
X123635000Y-77073963D01*
X123500267Y-76748688D01*
X123251312Y-76499733D01*
X122926037Y-76365000D01*
X122573963Y-76365000D01*
X122248688Y-76499733D01*
X122196921Y-76551500D01*
X120535000Y-76551500D01*
X120535000Y-76294126D01*
X120531220Y-76285000D01*
X120607874Y-76285000D01*
X120988280Y-76127431D01*
X121279431Y-75836280D01*
X121437000Y-75455874D01*
X121437000Y-75044126D01*
X121279431Y-74663720D01*
X120988280Y-74372569D01*
X120607874Y-74215000D01*
X120196126Y-74215000D01*
X120117089Y-74247738D01*
X121079828Y-73285000D01*
X121332874Y-73285000D01*
X121713280Y-73127431D01*
X122004431Y-72836280D01*
X122162000Y-72455874D01*
X122162000Y-72180566D01*
X122414126Y-72285000D01*
X122825874Y-72285000D01*
X123206280Y-72127431D01*
X123497431Y-71836280D01*
X123655000Y-71455874D01*
X123655000Y-71044126D01*
X123497431Y-70663720D01*
X123206280Y-70372569D01*
X122825874Y-70215000D01*
X122414126Y-70215000D01*
X122033720Y-70372569D01*
X121854789Y-70551500D01*
X118318789Y-70551500D01*
X118249999Y-70537817D01*
X118181209Y-70551500D01*
X118181206Y-70551500D01*
X117977459Y-70592028D01*
X117746410Y-70746410D01*
X117707441Y-70804731D01*
X117370673Y-71141500D01*
X113819271Y-71141500D01*
X113570625Y-70769375D01*
X113552381Y-70757184D01*
X113597765Y-70748157D01*
X113807809Y-70607809D01*
X113948157Y-70397765D01*
X113997440Y-70150000D01*
X113997440Y-69448500D01*
X122484789Y-69448500D01*
X122663720Y-69627431D01*
X123044126Y-69785000D01*
X123455874Y-69785000D01*
X123836280Y-69627431D01*
X124127431Y-69336280D01*
X124285000Y-68955874D01*
X124285000Y-68544126D01*
X124127431Y-68163720D01*
X123836280Y-67872569D01*
X123455874Y-67715000D01*
X123044126Y-67715000D01*
X122663720Y-67872569D01*
X122484789Y-68051500D01*
X113847438Y-68051500D01*
X113807809Y-67992191D01*
X113597765Y-67851843D01*
X113350000Y-67802560D01*
X111650000Y-67802560D01*
X111402235Y-67851843D01*
X111192191Y-67992191D01*
X111127000Y-68089755D01*
X111127000Y-62650000D01*
X113502560Y-62650000D01*
X113502560Y-64350000D01*
X113551843Y-64597765D01*
X113692191Y-64807809D01*
X113902235Y-64948157D01*
X114150000Y-64997440D01*
X114521629Y-64997440D01*
X114554731Y-65019558D01*
X116480441Y-66945269D01*
X116519410Y-67003590D01*
X116750459Y-67157972D01*
X116954206Y-67198500D01*
X116954209Y-67198500D01*
X117022999Y-67212183D01*
X117091789Y-67198500D01*
X124234789Y-67198500D01*
X124413720Y-67377431D01*
X124794126Y-67535000D01*
X125205874Y-67535000D01*
X125586280Y-67377431D01*
X125877431Y-67086280D01*
X126035000Y-66705874D01*
X126035000Y-66294126D01*
X125877431Y-65913720D01*
X125586280Y-65622569D01*
X125205874Y-65465000D01*
X124794126Y-65465000D01*
X124413720Y-65622569D01*
X124234789Y-65801500D01*
X117312328Y-65801500D01*
X116312146Y-64801318D01*
X116448157Y-64597765D01*
X116457184Y-64552381D01*
X116469375Y-64570625D01*
X116960582Y-64898839D01*
X117393744Y-64985000D01*
X117686256Y-64985000D01*
X118119418Y-64898839D01*
X118610625Y-64570625D01*
X118810000Y-64272239D01*
X119009375Y-64570625D01*
X119500582Y-64898839D01*
X119933744Y-64985000D01*
X120226256Y-64985000D01*
X120659418Y-64898839D01*
X121150625Y-64570625D01*
X121350000Y-64272239D01*
X121549375Y-64570625D01*
X122040582Y-64898839D01*
X122473744Y-64985000D01*
X122766256Y-64985000D01*
X123199418Y-64898839D01*
X123690625Y-64570625D01*
X123890000Y-64272239D01*
X124089375Y-64570625D01*
X124580582Y-64898839D01*
X125013744Y-64985000D01*
X125306256Y-64985000D01*
X125739418Y-64898839D01*
X126230625Y-64570625D01*
X126430000Y-64272239D01*
X126629375Y-64570625D01*
X127120582Y-64898839D01*
X127553744Y-64985000D01*
X127846256Y-64985000D01*
X128279418Y-64898839D01*
X128770625Y-64570625D01*
X128970000Y-64272239D01*
X129169375Y-64570625D01*
X129660582Y-64898839D01*
X130093744Y-64985000D01*
X130386256Y-64985000D01*
X130819418Y-64898839D01*
X131310625Y-64570625D01*
X131510000Y-64272239D01*
X131709375Y-64570625D01*
X132200582Y-64898839D01*
X132633744Y-64985000D01*
X132926256Y-64985000D01*
X133359418Y-64898839D01*
X133850625Y-64570625D01*
X134050000Y-64272239D01*
X134249375Y-64570625D01*
X134740582Y-64898839D01*
X135173744Y-64985000D01*
X135466256Y-64985000D01*
X135899418Y-64898839D01*
X136390625Y-64570625D01*
X136603843Y-64251522D01*
X136664817Y-64381358D01*
X137093076Y-64771645D01*
X137503110Y-64941476D01*
X137733000Y-64820155D01*
X137733000Y-63627000D01*
X137987000Y-63627000D01*
X137987000Y-64820155D01*
X138216890Y-64941476D01*
X138626924Y-64771645D01*
X139055183Y-64381358D01*
X139301486Y-63856892D01*
X139180819Y-63627000D01*
X137987000Y-63627000D01*
X137733000Y-63627000D01*
X137713000Y-63627000D01*
X137713000Y-63373000D01*
X137733000Y-63373000D01*
X137733000Y-62179845D01*
X137987000Y-62179845D01*
X137987000Y-63373000D01*
X139180819Y-63373000D01*
X139301486Y-63143108D01*
X139055183Y-62618642D01*
X138626924Y-62228355D01*
X138216890Y-62058524D01*
X137987000Y-62179845D01*
X137733000Y-62179845D01*
X137503110Y-62058524D01*
X137093076Y-62228355D01*
X136664817Y-62618642D01*
X136603843Y-62748478D01*
X136390625Y-62429375D01*
X135899418Y-62101161D01*
X135466256Y-62015000D01*
X135173744Y-62015000D01*
X134740582Y-62101161D01*
X134249375Y-62429375D01*
X134050000Y-62727761D01*
X133850625Y-62429375D01*
X133359418Y-62101161D01*
X132926256Y-62015000D01*
X132633744Y-62015000D01*
X132200582Y-62101161D01*
X131709375Y-62429375D01*
X131510000Y-62727761D01*
X131310625Y-62429375D01*
X130819418Y-62101161D01*
X130386256Y-62015000D01*
X130093744Y-62015000D01*
X129660582Y-62101161D01*
X129169375Y-62429375D01*
X128970000Y-62727761D01*
X128770625Y-62429375D01*
X128279418Y-62101161D01*
X127846256Y-62015000D01*
X127553744Y-62015000D01*
X127120582Y-62101161D01*
X126629375Y-62429375D01*
X126430000Y-62727761D01*
X126230625Y-62429375D01*
X125739418Y-62101161D01*
X125306256Y-62015000D01*
X125013744Y-62015000D01*
X124580582Y-62101161D01*
X124089375Y-62429375D01*
X123890000Y-62727761D01*
X123690625Y-62429375D01*
X123199418Y-62101161D01*
X122766256Y-62015000D01*
X122473744Y-62015000D01*
X122040582Y-62101161D01*
X121549375Y-62429375D01*
X121350000Y-62727761D01*
X121150625Y-62429375D01*
X120659418Y-62101161D01*
X120226256Y-62015000D01*
X119933744Y-62015000D01*
X119500582Y-62101161D01*
X119009375Y-62429375D01*
X118810000Y-62727761D01*
X118610625Y-62429375D01*
X118119418Y-62101161D01*
X117686256Y-62015000D01*
X117393744Y-62015000D01*
X116960582Y-62101161D01*
X116469375Y-62429375D01*
X116457184Y-62447619D01*
X116448157Y-62402235D01*
X116307809Y-62192191D01*
X116097765Y-62051843D01*
X115850000Y-62002560D01*
X114150000Y-62002560D01*
X113902235Y-62051843D01*
X113692191Y-62192191D01*
X113551843Y-62402235D01*
X113502560Y-62650000D01*
X111127000Y-62650000D01*
X111127000Y-61127000D01*
X141873000Y-61127000D01*
X141873000Y-69021911D01*
X141873000Y-69021911D01*
G37*
X141873000Y-69021911D02*
X141570625Y-68569375D01*
X141079418Y-68241161D01*
X140646256Y-68155000D01*
X140353744Y-68155000D01*
X139920582Y-68241161D01*
X139429375Y-68569375D01*
X139173311Y-68952602D01*
X139025378Y-68982028D01*
X138794329Y-69136410D01*
X138755358Y-69194734D01*
X138648592Y-69301500D01*
X138068788Y-69301500D01*
X137999999Y-69287817D01*
X137931210Y-69301500D01*
X137931206Y-69301500D01*
X137727459Y-69342028D01*
X137496410Y-69496410D01*
X137457441Y-69554731D01*
X127547173Y-79465000D01*
X127294126Y-79465000D01*
X126913720Y-79622569D01*
X126816670Y-79719619D01*
X125151785Y-78054734D01*
X125112814Y-77996410D01*
X124881765Y-77842028D01*
X124678018Y-77801500D01*
X124678014Y-77801500D01*
X124609224Y-77787817D01*
X124540434Y-77801500D01*
X124375696Y-77801500D01*
X124250267Y-77498688D01*
X124001312Y-77249733D01*
X123676037Y-77115000D01*
X123635000Y-77115000D01*
X123635000Y-77073963D01*
X123500267Y-76748688D01*
X123251312Y-76499733D01*
X122926037Y-76365000D01*
X122573963Y-76365000D01*
X122248688Y-76499733D01*
X122196921Y-76551500D01*
X120535000Y-76551500D01*
X120535000Y-76294126D01*
X120531220Y-76285000D01*
X120607874Y-76285000D01*
X120988280Y-76127431D01*
X121279431Y-75836280D01*
X121437000Y-75455874D01*
X121437000Y-75044126D01*
X121279431Y-74663720D01*
X120988280Y-74372569D01*
X120607874Y-74215000D01*
X120196126Y-74215000D01*
X120117089Y-74247738D01*
X121079828Y-73285000D01*
X121332874Y-73285000D01*
X121713280Y-73127431D01*
X122004431Y-72836280D01*
X122162000Y-72455874D01*
X122162000Y-72180566D01*
X122414126Y-72285000D01*
X122825874Y-72285000D01*
X123206280Y-72127431D01*
X123497431Y-71836280D01*
X123655000Y-71455874D01*
X123655000Y-71044126D01*
X123497431Y-70663720D01*
X123206280Y-70372569D01*
X122825874Y-70215000D01*
X122414126Y-70215000D01*
X122033720Y-70372569D01*
X121854789Y-70551500D01*
X118318789Y-70551500D01*
X118249999Y-70537817D01*
X118181209Y-70551500D01*
X118181206Y-70551500D01*
X117977459Y-70592028D01*
X117746410Y-70746410D01*
X117707441Y-70804731D01*
X117370673Y-71141500D01*
X113819271Y-71141500D01*
X113570625Y-70769375D01*
X113552381Y-70757184D01*
X113597765Y-70748157D01*
X113807809Y-70607809D01*
X113948157Y-70397765D01*
X113997440Y-70150000D01*
X113997440Y-69448500D01*
X122484789Y-69448500D01*
X122663720Y-69627431D01*
X123044126Y-69785000D01*
X123455874Y-69785000D01*
X123836280Y-69627431D01*
X124127431Y-69336280D01*
X124285000Y-68955874D01*
X124285000Y-68544126D01*
X124127431Y-68163720D01*
X123836280Y-67872569D01*
X123455874Y-67715000D01*
X123044126Y-67715000D01*
X122663720Y-67872569D01*
X122484789Y-68051500D01*
X113847438Y-68051500D01*
X113807809Y-67992191D01*
X113597765Y-67851843D01*
X113350000Y-67802560D01*
X111650000Y-67802560D01*
X111402235Y-67851843D01*
X111192191Y-67992191D01*
X111127000Y-68089755D01*
X111127000Y-62650000D01*
X113502560Y-62650000D01*
X113502560Y-64350000D01*
X113551843Y-64597765D01*
X113692191Y-64807809D01*
X113902235Y-64948157D01*
X114150000Y-64997440D01*
X114521629Y-64997440D01*
X114554731Y-65019558D01*
X116480441Y-66945269D01*
X116519410Y-67003590D01*
X116750459Y-67157972D01*
X116954206Y-67198500D01*
X116954209Y-67198500D01*
X117022999Y-67212183D01*
X117091789Y-67198500D01*
X124234789Y-67198500D01*
X124413720Y-67377431D01*
X124794126Y-67535000D01*
X125205874Y-67535000D01*
X125586280Y-67377431D01*
X125877431Y-67086280D01*
X126035000Y-66705874D01*
X126035000Y-66294126D01*
X125877431Y-65913720D01*
X125586280Y-65622569D01*
X125205874Y-65465000D01*
X124794126Y-65465000D01*
X124413720Y-65622569D01*
X124234789Y-65801500D01*
X117312328Y-65801500D01*
X116312146Y-64801318D01*
X116448157Y-64597765D01*
X116457184Y-64552381D01*
X116469375Y-64570625D01*
X116960582Y-64898839D01*
X117393744Y-64985000D01*
X117686256Y-64985000D01*
X118119418Y-64898839D01*
X118610625Y-64570625D01*
X118810000Y-64272239D01*
X119009375Y-64570625D01*
X119500582Y-64898839D01*
X119933744Y-64985000D01*
X120226256Y-64985000D01*
X120659418Y-64898839D01*
X121150625Y-64570625D01*
X121350000Y-64272239D01*
X121549375Y-64570625D01*
X122040582Y-64898839D01*
X122473744Y-64985000D01*
X122766256Y-64985000D01*
X123199418Y-64898839D01*
X123690625Y-64570625D01*
X123890000Y-64272239D01*
X124089375Y-64570625D01*
X124580582Y-64898839D01*
X125013744Y-64985000D01*
X125306256Y-64985000D01*
X125739418Y-64898839D01*
X126230625Y-64570625D01*
X126430000Y-64272239D01*
X126629375Y-64570625D01*
X127120582Y-64898839D01*
X127553744Y-64985000D01*
X127846256Y-64985000D01*
X128279418Y-64898839D01*
X128770625Y-64570625D01*
X128970000Y-64272239D01*
X129169375Y-64570625D01*
X129660582Y-64898839D01*
X130093744Y-64985000D01*
X130386256Y-64985000D01*
X130819418Y-64898839D01*
X131310625Y-64570625D01*
X131510000Y-64272239D01*
X131709375Y-64570625D01*
X132200582Y-64898839D01*
X132633744Y-64985000D01*
X132926256Y-64985000D01*
X133359418Y-64898839D01*
X133850625Y-64570625D01*
X134050000Y-64272239D01*
X134249375Y-64570625D01*
X134740582Y-64898839D01*
X135173744Y-64985000D01*
X135466256Y-64985000D01*
X135899418Y-64898839D01*
X136390625Y-64570625D01*
X136603843Y-64251522D01*
X136664817Y-64381358D01*
X137093076Y-64771645D01*
X137503110Y-64941476D01*
X137733000Y-64820155D01*
X137733000Y-63627000D01*
X137987000Y-63627000D01*
X137987000Y-64820155D01*
X138216890Y-64941476D01*
X138626924Y-64771645D01*
X139055183Y-64381358D01*
X139301486Y-63856892D01*
X139180819Y-63627000D01*
X137987000Y-63627000D01*
X137733000Y-63627000D01*
X137713000Y-63627000D01*
X137713000Y-63373000D01*
X137733000Y-63373000D01*
X137733000Y-62179845D01*
X137987000Y-62179845D01*
X137987000Y-63373000D01*
X139180819Y-63373000D01*
X139301486Y-63143108D01*
X139055183Y-62618642D01*
X138626924Y-62228355D01*
X138216890Y-62058524D01*
X137987000Y-62179845D01*
X137733000Y-62179845D01*
X137503110Y-62058524D01*
X137093076Y-62228355D01*
X136664817Y-62618642D01*
X136603843Y-62748478D01*
X136390625Y-62429375D01*
X135899418Y-62101161D01*
X135466256Y-62015000D01*
X135173744Y-62015000D01*
X134740582Y-62101161D01*
X134249375Y-62429375D01*
X134050000Y-62727761D01*
X133850625Y-62429375D01*
X133359418Y-62101161D01*
X132926256Y-62015000D01*
X132633744Y-62015000D01*
X132200582Y-62101161D01*
X131709375Y-62429375D01*
X131510000Y-62727761D01*
X131310625Y-62429375D01*
X130819418Y-62101161D01*
X130386256Y-62015000D01*
X130093744Y-62015000D01*
X129660582Y-62101161D01*
X129169375Y-62429375D01*
X128970000Y-62727761D01*
X128770625Y-62429375D01*
X128279418Y-62101161D01*
X127846256Y-62015000D01*
X127553744Y-62015000D01*
X127120582Y-62101161D01*
X126629375Y-62429375D01*
X126430000Y-62727761D01*
X126230625Y-62429375D01*
X125739418Y-62101161D01*
X125306256Y-62015000D01*
X125013744Y-62015000D01*
X124580582Y-62101161D01*
X124089375Y-62429375D01*
X123890000Y-62727761D01*
X123690625Y-62429375D01*
X123199418Y-62101161D01*
X122766256Y-62015000D01*
X122473744Y-62015000D01*
X122040582Y-62101161D01*
X121549375Y-62429375D01*
X121350000Y-62727761D01*
X121150625Y-62429375D01*
X120659418Y-62101161D01*
X120226256Y-62015000D01*
X119933744Y-62015000D01*
X119500582Y-62101161D01*
X119009375Y-62429375D01*
X118810000Y-62727761D01*
X118610625Y-62429375D01*
X118119418Y-62101161D01*
X117686256Y-62015000D01*
X117393744Y-62015000D01*
X116960582Y-62101161D01*
X116469375Y-62429375D01*
X116457184Y-62447619D01*
X116448157Y-62402235D01*
X116307809Y-62192191D01*
X116097765Y-62051843D01*
X115850000Y-62002560D01*
X114150000Y-62002560D01*
X113902235Y-62051843D01*
X113692191Y-62192191D01*
X113551843Y-62402235D01*
X113502560Y-62650000D01*
X111127000Y-62650000D01*
X111127000Y-61127000D01*
X141873000Y-61127000D01*
X141873000Y-69021911D01*
G36*
X139429375Y-70710625D02*
X139727761Y-70910000D01*
X139429375Y-71109375D01*
X139101161Y-71600582D01*
X138985908Y-72180000D01*
X139073221Y-72618952D01*
X135554733Y-76137440D01*
X135554730Y-76137442D01*
X135140673Y-76551500D01*
X133053079Y-76551500D01*
X133001312Y-76499733D01*
X132676037Y-76365000D01*
X132622827Y-76365000D01*
X138289328Y-70698500D01*
X138869129Y-70698500D01*
X138937919Y-70712183D01*
X139006709Y-70698500D01*
X139006713Y-70698500D01*
X139210460Y-70657972D01*
X139337483Y-70573098D01*
X139429375Y-70710625D01*
X139429375Y-70710625D01*
G37*
X139429375Y-70710625D02*
X139727761Y-70910000D01*
X139429375Y-71109375D01*
X139101161Y-71600582D01*
X138985908Y-72180000D01*
X139073221Y-72618952D01*
X135554733Y-76137440D01*
X135554730Y-76137442D01*
X135140673Y-76551500D01*
X133053079Y-76551500D01*
X133001312Y-76499733D01*
X132676037Y-76365000D01*
X132622827Y-76365000D01*
X138289328Y-70698500D01*
X138869129Y-70698500D01*
X138937919Y-70712183D01*
X139006709Y-70698500D01*
X139006713Y-70698500D01*
X139210460Y-70657972D01*
X139337483Y-70573098D01*
X139429375Y-70710625D01*
G04 #@! TD*
M02*
