G04 #@! TF.GenerationSoftware,KiCad,Pcbnew,5.0.2+dfsg1-1~bpo9+1*
G04 #@! TF.CreationDate,2019-05-23T15:08:07-07:00*
G04 #@! TF.ProjectId,HW,48572e6b-6963-4616-945f-706362585858,rev?*
G04 #@! TF.SameCoordinates,Original*
G04 #@! TF.FileFunction,Legend,Bot*
G04 #@! TF.FilePolarity,Positive*
%FSLAX46Y46*%
G04 Gerber Fmt 4.6, Leading zero omitted, Abs format (unit mm)*
G04 Created by KiCad (PCBNEW 5.0.2+dfsg1-1~bpo9+1) date Thu 23 May 2019 03:08:07 PM PDT*
%MOMM*%
%LPD*%
G01*
G04 APERTURE LIST*
%ADD10C,0.300000*%
%ADD11C,0.200000*%
%ADD12C,1.000000*%
%ADD13C,0.150000*%
%ADD14C,0.120000*%
G04 APERTURE END LIST*
D10*
X132447857Y-98678571D02*
X132447857Y-97178571D01*
X131590714Y-98678571D02*
X132233571Y-97821428D01*
X131590714Y-97178571D02*
X132447857Y-98035714D01*
X130947857Y-97892857D02*
X130447857Y-97892857D01*
X130233571Y-98678571D02*
X130947857Y-98678571D01*
X130947857Y-97178571D01*
X130233571Y-97178571D01*
X129305000Y-97964285D02*
X129305000Y-98678571D01*
X129805000Y-97178571D02*
X129305000Y-97964285D01*
X128805000Y-97178571D01*
D11*
X128000000Y-95000000D02*
X133000000Y-95000000D01*
D12*
X131000000Y-130000000D02*
X131000000Y-133000000D01*
D13*
G04 #@! TO.C,SW1*
X133360000Y-96850000D02*
X141660000Y-96850000D01*
X141660000Y-103150000D02*
X141660000Y-96850000D01*
X133360000Y-103150000D02*
X133360000Y-96850000D01*
X133360000Y-103150000D02*
X141660000Y-103150000D01*
X139260000Y-100000000D02*
G75*
G03X139260000Y-100000000I-1750000J0D01*
G01*
D14*
G04 #@! TO.C,J2*
X126590000Y-94330000D02*
X126590000Y-89130000D01*
X131730000Y-94330000D02*
X126590000Y-94330000D01*
X134330000Y-89130000D02*
X126590000Y-89130000D01*
X131730000Y-94330000D02*
X131730000Y-91730000D01*
X131730000Y-91730000D02*
X134330000Y-91730000D01*
X134330000Y-91730000D02*
X134330000Y-89130000D01*
X133000000Y-94330000D02*
X134330000Y-94330000D01*
X134330000Y-94330000D02*
X134330000Y-93000000D01*
G04 #@! TO.C,J6*
X113830000Y-67970000D02*
X112500000Y-67970000D01*
X113830000Y-69300000D02*
X113830000Y-67970000D01*
X113830000Y-70570000D02*
X111170000Y-70570000D01*
X111170000Y-70570000D02*
X111170000Y-93490000D01*
X113830000Y-70570000D02*
X113830000Y-93490000D01*
X113830000Y-93490000D02*
X111170000Y-93490000D01*
G04 #@! TO.C,J5*
X139170000Y-68310000D02*
X141830000Y-68310000D01*
X139170000Y-91230000D02*
X139170000Y-68310000D01*
X141830000Y-91230000D02*
X141830000Y-68310000D01*
X139170000Y-91230000D02*
X141830000Y-91230000D01*
X139170000Y-92500000D02*
X139170000Y-93830000D01*
X139170000Y-93830000D02*
X140500000Y-93830000D01*
G04 #@! TO.C,U3*
X123871000Y-121940000D02*
X112150000Y-121940000D01*
X123871000Y-130560000D02*
X112150000Y-130560000D01*
X123871000Y-121940000D02*
X123871000Y-130560000D01*
X112150000Y-121940000D02*
X112150000Y-130560000D01*
X124111000Y-129560000D02*
X124111000Y-130800000D01*
X124111000Y-130800000D02*
X122871000Y-130800000D01*
G04 #@! TO.C,J3*
X136350000Y-134055000D02*
X115490000Y-134055000D01*
X115490000Y-134055000D02*
X115490000Y-143405000D01*
X115490000Y-143405000D02*
X136350000Y-143405000D01*
X136350000Y-143405000D02*
X136350000Y-134055000D01*
X136600000Y-143655000D02*
X134060000Y-143655000D01*
X136600000Y-143655000D02*
X136600000Y-141115000D01*
G04 #@! TO.C,SW1*
D13*
X134583333Y-104384761D02*
X134440476Y-104432380D01*
X134202380Y-104432380D01*
X134107142Y-104384761D01*
X134059523Y-104337142D01*
X134011904Y-104241904D01*
X134011904Y-104146666D01*
X134059523Y-104051428D01*
X134107142Y-104003809D01*
X134202380Y-103956190D01*
X134392857Y-103908571D01*
X134488095Y-103860952D01*
X134535714Y-103813333D01*
X134583333Y-103718095D01*
X134583333Y-103622857D01*
X134535714Y-103527619D01*
X134488095Y-103480000D01*
X134392857Y-103432380D01*
X134154761Y-103432380D01*
X134011904Y-103480000D01*
X133678571Y-103432380D02*
X133440476Y-104432380D01*
X133250000Y-103718095D01*
X133059523Y-104432380D01*
X132821428Y-103432380D01*
X131916666Y-104432380D02*
X132488095Y-104432380D01*
X132202380Y-104432380D02*
X132202380Y-103432380D01*
X132297619Y-103575238D01*
X132392857Y-103670476D01*
X132488095Y-103718095D01*
G04 #@! TO.C,J2*
X134782380Y-91396666D02*
X135496666Y-91396666D01*
X135639523Y-91349047D01*
X135734761Y-91253809D01*
X135782380Y-91110952D01*
X135782380Y-91015714D01*
X134877619Y-91825238D02*
X134830000Y-91872857D01*
X134782380Y-91968095D01*
X134782380Y-92206190D01*
X134830000Y-92301428D01*
X134877619Y-92349047D01*
X134972857Y-92396666D01*
X135068095Y-92396666D01*
X135210952Y-92349047D01*
X135782380Y-91777619D01*
X135782380Y-92396666D01*
G04 #@! TO.C,J6*
X112833333Y-66422380D02*
X112833333Y-67136666D01*
X112880952Y-67279523D01*
X112976190Y-67374761D01*
X113119047Y-67422380D01*
X113214285Y-67422380D01*
X111928571Y-66422380D02*
X112119047Y-66422380D01*
X112214285Y-66470000D01*
X112261904Y-66517619D01*
X112357142Y-66660476D01*
X112404761Y-66850952D01*
X112404761Y-67231904D01*
X112357142Y-67327142D01*
X112309523Y-67374761D01*
X112214285Y-67422380D01*
X112023809Y-67422380D01*
X111928571Y-67374761D01*
X111880952Y-67327142D01*
X111833333Y-67231904D01*
X111833333Y-66993809D01*
X111880952Y-66898571D01*
X111928571Y-66850952D01*
X112023809Y-66803333D01*
X112214285Y-66803333D01*
X112309523Y-66850952D01*
X112357142Y-66898571D01*
X112404761Y-66993809D01*
G04 #@! TO.C,J5*
X138083333Y-92952380D02*
X138083333Y-93666666D01*
X138130952Y-93809523D01*
X138226190Y-93904761D01*
X138369047Y-93952380D01*
X138464285Y-93952380D01*
X137130952Y-92952380D02*
X137607142Y-92952380D01*
X137654761Y-93428571D01*
X137607142Y-93380952D01*
X137511904Y-93333333D01*
X137273809Y-93333333D01*
X137178571Y-93380952D01*
X137130952Y-93428571D01*
X137083333Y-93523809D01*
X137083333Y-93761904D01*
X137130952Y-93857142D01*
X137178571Y-93904761D01*
X137273809Y-93952380D01*
X137511904Y-93952380D01*
X137607142Y-93904761D01*
X137654761Y-93857142D01*
G04 #@! TO.C,U3*
X124011904Y-131202380D02*
X124011904Y-132011904D01*
X123964285Y-132107142D01*
X123916666Y-132154761D01*
X123821428Y-132202380D01*
X123630952Y-132202380D01*
X123535714Y-132154761D01*
X123488095Y-132107142D01*
X123440476Y-132011904D01*
X123440476Y-131202380D01*
X123059523Y-131202380D02*
X122440476Y-131202380D01*
X122773809Y-131583333D01*
X122630952Y-131583333D01*
X122535714Y-131630952D01*
X122488095Y-131678571D01*
X122440476Y-131773809D01*
X122440476Y-132011904D01*
X122488095Y-132107142D01*
X122535714Y-132154761D01*
X122630952Y-132202380D01*
X122916666Y-132202380D01*
X123011904Y-132154761D01*
X123059523Y-132107142D01*
G04 #@! TO.C,J3*
X137056380Y-138396666D02*
X137770666Y-138396666D01*
X137913523Y-138349047D01*
X138008761Y-138253809D01*
X138056380Y-138110952D01*
X138056380Y-138015714D01*
X137056380Y-138777619D02*
X137056380Y-139396666D01*
X137437333Y-139063333D01*
X137437333Y-139206190D01*
X137484952Y-139301428D01*
X137532571Y-139349047D01*
X137627809Y-139396666D01*
X137865904Y-139396666D01*
X137961142Y-139349047D01*
X138008761Y-139301428D01*
X138056380Y-139206190D01*
X138056380Y-138920476D01*
X138008761Y-138825238D01*
X137961142Y-138777619D01*
G04 #@! TD*
M02*
