G04 #@! TF.GenerationSoftware,KiCad,Pcbnew,5.0.2+dfsg1-1~bpo9+1*
G04 #@! TF.CreationDate,2019-05-23T15:08:07-07:00*
G04 #@! TF.ProjectId,HW,48572e6b-6963-4616-945f-706362585858,rev?*
G04 #@! TF.SameCoordinates,Original*
G04 #@! TF.FileFunction,Soldermask,Top*
G04 #@! TF.FilePolarity,Negative*
%FSLAX46Y46*%
G04 Gerber Fmt 4.6, Leading zero omitted, Abs format (unit mm)*
G04 Created by KiCad (PCBNEW 5.0.2+dfsg1-1~bpo9+1) date Thu 23 May 2019 03:08:07 PM PDT*
%MOMM*%
%LPD*%
G01*
G04 APERTURE LIST*
%ADD10C,0.100000*%
G04 APERTURE END LIST*
D10*
G36*
X138026630Y-145662299D02*
X138186855Y-145710903D01*
X138334520Y-145789831D01*
X138463949Y-145896051D01*
X138570169Y-146025480D01*
X138649097Y-146173145D01*
X138697701Y-146333370D01*
X138714112Y-146500000D01*
X138697701Y-146666630D01*
X138649097Y-146826855D01*
X138570169Y-146974520D01*
X138463949Y-147103949D01*
X138334520Y-147210169D01*
X138186855Y-147289097D01*
X138026630Y-147337701D01*
X137901752Y-147350000D01*
X137818248Y-147350000D01*
X137693370Y-147337701D01*
X137533145Y-147289097D01*
X137385480Y-147210169D01*
X137256051Y-147103949D01*
X137149831Y-146974520D01*
X137070903Y-146826855D01*
X137022299Y-146666630D01*
X137005888Y-146500000D01*
X137022299Y-146333370D01*
X137070903Y-146173145D01*
X137149831Y-146025480D01*
X137256051Y-145896051D01*
X137385480Y-145789831D01*
X137533145Y-145710903D01*
X137693370Y-145662299D01*
X137818248Y-145650000D01*
X137901752Y-145650000D01*
X138026630Y-145662299D01*
X138026630Y-145662299D01*
G37*
G36*
X135486630Y-145662299D02*
X135646855Y-145710903D01*
X135794520Y-145789831D01*
X135923949Y-145896051D01*
X136030169Y-146025480D01*
X136109097Y-146173145D01*
X136157701Y-146333370D01*
X136174112Y-146500000D01*
X136157701Y-146666630D01*
X136109097Y-146826855D01*
X136030169Y-146974520D01*
X135923949Y-147103949D01*
X135794520Y-147210169D01*
X135646855Y-147289097D01*
X135486630Y-147337701D01*
X135361752Y-147350000D01*
X135278248Y-147350000D01*
X135153370Y-147337701D01*
X134993145Y-147289097D01*
X134845480Y-147210169D01*
X134716051Y-147103949D01*
X134609831Y-146974520D01*
X134530903Y-146826855D01*
X134482299Y-146666630D01*
X134465888Y-146500000D01*
X134482299Y-146333370D01*
X134530903Y-146173145D01*
X134609831Y-146025480D01*
X134716051Y-145896051D01*
X134845480Y-145789831D01*
X134993145Y-145710903D01*
X135153370Y-145662299D01*
X135278248Y-145650000D01*
X135361752Y-145650000D01*
X135486630Y-145662299D01*
X135486630Y-145662299D01*
G37*
G36*
X115850000Y-147350000D02*
X114150000Y-147350000D01*
X114150000Y-145650000D01*
X115850000Y-145650000D01*
X115850000Y-147350000D01*
X115850000Y-147350000D01*
G37*
G36*
X117706630Y-145662299D02*
X117866855Y-145710903D01*
X118014520Y-145789831D01*
X118143949Y-145896051D01*
X118250169Y-146025480D01*
X118329097Y-146173145D01*
X118377701Y-146333370D01*
X118394112Y-146500000D01*
X118377701Y-146666630D01*
X118329097Y-146826855D01*
X118250169Y-146974520D01*
X118143949Y-147103949D01*
X118014520Y-147210169D01*
X117866855Y-147289097D01*
X117706630Y-147337701D01*
X117581752Y-147350000D01*
X117498248Y-147350000D01*
X117373370Y-147337701D01*
X117213145Y-147289097D01*
X117065480Y-147210169D01*
X116936051Y-147103949D01*
X116829831Y-146974520D01*
X116750903Y-146826855D01*
X116702299Y-146666630D01*
X116685888Y-146500000D01*
X116702299Y-146333370D01*
X116750903Y-146173145D01*
X116829831Y-146025480D01*
X116936051Y-145896051D01*
X117065480Y-145789831D01*
X117213145Y-145710903D01*
X117373370Y-145662299D01*
X117498248Y-145650000D01*
X117581752Y-145650000D01*
X117706630Y-145662299D01*
X117706630Y-145662299D01*
G37*
G36*
X120246630Y-145662299D02*
X120406855Y-145710903D01*
X120554520Y-145789831D01*
X120683949Y-145896051D01*
X120790169Y-146025480D01*
X120869097Y-146173145D01*
X120917701Y-146333370D01*
X120934112Y-146500000D01*
X120917701Y-146666630D01*
X120869097Y-146826855D01*
X120790169Y-146974520D01*
X120683949Y-147103949D01*
X120554520Y-147210169D01*
X120406855Y-147289097D01*
X120246630Y-147337701D01*
X120121752Y-147350000D01*
X120038248Y-147350000D01*
X119913370Y-147337701D01*
X119753145Y-147289097D01*
X119605480Y-147210169D01*
X119476051Y-147103949D01*
X119369831Y-146974520D01*
X119290903Y-146826855D01*
X119242299Y-146666630D01*
X119225888Y-146500000D01*
X119242299Y-146333370D01*
X119290903Y-146173145D01*
X119369831Y-146025480D01*
X119476051Y-145896051D01*
X119605480Y-145789831D01*
X119753145Y-145710903D01*
X119913370Y-145662299D01*
X120038248Y-145650000D01*
X120121752Y-145650000D01*
X120246630Y-145662299D01*
X120246630Y-145662299D01*
G37*
G36*
X122786630Y-145662299D02*
X122946855Y-145710903D01*
X123094520Y-145789831D01*
X123223949Y-145896051D01*
X123330169Y-146025480D01*
X123409097Y-146173145D01*
X123457701Y-146333370D01*
X123474112Y-146500000D01*
X123457701Y-146666630D01*
X123409097Y-146826855D01*
X123330169Y-146974520D01*
X123223949Y-147103949D01*
X123094520Y-147210169D01*
X122946855Y-147289097D01*
X122786630Y-147337701D01*
X122661752Y-147350000D01*
X122578248Y-147350000D01*
X122453370Y-147337701D01*
X122293145Y-147289097D01*
X122145480Y-147210169D01*
X122016051Y-147103949D01*
X121909831Y-146974520D01*
X121830903Y-146826855D01*
X121782299Y-146666630D01*
X121765888Y-146500000D01*
X121782299Y-146333370D01*
X121830903Y-146173145D01*
X121909831Y-146025480D01*
X122016051Y-145896051D01*
X122145480Y-145789831D01*
X122293145Y-145710903D01*
X122453370Y-145662299D01*
X122578248Y-145650000D01*
X122661752Y-145650000D01*
X122786630Y-145662299D01*
X122786630Y-145662299D01*
G37*
G36*
X127866630Y-145662299D02*
X128026855Y-145710903D01*
X128174520Y-145789831D01*
X128303949Y-145896051D01*
X128410169Y-146025480D01*
X128489097Y-146173145D01*
X128537701Y-146333370D01*
X128554112Y-146500000D01*
X128537701Y-146666630D01*
X128489097Y-146826855D01*
X128410169Y-146974520D01*
X128303949Y-147103949D01*
X128174520Y-147210169D01*
X128026855Y-147289097D01*
X127866630Y-147337701D01*
X127741752Y-147350000D01*
X127658248Y-147350000D01*
X127533370Y-147337701D01*
X127373145Y-147289097D01*
X127225480Y-147210169D01*
X127096051Y-147103949D01*
X126989831Y-146974520D01*
X126910903Y-146826855D01*
X126862299Y-146666630D01*
X126845888Y-146500000D01*
X126862299Y-146333370D01*
X126910903Y-146173145D01*
X126989831Y-146025480D01*
X127096051Y-145896051D01*
X127225480Y-145789831D01*
X127373145Y-145710903D01*
X127533370Y-145662299D01*
X127658248Y-145650000D01*
X127741752Y-145650000D01*
X127866630Y-145662299D01*
X127866630Y-145662299D01*
G37*
G36*
X125326630Y-145662299D02*
X125486855Y-145710903D01*
X125634520Y-145789831D01*
X125763949Y-145896051D01*
X125870169Y-146025480D01*
X125949097Y-146173145D01*
X125997701Y-146333370D01*
X126014112Y-146500000D01*
X125997701Y-146666630D01*
X125949097Y-146826855D01*
X125870169Y-146974520D01*
X125763949Y-147103949D01*
X125634520Y-147210169D01*
X125486855Y-147289097D01*
X125326630Y-147337701D01*
X125201752Y-147350000D01*
X125118248Y-147350000D01*
X124993370Y-147337701D01*
X124833145Y-147289097D01*
X124685480Y-147210169D01*
X124556051Y-147103949D01*
X124449831Y-146974520D01*
X124370903Y-146826855D01*
X124322299Y-146666630D01*
X124305888Y-146500000D01*
X124322299Y-146333370D01*
X124370903Y-146173145D01*
X124449831Y-146025480D01*
X124556051Y-145896051D01*
X124685480Y-145789831D01*
X124833145Y-145710903D01*
X124993370Y-145662299D01*
X125118248Y-145650000D01*
X125201752Y-145650000D01*
X125326630Y-145662299D01*
X125326630Y-145662299D01*
G37*
G36*
X132946630Y-145662299D02*
X133106855Y-145710903D01*
X133254520Y-145789831D01*
X133383949Y-145896051D01*
X133490169Y-146025480D01*
X133569097Y-146173145D01*
X133617701Y-146333370D01*
X133634112Y-146500000D01*
X133617701Y-146666630D01*
X133569097Y-146826855D01*
X133490169Y-146974520D01*
X133383949Y-147103949D01*
X133254520Y-147210169D01*
X133106855Y-147289097D01*
X132946630Y-147337701D01*
X132821752Y-147350000D01*
X132738248Y-147350000D01*
X132613370Y-147337701D01*
X132453145Y-147289097D01*
X132305480Y-147210169D01*
X132176051Y-147103949D01*
X132069831Y-146974520D01*
X131990903Y-146826855D01*
X131942299Y-146666630D01*
X131925888Y-146500000D01*
X131942299Y-146333370D01*
X131990903Y-146173145D01*
X132069831Y-146025480D01*
X132176051Y-145896051D01*
X132305480Y-145789831D01*
X132453145Y-145710903D01*
X132613370Y-145662299D01*
X132738248Y-145650000D01*
X132821752Y-145650000D01*
X132946630Y-145662299D01*
X132946630Y-145662299D01*
G37*
G36*
X130406630Y-145662299D02*
X130566855Y-145710903D01*
X130714520Y-145789831D01*
X130843949Y-145896051D01*
X130950169Y-146025480D01*
X131029097Y-146173145D01*
X131077701Y-146333370D01*
X131094112Y-146500000D01*
X131077701Y-146666630D01*
X131029097Y-146826855D01*
X130950169Y-146974520D01*
X130843949Y-147103949D01*
X130714520Y-147210169D01*
X130566855Y-147289097D01*
X130406630Y-147337701D01*
X130281752Y-147350000D01*
X130198248Y-147350000D01*
X130073370Y-147337701D01*
X129913145Y-147289097D01*
X129765480Y-147210169D01*
X129636051Y-147103949D01*
X129529831Y-146974520D01*
X129450903Y-146826855D01*
X129402299Y-146666630D01*
X129385888Y-146500000D01*
X129402299Y-146333370D01*
X129450903Y-146173145D01*
X129529831Y-146025480D01*
X129636051Y-145896051D01*
X129765480Y-145789831D01*
X129913145Y-145710903D01*
X130073370Y-145662299D01*
X130198248Y-145650000D01*
X130281752Y-145650000D01*
X130406630Y-145662299D01*
X130406630Y-145662299D01*
G37*
G36*
X123464712Y-139140565D02*
X123549295Y-139148896D01*
X123669727Y-139185429D01*
X123712088Y-139198279D01*
X123862112Y-139278468D01*
X123993612Y-139386388D01*
X124101532Y-139517888D01*
X124181721Y-139667912D01*
X124181722Y-139667916D01*
X124231104Y-139830705D01*
X124247778Y-140000000D01*
X124231104Y-140169295D01*
X124194571Y-140289727D01*
X124181721Y-140332088D01*
X124101532Y-140482112D01*
X123993612Y-140613612D01*
X123862112Y-140721532D01*
X123712088Y-140801721D01*
X123669727Y-140814571D01*
X123549295Y-140851104D01*
X123464712Y-140859435D01*
X123422421Y-140863600D01*
X123337579Y-140863600D01*
X123295288Y-140859435D01*
X123210705Y-140851104D01*
X123090273Y-140814571D01*
X123047912Y-140801721D01*
X122897888Y-140721532D01*
X122766388Y-140613612D01*
X122658468Y-140482112D01*
X122578279Y-140332088D01*
X122565429Y-140289727D01*
X122528896Y-140169295D01*
X122512222Y-140000000D01*
X122528896Y-139830705D01*
X122578278Y-139667916D01*
X122578279Y-139667912D01*
X122658468Y-139517888D01*
X122766388Y-139386388D01*
X122897888Y-139278468D01*
X123047912Y-139198279D01*
X123090273Y-139185429D01*
X123210705Y-139148896D01*
X123295288Y-139140565D01*
X123337579Y-139136400D01*
X123422421Y-139136400D01*
X123464712Y-139140565D01*
X123464712Y-139140565D01*
G37*
G36*
X131863600Y-140863600D02*
X130136400Y-140863600D01*
X130136400Y-139136400D01*
X131863600Y-139136400D01*
X131863600Y-140863600D01*
X131863600Y-140863600D01*
G37*
G36*
X120924712Y-139140565D02*
X121009295Y-139148896D01*
X121129727Y-139185429D01*
X121172088Y-139198279D01*
X121322112Y-139278468D01*
X121453612Y-139386388D01*
X121561532Y-139517888D01*
X121641721Y-139667912D01*
X121641722Y-139667916D01*
X121691104Y-139830705D01*
X121707778Y-140000000D01*
X121691104Y-140169295D01*
X121654571Y-140289727D01*
X121641721Y-140332088D01*
X121561532Y-140482112D01*
X121453612Y-140613612D01*
X121322112Y-140721532D01*
X121172088Y-140801721D01*
X121129727Y-140814571D01*
X121009295Y-140851104D01*
X120924712Y-140859435D01*
X120882421Y-140863600D01*
X120797579Y-140863600D01*
X120755288Y-140859435D01*
X120670705Y-140851104D01*
X120550273Y-140814571D01*
X120507912Y-140801721D01*
X120357888Y-140721532D01*
X120226388Y-140613612D01*
X120118468Y-140482112D01*
X120038279Y-140332088D01*
X120025429Y-140289727D01*
X119988896Y-140169295D01*
X119972222Y-140000000D01*
X119988896Y-139830705D01*
X120038278Y-139667916D01*
X120038279Y-139667912D01*
X120118468Y-139517888D01*
X120226388Y-139386388D01*
X120357888Y-139278468D01*
X120507912Y-139198279D01*
X120550273Y-139185429D01*
X120670705Y-139148896D01*
X120755288Y-139140565D01*
X120797579Y-139136400D01*
X120882421Y-139136400D01*
X120924712Y-139140565D01*
X120924712Y-139140565D01*
G37*
G36*
X126004712Y-139140565D02*
X126089295Y-139148896D01*
X126209727Y-139185429D01*
X126252088Y-139198279D01*
X126402112Y-139278468D01*
X126533612Y-139386388D01*
X126641532Y-139517888D01*
X126721721Y-139667912D01*
X126721722Y-139667916D01*
X126771104Y-139830705D01*
X126787778Y-140000000D01*
X126771104Y-140169295D01*
X126734571Y-140289727D01*
X126721721Y-140332088D01*
X126641532Y-140482112D01*
X126533612Y-140613612D01*
X126402112Y-140721532D01*
X126252088Y-140801721D01*
X126209727Y-140814571D01*
X126089295Y-140851104D01*
X126004712Y-140859435D01*
X125962421Y-140863600D01*
X125877579Y-140863600D01*
X125835288Y-140859435D01*
X125750705Y-140851104D01*
X125630273Y-140814571D01*
X125587912Y-140801721D01*
X125437888Y-140721532D01*
X125306388Y-140613612D01*
X125198468Y-140482112D01*
X125118279Y-140332088D01*
X125105429Y-140289727D01*
X125068896Y-140169295D01*
X125052222Y-140000000D01*
X125068896Y-139830705D01*
X125118278Y-139667916D01*
X125118279Y-139667912D01*
X125198468Y-139517888D01*
X125306388Y-139386388D01*
X125437888Y-139278468D01*
X125587912Y-139198279D01*
X125630273Y-139185429D01*
X125750705Y-139148896D01*
X125835288Y-139140565D01*
X125877579Y-139136400D01*
X125962421Y-139136400D01*
X126004712Y-139140565D01*
X126004712Y-139140565D01*
G37*
G36*
X128544712Y-139140565D02*
X128629295Y-139148896D01*
X128749727Y-139185429D01*
X128792088Y-139198279D01*
X128942112Y-139278468D01*
X129073612Y-139386388D01*
X129181532Y-139517888D01*
X129261721Y-139667912D01*
X129261722Y-139667916D01*
X129311104Y-139830705D01*
X129327778Y-140000000D01*
X129311104Y-140169295D01*
X129274571Y-140289727D01*
X129261721Y-140332088D01*
X129181532Y-140482112D01*
X129073612Y-140613612D01*
X128942112Y-140721532D01*
X128792088Y-140801721D01*
X128749727Y-140814571D01*
X128629295Y-140851104D01*
X128544712Y-140859435D01*
X128502421Y-140863600D01*
X128417579Y-140863600D01*
X128375288Y-140859435D01*
X128290705Y-140851104D01*
X128170273Y-140814571D01*
X128127912Y-140801721D01*
X127977888Y-140721532D01*
X127846388Y-140613612D01*
X127738468Y-140482112D01*
X127658279Y-140332088D01*
X127645429Y-140289727D01*
X127608896Y-140169295D01*
X127592222Y-140000000D01*
X127608896Y-139830705D01*
X127658278Y-139667916D01*
X127658279Y-139667912D01*
X127738468Y-139517888D01*
X127846388Y-139386388D01*
X127977888Y-139278468D01*
X128127912Y-139198279D01*
X128170273Y-139185429D01*
X128290705Y-139148896D01*
X128375288Y-139140565D01*
X128417579Y-139136400D01*
X128502421Y-139136400D01*
X128544712Y-139140565D01*
X128544712Y-139140565D01*
G37*
G36*
X118600000Y-139100000D02*
X117400000Y-139100000D01*
X117400000Y-138200000D01*
X118600000Y-138200000D01*
X118600000Y-139100000D01*
X118600000Y-139100000D01*
G37*
G36*
X134100000Y-138600000D02*
X132900000Y-138600000D01*
X132900000Y-137700000D01*
X134100000Y-137700000D01*
X134100000Y-138600000D01*
X134100000Y-138600000D01*
G37*
G36*
X123464712Y-136600565D02*
X123549295Y-136608896D01*
X123669727Y-136645429D01*
X123712088Y-136658279D01*
X123862112Y-136738468D01*
X123993612Y-136846388D01*
X124101532Y-136977888D01*
X124181721Y-137127912D01*
X124181722Y-137127916D01*
X124231104Y-137290705D01*
X124247778Y-137460000D01*
X124231104Y-137629295D01*
X124194571Y-137749727D01*
X124181721Y-137792088D01*
X124101532Y-137942112D01*
X123993612Y-138073612D01*
X123862112Y-138181532D01*
X123712088Y-138261721D01*
X123669727Y-138274571D01*
X123549295Y-138311104D01*
X123464712Y-138319435D01*
X123422421Y-138323600D01*
X123337579Y-138323600D01*
X123295288Y-138319435D01*
X123210705Y-138311104D01*
X123090273Y-138274571D01*
X123047912Y-138261721D01*
X122897888Y-138181532D01*
X122766388Y-138073612D01*
X122658468Y-137942112D01*
X122578279Y-137792088D01*
X122565429Y-137749727D01*
X122528896Y-137629295D01*
X122512222Y-137460000D01*
X122528896Y-137290705D01*
X122578278Y-137127916D01*
X122578279Y-137127912D01*
X122658468Y-136977888D01*
X122766388Y-136846388D01*
X122897888Y-136738468D01*
X123047912Y-136658279D01*
X123090273Y-136645429D01*
X123210705Y-136608896D01*
X123295288Y-136600565D01*
X123337579Y-136596400D01*
X123422421Y-136596400D01*
X123464712Y-136600565D01*
X123464712Y-136600565D01*
G37*
G36*
X126004712Y-136600565D02*
X126089295Y-136608896D01*
X126209727Y-136645429D01*
X126252088Y-136658279D01*
X126402112Y-136738468D01*
X126533612Y-136846388D01*
X126641532Y-136977888D01*
X126721721Y-137127912D01*
X126721722Y-137127916D01*
X126771104Y-137290705D01*
X126787778Y-137460000D01*
X126771104Y-137629295D01*
X126734571Y-137749727D01*
X126721721Y-137792088D01*
X126641532Y-137942112D01*
X126533612Y-138073612D01*
X126402112Y-138181532D01*
X126252088Y-138261721D01*
X126209727Y-138274571D01*
X126089295Y-138311104D01*
X126004712Y-138319435D01*
X125962421Y-138323600D01*
X125877579Y-138323600D01*
X125835288Y-138319435D01*
X125750705Y-138311104D01*
X125630273Y-138274571D01*
X125587912Y-138261721D01*
X125437888Y-138181532D01*
X125306388Y-138073612D01*
X125198468Y-137942112D01*
X125118279Y-137792088D01*
X125105429Y-137749727D01*
X125068896Y-137629295D01*
X125052222Y-137460000D01*
X125068896Y-137290705D01*
X125118278Y-137127916D01*
X125118279Y-137127912D01*
X125198468Y-136977888D01*
X125306388Y-136846388D01*
X125437888Y-136738468D01*
X125587912Y-136658279D01*
X125630273Y-136645429D01*
X125750705Y-136608896D01*
X125835288Y-136600565D01*
X125877579Y-136596400D01*
X125962421Y-136596400D01*
X126004712Y-136600565D01*
X126004712Y-136600565D01*
G37*
G36*
X128544712Y-136600565D02*
X128629295Y-136608896D01*
X128749727Y-136645429D01*
X128792088Y-136658279D01*
X128942112Y-136738468D01*
X129073612Y-136846388D01*
X129181532Y-136977888D01*
X129261721Y-137127912D01*
X129261722Y-137127916D01*
X129311104Y-137290705D01*
X129327778Y-137460000D01*
X129311104Y-137629295D01*
X129274571Y-137749727D01*
X129261721Y-137792088D01*
X129181532Y-137942112D01*
X129073612Y-138073612D01*
X128942112Y-138181532D01*
X128792088Y-138261721D01*
X128749727Y-138274571D01*
X128629295Y-138311104D01*
X128544712Y-138319435D01*
X128502421Y-138323600D01*
X128417579Y-138323600D01*
X128375288Y-138319435D01*
X128290705Y-138311104D01*
X128170273Y-138274571D01*
X128127912Y-138261721D01*
X127977888Y-138181532D01*
X127846388Y-138073612D01*
X127738468Y-137942112D01*
X127658279Y-137792088D01*
X127645429Y-137749727D01*
X127608896Y-137629295D01*
X127592222Y-137460000D01*
X127608896Y-137290705D01*
X127658278Y-137127916D01*
X127658279Y-137127912D01*
X127738468Y-136977888D01*
X127846388Y-136846388D01*
X127977888Y-136738468D01*
X128127912Y-136658279D01*
X128170273Y-136645429D01*
X128290705Y-136608896D01*
X128375288Y-136600565D01*
X128417579Y-136596400D01*
X128502421Y-136596400D01*
X128544712Y-136600565D01*
X128544712Y-136600565D01*
G37*
G36*
X131084712Y-136600565D02*
X131169295Y-136608896D01*
X131289727Y-136645429D01*
X131332088Y-136658279D01*
X131482112Y-136738468D01*
X131613612Y-136846388D01*
X131721532Y-136977888D01*
X131801721Y-137127912D01*
X131801722Y-137127916D01*
X131851104Y-137290705D01*
X131867778Y-137460000D01*
X131851104Y-137629295D01*
X131814571Y-137749727D01*
X131801721Y-137792088D01*
X131721532Y-137942112D01*
X131613612Y-138073612D01*
X131482112Y-138181532D01*
X131332088Y-138261721D01*
X131289727Y-138274571D01*
X131169295Y-138311104D01*
X131084712Y-138319435D01*
X131042421Y-138323600D01*
X130957579Y-138323600D01*
X130915288Y-138319435D01*
X130830705Y-138311104D01*
X130710273Y-138274571D01*
X130667912Y-138261721D01*
X130517888Y-138181532D01*
X130386388Y-138073612D01*
X130278468Y-137942112D01*
X130198279Y-137792088D01*
X130185429Y-137749727D01*
X130148896Y-137629295D01*
X130132222Y-137460000D01*
X130148896Y-137290705D01*
X130198278Y-137127916D01*
X130198279Y-137127912D01*
X130278468Y-136977888D01*
X130386388Y-136846388D01*
X130517888Y-136738468D01*
X130667912Y-136658279D01*
X130710273Y-136645429D01*
X130830705Y-136608896D01*
X130915288Y-136600565D01*
X130957579Y-136596400D01*
X131042421Y-136596400D01*
X131084712Y-136600565D01*
X131084712Y-136600565D01*
G37*
G36*
X120924712Y-136600565D02*
X121009295Y-136608896D01*
X121129727Y-136645429D01*
X121172088Y-136658279D01*
X121322112Y-136738468D01*
X121453612Y-136846388D01*
X121561532Y-136977888D01*
X121641721Y-137127912D01*
X121641722Y-137127916D01*
X121691104Y-137290705D01*
X121707778Y-137460000D01*
X121691104Y-137629295D01*
X121654571Y-137749727D01*
X121641721Y-137792088D01*
X121561532Y-137942112D01*
X121453612Y-138073612D01*
X121322112Y-138181532D01*
X121172088Y-138261721D01*
X121129727Y-138274571D01*
X121009295Y-138311104D01*
X120924712Y-138319435D01*
X120882421Y-138323600D01*
X120797579Y-138323600D01*
X120755288Y-138319435D01*
X120670705Y-138311104D01*
X120550273Y-138274571D01*
X120507912Y-138261721D01*
X120357888Y-138181532D01*
X120226388Y-138073612D01*
X120118468Y-137942112D01*
X120038279Y-137792088D01*
X120025429Y-137749727D01*
X119988896Y-137629295D01*
X119972222Y-137460000D01*
X119988896Y-137290705D01*
X120038278Y-137127916D01*
X120038279Y-137127912D01*
X120118468Y-136977888D01*
X120226388Y-136846388D01*
X120357888Y-136738468D01*
X120507912Y-136658279D01*
X120550273Y-136645429D01*
X120670705Y-136608896D01*
X120755288Y-136600565D01*
X120797579Y-136596400D01*
X120882421Y-136596400D01*
X120924712Y-136600565D01*
X120924712Y-136600565D01*
G37*
G36*
X113350000Y-136300000D02*
X111150000Y-136300000D01*
X111150000Y-134700000D01*
X113350000Y-134700000D01*
X113350000Y-136300000D01*
X113350000Y-136300000D01*
G37*
G36*
X116350000Y-136300000D02*
X114150000Y-136300000D01*
X114150000Y-134700000D01*
X116350000Y-134700000D01*
X116350000Y-136300000D01*
X116350000Y-136300000D01*
G37*
G36*
X140600000Y-135800000D02*
X138400000Y-135800000D01*
X138400000Y-134200000D01*
X140600000Y-134200000D01*
X140600000Y-135800000D01*
X140600000Y-135800000D01*
G37*
G36*
X137600000Y-135800000D02*
X135400000Y-135800000D01*
X135400000Y-134200000D01*
X137600000Y-134200000D01*
X137600000Y-135800000D01*
X137600000Y-135800000D01*
G37*
G36*
X118600000Y-135800000D02*
X117400000Y-135800000D01*
X117400000Y-134900000D01*
X118600000Y-134900000D01*
X118600000Y-135800000D01*
X118600000Y-135800000D01*
G37*
G36*
X134100000Y-135300000D02*
X132900000Y-135300000D01*
X132900000Y-134400000D01*
X134100000Y-134400000D01*
X134100000Y-135300000D01*
X134100000Y-135300000D01*
G37*
G36*
X130303992Y-132454076D02*
X130337883Y-132464357D01*
X130369111Y-132481048D01*
X130396485Y-132503515D01*
X130418952Y-132530889D01*
X130435643Y-132562117D01*
X130445924Y-132596008D01*
X130450000Y-132637391D01*
X130450000Y-133237609D01*
X130445924Y-133278992D01*
X130435643Y-133312883D01*
X130418952Y-133344111D01*
X130396485Y-133371485D01*
X130369111Y-133393952D01*
X130337883Y-133410643D01*
X130303992Y-133420924D01*
X130262609Y-133425000D01*
X129237391Y-133425000D01*
X129196008Y-133420924D01*
X129162117Y-133410643D01*
X129130889Y-133393952D01*
X129103515Y-133371485D01*
X129081048Y-133344111D01*
X129064357Y-133312883D01*
X129054076Y-133278992D01*
X129050000Y-133237609D01*
X129050000Y-132637391D01*
X129054076Y-132596008D01*
X129064357Y-132562117D01*
X129081048Y-132530889D01*
X129103515Y-132503515D01*
X129130889Y-132481048D01*
X129162117Y-132464357D01*
X129196008Y-132454076D01*
X129237391Y-132450000D01*
X130262609Y-132450000D01*
X130303992Y-132454076D01*
X130303992Y-132454076D01*
G37*
G36*
X130303992Y-130579076D02*
X130337883Y-130589357D01*
X130369111Y-130606048D01*
X130396485Y-130628515D01*
X130418952Y-130655889D01*
X130435643Y-130687117D01*
X130445924Y-130721008D01*
X130450000Y-130762391D01*
X130450000Y-131362609D01*
X130445924Y-131403992D01*
X130435643Y-131437883D01*
X130418952Y-131469111D01*
X130396485Y-131496485D01*
X130369111Y-131518952D01*
X130337883Y-131535643D01*
X130303992Y-131545924D01*
X130262609Y-131550000D01*
X129237391Y-131550000D01*
X129196008Y-131545924D01*
X129162117Y-131535643D01*
X129130889Y-131518952D01*
X129103515Y-131496485D01*
X129081048Y-131469111D01*
X129064357Y-131437883D01*
X129054076Y-131403992D01*
X129050000Y-131362609D01*
X129050000Y-130762391D01*
X129054076Y-130721008D01*
X129064357Y-130687117D01*
X129081048Y-130655889D01*
X129103515Y-130628515D01*
X129130889Y-130606048D01*
X129162117Y-130589357D01*
X129196008Y-130579076D01*
X129237391Y-130575000D01*
X130262609Y-130575000D01*
X130303992Y-130579076D01*
X130303992Y-130579076D01*
G37*
G36*
X134803992Y-130454076D02*
X134837883Y-130464357D01*
X134869111Y-130481048D01*
X134896485Y-130503515D01*
X134918952Y-130530889D01*
X134935643Y-130562117D01*
X134945924Y-130596008D01*
X134950000Y-130637391D01*
X134950000Y-131237609D01*
X134945924Y-131278992D01*
X134935643Y-131312883D01*
X134918952Y-131344111D01*
X134896485Y-131371485D01*
X134869111Y-131393952D01*
X134837883Y-131410643D01*
X134803992Y-131420924D01*
X134762609Y-131425000D01*
X133737391Y-131425000D01*
X133696008Y-131420924D01*
X133662117Y-131410643D01*
X133630889Y-131393952D01*
X133603515Y-131371485D01*
X133581048Y-131344111D01*
X133564357Y-131312883D01*
X133554076Y-131278992D01*
X133550000Y-131237609D01*
X133550000Y-130637391D01*
X133554076Y-130596008D01*
X133564357Y-130562117D01*
X133581048Y-130530889D01*
X133603515Y-130503515D01*
X133630889Y-130481048D01*
X133662117Y-130464357D01*
X133696008Y-130454076D01*
X133737391Y-130450000D01*
X134762609Y-130450000D01*
X134803992Y-130454076D01*
X134803992Y-130454076D01*
G37*
G36*
X128645000Y-129975000D02*
X128045000Y-129975000D01*
X128045000Y-128425000D01*
X128645000Y-128425000D01*
X128645000Y-129975000D01*
X128645000Y-129975000D01*
G37*
G36*
X132455000Y-129975000D02*
X131855000Y-129975000D01*
X131855000Y-128425000D01*
X132455000Y-128425000D01*
X132455000Y-129975000D01*
X132455000Y-129975000D01*
G37*
G36*
X131185000Y-129975000D02*
X130585000Y-129975000D01*
X130585000Y-128425000D01*
X131185000Y-128425000D01*
X131185000Y-129975000D01*
X131185000Y-129975000D01*
G37*
G36*
X129915000Y-129975000D02*
X129315000Y-129975000D01*
X129315000Y-128425000D01*
X129915000Y-128425000D01*
X129915000Y-129975000D01*
X129915000Y-129975000D01*
G37*
G36*
X115567027Y-127360852D02*
X115708401Y-127403738D01*
X115838694Y-127473380D01*
X115952896Y-127567104D01*
X116046620Y-127681306D01*
X116116262Y-127811599D01*
X116159148Y-127952973D01*
X116170000Y-128063161D01*
X116170000Y-128936839D01*
X116159148Y-129047027D01*
X116116262Y-129188401D01*
X116046620Y-129318694D01*
X115952899Y-129432893D01*
X115838690Y-129526622D01*
X115708400Y-129596262D01*
X115567026Y-129639148D01*
X115420000Y-129653628D01*
X115272973Y-129639148D01*
X115131599Y-129596262D01*
X115001306Y-129526620D01*
X114887107Y-129432899D01*
X114793378Y-129318690D01*
X114723738Y-129188400D01*
X114680852Y-129047026D01*
X114670000Y-128936838D01*
X114670000Y-128063162D01*
X114680853Y-127952973D01*
X114723739Y-127811599D01*
X114793381Y-127681306D01*
X114887105Y-127567104D01*
X115001307Y-127473380D01*
X115131600Y-127403738D01*
X115272974Y-127360852D01*
X115420000Y-127346372D01*
X115567027Y-127360852D01*
X115567027Y-127360852D01*
G37*
G36*
X118107027Y-127360852D02*
X118248401Y-127403738D01*
X118378694Y-127473380D01*
X118492896Y-127567104D01*
X118586620Y-127681306D01*
X118656262Y-127811599D01*
X118699148Y-127952973D01*
X118710000Y-128063161D01*
X118710000Y-128936839D01*
X118699148Y-129047027D01*
X118656262Y-129188401D01*
X118586620Y-129318694D01*
X118492899Y-129432893D01*
X118378690Y-129526622D01*
X118248400Y-129596262D01*
X118107026Y-129639148D01*
X117960000Y-129653628D01*
X117812973Y-129639148D01*
X117671599Y-129596262D01*
X117541306Y-129526620D01*
X117427107Y-129432899D01*
X117333378Y-129318690D01*
X117263738Y-129188400D01*
X117220852Y-129047026D01*
X117210000Y-128936838D01*
X117210000Y-128063162D01*
X117220853Y-127952973D01*
X117263739Y-127811599D01*
X117333381Y-127681306D01*
X117427105Y-127567104D01*
X117541307Y-127473380D01*
X117671600Y-127403738D01*
X117812974Y-127360852D01*
X117960000Y-127346372D01*
X118107027Y-127360852D01*
X118107027Y-127360852D01*
G37*
G36*
X121250000Y-129650000D02*
X119750000Y-129650000D01*
X119750000Y-127350000D01*
X121250000Y-127350000D01*
X121250000Y-129650000D01*
X121250000Y-129650000D01*
G37*
G36*
X134803992Y-128579076D02*
X134837883Y-128589357D01*
X134869111Y-128606048D01*
X134896485Y-128628515D01*
X134918952Y-128655889D01*
X134935643Y-128687117D01*
X134945924Y-128721008D01*
X134950000Y-128762391D01*
X134950000Y-129362609D01*
X134945924Y-129403992D01*
X134935643Y-129437883D01*
X134918952Y-129469111D01*
X134896485Y-129496485D01*
X134869111Y-129518952D01*
X134837883Y-129535643D01*
X134803992Y-129545924D01*
X134762609Y-129550000D01*
X133737391Y-129550000D01*
X133696008Y-129545924D01*
X133662117Y-129535643D01*
X133630889Y-129518952D01*
X133603515Y-129496485D01*
X133581048Y-129469111D01*
X133564357Y-129437883D01*
X133554076Y-129403992D01*
X133550000Y-129362609D01*
X133550000Y-128762391D01*
X133554076Y-128721008D01*
X133564357Y-128687117D01*
X133581048Y-128655889D01*
X133603515Y-128628515D01*
X133630889Y-128606048D01*
X133662117Y-128589357D01*
X133696008Y-128579076D01*
X133737391Y-128575000D01*
X134762609Y-128575000D01*
X134803992Y-128579076D01*
X134803992Y-128579076D01*
G37*
G36*
X119403992Y-125304076D02*
X119437883Y-125314357D01*
X119469111Y-125331048D01*
X119496485Y-125353515D01*
X119518952Y-125380889D01*
X119535643Y-125412117D01*
X119545924Y-125446008D01*
X119550000Y-125487391D01*
X119550000Y-126512609D01*
X119545924Y-126553992D01*
X119535643Y-126587883D01*
X119518952Y-126619111D01*
X119496485Y-126646485D01*
X119469111Y-126668952D01*
X119437883Y-126685643D01*
X119403992Y-126695924D01*
X119362609Y-126700000D01*
X118762391Y-126700000D01*
X118721008Y-126695924D01*
X118687117Y-126685643D01*
X118655889Y-126668952D01*
X118628515Y-126646485D01*
X118606048Y-126619111D01*
X118589357Y-126587883D01*
X118579076Y-126553992D01*
X118575000Y-126512609D01*
X118575000Y-125487391D01*
X118579076Y-125446008D01*
X118589357Y-125412117D01*
X118606048Y-125380889D01*
X118628515Y-125353515D01*
X118655889Y-125331048D01*
X118687117Y-125314357D01*
X118721008Y-125304076D01*
X118762391Y-125300000D01*
X119362609Y-125300000D01*
X119403992Y-125304076D01*
X119403992Y-125304076D01*
G37*
G36*
X115403992Y-125304076D02*
X115437883Y-125314357D01*
X115469111Y-125331048D01*
X115496485Y-125353515D01*
X115518952Y-125380889D01*
X115535643Y-125412117D01*
X115545924Y-125446008D01*
X115550000Y-125487391D01*
X115550000Y-126512609D01*
X115545924Y-126553992D01*
X115535643Y-126587883D01*
X115518952Y-126619111D01*
X115496485Y-126646485D01*
X115469111Y-126668952D01*
X115437883Y-126685643D01*
X115403992Y-126695924D01*
X115362609Y-126700000D01*
X114762391Y-126700000D01*
X114721008Y-126695924D01*
X114687117Y-126685643D01*
X114655889Y-126668952D01*
X114628515Y-126646485D01*
X114606048Y-126619111D01*
X114589357Y-126587883D01*
X114579076Y-126553992D01*
X114575000Y-126512609D01*
X114575000Y-125487391D01*
X114579076Y-125446008D01*
X114589357Y-125412117D01*
X114606048Y-125380889D01*
X114628515Y-125353515D01*
X114655889Y-125331048D01*
X114687117Y-125314357D01*
X114721008Y-125304076D01*
X114762391Y-125300000D01*
X115362609Y-125300000D01*
X115403992Y-125304076D01*
X115403992Y-125304076D01*
G37*
G36*
X121278992Y-125304076D02*
X121312883Y-125314357D01*
X121344111Y-125331048D01*
X121371485Y-125353515D01*
X121393952Y-125380889D01*
X121410643Y-125412117D01*
X121420924Y-125446008D01*
X121425000Y-125487391D01*
X121425000Y-126512609D01*
X121420924Y-126553992D01*
X121410643Y-126587883D01*
X121393952Y-126619111D01*
X121371485Y-126646485D01*
X121344111Y-126668952D01*
X121312883Y-126685643D01*
X121278992Y-126695924D01*
X121237609Y-126700000D01*
X120637391Y-126700000D01*
X120596008Y-126695924D01*
X120562117Y-126685643D01*
X120530889Y-126668952D01*
X120503515Y-126646485D01*
X120481048Y-126619111D01*
X120464357Y-126587883D01*
X120454076Y-126553992D01*
X120450000Y-126512609D01*
X120450000Y-125487391D01*
X120454076Y-125446008D01*
X120464357Y-125412117D01*
X120481048Y-125380889D01*
X120503515Y-125353515D01*
X120530889Y-125331048D01*
X120562117Y-125314357D01*
X120596008Y-125304076D01*
X120637391Y-125300000D01*
X121237609Y-125300000D01*
X121278992Y-125304076D01*
X121278992Y-125304076D01*
G37*
G36*
X117278992Y-125304076D02*
X117312883Y-125314357D01*
X117344111Y-125331048D01*
X117371485Y-125353515D01*
X117393952Y-125380889D01*
X117410643Y-125412117D01*
X117420924Y-125446008D01*
X117425000Y-125487391D01*
X117425000Y-126512609D01*
X117420924Y-126553992D01*
X117410643Y-126587883D01*
X117393952Y-126619111D01*
X117371485Y-126646485D01*
X117344111Y-126668952D01*
X117312883Y-126685643D01*
X117278992Y-126695924D01*
X117237609Y-126700000D01*
X116637391Y-126700000D01*
X116596008Y-126695924D01*
X116562117Y-126685643D01*
X116530889Y-126668952D01*
X116503515Y-126646485D01*
X116481048Y-126619111D01*
X116464357Y-126587883D01*
X116454076Y-126553992D01*
X116450000Y-126512609D01*
X116450000Y-125487391D01*
X116454076Y-125446008D01*
X116464357Y-125412117D01*
X116481048Y-125380889D01*
X116503515Y-125353515D01*
X116530889Y-125331048D01*
X116562117Y-125314357D01*
X116596008Y-125304076D01*
X116637391Y-125300000D01*
X117237609Y-125300000D01*
X117278992Y-125304076D01*
X117278992Y-125304076D01*
G37*
G36*
X132455000Y-124575000D02*
X131855000Y-124575000D01*
X131855000Y-123025000D01*
X132455000Y-123025000D01*
X132455000Y-124575000D01*
X132455000Y-124575000D01*
G37*
G36*
X131185000Y-124575000D02*
X130585000Y-124575000D01*
X130585000Y-123025000D01*
X131185000Y-123025000D01*
X131185000Y-124575000D01*
X131185000Y-124575000D01*
G37*
G36*
X129915000Y-124575000D02*
X129315000Y-124575000D01*
X129315000Y-123025000D01*
X129915000Y-123025000D01*
X129915000Y-124575000D01*
X129915000Y-124575000D01*
G37*
G36*
X128645000Y-124575000D02*
X128045000Y-124575000D01*
X128045000Y-123025000D01*
X128645000Y-123025000D01*
X128645000Y-124575000D01*
X128645000Y-124575000D01*
G37*
G36*
X126803992Y-122954076D02*
X126837883Y-122964357D01*
X126869111Y-122981048D01*
X126896485Y-123003515D01*
X126918952Y-123030889D01*
X126935643Y-123062117D01*
X126945924Y-123096008D01*
X126950000Y-123137391D01*
X126950000Y-123737609D01*
X126945924Y-123778992D01*
X126935643Y-123812883D01*
X126918952Y-123844111D01*
X126896485Y-123871485D01*
X126869111Y-123893952D01*
X126837883Y-123910643D01*
X126803992Y-123920924D01*
X126762609Y-123925000D01*
X125737391Y-123925000D01*
X125696008Y-123920924D01*
X125662117Y-123910643D01*
X125630889Y-123893952D01*
X125603515Y-123871485D01*
X125581048Y-123844111D01*
X125564357Y-123812883D01*
X125554076Y-123778992D01*
X125550000Y-123737609D01*
X125550000Y-123137391D01*
X125554076Y-123096008D01*
X125564357Y-123062117D01*
X125581048Y-123030889D01*
X125603515Y-123003515D01*
X125630889Y-122981048D01*
X125662117Y-122964357D01*
X125696008Y-122954076D01*
X125737391Y-122950000D01*
X126762609Y-122950000D01*
X126803992Y-122954076D01*
X126803992Y-122954076D01*
G37*
G36*
X131153992Y-120804076D02*
X131187883Y-120814357D01*
X131219111Y-120831048D01*
X131246485Y-120853515D01*
X131268952Y-120880889D01*
X131285643Y-120912117D01*
X131295924Y-120946008D01*
X131300000Y-120987391D01*
X131300000Y-122012609D01*
X131295924Y-122053992D01*
X131285643Y-122087883D01*
X131268952Y-122119111D01*
X131246485Y-122146485D01*
X131219111Y-122168952D01*
X131187883Y-122185643D01*
X131153992Y-122195924D01*
X131112609Y-122200000D01*
X130512391Y-122200000D01*
X130471008Y-122195924D01*
X130437117Y-122185643D01*
X130405889Y-122168952D01*
X130378515Y-122146485D01*
X130356048Y-122119111D01*
X130339357Y-122087883D01*
X130329076Y-122053992D01*
X130325000Y-122012609D01*
X130325000Y-120987391D01*
X130329076Y-120946008D01*
X130339357Y-120912117D01*
X130356048Y-120880889D01*
X130378515Y-120853515D01*
X130405889Y-120831048D01*
X130437117Y-120814357D01*
X130471008Y-120804076D01*
X130512391Y-120800000D01*
X131112609Y-120800000D01*
X131153992Y-120804076D01*
X131153992Y-120804076D01*
G37*
G36*
X133028992Y-120804076D02*
X133062883Y-120814357D01*
X133094111Y-120831048D01*
X133121485Y-120853515D01*
X133143952Y-120880889D01*
X133160643Y-120912117D01*
X133170924Y-120946008D01*
X133175000Y-120987391D01*
X133175000Y-122012609D01*
X133170924Y-122053992D01*
X133160643Y-122087883D01*
X133143952Y-122119111D01*
X133121485Y-122146485D01*
X133094111Y-122168952D01*
X133062883Y-122185643D01*
X133028992Y-122195924D01*
X132987609Y-122200000D01*
X132387391Y-122200000D01*
X132346008Y-122195924D01*
X132312117Y-122185643D01*
X132280889Y-122168952D01*
X132253515Y-122146485D01*
X132231048Y-122119111D01*
X132214357Y-122087883D01*
X132204076Y-122053992D01*
X132200000Y-122012609D01*
X132200000Y-120987391D01*
X132204076Y-120946008D01*
X132214357Y-120912117D01*
X132231048Y-120880889D01*
X132253515Y-120853515D01*
X132280889Y-120831048D01*
X132312117Y-120814357D01*
X132346008Y-120804076D01*
X132387391Y-120800000D01*
X132987609Y-120800000D01*
X133028992Y-120804076D01*
X133028992Y-120804076D01*
G37*
G36*
X126803992Y-121079076D02*
X126837883Y-121089357D01*
X126869111Y-121106048D01*
X126896485Y-121128515D01*
X126918952Y-121155889D01*
X126935643Y-121187117D01*
X126945924Y-121221008D01*
X126950000Y-121262391D01*
X126950000Y-121862609D01*
X126945924Y-121903992D01*
X126935643Y-121937883D01*
X126918952Y-121969111D01*
X126896485Y-121996485D01*
X126869111Y-122018952D01*
X126837883Y-122035643D01*
X126803992Y-122045924D01*
X126762609Y-122050000D01*
X125737391Y-122050000D01*
X125696008Y-122045924D01*
X125662117Y-122035643D01*
X125630889Y-122018952D01*
X125603515Y-121996485D01*
X125581048Y-121969111D01*
X125564357Y-121937883D01*
X125554076Y-121903992D01*
X125550000Y-121862609D01*
X125550000Y-121262391D01*
X125554076Y-121221008D01*
X125564357Y-121187117D01*
X125581048Y-121155889D01*
X125603515Y-121128515D01*
X125630889Y-121106048D01*
X125662117Y-121089357D01*
X125696008Y-121079076D01*
X125737391Y-121075000D01*
X126762609Y-121075000D01*
X126803992Y-121079076D01*
X126803992Y-121079076D01*
G37*
G36*
X115403992Y-119304076D02*
X115437883Y-119314357D01*
X115469111Y-119331048D01*
X115496485Y-119353515D01*
X115518952Y-119380889D01*
X115535643Y-119412117D01*
X115545924Y-119446008D01*
X115550000Y-119487391D01*
X115550000Y-120512609D01*
X115545924Y-120553992D01*
X115535643Y-120587883D01*
X115518952Y-120619111D01*
X115496485Y-120646485D01*
X115469111Y-120668952D01*
X115437883Y-120685643D01*
X115403992Y-120695924D01*
X115362609Y-120700000D01*
X114762391Y-120700000D01*
X114721008Y-120695924D01*
X114687117Y-120685643D01*
X114655889Y-120668952D01*
X114628515Y-120646485D01*
X114606048Y-120619111D01*
X114589357Y-120587883D01*
X114579076Y-120553992D01*
X114575000Y-120512609D01*
X114575000Y-119487391D01*
X114579076Y-119446008D01*
X114589357Y-119412117D01*
X114606048Y-119380889D01*
X114628515Y-119353515D01*
X114655889Y-119331048D01*
X114687117Y-119314357D01*
X114721008Y-119304076D01*
X114762391Y-119300000D01*
X115362609Y-119300000D01*
X115403992Y-119304076D01*
X115403992Y-119304076D01*
G37*
G36*
X117278992Y-119304076D02*
X117312883Y-119314357D01*
X117344111Y-119331048D01*
X117371485Y-119353515D01*
X117393952Y-119380889D01*
X117410643Y-119412117D01*
X117420924Y-119446008D01*
X117425000Y-119487391D01*
X117425000Y-120512609D01*
X117420924Y-120553992D01*
X117410643Y-120587883D01*
X117393952Y-120619111D01*
X117371485Y-120646485D01*
X117344111Y-120668952D01*
X117312883Y-120685643D01*
X117278992Y-120695924D01*
X117237609Y-120700000D01*
X116637391Y-120700000D01*
X116596008Y-120695924D01*
X116562117Y-120685643D01*
X116530889Y-120668952D01*
X116503515Y-120646485D01*
X116481048Y-120619111D01*
X116464357Y-120587883D01*
X116454076Y-120553992D01*
X116450000Y-120512609D01*
X116450000Y-119487391D01*
X116454076Y-119446008D01*
X116464357Y-119412117D01*
X116481048Y-119380889D01*
X116503515Y-119353515D01*
X116530889Y-119331048D01*
X116562117Y-119314357D01*
X116596008Y-119304076D01*
X116637391Y-119300000D01*
X117237609Y-119300000D01*
X117278992Y-119304076D01*
X117278992Y-119304076D01*
G37*
G36*
X137553992Y-119704076D02*
X137587883Y-119714357D01*
X137619111Y-119731048D01*
X137646485Y-119753515D01*
X137668952Y-119780889D01*
X137685643Y-119812117D01*
X137695924Y-119846008D01*
X137700000Y-119887391D01*
X137700000Y-120487609D01*
X137695924Y-120528992D01*
X137685643Y-120562883D01*
X137668952Y-120594111D01*
X137646485Y-120621485D01*
X137619111Y-120643952D01*
X137587883Y-120660643D01*
X137553992Y-120670924D01*
X137512609Y-120675000D01*
X136487391Y-120675000D01*
X136446008Y-120670924D01*
X136412117Y-120660643D01*
X136380889Y-120643952D01*
X136353515Y-120621485D01*
X136331048Y-120594111D01*
X136314357Y-120562883D01*
X136304076Y-120528992D01*
X136300000Y-120487609D01*
X136300000Y-119887391D01*
X136304076Y-119846008D01*
X136314357Y-119812117D01*
X136331048Y-119780889D01*
X136353515Y-119753515D01*
X136380889Y-119731048D01*
X136412117Y-119714357D01*
X136446008Y-119704076D01*
X136487391Y-119700000D01*
X137512609Y-119700000D01*
X137553992Y-119704076D01*
X137553992Y-119704076D01*
G37*
G36*
X112553992Y-118454076D02*
X112587883Y-118464357D01*
X112619111Y-118481048D01*
X112646485Y-118503515D01*
X112668952Y-118530889D01*
X112685643Y-118562117D01*
X112695924Y-118596008D01*
X112700000Y-118637391D01*
X112700000Y-119237609D01*
X112695924Y-119278992D01*
X112685643Y-119312883D01*
X112668952Y-119344111D01*
X112646485Y-119371485D01*
X112619111Y-119393952D01*
X112587883Y-119410643D01*
X112553992Y-119420924D01*
X112512609Y-119425000D01*
X111487391Y-119425000D01*
X111446008Y-119420924D01*
X111412117Y-119410643D01*
X111380889Y-119393952D01*
X111353515Y-119371485D01*
X111331048Y-119344111D01*
X111314357Y-119312883D01*
X111304076Y-119278992D01*
X111300000Y-119237609D01*
X111300000Y-118637391D01*
X111304076Y-118596008D01*
X111314357Y-118562117D01*
X111331048Y-118530889D01*
X111353515Y-118503515D01*
X111380889Y-118481048D01*
X111412117Y-118464357D01*
X111446008Y-118454076D01*
X111487391Y-118450000D01*
X112512609Y-118450000D01*
X112553992Y-118454076D01*
X112553992Y-118454076D01*
G37*
G36*
X137553992Y-117829076D02*
X137587883Y-117839357D01*
X137619111Y-117856048D01*
X137646485Y-117878515D01*
X137668952Y-117905889D01*
X137685643Y-117937117D01*
X137695924Y-117971008D01*
X137700000Y-118012391D01*
X137700000Y-118612609D01*
X137695924Y-118653992D01*
X137685643Y-118687883D01*
X137668952Y-118719111D01*
X137646485Y-118746485D01*
X137619111Y-118768952D01*
X137587883Y-118785643D01*
X137553992Y-118795924D01*
X137512609Y-118800000D01*
X136487391Y-118800000D01*
X136446008Y-118795924D01*
X136412117Y-118785643D01*
X136380889Y-118768952D01*
X136353515Y-118746485D01*
X136331048Y-118719111D01*
X136314357Y-118687883D01*
X136304076Y-118653992D01*
X136300000Y-118612609D01*
X136300000Y-118012391D01*
X136304076Y-117971008D01*
X136314357Y-117937117D01*
X136331048Y-117905889D01*
X136353515Y-117878515D01*
X136380889Y-117856048D01*
X136412117Y-117839357D01*
X136446008Y-117829076D01*
X136487391Y-117825000D01*
X137512609Y-117825000D01*
X137553992Y-117829076D01*
X137553992Y-117829076D01*
G37*
G36*
X116075000Y-118205000D02*
X114525000Y-118205000D01*
X114525000Y-117605000D01*
X116075000Y-117605000D01*
X116075000Y-118205000D01*
X116075000Y-118205000D01*
G37*
G36*
X121475000Y-118205000D02*
X119925000Y-118205000D01*
X119925000Y-117605000D01*
X121475000Y-117605000D01*
X121475000Y-118205000D01*
X121475000Y-118205000D01*
G37*
G36*
X123403992Y-116304076D02*
X123437883Y-116314357D01*
X123469111Y-116331048D01*
X123496485Y-116353515D01*
X123518952Y-116380889D01*
X123535643Y-116412117D01*
X123545924Y-116446008D01*
X123550000Y-116487391D01*
X123550000Y-117512609D01*
X123545924Y-117553992D01*
X123535643Y-117587883D01*
X123518952Y-117619111D01*
X123496485Y-117646485D01*
X123469111Y-117668952D01*
X123437883Y-117685643D01*
X123403992Y-117695924D01*
X123362609Y-117700000D01*
X122762391Y-117700000D01*
X122721008Y-117695924D01*
X122687117Y-117685643D01*
X122655889Y-117668952D01*
X122628515Y-117646485D01*
X122606048Y-117619111D01*
X122589357Y-117587883D01*
X122579076Y-117553992D01*
X122575000Y-117512609D01*
X122575000Y-116487391D01*
X122579076Y-116446008D01*
X122589357Y-116412117D01*
X122606048Y-116380889D01*
X122628515Y-116353515D01*
X122655889Y-116331048D01*
X122687117Y-116314357D01*
X122721008Y-116304076D01*
X122762391Y-116300000D01*
X123362609Y-116300000D01*
X123403992Y-116304076D01*
X123403992Y-116304076D01*
G37*
G36*
X125278992Y-116304076D02*
X125312883Y-116314357D01*
X125344111Y-116331048D01*
X125371485Y-116353515D01*
X125393952Y-116380889D01*
X125410643Y-116412117D01*
X125420924Y-116446008D01*
X125425000Y-116487391D01*
X125425000Y-117512609D01*
X125420924Y-117553992D01*
X125410643Y-117587883D01*
X125393952Y-117619111D01*
X125371485Y-117646485D01*
X125344111Y-117668952D01*
X125312883Y-117685643D01*
X125278992Y-117695924D01*
X125237609Y-117700000D01*
X124637391Y-117700000D01*
X124596008Y-117695924D01*
X124562117Y-117685643D01*
X124530889Y-117668952D01*
X124503515Y-117646485D01*
X124481048Y-117619111D01*
X124464357Y-117587883D01*
X124454076Y-117553992D01*
X124450000Y-117512609D01*
X124450000Y-116487391D01*
X124454076Y-116446008D01*
X124464357Y-116412117D01*
X124481048Y-116380889D01*
X124503515Y-116353515D01*
X124530889Y-116331048D01*
X124562117Y-116314357D01*
X124596008Y-116304076D01*
X124637391Y-116300000D01*
X125237609Y-116300000D01*
X125278992Y-116304076D01*
X125278992Y-116304076D01*
G37*
G36*
X112553992Y-116579076D02*
X112587883Y-116589357D01*
X112619111Y-116606048D01*
X112646485Y-116628515D01*
X112668952Y-116655889D01*
X112685643Y-116687117D01*
X112695924Y-116721008D01*
X112700000Y-116762391D01*
X112700000Y-117362609D01*
X112695924Y-117403992D01*
X112685643Y-117437883D01*
X112668952Y-117469111D01*
X112646485Y-117496485D01*
X112619111Y-117518952D01*
X112587883Y-117535643D01*
X112553992Y-117545924D01*
X112512609Y-117550000D01*
X111487391Y-117550000D01*
X111446008Y-117545924D01*
X111412117Y-117535643D01*
X111380889Y-117518952D01*
X111353515Y-117496485D01*
X111331048Y-117469111D01*
X111314357Y-117437883D01*
X111304076Y-117403992D01*
X111300000Y-117362609D01*
X111300000Y-116762391D01*
X111304076Y-116721008D01*
X111314357Y-116687117D01*
X111331048Y-116655889D01*
X111353515Y-116628515D01*
X111380889Y-116606048D01*
X111412117Y-116589357D01*
X111446008Y-116579076D01*
X111487391Y-116575000D01*
X112512609Y-116575000D01*
X112553992Y-116579076D01*
X112553992Y-116579076D01*
G37*
G36*
X130403992Y-115554076D02*
X130437883Y-115564357D01*
X130469111Y-115581048D01*
X130496485Y-115603515D01*
X130518952Y-115630889D01*
X130535643Y-115662117D01*
X130545924Y-115696008D01*
X130550000Y-115737391D01*
X130550000Y-116762609D01*
X130545924Y-116803992D01*
X130535643Y-116837883D01*
X130518952Y-116869111D01*
X130496485Y-116896485D01*
X130469111Y-116918952D01*
X130437883Y-116935643D01*
X130403992Y-116945924D01*
X130362609Y-116950000D01*
X129762391Y-116950000D01*
X129721008Y-116945924D01*
X129687117Y-116935643D01*
X129655889Y-116918952D01*
X129628515Y-116896485D01*
X129606048Y-116869111D01*
X129589357Y-116837883D01*
X129579076Y-116803992D01*
X129575000Y-116762609D01*
X129575000Y-115737391D01*
X129579076Y-115696008D01*
X129589357Y-115662117D01*
X129606048Y-115630889D01*
X129628515Y-115603515D01*
X129655889Y-115581048D01*
X129687117Y-115564357D01*
X129721008Y-115554076D01*
X129762391Y-115550000D01*
X130362609Y-115550000D01*
X130403992Y-115554076D01*
X130403992Y-115554076D01*
G37*
G36*
X132278992Y-115554076D02*
X132312883Y-115564357D01*
X132344111Y-115581048D01*
X132371485Y-115603515D01*
X132393952Y-115630889D01*
X132410643Y-115662117D01*
X132420924Y-115696008D01*
X132425000Y-115737391D01*
X132425000Y-116762609D01*
X132420924Y-116803992D01*
X132410643Y-116837883D01*
X132393952Y-116869111D01*
X132371485Y-116896485D01*
X132344111Y-116918952D01*
X132312883Y-116935643D01*
X132278992Y-116945924D01*
X132237609Y-116950000D01*
X131637391Y-116950000D01*
X131596008Y-116945924D01*
X131562117Y-116935643D01*
X131530889Y-116918952D01*
X131503515Y-116896485D01*
X131481048Y-116869111D01*
X131464357Y-116837883D01*
X131454076Y-116803992D01*
X131450000Y-116762609D01*
X131450000Y-115737391D01*
X131454076Y-115696008D01*
X131464357Y-115662117D01*
X131481048Y-115630889D01*
X131503515Y-115603515D01*
X131530889Y-115581048D01*
X131562117Y-115564357D01*
X131596008Y-115554076D01*
X131637391Y-115550000D01*
X132237609Y-115550000D01*
X132278992Y-115554076D01*
X132278992Y-115554076D01*
G37*
G36*
X135778992Y-115554076D02*
X135812883Y-115564357D01*
X135844111Y-115581048D01*
X135871485Y-115603515D01*
X135893952Y-115630889D01*
X135910643Y-115662117D01*
X135920924Y-115696008D01*
X135925000Y-115737391D01*
X135925000Y-116762609D01*
X135920924Y-116803992D01*
X135910643Y-116837883D01*
X135893952Y-116869111D01*
X135871485Y-116896485D01*
X135844111Y-116918952D01*
X135812883Y-116935643D01*
X135778992Y-116945924D01*
X135737609Y-116950000D01*
X135137391Y-116950000D01*
X135096008Y-116945924D01*
X135062117Y-116935643D01*
X135030889Y-116918952D01*
X135003515Y-116896485D01*
X134981048Y-116869111D01*
X134964357Y-116837883D01*
X134954076Y-116803992D01*
X134950000Y-116762609D01*
X134950000Y-115737391D01*
X134954076Y-115696008D01*
X134964357Y-115662117D01*
X134981048Y-115630889D01*
X135003515Y-115603515D01*
X135030889Y-115581048D01*
X135062117Y-115564357D01*
X135096008Y-115554076D01*
X135137391Y-115550000D01*
X135737609Y-115550000D01*
X135778992Y-115554076D01*
X135778992Y-115554076D01*
G37*
G36*
X133903992Y-115554076D02*
X133937883Y-115564357D01*
X133969111Y-115581048D01*
X133996485Y-115603515D01*
X134018952Y-115630889D01*
X134035643Y-115662117D01*
X134045924Y-115696008D01*
X134050000Y-115737391D01*
X134050000Y-116762609D01*
X134045924Y-116803992D01*
X134035643Y-116837883D01*
X134018952Y-116869111D01*
X133996485Y-116896485D01*
X133969111Y-116918952D01*
X133937883Y-116935643D01*
X133903992Y-116945924D01*
X133862609Y-116950000D01*
X133262391Y-116950000D01*
X133221008Y-116945924D01*
X133187117Y-116935643D01*
X133155889Y-116918952D01*
X133128515Y-116896485D01*
X133106048Y-116869111D01*
X133089357Y-116837883D01*
X133079076Y-116803992D01*
X133075000Y-116762609D01*
X133075000Y-115737391D01*
X133079076Y-115696008D01*
X133089357Y-115662117D01*
X133106048Y-115630889D01*
X133128515Y-115603515D01*
X133155889Y-115581048D01*
X133187117Y-115564357D01*
X133221008Y-115554076D01*
X133262391Y-115550000D01*
X133862609Y-115550000D01*
X133903992Y-115554076D01*
X133903992Y-115554076D01*
G37*
G36*
X121475000Y-116935000D02*
X119925000Y-116935000D01*
X119925000Y-116335000D01*
X121475000Y-116335000D01*
X121475000Y-116935000D01*
X121475000Y-116935000D01*
G37*
G36*
X116075000Y-116935000D02*
X114525000Y-116935000D01*
X114525000Y-116335000D01*
X116075000Y-116335000D01*
X116075000Y-116935000D01*
X116075000Y-116935000D01*
G37*
G36*
X139053992Y-115704076D02*
X139087883Y-115714357D01*
X139119111Y-115731048D01*
X139146485Y-115753515D01*
X139168952Y-115780889D01*
X139185643Y-115812117D01*
X139195924Y-115846008D01*
X139200000Y-115887391D01*
X139200000Y-116487609D01*
X139195924Y-116528992D01*
X139185643Y-116562883D01*
X139168952Y-116594111D01*
X139146485Y-116621485D01*
X139119111Y-116643952D01*
X139087883Y-116660643D01*
X139053992Y-116670924D01*
X139012609Y-116675000D01*
X137987391Y-116675000D01*
X137946008Y-116670924D01*
X137912117Y-116660643D01*
X137880889Y-116643952D01*
X137853515Y-116621485D01*
X137831048Y-116594111D01*
X137814357Y-116562883D01*
X137804076Y-116528992D01*
X137800000Y-116487609D01*
X137800000Y-115887391D01*
X137804076Y-115846008D01*
X137814357Y-115812117D01*
X137831048Y-115780889D01*
X137853515Y-115753515D01*
X137880889Y-115731048D01*
X137912117Y-115714357D01*
X137946008Y-115704076D01*
X137987391Y-115700000D01*
X139012609Y-115700000D01*
X139053992Y-115704076D01*
X139053992Y-115704076D01*
G37*
G36*
X125278992Y-114304076D02*
X125312883Y-114314357D01*
X125344111Y-114331048D01*
X125371485Y-114353515D01*
X125393952Y-114380889D01*
X125410643Y-114412117D01*
X125420924Y-114446008D01*
X125425000Y-114487391D01*
X125425000Y-115512609D01*
X125420924Y-115553992D01*
X125410643Y-115587883D01*
X125393952Y-115619111D01*
X125371485Y-115646485D01*
X125344111Y-115668952D01*
X125312883Y-115685643D01*
X125278992Y-115695924D01*
X125237609Y-115700000D01*
X124637391Y-115700000D01*
X124596008Y-115695924D01*
X124562117Y-115685643D01*
X124530889Y-115668952D01*
X124503515Y-115646485D01*
X124481048Y-115619111D01*
X124464357Y-115587883D01*
X124454076Y-115553992D01*
X124450000Y-115512609D01*
X124450000Y-114487391D01*
X124454076Y-114446008D01*
X124464357Y-114412117D01*
X124481048Y-114380889D01*
X124503515Y-114353515D01*
X124530889Y-114331048D01*
X124562117Y-114314357D01*
X124596008Y-114304076D01*
X124637391Y-114300000D01*
X125237609Y-114300000D01*
X125278992Y-114304076D01*
X125278992Y-114304076D01*
G37*
G36*
X123403992Y-114304076D02*
X123437883Y-114314357D01*
X123469111Y-114331048D01*
X123496485Y-114353515D01*
X123518952Y-114380889D01*
X123535643Y-114412117D01*
X123545924Y-114446008D01*
X123550000Y-114487391D01*
X123550000Y-115512609D01*
X123545924Y-115553992D01*
X123535643Y-115587883D01*
X123518952Y-115619111D01*
X123496485Y-115646485D01*
X123469111Y-115668952D01*
X123437883Y-115685643D01*
X123403992Y-115695924D01*
X123362609Y-115700000D01*
X122762391Y-115700000D01*
X122721008Y-115695924D01*
X122687117Y-115685643D01*
X122655889Y-115668952D01*
X122628515Y-115646485D01*
X122606048Y-115619111D01*
X122589357Y-115587883D01*
X122579076Y-115553992D01*
X122575000Y-115512609D01*
X122575000Y-114487391D01*
X122579076Y-114446008D01*
X122589357Y-114412117D01*
X122606048Y-114380889D01*
X122628515Y-114353515D01*
X122655889Y-114331048D01*
X122687117Y-114314357D01*
X122721008Y-114304076D01*
X122762391Y-114300000D01*
X123362609Y-114300000D01*
X123403992Y-114304076D01*
X123403992Y-114304076D01*
G37*
G36*
X121475000Y-115665000D02*
X119925000Y-115665000D01*
X119925000Y-115065000D01*
X121475000Y-115065000D01*
X121475000Y-115665000D01*
X121475000Y-115665000D01*
G37*
G36*
X116075000Y-115665000D02*
X114525000Y-115665000D01*
X114525000Y-115065000D01*
X116075000Y-115065000D01*
X116075000Y-115665000D01*
X116075000Y-115665000D01*
G37*
G36*
X112553992Y-114454076D02*
X112587883Y-114464357D01*
X112619111Y-114481048D01*
X112646485Y-114503515D01*
X112668952Y-114530889D01*
X112685643Y-114562117D01*
X112695924Y-114596008D01*
X112700000Y-114637391D01*
X112700000Y-115237609D01*
X112695924Y-115278992D01*
X112685643Y-115312883D01*
X112668952Y-115344111D01*
X112646485Y-115371485D01*
X112619111Y-115393952D01*
X112587883Y-115410643D01*
X112553992Y-115420924D01*
X112512609Y-115425000D01*
X111487391Y-115425000D01*
X111446008Y-115420924D01*
X111412117Y-115410643D01*
X111380889Y-115393952D01*
X111353515Y-115371485D01*
X111331048Y-115344111D01*
X111314357Y-115312883D01*
X111304076Y-115278992D01*
X111300000Y-115237609D01*
X111300000Y-114637391D01*
X111304076Y-114596008D01*
X111314357Y-114562117D01*
X111331048Y-114530889D01*
X111353515Y-114503515D01*
X111380889Y-114481048D01*
X111412117Y-114464357D01*
X111446008Y-114454076D01*
X111487391Y-114450000D01*
X112512609Y-114450000D01*
X112553992Y-114454076D01*
X112553992Y-114454076D01*
G37*
G36*
X139053992Y-113829076D02*
X139087883Y-113839357D01*
X139119111Y-113856048D01*
X139146485Y-113878515D01*
X139168952Y-113905889D01*
X139185643Y-113937117D01*
X139195924Y-113971008D01*
X139200000Y-114012391D01*
X139200000Y-114612609D01*
X139195924Y-114653992D01*
X139185643Y-114687883D01*
X139168952Y-114719111D01*
X139146485Y-114746485D01*
X139119111Y-114768952D01*
X139087883Y-114785643D01*
X139053992Y-114795924D01*
X139012609Y-114800000D01*
X137987391Y-114800000D01*
X137946008Y-114795924D01*
X137912117Y-114785643D01*
X137880889Y-114768952D01*
X137853515Y-114746485D01*
X137831048Y-114719111D01*
X137814357Y-114687883D01*
X137804076Y-114653992D01*
X137800000Y-114612609D01*
X137800000Y-114012391D01*
X137804076Y-113971008D01*
X137814357Y-113937117D01*
X137831048Y-113905889D01*
X137853515Y-113878515D01*
X137880889Y-113856048D01*
X137912117Y-113839357D01*
X137946008Y-113829076D01*
X137987391Y-113825000D01*
X139012609Y-113825000D01*
X139053992Y-113829076D01*
X139053992Y-113829076D01*
G37*
G36*
X136705000Y-114725000D02*
X136105000Y-114725000D01*
X136105000Y-113175000D01*
X136705000Y-113175000D01*
X136705000Y-114725000D01*
X136705000Y-114725000D01*
G37*
G36*
X134165000Y-114725000D02*
X133565000Y-114725000D01*
X133565000Y-113175000D01*
X134165000Y-113175000D01*
X134165000Y-114725000D01*
X134165000Y-114725000D01*
G37*
G36*
X132895000Y-114725000D02*
X132295000Y-114725000D01*
X132295000Y-113175000D01*
X132895000Y-113175000D01*
X132895000Y-114725000D01*
X132895000Y-114725000D01*
G37*
G36*
X135435000Y-114725000D02*
X134835000Y-114725000D01*
X134835000Y-113175000D01*
X135435000Y-113175000D01*
X135435000Y-114725000D01*
X135435000Y-114725000D01*
G37*
G36*
X116075000Y-114395000D02*
X114525000Y-114395000D01*
X114525000Y-113795000D01*
X116075000Y-113795000D01*
X116075000Y-114395000D01*
X116075000Y-114395000D01*
G37*
G36*
X121475000Y-114395000D02*
X119925000Y-114395000D01*
X119925000Y-113795000D01*
X121475000Y-113795000D01*
X121475000Y-114395000D01*
X121475000Y-114395000D01*
G37*
G36*
X112553992Y-112579076D02*
X112587883Y-112589357D01*
X112619111Y-112606048D01*
X112646485Y-112628515D01*
X112668952Y-112655889D01*
X112685643Y-112687117D01*
X112695924Y-112721008D01*
X112700000Y-112762391D01*
X112700000Y-113362609D01*
X112695924Y-113403992D01*
X112685643Y-113437883D01*
X112668952Y-113469111D01*
X112646485Y-113496485D01*
X112619111Y-113518952D01*
X112587883Y-113535643D01*
X112553992Y-113545924D01*
X112512609Y-113550000D01*
X111487391Y-113550000D01*
X111446008Y-113545924D01*
X111412117Y-113535643D01*
X111380889Y-113518952D01*
X111353515Y-113496485D01*
X111331048Y-113469111D01*
X111314357Y-113437883D01*
X111304076Y-113403992D01*
X111300000Y-113362609D01*
X111300000Y-112762391D01*
X111304076Y-112721008D01*
X111314357Y-112687117D01*
X111331048Y-112655889D01*
X111353515Y-112628515D01*
X111380889Y-112606048D01*
X111412117Y-112589357D01*
X111446008Y-112579076D01*
X111487391Y-112575000D01*
X112512609Y-112575000D01*
X112553992Y-112579076D01*
X112553992Y-112579076D01*
G37*
G36*
X121403992Y-111304076D02*
X121437883Y-111314357D01*
X121469111Y-111331048D01*
X121496485Y-111353515D01*
X121518952Y-111380889D01*
X121535643Y-111412117D01*
X121545924Y-111446008D01*
X121550000Y-111487391D01*
X121550000Y-112512609D01*
X121545924Y-112553992D01*
X121535643Y-112587883D01*
X121518952Y-112619111D01*
X121496485Y-112646485D01*
X121469111Y-112668952D01*
X121437883Y-112685643D01*
X121403992Y-112695924D01*
X121362609Y-112700000D01*
X120762391Y-112700000D01*
X120721008Y-112695924D01*
X120687117Y-112685643D01*
X120655889Y-112668952D01*
X120628515Y-112646485D01*
X120606048Y-112619111D01*
X120589357Y-112587883D01*
X120579076Y-112553992D01*
X120575000Y-112512609D01*
X120575000Y-111487391D01*
X120579076Y-111446008D01*
X120589357Y-111412117D01*
X120606048Y-111380889D01*
X120628515Y-111353515D01*
X120655889Y-111331048D01*
X120687117Y-111314357D01*
X120721008Y-111304076D01*
X120762391Y-111300000D01*
X121362609Y-111300000D01*
X121403992Y-111304076D01*
X121403992Y-111304076D01*
G37*
G36*
X117278992Y-111304076D02*
X117312883Y-111314357D01*
X117344111Y-111331048D01*
X117371485Y-111353515D01*
X117393952Y-111380889D01*
X117410643Y-111412117D01*
X117420924Y-111446008D01*
X117425000Y-111487391D01*
X117425000Y-112512609D01*
X117420924Y-112553992D01*
X117410643Y-112587883D01*
X117393952Y-112619111D01*
X117371485Y-112646485D01*
X117344111Y-112668952D01*
X117312883Y-112685643D01*
X117278992Y-112695924D01*
X117237609Y-112700000D01*
X116637391Y-112700000D01*
X116596008Y-112695924D01*
X116562117Y-112685643D01*
X116530889Y-112668952D01*
X116503515Y-112646485D01*
X116481048Y-112619111D01*
X116464357Y-112587883D01*
X116454076Y-112553992D01*
X116450000Y-112512609D01*
X116450000Y-111487391D01*
X116454076Y-111446008D01*
X116464357Y-111412117D01*
X116481048Y-111380889D01*
X116503515Y-111353515D01*
X116530889Y-111331048D01*
X116562117Y-111314357D01*
X116596008Y-111304076D01*
X116637391Y-111300000D01*
X117237609Y-111300000D01*
X117278992Y-111304076D01*
X117278992Y-111304076D01*
G37*
G36*
X115403992Y-111304076D02*
X115437883Y-111314357D01*
X115469111Y-111331048D01*
X115496485Y-111353515D01*
X115518952Y-111380889D01*
X115535643Y-111412117D01*
X115545924Y-111446008D01*
X115550000Y-111487391D01*
X115550000Y-112512609D01*
X115545924Y-112553992D01*
X115535643Y-112587883D01*
X115518952Y-112619111D01*
X115496485Y-112646485D01*
X115469111Y-112668952D01*
X115437883Y-112685643D01*
X115403992Y-112695924D01*
X115362609Y-112700000D01*
X114762391Y-112700000D01*
X114721008Y-112695924D01*
X114687117Y-112685643D01*
X114655889Y-112668952D01*
X114628515Y-112646485D01*
X114606048Y-112619111D01*
X114589357Y-112587883D01*
X114579076Y-112553992D01*
X114575000Y-112512609D01*
X114575000Y-111487391D01*
X114579076Y-111446008D01*
X114589357Y-111412117D01*
X114606048Y-111380889D01*
X114628515Y-111353515D01*
X114655889Y-111331048D01*
X114687117Y-111314357D01*
X114721008Y-111304076D01*
X114762391Y-111300000D01*
X115362609Y-111300000D01*
X115403992Y-111304076D01*
X115403992Y-111304076D01*
G37*
G36*
X123278992Y-111304076D02*
X123312883Y-111314357D01*
X123344111Y-111331048D01*
X123371485Y-111353515D01*
X123393952Y-111380889D01*
X123410643Y-111412117D01*
X123420924Y-111446008D01*
X123425000Y-111487391D01*
X123425000Y-112512609D01*
X123420924Y-112553992D01*
X123410643Y-112587883D01*
X123393952Y-112619111D01*
X123371485Y-112646485D01*
X123344111Y-112668952D01*
X123312883Y-112685643D01*
X123278992Y-112695924D01*
X123237609Y-112700000D01*
X122637391Y-112700000D01*
X122596008Y-112695924D01*
X122562117Y-112685643D01*
X122530889Y-112668952D01*
X122503515Y-112646485D01*
X122481048Y-112619111D01*
X122464357Y-112587883D01*
X122454076Y-112553992D01*
X122450000Y-112512609D01*
X122450000Y-111487391D01*
X122454076Y-111446008D01*
X122464357Y-111412117D01*
X122481048Y-111380889D01*
X122503515Y-111353515D01*
X122530889Y-111331048D01*
X122562117Y-111314357D01*
X122596008Y-111304076D01*
X122637391Y-111300000D01*
X123237609Y-111300000D01*
X123278992Y-111304076D01*
X123278992Y-111304076D01*
G37*
G36*
X136705000Y-109325000D02*
X136105000Y-109325000D01*
X136105000Y-107775000D01*
X136705000Y-107775000D01*
X136705000Y-109325000D01*
X136705000Y-109325000D01*
G37*
G36*
X135435000Y-109325000D02*
X134835000Y-109325000D01*
X134835000Y-107775000D01*
X135435000Y-107775000D01*
X135435000Y-109325000D01*
X135435000Y-109325000D01*
G37*
G36*
X134165000Y-109325000D02*
X133565000Y-109325000D01*
X133565000Y-107775000D01*
X134165000Y-107775000D01*
X134165000Y-109325000D01*
X134165000Y-109325000D01*
G37*
G36*
X132895000Y-109325000D02*
X132295000Y-109325000D01*
X132295000Y-107775000D01*
X132895000Y-107775000D01*
X132895000Y-109325000D01*
X132895000Y-109325000D01*
G37*
G36*
X131053992Y-107704076D02*
X131087883Y-107714357D01*
X131119111Y-107731048D01*
X131146485Y-107753515D01*
X131168952Y-107780889D01*
X131185643Y-107812117D01*
X131195924Y-107846008D01*
X131200000Y-107887391D01*
X131200000Y-108487609D01*
X131195924Y-108528992D01*
X131185643Y-108562883D01*
X131168952Y-108594111D01*
X131146485Y-108621485D01*
X131119111Y-108643952D01*
X131087883Y-108660643D01*
X131053992Y-108670924D01*
X131012609Y-108675000D01*
X129987391Y-108675000D01*
X129946008Y-108670924D01*
X129912117Y-108660643D01*
X129880889Y-108643952D01*
X129853515Y-108621485D01*
X129831048Y-108594111D01*
X129814357Y-108562883D01*
X129804076Y-108528992D01*
X129800000Y-108487609D01*
X129800000Y-107887391D01*
X129804076Y-107846008D01*
X129814357Y-107812117D01*
X129831048Y-107780889D01*
X129853515Y-107753515D01*
X129880889Y-107731048D01*
X129912117Y-107714357D01*
X129946008Y-107704076D01*
X129987391Y-107700000D01*
X131012609Y-107700000D01*
X131053992Y-107704076D01*
X131053992Y-107704076D01*
G37*
G36*
X113403992Y-106304076D02*
X113437883Y-106314357D01*
X113469111Y-106331048D01*
X113496485Y-106353515D01*
X113518952Y-106380889D01*
X113535643Y-106412117D01*
X113545924Y-106446008D01*
X113550000Y-106487391D01*
X113550000Y-107512609D01*
X113545924Y-107553992D01*
X113535643Y-107587883D01*
X113518952Y-107619111D01*
X113496485Y-107646485D01*
X113469111Y-107668952D01*
X113437883Y-107685643D01*
X113403992Y-107695924D01*
X113362609Y-107700000D01*
X112762391Y-107700000D01*
X112721008Y-107695924D01*
X112687117Y-107685643D01*
X112655889Y-107668952D01*
X112628515Y-107646485D01*
X112606048Y-107619111D01*
X112589357Y-107587883D01*
X112579076Y-107553992D01*
X112575000Y-107512609D01*
X112575000Y-106487391D01*
X112579076Y-106446008D01*
X112589357Y-106412117D01*
X112606048Y-106380889D01*
X112628515Y-106353515D01*
X112655889Y-106331048D01*
X112687117Y-106314357D01*
X112721008Y-106304076D01*
X112762391Y-106300000D01*
X113362609Y-106300000D01*
X113403992Y-106304076D01*
X113403992Y-106304076D01*
G37*
G36*
X115278992Y-106304076D02*
X115312883Y-106314357D01*
X115344111Y-106331048D01*
X115371485Y-106353515D01*
X115393952Y-106380889D01*
X115410643Y-106412117D01*
X115420924Y-106446008D01*
X115425000Y-106487391D01*
X115425000Y-107512609D01*
X115420924Y-107553992D01*
X115410643Y-107587883D01*
X115393952Y-107619111D01*
X115371485Y-107646485D01*
X115344111Y-107668952D01*
X115312883Y-107685643D01*
X115278992Y-107695924D01*
X115237609Y-107700000D01*
X114637391Y-107700000D01*
X114596008Y-107695924D01*
X114562117Y-107685643D01*
X114530889Y-107668952D01*
X114503515Y-107646485D01*
X114481048Y-107619111D01*
X114464357Y-107587883D01*
X114454076Y-107553992D01*
X114450000Y-107512609D01*
X114450000Y-106487391D01*
X114454076Y-106446008D01*
X114464357Y-106412117D01*
X114481048Y-106380889D01*
X114503515Y-106353515D01*
X114530889Y-106331048D01*
X114562117Y-106314357D01*
X114596008Y-106304076D01*
X114637391Y-106300000D01*
X115237609Y-106300000D01*
X115278992Y-106304076D01*
X115278992Y-106304076D01*
G37*
G36*
X140053992Y-106704076D02*
X140087883Y-106714357D01*
X140119111Y-106731048D01*
X140146485Y-106753515D01*
X140168952Y-106780889D01*
X140185643Y-106812117D01*
X140195924Y-106846008D01*
X140200000Y-106887391D01*
X140200000Y-107487609D01*
X140195924Y-107528992D01*
X140185643Y-107562883D01*
X140168952Y-107594111D01*
X140146485Y-107621485D01*
X140119111Y-107643952D01*
X140087883Y-107660643D01*
X140053992Y-107670924D01*
X140012609Y-107675000D01*
X138987391Y-107675000D01*
X138946008Y-107670924D01*
X138912117Y-107660643D01*
X138880889Y-107643952D01*
X138853515Y-107621485D01*
X138831048Y-107594111D01*
X138814357Y-107562883D01*
X138804076Y-107528992D01*
X138800000Y-107487609D01*
X138800000Y-106887391D01*
X138804076Y-106846008D01*
X138814357Y-106812117D01*
X138831048Y-106780889D01*
X138853515Y-106753515D01*
X138880889Y-106731048D01*
X138912117Y-106714357D01*
X138946008Y-106704076D01*
X138987391Y-106700000D01*
X140012609Y-106700000D01*
X140053992Y-106704076D01*
X140053992Y-106704076D01*
G37*
G36*
X123553992Y-106454076D02*
X123587883Y-106464357D01*
X123619111Y-106481048D01*
X123646485Y-106503515D01*
X123668952Y-106530889D01*
X123685643Y-106562117D01*
X123695924Y-106596008D01*
X123700000Y-106637391D01*
X123700000Y-107237609D01*
X123695924Y-107278992D01*
X123685643Y-107312883D01*
X123668952Y-107344111D01*
X123646485Y-107371485D01*
X123619111Y-107393952D01*
X123587883Y-107410643D01*
X123553992Y-107420924D01*
X123512609Y-107425000D01*
X122487391Y-107425000D01*
X122446008Y-107420924D01*
X122412117Y-107410643D01*
X122380889Y-107393952D01*
X122353515Y-107371485D01*
X122331048Y-107344111D01*
X122314357Y-107312883D01*
X122304076Y-107278992D01*
X122300000Y-107237609D01*
X122300000Y-106637391D01*
X122304076Y-106596008D01*
X122314357Y-106562117D01*
X122331048Y-106530889D01*
X122353515Y-106503515D01*
X122380889Y-106481048D01*
X122412117Y-106464357D01*
X122446008Y-106454076D01*
X122487391Y-106450000D01*
X123512609Y-106450000D01*
X123553992Y-106454076D01*
X123553992Y-106454076D01*
G37*
G36*
X135903992Y-105554076D02*
X135937883Y-105564357D01*
X135969111Y-105581048D01*
X135996485Y-105603515D01*
X136018952Y-105630889D01*
X136035643Y-105662117D01*
X136045924Y-105696008D01*
X136050000Y-105737391D01*
X136050000Y-106762609D01*
X136045924Y-106803992D01*
X136035643Y-106837883D01*
X136018952Y-106869111D01*
X135996485Y-106896485D01*
X135969111Y-106918952D01*
X135937883Y-106935643D01*
X135903992Y-106945924D01*
X135862609Y-106950000D01*
X135262391Y-106950000D01*
X135221008Y-106945924D01*
X135187117Y-106935643D01*
X135155889Y-106918952D01*
X135128515Y-106896485D01*
X135106048Y-106869111D01*
X135089357Y-106837883D01*
X135079076Y-106803992D01*
X135075000Y-106762609D01*
X135075000Y-105737391D01*
X135079076Y-105696008D01*
X135089357Y-105662117D01*
X135106048Y-105630889D01*
X135128515Y-105603515D01*
X135155889Y-105581048D01*
X135187117Y-105564357D01*
X135221008Y-105554076D01*
X135262391Y-105550000D01*
X135862609Y-105550000D01*
X135903992Y-105554076D01*
X135903992Y-105554076D01*
G37*
G36*
X137778992Y-105554076D02*
X137812883Y-105564357D01*
X137844111Y-105581048D01*
X137871485Y-105603515D01*
X137893952Y-105630889D01*
X137910643Y-105662117D01*
X137920924Y-105696008D01*
X137925000Y-105737391D01*
X137925000Y-106762609D01*
X137920924Y-106803992D01*
X137910643Y-106837883D01*
X137893952Y-106869111D01*
X137871485Y-106896485D01*
X137844111Y-106918952D01*
X137812883Y-106935643D01*
X137778992Y-106945924D01*
X137737609Y-106950000D01*
X137137391Y-106950000D01*
X137096008Y-106945924D01*
X137062117Y-106935643D01*
X137030889Y-106918952D01*
X137003515Y-106896485D01*
X136981048Y-106869111D01*
X136964357Y-106837883D01*
X136954076Y-106803992D01*
X136950000Y-106762609D01*
X136950000Y-105737391D01*
X136954076Y-105696008D01*
X136964357Y-105662117D01*
X136981048Y-105630889D01*
X137003515Y-105603515D01*
X137030889Y-105581048D01*
X137062117Y-105564357D01*
X137096008Y-105554076D01*
X137137391Y-105550000D01*
X137737609Y-105550000D01*
X137778992Y-105554076D01*
X137778992Y-105554076D01*
G37*
G36*
X131053992Y-105829076D02*
X131087883Y-105839357D01*
X131119111Y-105856048D01*
X131146485Y-105878515D01*
X131168952Y-105905889D01*
X131185643Y-105937117D01*
X131195924Y-105971008D01*
X131200000Y-106012391D01*
X131200000Y-106612609D01*
X131195924Y-106653992D01*
X131185643Y-106687883D01*
X131168952Y-106719111D01*
X131146485Y-106746485D01*
X131119111Y-106768952D01*
X131087883Y-106785643D01*
X131053992Y-106795924D01*
X131012609Y-106800000D01*
X129987391Y-106800000D01*
X129946008Y-106795924D01*
X129912117Y-106785643D01*
X129880889Y-106768952D01*
X129853515Y-106746485D01*
X129831048Y-106719111D01*
X129814357Y-106687883D01*
X129804076Y-106653992D01*
X129800000Y-106612609D01*
X129800000Y-106012391D01*
X129804076Y-105971008D01*
X129814357Y-105937117D01*
X129831048Y-105905889D01*
X129853515Y-105878515D01*
X129880889Y-105856048D01*
X129912117Y-105839357D01*
X129946008Y-105829076D01*
X129987391Y-105825000D01*
X131012609Y-105825000D01*
X131053992Y-105829076D01*
X131053992Y-105829076D01*
G37*
G36*
X140053992Y-104829076D02*
X140087883Y-104839357D01*
X140119111Y-104856048D01*
X140146485Y-104878515D01*
X140168952Y-104905889D01*
X140185643Y-104937117D01*
X140195924Y-104971008D01*
X140200000Y-105012391D01*
X140200000Y-105612609D01*
X140195924Y-105653992D01*
X140185643Y-105687883D01*
X140168952Y-105719111D01*
X140146485Y-105746485D01*
X140119111Y-105768952D01*
X140087883Y-105785643D01*
X140053992Y-105795924D01*
X140012609Y-105800000D01*
X138987391Y-105800000D01*
X138946008Y-105795924D01*
X138912117Y-105785643D01*
X138880889Y-105768952D01*
X138853515Y-105746485D01*
X138831048Y-105719111D01*
X138814357Y-105687883D01*
X138804076Y-105653992D01*
X138800000Y-105612609D01*
X138800000Y-105012391D01*
X138804076Y-104971008D01*
X138814357Y-104937117D01*
X138831048Y-104905889D01*
X138853515Y-104878515D01*
X138880889Y-104856048D01*
X138912117Y-104839357D01*
X138946008Y-104829076D01*
X138987391Y-104825000D01*
X140012609Y-104825000D01*
X140053992Y-104829076D01*
X140053992Y-104829076D01*
G37*
G36*
X123553992Y-104579076D02*
X123587883Y-104589357D01*
X123619111Y-104606048D01*
X123646485Y-104628515D01*
X123668952Y-104655889D01*
X123685643Y-104687117D01*
X123695924Y-104721008D01*
X123700000Y-104762391D01*
X123700000Y-105362609D01*
X123695924Y-105403992D01*
X123685643Y-105437883D01*
X123668952Y-105469111D01*
X123646485Y-105496485D01*
X123619111Y-105518952D01*
X123587883Y-105535643D01*
X123553992Y-105545924D01*
X123512609Y-105550000D01*
X122487391Y-105550000D01*
X122446008Y-105545924D01*
X122412117Y-105535643D01*
X122380889Y-105518952D01*
X122353515Y-105496485D01*
X122331048Y-105469111D01*
X122314357Y-105437883D01*
X122304076Y-105403992D01*
X122300000Y-105362609D01*
X122300000Y-104762391D01*
X122304076Y-104721008D01*
X122314357Y-104687117D01*
X122331048Y-104655889D01*
X122353515Y-104628515D01*
X122380889Y-104606048D01*
X122412117Y-104589357D01*
X122446008Y-104579076D01*
X122487391Y-104575000D01*
X123512609Y-104575000D01*
X123553992Y-104579076D01*
X123553992Y-104579076D01*
G37*
G36*
X112053992Y-104454076D02*
X112087883Y-104464357D01*
X112119111Y-104481048D01*
X112146485Y-104503515D01*
X112168952Y-104530889D01*
X112185643Y-104562117D01*
X112195924Y-104596008D01*
X112200000Y-104637391D01*
X112200000Y-105237609D01*
X112195924Y-105278992D01*
X112185643Y-105312883D01*
X112168952Y-105344111D01*
X112146485Y-105371485D01*
X112119111Y-105393952D01*
X112087883Y-105410643D01*
X112053992Y-105420924D01*
X112012609Y-105425000D01*
X110987391Y-105425000D01*
X110946008Y-105420924D01*
X110912117Y-105410643D01*
X110880889Y-105393952D01*
X110853515Y-105371485D01*
X110831048Y-105344111D01*
X110814357Y-105312883D01*
X110804076Y-105278992D01*
X110800000Y-105237609D01*
X110800000Y-104637391D01*
X110804076Y-104596008D01*
X110814357Y-104562117D01*
X110831048Y-104530889D01*
X110853515Y-104503515D01*
X110880889Y-104481048D01*
X110912117Y-104464357D01*
X110946008Y-104454076D01*
X110987391Y-104450000D01*
X112012609Y-104450000D01*
X112053992Y-104454076D01*
X112053992Y-104454076D01*
G37*
G36*
X120475000Y-105205000D02*
X118925000Y-105205000D01*
X118925000Y-104605000D01*
X120475000Y-104605000D01*
X120475000Y-105205000D01*
X120475000Y-105205000D01*
G37*
G36*
X115075000Y-105205000D02*
X113525000Y-105205000D01*
X113525000Y-104605000D01*
X115075000Y-104605000D01*
X115075000Y-105205000D01*
X115075000Y-105205000D01*
G37*
G36*
X137778992Y-103554076D02*
X137812883Y-103564357D01*
X137844111Y-103581048D01*
X137871485Y-103603515D01*
X137893952Y-103630889D01*
X137910643Y-103662117D01*
X137920924Y-103696008D01*
X137925000Y-103737391D01*
X137925000Y-104762609D01*
X137920924Y-104803992D01*
X137910643Y-104837883D01*
X137893952Y-104869111D01*
X137871485Y-104896485D01*
X137844111Y-104918952D01*
X137812883Y-104935643D01*
X137778992Y-104945924D01*
X137737609Y-104950000D01*
X137137391Y-104950000D01*
X137096008Y-104945924D01*
X137062117Y-104935643D01*
X137030889Y-104918952D01*
X137003515Y-104896485D01*
X136981048Y-104869111D01*
X136964357Y-104837883D01*
X136954076Y-104803992D01*
X136950000Y-104762609D01*
X136950000Y-103737391D01*
X136954076Y-103696008D01*
X136964357Y-103662117D01*
X136981048Y-103630889D01*
X137003515Y-103603515D01*
X137030889Y-103581048D01*
X137062117Y-103564357D01*
X137096008Y-103554076D01*
X137137391Y-103550000D01*
X137737609Y-103550000D01*
X137778992Y-103554076D01*
X137778992Y-103554076D01*
G37*
G36*
X135903992Y-103554076D02*
X135937883Y-103564357D01*
X135969111Y-103581048D01*
X135996485Y-103603515D01*
X136018952Y-103630889D01*
X136035643Y-103662117D01*
X136045924Y-103696008D01*
X136050000Y-103737391D01*
X136050000Y-104762609D01*
X136045924Y-104803992D01*
X136035643Y-104837883D01*
X136018952Y-104869111D01*
X135996485Y-104896485D01*
X135969111Y-104918952D01*
X135937883Y-104935643D01*
X135903992Y-104945924D01*
X135862609Y-104950000D01*
X135262391Y-104950000D01*
X135221008Y-104945924D01*
X135187117Y-104935643D01*
X135155889Y-104918952D01*
X135128515Y-104896485D01*
X135106048Y-104869111D01*
X135089357Y-104837883D01*
X135079076Y-104803992D01*
X135075000Y-104762609D01*
X135075000Y-103737391D01*
X135079076Y-103696008D01*
X135089357Y-103662117D01*
X135106048Y-103630889D01*
X135128515Y-103603515D01*
X135155889Y-103581048D01*
X135187117Y-103564357D01*
X135221008Y-103554076D01*
X135262391Y-103550000D01*
X135862609Y-103550000D01*
X135903992Y-103554076D01*
X135903992Y-103554076D01*
G37*
G36*
X120475000Y-103935000D02*
X118925000Y-103935000D01*
X118925000Y-103335000D01*
X120475000Y-103335000D01*
X120475000Y-103935000D01*
X120475000Y-103935000D01*
G37*
G36*
X115075000Y-103935000D02*
X113525000Y-103935000D01*
X113525000Y-103335000D01*
X115075000Y-103335000D01*
X115075000Y-103935000D01*
X115075000Y-103935000D01*
G37*
G36*
X112053992Y-102579076D02*
X112087883Y-102589357D01*
X112119111Y-102606048D01*
X112146485Y-102628515D01*
X112168952Y-102655889D01*
X112185643Y-102687117D01*
X112195924Y-102721008D01*
X112200000Y-102762391D01*
X112200000Y-103362609D01*
X112195924Y-103403992D01*
X112185643Y-103437883D01*
X112168952Y-103469111D01*
X112146485Y-103496485D01*
X112119111Y-103518952D01*
X112087883Y-103535643D01*
X112053992Y-103545924D01*
X112012609Y-103550000D01*
X110987391Y-103550000D01*
X110946008Y-103545924D01*
X110912117Y-103535643D01*
X110880889Y-103518952D01*
X110853515Y-103496485D01*
X110831048Y-103469111D01*
X110814357Y-103437883D01*
X110804076Y-103403992D01*
X110800000Y-103362609D01*
X110800000Y-102762391D01*
X110804076Y-102721008D01*
X110814357Y-102687117D01*
X110831048Y-102655889D01*
X110853515Y-102628515D01*
X110880889Y-102606048D01*
X110912117Y-102589357D01*
X110946008Y-102579076D01*
X110987391Y-102575000D01*
X112012609Y-102575000D01*
X112053992Y-102579076D01*
X112053992Y-102579076D01*
G37*
G36*
X123553992Y-102454076D02*
X123587883Y-102464357D01*
X123619111Y-102481048D01*
X123646485Y-102503515D01*
X123668952Y-102530889D01*
X123685643Y-102562117D01*
X123695924Y-102596008D01*
X123700000Y-102637391D01*
X123700000Y-103237609D01*
X123695924Y-103278992D01*
X123685643Y-103312883D01*
X123668952Y-103344111D01*
X123646485Y-103371485D01*
X123619111Y-103393952D01*
X123587883Y-103410643D01*
X123553992Y-103420924D01*
X123512609Y-103425000D01*
X122487391Y-103425000D01*
X122446008Y-103420924D01*
X122412117Y-103410643D01*
X122380889Y-103393952D01*
X122353515Y-103371485D01*
X122331048Y-103344111D01*
X122314357Y-103312883D01*
X122304076Y-103278992D01*
X122300000Y-103237609D01*
X122300000Y-102637391D01*
X122304076Y-102596008D01*
X122314357Y-102562117D01*
X122331048Y-102530889D01*
X122353515Y-102503515D01*
X122380889Y-102481048D01*
X122412117Y-102464357D01*
X122446008Y-102454076D01*
X122487391Y-102450000D01*
X123512609Y-102450000D01*
X123553992Y-102454076D01*
X123553992Y-102454076D01*
G37*
G36*
X140933195Y-101507522D02*
X140982267Y-101517283D01*
X141092355Y-101562883D01*
X141120942Y-101574724D01*
X141245750Y-101658118D01*
X141351882Y-101764250D01*
X141351884Y-101764253D01*
X141435276Y-101889058D01*
X141492717Y-102027733D01*
X141522000Y-102174950D01*
X141522000Y-102325050D01*
X141492717Y-102472267D01*
X141455500Y-102562117D01*
X141435276Y-102610942D01*
X141351882Y-102735750D01*
X141245750Y-102841882D01*
X141245747Y-102841884D01*
X141120942Y-102925276D01*
X140982267Y-102982717D01*
X140933195Y-102992478D01*
X140835052Y-103012000D01*
X140684948Y-103012000D01*
X140586805Y-102992478D01*
X140537733Y-102982717D01*
X140399058Y-102925276D01*
X140274253Y-102841884D01*
X140274250Y-102841882D01*
X140168118Y-102735750D01*
X140084724Y-102610942D01*
X140064500Y-102562117D01*
X140027283Y-102472267D01*
X139998000Y-102325050D01*
X139998000Y-102174950D01*
X140027283Y-102027733D01*
X140084724Y-101889058D01*
X140168116Y-101764253D01*
X140168118Y-101764250D01*
X140274250Y-101658118D01*
X140399058Y-101574724D01*
X140427645Y-101562883D01*
X140537733Y-101517283D01*
X140586805Y-101507522D01*
X140684948Y-101488000D01*
X140835052Y-101488000D01*
X140933195Y-101507522D01*
X140933195Y-101507522D01*
G37*
G36*
X134433195Y-101507522D02*
X134482267Y-101517283D01*
X134592355Y-101562883D01*
X134620942Y-101574724D01*
X134745750Y-101658118D01*
X134851882Y-101764250D01*
X134851884Y-101764253D01*
X134935276Y-101889058D01*
X134992717Y-102027733D01*
X135022000Y-102174950D01*
X135022000Y-102325050D01*
X134992717Y-102472267D01*
X134955500Y-102562117D01*
X134935276Y-102610942D01*
X134851882Y-102735750D01*
X134745750Y-102841882D01*
X134745747Y-102841884D01*
X134620942Y-102925276D01*
X134482267Y-102982717D01*
X134433195Y-102992478D01*
X134335052Y-103012000D01*
X134184948Y-103012000D01*
X134086805Y-102992478D01*
X134037733Y-102982717D01*
X133899058Y-102925276D01*
X133774253Y-102841884D01*
X133774250Y-102841882D01*
X133668118Y-102735750D01*
X133584724Y-102610942D01*
X133564500Y-102562117D01*
X133527283Y-102472267D01*
X133498000Y-102325050D01*
X133498000Y-102174950D01*
X133527283Y-102027733D01*
X133584724Y-101889058D01*
X133668116Y-101764253D01*
X133668118Y-101764250D01*
X133774250Y-101658118D01*
X133899058Y-101574724D01*
X133927645Y-101562883D01*
X134037733Y-101517283D01*
X134086805Y-101507522D01*
X134184948Y-101488000D01*
X134335052Y-101488000D01*
X134433195Y-101507522D01*
X134433195Y-101507522D01*
G37*
G36*
X120475000Y-102665000D02*
X118925000Y-102665000D01*
X118925000Y-102065000D01*
X120475000Y-102065000D01*
X120475000Y-102665000D01*
X120475000Y-102665000D01*
G37*
G36*
X115075000Y-102665000D02*
X113525000Y-102665000D01*
X113525000Y-102065000D01*
X115075000Y-102065000D01*
X115075000Y-102665000D01*
X115075000Y-102665000D01*
G37*
G36*
X112053992Y-100704076D02*
X112087883Y-100714357D01*
X112119111Y-100731048D01*
X112146485Y-100753515D01*
X112168952Y-100780889D01*
X112185643Y-100812117D01*
X112195924Y-100846008D01*
X112200000Y-100887391D01*
X112200000Y-101487609D01*
X112195924Y-101528992D01*
X112185643Y-101562883D01*
X112168952Y-101594111D01*
X112146485Y-101621485D01*
X112119111Y-101643952D01*
X112087883Y-101660643D01*
X112053992Y-101670924D01*
X112012609Y-101675000D01*
X110987391Y-101675000D01*
X110946008Y-101670924D01*
X110912117Y-101660643D01*
X110880889Y-101643952D01*
X110853515Y-101621485D01*
X110831048Y-101594111D01*
X110814357Y-101562883D01*
X110804076Y-101528992D01*
X110800000Y-101487609D01*
X110800000Y-100887391D01*
X110804076Y-100846008D01*
X110814357Y-100812117D01*
X110831048Y-100780889D01*
X110853515Y-100753515D01*
X110880889Y-100731048D01*
X110912117Y-100714357D01*
X110946008Y-100704076D01*
X110987391Y-100700000D01*
X112012609Y-100700000D01*
X112053992Y-100704076D01*
X112053992Y-100704076D01*
G37*
G36*
X123553992Y-100579076D02*
X123587883Y-100589357D01*
X123619111Y-100606048D01*
X123646485Y-100628515D01*
X123668952Y-100655889D01*
X123685643Y-100687117D01*
X123695924Y-100721008D01*
X123700000Y-100762391D01*
X123700000Y-101362609D01*
X123695924Y-101403992D01*
X123685643Y-101437883D01*
X123668952Y-101469111D01*
X123646485Y-101496485D01*
X123619111Y-101518952D01*
X123587883Y-101535643D01*
X123553992Y-101545924D01*
X123512609Y-101550000D01*
X122487391Y-101550000D01*
X122446008Y-101545924D01*
X122412117Y-101535643D01*
X122380889Y-101518952D01*
X122353515Y-101496485D01*
X122331048Y-101469111D01*
X122314357Y-101437883D01*
X122304076Y-101403992D01*
X122300000Y-101362609D01*
X122300000Y-100762391D01*
X122304076Y-100721008D01*
X122314357Y-100687117D01*
X122331048Y-100655889D01*
X122353515Y-100628515D01*
X122380889Y-100606048D01*
X122412117Y-100589357D01*
X122446008Y-100579076D01*
X122487391Y-100575000D01*
X123512609Y-100575000D01*
X123553992Y-100579076D01*
X123553992Y-100579076D01*
G37*
G36*
X115075000Y-101395000D02*
X113525000Y-101395000D01*
X113525000Y-100795000D01*
X115075000Y-100795000D01*
X115075000Y-101395000D01*
X115075000Y-101395000D01*
G37*
G36*
X120475000Y-101395000D02*
X118925000Y-101395000D01*
X118925000Y-100795000D01*
X120475000Y-100795000D01*
X120475000Y-101395000D01*
X120475000Y-101395000D01*
G37*
G36*
X131053992Y-98954076D02*
X131087883Y-98964357D01*
X131119111Y-98981048D01*
X131146485Y-99003515D01*
X131168952Y-99030889D01*
X131185643Y-99062117D01*
X131195924Y-99096008D01*
X131200000Y-99137391D01*
X131200000Y-99737609D01*
X131195924Y-99778992D01*
X131185643Y-99812883D01*
X131168952Y-99844111D01*
X131146485Y-99871485D01*
X131119111Y-99893952D01*
X131087883Y-99910643D01*
X131053992Y-99920924D01*
X131012609Y-99925000D01*
X129987391Y-99925000D01*
X129946008Y-99920924D01*
X129912117Y-99910643D01*
X129880889Y-99893952D01*
X129853515Y-99871485D01*
X129831048Y-99844111D01*
X129814357Y-99812883D01*
X129804076Y-99778992D01*
X129800000Y-99737609D01*
X129800000Y-99137391D01*
X129804076Y-99096008D01*
X129814357Y-99062117D01*
X129831048Y-99030889D01*
X129853515Y-99003515D01*
X129880889Y-98981048D01*
X129912117Y-98964357D01*
X129946008Y-98954076D01*
X129987391Y-98950000D01*
X131012609Y-98950000D01*
X131053992Y-98954076D01*
X131053992Y-98954076D01*
G37*
G36*
X112053992Y-98829076D02*
X112087883Y-98839357D01*
X112119111Y-98856048D01*
X112146485Y-98878515D01*
X112168952Y-98905889D01*
X112185643Y-98937117D01*
X112195924Y-98971008D01*
X112200000Y-99012391D01*
X112200000Y-99612609D01*
X112195924Y-99653992D01*
X112185643Y-99687883D01*
X112168952Y-99719111D01*
X112146485Y-99746485D01*
X112119111Y-99768952D01*
X112087883Y-99785643D01*
X112053992Y-99795924D01*
X112012609Y-99800000D01*
X110987391Y-99800000D01*
X110946008Y-99795924D01*
X110912117Y-99785643D01*
X110880889Y-99768952D01*
X110853515Y-99746485D01*
X110831048Y-99719111D01*
X110814357Y-99687883D01*
X110804076Y-99653992D01*
X110800000Y-99612609D01*
X110800000Y-99012391D01*
X110804076Y-98971008D01*
X110814357Y-98937117D01*
X110831048Y-98905889D01*
X110853515Y-98878515D01*
X110880889Y-98856048D01*
X110912117Y-98839357D01*
X110946008Y-98829076D01*
X110987391Y-98825000D01*
X112012609Y-98825000D01*
X112053992Y-98829076D01*
X112053992Y-98829076D01*
G37*
G36*
X120403992Y-98304076D02*
X120437883Y-98314357D01*
X120469111Y-98331048D01*
X120496485Y-98353515D01*
X120518952Y-98380889D01*
X120535643Y-98412117D01*
X120545924Y-98446008D01*
X120550000Y-98487391D01*
X120550000Y-99512609D01*
X120545924Y-99553992D01*
X120535643Y-99587883D01*
X120518952Y-99619111D01*
X120496485Y-99646485D01*
X120469111Y-99668952D01*
X120437883Y-99685643D01*
X120403992Y-99695924D01*
X120362609Y-99700000D01*
X119762391Y-99700000D01*
X119721008Y-99695924D01*
X119687117Y-99685643D01*
X119655889Y-99668952D01*
X119628515Y-99646485D01*
X119606048Y-99619111D01*
X119589357Y-99587883D01*
X119579076Y-99553992D01*
X119575000Y-99512609D01*
X119575000Y-98487391D01*
X119579076Y-98446008D01*
X119589357Y-98412117D01*
X119606048Y-98380889D01*
X119628515Y-98353515D01*
X119655889Y-98331048D01*
X119687117Y-98314357D01*
X119721008Y-98304076D01*
X119762391Y-98300000D01*
X120362609Y-98300000D01*
X120403992Y-98304076D01*
X120403992Y-98304076D01*
G37*
G36*
X122278992Y-98304076D02*
X122312883Y-98314357D01*
X122344111Y-98331048D01*
X122371485Y-98353515D01*
X122393952Y-98380889D01*
X122410643Y-98412117D01*
X122420924Y-98446008D01*
X122425000Y-98487391D01*
X122425000Y-99512609D01*
X122420924Y-99553992D01*
X122410643Y-99587883D01*
X122393952Y-99619111D01*
X122371485Y-99646485D01*
X122344111Y-99668952D01*
X122312883Y-99685643D01*
X122278992Y-99695924D01*
X122237609Y-99700000D01*
X121637391Y-99700000D01*
X121596008Y-99695924D01*
X121562117Y-99685643D01*
X121530889Y-99668952D01*
X121503515Y-99646485D01*
X121481048Y-99619111D01*
X121464357Y-99587883D01*
X121454076Y-99553992D01*
X121450000Y-99512609D01*
X121450000Y-98487391D01*
X121454076Y-98446008D01*
X121464357Y-98412117D01*
X121481048Y-98380889D01*
X121503515Y-98353515D01*
X121530889Y-98331048D01*
X121562117Y-98314357D01*
X121596008Y-98304076D01*
X121637391Y-98300000D01*
X122237609Y-98300000D01*
X122278992Y-98304076D01*
X122278992Y-98304076D01*
G37*
G36*
X124553992Y-98454076D02*
X124587883Y-98464357D01*
X124619111Y-98481048D01*
X124646485Y-98503515D01*
X124668952Y-98530889D01*
X124685643Y-98562117D01*
X124695924Y-98596008D01*
X124700000Y-98637391D01*
X124700000Y-99237609D01*
X124695924Y-99278992D01*
X124685643Y-99312883D01*
X124668952Y-99344111D01*
X124646485Y-99371485D01*
X124619111Y-99393952D01*
X124587883Y-99410643D01*
X124553992Y-99420924D01*
X124512609Y-99425000D01*
X123487391Y-99425000D01*
X123446008Y-99420924D01*
X123412117Y-99410643D01*
X123380889Y-99393952D01*
X123353515Y-99371485D01*
X123331048Y-99344111D01*
X123314357Y-99312883D01*
X123304076Y-99278992D01*
X123300000Y-99237609D01*
X123300000Y-98637391D01*
X123304076Y-98596008D01*
X123314357Y-98562117D01*
X123331048Y-98530889D01*
X123353515Y-98503515D01*
X123380889Y-98481048D01*
X123412117Y-98464357D01*
X123446008Y-98454076D01*
X123487391Y-98450000D01*
X124512609Y-98450000D01*
X124553992Y-98454076D01*
X124553992Y-98454076D01*
G37*
G36*
X140933195Y-97007522D02*
X140982267Y-97017283D01*
X141120942Y-97074724D01*
X141245750Y-97158118D01*
X141351882Y-97264250D01*
X141351884Y-97264253D01*
X141435276Y-97389058D01*
X141492717Y-97527733D01*
X141522000Y-97674950D01*
X141522000Y-97825050D01*
X141492717Y-97972267D01*
X141477534Y-98008921D01*
X141435276Y-98110942D01*
X141351882Y-98235750D01*
X141245750Y-98341882D01*
X141245747Y-98341884D01*
X141120942Y-98425276D01*
X140982267Y-98482717D01*
X140940228Y-98491079D01*
X140835052Y-98512000D01*
X140684948Y-98512000D01*
X140579772Y-98491079D01*
X140537733Y-98482717D01*
X140399058Y-98425276D01*
X140274253Y-98341884D01*
X140274250Y-98341882D01*
X140168118Y-98235750D01*
X140084724Y-98110942D01*
X140042466Y-98008921D01*
X140027283Y-97972267D01*
X139998000Y-97825050D01*
X139998000Y-97674950D01*
X140027283Y-97527733D01*
X140084724Y-97389058D01*
X140168116Y-97264253D01*
X140168118Y-97264250D01*
X140274250Y-97158118D01*
X140399058Y-97074724D01*
X140537733Y-97017283D01*
X140586805Y-97007522D01*
X140684948Y-96988000D01*
X140835052Y-96988000D01*
X140933195Y-97007522D01*
X140933195Y-97007522D01*
G37*
G36*
X134433195Y-97007522D02*
X134482267Y-97017283D01*
X134620942Y-97074724D01*
X134745750Y-97158118D01*
X134851882Y-97264250D01*
X134851884Y-97264253D01*
X134935276Y-97389058D01*
X134992717Y-97527733D01*
X135022000Y-97674950D01*
X135022000Y-97825050D01*
X134992717Y-97972267D01*
X134977534Y-98008921D01*
X134935276Y-98110942D01*
X134851882Y-98235750D01*
X134745750Y-98341882D01*
X134745747Y-98341884D01*
X134620942Y-98425276D01*
X134482267Y-98482717D01*
X134440228Y-98491079D01*
X134335052Y-98512000D01*
X134184948Y-98512000D01*
X134079772Y-98491079D01*
X134037733Y-98482717D01*
X133899058Y-98425276D01*
X133774253Y-98341884D01*
X133774250Y-98341882D01*
X133668118Y-98235750D01*
X133584724Y-98110942D01*
X133542466Y-98008921D01*
X133527283Y-97972267D01*
X133498000Y-97825050D01*
X133498000Y-97674950D01*
X133527283Y-97527733D01*
X133584724Y-97389058D01*
X133668116Y-97264253D01*
X133668118Y-97264250D01*
X133774250Y-97158118D01*
X133899058Y-97074724D01*
X134037733Y-97017283D01*
X134086805Y-97007522D01*
X134184948Y-96988000D01*
X134335052Y-96988000D01*
X134433195Y-97007522D01*
X134433195Y-97007522D01*
G37*
G36*
X131053992Y-97079076D02*
X131087883Y-97089357D01*
X131119111Y-97106048D01*
X131146485Y-97128515D01*
X131168952Y-97155889D01*
X131185643Y-97187117D01*
X131195924Y-97221008D01*
X131200000Y-97262391D01*
X131200000Y-97862609D01*
X131195924Y-97903992D01*
X131185643Y-97937883D01*
X131168952Y-97969111D01*
X131146485Y-97996485D01*
X131119111Y-98018952D01*
X131087883Y-98035643D01*
X131053992Y-98045924D01*
X131012609Y-98050000D01*
X129987391Y-98050000D01*
X129946008Y-98045924D01*
X129912117Y-98035643D01*
X129880889Y-98018952D01*
X129853515Y-97996485D01*
X129831048Y-97969111D01*
X129814357Y-97937883D01*
X129804076Y-97903992D01*
X129800000Y-97862609D01*
X129800000Y-97262391D01*
X129804076Y-97221008D01*
X129814357Y-97187117D01*
X129831048Y-97155889D01*
X129853515Y-97128515D01*
X129880889Y-97106048D01*
X129912117Y-97089357D01*
X129946008Y-97079076D01*
X129987391Y-97075000D01*
X131012609Y-97075000D01*
X131053992Y-97079076D01*
X131053992Y-97079076D01*
G37*
G36*
X124553992Y-96579076D02*
X124587883Y-96589357D01*
X124619111Y-96606048D01*
X124646485Y-96628515D01*
X124668952Y-96655889D01*
X124685643Y-96687117D01*
X124695924Y-96721008D01*
X124700000Y-96762391D01*
X124700000Y-97362609D01*
X124695924Y-97403992D01*
X124685643Y-97437883D01*
X124668952Y-97469111D01*
X124646485Y-97496485D01*
X124619111Y-97518952D01*
X124587883Y-97535643D01*
X124553992Y-97545924D01*
X124512609Y-97550000D01*
X123487391Y-97550000D01*
X123446008Y-97545924D01*
X123412117Y-97535643D01*
X123380889Y-97518952D01*
X123353515Y-97496485D01*
X123331048Y-97469111D01*
X123314357Y-97437883D01*
X123304076Y-97403992D01*
X123300000Y-97362609D01*
X123300000Y-96762391D01*
X123304076Y-96721008D01*
X123314357Y-96687117D01*
X123331048Y-96655889D01*
X123353515Y-96628515D01*
X123380889Y-96606048D01*
X123412117Y-96589357D01*
X123446008Y-96579076D01*
X123487391Y-96575000D01*
X124512609Y-96575000D01*
X124553992Y-96579076D01*
X124553992Y-96579076D01*
G37*
G36*
X120100000Y-94600000D02*
X119200000Y-94600000D01*
X119200000Y-93400000D01*
X120100000Y-93400000D01*
X120100000Y-94600000D01*
X120100000Y-94600000D01*
G37*
G36*
X121800000Y-94600000D02*
X120900000Y-94600000D01*
X120900000Y-93400000D01*
X121800000Y-93400000D01*
X121800000Y-94600000D01*
X121800000Y-94600000D01*
G37*
G36*
X125100000Y-94600000D02*
X124200000Y-94600000D01*
X124200000Y-93400000D01*
X125100000Y-93400000D01*
X125100000Y-94600000D01*
X125100000Y-94600000D01*
G37*
G36*
X116800000Y-94600000D02*
X115900000Y-94600000D01*
X115900000Y-93400000D01*
X116800000Y-93400000D01*
X116800000Y-94600000D01*
X116800000Y-94600000D01*
G37*
G36*
X130626630Y-92162299D02*
X130786855Y-92210903D01*
X130934520Y-92289831D01*
X131063949Y-92396051D01*
X131170169Y-92525480D01*
X131249097Y-92673145D01*
X131297701Y-92833370D01*
X131314112Y-93000000D01*
X131297701Y-93166630D01*
X131249097Y-93326855D01*
X131170169Y-93474520D01*
X131063949Y-93603949D01*
X130934520Y-93710169D01*
X130786855Y-93789097D01*
X130626630Y-93837701D01*
X130501752Y-93850000D01*
X130418248Y-93850000D01*
X130293370Y-93837701D01*
X130133145Y-93789097D01*
X129985480Y-93710169D01*
X129856051Y-93603949D01*
X129749831Y-93474520D01*
X129670903Y-93326855D01*
X129622299Y-93166630D01*
X129605888Y-93000000D01*
X129622299Y-92833370D01*
X129670903Y-92673145D01*
X129749831Y-92525480D01*
X129856051Y-92396051D01*
X129985480Y-92289831D01*
X130133145Y-92210903D01*
X130293370Y-92162299D01*
X130418248Y-92150000D01*
X130501752Y-92150000D01*
X130626630Y-92162299D01*
X130626630Y-92162299D01*
G37*
G36*
X128086630Y-92162299D02*
X128246855Y-92210903D01*
X128394520Y-92289831D01*
X128523949Y-92396051D01*
X128630169Y-92525480D01*
X128709097Y-92673145D01*
X128757701Y-92833370D01*
X128774112Y-93000000D01*
X128757701Y-93166630D01*
X128709097Y-93326855D01*
X128630169Y-93474520D01*
X128523949Y-93603949D01*
X128394520Y-93710169D01*
X128246855Y-93789097D01*
X128086630Y-93837701D01*
X127961752Y-93850000D01*
X127878248Y-93850000D01*
X127753370Y-93837701D01*
X127593145Y-93789097D01*
X127445480Y-93710169D01*
X127316051Y-93603949D01*
X127209831Y-93474520D01*
X127130903Y-93326855D01*
X127082299Y-93166630D01*
X127065888Y-93000000D01*
X127082299Y-92833370D01*
X127130903Y-92673145D01*
X127209831Y-92525480D01*
X127316051Y-92396051D01*
X127445480Y-92289831D01*
X127593145Y-92210903D01*
X127753370Y-92162299D01*
X127878248Y-92150000D01*
X127961752Y-92150000D01*
X128086630Y-92162299D01*
X128086630Y-92162299D01*
G37*
G36*
X133850000Y-93850000D02*
X132150000Y-93850000D01*
X132150000Y-92150000D01*
X133850000Y-92150000D01*
X133850000Y-93850000D01*
X133850000Y-93850000D01*
G37*
G36*
X141350000Y-93350000D02*
X139650000Y-93350000D01*
X139650000Y-91650000D01*
X141350000Y-91650000D01*
X141350000Y-93350000D01*
X141350000Y-93350000D01*
G37*
G36*
X112666630Y-91322299D02*
X112826855Y-91370903D01*
X112974520Y-91449831D01*
X113103949Y-91556051D01*
X113210169Y-91685480D01*
X113289097Y-91833145D01*
X113337701Y-91993370D01*
X113354112Y-92160000D01*
X113337701Y-92326630D01*
X113289097Y-92486855D01*
X113210169Y-92634520D01*
X113103949Y-92763949D01*
X112974520Y-92870169D01*
X112826855Y-92949097D01*
X112666630Y-92997701D01*
X112541752Y-93010000D01*
X112458248Y-93010000D01*
X112333370Y-92997701D01*
X112173145Y-92949097D01*
X112025480Y-92870169D01*
X111896051Y-92763949D01*
X111789831Y-92634520D01*
X111710903Y-92486855D01*
X111662299Y-92326630D01*
X111645888Y-92160000D01*
X111662299Y-91993370D01*
X111710903Y-91833145D01*
X111789831Y-91685480D01*
X111896051Y-91556051D01*
X112025480Y-91449831D01*
X112173145Y-91370903D01*
X112333370Y-91322299D01*
X112458248Y-91310000D01*
X112541752Y-91310000D01*
X112666630Y-91322299D01*
X112666630Y-91322299D01*
G37*
G36*
X133166630Y-89622299D02*
X133326855Y-89670903D01*
X133474520Y-89749831D01*
X133603949Y-89856051D01*
X133710169Y-89985480D01*
X133789097Y-90133145D01*
X133837701Y-90293370D01*
X133854112Y-90460000D01*
X133837701Y-90626630D01*
X133789097Y-90786855D01*
X133710169Y-90934520D01*
X133603949Y-91063949D01*
X133474520Y-91170169D01*
X133326855Y-91249097D01*
X133166630Y-91297701D01*
X133041752Y-91310000D01*
X132958248Y-91310000D01*
X132833370Y-91297701D01*
X132673145Y-91249097D01*
X132525480Y-91170169D01*
X132396051Y-91063949D01*
X132289831Y-90934520D01*
X132210903Y-90786855D01*
X132162299Y-90626630D01*
X132145888Y-90460000D01*
X132162299Y-90293370D01*
X132210903Y-90133145D01*
X132289831Y-89985480D01*
X132396051Y-89856051D01*
X132525480Y-89749831D01*
X132673145Y-89670903D01*
X132833370Y-89622299D01*
X132958248Y-89610000D01*
X133041752Y-89610000D01*
X133166630Y-89622299D01*
X133166630Y-89622299D01*
G37*
G36*
X130626630Y-89622299D02*
X130786855Y-89670903D01*
X130934520Y-89749831D01*
X131063949Y-89856051D01*
X131170169Y-89985480D01*
X131249097Y-90133145D01*
X131297701Y-90293370D01*
X131314112Y-90460000D01*
X131297701Y-90626630D01*
X131249097Y-90786855D01*
X131170169Y-90934520D01*
X131063949Y-91063949D01*
X130934520Y-91170169D01*
X130786855Y-91249097D01*
X130626630Y-91297701D01*
X130501752Y-91310000D01*
X130418248Y-91310000D01*
X130293370Y-91297701D01*
X130133145Y-91249097D01*
X129985480Y-91170169D01*
X129856051Y-91063949D01*
X129749831Y-90934520D01*
X129670903Y-90786855D01*
X129622299Y-90626630D01*
X129605888Y-90460000D01*
X129622299Y-90293370D01*
X129670903Y-90133145D01*
X129749831Y-89985480D01*
X129856051Y-89856051D01*
X129985480Y-89749831D01*
X130133145Y-89670903D01*
X130293370Y-89622299D01*
X130418248Y-89610000D01*
X130501752Y-89610000D01*
X130626630Y-89622299D01*
X130626630Y-89622299D01*
G37*
G36*
X128086630Y-89622299D02*
X128246855Y-89670903D01*
X128394520Y-89749831D01*
X128523949Y-89856051D01*
X128630169Y-89985480D01*
X128709097Y-90133145D01*
X128757701Y-90293370D01*
X128774112Y-90460000D01*
X128757701Y-90626630D01*
X128709097Y-90786855D01*
X128630169Y-90934520D01*
X128523949Y-91063949D01*
X128394520Y-91170169D01*
X128246855Y-91249097D01*
X128086630Y-91297701D01*
X127961752Y-91310000D01*
X127878248Y-91310000D01*
X127753370Y-91297701D01*
X127593145Y-91249097D01*
X127445480Y-91170169D01*
X127316051Y-91063949D01*
X127209831Y-90934520D01*
X127130903Y-90786855D01*
X127082299Y-90626630D01*
X127065888Y-90460000D01*
X127082299Y-90293370D01*
X127130903Y-90133145D01*
X127209831Y-89985480D01*
X127316051Y-89856051D01*
X127445480Y-89749831D01*
X127593145Y-89670903D01*
X127753370Y-89622299D01*
X127878248Y-89610000D01*
X127961752Y-89610000D01*
X128086630Y-89622299D01*
X128086630Y-89622299D01*
G37*
G36*
X140666630Y-89122299D02*
X140826855Y-89170903D01*
X140974520Y-89249831D01*
X141103949Y-89356051D01*
X141210169Y-89485480D01*
X141289097Y-89633145D01*
X141337701Y-89793370D01*
X141354112Y-89960000D01*
X141337701Y-90126630D01*
X141289097Y-90286855D01*
X141210169Y-90434520D01*
X141103949Y-90563949D01*
X140974520Y-90670169D01*
X140826855Y-90749097D01*
X140666630Y-90797701D01*
X140541752Y-90810000D01*
X140458248Y-90810000D01*
X140333370Y-90797701D01*
X140173145Y-90749097D01*
X140025480Y-90670169D01*
X139896051Y-90563949D01*
X139789831Y-90434520D01*
X139710903Y-90286855D01*
X139662299Y-90126630D01*
X139645888Y-89960000D01*
X139662299Y-89793370D01*
X139710903Y-89633145D01*
X139789831Y-89485480D01*
X139896051Y-89356051D01*
X140025480Y-89249831D01*
X140173145Y-89170903D01*
X140333370Y-89122299D01*
X140458248Y-89110000D01*
X140541752Y-89110000D01*
X140666630Y-89122299D01*
X140666630Y-89122299D01*
G37*
G36*
X112666630Y-88782299D02*
X112826855Y-88830903D01*
X112974520Y-88909831D01*
X113103949Y-89016051D01*
X113210169Y-89145480D01*
X113289097Y-89293145D01*
X113337701Y-89453370D01*
X113354112Y-89620000D01*
X113337701Y-89786630D01*
X113289097Y-89946855D01*
X113210169Y-90094520D01*
X113103949Y-90223949D01*
X112974520Y-90330169D01*
X112826855Y-90409097D01*
X112666630Y-90457701D01*
X112541752Y-90470000D01*
X112458248Y-90470000D01*
X112333370Y-90457701D01*
X112173145Y-90409097D01*
X112025480Y-90330169D01*
X111896051Y-90223949D01*
X111789831Y-90094520D01*
X111710903Y-89946855D01*
X111662299Y-89786630D01*
X111645888Y-89620000D01*
X111662299Y-89453370D01*
X111710903Y-89293145D01*
X111789831Y-89145480D01*
X111896051Y-89016051D01*
X112025480Y-88909831D01*
X112173145Y-88830903D01*
X112333370Y-88782299D01*
X112458248Y-88770000D01*
X112541752Y-88770000D01*
X112666630Y-88782299D01*
X112666630Y-88782299D01*
G37*
G36*
X140666630Y-86582299D02*
X140826855Y-86630903D01*
X140974520Y-86709831D01*
X141103949Y-86816051D01*
X141210169Y-86945480D01*
X141289097Y-87093145D01*
X141337701Y-87253370D01*
X141354112Y-87420000D01*
X141337701Y-87586630D01*
X141289097Y-87746855D01*
X141210169Y-87894520D01*
X141103949Y-88023949D01*
X140974520Y-88130169D01*
X140826855Y-88209097D01*
X140666630Y-88257701D01*
X140541752Y-88270000D01*
X140458248Y-88270000D01*
X140333370Y-88257701D01*
X140173145Y-88209097D01*
X140025480Y-88130169D01*
X139896051Y-88023949D01*
X139789831Y-87894520D01*
X139710903Y-87746855D01*
X139662299Y-87586630D01*
X139645888Y-87420000D01*
X139662299Y-87253370D01*
X139710903Y-87093145D01*
X139789831Y-86945480D01*
X139896051Y-86816051D01*
X140025480Y-86709831D01*
X140173145Y-86630903D01*
X140333370Y-86582299D01*
X140458248Y-86570000D01*
X140541752Y-86570000D01*
X140666630Y-86582299D01*
X140666630Y-86582299D01*
G37*
G36*
X112666630Y-86242299D02*
X112826855Y-86290903D01*
X112974520Y-86369831D01*
X113103949Y-86476051D01*
X113210169Y-86605480D01*
X113289097Y-86753145D01*
X113337701Y-86913370D01*
X113354112Y-87080000D01*
X113337701Y-87246630D01*
X113289097Y-87406855D01*
X113210169Y-87554520D01*
X113103949Y-87683949D01*
X112974520Y-87790169D01*
X112826855Y-87869097D01*
X112666630Y-87917701D01*
X112541752Y-87930000D01*
X112458248Y-87930000D01*
X112333370Y-87917701D01*
X112173145Y-87869097D01*
X112025480Y-87790169D01*
X111896051Y-87683949D01*
X111789831Y-87554520D01*
X111710903Y-87406855D01*
X111662299Y-87246630D01*
X111645888Y-87080000D01*
X111662299Y-86913370D01*
X111710903Y-86753145D01*
X111789831Y-86605480D01*
X111896051Y-86476051D01*
X112025480Y-86369831D01*
X112173145Y-86290903D01*
X112333370Y-86242299D01*
X112458248Y-86230000D01*
X112541752Y-86230000D01*
X112666630Y-86242299D01*
X112666630Y-86242299D01*
G37*
G36*
X123028992Y-85054076D02*
X123062883Y-85064357D01*
X123094111Y-85081048D01*
X123121485Y-85103515D01*
X123143952Y-85130889D01*
X123160643Y-85162117D01*
X123170924Y-85196008D01*
X123175000Y-85237391D01*
X123175000Y-86262609D01*
X123170924Y-86303992D01*
X123160643Y-86337883D01*
X123143952Y-86369111D01*
X123121485Y-86396485D01*
X123094111Y-86418952D01*
X123062883Y-86435643D01*
X123028992Y-86445924D01*
X122987609Y-86450000D01*
X122387391Y-86450000D01*
X122346008Y-86445924D01*
X122312117Y-86435643D01*
X122280889Y-86418952D01*
X122253515Y-86396485D01*
X122231048Y-86369111D01*
X122214357Y-86337883D01*
X122204076Y-86303992D01*
X122200000Y-86262609D01*
X122200000Y-85237391D01*
X122204076Y-85196008D01*
X122214357Y-85162117D01*
X122231048Y-85130889D01*
X122253515Y-85103515D01*
X122280889Y-85081048D01*
X122312117Y-85064357D01*
X122346008Y-85054076D01*
X122387391Y-85050000D01*
X122987609Y-85050000D01*
X123028992Y-85054076D01*
X123028992Y-85054076D01*
G37*
G36*
X121153992Y-85054076D02*
X121187883Y-85064357D01*
X121219111Y-85081048D01*
X121246485Y-85103515D01*
X121268952Y-85130889D01*
X121285643Y-85162117D01*
X121295924Y-85196008D01*
X121300000Y-85237391D01*
X121300000Y-86262609D01*
X121295924Y-86303992D01*
X121285643Y-86337883D01*
X121268952Y-86369111D01*
X121246485Y-86396485D01*
X121219111Y-86418952D01*
X121187883Y-86435643D01*
X121153992Y-86445924D01*
X121112609Y-86450000D01*
X120512391Y-86450000D01*
X120471008Y-86445924D01*
X120437117Y-86435643D01*
X120405889Y-86418952D01*
X120378515Y-86396485D01*
X120356048Y-86369111D01*
X120339357Y-86337883D01*
X120329076Y-86303992D01*
X120325000Y-86262609D01*
X120325000Y-85237391D01*
X120329076Y-85196008D01*
X120339357Y-85162117D01*
X120356048Y-85130889D01*
X120378515Y-85103515D01*
X120405889Y-85081048D01*
X120437117Y-85064357D01*
X120471008Y-85054076D01*
X120512391Y-85050000D01*
X121112609Y-85050000D01*
X121153992Y-85054076D01*
X121153992Y-85054076D01*
G37*
G36*
X140666630Y-84042299D02*
X140826855Y-84090903D01*
X140974520Y-84169831D01*
X141103949Y-84276051D01*
X141210169Y-84405480D01*
X141289097Y-84553145D01*
X141337701Y-84713370D01*
X141354112Y-84880000D01*
X141337701Y-85046630D01*
X141289097Y-85206855D01*
X141210169Y-85354520D01*
X141103949Y-85483949D01*
X140974520Y-85590169D01*
X140826855Y-85669097D01*
X140666630Y-85717701D01*
X140541752Y-85730000D01*
X140458248Y-85730000D01*
X140333370Y-85717701D01*
X140173145Y-85669097D01*
X140025480Y-85590169D01*
X139896051Y-85483949D01*
X139789831Y-85354520D01*
X139710903Y-85206855D01*
X139662299Y-85046630D01*
X139645888Y-84880000D01*
X139662299Y-84713370D01*
X139710903Y-84553145D01*
X139789831Y-84405480D01*
X139896051Y-84276051D01*
X140025480Y-84169831D01*
X140173145Y-84090903D01*
X140333370Y-84042299D01*
X140458248Y-84030000D01*
X140541752Y-84030000D01*
X140666630Y-84042299D01*
X140666630Y-84042299D01*
G37*
G36*
X112666630Y-83702299D02*
X112826855Y-83750903D01*
X112974520Y-83829831D01*
X113103949Y-83936051D01*
X113210169Y-84065480D01*
X113289097Y-84213145D01*
X113337701Y-84373370D01*
X113354112Y-84540000D01*
X113337701Y-84706630D01*
X113289097Y-84866855D01*
X113210169Y-85014520D01*
X113103949Y-85143949D01*
X112974520Y-85250169D01*
X112826855Y-85329097D01*
X112666630Y-85377701D01*
X112541752Y-85390000D01*
X112458248Y-85390000D01*
X112333370Y-85377701D01*
X112173145Y-85329097D01*
X112025480Y-85250169D01*
X111896051Y-85143949D01*
X111789831Y-85014520D01*
X111710903Y-84866855D01*
X111662299Y-84706630D01*
X111645888Y-84540000D01*
X111662299Y-84373370D01*
X111710903Y-84213145D01*
X111789831Y-84065480D01*
X111896051Y-83936051D01*
X112025480Y-83829831D01*
X112173145Y-83750903D01*
X112333370Y-83702299D01*
X112458248Y-83690000D01*
X112541752Y-83690000D01*
X112666630Y-83702299D01*
X112666630Y-83702299D01*
G37*
G36*
X120778992Y-82804076D02*
X120812883Y-82814357D01*
X120844111Y-82831048D01*
X120871485Y-82853515D01*
X120893952Y-82880889D01*
X120910643Y-82912117D01*
X120920924Y-82946008D01*
X120925000Y-82987391D01*
X120925000Y-84012609D01*
X120920924Y-84053992D01*
X120910643Y-84087883D01*
X120893952Y-84119111D01*
X120871485Y-84146485D01*
X120844111Y-84168952D01*
X120812883Y-84185643D01*
X120778992Y-84195924D01*
X120737609Y-84200000D01*
X120137391Y-84200000D01*
X120096008Y-84195924D01*
X120062117Y-84185643D01*
X120030889Y-84168952D01*
X120003515Y-84146485D01*
X119981048Y-84119111D01*
X119964357Y-84087883D01*
X119954076Y-84053992D01*
X119950000Y-84012609D01*
X119950000Y-82987391D01*
X119954076Y-82946008D01*
X119964357Y-82912117D01*
X119981048Y-82880889D01*
X120003515Y-82853515D01*
X120030889Y-82831048D01*
X120062117Y-82814357D01*
X120096008Y-82804076D01*
X120137391Y-82800000D01*
X120737609Y-82800000D01*
X120778992Y-82804076D01*
X120778992Y-82804076D01*
G37*
G36*
X118903992Y-82804076D02*
X118937883Y-82814357D01*
X118969111Y-82831048D01*
X118996485Y-82853515D01*
X119018952Y-82880889D01*
X119035643Y-82912117D01*
X119045924Y-82946008D01*
X119050000Y-82987391D01*
X119050000Y-84012609D01*
X119045924Y-84053992D01*
X119035643Y-84087883D01*
X119018952Y-84119111D01*
X118996485Y-84146485D01*
X118969111Y-84168952D01*
X118937883Y-84185643D01*
X118903992Y-84195924D01*
X118862609Y-84200000D01*
X118262391Y-84200000D01*
X118221008Y-84195924D01*
X118187117Y-84185643D01*
X118155889Y-84168952D01*
X118128515Y-84146485D01*
X118106048Y-84119111D01*
X118089357Y-84087883D01*
X118079076Y-84053992D01*
X118075000Y-84012609D01*
X118075000Y-82987391D01*
X118079076Y-82946008D01*
X118089357Y-82912117D01*
X118106048Y-82880889D01*
X118128515Y-82853515D01*
X118155889Y-82831048D01*
X118187117Y-82814357D01*
X118221008Y-82804076D01*
X118262391Y-82800000D01*
X118862609Y-82800000D01*
X118903992Y-82804076D01*
X118903992Y-82804076D01*
G37*
G36*
X128375000Y-84000000D02*
X122625000Y-84000000D01*
X122625000Y-82700000D01*
X128375000Y-82700000D01*
X128375000Y-84000000D01*
X128375000Y-84000000D01*
G37*
G36*
X140666630Y-81502299D02*
X140826855Y-81550903D01*
X140974520Y-81629831D01*
X141103949Y-81736051D01*
X141210169Y-81865480D01*
X141289097Y-82013145D01*
X141337701Y-82173370D01*
X141354112Y-82340000D01*
X141337701Y-82506630D01*
X141289097Y-82666855D01*
X141210169Y-82814520D01*
X141103949Y-82943949D01*
X140974520Y-83050169D01*
X140826855Y-83129097D01*
X140666630Y-83177701D01*
X140541752Y-83190000D01*
X140458248Y-83190000D01*
X140333370Y-83177701D01*
X140173145Y-83129097D01*
X140025480Y-83050169D01*
X139896051Y-82943949D01*
X139789831Y-82814520D01*
X139710903Y-82666855D01*
X139662299Y-82506630D01*
X139645888Y-82340000D01*
X139662299Y-82173370D01*
X139710903Y-82013145D01*
X139789831Y-81865480D01*
X139896051Y-81736051D01*
X140025480Y-81629831D01*
X140173145Y-81550903D01*
X140333370Y-81502299D01*
X140458248Y-81490000D01*
X140541752Y-81490000D01*
X140666630Y-81502299D01*
X140666630Y-81502299D01*
G37*
G36*
X112666630Y-81162299D02*
X112826855Y-81210903D01*
X112974520Y-81289831D01*
X113103949Y-81396051D01*
X113210169Y-81525480D01*
X113289097Y-81673145D01*
X113337701Y-81833370D01*
X113354112Y-82000000D01*
X113337701Y-82166630D01*
X113289097Y-82326855D01*
X113210169Y-82474520D01*
X113103949Y-82603949D01*
X112974520Y-82710169D01*
X112826855Y-82789097D01*
X112666630Y-82837701D01*
X112541752Y-82850000D01*
X112458248Y-82850000D01*
X112333370Y-82837701D01*
X112173145Y-82789097D01*
X112025480Y-82710169D01*
X111896051Y-82603949D01*
X111789831Y-82474520D01*
X111710903Y-82326855D01*
X111662299Y-82166630D01*
X111645888Y-82000000D01*
X111662299Y-81833370D01*
X111710903Y-81673145D01*
X111789831Y-81525480D01*
X111896051Y-81396051D01*
X112025480Y-81289831D01*
X112173145Y-81210903D01*
X112333370Y-81162299D01*
X112458248Y-81150000D01*
X112541752Y-81150000D01*
X112666630Y-81162299D01*
X112666630Y-81162299D01*
G37*
G36*
X130500000Y-81875000D02*
X129200000Y-81875000D01*
X129200000Y-76125000D01*
X130500000Y-76125000D01*
X130500000Y-81875000D01*
X130500000Y-81875000D01*
G37*
G36*
X121800000Y-81875000D02*
X120500000Y-81875000D01*
X120500000Y-76125000D01*
X121800000Y-76125000D01*
X121800000Y-81875000D01*
X121800000Y-81875000D01*
G37*
G36*
X140666630Y-78962299D02*
X140826855Y-79010903D01*
X140974520Y-79089831D01*
X141103949Y-79196051D01*
X141210169Y-79325480D01*
X141289097Y-79473145D01*
X141337701Y-79633370D01*
X141354112Y-79800000D01*
X141337701Y-79966630D01*
X141289097Y-80126855D01*
X141210169Y-80274520D01*
X141103949Y-80403949D01*
X140974520Y-80510169D01*
X140826855Y-80589097D01*
X140666630Y-80637701D01*
X140541752Y-80650000D01*
X140458248Y-80650000D01*
X140333370Y-80637701D01*
X140173145Y-80589097D01*
X140025480Y-80510169D01*
X139896051Y-80403949D01*
X139789831Y-80274520D01*
X139710903Y-80126855D01*
X139662299Y-79966630D01*
X139645888Y-79800000D01*
X139662299Y-79633370D01*
X139710903Y-79473145D01*
X139789831Y-79325480D01*
X139896051Y-79196051D01*
X140025480Y-79089831D01*
X140173145Y-79010903D01*
X140333370Y-78962299D01*
X140458248Y-78950000D01*
X140541752Y-78950000D01*
X140666630Y-78962299D01*
X140666630Y-78962299D01*
G37*
G36*
X112666630Y-78622299D02*
X112826855Y-78670903D01*
X112974520Y-78749831D01*
X113103949Y-78856051D01*
X113210169Y-78985480D01*
X113289097Y-79133145D01*
X113337701Y-79293370D01*
X113354112Y-79460000D01*
X113337701Y-79626630D01*
X113289097Y-79786855D01*
X113210169Y-79934520D01*
X113103949Y-80063949D01*
X112974520Y-80170169D01*
X112826855Y-80249097D01*
X112666630Y-80297701D01*
X112541752Y-80310000D01*
X112458248Y-80310000D01*
X112333370Y-80297701D01*
X112173145Y-80249097D01*
X112025480Y-80170169D01*
X111896051Y-80063949D01*
X111789831Y-79934520D01*
X111710903Y-79786855D01*
X111662299Y-79626630D01*
X111645888Y-79460000D01*
X111662299Y-79293370D01*
X111710903Y-79133145D01*
X111789831Y-78985480D01*
X111896051Y-78856051D01*
X112025480Y-78749831D01*
X112173145Y-78670903D01*
X112333370Y-78622299D01*
X112458248Y-78610000D01*
X112541752Y-78610000D01*
X112666630Y-78622299D01*
X112666630Y-78622299D01*
G37*
G36*
X133466492Y-78304076D02*
X133500383Y-78314357D01*
X133531611Y-78331048D01*
X133558985Y-78353515D01*
X133581452Y-78380889D01*
X133598143Y-78412117D01*
X133608424Y-78446008D01*
X133612500Y-78487391D01*
X133612500Y-79512609D01*
X133608424Y-79553992D01*
X133598143Y-79587883D01*
X133581452Y-79619111D01*
X133558985Y-79646485D01*
X133531611Y-79668952D01*
X133500383Y-79685643D01*
X133466492Y-79695924D01*
X133425109Y-79700000D01*
X132824891Y-79700000D01*
X132783508Y-79695924D01*
X132749617Y-79685643D01*
X132718389Y-79668952D01*
X132691015Y-79646485D01*
X132668548Y-79619111D01*
X132651857Y-79587883D01*
X132641576Y-79553992D01*
X132637500Y-79512609D01*
X132637500Y-78487391D01*
X132641576Y-78446008D01*
X132651857Y-78412117D01*
X132668548Y-78380889D01*
X132691015Y-78353515D01*
X132718389Y-78331048D01*
X132749617Y-78314357D01*
X132783508Y-78304076D01*
X132824891Y-78300000D01*
X133425109Y-78300000D01*
X133466492Y-78304076D01*
X133466492Y-78304076D01*
G37*
G36*
X135341492Y-78304076D02*
X135375383Y-78314357D01*
X135406611Y-78331048D01*
X135433985Y-78353515D01*
X135456452Y-78380889D01*
X135473143Y-78412117D01*
X135483424Y-78446008D01*
X135487500Y-78487391D01*
X135487500Y-79512609D01*
X135483424Y-79553992D01*
X135473143Y-79587883D01*
X135456452Y-79619111D01*
X135433985Y-79646485D01*
X135406611Y-79668952D01*
X135375383Y-79685643D01*
X135341492Y-79695924D01*
X135300109Y-79700000D01*
X134699891Y-79700000D01*
X134658508Y-79695924D01*
X134624617Y-79685643D01*
X134593389Y-79668952D01*
X134566015Y-79646485D01*
X134543548Y-79619111D01*
X134526857Y-79587883D01*
X134516576Y-79553992D01*
X134512500Y-79512609D01*
X134512500Y-78487391D01*
X134516576Y-78446008D01*
X134526857Y-78412117D01*
X134543548Y-78380889D01*
X134566015Y-78353515D01*
X134593389Y-78331048D01*
X134624617Y-78314357D01*
X134658508Y-78304076D01*
X134699891Y-78300000D01*
X135300109Y-78300000D01*
X135341492Y-78304076D01*
X135341492Y-78304076D01*
G37*
G36*
X119278992Y-77304076D02*
X119312883Y-77314357D01*
X119344111Y-77331048D01*
X119371485Y-77353515D01*
X119393952Y-77380889D01*
X119410643Y-77412117D01*
X119420924Y-77446008D01*
X119425000Y-77487391D01*
X119425000Y-78512609D01*
X119420924Y-78553992D01*
X119410643Y-78587883D01*
X119393952Y-78619111D01*
X119371485Y-78646485D01*
X119344111Y-78668952D01*
X119312883Y-78685643D01*
X119278992Y-78695924D01*
X119237609Y-78700000D01*
X118637391Y-78700000D01*
X118596008Y-78695924D01*
X118562117Y-78685643D01*
X118530889Y-78668952D01*
X118503515Y-78646485D01*
X118481048Y-78619111D01*
X118464357Y-78587883D01*
X118454076Y-78553992D01*
X118450000Y-78512609D01*
X118450000Y-77487391D01*
X118454076Y-77446008D01*
X118464357Y-77412117D01*
X118481048Y-77380889D01*
X118503515Y-77353515D01*
X118530889Y-77331048D01*
X118562117Y-77314357D01*
X118596008Y-77304076D01*
X118637391Y-77300000D01*
X119237609Y-77300000D01*
X119278992Y-77304076D01*
X119278992Y-77304076D01*
G37*
G36*
X117403992Y-77304076D02*
X117437883Y-77314357D01*
X117469111Y-77331048D01*
X117496485Y-77353515D01*
X117518952Y-77380889D01*
X117535643Y-77412117D01*
X117545924Y-77446008D01*
X117550000Y-77487391D01*
X117550000Y-78512609D01*
X117545924Y-78553992D01*
X117535643Y-78587883D01*
X117518952Y-78619111D01*
X117496485Y-78646485D01*
X117469111Y-78668952D01*
X117437883Y-78685643D01*
X117403992Y-78695924D01*
X117362609Y-78700000D01*
X116762391Y-78700000D01*
X116721008Y-78695924D01*
X116687117Y-78685643D01*
X116655889Y-78668952D01*
X116628515Y-78646485D01*
X116606048Y-78619111D01*
X116589357Y-78587883D01*
X116579076Y-78553992D01*
X116575000Y-78512609D01*
X116575000Y-77487391D01*
X116579076Y-77446008D01*
X116589357Y-77412117D01*
X116606048Y-77380889D01*
X116628515Y-77353515D01*
X116655889Y-77331048D01*
X116687117Y-77314357D01*
X116721008Y-77304076D01*
X116762391Y-77300000D01*
X117362609Y-77300000D01*
X117403992Y-77304076D01*
X117403992Y-77304076D01*
G37*
G36*
X140666630Y-76422299D02*
X140826855Y-76470903D01*
X140974520Y-76549831D01*
X141103949Y-76656051D01*
X141210169Y-76785480D01*
X141289097Y-76933145D01*
X141337701Y-77093370D01*
X141354112Y-77260000D01*
X141337701Y-77426630D01*
X141289097Y-77586855D01*
X141210169Y-77734520D01*
X141103949Y-77863949D01*
X140974520Y-77970169D01*
X140826855Y-78049097D01*
X140666630Y-78097701D01*
X140541752Y-78110000D01*
X140458248Y-78110000D01*
X140333370Y-78097701D01*
X140173145Y-78049097D01*
X140025480Y-77970169D01*
X139896051Y-77863949D01*
X139789831Y-77734520D01*
X139710903Y-77586855D01*
X139662299Y-77426630D01*
X139645888Y-77260000D01*
X139662299Y-77093370D01*
X139710903Y-76933145D01*
X139789831Y-76785480D01*
X139896051Y-76656051D01*
X140025480Y-76549831D01*
X140173145Y-76470903D01*
X140333370Y-76422299D01*
X140458248Y-76410000D01*
X140541752Y-76410000D01*
X140666630Y-76422299D01*
X140666630Y-76422299D01*
G37*
G36*
X112666630Y-76082299D02*
X112826855Y-76130903D01*
X112974520Y-76209831D01*
X113103949Y-76316051D01*
X113210169Y-76445480D01*
X113289097Y-76593145D01*
X113337701Y-76753370D01*
X113354112Y-76920000D01*
X113337701Y-77086630D01*
X113289097Y-77246855D01*
X113210169Y-77394520D01*
X113103949Y-77523949D01*
X112974520Y-77630169D01*
X112826855Y-77709097D01*
X112666630Y-77757701D01*
X112541752Y-77770000D01*
X112458248Y-77770000D01*
X112333370Y-77757701D01*
X112173145Y-77709097D01*
X112025480Y-77630169D01*
X111896051Y-77523949D01*
X111789831Y-77394520D01*
X111710903Y-77246855D01*
X111662299Y-77086630D01*
X111645888Y-76920000D01*
X111662299Y-76753370D01*
X111710903Y-76593145D01*
X111789831Y-76445480D01*
X111896051Y-76316051D01*
X112025480Y-76209831D01*
X112173145Y-76130903D01*
X112333370Y-76082299D01*
X112458248Y-76070000D01*
X112541752Y-76070000D01*
X112666630Y-76082299D01*
X112666630Y-76082299D01*
G37*
G36*
X133778992Y-74804076D02*
X133812883Y-74814357D01*
X133844111Y-74831048D01*
X133871485Y-74853515D01*
X133893952Y-74880889D01*
X133910643Y-74912117D01*
X133920924Y-74946008D01*
X133925000Y-74987391D01*
X133925000Y-76012609D01*
X133920924Y-76053992D01*
X133910643Y-76087883D01*
X133893952Y-76119111D01*
X133871485Y-76146485D01*
X133844111Y-76168952D01*
X133812883Y-76185643D01*
X133778992Y-76195924D01*
X133737609Y-76200000D01*
X133137391Y-76200000D01*
X133096008Y-76195924D01*
X133062117Y-76185643D01*
X133030889Y-76168952D01*
X133003515Y-76146485D01*
X132981048Y-76119111D01*
X132964357Y-76087883D01*
X132954076Y-76053992D01*
X132950000Y-76012609D01*
X132950000Y-74987391D01*
X132954076Y-74946008D01*
X132964357Y-74912117D01*
X132981048Y-74880889D01*
X133003515Y-74853515D01*
X133030889Y-74831048D01*
X133062117Y-74814357D01*
X133096008Y-74804076D01*
X133137391Y-74800000D01*
X133737609Y-74800000D01*
X133778992Y-74804076D01*
X133778992Y-74804076D01*
G37*
G36*
X131903992Y-74804076D02*
X131937883Y-74814357D01*
X131969111Y-74831048D01*
X131996485Y-74853515D01*
X132018952Y-74880889D01*
X132035643Y-74912117D01*
X132045924Y-74946008D01*
X132050000Y-74987391D01*
X132050000Y-76012609D01*
X132045924Y-76053992D01*
X132035643Y-76087883D01*
X132018952Y-76119111D01*
X131996485Y-76146485D01*
X131969111Y-76168952D01*
X131937883Y-76185643D01*
X131903992Y-76195924D01*
X131862609Y-76200000D01*
X131262391Y-76200000D01*
X131221008Y-76195924D01*
X131187117Y-76185643D01*
X131155889Y-76168952D01*
X131128515Y-76146485D01*
X131106048Y-76119111D01*
X131089357Y-76087883D01*
X131079076Y-76053992D01*
X131075000Y-76012609D01*
X131075000Y-74987391D01*
X131079076Y-74946008D01*
X131089357Y-74912117D01*
X131106048Y-74880889D01*
X131128515Y-74853515D01*
X131155889Y-74831048D01*
X131187117Y-74814357D01*
X131221008Y-74804076D01*
X131262391Y-74800000D01*
X131862609Y-74800000D01*
X131903992Y-74804076D01*
X131903992Y-74804076D01*
G37*
G36*
X140666630Y-73882299D02*
X140826855Y-73930903D01*
X140974520Y-74009831D01*
X141103949Y-74116051D01*
X141210169Y-74245480D01*
X141289097Y-74393145D01*
X141337701Y-74553370D01*
X141354112Y-74720000D01*
X141337701Y-74886630D01*
X141289097Y-75046855D01*
X141210169Y-75194520D01*
X141103949Y-75323949D01*
X140974520Y-75430169D01*
X140826855Y-75509097D01*
X140666630Y-75557701D01*
X140541752Y-75570000D01*
X140458248Y-75570000D01*
X140333370Y-75557701D01*
X140173145Y-75509097D01*
X140025480Y-75430169D01*
X139896051Y-75323949D01*
X139789831Y-75194520D01*
X139710903Y-75046855D01*
X139662299Y-74886630D01*
X139645888Y-74720000D01*
X139662299Y-74553370D01*
X139710903Y-74393145D01*
X139789831Y-74245480D01*
X139896051Y-74116051D01*
X140025480Y-74009831D01*
X140173145Y-73930903D01*
X140333370Y-73882299D01*
X140458248Y-73870000D01*
X140541752Y-73870000D01*
X140666630Y-73882299D01*
X140666630Y-73882299D01*
G37*
G36*
X128375000Y-75300000D02*
X122625000Y-75300000D01*
X122625000Y-74000000D01*
X128375000Y-74000000D01*
X128375000Y-75300000D01*
X128375000Y-75300000D01*
G37*
G36*
X112666630Y-73542299D02*
X112826855Y-73590903D01*
X112974520Y-73669831D01*
X113103949Y-73776051D01*
X113210169Y-73905480D01*
X113289097Y-74053145D01*
X113337701Y-74213370D01*
X113354112Y-74380000D01*
X113337701Y-74546630D01*
X113289097Y-74706855D01*
X113210169Y-74854520D01*
X113103949Y-74983949D01*
X112974520Y-75090169D01*
X112826855Y-75169097D01*
X112666630Y-75217701D01*
X112541752Y-75230000D01*
X112458248Y-75230000D01*
X112333370Y-75217701D01*
X112173145Y-75169097D01*
X112025480Y-75090169D01*
X111896051Y-74983949D01*
X111789831Y-74854520D01*
X111710903Y-74706855D01*
X111662299Y-74546630D01*
X111645888Y-74380000D01*
X111662299Y-74213370D01*
X111710903Y-74053145D01*
X111789831Y-73905480D01*
X111896051Y-73776051D01*
X112025480Y-73669831D01*
X112173145Y-73590903D01*
X112333370Y-73542299D01*
X112458248Y-73530000D01*
X112541752Y-73530000D01*
X112666630Y-73542299D01*
X112666630Y-73542299D01*
G37*
G36*
X129553992Y-72454076D02*
X129587883Y-72464357D01*
X129619111Y-72481048D01*
X129646485Y-72503515D01*
X129668952Y-72530889D01*
X129685643Y-72562117D01*
X129695924Y-72596008D01*
X129700000Y-72637391D01*
X129700000Y-73237609D01*
X129695924Y-73278992D01*
X129685643Y-73312883D01*
X129668952Y-73344111D01*
X129646485Y-73371485D01*
X129619111Y-73393952D01*
X129587883Y-73410643D01*
X129553992Y-73420924D01*
X129512609Y-73425000D01*
X128487391Y-73425000D01*
X128446008Y-73420924D01*
X128412117Y-73410643D01*
X128380889Y-73393952D01*
X128353515Y-73371485D01*
X128331048Y-73344111D01*
X128314357Y-73312883D01*
X128304076Y-73278992D01*
X128300000Y-73237609D01*
X128300000Y-72637391D01*
X128304076Y-72596008D01*
X128314357Y-72562117D01*
X128331048Y-72530889D01*
X128353515Y-72503515D01*
X128380889Y-72481048D01*
X128412117Y-72464357D01*
X128446008Y-72454076D01*
X128487391Y-72450000D01*
X129512609Y-72450000D01*
X129553992Y-72454076D01*
X129553992Y-72454076D01*
G37*
G36*
X125053992Y-72454076D02*
X125087883Y-72464357D01*
X125119111Y-72481048D01*
X125146485Y-72503515D01*
X125168952Y-72530889D01*
X125185643Y-72562117D01*
X125195924Y-72596008D01*
X125200000Y-72637391D01*
X125200000Y-73237609D01*
X125195924Y-73278992D01*
X125185643Y-73312883D01*
X125168952Y-73344111D01*
X125146485Y-73371485D01*
X125119111Y-73393952D01*
X125087883Y-73410643D01*
X125053992Y-73420924D01*
X125012609Y-73425000D01*
X123987391Y-73425000D01*
X123946008Y-73420924D01*
X123912117Y-73410643D01*
X123880889Y-73393952D01*
X123853515Y-73371485D01*
X123831048Y-73344111D01*
X123814357Y-73312883D01*
X123804076Y-73278992D01*
X123800000Y-73237609D01*
X123800000Y-72637391D01*
X123804076Y-72596008D01*
X123814357Y-72562117D01*
X123831048Y-72530889D01*
X123853515Y-72503515D01*
X123880889Y-72481048D01*
X123912117Y-72464357D01*
X123946008Y-72454076D01*
X123987391Y-72450000D01*
X125012609Y-72450000D01*
X125053992Y-72454076D01*
X125053992Y-72454076D01*
G37*
G36*
X140666630Y-71342299D02*
X140826855Y-71390903D01*
X140974520Y-71469831D01*
X141103949Y-71576051D01*
X141210169Y-71705480D01*
X141289097Y-71853145D01*
X141337701Y-72013370D01*
X141354112Y-72180000D01*
X141337701Y-72346630D01*
X141289097Y-72506855D01*
X141210169Y-72654520D01*
X141103949Y-72783949D01*
X140974520Y-72890169D01*
X140826855Y-72969097D01*
X140666630Y-73017701D01*
X140541752Y-73030000D01*
X140458248Y-73030000D01*
X140333370Y-73017701D01*
X140173145Y-72969097D01*
X140025480Y-72890169D01*
X139896051Y-72783949D01*
X139789831Y-72654520D01*
X139710903Y-72506855D01*
X139662299Y-72346630D01*
X139645888Y-72180000D01*
X139662299Y-72013370D01*
X139710903Y-71853145D01*
X139789831Y-71705480D01*
X139896051Y-71576051D01*
X140025480Y-71469831D01*
X140173145Y-71390903D01*
X140333370Y-71342299D01*
X140458248Y-71330000D01*
X140541752Y-71330000D01*
X140666630Y-71342299D01*
X140666630Y-71342299D01*
G37*
G36*
X112666630Y-71002299D02*
X112826855Y-71050903D01*
X112974520Y-71129831D01*
X113103949Y-71236051D01*
X113210169Y-71365480D01*
X113289097Y-71513145D01*
X113337701Y-71673370D01*
X113354112Y-71840000D01*
X113337701Y-72006630D01*
X113289097Y-72166855D01*
X113210169Y-72314520D01*
X113103949Y-72443949D01*
X112974520Y-72550169D01*
X112826855Y-72629097D01*
X112666630Y-72677701D01*
X112541752Y-72690000D01*
X112458248Y-72690000D01*
X112333370Y-72677701D01*
X112173145Y-72629097D01*
X112025480Y-72550169D01*
X111896051Y-72443949D01*
X111789831Y-72314520D01*
X111710903Y-72166855D01*
X111662299Y-72006630D01*
X111645888Y-71840000D01*
X111662299Y-71673370D01*
X111710903Y-71513145D01*
X111789831Y-71365480D01*
X111896051Y-71236051D01*
X112025480Y-71129831D01*
X112173145Y-71050903D01*
X112333370Y-71002299D01*
X112458248Y-70990000D01*
X112541752Y-70990000D01*
X112666630Y-71002299D01*
X112666630Y-71002299D01*
G37*
G36*
X125053992Y-70579076D02*
X125087883Y-70589357D01*
X125119111Y-70606048D01*
X125146485Y-70628515D01*
X125168952Y-70655889D01*
X125185643Y-70687117D01*
X125195924Y-70721008D01*
X125200000Y-70762391D01*
X125200000Y-71362609D01*
X125195924Y-71403992D01*
X125185643Y-71437883D01*
X125168952Y-71469111D01*
X125146485Y-71496485D01*
X125119111Y-71518952D01*
X125087883Y-71535643D01*
X125053992Y-71545924D01*
X125012609Y-71550000D01*
X123987391Y-71550000D01*
X123946008Y-71545924D01*
X123912117Y-71535643D01*
X123880889Y-71518952D01*
X123853515Y-71496485D01*
X123831048Y-71469111D01*
X123814357Y-71437883D01*
X123804076Y-71403992D01*
X123800000Y-71362609D01*
X123800000Y-70762391D01*
X123804076Y-70721008D01*
X123814357Y-70687117D01*
X123831048Y-70655889D01*
X123853515Y-70628515D01*
X123880889Y-70606048D01*
X123912117Y-70589357D01*
X123946008Y-70579076D01*
X123987391Y-70575000D01*
X125012609Y-70575000D01*
X125053992Y-70579076D01*
X125053992Y-70579076D01*
G37*
G36*
X129553992Y-70579076D02*
X129587883Y-70589357D01*
X129619111Y-70606048D01*
X129646485Y-70628515D01*
X129668952Y-70655889D01*
X129685643Y-70687117D01*
X129695924Y-70721008D01*
X129700000Y-70762391D01*
X129700000Y-71362609D01*
X129695924Y-71403992D01*
X129685643Y-71437883D01*
X129668952Y-71469111D01*
X129646485Y-71496485D01*
X129619111Y-71518952D01*
X129587883Y-71535643D01*
X129553992Y-71545924D01*
X129512609Y-71550000D01*
X128487391Y-71550000D01*
X128446008Y-71545924D01*
X128412117Y-71535643D01*
X128380889Y-71518952D01*
X128353515Y-71496485D01*
X128331048Y-71469111D01*
X128314357Y-71437883D01*
X128304076Y-71403992D01*
X128300000Y-71362609D01*
X128300000Y-70762391D01*
X128304076Y-70721008D01*
X128314357Y-70687117D01*
X128331048Y-70655889D01*
X128353515Y-70628515D01*
X128380889Y-70606048D01*
X128412117Y-70589357D01*
X128446008Y-70579076D01*
X128487391Y-70575000D01*
X129512609Y-70575000D01*
X129553992Y-70579076D01*
X129553992Y-70579076D01*
G37*
G36*
X140666630Y-68802299D02*
X140826855Y-68850903D01*
X140974520Y-68929831D01*
X141103949Y-69036051D01*
X141210169Y-69165480D01*
X141289097Y-69313145D01*
X141337701Y-69473370D01*
X141354112Y-69640000D01*
X141337701Y-69806630D01*
X141289097Y-69966855D01*
X141210169Y-70114520D01*
X141103949Y-70243949D01*
X140974520Y-70350169D01*
X140826855Y-70429097D01*
X140666630Y-70477701D01*
X140541752Y-70490000D01*
X140458248Y-70490000D01*
X140333370Y-70477701D01*
X140173145Y-70429097D01*
X140025480Y-70350169D01*
X139896051Y-70243949D01*
X139789831Y-70114520D01*
X139710903Y-69966855D01*
X139662299Y-69806630D01*
X139645888Y-69640000D01*
X139662299Y-69473370D01*
X139710903Y-69313145D01*
X139789831Y-69165480D01*
X139896051Y-69036051D01*
X140025480Y-68929831D01*
X140173145Y-68850903D01*
X140333370Y-68802299D01*
X140458248Y-68790000D01*
X140541752Y-68790000D01*
X140666630Y-68802299D01*
X140666630Y-68802299D01*
G37*
G36*
X113350000Y-70150000D02*
X111650000Y-70150000D01*
X111650000Y-68450000D01*
X113350000Y-68450000D01*
X113350000Y-70150000D01*
X113350000Y-70150000D01*
G37*
G36*
X122786630Y-62662299D02*
X122946855Y-62710903D01*
X123094520Y-62789831D01*
X123223949Y-62896051D01*
X123330169Y-63025480D01*
X123409097Y-63173145D01*
X123457701Y-63333370D01*
X123474112Y-63500000D01*
X123457701Y-63666630D01*
X123409097Y-63826855D01*
X123330169Y-63974520D01*
X123223949Y-64103949D01*
X123094520Y-64210169D01*
X122946855Y-64289097D01*
X122786630Y-64337701D01*
X122661752Y-64350000D01*
X122578248Y-64350000D01*
X122453370Y-64337701D01*
X122293145Y-64289097D01*
X122145480Y-64210169D01*
X122016051Y-64103949D01*
X121909831Y-63974520D01*
X121830903Y-63826855D01*
X121782299Y-63666630D01*
X121765888Y-63500000D01*
X121782299Y-63333370D01*
X121830903Y-63173145D01*
X121909831Y-63025480D01*
X122016051Y-62896051D01*
X122145480Y-62789831D01*
X122293145Y-62710903D01*
X122453370Y-62662299D01*
X122578248Y-62650000D01*
X122661752Y-62650000D01*
X122786630Y-62662299D01*
X122786630Y-62662299D01*
G37*
G36*
X117706630Y-62662299D02*
X117866855Y-62710903D01*
X118014520Y-62789831D01*
X118143949Y-62896051D01*
X118250169Y-63025480D01*
X118329097Y-63173145D01*
X118377701Y-63333370D01*
X118394112Y-63500000D01*
X118377701Y-63666630D01*
X118329097Y-63826855D01*
X118250169Y-63974520D01*
X118143949Y-64103949D01*
X118014520Y-64210169D01*
X117866855Y-64289097D01*
X117706630Y-64337701D01*
X117581752Y-64350000D01*
X117498248Y-64350000D01*
X117373370Y-64337701D01*
X117213145Y-64289097D01*
X117065480Y-64210169D01*
X116936051Y-64103949D01*
X116829831Y-63974520D01*
X116750903Y-63826855D01*
X116702299Y-63666630D01*
X116685888Y-63500000D01*
X116702299Y-63333370D01*
X116750903Y-63173145D01*
X116829831Y-63025480D01*
X116936051Y-62896051D01*
X117065480Y-62789831D01*
X117213145Y-62710903D01*
X117373370Y-62662299D01*
X117498248Y-62650000D01*
X117581752Y-62650000D01*
X117706630Y-62662299D01*
X117706630Y-62662299D01*
G37*
G36*
X115850000Y-64350000D02*
X114150000Y-64350000D01*
X114150000Y-62650000D01*
X115850000Y-62650000D01*
X115850000Y-64350000D01*
X115850000Y-64350000D01*
G37*
G36*
X120246630Y-62662299D02*
X120406855Y-62710903D01*
X120554520Y-62789831D01*
X120683949Y-62896051D01*
X120790169Y-63025480D01*
X120869097Y-63173145D01*
X120917701Y-63333370D01*
X120934112Y-63500000D01*
X120917701Y-63666630D01*
X120869097Y-63826855D01*
X120790169Y-63974520D01*
X120683949Y-64103949D01*
X120554520Y-64210169D01*
X120406855Y-64289097D01*
X120246630Y-64337701D01*
X120121752Y-64350000D01*
X120038248Y-64350000D01*
X119913370Y-64337701D01*
X119753145Y-64289097D01*
X119605480Y-64210169D01*
X119476051Y-64103949D01*
X119369831Y-63974520D01*
X119290903Y-63826855D01*
X119242299Y-63666630D01*
X119225888Y-63500000D01*
X119242299Y-63333370D01*
X119290903Y-63173145D01*
X119369831Y-63025480D01*
X119476051Y-62896051D01*
X119605480Y-62789831D01*
X119753145Y-62710903D01*
X119913370Y-62662299D01*
X120038248Y-62650000D01*
X120121752Y-62650000D01*
X120246630Y-62662299D01*
X120246630Y-62662299D01*
G37*
G36*
X138026630Y-62662299D02*
X138186855Y-62710903D01*
X138334520Y-62789831D01*
X138463949Y-62896051D01*
X138570169Y-63025480D01*
X138649097Y-63173145D01*
X138697701Y-63333370D01*
X138714112Y-63500000D01*
X138697701Y-63666630D01*
X138649097Y-63826855D01*
X138570169Y-63974520D01*
X138463949Y-64103949D01*
X138334520Y-64210169D01*
X138186855Y-64289097D01*
X138026630Y-64337701D01*
X137901752Y-64350000D01*
X137818248Y-64350000D01*
X137693370Y-64337701D01*
X137533145Y-64289097D01*
X137385480Y-64210169D01*
X137256051Y-64103949D01*
X137149831Y-63974520D01*
X137070903Y-63826855D01*
X137022299Y-63666630D01*
X137005888Y-63500000D01*
X137022299Y-63333370D01*
X137070903Y-63173145D01*
X137149831Y-63025480D01*
X137256051Y-62896051D01*
X137385480Y-62789831D01*
X137533145Y-62710903D01*
X137693370Y-62662299D01*
X137818248Y-62650000D01*
X137901752Y-62650000D01*
X138026630Y-62662299D01*
X138026630Y-62662299D01*
G37*
G36*
X135486630Y-62662299D02*
X135646855Y-62710903D01*
X135794520Y-62789831D01*
X135923949Y-62896051D01*
X136030169Y-63025480D01*
X136109097Y-63173145D01*
X136157701Y-63333370D01*
X136174112Y-63500000D01*
X136157701Y-63666630D01*
X136109097Y-63826855D01*
X136030169Y-63974520D01*
X135923949Y-64103949D01*
X135794520Y-64210169D01*
X135646855Y-64289097D01*
X135486630Y-64337701D01*
X135361752Y-64350000D01*
X135278248Y-64350000D01*
X135153370Y-64337701D01*
X134993145Y-64289097D01*
X134845480Y-64210169D01*
X134716051Y-64103949D01*
X134609831Y-63974520D01*
X134530903Y-63826855D01*
X134482299Y-63666630D01*
X134465888Y-63500000D01*
X134482299Y-63333370D01*
X134530903Y-63173145D01*
X134609831Y-63025480D01*
X134716051Y-62896051D01*
X134845480Y-62789831D01*
X134993145Y-62710903D01*
X135153370Y-62662299D01*
X135278248Y-62650000D01*
X135361752Y-62650000D01*
X135486630Y-62662299D01*
X135486630Y-62662299D01*
G37*
G36*
X132946630Y-62662299D02*
X133106855Y-62710903D01*
X133254520Y-62789831D01*
X133383949Y-62896051D01*
X133490169Y-63025480D01*
X133569097Y-63173145D01*
X133617701Y-63333370D01*
X133634112Y-63500000D01*
X133617701Y-63666630D01*
X133569097Y-63826855D01*
X133490169Y-63974520D01*
X133383949Y-64103949D01*
X133254520Y-64210169D01*
X133106855Y-64289097D01*
X132946630Y-64337701D01*
X132821752Y-64350000D01*
X132738248Y-64350000D01*
X132613370Y-64337701D01*
X132453145Y-64289097D01*
X132305480Y-64210169D01*
X132176051Y-64103949D01*
X132069831Y-63974520D01*
X131990903Y-63826855D01*
X131942299Y-63666630D01*
X131925888Y-63500000D01*
X131942299Y-63333370D01*
X131990903Y-63173145D01*
X132069831Y-63025480D01*
X132176051Y-62896051D01*
X132305480Y-62789831D01*
X132453145Y-62710903D01*
X132613370Y-62662299D01*
X132738248Y-62650000D01*
X132821752Y-62650000D01*
X132946630Y-62662299D01*
X132946630Y-62662299D01*
G37*
G36*
X130406630Y-62662299D02*
X130566855Y-62710903D01*
X130714520Y-62789831D01*
X130843949Y-62896051D01*
X130950169Y-63025480D01*
X131029097Y-63173145D01*
X131077701Y-63333370D01*
X131094112Y-63500000D01*
X131077701Y-63666630D01*
X131029097Y-63826855D01*
X130950169Y-63974520D01*
X130843949Y-64103949D01*
X130714520Y-64210169D01*
X130566855Y-64289097D01*
X130406630Y-64337701D01*
X130281752Y-64350000D01*
X130198248Y-64350000D01*
X130073370Y-64337701D01*
X129913145Y-64289097D01*
X129765480Y-64210169D01*
X129636051Y-64103949D01*
X129529831Y-63974520D01*
X129450903Y-63826855D01*
X129402299Y-63666630D01*
X129385888Y-63500000D01*
X129402299Y-63333370D01*
X129450903Y-63173145D01*
X129529831Y-63025480D01*
X129636051Y-62896051D01*
X129765480Y-62789831D01*
X129913145Y-62710903D01*
X130073370Y-62662299D01*
X130198248Y-62650000D01*
X130281752Y-62650000D01*
X130406630Y-62662299D01*
X130406630Y-62662299D01*
G37*
G36*
X127866630Y-62662299D02*
X128026855Y-62710903D01*
X128174520Y-62789831D01*
X128303949Y-62896051D01*
X128410169Y-63025480D01*
X128489097Y-63173145D01*
X128537701Y-63333370D01*
X128554112Y-63500000D01*
X128537701Y-63666630D01*
X128489097Y-63826855D01*
X128410169Y-63974520D01*
X128303949Y-64103949D01*
X128174520Y-64210169D01*
X128026855Y-64289097D01*
X127866630Y-64337701D01*
X127741752Y-64350000D01*
X127658248Y-64350000D01*
X127533370Y-64337701D01*
X127373145Y-64289097D01*
X127225480Y-64210169D01*
X127096051Y-64103949D01*
X126989831Y-63974520D01*
X126910903Y-63826855D01*
X126862299Y-63666630D01*
X126845888Y-63500000D01*
X126862299Y-63333370D01*
X126910903Y-63173145D01*
X126989831Y-63025480D01*
X127096051Y-62896051D01*
X127225480Y-62789831D01*
X127373145Y-62710903D01*
X127533370Y-62662299D01*
X127658248Y-62650000D01*
X127741752Y-62650000D01*
X127866630Y-62662299D01*
X127866630Y-62662299D01*
G37*
G36*
X125326630Y-62662299D02*
X125486855Y-62710903D01*
X125634520Y-62789831D01*
X125763949Y-62896051D01*
X125870169Y-63025480D01*
X125949097Y-63173145D01*
X125997701Y-63333370D01*
X126014112Y-63500000D01*
X125997701Y-63666630D01*
X125949097Y-63826855D01*
X125870169Y-63974520D01*
X125763949Y-64103949D01*
X125634520Y-64210169D01*
X125486855Y-64289097D01*
X125326630Y-64337701D01*
X125201752Y-64350000D01*
X125118248Y-64350000D01*
X124993370Y-64337701D01*
X124833145Y-64289097D01*
X124685480Y-64210169D01*
X124556051Y-64103949D01*
X124449831Y-63974520D01*
X124370903Y-63826855D01*
X124322299Y-63666630D01*
X124305888Y-63500000D01*
X124322299Y-63333370D01*
X124370903Y-63173145D01*
X124449831Y-63025480D01*
X124556051Y-62896051D01*
X124685480Y-62789831D01*
X124833145Y-62710903D01*
X124993370Y-62662299D01*
X125118248Y-62650000D01*
X125201752Y-62650000D01*
X125326630Y-62662299D01*
X125326630Y-62662299D01*
G37*
M02*
