G04 #@! TF.GenerationSoftware,KiCad,Pcbnew,5.0.2+dfsg1-1~bpo9+1*
G04 #@! TF.CreationDate,2019-04-25T13:48:24-07:00*
G04 #@! TF.ProjectId,HW,48572e6b-6963-4616-945f-706362585858,rev?*
G04 #@! TF.SameCoordinates,Original*
G04 #@! TF.FileFunction,Paste,Top*
G04 #@! TF.FilePolarity,Positive*
%FSLAX46Y46*%
G04 Gerber Fmt 4.6, Leading zero omitted, Abs format (unit mm)*
G04 Created by KiCad (PCBNEW 5.0.2+dfsg1-1~bpo9+1) date Thu 25 Apr 2019 01:48:24 PM PDT*
%MOMM*%
%LPD*%
G01*
G04 APERTURE LIST*
%ADD10R,1.200000X0.900000*%
%ADD11R,0.900000X1.200000*%
%ADD12C,0.100000*%
%ADD13C,0.975000*%
%ADD14R,0.600000X1.550000*%
%ADD15R,1.550000X0.600000*%
%ADD16R,0.250000X1.300000*%
%ADD17R,1.300000X0.250000*%
%ADD18R,2.200000X1.600000*%
G04 APERTURE END LIST*
D10*
G04 #@! TO.C,D2*
X133500000Y-134850000D03*
X133500000Y-138150000D03*
G04 #@! TD*
G04 #@! TO.C,D1*
X118000000Y-135350000D03*
X118000000Y-138650000D03*
G04 #@! TD*
D11*
G04 #@! TO.C,D4*
X124650000Y-94000000D03*
X121350000Y-94000000D03*
G04 #@! TD*
G04 #@! TO.C,D3*
X116350000Y-94000000D03*
X119650000Y-94000000D03*
G04 #@! TD*
D12*
G04 #@! TO.C,R19*
G36*
X131080142Y-120801174D02*
X131103803Y-120804684D01*
X131127007Y-120810496D01*
X131149529Y-120818554D01*
X131171153Y-120828782D01*
X131191670Y-120841079D01*
X131210883Y-120855329D01*
X131228607Y-120871393D01*
X131244671Y-120889117D01*
X131258921Y-120908330D01*
X131271218Y-120928847D01*
X131281446Y-120950471D01*
X131289504Y-120972993D01*
X131295316Y-120996197D01*
X131298826Y-121019858D01*
X131300000Y-121043750D01*
X131300000Y-121956250D01*
X131298826Y-121980142D01*
X131295316Y-122003803D01*
X131289504Y-122027007D01*
X131281446Y-122049529D01*
X131271218Y-122071153D01*
X131258921Y-122091670D01*
X131244671Y-122110883D01*
X131228607Y-122128607D01*
X131210883Y-122144671D01*
X131191670Y-122158921D01*
X131171153Y-122171218D01*
X131149529Y-122181446D01*
X131127007Y-122189504D01*
X131103803Y-122195316D01*
X131080142Y-122198826D01*
X131056250Y-122200000D01*
X130568750Y-122200000D01*
X130544858Y-122198826D01*
X130521197Y-122195316D01*
X130497993Y-122189504D01*
X130475471Y-122181446D01*
X130453847Y-122171218D01*
X130433330Y-122158921D01*
X130414117Y-122144671D01*
X130396393Y-122128607D01*
X130380329Y-122110883D01*
X130366079Y-122091670D01*
X130353782Y-122071153D01*
X130343554Y-122049529D01*
X130335496Y-122027007D01*
X130329684Y-122003803D01*
X130326174Y-121980142D01*
X130325000Y-121956250D01*
X130325000Y-121043750D01*
X130326174Y-121019858D01*
X130329684Y-120996197D01*
X130335496Y-120972993D01*
X130343554Y-120950471D01*
X130353782Y-120928847D01*
X130366079Y-120908330D01*
X130380329Y-120889117D01*
X130396393Y-120871393D01*
X130414117Y-120855329D01*
X130433330Y-120841079D01*
X130453847Y-120828782D01*
X130475471Y-120818554D01*
X130497993Y-120810496D01*
X130521197Y-120804684D01*
X130544858Y-120801174D01*
X130568750Y-120800000D01*
X131056250Y-120800000D01*
X131080142Y-120801174D01*
X131080142Y-120801174D01*
G37*
D13*
X130812500Y-121500000D03*
D12*
G36*
X132955142Y-120801174D02*
X132978803Y-120804684D01*
X133002007Y-120810496D01*
X133024529Y-120818554D01*
X133046153Y-120828782D01*
X133066670Y-120841079D01*
X133085883Y-120855329D01*
X133103607Y-120871393D01*
X133119671Y-120889117D01*
X133133921Y-120908330D01*
X133146218Y-120928847D01*
X133156446Y-120950471D01*
X133164504Y-120972993D01*
X133170316Y-120996197D01*
X133173826Y-121019858D01*
X133175000Y-121043750D01*
X133175000Y-121956250D01*
X133173826Y-121980142D01*
X133170316Y-122003803D01*
X133164504Y-122027007D01*
X133156446Y-122049529D01*
X133146218Y-122071153D01*
X133133921Y-122091670D01*
X133119671Y-122110883D01*
X133103607Y-122128607D01*
X133085883Y-122144671D01*
X133066670Y-122158921D01*
X133046153Y-122171218D01*
X133024529Y-122181446D01*
X133002007Y-122189504D01*
X132978803Y-122195316D01*
X132955142Y-122198826D01*
X132931250Y-122200000D01*
X132443750Y-122200000D01*
X132419858Y-122198826D01*
X132396197Y-122195316D01*
X132372993Y-122189504D01*
X132350471Y-122181446D01*
X132328847Y-122171218D01*
X132308330Y-122158921D01*
X132289117Y-122144671D01*
X132271393Y-122128607D01*
X132255329Y-122110883D01*
X132241079Y-122091670D01*
X132228782Y-122071153D01*
X132218554Y-122049529D01*
X132210496Y-122027007D01*
X132204684Y-122003803D01*
X132201174Y-121980142D01*
X132200000Y-121956250D01*
X132200000Y-121043750D01*
X132201174Y-121019858D01*
X132204684Y-120996197D01*
X132210496Y-120972993D01*
X132218554Y-120950471D01*
X132228782Y-120928847D01*
X132241079Y-120908330D01*
X132255329Y-120889117D01*
X132271393Y-120871393D01*
X132289117Y-120855329D01*
X132308330Y-120841079D01*
X132328847Y-120828782D01*
X132350471Y-120818554D01*
X132372993Y-120810496D01*
X132396197Y-120804684D01*
X132419858Y-120801174D01*
X132443750Y-120800000D01*
X132931250Y-120800000D01*
X132955142Y-120801174D01*
X132955142Y-120801174D01*
G37*
D13*
X132687500Y-121500000D03*
G04 #@! TD*
D12*
G04 #@! TO.C,R18*
G36*
X137480142Y-117826174D02*
X137503803Y-117829684D01*
X137527007Y-117835496D01*
X137549529Y-117843554D01*
X137571153Y-117853782D01*
X137591670Y-117866079D01*
X137610883Y-117880329D01*
X137628607Y-117896393D01*
X137644671Y-117914117D01*
X137658921Y-117933330D01*
X137671218Y-117953847D01*
X137681446Y-117975471D01*
X137689504Y-117997993D01*
X137695316Y-118021197D01*
X137698826Y-118044858D01*
X137700000Y-118068750D01*
X137700000Y-118556250D01*
X137698826Y-118580142D01*
X137695316Y-118603803D01*
X137689504Y-118627007D01*
X137681446Y-118649529D01*
X137671218Y-118671153D01*
X137658921Y-118691670D01*
X137644671Y-118710883D01*
X137628607Y-118728607D01*
X137610883Y-118744671D01*
X137591670Y-118758921D01*
X137571153Y-118771218D01*
X137549529Y-118781446D01*
X137527007Y-118789504D01*
X137503803Y-118795316D01*
X137480142Y-118798826D01*
X137456250Y-118800000D01*
X136543750Y-118800000D01*
X136519858Y-118798826D01*
X136496197Y-118795316D01*
X136472993Y-118789504D01*
X136450471Y-118781446D01*
X136428847Y-118771218D01*
X136408330Y-118758921D01*
X136389117Y-118744671D01*
X136371393Y-118728607D01*
X136355329Y-118710883D01*
X136341079Y-118691670D01*
X136328782Y-118671153D01*
X136318554Y-118649529D01*
X136310496Y-118627007D01*
X136304684Y-118603803D01*
X136301174Y-118580142D01*
X136300000Y-118556250D01*
X136300000Y-118068750D01*
X136301174Y-118044858D01*
X136304684Y-118021197D01*
X136310496Y-117997993D01*
X136318554Y-117975471D01*
X136328782Y-117953847D01*
X136341079Y-117933330D01*
X136355329Y-117914117D01*
X136371393Y-117896393D01*
X136389117Y-117880329D01*
X136408330Y-117866079D01*
X136428847Y-117853782D01*
X136450471Y-117843554D01*
X136472993Y-117835496D01*
X136496197Y-117829684D01*
X136519858Y-117826174D01*
X136543750Y-117825000D01*
X137456250Y-117825000D01*
X137480142Y-117826174D01*
X137480142Y-117826174D01*
G37*
D13*
X137000000Y-118312500D03*
D12*
G36*
X137480142Y-119701174D02*
X137503803Y-119704684D01*
X137527007Y-119710496D01*
X137549529Y-119718554D01*
X137571153Y-119728782D01*
X137591670Y-119741079D01*
X137610883Y-119755329D01*
X137628607Y-119771393D01*
X137644671Y-119789117D01*
X137658921Y-119808330D01*
X137671218Y-119828847D01*
X137681446Y-119850471D01*
X137689504Y-119872993D01*
X137695316Y-119896197D01*
X137698826Y-119919858D01*
X137700000Y-119943750D01*
X137700000Y-120431250D01*
X137698826Y-120455142D01*
X137695316Y-120478803D01*
X137689504Y-120502007D01*
X137681446Y-120524529D01*
X137671218Y-120546153D01*
X137658921Y-120566670D01*
X137644671Y-120585883D01*
X137628607Y-120603607D01*
X137610883Y-120619671D01*
X137591670Y-120633921D01*
X137571153Y-120646218D01*
X137549529Y-120656446D01*
X137527007Y-120664504D01*
X137503803Y-120670316D01*
X137480142Y-120673826D01*
X137456250Y-120675000D01*
X136543750Y-120675000D01*
X136519858Y-120673826D01*
X136496197Y-120670316D01*
X136472993Y-120664504D01*
X136450471Y-120656446D01*
X136428847Y-120646218D01*
X136408330Y-120633921D01*
X136389117Y-120619671D01*
X136371393Y-120603607D01*
X136355329Y-120585883D01*
X136341079Y-120566670D01*
X136328782Y-120546153D01*
X136318554Y-120524529D01*
X136310496Y-120502007D01*
X136304684Y-120478803D01*
X136301174Y-120455142D01*
X136300000Y-120431250D01*
X136300000Y-119943750D01*
X136301174Y-119919858D01*
X136304684Y-119896197D01*
X136310496Y-119872993D01*
X136318554Y-119850471D01*
X136328782Y-119828847D01*
X136341079Y-119808330D01*
X136355329Y-119789117D01*
X136371393Y-119771393D01*
X136389117Y-119755329D01*
X136408330Y-119741079D01*
X136428847Y-119728782D01*
X136450471Y-119718554D01*
X136472993Y-119710496D01*
X136496197Y-119704684D01*
X136519858Y-119701174D01*
X136543750Y-119700000D01*
X137456250Y-119700000D01*
X137480142Y-119701174D01*
X137480142Y-119701174D01*
G37*
D13*
X137000000Y-120187500D03*
G04 #@! TD*
D12*
G04 #@! TO.C,R13*
G36*
X139980142Y-104826174D02*
X140003803Y-104829684D01*
X140027007Y-104835496D01*
X140049529Y-104843554D01*
X140071153Y-104853782D01*
X140091670Y-104866079D01*
X140110883Y-104880329D01*
X140128607Y-104896393D01*
X140144671Y-104914117D01*
X140158921Y-104933330D01*
X140171218Y-104953847D01*
X140181446Y-104975471D01*
X140189504Y-104997993D01*
X140195316Y-105021197D01*
X140198826Y-105044858D01*
X140200000Y-105068750D01*
X140200000Y-105556250D01*
X140198826Y-105580142D01*
X140195316Y-105603803D01*
X140189504Y-105627007D01*
X140181446Y-105649529D01*
X140171218Y-105671153D01*
X140158921Y-105691670D01*
X140144671Y-105710883D01*
X140128607Y-105728607D01*
X140110883Y-105744671D01*
X140091670Y-105758921D01*
X140071153Y-105771218D01*
X140049529Y-105781446D01*
X140027007Y-105789504D01*
X140003803Y-105795316D01*
X139980142Y-105798826D01*
X139956250Y-105800000D01*
X139043750Y-105800000D01*
X139019858Y-105798826D01*
X138996197Y-105795316D01*
X138972993Y-105789504D01*
X138950471Y-105781446D01*
X138928847Y-105771218D01*
X138908330Y-105758921D01*
X138889117Y-105744671D01*
X138871393Y-105728607D01*
X138855329Y-105710883D01*
X138841079Y-105691670D01*
X138828782Y-105671153D01*
X138818554Y-105649529D01*
X138810496Y-105627007D01*
X138804684Y-105603803D01*
X138801174Y-105580142D01*
X138800000Y-105556250D01*
X138800000Y-105068750D01*
X138801174Y-105044858D01*
X138804684Y-105021197D01*
X138810496Y-104997993D01*
X138818554Y-104975471D01*
X138828782Y-104953847D01*
X138841079Y-104933330D01*
X138855329Y-104914117D01*
X138871393Y-104896393D01*
X138889117Y-104880329D01*
X138908330Y-104866079D01*
X138928847Y-104853782D01*
X138950471Y-104843554D01*
X138972993Y-104835496D01*
X138996197Y-104829684D01*
X139019858Y-104826174D01*
X139043750Y-104825000D01*
X139956250Y-104825000D01*
X139980142Y-104826174D01*
X139980142Y-104826174D01*
G37*
D13*
X139500000Y-105312500D03*
D12*
G36*
X139980142Y-106701174D02*
X140003803Y-106704684D01*
X140027007Y-106710496D01*
X140049529Y-106718554D01*
X140071153Y-106728782D01*
X140091670Y-106741079D01*
X140110883Y-106755329D01*
X140128607Y-106771393D01*
X140144671Y-106789117D01*
X140158921Y-106808330D01*
X140171218Y-106828847D01*
X140181446Y-106850471D01*
X140189504Y-106872993D01*
X140195316Y-106896197D01*
X140198826Y-106919858D01*
X140200000Y-106943750D01*
X140200000Y-107431250D01*
X140198826Y-107455142D01*
X140195316Y-107478803D01*
X140189504Y-107502007D01*
X140181446Y-107524529D01*
X140171218Y-107546153D01*
X140158921Y-107566670D01*
X140144671Y-107585883D01*
X140128607Y-107603607D01*
X140110883Y-107619671D01*
X140091670Y-107633921D01*
X140071153Y-107646218D01*
X140049529Y-107656446D01*
X140027007Y-107664504D01*
X140003803Y-107670316D01*
X139980142Y-107673826D01*
X139956250Y-107675000D01*
X139043750Y-107675000D01*
X139019858Y-107673826D01*
X138996197Y-107670316D01*
X138972993Y-107664504D01*
X138950471Y-107656446D01*
X138928847Y-107646218D01*
X138908330Y-107633921D01*
X138889117Y-107619671D01*
X138871393Y-107603607D01*
X138855329Y-107585883D01*
X138841079Y-107566670D01*
X138828782Y-107546153D01*
X138818554Y-107524529D01*
X138810496Y-107502007D01*
X138804684Y-107478803D01*
X138801174Y-107455142D01*
X138800000Y-107431250D01*
X138800000Y-106943750D01*
X138801174Y-106919858D01*
X138804684Y-106896197D01*
X138810496Y-106872993D01*
X138818554Y-106850471D01*
X138828782Y-106828847D01*
X138841079Y-106808330D01*
X138855329Y-106789117D01*
X138871393Y-106771393D01*
X138889117Y-106755329D01*
X138908330Y-106741079D01*
X138928847Y-106728782D01*
X138950471Y-106718554D01*
X138972993Y-106710496D01*
X138996197Y-106704684D01*
X139019858Y-106701174D01*
X139043750Y-106700000D01*
X139956250Y-106700000D01*
X139980142Y-106701174D01*
X139980142Y-106701174D01*
G37*
D13*
X139500000Y-107187500D03*
G04 #@! TD*
D12*
G04 #@! TO.C,R12*
G36*
X124480142Y-98451174D02*
X124503803Y-98454684D01*
X124527007Y-98460496D01*
X124549529Y-98468554D01*
X124571153Y-98478782D01*
X124591670Y-98491079D01*
X124610883Y-98505329D01*
X124628607Y-98521393D01*
X124644671Y-98539117D01*
X124658921Y-98558330D01*
X124671218Y-98578847D01*
X124681446Y-98600471D01*
X124689504Y-98622993D01*
X124695316Y-98646197D01*
X124698826Y-98669858D01*
X124700000Y-98693750D01*
X124700000Y-99181250D01*
X124698826Y-99205142D01*
X124695316Y-99228803D01*
X124689504Y-99252007D01*
X124681446Y-99274529D01*
X124671218Y-99296153D01*
X124658921Y-99316670D01*
X124644671Y-99335883D01*
X124628607Y-99353607D01*
X124610883Y-99369671D01*
X124591670Y-99383921D01*
X124571153Y-99396218D01*
X124549529Y-99406446D01*
X124527007Y-99414504D01*
X124503803Y-99420316D01*
X124480142Y-99423826D01*
X124456250Y-99425000D01*
X123543750Y-99425000D01*
X123519858Y-99423826D01*
X123496197Y-99420316D01*
X123472993Y-99414504D01*
X123450471Y-99406446D01*
X123428847Y-99396218D01*
X123408330Y-99383921D01*
X123389117Y-99369671D01*
X123371393Y-99353607D01*
X123355329Y-99335883D01*
X123341079Y-99316670D01*
X123328782Y-99296153D01*
X123318554Y-99274529D01*
X123310496Y-99252007D01*
X123304684Y-99228803D01*
X123301174Y-99205142D01*
X123300000Y-99181250D01*
X123300000Y-98693750D01*
X123301174Y-98669858D01*
X123304684Y-98646197D01*
X123310496Y-98622993D01*
X123318554Y-98600471D01*
X123328782Y-98578847D01*
X123341079Y-98558330D01*
X123355329Y-98539117D01*
X123371393Y-98521393D01*
X123389117Y-98505329D01*
X123408330Y-98491079D01*
X123428847Y-98478782D01*
X123450471Y-98468554D01*
X123472993Y-98460496D01*
X123496197Y-98454684D01*
X123519858Y-98451174D01*
X123543750Y-98450000D01*
X124456250Y-98450000D01*
X124480142Y-98451174D01*
X124480142Y-98451174D01*
G37*
D13*
X124000000Y-98937500D03*
D12*
G36*
X124480142Y-96576174D02*
X124503803Y-96579684D01*
X124527007Y-96585496D01*
X124549529Y-96593554D01*
X124571153Y-96603782D01*
X124591670Y-96616079D01*
X124610883Y-96630329D01*
X124628607Y-96646393D01*
X124644671Y-96664117D01*
X124658921Y-96683330D01*
X124671218Y-96703847D01*
X124681446Y-96725471D01*
X124689504Y-96747993D01*
X124695316Y-96771197D01*
X124698826Y-96794858D01*
X124700000Y-96818750D01*
X124700000Y-97306250D01*
X124698826Y-97330142D01*
X124695316Y-97353803D01*
X124689504Y-97377007D01*
X124681446Y-97399529D01*
X124671218Y-97421153D01*
X124658921Y-97441670D01*
X124644671Y-97460883D01*
X124628607Y-97478607D01*
X124610883Y-97494671D01*
X124591670Y-97508921D01*
X124571153Y-97521218D01*
X124549529Y-97531446D01*
X124527007Y-97539504D01*
X124503803Y-97545316D01*
X124480142Y-97548826D01*
X124456250Y-97550000D01*
X123543750Y-97550000D01*
X123519858Y-97548826D01*
X123496197Y-97545316D01*
X123472993Y-97539504D01*
X123450471Y-97531446D01*
X123428847Y-97521218D01*
X123408330Y-97508921D01*
X123389117Y-97494671D01*
X123371393Y-97478607D01*
X123355329Y-97460883D01*
X123341079Y-97441670D01*
X123328782Y-97421153D01*
X123318554Y-97399529D01*
X123310496Y-97377007D01*
X123304684Y-97353803D01*
X123301174Y-97330142D01*
X123300000Y-97306250D01*
X123300000Y-96818750D01*
X123301174Y-96794858D01*
X123304684Y-96771197D01*
X123310496Y-96747993D01*
X123318554Y-96725471D01*
X123328782Y-96703847D01*
X123341079Y-96683330D01*
X123355329Y-96664117D01*
X123371393Y-96646393D01*
X123389117Y-96630329D01*
X123408330Y-96616079D01*
X123428847Y-96603782D01*
X123450471Y-96593554D01*
X123472993Y-96585496D01*
X123496197Y-96579684D01*
X123519858Y-96576174D01*
X123543750Y-96575000D01*
X124456250Y-96575000D01*
X124480142Y-96576174D01*
X124480142Y-96576174D01*
G37*
D13*
X124000000Y-97062500D03*
G04 #@! TD*
D12*
G04 #@! TO.C,R3*
G36*
X111980142Y-98826174D02*
X112003803Y-98829684D01*
X112027007Y-98835496D01*
X112049529Y-98843554D01*
X112071153Y-98853782D01*
X112091670Y-98866079D01*
X112110883Y-98880329D01*
X112128607Y-98896393D01*
X112144671Y-98914117D01*
X112158921Y-98933330D01*
X112171218Y-98953847D01*
X112181446Y-98975471D01*
X112189504Y-98997993D01*
X112195316Y-99021197D01*
X112198826Y-99044858D01*
X112200000Y-99068750D01*
X112200000Y-99556250D01*
X112198826Y-99580142D01*
X112195316Y-99603803D01*
X112189504Y-99627007D01*
X112181446Y-99649529D01*
X112171218Y-99671153D01*
X112158921Y-99691670D01*
X112144671Y-99710883D01*
X112128607Y-99728607D01*
X112110883Y-99744671D01*
X112091670Y-99758921D01*
X112071153Y-99771218D01*
X112049529Y-99781446D01*
X112027007Y-99789504D01*
X112003803Y-99795316D01*
X111980142Y-99798826D01*
X111956250Y-99800000D01*
X111043750Y-99800000D01*
X111019858Y-99798826D01*
X110996197Y-99795316D01*
X110972993Y-99789504D01*
X110950471Y-99781446D01*
X110928847Y-99771218D01*
X110908330Y-99758921D01*
X110889117Y-99744671D01*
X110871393Y-99728607D01*
X110855329Y-99710883D01*
X110841079Y-99691670D01*
X110828782Y-99671153D01*
X110818554Y-99649529D01*
X110810496Y-99627007D01*
X110804684Y-99603803D01*
X110801174Y-99580142D01*
X110800000Y-99556250D01*
X110800000Y-99068750D01*
X110801174Y-99044858D01*
X110804684Y-99021197D01*
X110810496Y-98997993D01*
X110818554Y-98975471D01*
X110828782Y-98953847D01*
X110841079Y-98933330D01*
X110855329Y-98914117D01*
X110871393Y-98896393D01*
X110889117Y-98880329D01*
X110908330Y-98866079D01*
X110928847Y-98853782D01*
X110950471Y-98843554D01*
X110972993Y-98835496D01*
X110996197Y-98829684D01*
X111019858Y-98826174D01*
X111043750Y-98825000D01*
X111956250Y-98825000D01*
X111980142Y-98826174D01*
X111980142Y-98826174D01*
G37*
D13*
X111500000Y-99312500D03*
D12*
G36*
X111980142Y-100701174D02*
X112003803Y-100704684D01*
X112027007Y-100710496D01*
X112049529Y-100718554D01*
X112071153Y-100728782D01*
X112091670Y-100741079D01*
X112110883Y-100755329D01*
X112128607Y-100771393D01*
X112144671Y-100789117D01*
X112158921Y-100808330D01*
X112171218Y-100828847D01*
X112181446Y-100850471D01*
X112189504Y-100872993D01*
X112195316Y-100896197D01*
X112198826Y-100919858D01*
X112200000Y-100943750D01*
X112200000Y-101431250D01*
X112198826Y-101455142D01*
X112195316Y-101478803D01*
X112189504Y-101502007D01*
X112181446Y-101524529D01*
X112171218Y-101546153D01*
X112158921Y-101566670D01*
X112144671Y-101585883D01*
X112128607Y-101603607D01*
X112110883Y-101619671D01*
X112091670Y-101633921D01*
X112071153Y-101646218D01*
X112049529Y-101656446D01*
X112027007Y-101664504D01*
X112003803Y-101670316D01*
X111980142Y-101673826D01*
X111956250Y-101675000D01*
X111043750Y-101675000D01*
X111019858Y-101673826D01*
X110996197Y-101670316D01*
X110972993Y-101664504D01*
X110950471Y-101656446D01*
X110928847Y-101646218D01*
X110908330Y-101633921D01*
X110889117Y-101619671D01*
X110871393Y-101603607D01*
X110855329Y-101585883D01*
X110841079Y-101566670D01*
X110828782Y-101546153D01*
X110818554Y-101524529D01*
X110810496Y-101502007D01*
X110804684Y-101478803D01*
X110801174Y-101455142D01*
X110800000Y-101431250D01*
X110800000Y-100943750D01*
X110801174Y-100919858D01*
X110804684Y-100896197D01*
X110810496Y-100872993D01*
X110818554Y-100850471D01*
X110828782Y-100828847D01*
X110841079Y-100808330D01*
X110855329Y-100789117D01*
X110871393Y-100771393D01*
X110889117Y-100755329D01*
X110908330Y-100741079D01*
X110928847Y-100728782D01*
X110950471Y-100718554D01*
X110972993Y-100710496D01*
X110996197Y-100704684D01*
X111019858Y-100701174D01*
X111043750Y-100700000D01*
X111956250Y-100700000D01*
X111980142Y-100701174D01*
X111980142Y-100701174D01*
G37*
D13*
X111500000Y-101187500D03*
G04 #@! TD*
D12*
G04 #@! TO.C,R4*
G36*
X111980142Y-104451174D02*
X112003803Y-104454684D01*
X112027007Y-104460496D01*
X112049529Y-104468554D01*
X112071153Y-104478782D01*
X112091670Y-104491079D01*
X112110883Y-104505329D01*
X112128607Y-104521393D01*
X112144671Y-104539117D01*
X112158921Y-104558330D01*
X112171218Y-104578847D01*
X112181446Y-104600471D01*
X112189504Y-104622993D01*
X112195316Y-104646197D01*
X112198826Y-104669858D01*
X112200000Y-104693750D01*
X112200000Y-105181250D01*
X112198826Y-105205142D01*
X112195316Y-105228803D01*
X112189504Y-105252007D01*
X112181446Y-105274529D01*
X112171218Y-105296153D01*
X112158921Y-105316670D01*
X112144671Y-105335883D01*
X112128607Y-105353607D01*
X112110883Y-105369671D01*
X112091670Y-105383921D01*
X112071153Y-105396218D01*
X112049529Y-105406446D01*
X112027007Y-105414504D01*
X112003803Y-105420316D01*
X111980142Y-105423826D01*
X111956250Y-105425000D01*
X111043750Y-105425000D01*
X111019858Y-105423826D01*
X110996197Y-105420316D01*
X110972993Y-105414504D01*
X110950471Y-105406446D01*
X110928847Y-105396218D01*
X110908330Y-105383921D01*
X110889117Y-105369671D01*
X110871393Y-105353607D01*
X110855329Y-105335883D01*
X110841079Y-105316670D01*
X110828782Y-105296153D01*
X110818554Y-105274529D01*
X110810496Y-105252007D01*
X110804684Y-105228803D01*
X110801174Y-105205142D01*
X110800000Y-105181250D01*
X110800000Y-104693750D01*
X110801174Y-104669858D01*
X110804684Y-104646197D01*
X110810496Y-104622993D01*
X110818554Y-104600471D01*
X110828782Y-104578847D01*
X110841079Y-104558330D01*
X110855329Y-104539117D01*
X110871393Y-104521393D01*
X110889117Y-104505329D01*
X110908330Y-104491079D01*
X110928847Y-104478782D01*
X110950471Y-104468554D01*
X110972993Y-104460496D01*
X110996197Y-104454684D01*
X111019858Y-104451174D01*
X111043750Y-104450000D01*
X111956250Y-104450000D01*
X111980142Y-104451174D01*
X111980142Y-104451174D01*
G37*
D13*
X111500000Y-104937500D03*
D12*
G36*
X111980142Y-102576174D02*
X112003803Y-102579684D01*
X112027007Y-102585496D01*
X112049529Y-102593554D01*
X112071153Y-102603782D01*
X112091670Y-102616079D01*
X112110883Y-102630329D01*
X112128607Y-102646393D01*
X112144671Y-102664117D01*
X112158921Y-102683330D01*
X112171218Y-102703847D01*
X112181446Y-102725471D01*
X112189504Y-102747993D01*
X112195316Y-102771197D01*
X112198826Y-102794858D01*
X112200000Y-102818750D01*
X112200000Y-103306250D01*
X112198826Y-103330142D01*
X112195316Y-103353803D01*
X112189504Y-103377007D01*
X112181446Y-103399529D01*
X112171218Y-103421153D01*
X112158921Y-103441670D01*
X112144671Y-103460883D01*
X112128607Y-103478607D01*
X112110883Y-103494671D01*
X112091670Y-103508921D01*
X112071153Y-103521218D01*
X112049529Y-103531446D01*
X112027007Y-103539504D01*
X112003803Y-103545316D01*
X111980142Y-103548826D01*
X111956250Y-103550000D01*
X111043750Y-103550000D01*
X111019858Y-103548826D01*
X110996197Y-103545316D01*
X110972993Y-103539504D01*
X110950471Y-103531446D01*
X110928847Y-103521218D01*
X110908330Y-103508921D01*
X110889117Y-103494671D01*
X110871393Y-103478607D01*
X110855329Y-103460883D01*
X110841079Y-103441670D01*
X110828782Y-103421153D01*
X110818554Y-103399529D01*
X110810496Y-103377007D01*
X110804684Y-103353803D01*
X110801174Y-103330142D01*
X110800000Y-103306250D01*
X110800000Y-102818750D01*
X110801174Y-102794858D01*
X110804684Y-102771197D01*
X110810496Y-102747993D01*
X110818554Y-102725471D01*
X110828782Y-102703847D01*
X110841079Y-102683330D01*
X110855329Y-102664117D01*
X110871393Y-102646393D01*
X110889117Y-102630329D01*
X110908330Y-102616079D01*
X110928847Y-102603782D01*
X110950471Y-102593554D01*
X110972993Y-102585496D01*
X110996197Y-102579684D01*
X111019858Y-102576174D01*
X111043750Y-102575000D01*
X111956250Y-102575000D01*
X111980142Y-102576174D01*
X111980142Y-102576174D01*
G37*
D13*
X111500000Y-103062500D03*
G04 #@! TD*
D12*
G04 #@! TO.C,R10*
G36*
X123480142Y-104576174D02*
X123503803Y-104579684D01*
X123527007Y-104585496D01*
X123549529Y-104593554D01*
X123571153Y-104603782D01*
X123591670Y-104616079D01*
X123610883Y-104630329D01*
X123628607Y-104646393D01*
X123644671Y-104664117D01*
X123658921Y-104683330D01*
X123671218Y-104703847D01*
X123681446Y-104725471D01*
X123689504Y-104747993D01*
X123695316Y-104771197D01*
X123698826Y-104794858D01*
X123700000Y-104818750D01*
X123700000Y-105306250D01*
X123698826Y-105330142D01*
X123695316Y-105353803D01*
X123689504Y-105377007D01*
X123681446Y-105399529D01*
X123671218Y-105421153D01*
X123658921Y-105441670D01*
X123644671Y-105460883D01*
X123628607Y-105478607D01*
X123610883Y-105494671D01*
X123591670Y-105508921D01*
X123571153Y-105521218D01*
X123549529Y-105531446D01*
X123527007Y-105539504D01*
X123503803Y-105545316D01*
X123480142Y-105548826D01*
X123456250Y-105550000D01*
X122543750Y-105550000D01*
X122519858Y-105548826D01*
X122496197Y-105545316D01*
X122472993Y-105539504D01*
X122450471Y-105531446D01*
X122428847Y-105521218D01*
X122408330Y-105508921D01*
X122389117Y-105494671D01*
X122371393Y-105478607D01*
X122355329Y-105460883D01*
X122341079Y-105441670D01*
X122328782Y-105421153D01*
X122318554Y-105399529D01*
X122310496Y-105377007D01*
X122304684Y-105353803D01*
X122301174Y-105330142D01*
X122300000Y-105306250D01*
X122300000Y-104818750D01*
X122301174Y-104794858D01*
X122304684Y-104771197D01*
X122310496Y-104747993D01*
X122318554Y-104725471D01*
X122328782Y-104703847D01*
X122341079Y-104683330D01*
X122355329Y-104664117D01*
X122371393Y-104646393D01*
X122389117Y-104630329D01*
X122408330Y-104616079D01*
X122428847Y-104603782D01*
X122450471Y-104593554D01*
X122472993Y-104585496D01*
X122496197Y-104579684D01*
X122519858Y-104576174D01*
X122543750Y-104575000D01*
X123456250Y-104575000D01*
X123480142Y-104576174D01*
X123480142Y-104576174D01*
G37*
D13*
X123000000Y-105062500D03*
D12*
G36*
X123480142Y-106451174D02*
X123503803Y-106454684D01*
X123527007Y-106460496D01*
X123549529Y-106468554D01*
X123571153Y-106478782D01*
X123591670Y-106491079D01*
X123610883Y-106505329D01*
X123628607Y-106521393D01*
X123644671Y-106539117D01*
X123658921Y-106558330D01*
X123671218Y-106578847D01*
X123681446Y-106600471D01*
X123689504Y-106622993D01*
X123695316Y-106646197D01*
X123698826Y-106669858D01*
X123700000Y-106693750D01*
X123700000Y-107181250D01*
X123698826Y-107205142D01*
X123695316Y-107228803D01*
X123689504Y-107252007D01*
X123681446Y-107274529D01*
X123671218Y-107296153D01*
X123658921Y-107316670D01*
X123644671Y-107335883D01*
X123628607Y-107353607D01*
X123610883Y-107369671D01*
X123591670Y-107383921D01*
X123571153Y-107396218D01*
X123549529Y-107406446D01*
X123527007Y-107414504D01*
X123503803Y-107420316D01*
X123480142Y-107423826D01*
X123456250Y-107425000D01*
X122543750Y-107425000D01*
X122519858Y-107423826D01*
X122496197Y-107420316D01*
X122472993Y-107414504D01*
X122450471Y-107406446D01*
X122428847Y-107396218D01*
X122408330Y-107383921D01*
X122389117Y-107369671D01*
X122371393Y-107353607D01*
X122355329Y-107335883D01*
X122341079Y-107316670D01*
X122328782Y-107296153D01*
X122318554Y-107274529D01*
X122310496Y-107252007D01*
X122304684Y-107228803D01*
X122301174Y-107205142D01*
X122300000Y-107181250D01*
X122300000Y-106693750D01*
X122301174Y-106669858D01*
X122304684Y-106646197D01*
X122310496Y-106622993D01*
X122318554Y-106600471D01*
X122328782Y-106578847D01*
X122341079Y-106558330D01*
X122355329Y-106539117D01*
X122371393Y-106521393D01*
X122389117Y-106505329D01*
X122408330Y-106491079D01*
X122428847Y-106478782D01*
X122450471Y-106468554D01*
X122472993Y-106460496D01*
X122496197Y-106454684D01*
X122519858Y-106451174D01*
X122543750Y-106450000D01*
X123456250Y-106450000D01*
X123480142Y-106451174D01*
X123480142Y-106451174D01*
G37*
D13*
X123000000Y-106937500D03*
G04 #@! TD*
D12*
G04 #@! TO.C,R2*
G36*
X121080142Y-85051174D02*
X121103803Y-85054684D01*
X121127007Y-85060496D01*
X121149529Y-85068554D01*
X121171153Y-85078782D01*
X121191670Y-85091079D01*
X121210883Y-85105329D01*
X121228607Y-85121393D01*
X121244671Y-85139117D01*
X121258921Y-85158330D01*
X121271218Y-85178847D01*
X121281446Y-85200471D01*
X121289504Y-85222993D01*
X121295316Y-85246197D01*
X121298826Y-85269858D01*
X121300000Y-85293750D01*
X121300000Y-86206250D01*
X121298826Y-86230142D01*
X121295316Y-86253803D01*
X121289504Y-86277007D01*
X121281446Y-86299529D01*
X121271218Y-86321153D01*
X121258921Y-86341670D01*
X121244671Y-86360883D01*
X121228607Y-86378607D01*
X121210883Y-86394671D01*
X121191670Y-86408921D01*
X121171153Y-86421218D01*
X121149529Y-86431446D01*
X121127007Y-86439504D01*
X121103803Y-86445316D01*
X121080142Y-86448826D01*
X121056250Y-86450000D01*
X120568750Y-86450000D01*
X120544858Y-86448826D01*
X120521197Y-86445316D01*
X120497993Y-86439504D01*
X120475471Y-86431446D01*
X120453847Y-86421218D01*
X120433330Y-86408921D01*
X120414117Y-86394671D01*
X120396393Y-86378607D01*
X120380329Y-86360883D01*
X120366079Y-86341670D01*
X120353782Y-86321153D01*
X120343554Y-86299529D01*
X120335496Y-86277007D01*
X120329684Y-86253803D01*
X120326174Y-86230142D01*
X120325000Y-86206250D01*
X120325000Y-85293750D01*
X120326174Y-85269858D01*
X120329684Y-85246197D01*
X120335496Y-85222993D01*
X120343554Y-85200471D01*
X120353782Y-85178847D01*
X120366079Y-85158330D01*
X120380329Y-85139117D01*
X120396393Y-85121393D01*
X120414117Y-85105329D01*
X120433330Y-85091079D01*
X120453847Y-85078782D01*
X120475471Y-85068554D01*
X120497993Y-85060496D01*
X120521197Y-85054684D01*
X120544858Y-85051174D01*
X120568750Y-85050000D01*
X121056250Y-85050000D01*
X121080142Y-85051174D01*
X121080142Y-85051174D01*
G37*
D13*
X120812500Y-85750000D03*
D12*
G36*
X122955142Y-85051174D02*
X122978803Y-85054684D01*
X123002007Y-85060496D01*
X123024529Y-85068554D01*
X123046153Y-85078782D01*
X123066670Y-85091079D01*
X123085883Y-85105329D01*
X123103607Y-85121393D01*
X123119671Y-85139117D01*
X123133921Y-85158330D01*
X123146218Y-85178847D01*
X123156446Y-85200471D01*
X123164504Y-85222993D01*
X123170316Y-85246197D01*
X123173826Y-85269858D01*
X123175000Y-85293750D01*
X123175000Y-86206250D01*
X123173826Y-86230142D01*
X123170316Y-86253803D01*
X123164504Y-86277007D01*
X123156446Y-86299529D01*
X123146218Y-86321153D01*
X123133921Y-86341670D01*
X123119671Y-86360883D01*
X123103607Y-86378607D01*
X123085883Y-86394671D01*
X123066670Y-86408921D01*
X123046153Y-86421218D01*
X123024529Y-86431446D01*
X123002007Y-86439504D01*
X122978803Y-86445316D01*
X122955142Y-86448826D01*
X122931250Y-86450000D01*
X122443750Y-86450000D01*
X122419858Y-86448826D01*
X122396197Y-86445316D01*
X122372993Y-86439504D01*
X122350471Y-86431446D01*
X122328847Y-86421218D01*
X122308330Y-86408921D01*
X122289117Y-86394671D01*
X122271393Y-86378607D01*
X122255329Y-86360883D01*
X122241079Y-86341670D01*
X122228782Y-86321153D01*
X122218554Y-86299529D01*
X122210496Y-86277007D01*
X122204684Y-86253803D01*
X122201174Y-86230142D01*
X122200000Y-86206250D01*
X122200000Y-85293750D01*
X122201174Y-85269858D01*
X122204684Y-85246197D01*
X122210496Y-85222993D01*
X122218554Y-85200471D01*
X122228782Y-85178847D01*
X122241079Y-85158330D01*
X122255329Y-85139117D01*
X122271393Y-85121393D01*
X122289117Y-85105329D01*
X122308330Y-85091079D01*
X122328847Y-85078782D01*
X122350471Y-85068554D01*
X122372993Y-85060496D01*
X122396197Y-85054684D01*
X122419858Y-85051174D01*
X122443750Y-85050000D01*
X122931250Y-85050000D01*
X122955142Y-85051174D01*
X122955142Y-85051174D01*
G37*
D13*
X122687500Y-85750000D03*
G04 #@! TD*
D12*
G04 #@! TO.C,R17*
G36*
X135830142Y-103551174D02*
X135853803Y-103554684D01*
X135877007Y-103560496D01*
X135899529Y-103568554D01*
X135921153Y-103578782D01*
X135941670Y-103591079D01*
X135960883Y-103605329D01*
X135978607Y-103621393D01*
X135994671Y-103639117D01*
X136008921Y-103658330D01*
X136021218Y-103678847D01*
X136031446Y-103700471D01*
X136039504Y-103722993D01*
X136045316Y-103746197D01*
X136048826Y-103769858D01*
X136050000Y-103793750D01*
X136050000Y-104706250D01*
X136048826Y-104730142D01*
X136045316Y-104753803D01*
X136039504Y-104777007D01*
X136031446Y-104799529D01*
X136021218Y-104821153D01*
X136008921Y-104841670D01*
X135994671Y-104860883D01*
X135978607Y-104878607D01*
X135960883Y-104894671D01*
X135941670Y-104908921D01*
X135921153Y-104921218D01*
X135899529Y-104931446D01*
X135877007Y-104939504D01*
X135853803Y-104945316D01*
X135830142Y-104948826D01*
X135806250Y-104950000D01*
X135318750Y-104950000D01*
X135294858Y-104948826D01*
X135271197Y-104945316D01*
X135247993Y-104939504D01*
X135225471Y-104931446D01*
X135203847Y-104921218D01*
X135183330Y-104908921D01*
X135164117Y-104894671D01*
X135146393Y-104878607D01*
X135130329Y-104860883D01*
X135116079Y-104841670D01*
X135103782Y-104821153D01*
X135093554Y-104799529D01*
X135085496Y-104777007D01*
X135079684Y-104753803D01*
X135076174Y-104730142D01*
X135075000Y-104706250D01*
X135075000Y-103793750D01*
X135076174Y-103769858D01*
X135079684Y-103746197D01*
X135085496Y-103722993D01*
X135093554Y-103700471D01*
X135103782Y-103678847D01*
X135116079Y-103658330D01*
X135130329Y-103639117D01*
X135146393Y-103621393D01*
X135164117Y-103605329D01*
X135183330Y-103591079D01*
X135203847Y-103578782D01*
X135225471Y-103568554D01*
X135247993Y-103560496D01*
X135271197Y-103554684D01*
X135294858Y-103551174D01*
X135318750Y-103550000D01*
X135806250Y-103550000D01*
X135830142Y-103551174D01*
X135830142Y-103551174D01*
G37*
D13*
X135562500Y-104250000D03*
D12*
G36*
X137705142Y-103551174D02*
X137728803Y-103554684D01*
X137752007Y-103560496D01*
X137774529Y-103568554D01*
X137796153Y-103578782D01*
X137816670Y-103591079D01*
X137835883Y-103605329D01*
X137853607Y-103621393D01*
X137869671Y-103639117D01*
X137883921Y-103658330D01*
X137896218Y-103678847D01*
X137906446Y-103700471D01*
X137914504Y-103722993D01*
X137920316Y-103746197D01*
X137923826Y-103769858D01*
X137925000Y-103793750D01*
X137925000Y-104706250D01*
X137923826Y-104730142D01*
X137920316Y-104753803D01*
X137914504Y-104777007D01*
X137906446Y-104799529D01*
X137896218Y-104821153D01*
X137883921Y-104841670D01*
X137869671Y-104860883D01*
X137853607Y-104878607D01*
X137835883Y-104894671D01*
X137816670Y-104908921D01*
X137796153Y-104921218D01*
X137774529Y-104931446D01*
X137752007Y-104939504D01*
X137728803Y-104945316D01*
X137705142Y-104948826D01*
X137681250Y-104950000D01*
X137193750Y-104950000D01*
X137169858Y-104948826D01*
X137146197Y-104945316D01*
X137122993Y-104939504D01*
X137100471Y-104931446D01*
X137078847Y-104921218D01*
X137058330Y-104908921D01*
X137039117Y-104894671D01*
X137021393Y-104878607D01*
X137005329Y-104860883D01*
X136991079Y-104841670D01*
X136978782Y-104821153D01*
X136968554Y-104799529D01*
X136960496Y-104777007D01*
X136954684Y-104753803D01*
X136951174Y-104730142D01*
X136950000Y-104706250D01*
X136950000Y-103793750D01*
X136951174Y-103769858D01*
X136954684Y-103746197D01*
X136960496Y-103722993D01*
X136968554Y-103700471D01*
X136978782Y-103678847D01*
X136991079Y-103658330D01*
X137005329Y-103639117D01*
X137021393Y-103621393D01*
X137039117Y-103605329D01*
X137058330Y-103591079D01*
X137078847Y-103578782D01*
X137100471Y-103568554D01*
X137122993Y-103560496D01*
X137146197Y-103554684D01*
X137169858Y-103551174D01*
X137193750Y-103550000D01*
X137681250Y-103550000D01*
X137705142Y-103551174D01*
X137705142Y-103551174D01*
G37*
D13*
X137437500Y-104250000D03*
G04 #@! TD*
D12*
G04 #@! TO.C,R14*
G36*
X130330142Y-115551174D02*
X130353803Y-115554684D01*
X130377007Y-115560496D01*
X130399529Y-115568554D01*
X130421153Y-115578782D01*
X130441670Y-115591079D01*
X130460883Y-115605329D01*
X130478607Y-115621393D01*
X130494671Y-115639117D01*
X130508921Y-115658330D01*
X130521218Y-115678847D01*
X130531446Y-115700471D01*
X130539504Y-115722993D01*
X130545316Y-115746197D01*
X130548826Y-115769858D01*
X130550000Y-115793750D01*
X130550000Y-116706250D01*
X130548826Y-116730142D01*
X130545316Y-116753803D01*
X130539504Y-116777007D01*
X130531446Y-116799529D01*
X130521218Y-116821153D01*
X130508921Y-116841670D01*
X130494671Y-116860883D01*
X130478607Y-116878607D01*
X130460883Y-116894671D01*
X130441670Y-116908921D01*
X130421153Y-116921218D01*
X130399529Y-116931446D01*
X130377007Y-116939504D01*
X130353803Y-116945316D01*
X130330142Y-116948826D01*
X130306250Y-116950000D01*
X129818750Y-116950000D01*
X129794858Y-116948826D01*
X129771197Y-116945316D01*
X129747993Y-116939504D01*
X129725471Y-116931446D01*
X129703847Y-116921218D01*
X129683330Y-116908921D01*
X129664117Y-116894671D01*
X129646393Y-116878607D01*
X129630329Y-116860883D01*
X129616079Y-116841670D01*
X129603782Y-116821153D01*
X129593554Y-116799529D01*
X129585496Y-116777007D01*
X129579684Y-116753803D01*
X129576174Y-116730142D01*
X129575000Y-116706250D01*
X129575000Y-115793750D01*
X129576174Y-115769858D01*
X129579684Y-115746197D01*
X129585496Y-115722993D01*
X129593554Y-115700471D01*
X129603782Y-115678847D01*
X129616079Y-115658330D01*
X129630329Y-115639117D01*
X129646393Y-115621393D01*
X129664117Y-115605329D01*
X129683330Y-115591079D01*
X129703847Y-115578782D01*
X129725471Y-115568554D01*
X129747993Y-115560496D01*
X129771197Y-115554684D01*
X129794858Y-115551174D01*
X129818750Y-115550000D01*
X130306250Y-115550000D01*
X130330142Y-115551174D01*
X130330142Y-115551174D01*
G37*
D13*
X130062500Y-116250000D03*
D12*
G36*
X132205142Y-115551174D02*
X132228803Y-115554684D01*
X132252007Y-115560496D01*
X132274529Y-115568554D01*
X132296153Y-115578782D01*
X132316670Y-115591079D01*
X132335883Y-115605329D01*
X132353607Y-115621393D01*
X132369671Y-115639117D01*
X132383921Y-115658330D01*
X132396218Y-115678847D01*
X132406446Y-115700471D01*
X132414504Y-115722993D01*
X132420316Y-115746197D01*
X132423826Y-115769858D01*
X132425000Y-115793750D01*
X132425000Y-116706250D01*
X132423826Y-116730142D01*
X132420316Y-116753803D01*
X132414504Y-116777007D01*
X132406446Y-116799529D01*
X132396218Y-116821153D01*
X132383921Y-116841670D01*
X132369671Y-116860883D01*
X132353607Y-116878607D01*
X132335883Y-116894671D01*
X132316670Y-116908921D01*
X132296153Y-116921218D01*
X132274529Y-116931446D01*
X132252007Y-116939504D01*
X132228803Y-116945316D01*
X132205142Y-116948826D01*
X132181250Y-116950000D01*
X131693750Y-116950000D01*
X131669858Y-116948826D01*
X131646197Y-116945316D01*
X131622993Y-116939504D01*
X131600471Y-116931446D01*
X131578847Y-116921218D01*
X131558330Y-116908921D01*
X131539117Y-116894671D01*
X131521393Y-116878607D01*
X131505329Y-116860883D01*
X131491079Y-116841670D01*
X131478782Y-116821153D01*
X131468554Y-116799529D01*
X131460496Y-116777007D01*
X131454684Y-116753803D01*
X131451174Y-116730142D01*
X131450000Y-116706250D01*
X131450000Y-115793750D01*
X131451174Y-115769858D01*
X131454684Y-115746197D01*
X131460496Y-115722993D01*
X131468554Y-115700471D01*
X131478782Y-115678847D01*
X131491079Y-115658330D01*
X131505329Y-115639117D01*
X131521393Y-115621393D01*
X131539117Y-115605329D01*
X131558330Y-115591079D01*
X131578847Y-115578782D01*
X131600471Y-115568554D01*
X131622993Y-115560496D01*
X131646197Y-115554684D01*
X131669858Y-115551174D01*
X131693750Y-115550000D01*
X132181250Y-115550000D01*
X132205142Y-115551174D01*
X132205142Y-115551174D01*
G37*
D13*
X131937500Y-116250000D03*
G04 #@! TD*
D12*
G04 #@! TO.C,R15*
G36*
X135830142Y-105551174D02*
X135853803Y-105554684D01*
X135877007Y-105560496D01*
X135899529Y-105568554D01*
X135921153Y-105578782D01*
X135941670Y-105591079D01*
X135960883Y-105605329D01*
X135978607Y-105621393D01*
X135994671Y-105639117D01*
X136008921Y-105658330D01*
X136021218Y-105678847D01*
X136031446Y-105700471D01*
X136039504Y-105722993D01*
X136045316Y-105746197D01*
X136048826Y-105769858D01*
X136050000Y-105793750D01*
X136050000Y-106706250D01*
X136048826Y-106730142D01*
X136045316Y-106753803D01*
X136039504Y-106777007D01*
X136031446Y-106799529D01*
X136021218Y-106821153D01*
X136008921Y-106841670D01*
X135994671Y-106860883D01*
X135978607Y-106878607D01*
X135960883Y-106894671D01*
X135941670Y-106908921D01*
X135921153Y-106921218D01*
X135899529Y-106931446D01*
X135877007Y-106939504D01*
X135853803Y-106945316D01*
X135830142Y-106948826D01*
X135806250Y-106950000D01*
X135318750Y-106950000D01*
X135294858Y-106948826D01*
X135271197Y-106945316D01*
X135247993Y-106939504D01*
X135225471Y-106931446D01*
X135203847Y-106921218D01*
X135183330Y-106908921D01*
X135164117Y-106894671D01*
X135146393Y-106878607D01*
X135130329Y-106860883D01*
X135116079Y-106841670D01*
X135103782Y-106821153D01*
X135093554Y-106799529D01*
X135085496Y-106777007D01*
X135079684Y-106753803D01*
X135076174Y-106730142D01*
X135075000Y-106706250D01*
X135075000Y-105793750D01*
X135076174Y-105769858D01*
X135079684Y-105746197D01*
X135085496Y-105722993D01*
X135093554Y-105700471D01*
X135103782Y-105678847D01*
X135116079Y-105658330D01*
X135130329Y-105639117D01*
X135146393Y-105621393D01*
X135164117Y-105605329D01*
X135183330Y-105591079D01*
X135203847Y-105578782D01*
X135225471Y-105568554D01*
X135247993Y-105560496D01*
X135271197Y-105554684D01*
X135294858Y-105551174D01*
X135318750Y-105550000D01*
X135806250Y-105550000D01*
X135830142Y-105551174D01*
X135830142Y-105551174D01*
G37*
D13*
X135562500Y-106250000D03*
D12*
G36*
X137705142Y-105551174D02*
X137728803Y-105554684D01*
X137752007Y-105560496D01*
X137774529Y-105568554D01*
X137796153Y-105578782D01*
X137816670Y-105591079D01*
X137835883Y-105605329D01*
X137853607Y-105621393D01*
X137869671Y-105639117D01*
X137883921Y-105658330D01*
X137896218Y-105678847D01*
X137906446Y-105700471D01*
X137914504Y-105722993D01*
X137920316Y-105746197D01*
X137923826Y-105769858D01*
X137925000Y-105793750D01*
X137925000Y-106706250D01*
X137923826Y-106730142D01*
X137920316Y-106753803D01*
X137914504Y-106777007D01*
X137906446Y-106799529D01*
X137896218Y-106821153D01*
X137883921Y-106841670D01*
X137869671Y-106860883D01*
X137853607Y-106878607D01*
X137835883Y-106894671D01*
X137816670Y-106908921D01*
X137796153Y-106921218D01*
X137774529Y-106931446D01*
X137752007Y-106939504D01*
X137728803Y-106945316D01*
X137705142Y-106948826D01*
X137681250Y-106950000D01*
X137193750Y-106950000D01*
X137169858Y-106948826D01*
X137146197Y-106945316D01*
X137122993Y-106939504D01*
X137100471Y-106931446D01*
X137078847Y-106921218D01*
X137058330Y-106908921D01*
X137039117Y-106894671D01*
X137021393Y-106878607D01*
X137005329Y-106860883D01*
X136991079Y-106841670D01*
X136978782Y-106821153D01*
X136968554Y-106799529D01*
X136960496Y-106777007D01*
X136954684Y-106753803D01*
X136951174Y-106730142D01*
X136950000Y-106706250D01*
X136950000Y-105793750D01*
X136951174Y-105769858D01*
X136954684Y-105746197D01*
X136960496Y-105722993D01*
X136968554Y-105700471D01*
X136978782Y-105678847D01*
X136991079Y-105658330D01*
X137005329Y-105639117D01*
X137021393Y-105621393D01*
X137039117Y-105605329D01*
X137058330Y-105591079D01*
X137078847Y-105578782D01*
X137100471Y-105568554D01*
X137122993Y-105560496D01*
X137146197Y-105554684D01*
X137169858Y-105551174D01*
X137193750Y-105550000D01*
X137681250Y-105550000D01*
X137705142Y-105551174D01*
X137705142Y-105551174D01*
G37*
D13*
X137437500Y-106250000D03*
G04 #@! TD*
D12*
G04 #@! TO.C,R16*
G36*
X133830142Y-115551174D02*
X133853803Y-115554684D01*
X133877007Y-115560496D01*
X133899529Y-115568554D01*
X133921153Y-115578782D01*
X133941670Y-115591079D01*
X133960883Y-115605329D01*
X133978607Y-115621393D01*
X133994671Y-115639117D01*
X134008921Y-115658330D01*
X134021218Y-115678847D01*
X134031446Y-115700471D01*
X134039504Y-115722993D01*
X134045316Y-115746197D01*
X134048826Y-115769858D01*
X134050000Y-115793750D01*
X134050000Y-116706250D01*
X134048826Y-116730142D01*
X134045316Y-116753803D01*
X134039504Y-116777007D01*
X134031446Y-116799529D01*
X134021218Y-116821153D01*
X134008921Y-116841670D01*
X133994671Y-116860883D01*
X133978607Y-116878607D01*
X133960883Y-116894671D01*
X133941670Y-116908921D01*
X133921153Y-116921218D01*
X133899529Y-116931446D01*
X133877007Y-116939504D01*
X133853803Y-116945316D01*
X133830142Y-116948826D01*
X133806250Y-116950000D01*
X133318750Y-116950000D01*
X133294858Y-116948826D01*
X133271197Y-116945316D01*
X133247993Y-116939504D01*
X133225471Y-116931446D01*
X133203847Y-116921218D01*
X133183330Y-116908921D01*
X133164117Y-116894671D01*
X133146393Y-116878607D01*
X133130329Y-116860883D01*
X133116079Y-116841670D01*
X133103782Y-116821153D01*
X133093554Y-116799529D01*
X133085496Y-116777007D01*
X133079684Y-116753803D01*
X133076174Y-116730142D01*
X133075000Y-116706250D01*
X133075000Y-115793750D01*
X133076174Y-115769858D01*
X133079684Y-115746197D01*
X133085496Y-115722993D01*
X133093554Y-115700471D01*
X133103782Y-115678847D01*
X133116079Y-115658330D01*
X133130329Y-115639117D01*
X133146393Y-115621393D01*
X133164117Y-115605329D01*
X133183330Y-115591079D01*
X133203847Y-115578782D01*
X133225471Y-115568554D01*
X133247993Y-115560496D01*
X133271197Y-115554684D01*
X133294858Y-115551174D01*
X133318750Y-115550000D01*
X133806250Y-115550000D01*
X133830142Y-115551174D01*
X133830142Y-115551174D01*
G37*
D13*
X133562500Y-116250000D03*
D12*
G36*
X135705142Y-115551174D02*
X135728803Y-115554684D01*
X135752007Y-115560496D01*
X135774529Y-115568554D01*
X135796153Y-115578782D01*
X135816670Y-115591079D01*
X135835883Y-115605329D01*
X135853607Y-115621393D01*
X135869671Y-115639117D01*
X135883921Y-115658330D01*
X135896218Y-115678847D01*
X135906446Y-115700471D01*
X135914504Y-115722993D01*
X135920316Y-115746197D01*
X135923826Y-115769858D01*
X135925000Y-115793750D01*
X135925000Y-116706250D01*
X135923826Y-116730142D01*
X135920316Y-116753803D01*
X135914504Y-116777007D01*
X135906446Y-116799529D01*
X135896218Y-116821153D01*
X135883921Y-116841670D01*
X135869671Y-116860883D01*
X135853607Y-116878607D01*
X135835883Y-116894671D01*
X135816670Y-116908921D01*
X135796153Y-116921218D01*
X135774529Y-116931446D01*
X135752007Y-116939504D01*
X135728803Y-116945316D01*
X135705142Y-116948826D01*
X135681250Y-116950000D01*
X135193750Y-116950000D01*
X135169858Y-116948826D01*
X135146197Y-116945316D01*
X135122993Y-116939504D01*
X135100471Y-116931446D01*
X135078847Y-116921218D01*
X135058330Y-116908921D01*
X135039117Y-116894671D01*
X135021393Y-116878607D01*
X135005329Y-116860883D01*
X134991079Y-116841670D01*
X134978782Y-116821153D01*
X134968554Y-116799529D01*
X134960496Y-116777007D01*
X134954684Y-116753803D01*
X134951174Y-116730142D01*
X134950000Y-116706250D01*
X134950000Y-115793750D01*
X134951174Y-115769858D01*
X134954684Y-115746197D01*
X134960496Y-115722993D01*
X134968554Y-115700471D01*
X134978782Y-115678847D01*
X134991079Y-115658330D01*
X135005329Y-115639117D01*
X135021393Y-115621393D01*
X135039117Y-115605329D01*
X135058330Y-115591079D01*
X135078847Y-115578782D01*
X135100471Y-115568554D01*
X135122993Y-115560496D01*
X135146197Y-115554684D01*
X135169858Y-115551174D01*
X135193750Y-115550000D01*
X135681250Y-115550000D01*
X135705142Y-115551174D01*
X135705142Y-115551174D01*
G37*
D13*
X135437500Y-116250000D03*
G04 #@! TD*
D12*
G04 #@! TO.C,R11*
G36*
X123480142Y-102451174D02*
X123503803Y-102454684D01*
X123527007Y-102460496D01*
X123549529Y-102468554D01*
X123571153Y-102478782D01*
X123591670Y-102491079D01*
X123610883Y-102505329D01*
X123628607Y-102521393D01*
X123644671Y-102539117D01*
X123658921Y-102558330D01*
X123671218Y-102578847D01*
X123681446Y-102600471D01*
X123689504Y-102622993D01*
X123695316Y-102646197D01*
X123698826Y-102669858D01*
X123700000Y-102693750D01*
X123700000Y-103181250D01*
X123698826Y-103205142D01*
X123695316Y-103228803D01*
X123689504Y-103252007D01*
X123681446Y-103274529D01*
X123671218Y-103296153D01*
X123658921Y-103316670D01*
X123644671Y-103335883D01*
X123628607Y-103353607D01*
X123610883Y-103369671D01*
X123591670Y-103383921D01*
X123571153Y-103396218D01*
X123549529Y-103406446D01*
X123527007Y-103414504D01*
X123503803Y-103420316D01*
X123480142Y-103423826D01*
X123456250Y-103425000D01*
X122543750Y-103425000D01*
X122519858Y-103423826D01*
X122496197Y-103420316D01*
X122472993Y-103414504D01*
X122450471Y-103406446D01*
X122428847Y-103396218D01*
X122408330Y-103383921D01*
X122389117Y-103369671D01*
X122371393Y-103353607D01*
X122355329Y-103335883D01*
X122341079Y-103316670D01*
X122328782Y-103296153D01*
X122318554Y-103274529D01*
X122310496Y-103252007D01*
X122304684Y-103228803D01*
X122301174Y-103205142D01*
X122300000Y-103181250D01*
X122300000Y-102693750D01*
X122301174Y-102669858D01*
X122304684Y-102646197D01*
X122310496Y-102622993D01*
X122318554Y-102600471D01*
X122328782Y-102578847D01*
X122341079Y-102558330D01*
X122355329Y-102539117D01*
X122371393Y-102521393D01*
X122389117Y-102505329D01*
X122408330Y-102491079D01*
X122428847Y-102478782D01*
X122450471Y-102468554D01*
X122472993Y-102460496D01*
X122496197Y-102454684D01*
X122519858Y-102451174D01*
X122543750Y-102450000D01*
X123456250Y-102450000D01*
X123480142Y-102451174D01*
X123480142Y-102451174D01*
G37*
D13*
X123000000Y-102937500D03*
D12*
G36*
X123480142Y-100576174D02*
X123503803Y-100579684D01*
X123527007Y-100585496D01*
X123549529Y-100593554D01*
X123571153Y-100603782D01*
X123591670Y-100616079D01*
X123610883Y-100630329D01*
X123628607Y-100646393D01*
X123644671Y-100664117D01*
X123658921Y-100683330D01*
X123671218Y-100703847D01*
X123681446Y-100725471D01*
X123689504Y-100747993D01*
X123695316Y-100771197D01*
X123698826Y-100794858D01*
X123700000Y-100818750D01*
X123700000Y-101306250D01*
X123698826Y-101330142D01*
X123695316Y-101353803D01*
X123689504Y-101377007D01*
X123681446Y-101399529D01*
X123671218Y-101421153D01*
X123658921Y-101441670D01*
X123644671Y-101460883D01*
X123628607Y-101478607D01*
X123610883Y-101494671D01*
X123591670Y-101508921D01*
X123571153Y-101521218D01*
X123549529Y-101531446D01*
X123527007Y-101539504D01*
X123503803Y-101545316D01*
X123480142Y-101548826D01*
X123456250Y-101550000D01*
X122543750Y-101550000D01*
X122519858Y-101548826D01*
X122496197Y-101545316D01*
X122472993Y-101539504D01*
X122450471Y-101531446D01*
X122428847Y-101521218D01*
X122408330Y-101508921D01*
X122389117Y-101494671D01*
X122371393Y-101478607D01*
X122355329Y-101460883D01*
X122341079Y-101441670D01*
X122328782Y-101421153D01*
X122318554Y-101399529D01*
X122310496Y-101377007D01*
X122304684Y-101353803D01*
X122301174Y-101330142D01*
X122300000Y-101306250D01*
X122300000Y-100818750D01*
X122301174Y-100794858D01*
X122304684Y-100771197D01*
X122310496Y-100747993D01*
X122318554Y-100725471D01*
X122328782Y-100703847D01*
X122341079Y-100683330D01*
X122355329Y-100664117D01*
X122371393Y-100646393D01*
X122389117Y-100630329D01*
X122408330Y-100616079D01*
X122428847Y-100603782D01*
X122450471Y-100593554D01*
X122472993Y-100585496D01*
X122496197Y-100579684D01*
X122519858Y-100576174D01*
X122543750Y-100575000D01*
X123456250Y-100575000D01*
X123480142Y-100576174D01*
X123480142Y-100576174D01*
G37*
D13*
X123000000Y-101062500D03*
G04 #@! TD*
D12*
G04 #@! TO.C,R1*
G36*
X133392642Y-78301174D02*
X133416303Y-78304684D01*
X133439507Y-78310496D01*
X133462029Y-78318554D01*
X133483653Y-78328782D01*
X133504170Y-78341079D01*
X133523383Y-78355329D01*
X133541107Y-78371393D01*
X133557171Y-78389117D01*
X133571421Y-78408330D01*
X133583718Y-78428847D01*
X133593946Y-78450471D01*
X133602004Y-78472993D01*
X133607816Y-78496197D01*
X133611326Y-78519858D01*
X133612500Y-78543750D01*
X133612500Y-79456250D01*
X133611326Y-79480142D01*
X133607816Y-79503803D01*
X133602004Y-79527007D01*
X133593946Y-79549529D01*
X133583718Y-79571153D01*
X133571421Y-79591670D01*
X133557171Y-79610883D01*
X133541107Y-79628607D01*
X133523383Y-79644671D01*
X133504170Y-79658921D01*
X133483653Y-79671218D01*
X133462029Y-79681446D01*
X133439507Y-79689504D01*
X133416303Y-79695316D01*
X133392642Y-79698826D01*
X133368750Y-79700000D01*
X132881250Y-79700000D01*
X132857358Y-79698826D01*
X132833697Y-79695316D01*
X132810493Y-79689504D01*
X132787971Y-79681446D01*
X132766347Y-79671218D01*
X132745830Y-79658921D01*
X132726617Y-79644671D01*
X132708893Y-79628607D01*
X132692829Y-79610883D01*
X132678579Y-79591670D01*
X132666282Y-79571153D01*
X132656054Y-79549529D01*
X132647996Y-79527007D01*
X132642184Y-79503803D01*
X132638674Y-79480142D01*
X132637500Y-79456250D01*
X132637500Y-78543750D01*
X132638674Y-78519858D01*
X132642184Y-78496197D01*
X132647996Y-78472993D01*
X132656054Y-78450471D01*
X132666282Y-78428847D01*
X132678579Y-78408330D01*
X132692829Y-78389117D01*
X132708893Y-78371393D01*
X132726617Y-78355329D01*
X132745830Y-78341079D01*
X132766347Y-78328782D01*
X132787971Y-78318554D01*
X132810493Y-78310496D01*
X132833697Y-78304684D01*
X132857358Y-78301174D01*
X132881250Y-78300000D01*
X133368750Y-78300000D01*
X133392642Y-78301174D01*
X133392642Y-78301174D01*
G37*
D13*
X133125000Y-79000000D03*
D12*
G36*
X135267642Y-78301174D02*
X135291303Y-78304684D01*
X135314507Y-78310496D01*
X135337029Y-78318554D01*
X135358653Y-78328782D01*
X135379170Y-78341079D01*
X135398383Y-78355329D01*
X135416107Y-78371393D01*
X135432171Y-78389117D01*
X135446421Y-78408330D01*
X135458718Y-78428847D01*
X135468946Y-78450471D01*
X135477004Y-78472993D01*
X135482816Y-78496197D01*
X135486326Y-78519858D01*
X135487500Y-78543750D01*
X135487500Y-79456250D01*
X135486326Y-79480142D01*
X135482816Y-79503803D01*
X135477004Y-79527007D01*
X135468946Y-79549529D01*
X135458718Y-79571153D01*
X135446421Y-79591670D01*
X135432171Y-79610883D01*
X135416107Y-79628607D01*
X135398383Y-79644671D01*
X135379170Y-79658921D01*
X135358653Y-79671218D01*
X135337029Y-79681446D01*
X135314507Y-79689504D01*
X135291303Y-79695316D01*
X135267642Y-79698826D01*
X135243750Y-79700000D01*
X134756250Y-79700000D01*
X134732358Y-79698826D01*
X134708697Y-79695316D01*
X134685493Y-79689504D01*
X134662971Y-79681446D01*
X134641347Y-79671218D01*
X134620830Y-79658921D01*
X134601617Y-79644671D01*
X134583893Y-79628607D01*
X134567829Y-79610883D01*
X134553579Y-79591670D01*
X134541282Y-79571153D01*
X134531054Y-79549529D01*
X134522996Y-79527007D01*
X134517184Y-79503803D01*
X134513674Y-79480142D01*
X134512500Y-79456250D01*
X134512500Y-78543750D01*
X134513674Y-78519858D01*
X134517184Y-78496197D01*
X134522996Y-78472993D01*
X134531054Y-78450471D01*
X134541282Y-78428847D01*
X134553579Y-78408330D01*
X134567829Y-78389117D01*
X134583893Y-78371393D01*
X134601617Y-78355329D01*
X134620830Y-78341079D01*
X134641347Y-78328782D01*
X134662971Y-78318554D01*
X134685493Y-78310496D01*
X134708697Y-78304684D01*
X134732358Y-78301174D01*
X134756250Y-78300000D01*
X135243750Y-78300000D01*
X135267642Y-78301174D01*
X135267642Y-78301174D01*
G37*
D13*
X135000000Y-79000000D03*
G04 #@! TD*
D12*
G04 #@! TO.C,R5*
G36*
X112480142Y-114451174D02*
X112503803Y-114454684D01*
X112527007Y-114460496D01*
X112549529Y-114468554D01*
X112571153Y-114478782D01*
X112591670Y-114491079D01*
X112610883Y-114505329D01*
X112628607Y-114521393D01*
X112644671Y-114539117D01*
X112658921Y-114558330D01*
X112671218Y-114578847D01*
X112681446Y-114600471D01*
X112689504Y-114622993D01*
X112695316Y-114646197D01*
X112698826Y-114669858D01*
X112700000Y-114693750D01*
X112700000Y-115181250D01*
X112698826Y-115205142D01*
X112695316Y-115228803D01*
X112689504Y-115252007D01*
X112681446Y-115274529D01*
X112671218Y-115296153D01*
X112658921Y-115316670D01*
X112644671Y-115335883D01*
X112628607Y-115353607D01*
X112610883Y-115369671D01*
X112591670Y-115383921D01*
X112571153Y-115396218D01*
X112549529Y-115406446D01*
X112527007Y-115414504D01*
X112503803Y-115420316D01*
X112480142Y-115423826D01*
X112456250Y-115425000D01*
X111543750Y-115425000D01*
X111519858Y-115423826D01*
X111496197Y-115420316D01*
X111472993Y-115414504D01*
X111450471Y-115406446D01*
X111428847Y-115396218D01*
X111408330Y-115383921D01*
X111389117Y-115369671D01*
X111371393Y-115353607D01*
X111355329Y-115335883D01*
X111341079Y-115316670D01*
X111328782Y-115296153D01*
X111318554Y-115274529D01*
X111310496Y-115252007D01*
X111304684Y-115228803D01*
X111301174Y-115205142D01*
X111300000Y-115181250D01*
X111300000Y-114693750D01*
X111301174Y-114669858D01*
X111304684Y-114646197D01*
X111310496Y-114622993D01*
X111318554Y-114600471D01*
X111328782Y-114578847D01*
X111341079Y-114558330D01*
X111355329Y-114539117D01*
X111371393Y-114521393D01*
X111389117Y-114505329D01*
X111408330Y-114491079D01*
X111428847Y-114478782D01*
X111450471Y-114468554D01*
X111472993Y-114460496D01*
X111496197Y-114454684D01*
X111519858Y-114451174D01*
X111543750Y-114450000D01*
X112456250Y-114450000D01*
X112480142Y-114451174D01*
X112480142Y-114451174D01*
G37*
D13*
X112000000Y-114937500D03*
D12*
G36*
X112480142Y-112576174D02*
X112503803Y-112579684D01*
X112527007Y-112585496D01*
X112549529Y-112593554D01*
X112571153Y-112603782D01*
X112591670Y-112616079D01*
X112610883Y-112630329D01*
X112628607Y-112646393D01*
X112644671Y-112664117D01*
X112658921Y-112683330D01*
X112671218Y-112703847D01*
X112681446Y-112725471D01*
X112689504Y-112747993D01*
X112695316Y-112771197D01*
X112698826Y-112794858D01*
X112700000Y-112818750D01*
X112700000Y-113306250D01*
X112698826Y-113330142D01*
X112695316Y-113353803D01*
X112689504Y-113377007D01*
X112681446Y-113399529D01*
X112671218Y-113421153D01*
X112658921Y-113441670D01*
X112644671Y-113460883D01*
X112628607Y-113478607D01*
X112610883Y-113494671D01*
X112591670Y-113508921D01*
X112571153Y-113521218D01*
X112549529Y-113531446D01*
X112527007Y-113539504D01*
X112503803Y-113545316D01*
X112480142Y-113548826D01*
X112456250Y-113550000D01*
X111543750Y-113550000D01*
X111519858Y-113548826D01*
X111496197Y-113545316D01*
X111472993Y-113539504D01*
X111450471Y-113531446D01*
X111428847Y-113521218D01*
X111408330Y-113508921D01*
X111389117Y-113494671D01*
X111371393Y-113478607D01*
X111355329Y-113460883D01*
X111341079Y-113441670D01*
X111328782Y-113421153D01*
X111318554Y-113399529D01*
X111310496Y-113377007D01*
X111304684Y-113353803D01*
X111301174Y-113330142D01*
X111300000Y-113306250D01*
X111300000Y-112818750D01*
X111301174Y-112794858D01*
X111304684Y-112771197D01*
X111310496Y-112747993D01*
X111318554Y-112725471D01*
X111328782Y-112703847D01*
X111341079Y-112683330D01*
X111355329Y-112664117D01*
X111371393Y-112646393D01*
X111389117Y-112630329D01*
X111408330Y-112616079D01*
X111428847Y-112603782D01*
X111450471Y-112593554D01*
X111472993Y-112585496D01*
X111496197Y-112579684D01*
X111519858Y-112576174D01*
X111543750Y-112575000D01*
X112456250Y-112575000D01*
X112480142Y-112576174D01*
X112480142Y-112576174D01*
G37*
D13*
X112000000Y-113062500D03*
G04 #@! TD*
D12*
G04 #@! TO.C,R6*
G36*
X112480142Y-118451174D02*
X112503803Y-118454684D01*
X112527007Y-118460496D01*
X112549529Y-118468554D01*
X112571153Y-118478782D01*
X112591670Y-118491079D01*
X112610883Y-118505329D01*
X112628607Y-118521393D01*
X112644671Y-118539117D01*
X112658921Y-118558330D01*
X112671218Y-118578847D01*
X112681446Y-118600471D01*
X112689504Y-118622993D01*
X112695316Y-118646197D01*
X112698826Y-118669858D01*
X112700000Y-118693750D01*
X112700000Y-119181250D01*
X112698826Y-119205142D01*
X112695316Y-119228803D01*
X112689504Y-119252007D01*
X112681446Y-119274529D01*
X112671218Y-119296153D01*
X112658921Y-119316670D01*
X112644671Y-119335883D01*
X112628607Y-119353607D01*
X112610883Y-119369671D01*
X112591670Y-119383921D01*
X112571153Y-119396218D01*
X112549529Y-119406446D01*
X112527007Y-119414504D01*
X112503803Y-119420316D01*
X112480142Y-119423826D01*
X112456250Y-119425000D01*
X111543750Y-119425000D01*
X111519858Y-119423826D01*
X111496197Y-119420316D01*
X111472993Y-119414504D01*
X111450471Y-119406446D01*
X111428847Y-119396218D01*
X111408330Y-119383921D01*
X111389117Y-119369671D01*
X111371393Y-119353607D01*
X111355329Y-119335883D01*
X111341079Y-119316670D01*
X111328782Y-119296153D01*
X111318554Y-119274529D01*
X111310496Y-119252007D01*
X111304684Y-119228803D01*
X111301174Y-119205142D01*
X111300000Y-119181250D01*
X111300000Y-118693750D01*
X111301174Y-118669858D01*
X111304684Y-118646197D01*
X111310496Y-118622993D01*
X111318554Y-118600471D01*
X111328782Y-118578847D01*
X111341079Y-118558330D01*
X111355329Y-118539117D01*
X111371393Y-118521393D01*
X111389117Y-118505329D01*
X111408330Y-118491079D01*
X111428847Y-118478782D01*
X111450471Y-118468554D01*
X111472993Y-118460496D01*
X111496197Y-118454684D01*
X111519858Y-118451174D01*
X111543750Y-118450000D01*
X112456250Y-118450000D01*
X112480142Y-118451174D01*
X112480142Y-118451174D01*
G37*
D13*
X112000000Y-118937500D03*
D12*
G36*
X112480142Y-116576174D02*
X112503803Y-116579684D01*
X112527007Y-116585496D01*
X112549529Y-116593554D01*
X112571153Y-116603782D01*
X112591670Y-116616079D01*
X112610883Y-116630329D01*
X112628607Y-116646393D01*
X112644671Y-116664117D01*
X112658921Y-116683330D01*
X112671218Y-116703847D01*
X112681446Y-116725471D01*
X112689504Y-116747993D01*
X112695316Y-116771197D01*
X112698826Y-116794858D01*
X112700000Y-116818750D01*
X112700000Y-117306250D01*
X112698826Y-117330142D01*
X112695316Y-117353803D01*
X112689504Y-117377007D01*
X112681446Y-117399529D01*
X112671218Y-117421153D01*
X112658921Y-117441670D01*
X112644671Y-117460883D01*
X112628607Y-117478607D01*
X112610883Y-117494671D01*
X112591670Y-117508921D01*
X112571153Y-117521218D01*
X112549529Y-117531446D01*
X112527007Y-117539504D01*
X112503803Y-117545316D01*
X112480142Y-117548826D01*
X112456250Y-117550000D01*
X111543750Y-117550000D01*
X111519858Y-117548826D01*
X111496197Y-117545316D01*
X111472993Y-117539504D01*
X111450471Y-117531446D01*
X111428847Y-117521218D01*
X111408330Y-117508921D01*
X111389117Y-117494671D01*
X111371393Y-117478607D01*
X111355329Y-117460883D01*
X111341079Y-117441670D01*
X111328782Y-117421153D01*
X111318554Y-117399529D01*
X111310496Y-117377007D01*
X111304684Y-117353803D01*
X111301174Y-117330142D01*
X111300000Y-117306250D01*
X111300000Y-116818750D01*
X111301174Y-116794858D01*
X111304684Y-116771197D01*
X111310496Y-116747993D01*
X111318554Y-116725471D01*
X111328782Y-116703847D01*
X111341079Y-116683330D01*
X111355329Y-116664117D01*
X111371393Y-116646393D01*
X111389117Y-116630329D01*
X111408330Y-116616079D01*
X111428847Y-116603782D01*
X111450471Y-116593554D01*
X111472993Y-116585496D01*
X111496197Y-116579684D01*
X111519858Y-116576174D01*
X111543750Y-116575000D01*
X112456250Y-116575000D01*
X112480142Y-116576174D01*
X112480142Y-116576174D01*
G37*
D13*
X112000000Y-117062500D03*
G04 #@! TD*
D12*
G04 #@! TO.C,R7*
G36*
X125205142Y-116301174D02*
X125228803Y-116304684D01*
X125252007Y-116310496D01*
X125274529Y-116318554D01*
X125296153Y-116328782D01*
X125316670Y-116341079D01*
X125335883Y-116355329D01*
X125353607Y-116371393D01*
X125369671Y-116389117D01*
X125383921Y-116408330D01*
X125396218Y-116428847D01*
X125406446Y-116450471D01*
X125414504Y-116472993D01*
X125420316Y-116496197D01*
X125423826Y-116519858D01*
X125425000Y-116543750D01*
X125425000Y-117456250D01*
X125423826Y-117480142D01*
X125420316Y-117503803D01*
X125414504Y-117527007D01*
X125406446Y-117549529D01*
X125396218Y-117571153D01*
X125383921Y-117591670D01*
X125369671Y-117610883D01*
X125353607Y-117628607D01*
X125335883Y-117644671D01*
X125316670Y-117658921D01*
X125296153Y-117671218D01*
X125274529Y-117681446D01*
X125252007Y-117689504D01*
X125228803Y-117695316D01*
X125205142Y-117698826D01*
X125181250Y-117700000D01*
X124693750Y-117700000D01*
X124669858Y-117698826D01*
X124646197Y-117695316D01*
X124622993Y-117689504D01*
X124600471Y-117681446D01*
X124578847Y-117671218D01*
X124558330Y-117658921D01*
X124539117Y-117644671D01*
X124521393Y-117628607D01*
X124505329Y-117610883D01*
X124491079Y-117591670D01*
X124478782Y-117571153D01*
X124468554Y-117549529D01*
X124460496Y-117527007D01*
X124454684Y-117503803D01*
X124451174Y-117480142D01*
X124450000Y-117456250D01*
X124450000Y-116543750D01*
X124451174Y-116519858D01*
X124454684Y-116496197D01*
X124460496Y-116472993D01*
X124468554Y-116450471D01*
X124478782Y-116428847D01*
X124491079Y-116408330D01*
X124505329Y-116389117D01*
X124521393Y-116371393D01*
X124539117Y-116355329D01*
X124558330Y-116341079D01*
X124578847Y-116328782D01*
X124600471Y-116318554D01*
X124622993Y-116310496D01*
X124646197Y-116304684D01*
X124669858Y-116301174D01*
X124693750Y-116300000D01*
X125181250Y-116300000D01*
X125205142Y-116301174D01*
X125205142Y-116301174D01*
G37*
D13*
X124937500Y-117000000D03*
D12*
G36*
X123330142Y-116301174D02*
X123353803Y-116304684D01*
X123377007Y-116310496D01*
X123399529Y-116318554D01*
X123421153Y-116328782D01*
X123441670Y-116341079D01*
X123460883Y-116355329D01*
X123478607Y-116371393D01*
X123494671Y-116389117D01*
X123508921Y-116408330D01*
X123521218Y-116428847D01*
X123531446Y-116450471D01*
X123539504Y-116472993D01*
X123545316Y-116496197D01*
X123548826Y-116519858D01*
X123550000Y-116543750D01*
X123550000Y-117456250D01*
X123548826Y-117480142D01*
X123545316Y-117503803D01*
X123539504Y-117527007D01*
X123531446Y-117549529D01*
X123521218Y-117571153D01*
X123508921Y-117591670D01*
X123494671Y-117610883D01*
X123478607Y-117628607D01*
X123460883Y-117644671D01*
X123441670Y-117658921D01*
X123421153Y-117671218D01*
X123399529Y-117681446D01*
X123377007Y-117689504D01*
X123353803Y-117695316D01*
X123330142Y-117698826D01*
X123306250Y-117700000D01*
X122818750Y-117700000D01*
X122794858Y-117698826D01*
X122771197Y-117695316D01*
X122747993Y-117689504D01*
X122725471Y-117681446D01*
X122703847Y-117671218D01*
X122683330Y-117658921D01*
X122664117Y-117644671D01*
X122646393Y-117628607D01*
X122630329Y-117610883D01*
X122616079Y-117591670D01*
X122603782Y-117571153D01*
X122593554Y-117549529D01*
X122585496Y-117527007D01*
X122579684Y-117503803D01*
X122576174Y-117480142D01*
X122575000Y-117456250D01*
X122575000Y-116543750D01*
X122576174Y-116519858D01*
X122579684Y-116496197D01*
X122585496Y-116472993D01*
X122593554Y-116450471D01*
X122603782Y-116428847D01*
X122616079Y-116408330D01*
X122630329Y-116389117D01*
X122646393Y-116371393D01*
X122664117Y-116355329D01*
X122683330Y-116341079D01*
X122703847Y-116328782D01*
X122725471Y-116318554D01*
X122747993Y-116310496D01*
X122771197Y-116304684D01*
X122794858Y-116301174D01*
X122818750Y-116300000D01*
X123306250Y-116300000D01*
X123330142Y-116301174D01*
X123330142Y-116301174D01*
G37*
D13*
X123062500Y-117000000D03*
G04 #@! TD*
D12*
G04 #@! TO.C,R8*
G36*
X117205142Y-111301174D02*
X117228803Y-111304684D01*
X117252007Y-111310496D01*
X117274529Y-111318554D01*
X117296153Y-111328782D01*
X117316670Y-111341079D01*
X117335883Y-111355329D01*
X117353607Y-111371393D01*
X117369671Y-111389117D01*
X117383921Y-111408330D01*
X117396218Y-111428847D01*
X117406446Y-111450471D01*
X117414504Y-111472993D01*
X117420316Y-111496197D01*
X117423826Y-111519858D01*
X117425000Y-111543750D01*
X117425000Y-112456250D01*
X117423826Y-112480142D01*
X117420316Y-112503803D01*
X117414504Y-112527007D01*
X117406446Y-112549529D01*
X117396218Y-112571153D01*
X117383921Y-112591670D01*
X117369671Y-112610883D01*
X117353607Y-112628607D01*
X117335883Y-112644671D01*
X117316670Y-112658921D01*
X117296153Y-112671218D01*
X117274529Y-112681446D01*
X117252007Y-112689504D01*
X117228803Y-112695316D01*
X117205142Y-112698826D01*
X117181250Y-112700000D01*
X116693750Y-112700000D01*
X116669858Y-112698826D01*
X116646197Y-112695316D01*
X116622993Y-112689504D01*
X116600471Y-112681446D01*
X116578847Y-112671218D01*
X116558330Y-112658921D01*
X116539117Y-112644671D01*
X116521393Y-112628607D01*
X116505329Y-112610883D01*
X116491079Y-112591670D01*
X116478782Y-112571153D01*
X116468554Y-112549529D01*
X116460496Y-112527007D01*
X116454684Y-112503803D01*
X116451174Y-112480142D01*
X116450000Y-112456250D01*
X116450000Y-111543750D01*
X116451174Y-111519858D01*
X116454684Y-111496197D01*
X116460496Y-111472993D01*
X116468554Y-111450471D01*
X116478782Y-111428847D01*
X116491079Y-111408330D01*
X116505329Y-111389117D01*
X116521393Y-111371393D01*
X116539117Y-111355329D01*
X116558330Y-111341079D01*
X116578847Y-111328782D01*
X116600471Y-111318554D01*
X116622993Y-111310496D01*
X116646197Y-111304684D01*
X116669858Y-111301174D01*
X116693750Y-111300000D01*
X117181250Y-111300000D01*
X117205142Y-111301174D01*
X117205142Y-111301174D01*
G37*
D13*
X116937500Y-112000000D03*
D12*
G36*
X115330142Y-111301174D02*
X115353803Y-111304684D01*
X115377007Y-111310496D01*
X115399529Y-111318554D01*
X115421153Y-111328782D01*
X115441670Y-111341079D01*
X115460883Y-111355329D01*
X115478607Y-111371393D01*
X115494671Y-111389117D01*
X115508921Y-111408330D01*
X115521218Y-111428847D01*
X115531446Y-111450471D01*
X115539504Y-111472993D01*
X115545316Y-111496197D01*
X115548826Y-111519858D01*
X115550000Y-111543750D01*
X115550000Y-112456250D01*
X115548826Y-112480142D01*
X115545316Y-112503803D01*
X115539504Y-112527007D01*
X115531446Y-112549529D01*
X115521218Y-112571153D01*
X115508921Y-112591670D01*
X115494671Y-112610883D01*
X115478607Y-112628607D01*
X115460883Y-112644671D01*
X115441670Y-112658921D01*
X115421153Y-112671218D01*
X115399529Y-112681446D01*
X115377007Y-112689504D01*
X115353803Y-112695316D01*
X115330142Y-112698826D01*
X115306250Y-112700000D01*
X114818750Y-112700000D01*
X114794858Y-112698826D01*
X114771197Y-112695316D01*
X114747993Y-112689504D01*
X114725471Y-112681446D01*
X114703847Y-112671218D01*
X114683330Y-112658921D01*
X114664117Y-112644671D01*
X114646393Y-112628607D01*
X114630329Y-112610883D01*
X114616079Y-112591670D01*
X114603782Y-112571153D01*
X114593554Y-112549529D01*
X114585496Y-112527007D01*
X114579684Y-112503803D01*
X114576174Y-112480142D01*
X114575000Y-112456250D01*
X114575000Y-111543750D01*
X114576174Y-111519858D01*
X114579684Y-111496197D01*
X114585496Y-111472993D01*
X114593554Y-111450471D01*
X114603782Y-111428847D01*
X114616079Y-111408330D01*
X114630329Y-111389117D01*
X114646393Y-111371393D01*
X114664117Y-111355329D01*
X114683330Y-111341079D01*
X114703847Y-111328782D01*
X114725471Y-111318554D01*
X114747993Y-111310496D01*
X114771197Y-111304684D01*
X114794858Y-111301174D01*
X114818750Y-111300000D01*
X115306250Y-111300000D01*
X115330142Y-111301174D01*
X115330142Y-111301174D01*
G37*
D13*
X115062500Y-112000000D03*
G04 #@! TD*
D12*
G04 #@! TO.C,R9*
G36*
X125205142Y-114301174D02*
X125228803Y-114304684D01*
X125252007Y-114310496D01*
X125274529Y-114318554D01*
X125296153Y-114328782D01*
X125316670Y-114341079D01*
X125335883Y-114355329D01*
X125353607Y-114371393D01*
X125369671Y-114389117D01*
X125383921Y-114408330D01*
X125396218Y-114428847D01*
X125406446Y-114450471D01*
X125414504Y-114472993D01*
X125420316Y-114496197D01*
X125423826Y-114519858D01*
X125425000Y-114543750D01*
X125425000Y-115456250D01*
X125423826Y-115480142D01*
X125420316Y-115503803D01*
X125414504Y-115527007D01*
X125406446Y-115549529D01*
X125396218Y-115571153D01*
X125383921Y-115591670D01*
X125369671Y-115610883D01*
X125353607Y-115628607D01*
X125335883Y-115644671D01*
X125316670Y-115658921D01*
X125296153Y-115671218D01*
X125274529Y-115681446D01*
X125252007Y-115689504D01*
X125228803Y-115695316D01*
X125205142Y-115698826D01*
X125181250Y-115700000D01*
X124693750Y-115700000D01*
X124669858Y-115698826D01*
X124646197Y-115695316D01*
X124622993Y-115689504D01*
X124600471Y-115681446D01*
X124578847Y-115671218D01*
X124558330Y-115658921D01*
X124539117Y-115644671D01*
X124521393Y-115628607D01*
X124505329Y-115610883D01*
X124491079Y-115591670D01*
X124478782Y-115571153D01*
X124468554Y-115549529D01*
X124460496Y-115527007D01*
X124454684Y-115503803D01*
X124451174Y-115480142D01*
X124450000Y-115456250D01*
X124450000Y-114543750D01*
X124451174Y-114519858D01*
X124454684Y-114496197D01*
X124460496Y-114472993D01*
X124468554Y-114450471D01*
X124478782Y-114428847D01*
X124491079Y-114408330D01*
X124505329Y-114389117D01*
X124521393Y-114371393D01*
X124539117Y-114355329D01*
X124558330Y-114341079D01*
X124578847Y-114328782D01*
X124600471Y-114318554D01*
X124622993Y-114310496D01*
X124646197Y-114304684D01*
X124669858Y-114301174D01*
X124693750Y-114300000D01*
X125181250Y-114300000D01*
X125205142Y-114301174D01*
X125205142Y-114301174D01*
G37*
D13*
X124937500Y-115000000D03*
D12*
G36*
X123330142Y-114301174D02*
X123353803Y-114304684D01*
X123377007Y-114310496D01*
X123399529Y-114318554D01*
X123421153Y-114328782D01*
X123441670Y-114341079D01*
X123460883Y-114355329D01*
X123478607Y-114371393D01*
X123494671Y-114389117D01*
X123508921Y-114408330D01*
X123521218Y-114428847D01*
X123531446Y-114450471D01*
X123539504Y-114472993D01*
X123545316Y-114496197D01*
X123548826Y-114519858D01*
X123550000Y-114543750D01*
X123550000Y-115456250D01*
X123548826Y-115480142D01*
X123545316Y-115503803D01*
X123539504Y-115527007D01*
X123531446Y-115549529D01*
X123521218Y-115571153D01*
X123508921Y-115591670D01*
X123494671Y-115610883D01*
X123478607Y-115628607D01*
X123460883Y-115644671D01*
X123441670Y-115658921D01*
X123421153Y-115671218D01*
X123399529Y-115681446D01*
X123377007Y-115689504D01*
X123353803Y-115695316D01*
X123330142Y-115698826D01*
X123306250Y-115700000D01*
X122818750Y-115700000D01*
X122794858Y-115698826D01*
X122771197Y-115695316D01*
X122747993Y-115689504D01*
X122725471Y-115681446D01*
X122703847Y-115671218D01*
X122683330Y-115658921D01*
X122664117Y-115644671D01*
X122646393Y-115628607D01*
X122630329Y-115610883D01*
X122616079Y-115591670D01*
X122603782Y-115571153D01*
X122593554Y-115549529D01*
X122585496Y-115527007D01*
X122579684Y-115503803D01*
X122576174Y-115480142D01*
X122575000Y-115456250D01*
X122575000Y-114543750D01*
X122576174Y-114519858D01*
X122579684Y-114496197D01*
X122585496Y-114472993D01*
X122593554Y-114450471D01*
X122603782Y-114428847D01*
X122616079Y-114408330D01*
X122630329Y-114389117D01*
X122646393Y-114371393D01*
X122664117Y-114355329D01*
X122683330Y-114341079D01*
X122703847Y-114328782D01*
X122725471Y-114318554D01*
X122747993Y-114310496D01*
X122771197Y-114304684D01*
X122794858Y-114301174D01*
X122818750Y-114300000D01*
X123306250Y-114300000D01*
X123330142Y-114301174D01*
X123330142Y-114301174D01*
G37*
D13*
X123062500Y-115000000D03*
G04 #@! TD*
D14*
G04 #@! TO.C,U6*
X132155000Y-123800000D03*
X130885000Y-123800000D03*
X129615000Y-123800000D03*
X128345000Y-123800000D03*
X128345000Y-129200000D03*
X129615000Y-129200000D03*
X130885000Y-129200000D03*
X132155000Y-129200000D03*
G04 #@! TD*
D12*
G04 #@! TO.C,C5*
G36*
X118830142Y-82801174D02*
X118853803Y-82804684D01*
X118877007Y-82810496D01*
X118899529Y-82818554D01*
X118921153Y-82828782D01*
X118941670Y-82841079D01*
X118960883Y-82855329D01*
X118978607Y-82871393D01*
X118994671Y-82889117D01*
X119008921Y-82908330D01*
X119021218Y-82928847D01*
X119031446Y-82950471D01*
X119039504Y-82972993D01*
X119045316Y-82996197D01*
X119048826Y-83019858D01*
X119050000Y-83043750D01*
X119050000Y-83956250D01*
X119048826Y-83980142D01*
X119045316Y-84003803D01*
X119039504Y-84027007D01*
X119031446Y-84049529D01*
X119021218Y-84071153D01*
X119008921Y-84091670D01*
X118994671Y-84110883D01*
X118978607Y-84128607D01*
X118960883Y-84144671D01*
X118941670Y-84158921D01*
X118921153Y-84171218D01*
X118899529Y-84181446D01*
X118877007Y-84189504D01*
X118853803Y-84195316D01*
X118830142Y-84198826D01*
X118806250Y-84200000D01*
X118318750Y-84200000D01*
X118294858Y-84198826D01*
X118271197Y-84195316D01*
X118247993Y-84189504D01*
X118225471Y-84181446D01*
X118203847Y-84171218D01*
X118183330Y-84158921D01*
X118164117Y-84144671D01*
X118146393Y-84128607D01*
X118130329Y-84110883D01*
X118116079Y-84091670D01*
X118103782Y-84071153D01*
X118093554Y-84049529D01*
X118085496Y-84027007D01*
X118079684Y-84003803D01*
X118076174Y-83980142D01*
X118075000Y-83956250D01*
X118075000Y-83043750D01*
X118076174Y-83019858D01*
X118079684Y-82996197D01*
X118085496Y-82972993D01*
X118093554Y-82950471D01*
X118103782Y-82928847D01*
X118116079Y-82908330D01*
X118130329Y-82889117D01*
X118146393Y-82871393D01*
X118164117Y-82855329D01*
X118183330Y-82841079D01*
X118203847Y-82828782D01*
X118225471Y-82818554D01*
X118247993Y-82810496D01*
X118271197Y-82804684D01*
X118294858Y-82801174D01*
X118318750Y-82800000D01*
X118806250Y-82800000D01*
X118830142Y-82801174D01*
X118830142Y-82801174D01*
G37*
D13*
X118562500Y-83500000D03*
D12*
G36*
X120705142Y-82801174D02*
X120728803Y-82804684D01*
X120752007Y-82810496D01*
X120774529Y-82818554D01*
X120796153Y-82828782D01*
X120816670Y-82841079D01*
X120835883Y-82855329D01*
X120853607Y-82871393D01*
X120869671Y-82889117D01*
X120883921Y-82908330D01*
X120896218Y-82928847D01*
X120906446Y-82950471D01*
X120914504Y-82972993D01*
X120920316Y-82996197D01*
X120923826Y-83019858D01*
X120925000Y-83043750D01*
X120925000Y-83956250D01*
X120923826Y-83980142D01*
X120920316Y-84003803D01*
X120914504Y-84027007D01*
X120906446Y-84049529D01*
X120896218Y-84071153D01*
X120883921Y-84091670D01*
X120869671Y-84110883D01*
X120853607Y-84128607D01*
X120835883Y-84144671D01*
X120816670Y-84158921D01*
X120796153Y-84171218D01*
X120774529Y-84181446D01*
X120752007Y-84189504D01*
X120728803Y-84195316D01*
X120705142Y-84198826D01*
X120681250Y-84200000D01*
X120193750Y-84200000D01*
X120169858Y-84198826D01*
X120146197Y-84195316D01*
X120122993Y-84189504D01*
X120100471Y-84181446D01*
X120078847Y-84171218D01*
X120058330Y-84158921D01*
X120039117Y-84144671D01*
X120021393Y-84128607D01*
X120005329Y-84110883D01*
X119991079Y-84091670D01*
X119978782Y-84071153D01*
X119968554Y-84049529D01*
X119960496Y-84027007D01*
X119954684Y-84003803D01*
X119951174Y-83980142D01*
X119950000Y-83956250D01*
X119950000Y-83043750D01*
X119951174Y-83019858D01*
X119954684Y-82996197D01*
X119960496Y-82972993D01*
X119968554Y-82950471D01*
X119978782Y-82928847D01*
X119991079Y-82908330D01*
X120005329Y-82889117D01*
X120021393Y-82871393D01*
X120039117Y-82855329D01*
X120058330Y-82841079D01*
X120078847Y-82828782D01*
X120100471Y-82818554D01*
X120122993Y-82810496D01*
X120146197Y-82804684D01*
X120169858Y-82801174D01*
X120193750Y-82800000D01*
X120681250Y-82800000D01*
X120705142Y-82801174D01*
X120705142Y-82801174D01*
G37*
D13*
X120437500Y-83500000D03*
G04 #@! TD*
D14*
G04 #@! TO.C,U5*
X136405000Y-113950000D03*
X135135000Y-113950000D03*
X133865000Y-113950000D03*
X132595000Y-113950000D03*
X132595000Y-108550000D03*
X133865000Y-108550000D03*
X135135000Y-108550000D03*
X136405000Y-108550000D03*
G04 #@! TD*
D15*
G04 #@! TO.C,U2*
X114300000Y-101095000D03*
X114300000Y-102365000D03*
X114300000Y-103635000D03*
X114300000Y-104905000D03*
X119700000Y-104905000D03*
X119700000Y-103635000D03*
X119700000Y-102365000D03*
X119700000Y-101095000D03*
G04 #@! TD*
D12*
G04 #@! TO.C,R20*
G36*
X130230142Y-130576174D02*
X130253803Y-130579684D01*
X130277007Y-130585496D01*
X130299529Y-130593554D01*
X130321153Y-130603782D01*
X130341670Y-130616079D01*
X130360883Y-130630329D01*
X130378607Y-130646393D01*
X130394671Y-130664117D01*
X130408921Y-130683330D01*
X130421218Y-130703847D01*
X130431446Y-130725471D01*
X130439504Y-130747993D01*
X130445316Y-130771197D01*
X130448826Y-130794858D01*
X130450000Y-130818750D01*
X130450000Y-131306250D01*
X130448826Y-131330142D01*
X130445316Y-131353803D01*
X130439504Y-131377007D01*
X130431446Y-131399529D01*
X130421218Y-131421153D01*
X130408921Y-131441670D01*
X130394671Y-131460883D01*
X130378607Y-131478607D01*
X130360883Y-131494671D01*
X130341670Y-131508921D01*
X130321153Y-131521218D01*
X130299529Y-131531446D01*
X130277007Y-131539504D01*
X130253803Y-131545316D01*
X130230142Y-131548826D01*
X130206250Y-131550000D01*
X129293750Y-131550000D01*
X129269858Y-131548826D01*
X129246197Y-131545316D01*
X129222993Y-131539504D01*
X129200471Y-131531446D01*
X129178847Y-131521218D01*
X129158330Y-131508921D01*
X129139117Y-131494671D01*
X129121393Y-131478607D01*
X129105329Y-131460883D01*
X129091079Y-131441670D01*
X129078782Y-131421153D01*
X129068554Y-131399529D01*
X129060496Y-131377007D01*
X129054684Y-131353803D01*
X129051174Y-131330142D01*
X129050000Y-131306250D01*
X129050000Y-130818750D01*
X129051174Y-130794858D01*
X129054684Y-130771197D01*
X129060496Y-130747993D01*
X129068554Y-130725471D01*
X129078782Y-130703847D01*
X129091079Y-130683330D01*
X129105329Y-130664117D01*
X129121393Y-130646393D01*
X129139117Y-130630329D01*
X129158330Y-130616079D01*
X129178847Y-130603782D01*
X129200471Y-130593554D01*
X129222993Y-130585496D01*
X129246197Y-130579684D01*
X129269858Y-130576174D01*
X129293750Y-130575000D01*
X130206250Y-130575000D01*
X130230142Y-130576174D01*
X130230142Y-130576174D01*
G37*
D13*
X129750000Y-131062500D03*
D12*
G36*
X130230142Y-132451174D02*
X130253803Y-132454684D01*
X130277007Y-132460496D01*
X130299529Y-132468554D01*
X130321153Y-132478782D01*
X130341670Y-132491079D01*
X130360883Y-132505329D01*
X130378607Y-132521393D01*
X130394671Y-132539117D01*
X130408921Y-132558330D01*
X130421218Y-132578847D01*
X130431446Y-132600471D01*
X130439504Y-132622993D01*
X130445316Y-132646197D01*
X130448826Y-132669858D01*
X130450000Y-132693750D01*
X130450000Y-133181250D01*
X130448826Y-133205142D01*
X130445316Y-133228803D01*
X130439504Y-133252007D01*
X130431446Y-133274529D01*
X130421218Y-133296153D01*
X130408921Y-133316670D01*
X130394671Y-133335883D01*
X130378607Y-133353607D01*
X130360883Y-133369671D01*
X130341670Y-133383921D01*
X130321153Y-133396218D01*
X130299529Y-133406446D01*
X130277007Y-133414504D01*
X130253803Y-133420316D01*
X130230142Y-133423826D01*
X130206250Y-133425000D01*
X129293750Y-133425000D01*
X129269858Y-133423826D01*
X129246197Y-133420316D01*
X129222993Y-133414504D01*
X129200471Y-133406446D01*
X129178847Y-133396218D01*
X129158330Y-133383921D01*
X129139117Y-133369671D01*
X129121393Y-133353607D01*
X129105329Y-133335883D01*
X129091079Y-133316670D01*
X129078782Y-133296153D01*
X129068554Y-133274529D01*
X129060496Y-133252007D01*
X129054684Y-133228803D01*
X129051174Y-133205142D01*
X129050000Y-133181250D01*
X129050000Y-132693750D01*
X129051174Y-132669858D01*
X129054684Y-132646197D01*
X129060496Y-132622993D01*
X129068554Y-132600471D01*
X129078782Y-132578847D01*
X129091079Y-132558330D01*
X129105329Y-132539117D01*
X129121393Y-132521393D01*
X129139117Y-132505329D01*
X129158330Y-132491079D01*
X129178847Y-132478782D01*
X129200471Y-132468554D01*
X129222993Y-132460496D01*
X129246197Y-132454684D01*
X129269858Y-132451174D01*
X129293750Y-132450000D01*
X130206250Y-132450000D01*
X130230142Y-132451174D01*
X130230142Y-132451174D01*
G37*
D13*
X129750000Y-132937500D03*
G04 #@! TD*
D15*
G04 #@! TO.C,U1*
X120700000Y-114095000D03*
X120700000Y-115365000D03*
X120700000Y-116635000D03*
X120700000Y-117905000D03*
X115300000Y-117905000D03*
X115300000Y-116635000D03*
X115300000Y-115365000D03*
X115300000Y-114095000D03*
G04 #@! TD*
D16*
G04 #@! TO.C,U4*
X128250000Y-74650000D03*
X127750000Y-74650000D03*
X127250000Y-74650000D03*
X126750000Y-74650000D03*
X126250000Y-74650000D03*
X125750000Y-74650000D03*
X125250000Y-74650000D03*
X124750000Y-74650000D03*
X124250000Y-74650000D03*
X123750000Y-74650000D03*
X123250000Y-74650000D03*
X122750000Y-74650000D03*
D17*
X121150000Y-76250000D03*
X121150000Y-76750000D03*
X121150000Y-77250000D03*
X121150000Y-77750000D03*
X121150000Y-78250000D03*
X121150000Y-78750000D03*
X121150000Y-79250000D03*
X121150000Y-79750000D03*
X121150000Y-80250000D03*
X121150000Y-80750000D03*
X121150000Y-81250000D03*
X121150000Y-81750000D03*
D16*
X122750000Y-83350000D03*
X123250000Y-83350000D03*
X123750000Y-83350000D03*
X124250000Y-83350000D03*
X124750000Y-83350000D03*
X125250000Y-83350000D03*
X125750000Y-83350000D03*
X126250000Y-83350000D03*
X126750000Y-83350000D03*
X127250000Y-83350000D03*
X127750000Y-83350000D03*
X128250000Y-83350000D03*
D17*
X129850000Y-81750000D03*
X129850000Y-81250000D03*
X129850000Y-80750000D03*
X129850000Y-80250000D03*
X129850000Y-79750000D03*
X129850000Y-79250000D03*
X129850000Y-78750000D03*
X129850000Y-78250000D03*
X129850000Y-77750000D03*
X129850000Y-77250000D03*
X129850000Y-76750000D03*
X129850000Y-76250000D03*
G04 #@! TD*
D18*
G04 #@! TO.C,C13*
X112250000Y-135500000D03*
X115250000Y-135500000D03*
G04 #@! TD*
D12*
G04 #@! TO.C,C3*
G36*
X117205142Y-125301174D02*
X117228803Y-125304684D01*
X117252007Y-125310496D01*
X117274529Y-125318554D01*
X117296153Y-125328782D01*
X117316670Y-125341079D01*
X117335883Y-125355329D01*
X117353607Y-125371393D01*
X117369671Y-125389117D01*
X117383921Y-125408330D01*
X117396218Y-125428847D01*
X117406446Y-125450471D01*
X117414504Y-125472993D01*
X117420316Y-125496197D01*
X117423826Y-125519858D01*
X117425000Y-125543750D01*
X117425000Y-126456250D01*
X117423826Y-126480142D01*
X117420316Y-126503803D01*
X117414504Y-126527007D01*
X117406446Y-126549529D01*
X117396218Y-126571153D01*
X117383921Y-126591670D01*
X117369671Y-126610883D01*
X117353607Y-126628607D01*
X117335883Y-126644671D01*
X117316670Y-126658921D01*
X117296153Y-126671218D01*
X117274529Y-126681446D01*
X117252007Y-126689504D01*
X117228803Y-126695316D01*
X117205142Y-126698826D01*
X117181250Y-126700000D01*
X116693750Y-126700000D01*
X116669858Y-126698826D01*
X116646197Y-126695316D01*
X116622993Y-126689504D01*
X116600471Y-126681446D01*
X116578847Y-126671218D01*
X116558330Y-126658921D01*
X116539117Y-126644671D01*
X116521393Y-126628607D01*
X116505329Y-126610883D01*
X116491079Y-126591670D01*
X116478782Y-126571153D01*
X116468554Y-126549529D01*
X116460496Y-126527007D01*
X116454684Y-126503803D01*
X116451174Y-126480142D01*
X116450000Y-126456250D01*
X116450000Y-125543750D01*
X116451174Y-125519858D01*
X116454684Y-125496197D01*
X116460496Y-125472993D01*
X116468554Y-125450471D01*
X116478782Y-125428847D01*
X116491079Y-125408330D01*
X116505329Y-125389117D01*
X116521393Y-125371393D01*
X116539117Y-125355329D01*
X116558330Y-125341079D01*
X116578847Y-125328782D01*
X116600471Y-125318554D01*
X116622993Y-125310496D01*
X116646197Y-125304684D01*
X116669858Y-125301174D01*
X116693750Y-125300000D01*
X117181250Y-125300000D01*
X117205142Y-125301174D01*
X117205142Y-125301174D01*
G37*
D13*
X116937500Y-126000000D03*
D12*
G36*
X115330142Y-125301174D02*
X115353803Y-125304684D01*
X115377007Y-125310496D01*
X115399529Y-125318554D01*
X115421153Y-125328782D01*
X115441670Y-125341079D01*
X115460883Y-125355329D01*
X115478607Y-125371393D01*
X115494671Y-125389117D01*
X115508921Y-125408330D01*
X115521218Y-125428847D01*
X115531446Y-125450471D01*
X115539504Y-125472993D01*
X115545316Y-125496197D01*
X115548826Y-125519858D01*
X115550000Y-125543750D01*
X115550000Y-126456250D01*
X115548826Y-126480142D01*
X115545316Y-126503803D01*
X115539504Y-126527007D01*
X115531446Y-126549529D01*
X115521218Y-126571153D01*
X115508921Y-126591670D01*
X115494671Y-126610883D01*
X115478607Y-126628607D01*
X115460883Y-126644671D01*
X115441670Y-126658921D01*
X115421153Y-126671218D01*
X115399529Y-126681446D01*
X115377007Y-126689504D01*
X115353803Y-126695316D01*
X115330142Y-126698826D01*
X115306250Y-126700000D01*
X114818750Y-126700000D01*
X114794858Y-126698826D01*
X114771197Y-126695316D01*
X114747993Y-126689504D01*
X114725471Y-126681446D01*
X114703847Y-126671218D01*
X114683330Y-126658921D01*
X114664117Y-126644671D01*
X114646393Y-126628607D01*
X114630329Y-126610883D01*
X114616079Y-126591670D01*
X114603782Y-126571153D01*
X114593554Y-126549529D01*
X114585496Y-126527007D01*
X114579684Y-126503803D01*
X114576174Y-126480142D01*
X114575000Y-126456250D01*
X114575000Y-125543750D01*
X114576174Y-125519858D01*
X114579684Y-125496197D01*
X114585496Y-125472993D01*
X114593554Y-125450471D01*
X114603782Y-125428847D01*
X114616079Y-125408330D01*
X114630329Y-125389117D01*
X114646393Y-125371393D01*
X114664117Y-125355329D01*
X114683330Y-125341079D01*
X114703847Y-125328782D01*
X114725471Y-125318554D01*
X114747993Y-125310496D01*
X114771197Y-125304684D01*
X114794858Y-125301174D01*
X114818750Y-125300000D01*
X115306250Y-125300000D01*
X115330142Y-125301174D01*
X115330142Y-125301174D01*
G37*
D13*
X115062500Y-126000000D03*
G04 #@! TD*
D12*
G04 #@! TO.C,C1*
G36*
X121205142Y-125301174D02*
X121228803Y-125304684D01*
X121252007Y-125310496D01*
X121274529Y-125318554D01*
X121296153Y-125328782D01*
X121316670Y-125341079D01*
X121335883Y-125355329D01*
X121353607Y-125371393D01*
X121369671Y-125389117D01*
X121383921Y-125408330D01*
X121396218Y-125428847D01*
X121406446Y-125450471D01*
X121414504Y-125472993D01*
X121420316Y-125496197D01*
X121423826Y-125519858D01*
X121425000Y-125543750D01*
X121425000Y-126456250D01*
X121423826Y-126480142D01*
X121420316Y-126503803D01*
X121414504Y-126527007D01*
X121406446Y-126549529D01*
X121396218Y-126571153D01*
X121383921Y-126591670D01*
X121369671Y-126610883D01*
X121353607Y-126628607D01*
X121335883Y-126644671D01*
X121316670Y-126658921D01*
X121296153Y-126671218D01*
X121274529Y-126681446D01*
X121252007Y-126689504D01*
X121228803Y-126695316D01*
X121205142Y-126698826D01*
X121181250Y-126700000D01*
X120693750Y-126700000D01*
X120669858Y-126698826D01*
X120646197Y-126695316D01*
X120622993Y-126689504D01*
X120600471Y-126681446D01*
X120578847Y-126671218D01*
X120558330Y-126658921D01*
X120539117Y-126644671D01*
X120521393Y-126628607D01*
X120505329Y-126610883D01*
X120491079Y-126591670D01*
X120478782Y-126571153D01*
X120468554Y-126549529D01*
X120460496Y-126527007D01*
X120454684Y-126503803D01*
X120451174Y-126480142D01*
X120450000Y-126456250D01*
X120450000Y-125543750D01*
X120451174Y-125519858D01*
X120454684Y-125496197D01*
X120460496Y-125472993D01*
X120468554Y-125450471D01*
X120478782Y-125428847D01*
X120491079Y-125408330D01*
X120505329Y-125389117D01*
X120521393Y-125371393D01*
X120539117Y-125355329D01*
X120558330Y-125341079D01*
X120578847Y-125328782D01*
X120600471Y-125318554D01*
X120622993Y-125310496D01*
X120646197Y-125304684D01*
X120669858Y-125301174D01*
X120693750Y-125300000D01*
X121181250Y-125300000D01*
X121205142Y-125301174D01*
X121205142Y-125301174D01*
G37*
D13*
X120937500Y-126000000D03*
D12*
G36*
X119330142Y-125301174D02*
X119353803Y-125304684D01*
X119377007Y-125310496D01*
X119399529Y-125318554D01*
X119421153Y-125328782D01*
X119441670Y-125341079D01*
X119460883Y-125355329D01*
X119478607Y-125371393D01*
X119494671Y-125389117D01*
X119508921Y-125408330D01*
X119521218Y-125428847D01*
X119531446Y-125450471D01*
X119539504Y-125472993D01*
X119545316Y-125496197D01*
X119548826Y-125519858D01*
X119550000Y-125543750D01*
X119550000Y-126456250D01*
X119548826Y-126480142D01*
X119545316Y-126503803D01*
X119539504Y-126527007D01*
X119531446Y-126549529D01*
X119521218Y-126571153D01*
X119508921Y-126591670D01*
X119494671Y-126610883D01*
X119478607Y-126628607D01*
X119460883Y-126644671D01*
X119441670Y-126658921D01*
X119421153Y-126671218D01*
X119399529Y-126681446D01*
X119377007Y-126689504D01*
X119353803Y-126695316D01*
X119330142Y-126698826D01*
X119306250Y-126700000D01*
X118818750Y-126700000D01*
X118794858Y-126698826D01*
X118771197Y-126695316D01*
X118747993Y-126689504D01*
X118725471Y-126681446D01*
X118703847Y-126671218D01*
X118683330Y-126658921D01*
X118664117Y-126644671D01*
X118646393Y-126628607D01*
X118630329Y-126610883D01*
X118616079Y-126591670D01*
X118603782Y-126571153D01*
X118593554Y-126549529D01*
X118585496Y-126527007D01*
X118579684Y-126503803D01*
X118576174Y-126480142D01*
X118575000Y-126456250D01*
X118575000Y-125543750D01*
X118576174Y-125519858D01*
X118579684Y-125496197D01*
X118585496Y-125472993D01*
X118593554Y-125450471D01*
X118603782Y-125428847D01*
X118616079Y-125408330D01*
X118630329Y-125389117D01*
X118646393Y-125371393D01*
X118664117Y-125355329D01*
X118683330Y-125341079D01*
X118703847Y-125328782D01*
X118725471Y-125318554D01*
X118747993Y-125310496D01*
X118771197Y-125304684D01*
X118794858Y-125301174D01*
X118818750Y-125300000D01*
X119306250Y-125300000D01*
X119330142Y-125301174D01*
X119330142Y-125301174D01*
G37*
D13*
X119062500Y-126000000D03*
G04 #@! TD*
D12*
G04 #@! TO.C,C2*
G36*
X130980142Y-97076174D02*
X131003803Y-97079684D01*
X131027007Y-97085496D01*
X131049529Y-97093554D01*
X131071153Y-97103782D01*
X131091670Y-97116079D01*
X131110883Y-97130329D01*
X131128607Y-97146393D01*
X131144671Y-97164117D01*
X131158921Y-97183330D01*
X131171218Y-97203847D01*
X131181446Y-97225471D01*
X131189504Y-97247993D01*
X131195316Y-97271197D01*
X131198826Y-97294858D01*
X131200000Y-97318750D01*
X131200000Y-97806250D01*
X131198826Y-97830142D01*
X131195316Y-97853803D01*
X131189504Y-97877007D01*
X131181446Y-97899529D01*
X131171218Y-97921153D01*
X131158921Y-97941670D01*
X131144671Y-97960883D01*
X131128607Y-97978607D01*
X131110883Y-97994671D01*
X131091670Y-98008921D01*
X131071153Y-98021218D01*
X131049529Y-98031446D01*
X131027007Y-98039504D01*
X131003803Y-98045316D01*
X130980142Y-98048826D01*
X130956250Y-98050000D01*
X130043750Y-98050000D01*
X130019858Y-98048826D01*
X129996197Y-98045316D01*
X129972993Y-98039504D01*
X129950471Y-98031446D01*
X129928847Y-98021218D01*
X129908330Y-98008921D01*
X129889117Y-97994671D01*
X129871393Y-97978607D01*
X129855329Y-97960883D01*
X129841079Y-97941670D01*
X129828782Y-97921153D01*
X129818554Y-97899529D01*
X129810496Y-97877007D01*
X129804684Y-97853803D01*
X129801174Y-97830142D01*
X129800000Y-97806250D01*
X129800000Y-97318750D01*
X129801174Y-97294858D01*
X129804684Y-97271197D01*
X129810496Y-97247993D01*
X129818554Y-97225471D01*
X129828782Y-97203847D01*
X129841079Y-97183330D01*
X129855329Y-97164117D01*
X129871393Y-97146393D01*
X129889117Y-97130329D01*
X129908330Y-97116079D01*
X129928847Y-97103782D01*
X129950471Y-97093554D01*
X129972993Y-97085496D01*
X129996197Y-97079684D01*
X130019858Y-97076174D01*
X130043750Y-97075000D01*
X130956250Y-97075000D01*
X130980142Y-97076174D01*
X130980142Y-97076174D01*
G37*
D13*
X130500000Y-97562500D03*
D12*
G36*
X130980142Y-98951174D02*
X131003803Y-98954684D01*
X131027007Y-98960496D01*
X131049529Y-98968554D01*
X131071153Y-98978782D01*
X131091670Y-98991079D01*
X131110883Y-99005329D01*
X131128607Y-99021393D01*
X131144671Y-99039117D01*
X131158921Y-99058330D01*
X131171218Y-99078847D01*
X131181446Y-99100471D01*
X131189504Y-99122993D01*
X131195316Y-99146197D01*
X131198826Y-99169858D01*
X131200000Y-99193750D01*
X131200000Y-99681250D01*
X131198826Y-99705142D01*
X131195316Y-99728803D01*
X131189504Y-99752007D01*
X131181446Y-99774529D01*
X131171218Y-99796153D01*
X131158921Y-99816670D01*
X131144671Y-99835883D01*
X131128607Y-99853607D01*
X131110883Y-99869671D01*
X131091670Y-99883921D01*
X131071153Y-99896218D01*
X131049529Y-99906446D01*
X131027007Y-99914504D01*
X131003803Y-99920316D01*
X130980142Y-99923826D01*
X130956250Y-99925000D01*
X130043750Y-99925000D01*
X130019858Y-99923826D01*
X129996197Y-99920316D01*
X129972993Y-99914504D01*
X129950471Y-99906446D01*
X129928847Y-99896218D01*
X129908330Y-99883921D01*
X129889117Y-99869671D01*
X129871393Y-99853607D01*
X129855329Y-99835883D01*
X129841079Y-99816670D01*
X129828782Y-99796153D01*
X129818554Y-99774529D01*
X129810496Y-99752007D01*
X129804684Y-99728803D01*
X129801174Y-99705142D01*
X129800000Y-99681250D01*
X129800000Y-99193750D01*
X129801174Y-99169858D01*
X129804684Y-99146197D01*
X129810496Y-99122993D01*
X129818554Y-99100471D01*
X129828782Y-99078847D01*
X129841079Y-99058330D01*
X129855329Y-99039117D01*
X129871393Y-99021393D01*
X129889117Y-99005329D01*
X129908330Y-98991079D01*
X129928847Y-98978782D01*
X129950471Y-98968554D01*
X129972993Y-98960496D01*
X129996197Y-98954684D01*
X130019858Y-98951174D01*
X130043750Y-98950000D01*
X130956250Y-98950000D01*
X130980142Y-98951174D01*
X130980142Y-98951174D01*
G37*
D13*
X130500000Y-99437500D03*
G04 #@! TD*
D18*
G04 #@! TO.C,C12*
X139500000Y-135000000D03*
X136500000Y-135000000D03*
G04 #@! TD*
D12*
G04 #@! TO.C,C4*
G36*
X124980142Y-72451174D02*
X125003803Y-72454684D01*
X125027007Y-72460496D01*
X125049529Y-72468554D01*
X125071153Y-72478782D01*
X125091670Y-72491079D01*
X125110883Y-72505329D01*
X125128607Y-72521393D01*
X125144671Y-72539117D01*
X125158921Y-72558330D01*
X125171218Y-72578847D01*
X125181446Y-72600471D01*
X125189504Y-72622993D01*
X125195316Y-72646197D01*
X125198826Y-72669858D01*
X125200000Y-72693750D01*
X125200000Y-73181250D01*
X125198826Y-73205142D01*
X125195316Y-73228803D01*
X125189504Y-73252007D01*
X125181446Y-73274529D01*
X125171218Y-73296153D01*
X125158921Y-73316670D01*
X125144671Y-73335883D01*
X125128607Y-73353607D01*
X125110883Y-73369671D01*
X125091670Y-73383921D01*
X125071153Y-73396218D01*
X125049529Y-73406446D01*
X125027007Y-73414504D01*
X125003803Y-73420316D01*
X124980142Y-73423826D01*
X124956250Y-73425000D01*
X124043750Y-73425000D01*
X124019858Y-73423826D01*
X123996197Y-73420316D01*
X123972993Y-73414504D01*
X123950471Y-73406446D01*
X123928847Y-73396218D01*
X123908330Y-73383921D01*
X123889117Y-73369671D01*
X123871393Y-73353607D01*
X123855329Y-73335883D01*
X123841079Y-73316670D01*
X123828782Y-73296153D01*
X123818554Y-73274529D01*
X123810496Y-73252007D01*
X123804684Y-73228803D01*
X123801174Y-73205142D01*
X123800000Y-73181250D01*
X123800000Y-72693750D01*
X123801174Y-72669858D01*
X123804684Y-72646197D01*
X123810496Y-72622993D01*
X123818554Y-72600471D01*
X123828782Y-72578847D01*
X123841079Y-72558330D01*
X123855329Y-72539117D01*
X123871393Y-72521393D01*
X123889117Y-72505329D01*
X123908330Y-72491079D01*
X123928847Y-72478782D01*
X123950471Y-72468554D01*
X123972993Y-72460496D01*
X123996197Y-72454684D01*
X124019858Y-72451174D01*
X124043750Y-72450000D01*
X124956250Y-72450000D01*
X124980142Y-72451174D01*
X124980142Y-72451174D01*
G37*
D13*
X124500000Y-72937500D03*
D12*
G36*
X124980142Y-70576174D02*
X125003803Y-70579684D01*
X125027007Y-70585496D01*
X125049529Y-70593554D01*
X125071153Y-70603782D01*
X125091670Y-70616079D01*
X125110883Y-70630329D01*
X125128607Y-70646393D01*
X125144671Y-70664117D01*
X125158921Y-70683330D01*
X125171218Y-70703847D01*
X125181446Y-70725471D01*
X125189504Y-70747993D01*
X125195316Y-70771197D01*
X125198826Y-70794858D01*
X125200000Y-70818750D01*
X125200000Y-71306250D01*
X125198826Y-71330142D01*
X125195316Y-71353803D01*
X125189504Y-71377007D01*
X125181446Y-71399529D01*
X125171218Y-71421153D01*
X125158921Y-71441670D01*
X125144671Y-71460883D01*
X125128607Y-71478607D01*
X125110883Y-71494671D01*
X125091670Y-71508921D01*
X125071153Y-71521218D01*
X125049529Y-71531446D01*
X125027007Y-71539504D01*
X125003803Y-71545316D01*
X124980142Y-71548826D01*
X124956250Y-71550000D01*
X124043750Y-71550000D01*
X124019858Y-71548826D01*
X123996197Y-71545316D01*
X123972993Y-71539504D01*
X123950471Y-71531446D01*
X123928847Y-71521218D01*
X123908330Y-71508921D01*
X123889117Y-71494671D01*
X123871393Y-71478607D01*
X123855329Y-71460883D01*
X123841079Y-71441670D01*
X123828782Y-71421153D01*
X123818554Y-71399529D01*
X123810496Y-71377007D01*
X123804684Y-71353803D01*
X123801174Y-71330142D01*
X123800000Y-71306250D01*
X123800000Y-70818750D01*
X123801174Y-70794858D01*
X123804684Y-70771197D01*
X123810496Y-70747993D01*
X123818554Y-70725471D01*
X123828782Y-70703847D01*
X123841079Y-70683330D01*
X123855329Y-70664117D01*
X123871393Y-70646393D01*
X123889117Y-70630329D01*
X123908330Y-70616079D01*
X123928847Y-70603782D01*
X123950471Y-70593554D01*
X123972993Y-70585496D01*
X123996197Y-70579684D01*
X124019858Y-70576174D01*
X124043750Y-70575000D01*
X124956250Y-70575000D01*
X124980142Y-70576174D01*
X124980142Y-70576174D01*
G37*
D13*
X124500000Y-71062500D03*
G04 #@! TD*
D12*
G04 #@! TO.C,C6*
G36*
X129480142Y-72451174D02*
X129503803Y-72454684D01*
X129527007Y-72460496D01*
X129549529Y-72468554D01*
X129571153Y-72478782D01*
X129591670Y-72491079D01*
X129610883Y-72505329D01*
X129628607Y-72521393D01*
X129644671Y-72539117D01*
X129658921Y-72558330D01*
X129671218Y-72578847D01*
X129681446Y-72600471D01*
X129689504Y-72622993D01*
X129695316Y-72646197D01*
X129698826Y-72669858D01*
X129700000Y-72693750D01*
X129700000Y-73181250D01*
X129698826Y-73205142D01*
X129695316Y-73228803D01*
X129689504Y-73252007D01*
X129681446Y-73274529D01*
X129671218Y-73296153D01*
X129658921Y-73316670D01*
X129644671Y-73335883D01*
X129628607Y-73353607D01*
X129610883Y-73369671D01*
X129591670Y-73383921D01*
X129571153Y-73396218D01*
X129549529Y-73406446D01*
X129527007Y-73414504D01*
X129503803Y-73420316D01*
X129480142Y-73423826D01*
X129456250Y-73425000D01*
X128543750Y-73425000D01*
X128519858Y-73423826D01*
X128496197Y-73420316D01*
X128472993Y-73414504D01*
X128450471Y-73406446D01*
X128428847Y-73396218D01*
X128408330Y-73383921D01*
X128389117Y-73369671D01*
X128371393Y-73353607D01*
X128355329Y-73335883D01*
X128341079Y-73316670D01*
X128328782Y-73296153D01*
X128318554Y-73274529D01*
X128310496Y-73252007D01*
X128304684Y-73228803D01*
X128301174Y-73205142D01*
X128300000Y-73181250D01*
X128300000Y-72693750D01*
X128301174Y-72669858D01*
X128304684Y-72646197D01*
X128310496Y-72622993D01*
X128318554Y-72600471D01*
X128328782Y-72578847D01*
X128341079Y-72558330D01*
X128355329Y-72539117D01*
X128371393Y-72521393D01*
X128389117Y-72505329D01*
X128408330Y-72491079D01*
X128428847Y-72478782D01*
X128450471Y-72468554D01*
X128472993Y-72460496D01*
X128496197Y-72454684D01*
X128519858Y-72451174D01*
X128543750Y-72450000D01*
X129456250Y-72450000D01*
X129480142Y-72451174D01*
X129480142Y-72451174D01*
G37*
D13*
X129000000Y-72937500D03*
D12*
G36*
X129480142Y-70576174D02*
X129503803Y-70579684D01*
X129527007Y-70585496D01*
X129549529Y-70593554D01*
X129571153Y-70603782D01*
X129591670Y-70616079D01*
X129610883Y-70630329D01*
X129628607Y-70646393D01*
X129644671Y-70664117D01*
X129658921Y-70683330D01*
X129671218Y-70703847D01*
X129681446Y-70725471D01*
X129689504Y-70747993D01*
X129695316Y-70771197D01*
X129698826Y-70794858D01*
X129700000Y-70818750D01*
X129700000Y-71306250D01*
X129698826Y-71330142D01*
X129695316Y-71353803D01*
X129689504Y-71377007D01*
X129681446Y-71399529D01*
X129671218Y-71421153D01*
X129658921Y-71441670D01*
X129644671Y-71460883D01*
X129628607Y-71478607D01*
X129610883Y-71494671D01*
X129591670Y-71508921D01*
X129571153Y-71521218D01*
X129549529Y-71531446D01*
X129527007Y-71539504D01*
X129503803Y-71545316D01*
X129480142Y-71548826D01*
X129456250Y-71550000D01*
X128543750Y-71550000D01*
X128519858Y-71548826D01*
X128496197Y-71545316D01*
X128472993Y-71539504D01*
X128450471Y-71531446D01*
X128428847Y-71521218D01*
X128408330Y-71508921D01*
X128389117Y-71494671D01*
X128371393Y-71478607D01*
X128355329Y-71460883D01*
X128341079Y-71441670D01*
X128328782Y-71421153D01*
X128318554Y-71399529D01*
X128310496Y-71377007D01*
X128304684Y-71353803D01*
X128301174Y-71330142D01*
X128300000Y-71306250D01*
X128300000Y-70818750D01*
X128301174Y-70794858D01*
X128304684Y-70771197D01*
X128310496Y-70747993D01*
X128318554Y-70725471D01*
X128328782Y-70703847D01*
X128341079Y-70683330D01*
X128355329Y-70664117D01*
X128371393Y-70646393D01*
X128389117Y-70630329D01*
X128408330Y-70616079D01*
X128428847Y-70603782D01*
X128450471Y-70593554D01*
X128472993Y-70585496D01*
X128496197Y-70579684D01*
X128519858Y-70576174D01*
X128543750Y-70575000D01*
X129456250Y-70575000D01*
X129480142Y-70576174D01*
X129480142Y-70576174D01*
G37*
D13*
X129000000Y-71062500D03*
G04 #@! TD*
D12*
G04 #@! TO.C,C8*
G36*
X117330142Y-77301174D02*
X117353803Y-77304684D01*
X117377007Y-77310496D01*
X117399529Y-77318554D01*
X117421153Y-77328782D01*
X117441670Y-77341079D01*
X117460883Y-77355329D01*
X117478607Y-77371393D01*
X117494671Y-77389117D01*
X117508921Y-77408330D01*
X117521218Y-77428847D01*
X117531446Y-77450471D01*
X117539504Y-77472993D01*
X117545316Y-77496197D01*
X117548826Y-77519858D01*
X117550000Y-77543750D01*
X117550000Y-78456250D01*
X117548826Y-78480142D01*
X117545316Y-78503803D01*
X117539504Y-78527007D01*
X117531446Y-78549529D01*
X117521218Y-78571153D01*
X117508921Y-78591670D01*
X117494671Y-78610883D01*
X117478607Y-78628607D01*
X117460883Y-78644671D01*
X117441670Y-78658921D01*
X117421153Y-78671218D01*
X117399529Y-78681446D01*
X117377007Y-78689504D01*
X117353803Y-78695316D01*
X117330142Y-78698826D01*
X117306250Y-78700000D01*
X116818750Y-78700000D01*
X116794858Y-78698826D01*
X116771197Y-78695316D01*
X116747993Y-78689504D01*
X116725471Y-78681446D01*
X116703847Y-78671218D01*
X116683330Y-78658921D01*
X116664117Y-78644671D01*
X116646393Y-78628607D01*
X116630329Y-78610883D01*
X116616079Y-78591670D01*
X116603782Y-78571153D01*
X116593554Y-78549529D01*
X116585496Y-78527007D01*
X116579684Y-78503803D01*
X116576174Y-78480142D01*
X116575000Y-78456250D01*
X116575000Y-77543750D01*
X116576174Y-77519858D01*
X116579684Y-77496197D01*
X116585496Y-77472993D01*
X116593554Y-77450471D01*
X116603782Y-77428847D01*
X116616079Y-77408330D01*
X116630329Y-77389117D01*
X116646393Y-77371393D01*
X116664117Y-77355329D01*
X116683330Y-77341079D01*
X116703847Y-77328782D01*
X116725471Y-77318554D01*
X116747993Y-77310496D01*
X116771197Y-77304684D01*
X116794858Y-77301174D01*
X116818750Y-77300000D01*
X117306250Y-77300000D01*
X117330142Y-77301174D01*
X117330142Y-77301174D01*
G37*
D13*
X117062500Y-78000000D03*
D12*
G36*
X119205142Y-77301174D02*
X119228803Y-77304684D01*
X119252007Y-77310496D01*
X119274529Y-77318554D01*
X119296153Y-77328782D01*
X119316670Y-77341079D01*
X119335883Y-77355329D01*
X119353607Y-77371393D01*
X119369671Y-77389117D01*
X119383921Y-77408330D01*
X119396218Y-77428847D01*
X119406446Y-77450471D01*
X119414504Y-77472993D01*
X119420316Y-77496197D01*
X119423826Y-77519858D01*
X119425000Y-77543750D01*
X119425000Y-78456250D01*
X119423826Y-78480142D01*
X119420316Y-78503803D01*
X119414504Y-78527007D01*
X119406446Y-78549529D01*
X119396218Y-78571153D01*
X119383921Y-78591670D01*
X119369671Y-78610883D01*
X119353607Y-78628607D01*
X119335883Y-78644671D01*
X119316670Y-78658921D01*
X119296153Y-78671218D01*
X119274529Y-78681446D01*
X119252007Y-78689504D01*
X119228803Y-78695316D01*
X119205142Y-78698826D01*
X119181250Y-78700000D01*
X118693750Y-78700000D01*
X118669858Y-78698826D01*
X118646197Y-78695316D01*
X118622993Y-78689504D01*
X118600471Y-78681446D01*
X118578847Y-78671218D01*
X118558330Y-78658921D01*
X118539117Y-78644671D01*
X118521393Y-78628607D01*
X118505329Y-78610883D01*
X118491079Y-78591670D01*
X118478782Y-78571153D01*
X118468554Y-78549529D01*
X118460496Y-78527007D01*
X118454684Y-78503803D01*
X118451174Y-78480142D01*
X118450000Y-78456250D01*
X118450000Y-77543750D01*
X118451174Y-77519858D01*
X118454684Y-77496197D01*
X118460496Y-77472993D01*
X118468554Y-77450471D01*
X118478782Y-77428847D01*
X118491079Y-77408330D01*
X118505329Y-77389117D01*
X118521393Y-77371393D01*
X118539117Y-77355329D01*
X118558330Y-77341079D01*
X118578847Y-77328782D01*
X118600471Y-77318554D01*
X118622993Y-77310496D01*
X118646197Y-77304684D01*
X118669858Y-77301174D01*
X118693750Y-77300000D01*
X119181250Y-77300000D01*
X119205142Y-77301174D01*
X119205142Y-77301174D01*
G37*
D13*
X118937500Y-78000000D03*
G04 #@! TD*
D12*
G04 #@! TO.C,C9*
G36*
X121330142Y-111301174D02*
X121353803Y-111304684D01*
X121377007Y-111310496D01*
X121399529Y-111318554D01*
X121421153Y-111328782D01*
X121441670Y-111341079D01*
X121460883Y-111355329D01*
X121478607Y-111371393D01*
X121494671Y-111389117D01*
X121508921Y-111408330D01*
X121521218Y-111428847D01*
X121531446Y-111450471D01*
X121539504Y-111472993D01*
X121545316Y-111496197D01*
X121548826Y-111519858D01*
X121550000Y-111543750D01*
X121550000Y-112456250D01*
X121548826Y-112480142D01*
X121545316Y-112503803D01*
X121539504Y-112527007D01*
X121531446Y-112549529D01*
X121521218Y-112571153D01*
X121508921Y-112591670D01*
X121494671Y-112610883D01*
X121478607Y-112628607D01*
X121460883Y-112644671D01*
X121441670Y-112658921D01*
X121421153Y-112671218D01*
X121399529Y-112681446D01*
X121377007Y-112689504D01*
X121353803Y-112695316D01*
X121330142Y-112698826D01*
X121306250Y-112700000D01*
X120818750Y-112700000D01*
X120794858Y-112698826D01*
X120771197Y-112695316D01*
X120747993Y-112689504D01*
X120725471Y-112681446D01*
X120703847Y-112671218D01*
X120683330Y-112658921D01*
X120664117Y-112644671D01*
X120646393Y-112628607D01*
X120630329Y-112610883D01*
X120616079Y-112591670D01*
X120603782Y-112571153D01*
X120593554Y-112549529D01*
X120585496Y-112527007D01*
X120579684Y-112503803D01*
X120576174Y-112480142D01*
X120575000Y-112456250D01*
X120575000Y-111543750D01*
X120576174Y-111519858D01*
X120579684Y-111496197D01*
X120585496Y-111472993D01*
X120593554Y-111450471D01*
X120603782Y-111428847D01*
X120616079Y-111408330D01*
X120630329Y-111389117D01*
X120646393Y-111371393D01*
X120664117Y-111355329D01*
X120683330Y-111341079D01*
X120703847Y-111328782D01*
X120725471Y-111318554D01*
X120747993Y-111310496D01*
X120771197Y-111304684D01*
X120794858Y-111301174D01*
X120818750Y-111300000D01*
X121306250Y-111300000D01*
X121330142Y-111301174D01*
X121330142Y-111301174D01*
G37*
D13*
X121062500Y-112000000D03*
D12*
G36*
X123205142Y-111301174D02*
X123228803Y-111304684D01*
X123252007Y-111310496D01*
X123274529Y-111318554D01*
X123296153Y-111328782D01*
X123316670Y-111341079D01*
X123335883Y-111355329D01*
X123353607Y-111371393D01*
X123369671Y-111389117D01*
X123383921Y-111408330D01*
X123396218Y-111428847D01*
X123406446Y-111450471D01*
X123414504Y-111472993D01*
X123420316Y-111496197D01*
X123423826Y-111519858D01*
X123425000Y-111543750D01*
X123425000Y-112456250D01*
X123423826Y-112480142D01*
X123420316Y-112503803D01*
X123414504Y-112527007D01*
X123406446Y-112549529D01*
X123396218Y-112571153D01*
X123383921Y-112591670D01*
X123369671Y-112610883D01*
X123353607Y-112628607D01*
X123335883Y-112644671D01*
X123316670Y-112658921D01*
X123296153Y-112671218D01*
X123274529Y-112681446D01*
X123252007Y-112689504D01*
X123228803Y-112695316D01*
X123205142Y-112698826D01*
X123181250Y-112700000D01*
X122693750Y-112700000D01*
X122669858Y-112698826D01*
X122646197Y-112695316D01*
X122622993Y-112689504D01*
X122600471Y-112681446D01*
X122578847Y-112671218D01*
X122558330Y-112658921D01*
X122539117Y-112644671D01*
X122521393Y-112628607D01*
X122505329Y-112610883D01*
X122491079Y-112591670D01*
X122478782Y-112571153D01*
X122468554Y-112549529D01*
X122460496Y-112527007D01*
X122454684Y-112503803D01*
X122451174Y-112480142D01*
X122450000Y-112456250D01*
X122450000Y-111543750D01*
X122451174Y-111519858D01*
X122454684Y-111496197D01*
X122460496Y-111472993D01*
X122468554Y-111450471D01*
X122478782Y-111428847D01*
X122491079Y-111408330D01*
X122505329Y-111389117D01*
X122521393Y-111371393D01*
X122539117Y-111355329D01*
X122558330Y-111341079D01*
X122578847Y-111328782D01*
X122600471Y-111318554D01*
X122622993Y-111310496D01*
X122646197Y-111304684D01*
X122669858Y-111301174D01*
X122693750Y-111300000D01*
X123181250Y-111300000D01*
X123205142Y-111301174D01*
X123205142Y-111301174D01*
G37*
D13*
X122937500Y-112000000D03*
G04 #@! TD*
D12*
G04 #@! TO.C,C10*
G36*
X117205142Y-119301174D02*
X117228803Y-119304684D01*
X117252007Y-119310496D01*
X117274529Y-119318554D01*
X117296153Y-119328782D01*
X117316670Y-119341079D01*
X117335883Y-119355329D01*
X117353607Y-119371393D01*
X117369671Y-119389117D01*
X117383921Y-119408330D01*
X117396218Y-119428847D01*
X117406446Y-119450471D01*
X117414504Y-119472993D01*
X117420316Y-119496197D01*
X117423826Y-119519858D01*
X117425000Y-119543750D01*
X117425000Y-120456250D01*
X117423826Y-120480142D01*
X117420316Y-120503803D01*
X117414504Y-120527007D01*
X117406446Y-120549529D01*
X117396218Y-120571153D01*
X117383921Y-120591670D01*
X117369671Y-120610883D01*
X117353607Y-120628607D01*
X117335883Y-120644671D01*
X117316670Y-120658921D01*
X117296153Y-120671218D01*
X117274529Y-120681446D01*
X117252007Y-120689504D01*
X117228803Y-120695316D01*
X117205142Y-120698826D01*
X117181250Y-120700000D01*
X116693750Y-120700000D01*
X116669858Y-120698826D01*
X116646197Y-120695316D01*
X116622993Y-120689504D01*
X116600471Y-120681446D01*
X116578847Y-120671218D01*
X116558330Y-120658921D01*
X116539117Y-120644671D01*
X116521393Y-120628607D01*
X116505329Y-120610883D01*
X116491079Y-120591670D01*
X116478782Y-120571153D01*
X116468554Y-120549529D01*
X116460496Y-120527007D01*
X116454684Y-120503803D01*
X116451174Y-120480142D01*
X116450000Y-120456250D01*
X116450000Y-119543750D01*
X116451174Y-119519858D01*
X116454684Y-119496197D01*
X116460496Y-119472993D01*
X116468554Y-119450471D01*
X116478782Y-119428847D01*
X116491079Y-119408330D01*
X116505329Y-119389117D01*
X116521393Y-119371393D01*
X116539117Y-119355329D01*
X116558330Y-119341079D01*
X116578847Y-119328782D01*
X116600471Y-119318554D01*
X116622993Y-119310496D01*
X116646197Y-119304684D01*
X116669858Y-119301174D01*
X116693750Y-119300000D01*
X117181250Y-119300000D01*
X117205142Y-119301174D01*
X117205142Y-119301174D01*
G37*
D13*
X116937500Y-120000000D03*
D12*
G36*
X115330142Y-119301174D02*
X115353803Y-119304684D01*
X115377007Y-119310496D01*
X115399529Y-119318554D01*
X115421153Y-119328782D01*
X115441670Y-119341079D01*
X115460883Y-119355329D01*
X115478607Y-119371393D01*
X115494671Y-119389117D01*
X115508921Y-119408330D01*
X115521218Y-119428847D01*
X115531446Y-119450471D01*
X115539504Y-119472993D01*
X115545316Y-119496197D01*
X115548826Y-119519858D01*
X115550000Y-119543750D01*
X115550000Y-120456250D01*
X115548826Y-120480142D01*
X115545316Y-120503803D01*
X115539504Y-120527007D01*
X115531446Y-120549529D01*
X115521218Y-120571153D01*
X115508921Y-120591670D01*
X115494671Y-120610883D01*
X115478607Y-120628607D01*
X115460883Y-120644671D01*
X115441670Y-120658921D01*
X115421153Y-120671218D01*
X115399529Y-120681446D01*
X115377007Y-120689504D01*
X115353803Y-120695316D01*
X115330142Y-120698826D01*
X115306250Y-120700000D01*
X114818750Y-120700000D01*
X114794858Y-120698826D01*
X114771197Y-120695316D01*
X114747993Y-120689504D01*
X114725471Y-120681446D01*
X114703847Y-120671218D01*
X114683330Y-120658921D01*
X114664117Y-120644671D01*
X114646393Y-120628607D01*
X114630329Y-120610883D01*
X114616079Y-120591670D01*
X114603782Y-120571153D01*
X114593554Y-120549529D01*
X114585496Y-120527007D01*
X114579684Y-120503803D01*
X114576174Y-120480142D01*
X114575000Y-120456250D01*
X114575000Y-119543750D01*
X114576174Y-119519858D01*
X114579684Y-119496197D01*
X114585496Y-119472993D01*
X114593554Y-119450471D01*
X114603782Y-119428847D01*
X114616079Y-119408330D01*
X114630329Y-119389117D01*
X114646393Y-119371393D01*
X114664117Y-119355329D01*
X114683330Y-119341079D01*
X114703847Y-119328782D01*
X114725471Y-119318554D01*
X114747993Y-119310496D01*
X114771197Y-119304684D01*
X114794858Y-119301174D01*
X114818750Y-119300000D01*
X115306250Y-119300000D01*
X115330142Y-119301174D01*
X115330142Y-119301174D01*
G37*
D13*
X115062500Y-120000000D03*
G04 #@! TD*
D12*
G04 #@! TO.C,C11*
G36*
X115205142Y-106301174D02*
X115228803Y-106304684D01*
X115252007Y-106310496D01*
X115274529Y-106318554D01*
X115296153Y-106328782D01*
X115316670Y-106341079D01*
X115335883Y-106355329D01*
X115353607Y-106371393D01*
X115369671Y-106389117D01*
X115383921Y-106408330D01*
X115396218Y-106428847D01*
X115406446Y-106450471D01*
X115414504Y-106472993D01*
X115420316Y-106496197D01*
X115423826Y-106519858D01*
X115425000Y-106543750D01*
X115425000Y-107456250D01*
X115423826Y-107480142D01*
X115420316Y-107503803D01*
X115414504Y-107527007D01*
X115406446Y-107549529D01*
X115396218Y-107571153D01*
X115383921Y-107591670D01*
X115369671Y-107610883D01*
X115353607Y-107628607D01*
X115335883Y-107644671D01*
X115316670Y-107658921D01*
X115296153Y-107671218D01*
X115274529Y-107681446D01*
X115252007Y-107689504D01*
X115228803Y-107695316D01*
X115205142Y-107698826D01*
X115181250Y-107700000D01*
X114693750Y-107700000D01*
X114669858Y-107698826D01*
X114646197Y-107695316D01*
X114622993Y-107689504D01*
X114600471Y-107681446D01*
X114578847Y-107671218D01*
X114558330Y-107658921D01*
X114539117Y-107644671D01*
X114521393Y-107628607D01*
X114505329Y-107610883D01*
X114491079Y-107591670D01*
X114478782Y-107571153D01*
X114468554Y-107549529D01*
X114460496Y-107527007D01*
X114454684Y-107503803D01*
X114451174Y-107480142D01*
X114450000Y-107456250D01*
X114450000Y-106543750D01*
X114451174Y-106519858D01*
X114454684Y-106496197D01*
X114460496Y-106472993D01*
X114468554Y-106450471D01*
X114478782Y-106428847D01*
X114491079Y-106408330D01*
X114505329Y-106389117D01*
X114521393Y-106371393D01*
X114539117Y-106355329D01*
X114558330Y-106341079D01*
X114578847Y-106328782D01*
X114600471Y-106318554D01*
X114622993Y-106310496D01*
X114646197Y-106304684D01*
X114669858Y-106301174D01*
X114693750Y-106300000D01*
X115181250Y-106300000D01*
X115205142Y-106301174D01*
X115205142Y-106301174D01*
G37*
D13*
X114937500Y-107000000D03*
D12*
G36*
X113330142Y-106301174D02*
X113353803Y-106304684D01*
X113377007Y-106310496D01*
X113399529Y-106318554D01*
X113421153Y-106328782D01*
X113441670Y-106341079D01*
X113460883Y-106355329D01*
X113478607Y-106371393D01*
X113494671Y-106389117D01*
X113508921Y-106408330D01*
X113521218Y-106428847D01*
X113531446Y-106450471D01*
X113539504Y-106472993D01*
X113545316Y-106496197D01*
X113548826Y-106519858D01*
X113550000Y-106543750D01*
X113550000Y-107456250D01*
X113548826Y-107480142D01*
X113545316Y-107503803D01*
X113539504Y-107527007D01*
X113531446Y-107549529D01*
X113521218Y-107571153D01*
X113508921Y-107591670D01*
X113494671Y-107610883D01*
X113478607Y-107628607D01*
X113460883Y-107644671D01*
X113441670Y-107658921D01*
X113421153Y-107671218D01*
X113399529Y-107681446D01*
X113377007Y-107689504D01*
X113353803Y-107695316D01*
X113330142Y-107698826D01*
X113306250Y-107700000D01*
X112818750Y-107700000D01*
X112794858Y-107698826D01*
X112771197Y-107695316D01*
X112747993Y-107689504D01*
X112725471Y-107681446D01*
X112703847Y-107671218D01*
X112683330Y-107658921D01*
X112664117Y-107644671D01*
X112646393Y-107628607D01*
X112630329Y-107610883D01*
X112616079Y-107591670D01*
X112603782Y-107571153D01*
X112593554Y-107549529D01*
X112585496Y-107527007D01*
X112579684Y-107503803D01*
X112576174Y-107480142D01*
X112575000Y-107456250D01*
X112575000Y-106543750D01*
X112576174Y-106519858D01*
X112579684Y-106496197D01*
X112585496Y-106472993D01*
X112593554Y-106450471D01*
X112603782Y-106428847D01*
X112616079Y-106408330D01*
X112630329Y-106389117D01*
X112646393Y-106371393D01*
X112664117Y-106355329D01*
X112683330Y-106341079D01*
X112703847Y-106328782D01*
X112725471Y-106318554D01*
X112747993Y-106310496D01*
X112771197Y-106304684D01*
X112794858Y-106301174D01*
X112818750Y-106300000D01*
X113306250Y-106300000D01*
X113330142Y-106301174D01*
X113330142Y-106301174D01*
G37*
D13*
X113062500Y-107000000D03*
G04 #@! TD*
D12*
G04 #@! TO.C,C7*
G36*
X133705142Y-74801174D02*
X133728803Y-74804684D01*
X133752007Y-74810496D01*
X133774529Y-74818554D01*
X133796153Y-74828782D01*
X133816670Y-74841079D01*
X133835883Y-74855329D01*
X133853607Y-74871393D01*
X133869671Y-74889117D01*
X133883921Y-74908330D01*
X133896218Y-74928847D01*
X133906446Y-74950471D01*
X133914504Y-74972993D01*
X133920316Y-74996197D01*
X133923826Y-75019858D01*
X133925000Y-75043750D01*
X133925000Y-75956250D01*
X133923826Y-75980142D01*
X133920316Y-76003803D01*
X133914504Y-76027007D01*
X133906446Y-76049529D01*
X133896218Y-76071153D01*
X133883921Y-76091670D01*
X133869671Y-76110883D01*
X133853607Y-76128607D01*
X133835883Y-76144671D01*
X133816670Y-76158921D01*
X133796153Y-76171218D01*
X133774529Y-76181446D01*
X133752007Y-76189504D01*
X133728803Y-76195316D01*
X133705142Y-76198826D01*
X133681250Y-76200000D01*
X133193750Y-76200000D01*
X133169858Y-76198826D01*
X133146197Y-76195316D01*
X133122993Y-76189504D01*
X133100471Y-76181446D01*
X133078847Y-76171218D01*
X133058330Y-76158921D01*
X133039117Y-76144671D01*
X133021393Y-76128607D01*
X133005329Y-76110883D01*
X132991079Y-76091670D01*
X132978782Y-76071153D01*
X132968554Y-76049529D01*
X132960496Y-76027007D01*
X132954684Y-76003803D01*
X132951174Y-75980142D01*
X132950000Y-75956250D01*
X132950000Y-75043750D01*
X132951174Y-75019858D01*
X132954684Y-74996197D01*
X132960496Y-74972993D01*
X132968554Y-74950471D01*
X132978782Y-74928847D01*
X132991079Y-74908330D01*
X133005329Y-74889117D01*
X133021393Y-74871393D01*
X133039117Y-74855329D01*
X133058330Y-74841079D01*
X133078847Y-74828782D01*
X133100471Y-74818554D01*
X133122993Y-74810496D01*
X133146197Y-74804684D01*
X133169858Y-74801174D01*
X133193750Y-74800000D01*
X133681250Y-74800000D01*
X133705142Y-74801174D01*
X133705142Y-74801174D01*
G37*
D13*
X133437500Y-75500000D03*
D12*
G36*
X131830142Y-74801174D02*
X131853803Y-74804684D01*
X131877007Y-74810496D01*
X131899529Y-74818554D01*
X131921153Y-74828782D01*
X131941670Y-74841079D01*
X131960883Y-74855329D01*
X131978607Y-74871393D01*
X131994671Y-74889117D01*
X132008921Y-74908330D01*
X132021218Y-74928847D01*
X132031446Y-74950471D01*
X132039504Y-74972993D01*
X132045316Y-74996197D01*
X132048826Y-75019858D01*
X132050000Y-75043750D01*
X132050000Y-75956250D01*
X132048826Y-75980142D01*
X132045316Y-76003803D01*
X132039504Y-76027007D01*
X132031446Y-76049529D01*
X132021218Y-76071153D01*
X132008921Y-76091670D01*
X131994671Y-76110883D01*
X131978607Y-76128607D01*
X131960883Y-76144671D01*
X131941670Y-76158921D01*
X131921153Y-76171218D01*
X131899529Y-76181446D01*
X131877007Y-76189504D01*
X131853803Y-76195316D01*
X131830142Y-76198826D01*
X131806250Y-76200000D01*
X131318750Y-76200000D01*
X131294858Y-76198826D01*
X131271197Y-76195316D01*
X131247993Y-76189504D01*
X131225471Y-76181446D01*
X131203847Y-76171218D01*
X131183330Y-76158921D01*
X131164117Y-76144671D01*
X131146393Y-76128607D01*
X131130329Y-76110883D01*
X131116079Y-76091670D01*
X131103782Y-76071153D01*
X131093554Y-76049529D01*
X131085496Y-76027007D01*
X131079684Y-76003803D01*
X131076174Y-75980142D01*
X131075000Y-75956250D01*
X131075000Y-75043750D01*
X131076174Y-75019858D01*
X131079684Y-74996197D01*
X131085496Y-74972993D01*
X131093554Y-74950471D01*
X131103782Y-74928847D01*
X131116079Y-74908330D01*
X131130329Y-74889117D01*
X131146393Y-74871393D01*
X131164117Y-74855329D01*
X131183330Y-74841079D01*
X131203847Y-74828782D01*
X131225471Y-74818554D01*
X131247993Y-74810496D01*
X131271197Y-74804684D01*
X131294858Y-74801174D01*
X131318750Y-74800000D01*
X131806250Y-74800000D01*
X131830142Y-74801174D01*
X131830142Y-74801174D01*
G37*
D13*
X131562500Y-75500000D03*
G04 #@! TD*
D12*
G04 #@! TO.C,C14*
G36*
X120330142Y-98301174D02*
X120353803Y-98304684D01*
X120377007Y-98310496D01*
X120399529Y-98318554D01*
X120421153Y-98328782D01*
X120441670Y-98341079D01*
X120460883Y-98355329D01*
X120478607Y-98371393D01*
X120494671Y-98389117D01*
X120508921Y-98408330D01*
X120521218Y-98428847D01*
X120531446Y-98450471D01*
X120539504Y-98472993D01*
X120545316Y-98496197D01*
X120548826Y-98519858D01*
X120550000Y-98543750D01*
X120550000Y-99456250D01*
X120548826Y-99480142D01*
X120545316Y-99503803D01*
X120539504Y-99527007D01*
X120531446Y-99549529D01*
X120521218Y-99571153D01*
X120508921Y-99591670D01*
X120494671Y-99610883D01*
X120478607Y-99628607D01*
X120460883Y-99644671D01*
X120441670Y-99658921D01*
X120421153Y-99671218D01*
X120399529Y-99681446D01*
X120377007Y-99689504D01*
X120353803Y-99695316D01*
X120330142Y-99698826D01*
X120306250Y-99700000D01*
X119818750Y-99700000D01*
X119794858Y-99698826D01*
X119771197Y-99695316D01*
X119747993Y-99689504D01*
X119725471Y-99681446D01*
X119703847Y-99671218D01*
X119683330Y-99658921D01*
X119664117Y-99644671D01*
X119646393Y-99628607D01*
X119630329Y-99610883D01*
X119616079Y-99591670D01*
X119603782Y-99571153D01*
X119593554Y-99549529D01*
X119585496Y-99527007D01*
X119579684Y-99503803D01*
X119576174Y-99480142D01*
X119575000Y-99456250D01*
X119575000Y-98543750D01*
X119576174Y-98519858D01*
X119579684Y-98496197D01*
X119585496Y-98472993D01*
X119593554Y-98450471D01*
X119603782Y-98428847D01*
X119616079Y-98408330D01*
X119630329Y-98389117D01*
X119646393Y-98371393D01*
X119664117Y-98355329D01*
X119683330Y-98341079D01*
X119703847Y-98328782D01*
X119725471Y-98318554D01*
X119747993Y-98310496D01*
X119771197Y-98304684D01*
X119794858Y-98301174D01*
X119818750Y-98300000D01*
X120306250Y-98300000D01*
X120330142Y-98301174D01*
X120330142Y-98301174D01*
G37*
D13*
X120062500Y-99000000D03*
D12*
G36*
X122205142Y-98301174D02*
X122228803Y-98304684D01*
X122252007Y-98310496D01*
X122274529Y-98318554D01*
X122296153Y-98328782D01*
X122316670Y-98341079D01*
X122335883Y-98355329D01*
X122353607Y-98371393D01*
X122369671Y-98389117D01*
X122383921Y-98408330D01*
X122396218Y-98428847D01*
X122406446Y-98450471D01*
X122414504Y-98472993D01*
X122420316Y-98496197D01*
X122423826Y-98519858D01*
X122425000Y-98543750D01*
X122425000Y-99456250D01*
X122423826Y-99480142D01*
X122420316Y-99503803D01*
X122414504Y-99527007D01*
X122406446Y-99549529D01*
X122396218Y-99571153D01*
X122383921Y-99591670D01*
X122369671Y-99610883D01*
X122353607Y-99628607D01*
X122335883Y-99644671D01*
X122316670Y-99658921D01*
X122296153Y-99671218D01*
X122274529Y-99681446D01*
X122252007Y-99689504D01*
X122228803Y-99695316D01*
X122205142Y-99698826D01*
X122181250Y-99700000D01*
X121693750Y-99700000D01*
X121669858Y-99698826D01*
X121646197Y-99695316D01*
X121622993Y-99689504D01*
X121600471Y-99681446D01*
X121578847Y-99671218D01*
X121558330Y-99658921D01*
X121539117Y-99644671D01*
X121521393Y-99628607D01*
X121505329Y-99610883D01*
X121491079Y-99591670D01*
X121478782Y-99571153D01*
X121468554Y-99549529D01*
X121460496Y-99527007D01*
X121454684Y-99503803D01*
X121451174Y-99480142D01*
X121450000Y-99456250D01*
X121450000Y-98543750D01*
X121451174Y-98519858D01*
X121454684Y-98496197D01*
X121460496Y-98472993D01*
X121468554Y-98450471D01*
X121478782Y-98428847D01*
X121491079Y-98408330D01*
X121505329Y-98389117D01*
X121521393Y-98371393D01*
X121539117Y-98355329D01*
X121558330Y-98341079D01*
X121578847Y-98328782D01*
X121600471Y-98318554D01*
X121622993Y-98310496D01*
X121646197Y-98304684D01*
X121669858Y-98301174D01*
X121693750Y-98300000D01*
X122181250Y-98300000D01*
X122205142Y-98301174D01*
X122205142Y-98301174D01*
G37*
D13*
X121937500Y-99000000D03*
G04 #@! TD*
D12*
G04 #@! TO.C,C15*
G36*
X138980142Y-115701174D02*
X139003803Y-115704684D01*
X139027007Y-115710496D01*
X139049529Y-115718554D01*
X139071153Y-115728782D01*
X139091670Y-115741079D01*
X139110883Y-115755329D01*
X139128607Y-115771393D01*
X139144671Y-115789117D01*
X139158921Y-115808330D01*
X139171218Y-115828847D01*
X139181446Y-115850471D01*
X139189504Y-115872993D01*
X139195316Y-115896197D01*
X139198826Y-115919858D01*
X139200000Y-115943750D01*
X139200000Y-116431250D01*
X139198826Y-116455142D01*
X139195316Y-116478803D01*
X139189504Y-116502007D01*
X139181446Y-116524529D01*
X139171218Y-116546153D01*
X139158921Y-116566670D01*
X139144671Y-116585883D01*
X139128607Y-116603607D01*
X139110883Y-116619671D01*
X139091670Y-116633921D01*
X139071153Y-116646218D01*
X139049529Y-116656446D01*
X139027007Y-116664504D01*
X139003803Y-116670316D01*
X138980142Y-116673826D01*
X138956250Y-116675000D01*
X138043750Y-116675000D01*
X138019858Y-116673826D01*
X137996197Y-116670316D01*
X137972993Y-116664504D01*
X137950471Y-116656446D01*
X137928847Y-116646218D01*
X137908330Y-116633921D01*
X137889117Y-116619671D01*
X137871393Y-116603607D01*
X137855329Y-116585883D01*
X137841079Y-116566670D01*
X137828782Y-116546153D01*
X137818554Y-116524529D01*
X137810496Y-116502007D01*
X137804684Y-116478803D01*
X137801174Y-116455142D01*
X137800000Y-116431250D01*
X137800000Y-115943750D01*
X137801174Y-115919858D01*
X137804684Y-115896197D01*
X137810496Y-115872993D01*
X137818554Y-115850471D01*
X137828782Y-115828847D01*
X137841079Y-115808330D01*
X137855329Y-115789117D01*
X137871393Y-115771393D01*
X137889117Y-115755329D01*
X137908330Y-115741079D01*
X137928847Y-115728782D01*
X137950471Y-115718554D01*
X137972993Y-115710496D01*
X137996197Y-115704684D01*
X138019858Y-115701174D01*
X138043750Y-115700000D01*
X138956250Y-115700000D01*
X138980142Y-115701174D01*
X138980142Y-115701174D01*
G37*
D13*
X138500000Y-116187500D03*
D12*
G36*
X138980142Y-113826174D02*
X139003803Y-113829684D01*
X139027007Y-113835496D01*
X139049529Y-113843554D01*
X139071153Y-113853782D01*
X139091670Y-113866079D01*
X139110883Y-113880329D01*
X139128607Y-113896393D01*
X139144671Y-113914117D01*
X139158921Y-113933330D01*
X139171218Y-113953847D01*
X139181446Y-113975471D01*
X139189504Y-113997993D01*
X139195316Y-114021197D01*
X139198826Y-114044858D01*
X139200000Y-114068750D01*
X139200000Y-114556250D01*
X139198826Y-114580142D01*
X139195316Y-114603803D01*
X139189504Y-114627007D01*
X139181446Y-114649529D01*
X139171218Y-114671153D01*
X139158921Y-114691670D01*
X139144671Y-114710883D01*
X139128607Y-114728607D01*
X139110883Y-114744671D01*
X139091670Y-114758921D01*
X139071153Y-114771218D01*
X139049529Y-114781446D01*
X139027007Y-114789504D01*
X139003803Y-114795316D01*
X138980142Y-114798826D01*
X138956250Y-114800000D01*
X138043750Y-114800000D01*
X138019858Y-114798826D01*
X137996197Y-114795316D01*
X137972993Y-114789504D01*
X137950471Y-114781446D01*
X137928847Y-114771218D01*
X137908330Y-114758921D01*
X137889117Y-114744671D01*
X137871393Y-114728607D01*
X137855329Y-114710883D01*
X137841079Y-114691670D01*
X137828782Y-114671153D01*
X137818554Y-114649529D01*
X137810496Y-114627007D01*
X137804684Y-114603803D01*
X137801174Y-114580142D01*
X137800000Y-114556250D01*
X137800000Y-114068750D01*
X137801174Y-114044858D01*
X137804684Y-114021197D01*
X137810496Y-113997993D01*
X137818554Y-113975471D01*
X137828782Y-113953847D01*
X137841079Y-113933330D01*
X137855329Y-113914117D01*
X137871393Y-113896393D01*
X137889117Y-113880329D01*
X137908330Y-113866079D01*
X137928847Y-113853782D01*
X137950471Y-113843554D01*
X137972993Y-113835496D01*
X137996197Y-113829684D01*
X138019858Y-113826174D01*
X138043750Y-113825000D01*
X138956250Y-113825000D01*
X138980142Y-113826174D01*
X138980142Y-113826174D01*
G37*
D13*
X138500000Y-114312500D03*
G04 #@! TD*
D12*
G04 #@! TO.C,C16*
G36*
X130980142Y-107701174D02*
X131003803Y-107704684D01*
X131027007Y-107710496D01*
X131049529Y-107718554D01*
X131071153Y-107728782D01*
X131091670Y-107741079D01*
X131110883Y-107755329D01*
X131128607Y-107771393D01*
X131144671Y-107789117D01*
X131158921Y-107808330D01*
X131171218Y-107828847D01*
X131181446Y-107850471D01*
X131189504Y-107872993D01*
X131195316Y-107896197D01*
X131198826Y-107919858D01*
X131200000Y-107943750D01*
X131200000Y-108431250D01*
X131198826Y-108455142D01*
X131195316Y-108478803D01*
X131189504Y-108502007D01*
X131181446Y-108524529D01*
X131171218Y-108546153D01*
X131158921Y-108566670D01*
X131144671Y-108585883D01*
X131128607Y-108603607D01*
X131110883Y-108619671D01*
X131091670Y-108633921D01*
X131071153Y-108646218D01*
X131049529Y-108656446D01*
X131027007Y-108664504D01*
X131003803Y-108670316D01*
X130980142Y-108673826D01*
X130956250Y-108675000D01*
X130043750Y-108675000D01*
X130019858Y-108673826D01*
X129996197Y-108670316D01*
X129972993Y-108664504D01*
X129950471Y-108656446D01*
X129928847Y-108646218D01*
X129908330Y-108633921D01*
X129889117Y-108619671D01*
X129871393Y-108603607D01*
X129855329Y-108585883D01*
X129841079Y-108566670D01*
X129828782Y-108546153D01*
X129818554Y-108524529D01*
X129810496Y-108502007D01*
X129804684Y-108478803D01*
X129801174Y-108455142D01*
X129800000Y-108431250D01*
X129800000Y-107943750D01*
X129801174Y-107919858D01*
X129804684Y-107896197D01*
X129810496Y-107872993D01*
X129818554Y-107850471D01*
X129828782Y-107828847D01*
X129841079Y-107808330D01*
X129855329Y-107789117D01*
X129871393Y-107771393D01*
X129889117Y-107755329D01*
X129908330Y-107741079D01*
X129928847Y-107728782D01*
X129950471Y-107718554D01*
X129972993Y-107710496D01*
X129996197Y-107704684D01*
X130019858Y-107701174D01*
X130043750Y-107700000D01*
X130956250Y-107700000D01*
X130980142Y-107701174D01*
X130980142Y-107701174D01*
G37*
D13*
X130500000Y-108187500D03*
D12*
G36*
X130980142Y-105826174D02*
X131003803Y-105829684D01*
X131027007Y-105835496D01*
X131049529Y-105843554D01*
X131071153Y-105853782D01*
X131091670Y-105866079D01*
X131110883Y-105880329D01*
X131128607Y-105896393D01*
X131144671Y-105914117D01*
X131158921Y-105933330D01*
X131171218Y-105953847D01*
X131181446Y-105975471D01*
X131189504Y-105997993D01*
X131195316Y-106021197D01*
X131198826Y-106044858D01*
X131200000Y-106068750D01*
X131200000Y-106556250D01*
X131198826Y-106580142D01*
X131195316Y-106603803D01*
X131189504Y-106627007D01*
X131181446Y-106649529D01*
X131171218Y-106671153D01*
X131158921Y-106691670D01*
X131144671Y-106710883D01*
X131128607Y-106728607D01*
X131110883Y-106744671D01*
X131091670Y-106758921D01*
X131071153Y-106771218D01*
X131049529Y-106781446D01*
X131027007Y-106789504D01*
X131003803Y-106795316D01*
X130980142Y-106798826D01*
X130956250Y-106800000D01*
X130043750Y-106800000D01*
X130019858Y-106798826D01*
X129996197Y-106795316D01*
X129972993Y-106789504D01*
X129950471Y-106781446D01*
X129928847Y-106771218D01*
X129908330Y-106758921D01*
X129889117Y-106744671D01*
X129871393Y-106728607D01*
X129855329Y-106710883D01*
X129841079Y-106691670D01*
X129828782Y-106671153D01*
X129818554Y-106649529D01*
X129810496Y-106627007D01*
X129804684Y-106603803D01*
X129801174Y-106580142D01*
X129800000Y-106556250D01*
X129800000Y-106068750D01*
X129801174Y-106044858D01*
X129804684Y-106021197D01*
X129810496Y-105997993D01*
X129818554Y-105975471D01*
X129828782Y-105953847D01*
X129841079Y-105933330D01*
X129855329Y-105914117D01*
X129871393Y-105896393D01*
X129889117Y-105880329D01*
X129908330Y-105866079D01*
X129928847Y-105853782D01*
X129950471Y-105843554D01*
X129972993Y-105835496D01*
X129996197Y-105829684D01*
X130019858Y-105826174D01*
X130043750Y-105825000D01*
X130956250Y-105825000D01*
X130980142Y-105826174D01*
X130980142Y-105826174D01*
G37*
D13*
X130500000Y-106312500D03*
G04 #@! TD*
D12*
G04 #@! TO.C,C17*
G36*
X126730142Y-121076174D02*
X126753803Y-121079684D01*
X126777007Y-121085496D01*
X126799529Y-121093554D01*
X126821153Y-121103782D01*
X126841670Y-121116079D01*
X126860883Y-121130329D01*
X126878607Y-121146393D01*
X126894671Y-121164117D01*
X126908921Y-121183330D01*
X126921218Y-121203847D01*
X126931446Y-121225471D01*
X126939504Y-121247993D01*
X126945316Y-121271197D01*
X126948826Y-121294858D01*
X126950000Y-121318750D01*
X126950000Y-121806250D01*
X126948826Y-121830142D01*
X126945316Y-121853803D01*
X126939504Y-121877007D01*
X126931446Y-121899529D01*
X126921218Y-121921153D01*
X126908921Y-121941670D01*
X126894671Y-121960883D01*
X126878607Y-121978607D01*
X126860883Y-121994671D01*
X126841670Y-122008921D01*
X126821153Y-122021218D01*
X126799529Y-122031446D01*
X126777007Y-122039504D01*
X126753803Y-122045316D01*
X126730142Y-122048826D01*
X126706250Y-122050000D01*
X125793750Y-122050000D01*
X125769858Y-122048826D01*
X125746197Y-122045316D01*
X125722993Y-122039504D01*
X125700471Y-122031446D01*
X125678847Y-122021218D01*
X125658330Y-122008921D01*
X125639117Y-121994671D01*
X125621393Y-121978607D01*
X125605329Y-121960883D01*
X125591079Y-121941670D01*
X125578782Y-121921153D01*
X125568554Y-121899529D01*
X125560496Y-121877007D01*
X125554684Y-121853803D01*
X125551174Y-121830142D01*
X125550000Y-121806250D01*
X125550000Y-121318750D01*
X125551174Y-121294858D01*
X125554684Y-121271197D01*
X125560496Y-121247993D01*
X125568554Y-121225471D01*
X125578782Y-121203847D01*
X125591079Y-121183330D01*
X125605329Y-121164117D01*
X125621393Y-121146393D01*
X125639117Y-121130329D01*
X125658330Y-121116079D01*
X125678847Y-121103782D01*
X125700471Y-121093554D01*
X125722993Y-121085496D01*
X125746197Y-121079684D01*
X125769858Y-121076174D01*
X125793750Y-121075000D01*
X126706250Y-121075000D01*
X126730142Y-121076174D01*
X126730142Y-121076174D01*
G37*
D13*
X126250000Y-121562500D03*
D12*
G36*
X126730142Y-122951174D02*
X126753803Y-122954684D01*
X126777007Y-122960496D01*
X126799529Y-122968554D01*
X126821153Y-122978782D01*
X126841670Y-122991079D01*
X126860883Y-123005329D01*
X126878607Y-123021393D01*
X126894671Y-123039117D01*
X126908921Y-123058330D01*
X126921218Y-123078847D01*
X126931446Y-123100471D01*
X126939504Y-123122993D01*
X126945316Y-123146197D01*
X126948826Y-123169858D01*
X126950000Y-123193750D01*
X126950000Y-123681250D01*
X126948826Y-123705142D01*
X126945316Y-123728803D01*
X126939504Y-123752007D01*
X126931446Y-123774529D01*
X126921218Y-123796153D01*
X126908921Y-123816670D01*
X126894671Y-123835883D01*
X126878607Y-123853607D01*
X126860883Y-123869671D01*
X126841670Y-123883921D01*
X126821153Y-123896218D01*
X126799529Y-123906446D01*
X126777007Y-123914504D01*
X126753803Y-123920316D01*
X126730142Y-123923826D01*
X126706250Y-123925000D01*
X125793750Y-123925000D01*
X125769858Y-123923826D01*
X125746197Y-123920316D01*
X125722993Y-123914504D01*
X125700471Y-123906446D01*
X125678847Y-123896218D01*
X125658330Y-123883921D01*
X125639117Y-123869671D01*
X125621393Y-123853607D01*
X125605329Y-123835883D01*
X125591079Y-123816670D01*
X125578782Y-123796153D01*
X125568554Y-123774529D01*
X125560496Y-123752007D01*
X125554684Y-123728803D01*
X125551174Y-123705142D01*
X125550000Y-123681250D01*
X125550000Y-123193750D01*
X125551174Y-123169858D01*
X125554684Y-123146197D01*
X125560496Y-123122993D01*
X125568554Y-123100471D01*
X125578782Y-123078847D01*
X125591079Y-123058330D01*
X125605329Y-123039117D01*
X125621393Y-123021393D01*
X125639117Y-123005329D01*
X125658330Y-122991079D01*
X125678847Y-122978782D01*
X125700471Y-122968554D01*
X125722993Y-122960496D01*
X125746197Y-122954684D01*
X125769858Y-122951174D01*
X125793750Y-122950000D01*
X126706250Y-122950000D01*
X126730142Y-122951174D01*
X126730142Y-122951174D01*
G37*
D13*
X126250000Y-123437500D03*
G04 #@! TD*
D12*
G04 #@! TO.C,C18*
G36*
X134730142Y-128576174D02*
X134753803Y-128579684D01*
X134777007Y-128585496D01*
X134799529Y-128593554D01*
X134821153Y-128603782D01*
X134841670Y-128616079D01*
X134860883Y-128630329D01*
X134878607Y-128646393D01*
X134894671Y-128664117D01*
X134908921Y-128683330D01*
X134921218Y-128703847D01*
X134931446Y-128725471D01*
X134939504Y-128747993D01*
X134945316Y-128771197D01*
X134948826Y-128794858D01*
X134950000Y-128818750D01*
X134950000Y-129306250D01*
X134948826Y-129330142D01*
X134945316Y-129353803D01*
X134939504Y-129377007D01*
X134931446Y-129399529D01*
X134921218Y-129421153D01*
X134908921Y-129441670D01*
X134894671Y-129460883D01*
X134878607Y-129478607D01*
X134860883Y-129494671D01*
X134841670Y-129508921D01*
X134821153Y-129521218D01*
X134799529Y-129531446D01*
X134777007Y-129539504D01*
X134753803Y-129545316D01*
X134730142Y-129548826D01*
X134706250Y-129550000D01*
X133793750Y-129550000D01*
X133769858Y-129548826D01*
X133746197Y-129545316D01*
X133722993Y-129539504D01*
X133700471Y-129531446D01*
X133678847Y-129521218D01*
X133658330Y-129508921D01*
X133639117Y-129494671D01*
X133621393Y-129478607D01*
X133605329Y-129460883D01*
X133591079Y-129441670D01*
X133578782Y-129421153D01*
X133568554Y-129399529D01*
X133560496Y-129377007D01*
X133554684Y-129353803D01*
X133551174Y-129330142D01*
X133550000Y-129306250D01*
X133550000Y-128818750D01*
X133551174Y-128794858D01*
X133554684Y-128771197D01*
X133560496Y-128747993D01*
X133568554Y-128725471D01*
X133578782Y-128703847D01*
X133591079Y-128683330D01*
X133605329Y-128664117D01*
X133621393Y-128646393D01*
X133639117Y-128630329D01*
X133658330Y-128616079D01*
X133678847Y-128603782D01*
X133700471Y-128593554D01*
X133722993Y-128585496D01*
X133746197Y-128579684D01*
X133769858Y-128576174D01*
X133793750Y-128575000D01*
X134706250Y-128575000D01*
X134730142Y-128576174D01*
X134730142Y-128576174D01*
G37*
D13*
X134250000Y-129062500D03*
D12*
G36*
X134730142Y-130451174D02*
X134753803Y-130454684D01*
X134777007Y-130460496D01*
X134799529Y-130468554D01*
X134821153Y-130478782D01*
X134841670Y-130491079D01*
X134860883Y-130505329D01*
X134878607Y-130521393D01*
X134894671Y-130539117D01*
X134908921Y-130558330D01*
X134921218Y-130578847D01*
X134931446Y-130600471D01*
X134939504Y-130622993D01*
X134945316Y-130646197D01*
X134948826Y-130669858D01*
X134950000Y-130693750D01*
X134950000Y-131181250D01*
X134948826Y-131205142D01*
X134945316Y-131228803D01*
X134939504Y-131252007D01*
X134931446Y-131274529D01*
X134921218Y-131296153D01*
X134908921Y-131316670D01*
X134894671Y-131335883D01*
X134878607Y-131353607D01*
X134860883Y-131369671D01*
X134841670Y-131383921D01*
X134821153Y-131396218D01*
X134799529Y-131406446D01*
X134777007Y-131414504D01*
X134753803Y-131420316D01*
X134730142Y-131423826D01*
X134706250Y-131425000D01*
X133793750Y-131425000D01*
X133769858Y-131423826D01*
X133746197Y-131420316D01*
X133722993Y-131414504D01*
X133700471Y-131406446D01*
X133678847Y-131396218D01*
X133658330Y-131383921D01*
X133639117Y-131369671D01*
X133621393Y-131353607D01*
X133605329Y-131335883D01*
X133591079Y-131316670D01*
X133578782Y-131296153D01*
X133568554Y-131274529D01*
X133560496Y-131252007D01*
X133554684Y-131228803D01*
X133551174Y-131205142D01*
X133550000Y-131181250D01*
X133550000Y-130693750D01*
X133551174Y-130669858D01*
X133554684Y-130646197D01*
X133560496Y-130622993D01*
X133568554Y-130600471D01*
X133578782Y-130578847D01*
X133591079Y-130558330D01*
X133605329Y-130539117D01*
X133621393Y-130521393D01*
X133639117Y-130505329D01*
X133658330Y-130491079D01*
X133678847Y-130478782D01*
X133700471Y-130468554D01*
X133722993Y-130460496D01*
X133746197Y-130454684D01*
X133769858Y-130451174D01*
X133793750Y-130450000D01*
X134706250Y-130450000D01*
X134730142Y-130451174D01*
X134730142Y-130451174D01*
G37*
D13*
X134250000Y-130937500D03*
G04 #@! TD*
M02*
