G04 #@! TF.GenerationSoftware,KiCad,Pcbnew,5.0.2+dfsg1-1~bpo9+1*
G04 #@! TF.CreationDate,2019-04-25T13:48:24-07:00*
G04 #@! TF.ProjectId,HW,48572e6b-6963-4616-945f-706362585858,rev?*
G04 #@! TF.SameCoordinates,Original*
G04 #@! TF.FileFunction,Legend,Top*
G04 #@! TF.FilePolarity,Positive*
%FSLAX46Y46*%
G04 Gerber Fmt 4.6, Leading zero omitted, Abs format (unit mm)*
G04 Created by KiCad (PCBNEW 5.0.2+dfsg1-1~bpo9+1) date Thu 25 Apr 2019 01:48:24 PM PDT*
%MOMM*%
%LPD*%
G01*
G04 APERTURE LIST*
%ADD10C,0.120000*%
%ADD11C,0.150000*%
G04 APERTURE END LIST*
D10*
G04 #@! TO.C,J1*
X113670000Y-146500000D02*
X113670000Y-145170000D01*
X113670000Y-145170000D02*
X115000000Y-145170000D01*
X116270000Y-145170000D02*
X139190000Y-145170000D01*
X139190000Y-147830000D02*
X139190000Y-145170000D01*
X116270000Y-147830000D02*
X139190000Y-147830000D01*
X116270000Y-147830000D02*
X116270000Y-145170000D01*
G04 #@! TO.C,J4*
X116270000Y-64830000D02*
X116270000Y-62170000D01*
X116270000Y-64830000D02*
X139190000Y-64830000D01*
X139190000Y-64830000D02*
X139190000Y-62170000D01*
X116270000Y-62170000D02*
X139190000Y-62170000D01*
X113670000Y-62170000D02*
X115000000Y-62170000D01*
X113670000Y-63500000D02*
X113670000Y-62170000D01*
G04 #@! TO.C,D2*
X132500000Y-138750000D02*
X132500000Y-134850000D01*
X134500000Y-138750000D02*
X134500000Y-134850000D01*
X132500000Y-138750000D02*
X134500000Y-138750000D01*
G04 #@! TO.C,D1*
X119000000Y-134750000D02*
X117000000Y-134750000D01*
X117000000Y-134750000D02*
X117000000Y-138650000D01*
X119000000Y-134750000D02*
X119000000Y-138650000D01*
G04 #@! TO.C,D4*
X120750000Y-93000000D02*
X124650000Y-93000000D01*
X120750000Y-95000000D02*
X124650000Y-95000000D01*
X120750000Y-93000000D02*
X120750000Y-95000000D01*
G04 #@! TO.C,D3*
X115750000Y-93000000D02*
X115750000Y-95000000D01*
X115750000Y-95000000D02*
X119650000Y-95000000D01*
X115750000Y-93000000D02*
X119650000Y-93000000D01*
G04 #@! TO.C,R19*
X132008578Y-120790000D02*
X131491422Y-120790000D01*
X132008578Y-122210000D02*
X131491422Y-122210000D01*
G04 #@! TO.C,R18*
X137710000Y-118991422D02*
X137710000Y-119508578D01*
X136290000Y-118991422D02*
X136290000Y-119508578D01*
G04 #@! TO.C,R13*
X140210000Y-105991422D02*
X140210000Y-106508578D01*
X138790000Y-105991422D02*
X138790000Y-106508578D01*
G04 #@! TO.C,R12*
X123290000Y-97741422D02*
X123290000Y-98258578D01*
X124710000Y-97741422D02*
X124710000Y-98258578D01*
G04 #@! TO.C,R3*
X112210000Y-99991422D02*
X112210000Y-100508578D01*
X110790000Y-99991422D02*
X110790000Y-100508578D01*
G04 #@! TO.C,R4*
X110790000Y-103741422D02*
X110790000Y-104258578D01*
X112210000Y-103741422D02*
X112210000Y-104258578D01*
G04 #@! TO.C,R10*
X123710000Y-105741422D02*
X123710000Y-106258578D01*
X122290000Y-105741422D02*
X122290000Y-106258578D01*
G04 #@! TO.C,R2*
X122008578Y-85040000D02*
X121491422Y-85040000D01*
X122008578Y-86460000D02*
X121491422Y-86460000D01*
G04 #@! TO.C,R17*
X136758578Y-103540000D02*
X136241422Y-103540000D01*
X136758578Y-104960000D02*
X136241422Y-104960000D01*
G04 #@! TO.C,R14*
X130741422Y-115540000D02*
X131258578Y-115540000D01*
X130741422Y-116960000D02*
X131258578Y-116960000D01*
G04 #@! TO.C,R15*
X136758578Y-105540000D02*
X136241422Y-105540000D01*
X136758578Y-106960000D02*
X136241422Y-106960000D01*
G04 #@! TO.C,R16*
X134241422Y-115540000D02*
X134758578Y-115540000D01*
X134241422Y-116960000D02*
X134758578Y-116960000D01*
G04 #@! TO.C,R11*
X122290000Y-101741422D02*
X122290000Y-102258578D01*
X123710000Y-101741422D02*
X123710000Y-102258578D01*
G04 #@! TO.C,R1*
X133803922Y-78290000D02*
X134321078Y-78290000D01*
X133803922Y-79710000D02*
X134321078Y-79710000D01*
G04 #@! TO.C,R5*
X111290000Y-113741422D02*
X111290000Y-114258578D01*
X112710000Y-113741422D02*
X112710000Y-114258578D01*
G04 #@! TO.C,R6*
X111290000Y-118258578D02*
X111290000Y-117741422D01*
X112710000Y-118258578D02*
X112710000Y-117741422D01*
G04 #@! TO.C,R7*
X123741422Y-117710000D02*
X124258578Y-117710000D01*
X123741422Y-116290000D02*
X124258578Y-116290000D01*
G04 #@! TO.C,R8*
X116258578Y-112710000D02*
X115741422Y-112710000D01*
X116258578Y-111290000D02*
X115741422Y-111290000D01*
G04 #@! TO.C,R9*
X123741422Y-115710000D02*
X124258578Y-115710000D01*
X123741422Y-114290000D02*
X124258578Y-114290000D01*
D11*
G04 #@! TO.C,U6*
X132825000Y-124425000D02*
X132775000Y-124425000D01*
X132825000Y-128575000D02*
X132680000Y-128575000D01*
X127675000Y-128575000D02*
X127820000Y-128575000D01*
X127675000Y-124425000D02*
X127820000Y-124425000D01*
X132825000Y-124425000D02*
X132825000Y-128575000D01*
X127675000Y-124425000D02*
X127675000Y-128575000D01*
X132775000Y-124425000D02*
X132775000Y-123025000D01*
D10*
G04 #@! TO.C,C5*
X119758578Y-82790000D02*
X119241422Y-82790000D01*
X119758578Y-84210000D02*
X119241422Y-84210000D01*
D11*
G04 #@! TO.C,U5*
X137025000Y-109175000D02*
X137025000Y-107775000D01*
X131925000Y-109175000D02*
X131925000Y-113325000D01*
X137075000Y-109175000D02*
X137075000Y-113325000D01*
X131925000Y-109175000D02*
X132070000Y-109175000D01*
X131925000Y-113325000D02*
X132070000Y-113325000D01*
X137075000Y-113325000D02*
X136930000Y-113325000D01*
X137075000Y-109175000D02*
X137025000Y-109175000D01*
G04 #@! TO.C,U2*
X114925000Y-100425000D02*
X114925000Y-100475000D01*
X119075000Y-100425000D02*
X119075000Y-100570000D01*
X119075000Y-105575000D02*
X119075000Y-105430000D01*
X114925000Y-105575000D02*
X114925000Y-105430000D01*
X114925000Y-100425000D02*
X119075000Y-100425000D01*
X114925000Y-105575000D02*
X119075000Y-105575000D01*
X114925000Y-100475000D02*
X113525000Y-100475000D01*
D10*
G04 #@! TO.C,R20*
X130460000Y-131741422D02*
X130460000Y-132258578D01*
X129040000Y-131741422D02*
X129040000Y-132258578D01*
D11*
G04 #@! TO.C,U1*
X115925000Y-113475000D02*
X114525000Y-113475000D01*
X115925000Y-118575000D02*
X120075000Y-118575000D01*
X115925000Y-113425000D02*
X120075000Y-113425000D01*
X115925000Y-118575000D02*
X115925000Y-118430000D01*
X120075000Y-118575000D02*
X120075000Y-118430000D01*
X120075000Y-113425000D02*
X120075000Y-113570000D01*
X115925000Y-113425000D02*
X115925000Y-113475000D01*
D10*
G04 #@! TO.C,U4*
X129060000Y-82560000D02*
X128640000Y-82560000D01*
X121940000Y-82560000D02*
X122360000Y-82560000D01*
X121940000Y-75440000D02*
X122360000Y-75440000D01*
X129060000Y-75440000D02*
X129060000Y-75860000D01*
X121940000Y-82560000D02*
X121940000Y-82140000D01*
X129060000Y-82560000D02*
X129060000Y-82140000D01*
X128640000Y-75440000D02*
X128640000Y-74060000D01*
X129060000Y-75440000D02*
X128640000Y-75440000D01*
X121940000Y-75440000D02*
X121940000Y-75860000D01*
G04 #@! TO.C,C13*
X115937500Y-137122500D02*
X115937500Y-136747500D01*
X116125000Y-136935000D02*
X115750000Y-136935000D01*
X115320563Y-134440000D02*
X114620563Y-133740000D01*
X115320563Y-136560000D02*
X114620563Y-137260000D01*
X114620563Y-133740000D02*
X111990000Y-133740000D01*
X114620563Y-137260000D02*
X111990000Y-137260000D01*
X111990000Y-137260000D02*
X111990000Y-136560000D01*
X111990000Y-133740000D02*
X111990000Y-134440000D01*
G04 #@! TO.C,C3*
X115741422Y-126710000D02*
X116258578Y-126710000D01*
X115741422Y-125290000D02*
X116258578Y-125290000D01*
G04 #@! TO.C,C1*
X120258578Y-126710000D02*
X119741422Y-126710000D01*
X120258578Y-125290000D02*
X119741422Y-125290000D01*
G04 #@! TO.C,C2*
X131210000Y-98758578D02*
X131210000Y-98241422D01*
X129790000Y-98758578D02*
X129790000Y-98241422D01*
G04 #@! TO.C,C12*
X136240000Y-133240000D02*
X136240000Y-133940000D01*
X136240000Y-136760000D02*
X136240000Y-136060000D01*
X138870563Y-136760000D02*
X136240000Y-136760000D01*
X138870563Y-133240000D02*
X136240000Y-133240000D01*
X139570563Y-136060000D02*
X138870563Y-136760000D01*
X139570563Y-133940000D02*
X138870563Y-133240000D01*
X140375000Y-136435000D02*
X140000000Y-136435000D01*
X140187500Y-136622500D02*
X140187500Y-136247500D01*
G04 #@! TO.C,C4*
X123790000Y-72258578D02*
X123790000Y-71741422D01*
X125210000Y-72258578D02*
X125210000Y-71741422D01*
G04 #@! TO.C,C6*
X128290000Y-72258578D02*
X128290000Y-71741422D01*
X129710000Y-72258578D02*
X129710000Y-71741422D01*
G04 #@! TO.C,C8*
X118258578Y-77290000D02*
X117741422Y-77290000D01*
X118258578Y-78710000D02*
X117741422Y-78710000D01*
G04 #@! TO.C,C9*
X121741422Y-111290000D02*
X122258578Y-111290000D01*
X121741422Y-112710000D02*
X122258578Y-112710000D01*
G04 #@! TO.C,C10*
X115741422Y-120710000D02*
X116258578Y-120710000D01*
X115741422Y-119290000D02*
X116258578Y-119290000D01*
G04 #@! TO.C,C11*
X114258578Y-107710000D02*
X113741422Y-107710000D01*
X114258578Y-106290000D02*
X113741422Y-106290000D01*
G04 #@! TO.C,C7*
X132241422Y-76210000D02*
X132758578Y-76210000D01*
X132241422Y-74790000D02*
X132758578Y-74790000D01*
G04 #@! TO.C,C14*
X120741422Y-98290000D02*
X121258578Y-98290000D01*
X120741422Y-99710000D02*
X121258578Y-99710000D01*
G04 #@! TO.C,C15*
X137790000Y-114991422D02*
X137790000Y-115508578D01*
X139210000Y-114991422D02*
X139210000Y-115508578D01*
G04 #@! TO.C,C16*
X129790000Y-107508578D02*
X129790000Y-106991422D01*
X131210000Y-107508578D02*
X131210000Y-106991422D01*
G04 #@! TO.C,C17*
X126960000Y-122758578D02*
X126960000Y-122241422D01*
X125540000Y-122758578D02*
X125540000Y-122241422D01*
G04 #@! TO.C,C18*
X134960000Y-129741422D02*
X134960000Y-130258578D01*
X133540000Y-129741422D02*
X133540000Y-130258578D01*
G04 #@! TO.C,J1*
D11*
X111682380Y-146833333D02*
X112396666Y-146833333D01*
X112539523Y-146880952D01*
X112634761Y-146976190D01*
X112682380Y-147119047D01*
X112682380Y-147214285D01*
X112682380Y-145833333D02*
X112682380Y-146404761D01*
X112682380Y-146119047D02*
X111682380Y-146119047D01*
X111825238Y-146214285D01*
X111920476Y-146309523D01*
X111968095Y-146404761D01*
G04 #@! TO.C,J4*
X111682380Y-63833333D02*
X112396666Y-63833333D01*
X112539523Y-63880952D01*
X112634761Y-63976190D01*
X112682380Y-64119047D01*
X112682380Y-64214285D01*
X112015714Y-62928571D02*
X112682380Y-62928571D01*
X111634761Y-63166666D02*
X112349047Y-63404761D01*
X112349047Y-62785714D01*
G04 #@! TO.C,D2*
X132761904Y-133452380D02*
X132761904Y-132452380D01*
X133000000Y-132452380D01*
X133142857Y-132500000D01*
X133238095Y-132595238D01*
X133285714Y-132690476D01*
X133333333Y-132880952D01*
X133333333Y-133023809D01*
X133285714Y-133214285D01*
X133238095Y-133309523D01*
X133142857Y-133404761D01*
X133000000Y-133452380D01*
X132761904Y-133452380D01*
X133714285Y-132547619D02*
X133761904Y-132500000D01*
X133857142Y-132452380D01*
X134095238Y-132452380D01*
X134190476Y-132500000D01*
X134238095Y-132547619D01*
X134285714Y-132642857D01*
X134285714Y-132738095D01*
X134238095Y-132880952D01*
X133666666Y-133452380D01*
X134285714Y-133452380D01*
G04 #@! TO.C,D1*
X117261904Y-133952380D02*
X117261904Y-132952380D01*
X117500000Y-132952380D01*
X117642857Y-133000000D01*
X117738095Y-133095238D01*
X117785714Y-133190476D01*
X117833333Y-133380952D01*
X117833333Y-133523809D01*
X117785714Y-133714285D01*
X117738095Y-133809523D01*
X117642857Y-133904761D01*
X117500000Y-133952380D01*
X117261904Y-133952380D01*
X118785714Y-133952380D02*
X118214285Y-133952380D01*
X118500000Y-133952380D02*
X118500000Y-132952380D01*
X118404761Y-133095238D01*
X118309523Y-133190476D01*
X118214285Y-133238095D01*
G04 #@! TO.C,D4*
X122261904Y-92452380D02*
X122261904Y-91452380D01*
X122500000Y-91452380D01*
X122642857Y-91500000D01*
X122738095Y-91595238D01*
X122785714Y-91690476D01*
X122833333Y-91880952D01*
X122833333Y-92023809D01*
X122785714Y-92214285D01*
X122738095Y-92309523D01*
X122642857Y-92404761D01*
X122500000Y-92452380D01*
X122261904Y-92452380D01*
X123690476Y-91785714D02*
X123690476Y-92452380D01*
X123452380Y-91404761D02*
X123214285Y-92119047D01*
X123833333Y-92119047D01*
G04 #@! TO.C,D3*
X117261904Y-92452380D02*
X117261904Y-91452380D01*
X117500000Y-91452380D01*
X117642857Y-91500000D01*
X117738095Y-91595238D01*
X117785714Y-91690476D01*
X117833333Y-91880952D01*
X117833333Y-92023809D01*
X117785714Y-92214285D01*
X117738095Y-92309523D01*
X117642857Y-92404761D01*
X117500000Y-92452380D01*
X117261904Y-92452380D01*
X118166666Y-91452380D02*
X118785714Y-91452380D01*
X118452380Y-91833333D01*
X118595238Y-91833333D01*
X118690476Y-91880952D01*
X118738095Y-91928571D01*
X118785714Y-92023809D01*
X118785714Y-92261904D01*
X118738095Y-92357142D01*
X118690476Y-92404761D01*
X118595238Y-92452380D01*
X118309523Y-92452380D01*
X118214285Y-92404761D01*
X118166666Y-92357142D01*
G04 #@! TO.C,R19*
X131107142Y-120452380D02*
X130773809Y-119976190D01*
X130535714Y-120452380D02*
X130535714Y-119452380D01*
X130916666Y-119452380D01*
X131011904Y-119500000D01*
X131059523Y-119547619D01*
X131107142Y-119642857D01*
X131107142Y-119785714D01*
X131059523Y-119880952D01*
X131011904Y-119928571D01*
X130916666Y-119976190D01*
X130535714Y-119976190D01*
X132059523Y-120452380D02*
X131488095Y-120452380D01*
X131773809Y-120452380D02*
X131773809Y-119452380D01*
X131678571Y-119595238D01*
X131583333Y-119690476D01*
X131488095Y-119738095D01*
X132535714Y-120452380D02*
X132726190Y-120452380D01*
X132821428Y-120404761D01*
X132869047Y-120357142D01*
X132964285Y-120214285D01*
X133011904Y-120023809D01*
X133011904Y-119642857D01*
X132964285Y-119547619D01*
X132916666Y-119500000D01*
X132821428Y-119452380D01*
X132630952Y-119452380D01*
X132535714Y-119500000D01*
X132488095Y-119547619D01*
X132440476Y-119642857D01*
X132440476Y-119880952D01*
X132488095Y-119976190D01*
X132535714Y-120023809D01*
X132630952Y-120071428D01*
X132821428Y-120071428D01*
X132916666Y-120023809D01*
X132964285Y-119976190D01*
X133011904Y-119880952D01*
G04 #@! TO.C,R18*
X139102380Y-119892857D02*
X138626190Y-120226190D01*
X139102380Y-120464285D02*
X138102380Y-120464285D01*
X138102380Y-120083333D01*
X138150000Y-119988095D01*
X138197619Y-119940476D01*
X138292857Y-119892857D01*
X138435714Y-119892857D01*
X138530952Y-119940476D01*
X138578571Y-119988095D01*
X138626190Y-120083333D01*
X138626190Y-120464285D01*
X139102380Y-118940476D02*
X139102380Y-119511904D01*
X139102380Y-119226190D02*
X138102380Y-119226190D01*
X138245238Y-119321428D01*
X138340476Y-119416666D01*
X138388095Y-119511904D01*
X138530952Y-118369047D02*
X138483333Y-118464285D01*
X138435714Y-118511904D01*
X138340476Y-118559523D01*
X138292857Y-118559523D01*
X138197619Y-118511904D01*
X138150000Y-118464285D01*
X138102380Y-118369047D01*
X138102380Y-118178571D01*
X138150000Y-118083333D01*
X138197619Y-118035714D01*
X138292857Y-117988095D01*
X138340476Y-117988095D01*
X138435714Y-118035714D01*
X138483333Y-118083333D01*
X138530952Y-118178571D01*
X138530952Y-118369047D01*
X138578571Y-118464285D01*
X138626190Y-118511904D01*
X138721428Y-118559523D01*
X138911904Y-118559523D01*
X139007142Y-118511904D01*
X139054761Y-118464285D01*
X139102380Y-118369047D01*
X139102380Y-118178571D01*
X139054761Y-118083333D01*
X139007142Y-118035714D01*
X138911904Y-117988095D01*
X138721428Y-117988095D01*
X138626190Y-118035714D01*
X138578571Y-118083333D01*
X138530952Y-118178571D01*
G04 #@! TO.C,R13*
X141602380Y-106892857D02*
X141126190Y-107226190D01*
X141602380Y-107464285D02*
X140602380Y-107464285D01*
X140602380Y-107083333D01*
X140650000Y-106988095D01*
X140697619Y-106940476D01*
X140792857Y-106892857D01*
X140935714Y-106892857D01*
X141030952Y-106940476D01*
X141078571Y-106988095D01*
X141126190Y-107083333D01*
X141126190Y-107464285D01*
X141602380Y-105940476D02*
X141602380Y-106511904D01*
X141602380Y-106226190D02*
X140602380Y-106226190D01*
X140745238Y-106321428D01*
X140840476Y-106416666D01*
X140888095Y-106511904D01*
X140602380Y-105607142D02*
X140602380Y-104988095D01*
X140983333Y-105321428D01*
X140983333Y-105178571D01*
X141030952Y-105083333D01*
X141078571Y-105035714D01*
X141173809Y-104988095D01*
X141411904Y-104988095D01*
X141507142Y-105035714D01*
X141554761Y-105083333D01*
X141602380Y-105178571D01*
X141602380Y-105464285D01*
X141554761Y-105559523D01*
X141507142Y-105607142D01*
G04 #@! TO.C,R12*
X126102380Y-98642857D02*
X125626190Y-98976190D01*
X126102380Y-99214285D02*
X125102380Y-99214285D01*
X125102380Y-98833333D01*
X125150000Y-98738095D01*
X125197619Y-98690476D01*
X125292857Y-98642857D01*
X125435714Y-98642857D01*
X125530952Y-98690476D01*
X125578571Y-98738095D01*
X125626190Y-98833333D01*
X125626190Y-99214285D01*
X126102380Y-97690476D02*
X126102380Y-98261904D01*
X126102380Y-97976190D02*
X125102380Y-97976190D01*
X125245238Y-98071428D01*
X125340476Y-98166666D01*
X125388095Y-98261904D01*
X125197619Y-97309523D02*
X125150000Y-97261904D01*
X125102380Y-97166666D01*
X125102380Y-96928571D01*
X125150000Y-96833333D01*
X125197619Y-96785714D01*
X125292857Y-96738095D01*
X125388095Y-96738095D01*
X125530952Y-96785714D01*
X126102380Y-97357142D01*
X126102380Y-96738095D01*
G04 #@! TO.C,R3*
X111952380Y-97416666D02*
X111476190Y-97750000D01*
X111952380Y-97988095D02*
X110952380Y-97988095D01*
X110952380Y-97607142D01*
X111000000Y-97511904D01*
X111047619Y-97464285D01*
X111142857Y-97416666D01*
X111285714Y-97416666D01*
X111380952Y-97464285D01*
X111428571Y-97511904D01*
X111476190Y-97607142D01*
X111476190Y-97988095D01*
X110952380Y-97083333D02*
X110952380Y-96464285D01*
X111333333Y-96797619D01*
X111333333Y-96654761D01*
X111380952Y-96559523D01*
X111428571Y-96511904D01*
X111523809Y-96464285D01*
X111761904Y-96464285D01*
X111857142Y-96511904D01*
X111904761Y-96559523D01*
X111952380Y-96654761D01*
X111952380Y-96940476D01*
X111904761Y-97035714D01*
X111857142Y-97083333D01*
G04 #@! TO.C,R4*
X111952380Y-107166666D02*
X111476190Y-107500000D01*
X111952380Y-107738095D02*
X110952380Y-107738095D01*
X110952380Y-107357142D01*
X111000000Y-107261904D01*
X111047619Y-107214285D01*
X111142857Y-107166666D01*
X111285714Y-107166666D01*
X111380952Y-107214285D01*
X111428571Y-107261904D01*
X111476190Y-107357142D01*
X111476190Y-107738095D01*
X111285714Y-106309523D02*
X111952380Y-106309523D01*
X110904761Y-106547619D02*
X111619047Y-106785714D01*
X111619047Y-106166666D01*
G04 #@! TO.C,R10*
X125452380Y-106642857D02*
X124976190Y-106976190D01*
X125452380Y-107214285D02*
X124452380Y-107214285D01*
X124452380Y-106833333D01*
X124500000Y-106738095D01*
X124547619Y-106690476D01*
X124642857Y-106642857D01*
X124785714Y-106642857D01*
X124880952Y-106690476D01*
X124928571Y-106738095D01*
X124976190Y-106833333D01*
X124976190Y-107214285D01*
X125452380Y-105690476D02*
X125452380Y-106261904D01*
X125452380Y-105976190D02*
X124452380Y-105976190D01*
X124595238Y-106071428D01*
X124690476Y-106166666D01*
X124738095Y-106261904D01*
X124452380Y-105071428D02*
X124452380Y-104976190D01*
X124500000Y-104880952D01*
X124547619Y-104833333D01*
X124642857Y-104785714D01*
X124833333Y-104738095D01*
X125071428Y-104738095D01*
X125261904Y-104785714D01*
X125357142Y-104833333D01*
X125404761Y-104880952D01*
X125452380Y-104976190D01*
X125452380Y-105071428D01*
X125404761Y-105166666D01*
X125357142Y-105214285D01*
X125261904Y-105261904D01*
X125071428Y-105309523D01*
X124833333Y-105309523D01*
X124642857Y-105261904D01*
X124547619Y-105214285D01*
X124500000Y-105166666D01*
X124452380Y-105071428D01*
G04 #@! TO.C,R2*
X121583333Y-87852380D02*
X121250000Y-87376190D01*
X121011904Y-87852380D02*
X121011904Y-86852380D01*
X121392857Y-86852380D01*
X121488095Y-86900000D01*
X121535714Y-86947619D01*
X121583333Y-87042857D01*
X121583333Y-87185714D01*
X121535714Y-87280952D01*
X121488095Y-87328571D01*
X121392857Y-87376190D01*
X121011904Y-87376190D01*
X121964285Y-86947619D02*
X122011904Y-86900000D01*
X122107142Y-86852380D01*
X122345238Y-86852380D01*
X122440476Y-86900000D01*
X122488095Y-86947619D01*
X122535714Y-87042857D01*
X122535714Y-87138095D01*
X122488095Y-87280952D01*
X121916666Y-87852380D01*
X122535714Y-87852380D01*
G04 #@! TO.C,R17*
X132737142Y-104822380D02*
X132403809Y-104346190D01*
X132165714Y-104822380D02*
X132165714Y-103822380D01*
X132546666Y-103822380D01*
X132641904Y-103870000D01*
X132689523Y-103917619D01*
X132737142Y-104012857D01*
X132737142Y-104155714D01*
X132689523Y-104250952D01*
X132641904Y-104298571D01*
X132546666Y-104346190D01*
X132165714Y-104346190D01*
X133689523Y-104822380D02*
X133118095Y-104822380D01*
X133403809Y-104822380D02*
X133403809Y-103822380D01*
X133308571Y-103965238D01*
X133213333Y-104060476D01*
X133118095Y-104108095D01*
X134022857Y-103822380D02*
X134689523Y-103822380D01*
X134260952Y-104822380D01*
G04 #@! TO.C,R14*
X130357142Y-118702380D02*
X130023809Y-118226190D01*
X129785714Y-118702380D02*
X129785714Y-117702380D01*
X130166666Y-117702380D01*
X130261904Y-117750000D01*
X130309523Y-117797619D01*
X130357142Y-117892857D01*
X130357142Y-118035714D01*
X130309523Y-118130952D01*
X130261904Y-118178571D01*
X130166666Y-118226190D01*
X129785714Y-118226190D01*
X131309523Y-118702380D02*
X130738095Y-118702380D01*
X131023809Y-118702380D02*
X131023809Y-117702380D01*
X130928571Y-117845238D01*
X130833333Y-117940476D01*
X130738095Y-117988095D01*
X132166666Y-118035714D02*
X132166666Y-118702380D01*
X131928571Y-117654761D02*
X131690476Y-118369047D01*
X132309523Y-118369047D01*
G04 #@! TO.C,R15*
X132737142Y-106732380D02*
X132403809Y-106256190D01*
X132165714Y-106732380D02*
X132165714Y-105732380D01*
X132546666Y-105732380D01*
X132641904Y-105780000D01*
X132689523Y-105827619D01*
X132737142Y-105922857D01*
X132737142Y-106065714D01*
X132689523Y-106160952D01*
X132641904Y-106208571D01*
X132546666Y-106256190D01*
X132165714Y-106256190D01*
X133689523Y-106732380D02*
X133118095Y-106732380D01*
X133403809Y-106732380D02*
X133403809Y-105732380D01*
X133308571Y-105875238D01*
X133213333Y-105970476D01*
X133118095Y-106018095D01*
X134594285Y-105732380D02*
X134118095Y-105732380D01*
X134070476Y-106208571D01*
X134118095Y-106160952D01*
X134213333Y-106113333D01*
X134451428Y-106113333D01*
X134546666Y-106160952D01*
X134594285Y-106208571D01*
X134641904Y-106303809D01*
X134641904Y-106541904D01*
X134594285Y-106637142D01*
X134546666Y-106684761D01*
X134451428Y-106732380D01*
X134213333Y-106732380D01*
X134118095Y-106684761D01*
X134070476Y-106637142D01*
G04 #@! TO.C,R16*
X133857142Y-118702380D02*
X133523809Y-118226190D01*
X133285714Y-118702380D02*
X133285714Y-117702380D01*
X133666666Y-117702380D01*
X133761904Y-117750000D01*
X133809523Y-117797619D01*
X133857142Y-117892857D01*
X133857142Y-118035714D01*
X133809523Y-118130952D01*
X133761904Y-118178571D01*
X133666666Y-118226190D01*
X133285714Y-118226190D01*
X134809523Y-118702380D02*
X134238095Y-118702380D01*
X134523809Y-118702380D02*
X134523809Y-117702380D01*
X134428571Y-117845238D01*
X134333333Y-117940476D01*
X134238095Y-117988095D01*
X135666666Y-117702380D02*
X135476190Y-117702380D01*
X135380952Y-117750000D01*
X135333333Y-117797619D01*
X135238095Y-117940476D01*
X135190476Y-118130952D01*
X135190476Y-118511904D01*
X135238095Y-118607142D01*
X135285714Y-118654761D01*
X135380952Y-118702380D01*
X135571428Y-118702380D01*
X135666666Y-118654761D01*
X135714285Y-118607142D01*
X135761904Y-118511904D01*
X135761904Y-118273809D01*
X135714285Y-118178571D01*
X135666666Y-118130952D01*
X135571428Y-118083333D01*
X135380952Y-118083333D01*
X135285714Y-118130952D01*
X135238095Y-118178571D01*
X135190476Y-118273809D01*
G04 #@! TO.C,R11*
X125452380Y-102642857D02*
X124976190Y-102976190D01*
X125452380Y-103214285D02*
X124452380Y-103214285D01*
X124452380Y-102833333D01*
X124500000Y-102738095D01*
X124547619Y-102690476D01*
X124642857Y-102642857D01*
X124785714Y-102642857D01*
X124880952Y-102690476D01*
X124928571Y-102738095D01*
X124976190Y-102833333D01*
X124976190Y-103214285D01*
X125452380Y-101690476D02*
X125452380Y-102261904D01*
X125452380Y-101976190D02*
X124452380Y-101976190D01*
X124595238Y-102071428D01*
X124690476Y-102166666D01*
X124738095Y-102261904D01*
X125452380Y-100738095D02*
X125452380Y-101309523D01*
X125452380Y-101023809D02*
X124452380Y-101023809D01*
X124595238Y-101119047D01*
X124690476Y-101214285D01*
X124738095Y-101309523D01*
G04 #@! TO.C,R1*
X136583333Y-79452380D02*
X136250000Y-78976190D01*
X136011904Y-79452380D02*
X136011904Y-78452380D01*
X136392857Y-78452380D01*
X136488095Y-78500000D01*
X136535714Y-78547619D01*
X136583333Y-78642857D01*
X136583333Y-78785714D01*
X136535714Y-78880952D01*
X136488095Y-78928571D01*
X136392857Y-78976190D01*
X136011904Y-78976190D01*
X137535714Y-79452380D02*
X136964285Y-79452380D01*
X137250000Y-79452380D02*
X137250000Y-78452380D01*
X137154761Y-78595238D01*
X137059523Y-78690476D01*
X136964285Y-78738095D01*
G04 #@! TO.C,R5*
X112452380Y-111166666D02*
X111976190Y-111500000D01*
X112452380Y-111738095D02*
X111452380Y-111738095D01*
X111452380Y-111357142D01*
X111500000Y-111261904D01*
X111547619Y-111214285D01*
X111642857Y-111166666D01*
X111785714Y-111166666D01*
X111880952Y-111214285D01*
X111928571Y-111261904D01*
X111976190Y-111357142D01*
X111976190Y-111738095D01*
X111452380Y-110261904D02*
X111452380Y-110738095D01*
X111928571Y-110785714D01*
X111880952Y-110738095D01*
X111833333Y-110642857D01*
X111833333Y-110404761D01*
X111880952Y-110309523D01*
X111928571Y-110261904D01*
X112023809Y-110214285D01*
X112261904Y-110214285D01*
X112357142Y-110261904D01*
X112404761Y-110309523D01*
X112452380Y-110404761D01*
X112452380Y-110642857D01*
X112404761Y-110738095D01*
X112357142Y-110785714D01*
G04 #@! TO.C,R6*
X111452380Y-121166666D02*
X110976190Y-121500000D01*
X111452380Y-121738095D02*
X110452380Y-121738095D01*
X110452380Y-121357142D01*
X110500000Y-121261904D01*
X110547619Y-121214285D01*
X110642857Y-121166666D01*
X110785714Y-121166666D01*
X110880952Y-121214285D01*
X110928571Y-121261904D01*
X110976190Y-121357142D01*
X110976190Y-121738095D01*
X110452380Y-120309523D02*
X110452380Y-120500000D01*
X110500000Y-120595238D01*
X110547619Y-120642857D01*
X110690476Y-120738095D01*
X110880952Y-120785714D01*
X111261904Y-120785714D01*
X111357142Y-120738095D01*
X111404761Y-120690476D01*
X111452380Y-120595238D01*
X111452380Y-120404761D01*
X111404761Y-120309523D01*
X111357142Y-120261904D01*
X111261904Y-120214285D01*
X111023809Y-120214285D01*
X110928571Y-120261904D01*
X110880952Y-120309523D01*
X110833333Y-120404761D01*
X110833333Y-120595238D01*
X110880952Y-120690476D01*
X110928571Y-120738095D01*
X111023809Y-120785714D01*
G04 #@! TO.C,R7*
X124833333Y-113452380D02*
X124500000Y-112976190D01*
X124261904Y-113452380D02*
X124261904Y-112452380D01*
X124642857Y-112452380D01*
X124738095Y-112500000D01*
X124785714Y-112547619D01*
X124833333Y-112642857D01*
X124833333Y-112785714D01*
X124785714Y-112880952D01*
X124738095Y-112928571D01*
X124642857Y-112976190D01*
X124261904Y-112976190D01*
X125166666Y-112452380D02*
X125833333Y-112452380D01*
X125404761Y-113452380D01*
G04 #@! TO.C,R8*
X115833333Y-110452380D02*
X115500000Y-109976190D01*
X115261904Y-110452380D02*
X115261904Y-109452380D01*
X115642857Y-109452380D01*
X115738095Y-109500000D01*
X115785714Y-109547619D01*
X115833333Y-109642857D01*
X115833333Y-109785714D01*
X115785714Y-109880952D01*
X115738095Y-109928571D01*
X115642857Y-109976190D01*
X115261904Y-109976190D01*
X116404761Y-109880952D02*
X116309523Y-109833333D01*
X116261904Y-109785714D01*
X116214285Y-109690476D01*
X116214285Y-109642857D01*
X116261904Y-109547619D01*
X116309523Y-109500000D01*
X116404761Y-109452380D01*
X116595238Y-109452380D01*
X116690476Y-109500000D01*
X116738095Y-109547619D01*
X116785714Y-109642857D01*
X116785714Y-109690476D01*
X116738095Y-109785714D01*
X116690476Y-109833333D01*
X116595238Y-109880952D01*
X116404761Y-109880952D01*
X116309523Y-109928571D01*
X116261904Y-109976190D01*
X116214285Y-110071428D01*
X116214285Y-110261904D01*
X116261904Y-110357142D01*
X116309523Y-110404761D01*
X116404761Y-110452380D01*
X116595238Y-110452380D01*
X116690476Y-110404761D01*
X116738095Y-110357142D01*
X116785714Y-110261904D01*
X116785714Y-110071428D01*
X116738095Y-109976190D01*
X116690476Y-109928571D01*
X116595238Y-109880952D01*
G04 #@! TO.C,R9*
X124833333Y-111452380D02*
X124500000Y-110976190D01*
X124261904Y-111452380D02*
X124261904Y-110452380D01*
X124642857Y-110452380D01*
X124738095Y-110500000D01*
X124785714Y-110547619D01*
X124833333Y-110642857D01*
X124833333Y-110785714D01*
X124785714Y-110880952D01*
X124738095Y-110928571D01*
X124642857Y-110976190D01*
X124261904Y-110976190D01*
X125309523Y-111452380D02*
X125500000Y-111452380D01*
X125595238Y-111404761D01*
X125642857Y-111357142D01*
X125738095Y-111214285D01*
X125785714Y-111023809D01*
X125785714Y-110642857D01*
X125738095Y-110547619D01*
X125690476Y-110500000D01*
X125595238Y-110452380D01*
X125404761Y-110452380D01*
X125309523Y-110500000D01*
X125261904Y-110547619D01*
X125214285Y-110642857D01*
X125214285Y-110880952D01*
X125261904Y-110976190D01*
X125309523Y-111023809D01*
X125404761Y-111071428D01*
X125595238Y-111071428D01*
X125690476Y-111023809D01*
X125738095Y-110976190D01*
X125785714Y-110880952D01*
G04 #@! TO.C,U6*
X133202380Y-127261904D02*
X134011904Y-127261904D01*
X134107142Y-127214285D01*
X134154761Y-127166666D01*
X134202380Y-127071428D01*
X134202380Y-126880952D01*
X134154761Y-126785714D01*
X134107142Y-126738095D01*
X134011904Y-126690476D01*
X133202380Y-126690476D01*
X133202380Y-125785714D02*
X133202380Y-125976190D01*
X133250000Y-126071428D01*
X133297619Y-126119047D01*
X133440476Y-126214285D01*
X133630952Y-126261904D01*
X134011904Y-126261904D01*
X134107142Y-126214285D01*
X134154761Y-126166666D01*
X134202380Y-126071428D01*
X134202380Y-125880952D01*
X134154761Y-125785714D01*
X134107142Y-125738095D01*
X134011904Y-125690476D01*
X133773809Y-125690476D01*
X133678571Y-125738095D01*
X133630952Y-125785714D01*
X133583333Y-125880952D01*
X133583333Y-126071428D01*
X133630952Y-126166666D01*
X133678571Y-126214285D01*
X133773809Y-126261904D01*
G04 #@! TO.C,C5*
X118083333Y-85607142D02*
X118035714Y-85654761D01*
X117892857Y-85702380D01*
X117797619Y-85702380D01*
X117654761Y-85654761D01*
X117559523Y-85559523D01*
X117511904Y-85464285D01*
X117464285Y-85273809D01*
X117464285Y-85130952D01*
X117511904Y-84940476D01*
X117559523Y-84845238D01*
X117654761Y-84750000D01*
X117797619Y-84702380D01*
X117892857Y-84702380D01*
X118035714Y-84750000D01*
X118083333Y-84797619D01*
X118988095Y-84702380D02*
X118511904Y-84702380D01*
X118464285Y-85178571D01*
X118511904Y-85130952D01*
X118607142Y-85083333D01*
X118845238Y-85083333D01*
X118940476Y-85130952D01*
X118988095Y-85178571D01*
X119035714Y-85273809D01*
X119035714Y-85511904D01*
X118988095Y-85607142D01*
X118940476Y-85654761D01*
X118845238Y-85702380D01*
X118607142Y-85702380D01*
X118511904Y-85654761D01*
X118464285Y-85607142D01*
G04 #@! TO.C,U5*
X137452380Y-112011904D02*
X138261904Y-112011904D01*
X138357142Y-111964285D01*
X138404761Y-111916666D01*
X138452380Y-111821428D01*
X138452380Y-111630952D01*
X138404761Y-111535714D01*
X138357142Y-111488095D01*
X138261904Y-111440476D01*
X137452380Y-111440476D01*
X137452380Y-110488095D02*
X137452380Y-110964285D01*
X137928571Y-111011904D01*
X137880952Y-110964285D01*
X137833333Y-110869047D01*
X137833333Y-110630952D01*
X137880952Y-110535714D01*
X137928571Y-110488095D01*
X138023809Y-110440476D01*
X138261904Y-110440476D01*
X138357142Y-110488095D01*
X138404761Y-110535714D01*
X138452380Y-110630952D01*
X138452380Y-110869047D01*
X138404761Y-110964285D01*
X138357142Y-111011904D01*
G04 #@! TO.C,U2*
X116238095Y-98952380D02*
X116238095Y-99761904D01*
X116285714Y-99857142D01*
X116333333Y-99904761D01*
X116428571Y-99952380D01*
X116619047Y-99952380D01*
X116714285Y-99904761D01*
X116761904Y-99857142D01*
X116809523Y-99761904D01*
X116809523Y-98952380D01*
X117238095Y-99047619D02*
X117285714Y-99000000D01*
X117380952Y-98952380D01*
X117619047Y-98952380D01*
X117714285Y-99000000D01*
X117761904Y-99047619D01*
X117809523Y-99142857D01*
X117809523Y-99238095D01*
X117761904Y-99380952D01*
X117190476Y-99952380D01*
X117809523Y-99952380D01*
G04 #@! TO.C,R20*
X131852380Y-132642857D02*
X131376190Y-132976190D01*
X131852380Y-133214285D02*
X130852380Y-133214285D01*
X130852380Y-132833333D01*
X130900000Y-132738095D01*
X130947619Y-132690476D01*
X131042857Y-132642857D01*
X131185714Y-132642857D01*
X131280952Y-132690476D01*
X131328571Y-132738095D01*
X131376190Y-132833333D01*
X131376190Y-133214285D01*
X130947619Y-132261904D02*
X130900000Y-132214285D01*
X130852380Y-132119047D01*
X130852380Y-131880952D01*
X130900000Y-131785714D01*
X130947619Y-131738095D01*
X131042857Y-131690476D01*
X131138095Y-131690476D01*
X131280952Y-131738095D01*
X131852380Y-132309523D01*
X131852380Y-131690476D01*
X130852380Y-131071428D02*
X130852380Y-130976190D01*
X130900000Y-130880952D01*
X130947619Y-130833333D01*
X131042857Y-130785714D01*
X131233333Y-130738095D01*
X131471428Y-130738095D01*
X131661904Y-130785714D01*
X131757142Y-130833333D01*
X131804761Y-130880952D01*
X131852380Y-130976190D01*
X131852380Y-131071428D01*
X131804761Y-131166666D01*
X131757142Y-131214285D01*
X131661904Y-131261904D01*
X131471428Y-131309523D01*
X131233333Y-131309523D01*
X131042857Y-131261904D01*
X130947619Y-131214285D01*
X130900000Y-131166666D01*
X130852380Y-131071428D01*
G04 #@! TO.C,U1*
X118238095Y-111952380D02*
X118238095Y-112761904D01*
X118285714Y-112857142D01*
X118333333Y-112904761D01*
X118428571Y-112952380D01*
X118619047Y-112952380D01*
X118714285Y-112904761D01*
X118761904Y-112857142D01*
X118809523Y-112761904D01*
X118809523Y-111952380D01*
X119809523Y-112952380D02*
X119238095Y-112952380D01*
X119523809Y-112952380D02*
X119523809Y-111952380D01*
X119428571Y-112095238D01*
X119333333Y-112190476D01*
X119238095Y-112238095D01*
G04 #@! TO.C,U4*
X128988095Y-73952380D02*
X128988095Y-74761904D01*
X129035714Y-74857142D01*
X129083333Y-74904761D01*
X129178571Y-74952380D01*
X129369047Y-74952380D01*
X129464285Y-74904761D01*
X129511904Y-74857142D01*
X129559523Y-74761904D01*
X129559523Y-73952380D01*
X130464285Y-74285714D02*
X130464285Y-74952380D01*
X130226190Y-73904761D02*
X129988095Y-74619047D01*
X130607142Y-74619047D01*
G04 #@! TO.C,C13*
X111857142Y-133107142D02*
X111809523Y-133154761D01*
X111666666Y-133202380D01*
X111571428Y-133202380D01*
X111428571Y-133154761D01*
X111333333Y-133059523D01*
X111285714Y-132964285D01*
X111238095Y-132773809D01*
X111238095Y-132630952D01*
X111285714Y-132440476D01*
X111333333Y-132345238D01*
X111428571Y-132250000D01*
X111571428Y-132202380D01*
X111666666Y-132202380D01*
X111809523Y-132250000D01*
X111857142Y-132297619D01*
X112809523Y-133202380D02*
X112238095Y-133202380D01*
X112523809Y-133202380D02*
X112523809Y-132202380D01*
X112428571Y-132345238D01*
X112333333Y-132440476D01*
X112238095Y-132488095D01*
X113142857Y-132202380D02*
X113761904Y-132202380D01*
X113428571Y-132583333D01*
X113571428Y-132583333D01*
X113666666Y-132630952D01*
X113714285Y-132678571D01*
X113761904Y-132773809D01*
X113761904Y-133011904D01*
X113714285Y-133107142D01*
X113666666Y-133154761D01*
X113571428Y-133202380D01*
X113285714Y-133202380D01*
X113190476Y-133154761D01*
X113142857Y-133107142D01*
G04 #@! TO.C,C3*
X115833333Y-124857142D02*
X115785714Y-124904761D01*
X115642857Y-124952380D01*
X115547619Y-124952380D01*
X115404761Y-124904761D01*
X115309523Y-124809523D01*
X115261904Y-124714285D01*
X115214285Y-124523809D01*
X115214285Y-124380952D01*
X115261904Y-124190476D01*
X115309523Y-124095238D01*
X115404761Y-124000000D01*
X115547619Y-123952380D01*
X115642857Y-123952380D01*
X115785714Y-124000000D01*
X115833333Y-124047619D01*
X116166666Y-123952380D02*
X116785714Y-123952380D01*
X116452380Y-124333333D01*
X116595238Y-124333333D01*
X116690476Y-124380952D01*
X116738095Y-124428571D01*
X116785714Y-124523809D01*
X116785714Y-124761904D01*
X116738095Y-124857142D01*
X116690476Y-124904761D01*
X116595238Y-124952380D01*
X116309523Y-124952380D01*
X116214285Y-124904761D01*
X116166666Y-124857142D01*
G04 #@! TO.C,C1*
X119833333Y-124857142D02*
X119785714Y-124904761D01*
X119642857Y-124952380D01*
X119547619Y-124952380D01*
X119404761Y-124904761D01*
X119309523Y-124809523D01*
X119261904Y-124714285D01*
X119214285Y-124523809D01*
X119214285Y-124380952D01*
X119261904Y-124190476D01*
X119309523Y-124095238D01*
X119404761Y-124000000D01*
X119547619Y-123952380D01*
X119642857Y-123952380D01*
X119785714Y-124000000D01*
X119833333Y-124047619D01*
X120785714Y-124952380D02*
X120214285Y-124952380D01*
X120500000Y-124952380D02*
X120500000Y-123952380D01*
X120404761Y-124095238D01*
X120309523Y-124190476D01*
X120214285Y-124238095D01*
G04 #@! TO.C,C2*
X129207142Y-98666666D02*
X129254761Y-98714285D01*
X129302380Y-98857142D01*
X129302380Y-98952380D01*
X129254761Y-99095238D01*
X129159523Y-99190476D01*
X129064285Y-99238095D01*
X128873809Y-99285714D01*
X128730952Y-99285714D01*
X128540476Y-99238095D01*
X128445238Y-99190476D01*
X128350000Y-99095238D01*
X128302380Y-98952380D01*
X128302380Y-98857142D01*
X128350000Y-98714285D01*
X128397619Y-98666666D01*
X128397619Y-98285714D02*
X128350000Y-98238095D01*
X128302380Y-98142857D01*
X128302380Y-97904761D01*
X128350000Y-97809523D01*
X128397619Y-97761904D01*
X128492857Y-97714285D01*
X128588095Y-97714285D01*
X128730952Y-97761904D01*
X129302380Y-98333333D01*
X129302380Y-97714285D01*
G04 #@! TO.C,C12*
X137357142Y-138057142D02*
X137309523Y-138104761D01*
X137166666Y-138152380D01*
X137071428Y-138152380D01*
X136928571Y-138104761D01*
X136833333Y-138009523D01*
X136785714Y-137914285D01*
X136738095Y-137723809D01*
X136738095Y-137580952D01*
X136785714Y-137390476D01*
X136833333Y-137295238D01*
X136928571Y-137200000D01*
X137071428Y-137152380D01*
X137166666Y-137152380D01*
X137309523Y-137200000D01*
X137357142Y-137247619D01*
X138309523Y-138152380D02*
X137738095Y-138152380D01*
X138023809Y-138152380D02*
X138023809Y-137152380D01*
X137928571Y-137295238D01*
X137833333Y-137390476D01*
X137738095Y-137438095D01*
X138690476Y-137247619D02*
X138738095Y-137200000D01*
X138833333Y-137152380D01*
X139071428Y-137152380D01*
X139166666Y-137200000D01*
X139214285Y-137247619D01*
X139261904Y-137342857D01*
X139261904Y-137438095D01*
X139214285Y-137580952D01*
X138642857Y-138152380D01*
X139261904Y-138152380D01*
G04 #@! TO.C,C4*
X124857142Y-69416666D02*
X124904761Y-69464285D01*
X124952380Y-69607142D01*
X124952380Y-69702380D01*
X124904761Y-69845238D01*
X124809523Y-69940476D01*
X124714285Y-69988095D01*
X124523809Y-70035714D01*
X124380952Y-70035714D01*
X124190476Y-69988095D01*
X124095238Y-69940476D01*
X124000000Y-69845238D01*
X123952380Y-69702380D01*
X123952380Y-69607142D01*
X124000000Y-69464285D01*
X124047619Y-69416666D01*
X124285714Y-68559523D02*
X124952380Y-68559523D01*
X123904761Y-68797619D02*
X124619047Y-69035714D01*
X124619047Y-68416666D01*
G04 #@! TO.C,C6*
X127707142Y-72166666D02*
X127754761Y-72214285D01*
X127802380Y-72357142D01*
X127802380Y-72452380D01*
X127754761Y-72595238D01*
X127659523Y-72690476D01*
X127564285Y-72738095D01*
X127373809Y-72785714D01*
X127230952Y-72785714D01*
X127040476Y-72738095D01*
X126945238Y-72690476D01*
X126850000Y-72595238D01*
X126802380Y-72452380D01*
X126802380Y-72357142D01*
X126850000Y-72214285D01*
X126897619Y-72166666D01*
X126802380Y-71309523D02*
X126802380Y-71500000D01*
X126850000Y-71595238D01*
X126897619Y-71642857D01*
X127040476Y-71738095D01*
X127230952Y-71785714D01*
X127611904Y-71785714D01*
X127707142Y-71738095D01*
X127754761Y-71690476D01*
X127802380Y-71595238D01*
X127802380Y-71404761D01*
X127754761Y-71309523D01*
X127707142Y-71261904D01*
X127611904Y-71214285D01*
X127373809Y-71214285D01*
X127278571Y-71261904D01*
X127230952Y-71309523D01*
X127183333Y-71404761D01*
X127183333Y-71595238D01*
X127230952Y-71690476D01*
X127278571Y-71738095D01*
X127373809Y-71785714D01*
G04 #@! TO.C,C8*
X117833333Y-80007142D02*
X117785714Y-80054761D01*
X117642857Y-80102380D01*
X117547619Y-80102380D01*
X117404761Y-80054761D01*
X117309523Y-79959523D01*
X117261904Y-79864285D01*
X117214285Y-79673809D01*
X117214285Y-79530952D01*
X117261904Y-79340476D01*
X117309523Y-79245238D01*
X117404761Y-79150000D01*
X117547619Y-79102380D01*
X117642857Y-79102380D01*
X117785714Y-79150000D01*
X117833333Y-79197619D01*
X118404761Y-79530952D02*
X118309523Y-79483333D01*
X118261904Y-79435714D01*
X118214285Y-79340476D01*
X118214285Y-79292857D01*
X118261904Y-79197619D01*
X118309523Y-79150000D01*
X118404761Y-79102380D01*
X118595238Y-79102380D01*
X118690476Y-79150000D01*
X118738095Y-79197619D01*
X118785714Y-79292857D01*
X118785714Y-79340476D01*
X118738095Y-79435714D01*
X118690476Y-79483333D01*
X118595238Y-79530952D01*
X118404761Y-79530952D01*
X118309523Y-79578571D01*
X118261904Y-79626190D01*
X118214285Y-79721428D01*
X118214285Y-79911904D01*
X118261904Y-80007142D01*
X118309523Y-80054761D01*
X118404761Y-80102380D01*
X118595238Y-80102380D01*
X118690476Y-80054761D01*
X118738095Y-80007142D01*
X118785714Y-79911904D01*
X118785714Y-79721428D01*
X118738095Y-79626190D01*
X118690476Y-79578571D01*
X118595238Y-79530952D01*
G04 #@! TO.C,C9*
X121833333Y-110707142D02*
X121785714Y-110754761D01*
X121642857Y-110802380D01*
X121547619Y-110802380D01*
X121404761Y-110754761D01*
X121309523Y-110659523D01*
X121261904Y-110564285D01*
X121214285Y-110373809D01*
X121214285Y-110230952D01*
X121261904Y-110040476D01*
X121309523Y-109945238D01*
X121404761Y-109850000D01*
X121547619Y-109802380D01*
X121642857Y-109802380D01*
X121785714Y-109850000D01*
X121833333Y-109897619D01*
X122309523Y-110802380D02*
X122500000Y-110802380D01*
X122595238Y-110754761D01*
X122642857Y-110707142D01*
X122738095Y-110564285D01*
X122785714Y-110373809D01*
X122785714Y-109992857D01*
X122738095Y-109897619D01*
X122690476Y-109850000D01*
X122595238Y-109802380D01*
X122404761Y-109802380D01*
X122309523Y-109850000D01*
X122261904Y-109897619D01*
X122214285Y-109992857D01*
X122214285Y-110230952D01*
X122261904Y-110326190D01*
X122309523Y-110373809D01*
X122404761Y-110421428D01*
X122595238Y-110421428D01*
X122690476Y-110373809D01*
X122738095Y-110326190D01*
X122785714Y-110230952D01*
G04 #@! TO.C,C10*
X119357142Y-120357142D02*
X119309523Y-120404761D01*
X119166666Y-120452380D01*
X119071428Y-120452380D01*
X118928571Y-120404761D01*
X118833333Y-120309523D01*
X118785714Y-120214285D01*
X118738095Y-120023809D01*
X118738095Y-119880952D01*
X118785714Y-119690476D01*
X118833333Y-119595238D01*
X118928571Y-119500000D01*
X119071428Y-119452380D01*
X119166666Y-119452380D01*
X119309523Y-119500000D01*
X119357142Y-119547619D01*
X120309523Y-120452380D02*
X119738095Y-120452380D01*
X120023809Y-120452380D02*
X120023809Y-119452380D01*
X119928571Y-119595238D01*
X119833333Y-119690476D01*
X119738095Y-119738095D01*
X120928571Y-119452380D02*
X121023809Y-119452380D01*
X121119047Y-119500000D01*
X121166666Y-119547619D01*
X121214285Y-119642857D01*
X121261904Y-119833333D01*
X121261904Y-120071428D01*
X121214285Y-120261904D01*
X121166666Y-120357142D01*
X121119047Y-120404761D01*
X121023809Y-120452380D01*
X120928571Y-120452380D01*
X120833333Y-120404761D01*
X120785714Y-120357142D01*
X120738095Y-120261904D01*
X120690476Y-120071428D01*
X120690476Y-119833333D01*
X120738095Y-119642857D01*
X120785714Y-119547619D01*
X120833333Y-119500000D01*
X120928571Y-119452380D01*
G04 #@! TO.C,C11*
X113357142Y-109007142D02*
X113309523Y-109054761D01*
X113166666Y-109102380D01*
X113071428Y-109102380D01*
X112928571Y-109054761D01*
X112833333Y-108959523D01*
X112785714Y-108864285D01*
X112738095Y-108673809D01*
X112738095Y-108530952D01*
X112785714Y-108340476D01*
X112833333Y-108245238D01*
X112928571Y-108150000D01*
X113071428Y-108102380D01*
X113166666Y-108102380D01*
X113309523Y-108150000D01*
X113357142Y-108197619D01*
X114309523Y-109102380D02*
X113738095Y-109102380D01*
X114023809Y-109102380D02*
X114023809Y-108102380D01*
X113928571Y-108245238D01*
X113833333Y-108340476D01*
X113738095Y-108388095D01*
X115261904Y-109102380D02*
X114690476Y-109102380D01*
X114976190Y-109102380D02*
X114976190Y-108102380D01*
X114880952Y-108245238D01*
X114785714Y-108340476D01*
X114690476Y-108388095D01*
G04 #@! TO.C,C7*
X132333333Y-74207142D02*
X132285714Y-74254761D01*
X132142857Y-74302380D01*
X132047619Y-74302380D01*
X131904761Y-74254761D01*
X131809523Y-74159523D01*
X131761904Y-74064285D01*
X131714285Y-73873809D01*
X131714285Y-73730952D01*
X131761904Y-73540476D01*
X131809523Y-73445238D01*
X131904761Y-73350000D01*
X132047619Y-73302380D01*
X132142857Y-73302380D01*
X132285714Y-73350000D01*
X132333333Y-73397619D01*
X132666666Y-73302380D02*
X133333333Y-73302380D01*
X132904761Y-74302380D01*
G04 #@! TO.C,C14*
X120357142Y-97707142D02*
X120309523Y-97754761D01*
X120166666Y-97802380D01*
X120071428Y-97802380D01*
X119928571Y-97754761D01*
X119833333Y-97659523D01*
X119785714Y-97564285D01*
X119738095Y-97373809D01*
X119738095Y-97230952D01*
X119785714Y-97040476D01*
X119833333Y-96945238D01*
X119928571Y-96850000D01*
X120071428Y-96802380D01*
X120166666Y-96802380D01*
X120309523Y-96850000D01*
X120357142Y-96897619D01*
X121309523Y-97802380D02*
X120738095Y-97802380D01*
X121023809Y-97802380D02*
X121023809Y-96802380D01*
X120928571Y-96945238D01*
X120833333Y-97040476D01*
X120738095Y-97088095D01*
X122166666Y-97135714D02*
X122166666Y-97802380D01*
X121928571Y-96754761D02*
X121690476Y-97469047D01*
X122309523Y-97469047D01*
G04 #@! TO.C,C15*
X140507142Y-115892857D02*
X140554761Y-115940476D01*
X140602380Y-116083333D01*
X140602380Y-116178571D01*
X140554761Y-116321428D01*
X140459523Y-116416666D01*
X140364285Y-116464285D01*
X140173809Y-116511904D01*
X140030952Y-116511904D01*
X139840476Y-116464285D01*
X139745238Y-116416666D01*
X139650000Y-116321428D01*
X139602380Y-116178571D01*
X139602380Y-116083333D01*
X139650000Y-115940476D01*
X139697619Y-115892857D01*
X140602380Y-114940476D02*
X140602380Y-115511904D01*
X140602380Y-115226190D02*
X139602380Y-115226190D01*
X139745238Y-115321428D01*
X139840476Y-115416666D01*
X139888095Y-115511904D01*
X139602380Y-114035714D02*
X139602380Y-114511904D01*
X140078571Y-114559523D01*
X140030952Y-114511904D01*
X139983333Y-114416666D01*
X139983333Y-114178571D01*
X140030952Y-114083333D01*
X140078571Y-114035714D01*
X140173809Y-113988095D01*
X140411904Y-113988095D01*
X140507142Y-114035714D01*
X140554761Y-114083333D01*
X140602380Y-114178571D01*
X140602380Y-114416666D01*
X140554761Y-114511904D01*
X140507142Y-114559523D01*
G04 #@! TO.C,C16*
X129207142Y-107892857D02*
X129254761Y-107940476D01*
X129302380Y-108083333D01*
X129302380Y-108178571D01*
X129254761Y-108321428D01*
X129159523Y-108416666D01*
X129064285Y-108464285D01*
X128873809Y-108511904D01*
X128730952Y-108511904D01*
X128540476Y-108464285D01*
X128445238Y-108416666D01*
X128350000Y-108321428D01*
X128302380Y-108178571D01*
X128302380Y-108083333D01*
X128350000Y-107940476D01*
X128397619Y-107892857D01*
X129302380Y-106940476D02*
X129302380Y-107511904D01*
X129302380Y-107226190D02*
X128302380Y-107226190D01*
X128445238Y-107321428D01*
X128540476Y-107416666D01*
X128588095Y-107511904D01*
X128302380Y-106083333D02*
X128302380Y-106273809D01*
X128350000Y-106369047D01*
X128397619Y-106416666D01*
X128540476Y-106511904D01*
X128730952Y-106559523D01*
X129111904Y-106559523D01*
X129207142Y-106511904D01*
X129254761Y-106464285D01*
X129302380Y-106369047D01*
X129302380Y-106178571D01*
X129254761Y-106083333D01*
X129207142Y-106035714D01*
X129111904Y-105988095D01*
X128873809Y-105988095D01*
X128778571Y-106035714D01*
X128730952Y-106083333D01*
X128683333Y-106178571D01*
X128683333Y-106369047D01*
X128730952Y-106464285D01*
X128778571Y-106511904D01*
X128873809Y-106559523D01*
G04 #@! TO.C,C17*
X124957142Y-123142857D02*
X125004761Y-123190476D01*
X125052380Y-123333333D01*
X125052380Y-123428571D01*
X125004761Y-123571428D01*
X124909523Y-123666666D01*
X124814285Y-123714285D01*
X124623809Y-123761904D01*
X124480952Y-123761904D01*
X124290476Y-123714285D01*
X124195238Y-123666666D01*
X124100000Y-123571428D01*
X124052380Y-123428571D01*
X124052380Y-123333333D01*
X124100000Y-123190476D01*
X124147619Y-123142857D01*
X125052380Y-122190476D02*
X125052380Y-122761904D01*
X125052380Y-122476190D02*
X124052380Y-122476190D01*
X124195238Y-122571428D01*
X124290476Y-122666666D01*
X124338095Y-122761904D01*
X124052380Y-121857142D02*
X124052380Y-121190476D01*
X125052380Y-121619047D01*
G04 #@! TO.C,C18*
X136257142Y-130642857D02*
X136304761Y-130690476D01*
X136352380Y-130833333D01*
X136352380Y-130928571D01*
X136304761Y-131071428D01*
X136209523Y-131166666D01*
X136114285Y-131214285D01*
X135923809Y-131261904D01*
X135780952Y-131261904D01*
X135590476Y-131214285D01*
X135495238Y-131166666D01*
X135400000Y-131071428D01*
X135352380Y-130928571D01*
X135352380Y-130833333D01*
X135400000Y-130690476D01*
X135447619Y-130642857D01*
X136352380Y-129690476D02*
X136352380Y-130261904D01*
X136352380Y-129976190D02*
X135352380Y-129976190D01*
X135495238Y-130071428D01*
X135590476Y-130166666D01*
X135638095Y-130261904D01*
X135780952Y-129119047D02*
X135733333Y-129214285D01*
X135685714Y-129261904D01*
X135590476Y-129309523D01*
X135542857Y-129309523D01*
X135447619Y-129261904D01*
X135400000Y-129214285D01*
X135352380Y-129119047D01*
X135352380Y-128928571D01*
X135400000Y-128833333D01*
X135447619Y-128785714D01*
X135542857Y-128738095D01*
X135590476Y-128738095D01*
X135685714Y-128785714D01*
X135733333Y-128833333D01*
X135780952Y-128928571D01*
X135780952Y-129119047D01*
X135828571Y-129214285D01*
X135876190Y-129261904D01*
X135971428Y-129309523D01*
X136161904Y-129309523D01*
X136257142Y-129261904D01*
X136304761Y-129214285D01*
X136352380Y-129119047D01*
X136352380Y-128928571D01*
X136304761Y-128833333D01*
X136257142Y-128785714D01*
X136161904Y-128738095D01*
X135971428Y-128738095D01*
X135876190Y-128785714D01*
X135828571Y-128833333D01*
X135780952Y-128928571D01*
G04 #@! TD*
M02*
