M48
;DRILL file {KiCad 5.0.2+dfsg1-1~bpo9+1} date Thu 23 May 2019 03:09:58 PM PDT
;FORMAT={-:-/ absolute / inch / decimal}
FMAT,2
INCH,TZ
T1C0.0118
T2C0.0157
T3C0.0394
T4C0.0400
%
G90
G05
T1
X4.6038Y-4.5842
X4.8327Y-3.0413
X4.8327Y-3.1102
X4.8327Y-3.1398
X4.8622Y-3.0709
X4.9311Y-3.5236
X4.9409Y-3.1693
X5.187Y-3.2382
X5.1969Y-3.061
X5.1969Y-3.1004
X5.1969Y-3.1299
X5.1969Y-3.1693
X5.2067Y-3.1988
X5.2165Y-3.0413
T2
X4.3898Y-3.7697
X4.439Y-3.8287
X4.4488Y-4.7441
X4.4685Y-4.3504
X4.4783Y-4.9213
X4.5472Y-5.1969
X4.5669Y-4.8425
X4.5768Y-3.7697
X4.5768Y-4.2717
X4.5866Y-4.0157
X4.626Y-5.5906
X4.6457Y-3.189
X4.685Y-4.5866
X4.7047Y-3.0118
X4.7047Y-3.1299
X4.7047Y-4.2126
X4.7402Y-2.9626
X4.7441Y-4.311
X4.7638Y-2.7559
X4.7638Y-2.9134
X4.7688Y-2.8445
X4.8031Y-5.315
X4.8228Y-3.1693
X4.8276Y-2.8051
X4.8425Y-2.9921
X4.8425Y-3.7697
X4.8524Y-2.7067
X4.8622Y-4.7244
X4.9016Y-3.1496
X4.9213Y-2.6181
X4.9213Y-3.0315
X4.9213Y-5.2165
X4.9508Y-3.622
X4.9606Y-2.7165
X4.9606Y-2.7953
X4.9606Y-5.
X4.9705Y-4.9213
X4.9902Y-4.2717
X5.0197Y-3.1693
X5.0197Y-4.1142
X5.0197Y-4.685
X5.0394Y-3.0315
X5.0787Y-5.3346
X5.0886Y-4.7835
X5.0984Y-4.3701
X5.1181Y-4.5276
X5.1476Y-3.7697
X5.2165Y-2.8543
X5.2362Y-4.9213
X5.2756Y-4.3701
X5.315Y-5.0197
X5.3346Y-4.8622
X5.3371Y-4.7318
X5.374Y-3.4252
X5.3937Y-2.8937
X5.4232Y-4.2717
X5.4724Y-5.0984
X5.4724Y-5.5315
X5.4921Y-3.8681
X5.5118Y-4.4291
T3
X5.2858Y-3.8484
X5.2858Y-4.0256
X5.5417Y-3.8484
X5.5417Y-4.0256
X5.5315Y-2.7417
X5.5315Y-2.8417
X5.5315Y-2.9417
X5.5315Y-3.0417
X5.5315Y-3.1417
X5.5315Y-3.2417
X5.5315Y-3.3417
X5.5315Y-3.4417
X5.5315Y-3.5417
X5.5315Y-3.6417
X5.0362Y-3.5614
X5.0362Y-3.6614
X5.1362Y-3.5614
X5.1362Y-3.6614
X5.2362Y-3.5614
X5.2362Y-3.6614
X4.5276Y-5.7677
X4.6276Y-5.7677
X4.7276Y-5.7677
X4.8276Y-5.7677
X4.9276Y-5.7677
X5.0276Y-5.7677
X5.1276Y-5.7677
X5.2276Y-5.7677
X5.3276Y-5.7677
X5.4276Y-5.7677
X4.4291Y-2.7283
X4.4291Y-2.8283
X4.4291Y-2.9283
X4.4291Y-3.0283
X4.4291Y-3.1283
X4.4291Y-3.2283
X4.4291Y-3.3283
X4.4291Y-3.4283
X4.4291Y-3.5283
X4.4291Y-3.6283
X4.5441Y-5.0591
X4.6441Y-5.0591
X4.7441Y-5.0591
X4.5276Y-2.5
X4.6276Y-2.5
X4.7276Y-2.5
X4.8276Y-2.5
X4.9276Y-2.5
X5.0276Y-2.5
X5.1276Y-2.5
X5.2276Y-2.5
X5.3276Y-2.5
X5.4276Y-2.5
T4
X4.7575Y-5.4118
X4.7575Y-5.5118
X4.8575Y-5.4118
X4.8575Y-5.5118
X4.9575Y-5.4118
X4.9575Y-5.5118
X5.0575Y-5.4118
X5.0575Y-5.5118
X5.1575Y-5.4118
X5.1575Y-5.5118
T0
M30
