G04 #@! TF.GenerationSoftware,KiCad,Pcbnew,5.0.2+dfsg1-1~bpo9+1*
G04 #@! TF.CreationDate,2020-01-13T16:50:13-08:00*
G04 #@! TF.ProjectId,default,64656661-756c-4742-9e6b-696361645f70,rev?*
G04 #@! TF.SameCoordinates,Original*
G04 #@! TF.FileFunction,Soldermask,Bot*
G04 #@! TF.FilePolarity,Negative*
%FSLAX46Y46*%
G04 Gerber Fmt 4.6, Leading zero omitted, Abs format (unit mm)*
G04 Created by KiCad (PCBNEW 5.0.2+dfsg1-1~bpo9+1) date Mon 13 Jan 2020 04:50:13 PM PST*
%MOMM*%
%LPD*%
G01*
G04 APERTURE LIST*
%ADD10C,0.100000*%
G04 APERTURE END LIST*
D10*
G36*
X182875256Y-145391298D02*
X182981579Y-145412447D01*
X183282042Y-145536903D01*
X183548852Y-145715180D01*
X183552454Y-145717587D01*
X183782413Y-145947546D01*
X183963098Y-146217960D01*
X184087553Y-146518422D01*
X184151000Y-146837389D01*
X184151000Y-147162611D01*
X184087553Y-147481578D01*
X183963098Y-147782040D01*
X183782413Y-148052454D01*
X183552454Y-148282413D01*
X183552451Y-148282415D01*
X183282042Y-148463097D01*
X182981579Y-148587553D01*
X182875256Y-148608702D01*
X182662611Y-148651000D01*
X182337389Y-148651000D01*
X182124744Y-148608702D01*
X182018421Y-148587553D01*
X181717958Y-148463097D01*
X181447549Y-148282415D01*
X181447546Y-148282413D01*
X181217587Y-148052454D01*
X181036902Y-147782040D01*
X180912447Y-147481578D01*
X180849000Y-147162611D01*
X180849000Y-146837389D01*
X180912447Y-146518422D01*
X181036902Y-146217960D01*
X181217587Y-145947546D01*
X181447546Y-145717587D01*
X181451148Y-145715180D01*
X181717958Y-145536903D01*
X182018421Y-145412447D01*
X182124744Y-145391298D01*
X182337389Y-145349000D01*
X182662611Y-145349000D01*
X182875256Y-145391298D01*
X182875256Y-145391298D01*
G37*
G36*
X179966995Y-119210525D02*
X180258358Y-119331212D01*
X180520578Y-119506422D01*
X180743578Y-119729422D01*
X180918788Y-119991642D01*
X181039475Y-120283005D01*
X181101000Y-120592315D01*
X181101000Y-120907685D01*
X181039475Y-121216995D01*
X180918788Y-121508358D01*
X180743578Y-121770578D01*
X180520578Y-121993578D01*
X180258358Y-122168788D01*
X179966995Y-122289475D01*
X179657685Y-122351000D01*
X179342315Y-122351000D01*
X179033005Y-122289475D01*
X178741642Y-122168788D01*
X178479422Y-121993578D01*
X178256422Y-121770578D01*
X178081212Y-121508358D01*
X177960525Y-121216995D01*
X177899000Y-120907685D01*
X177899000Y-120592315D01*
X177960525Y-120283005D01*
X178081212Y-119991642D01*
X178256422Y-119729422D01*
X178479422Y-119506422D01*
X178741642Y-119331212D01*
X179033005Y-119210525D01*
X179342315Y-119149000D01*
X179657685Y-119149000D01*
X179966995Y-119210525D01*
X179966995Y-119210525D01*
G37*
G36*
X173566995Y-119210525D02*
X173858358Y-119331212D01*
X174120578Y-119506422D01*
X174343578Y-119729422D01*
X174518788Y-119991642D01*
X174639475Y-120283005D01*
X174701000Y-120592315D01*
X174701000Y-120907685D01*
X174639475Y-121216995D01*
X174518788Y-121508358D01*
X174343578Y-121770578D01*
X174120578Y-121993578D01*
X173858358Y-122168788D01*
X173566995Y-122289475D01*
X173257685Y-122351000D01*
X172942315Y-122351000D01*
X172633005Y-122289475D01*
X172341642Y-122168788D01*
X172079422Y-121993578D01*
X171856422Y-121770578D01*
X171681212Y-121508358D01*
X171560525Y-121216995D01*
X171499000Y-120907685D01*
X171499000Y-120592315D01*
X171560525Y-120283005D01*
X171681212Y-119991642D01*
X171856422Y-119729422D01*
X172079422Y-119506422D01*
X172341642Y-119331212D01*
X172633005Y-119210525D01*
X172942315Y-119149000D01*
X173257685Y-119149000D01*
X173566995Y-119210525D01*
X173566995Y-119210525D01*
G37*
G36*
X167276995Y-119210525D02*
X167568358Y-119331212D01*
X167830578Y-119506422D01*
X168053578Y-119729422D01*
X168228788Y-119991642D01*
X168349475Y-120283005D01*
X168411000Y-120592315D01*
X168411000Y-120907685D01*
X168349475Y-121216995D01*
X168228788Y-121508358D01*
X168053578Y-121770578D01*
X167830578Y-121993578D01*
X167568358Y-122168788D01*
X167276995Y-122289475D01*
X166967685Y-122351000D01*
X166652315Y-122351000D01*
X166343005Y-122289475D01*
X166051642Y-122168788D01*
X165789422Y-121993578D01*
X165566422Y-121770578D01*
X165391212Y-121508358D01*
X165270525Y-121216995D01*
X165209000Y-120907685D01*
X165209000Y-120592315D01*
X165270525Y-120283005D01*
X165391212Y-119991642D01*
X165566422Y-119729422D01*
X165789422Y-119506422D01*
X166051642Y-119331212D01*
X166343005Y-119210525D01*
X166652315Y-119149000D01*
X166967685Y-119149000D01*
X167276995Y-119210525D01*
X167276995Y-119210525D01*
G37*
G36*
X160966995Y-119210525D02*
X161258358Y-119331212D01*
X161520578Y-119506422D01*
X161743578Y-119729422D01*
X161918788Y-119991642D01*
X162039475Y-120283005D01*
X162101000Y-120592315D01*
X162101000Y-120907685D01*
X162039475Y-121216995D01*
X161918788Y-121508358D01*
X161743578Y-121770578D01*
X161520578Y-121993578D01*
X161258358Y-122168788D01*
X160966995Y-122289475D01*
X160657685Y-122351000D01*
X160342315Y-122351000D01*
X160033005Y-122289475D01*
X159741642Y-122168788D01*
X159479422Y-121993578D01*
X159256422Y-121770578D01*
X159081212Y-121508358D01*
X158960525Y-121216995D01*
X158899000Y-120907685D01*
X158899000Y-120592315D01*
X158960525Y-120283005D01*
X159081212Y-119991642D01*
X159256422Y-119729422D01*
X159479422Y-119506422D01*
X159741642Y-119331212D01*
X160033005Y-119210525D01*
X160342315Y-119149000D01*
X160657685Y-119149000D01*
X160966995Y-119210525D01*
X160966995Y-119210525D01*
G37*
G36*
X179987921Y-110297056D02*
X180229515Y-110345112D01*
X180684668Y-110533643D01*
X181088841Y-110803703D01*
X181094297Y-110807349D01*
X181442651Y-111155703D01*
X181716358Y-111565334D01*
X181904888Y-112020486D01*
X182001000Y-112503672D01*
X182001000Y-112996328D01*
X181904888Y-113479514D01*
X181716358Y-113934666D01*
X181442651Y-114344297D01*
X181094297Y-114692651D01*
X181094294Y-114692653D01*
X180684668Y-114966357D01*
X180229515Y-115154888D01*
X179987921Y-115202944D01*
X179746328Y-115251000D01*
X179253672Y-115251000D01*
X179012079Y-115202944D01*
X178770485Y-115154888D01*
X178315332Y-114966357D01*
X177905706Y-114692653D01*
X177905703Y-114692651D01*
X177557349Y-114344297D01*
X177283642Y-113934666D01*
X177095112Y-113479514D01*
X176999000Y-112996328D01*
X176999000Y-112503672D01*
X177095112Y-112020486D01*
X177283642Y-111565334D01*
X177557349Y-111155703D01*
X177905703Y-110807349D01*
X177911159Y-110803703D01*
X178315332Y-110533643D01*
X178770485Y-110345112D01*
X179012079Y-110297056D01*
X179253672Y-110249000D01*
X179746328Y-110249000D01*
X179987921Y-110297056D01*
X179987921Y-110297056D01*
G37*
G36*
X160987921Y-110297056D02*
X161229515Y-110345112D01*
X161684668Y-110533643D01*
X162088841Y-110803703D01*
X162094297Y-110807349D01*
X162442651Y-111155703D01*
X162716358Y-111565334D01*
X162904888Y-112020486D01*
X163001000Y-112503672D01*
X163001000Y-112996328D01*
X162904888Y-113479514D01*
X162716358Y-113934666D01*
X162442651Y-114344297D01*
X162094297Y-114692651D01*
X162094294Y-114692653D01*
X161684668Y-114966357D01*
X161229515Y-115154888D01*
X160987921Y-115202944D01*
X160746328Y-115251000D01*
X160253672Y-115251000D01*
X160012079Y-115202944D01*
X159770485Y-115154888D01*
X159315332Y-114966357D01*
X158905706Y-114692653D01*
X158905703Y-114692651D01*
X158557349Y-114344297D01*
X158283642Y-113934666D01*
X158095112Y-113479514D01*
X157999000Y-112996328D01*
X157999000Y-112503672D01*
X158095112Y-112020486D01*
X158283642Y-111565334D01*
X158557349Y-111155703D01*
X158905703Y-110807349D01*
X158911159Y-110803703D01*
X159315332Y-110533643D01*
X159770485Y-110345112D01*
X160012079Y-110297056D01*
X160253672Y-110249000D01*
X160746328Y-110249000D01*
X160987921Y-110297056D01*
X160987921Y-110297056D01*
G37*
G36*
X161202520Y-94218192D02*
X161550373Y-94287384D01*
X161821823Y-94399822D01*
X162205712Y-94558834D01*
X162795507Y-94952922D01*
X163297078Y-95454493D01*
X163691166Y-96044288D01*
X163962616Y-96699628D01*
X164101000Y-97395331D01*
X164101000Y-98104669D01*
X163962616Y-98800372D01*
X163691166Y-99455712D01*
X163297078Y-100045507D01*
X162795507Y-100547078D01*
X162205712Y-100941166D01*
X161821823Y-101100178D01*
X161550373Y-101212616D01*
X160854669Y-101351000D01*
X160145331Y-101351000D01*
X159449627Y-101212616D01*
X159178177Y-101100178D01*
X158794288Y-100941166D01*
X158204493Y-100547078D01*
X157702922Y-100045507D01*
X157308834Y-99455712D01*
X157037384Y-98800372D01*
X156899000Y-98104669D01*
X156899000Y-97395331D01*
X157037384Y-96699628D01*
X157308834Y-96044288D01*
X157702922Y-95454493D01*
X158204493Y-94952922D01*
X158794288Y-94558834D01*
X159178177Y-94399822D01*
X159449627Y-94287384D01*
X160145331Y-94149000D01*
X160854669Y-94149000D01*
X161202520Y-94218192D01*
X161202520Y-94218192D01*
G37*
G36*
X180202520Y-94218192D02*
X180550373Y-94287384D01*
X180821823Y-94399822D01*
X181205712Y-94558834D01*
X181795507Y-94952922D01*
X182297078Y-95454493D01*
X182691166Y-96044288D01*
X182962616Y-96699628D01*
X183101000Y-97395331D01*
X183101000Y-98104669D01*
X182962616Y-98800372D01*
X182691166Y-99455712D01*
X182297078Y-100045507D01*
X181795507Y-100547078D01*
X181205712Y-100941166D01*
X180821823Y-101100178D01*
X180550373Y-101212616D01*
X179854669Y-101351000D01*
X179145331Y-101351000D01*
X178449627Y-101212616D01*
X178178177Y-101100178D01*
X177794288Y-100941166D01*
X177204493Y-100547078D01*
X176702922Y-100045507D01*
X176308834Y-99455712D01*
X176037384Y-98800372D01*
X175899000Y-98104669D01*
X175899000Y-97395331D01*
X176037384Y-96699628D01*
X176308834Y-96044288D01*
X176702922Y-95454493D01*
X177204493Y-94952922D01*
X177794288Y-94558834D01*
X178178177Y-94399822D01*
X178449627Y-94287384D01*
X179145331Y-94149000D01*
X179854669Y-94149000D01*
X180202520Y-94218192D01*
X180202520Y-94218192D01*
G37*
G36*
X161550373Y-74287384D02*
X161821823Y-74399822D01*
X162205712Y-74558834D01*
X162795507Y-74952922D01*
X163297078Y-75454493D01*
X163691166Y-76044288D01*
X163962616Y-76699628D01*
X164101000Y-77395331D01*
X164101000Y-78104669D01*
X163962616Y-78800372D01*
X163691166Y-79455712D01*
X163297078Y-80045507D01*
X162795507Y-80547078D01*
X162205712Y-80941166D01*
X161821823Y-81100178D01*
X161550373Y-81212616D01*
X160854669Y-81351000D01*
X160145331Y-81351000D01*
X159449627Y-81212616D01*
X159178177Y-81100178D01*
X158794288Y-80941166D01*
X158204493Y-80547078D01*
X157702922Y-80045507D01*
X157308834Y-79455712D01*
X157037384Y-78800372D01*
X156899000Y-78104669D01*
X156899000Y-77395331D01*
X157037384Y-76699628D01*
X157308834Y-76044288D01*
X157702922Y-75454493D01*
X158204493Y-74952922D01*
X158794288Y-74558834D01*
X159178177Y-74399822D01*
X159449627Y-74287384D01*
X160145331Y-74149000D01*
X160854669Y-74149000D01*
X161550373Y-74287384D01*
X161550373Y-74287384D01*
G37*
G36*
X180550373Y-74287384D02*
X180821823Y-74399822D01*
X181205712Y-74558834D01*
X181795507Y-74952922D01*
X182297078Y-75454493D01*
X182691166Y-76044288D01*
X182962616Y-76699628D01*
X183101000Y-77395331D01*
X183101000Y-78104669D01*
X182962616Y-78800372D01*
X182691166Y-79455712D01*
X182297078Y-80045507D01*
X181795507Y-80547078D01*
X181205712Y-80941166D01*
X180821823Y-81100178D01*
X180550373Y-81212616D01*
X179854669Y-81351000D01*
X179145331Y-81351000D01*
X178449627Y-81212616D01*
X178178177Y-81100178D01*
X177794288Y-80941166D01*
X177204493Y-80547078D01*
X176702922Y-80045507D01*
X176308834Y-79455712D01*
X176037384Y-78800372D01*
X175899000Y-78104669D01*
X175899000Y-77395331D01*
X176037384Y-76699628D01*
X176308834Y-76044288D01*
X176702922Y-75454493D01*
X177204493Y-74952922D01*
X177794288Y-74558834D01*
X178178177Y-74399822D01*
X178449627Y-74287384D01*
X179145331Y-74149000D01*
X179854669Y-74149000D01*
X180550373Y-74287384D01*
X180550373Y-74287384D01*
G37*
G36*
X161104975Y-54708585D02*
X161404528Y-54768170D01*
X161638287Y-54864996D01*
X161968873Y-55001929D01*
X162476775Y-55341298D01*
X162908702Y-55773225D01*
X163248071Y-56281127D01*
X163481830Y-56845473D01*
X163601000Y-57444577D01*
X163601000Y-58055423D01*
X163481830Y-58654527D01*
X163248071Y-59218873D01*
X162908702Y-59726775D01*
X162476775Y-60158702D01*
X161968873Y-60498071D01*
X161638287Y-60635004D01*
X161404528Y-60731830D01*
X161104975Y-60791415D01*
X160805423Y-60851000D01*
X160194577Y-60851000D01*
X159895025Y-60791415D01*
X159595472Y-60731830D01*
X159361713Y-60635004D01*
X159031127Y-60498071D01*
X158523225Y-60158702D01*
X158091298Y-59726775D01*
X157751929Y-59218873D01*
X157518170Y-58654527D01*
X157399000Y-58055423D01*
X157399000Y-57444577D01*
X157518170Y-56845473D01*
X157751929Y-56281127D01*
X158091298Y-55773225D01*
X158523225Y-55341298D01*
X159031127Y-55001929D01*
X159361713Y-54864996D01*
X159595472Y-54768170D01*
X159895025Y-54708585D01*
X160194577Y-54649000D01*
X160805423Y-54649000D01*
X161104975Y-54708585D01*
X161104975Y-54708585D01*
G37*
G36*
X180104975Y-54708585D02*
X180404528Y-54768170D01*
X180638287Y-54864996D01*
X180968873Y-55001929D01*
X181476775Y-55341298D01*
X181908702Y-55773225D01*
X182248071Y-56281127D01*
X182481830Y-56845473D01*
X182601000Y-57444577D01*
X182601000Y-58055423D01*
X182481830Y-58654527D01*
X182248071Y-59218873D01*
X181908702Y-59726775D01*
X181476775Y-60158702D01*
X180968873Y-60498071D01*
X180638287Y-60635004D01*
X180404528Y-60731830D01*
X180104975Y-60791415D01*
X179805423Y-60851000D01*
X179194577Y-60851000D01*
X178895025Y-60791415D01*
X178595472Y-60731830D01*
X178361713Y-60635004D01*
X178031127Y-60498071D01*
X177523225Y-60158702D01*
X177091298Y-59726775D01*
X176751929Y-59218873D01*
X176518170Y-58654527D01*
X176399000Y-58055423D01*
X176399000Y-57444577D01*
X176518170Y-56845473D01*
X176751929Y-56281127D01*
X177091298Y-55773225D01*
X177523225Y-55341298D01*
X178031127Y-55001929D01*
X178361713Y-54864996D01*
X178595472Y-54768170D01*
X178895025Y-54708585D01*
X179194577Y-54649000D01*
X179805423Y-54649000D01*
X180104975Y-54708585D01*
X180104975Y-54708585D01*
G37*
G36*
X157875256Y-22891298D02*
X157981579Y-22912447D01*
X158282042Y-23036903D01*
X158548852Y-23215180D01*
X158552454Y-23217587D01*
X158782413Y-23447546D01*
X158963098Y-23717960D01*
X159087553Y-24018422D01*
X159151000Y-24337389D01*
X159151000Y-24662611D01*
X159087553Y-24981578D01*
X158963098Y-25282040D01*
X158782413Y-25552454D01*
X158552454Y-25782413D01*
X158552451Y-25782415D01*
X158282042Y-25963097D01*
X157981579Y-26087553D01*
X157875256Y-26108702D01*
X157662611Y-26151000D01*
X157337389Y-26151000D01*
X157124744Y-26108702D01*
X157018421Y-26087553D01*
X156717958Y-25963097D01*
X156447549Y-25782415D01*
X156447546Y-25782413D01*
X156217587Y-25552454D01*
X156036902Y-25282040D01*
X155912447Y-24981578D01*
X155849000Y-24662611D01*
X155849000Y-24337389D01*
X155912447Y-24018422D01*
X156036902Y-23717960D01*
X156217587Y-23447546D01*
X156447546Y-23217587D01*
X156451148Y-23215180D01*
X156717958Y-23036903D01*
X157018421Y-22912447D01*
X157124744Y-22891298D01*
X157337389Y-22849000D01*
X157662611Y-22849000D01*
X157875256Y-22891298D01*
X157875256Y-22891298D01*
G37*
M02*
