G04 #@! TF.GenerationSoftware,KiCad,Pcbnew,5.0.2+dfsg1-1~bpo9+1*
G04 #@! TF.CreationDate,2019-04-25T12:37:05-07:00*
G04 #@! TF.ProjectId,HW,48572e6b-6963-4616-945f-706362585858,rev?*
G04 #@! TF.SameCoordinates,Original*
G04 #@! TF.FileFunction,Paste,Top*
G04 #@! TF.FilePolarity,Positive*
%FSLAX46Y46*%
G04 Gerber Fmt 4.6, Leading zero omitted, Abs format (unit mm)*
G04 Created by KiCad (PCBNEW 5.0.2+dfsg1-1~bpo9+1) date Thu 25 Apr 2019 12:37:05 PM PDT*
%MOMM*%
%LPD*%
G01*
G04 APERTURE LIST*
%ADD10C,0.100000*%
%ADD11C,0.975000*%
G04 APERTURE END LIST*
D10*
G04 #@! TO.C,D1*
G36*
X117480142Y-138576174D02*
X117503803Y-138579684D01*
X117527007Y-138585496D01*
X117549529Y-138593554D01*
X117571153Y-138603782D01*
X117591670Y-138616079D01*
X117610883Y-138630329D01*
X117628607Y-138646393D01*
X117644671Y-138664117D01*
X117658921Y-138683330D01*
X117671218Y-138703847D01*
X117681446Y-138725471D01*
X117689504Y-138747993D01*
X117695316Y-138771197D01*
X117698826Y-138794858D01*
X117700000Y-138818750D01*
X117700000Y-139306250D01*
X117698826Y-139330142D01*
X117695316Y-139353803D01*
X117689504Y-139377007D01*
X117681446Y-139399529D01*
X117671218Y-139421153D01*
X117658921Y-139441670D01*
X117644671Y-139460883D01*
X117628607Y-139478607D01*
X117610883Y-139494671D01*
X117591670Y-139508921D01*
X117571153Y-139521218D01*
X117549529Y-139531446D01*
X117527007Y-139539504D01*
X117503803Y-139545316D01*
X117480142Y-139548826D01*
X117456250Y-139550000D01*
X116543750Y-139550000D01*
X116519858Y-139548826D01*
X116496197Y-139545316D01*
X116472993Y-139539504D01*
X116450471Y-139531446D01*
X116428847Y-139521218D01*
X116408330Y-139508921D01*
X116389117Y-139494671D01*
X116371393Y-139478607D01*
X116355329Y-139460883D01*
X116341079Y-139441670D01*
X116328782Y-139421153D01*
X116318554Y-139399529D01*
X116310496Y-139377007D01*
X116304684Y-139353803D01*
X116301174Y-139330142D01*
X116300000Y-139306250D01*
X116300000Y-138818750D01*
X116301174Y-138794858D01*
X116304684Y-138771197D01*
X116310496Y-138747993D01*
X116318554Y-138725471D01*
X116328782Y-138703847D01*
X116341079Y-138683330D01*
X116355329Y-138664117D01*
X116371393Y-138646393D01*
X116389117Y-138630329D01*
X116408330Y-138616079D01*
X116428847Y-138603782D01*
X116450471Y-138593554D01*
X116472993Y-138585496D01*
X116496197Y-138579684D01*
X116519858Y-138576174D01*
X116543750Y-138575000D01*
X117456250Y-138575000D01*
X117480142Y-138576174D01*
X117480142Y-138576174D01*
G37*
D11*
X117000000Y-139062500D03*
D10*
G36*
X117480142Y-140451174D02*
X117503803Y-140454684D01*
X117527007Y-140460496D01*
X117549529Y-140468554D01*
X117571153Y-140478782D01*
X117591670Y-140491079D01*
X117610883Y-140505329D01*
X117628607Y-140521393D01*
X117644671Y-140539117D01*
X117658921Y-140558330D01*
X117671218Y-140578847D01*
X117681446Y-140600471D01*
X117689504Y-140622993D01*
X117695316Y-140646197D01*
X117698826Y-140669858D01*
X117700000Y-140693750D01*
X117700000Y-141181250D01*
X117698826Y-141205142D01*
X117695316Y-141228803D01*
X117689504Y-141252007D01*
X117681446Y-141274529D01*
X117671218Y-141296153D01*
X117658921Y-141316670D01*
X117644671Y-141335883D01*
X117628607Y-141353607D01*
X117610883Y-141369671D01*
X117591670Y-141383921D01*
X117571153Y-141396218D01*
X117549529Y-141406446D01*
X117527007Y-141414504D01*
X117503803Y-141420316D01*
X117480142Y-141423826D01*
X117456250Y-141425000D01*
X116543750Y-141425000D01*
X116519858Y-141423826D01*
X116496197Y-141420316D01*
X116472993Y-141414504D01*
X116450471Y-141406446D01*
X116428847Y-141396218D01*
X116408330Y-141383921D01*
X116389117Y-141369671D01*
X116371393Y-141353607D01*
X116355329Y-141335883D01*
X116341079Y-141316670D01*
X116328782Y-141296153D01*
X116318554Y-141274529D01*
X116310496Y-141252007D01*
X116304684Y-141228803D01*
X116301174Y-141205142D01*
X116300000Y-141181250D01*
X116300000Y-140693750D01*
X116301174Y-140669858D01*
X116304684Y-140646197D01*
X116310496Y-140622993D01*
X116318554Y-140600471D01*
X116328782Y-140578847D01*
X116341079Y-140558330D01*
X116355329Y-140539117D01*
X116371393Y-140521393D01*
X116389117Y-140505329D01*
X116408330Y-140491079D01*
X116428847Y-140478782D01*
X116450471Y-140468554D01*
X116472993Y-140460496D01*
X116496197Y-140454684D01*
X116519858Y-140451174D01*
X116543750Y-140450000D01*
X117456250Y-140450000D01*
X117480142Y-140451174D01*
X117480142Y-140451174D01*
G37*
D11*
X117000000Y-140937500D03*
G04 #@! TD*
D10*
G04 #@! TO.C,D3*
G36*
X130080142Y-138576174D02*
X130103803Y-138579684D01*
X130127007Y-138585496D01*
X130149529Y-138593554D01*
X130171153Y-138603782D01*
X130191670Y-138616079D01*
X130210883Y-138630329D01*
X130228607Y-138646393D01*
X130244671Y-138664117D01*
X130258921Y-138683330D01*
X130271218Y-138703847D01*
X130281446Y-138725471D01*
X130289504Y-138747993D01*
X130295316Y-138771197D01*
X130298826Y-138794858D01*
X130300000Y-138818750D01*
X130300000Y-139306250D01*
X130298826Y-139330142D01*
X130295316Y-139353803D01*
X130289504Y-139377007D01*
X130281446Y-139399529D01*
X130271218Y-139421153D01*
X130258921Y-139441670D01*
X130244671Y-139460883D01*
X130228607Y-139478607D01*
X130210883Y-139494671D01*
X130191670Y-139508921D01*
X130171153Y-139521218D01*
X130149529Y-139531446D01*
X130127007Y-139539504D01*
X130103803Y-139545316D01*
X130080142Y-139548826D01*
X130056250Y-139550000D01*
X129143750Y-139550000D01*
X129119858Y-139548826D01*
X129096197Y-139545316D01*
X129072993Y-139539504D01*
X129050471Y-139531446D01*
X129028847Y-139521218D01*
X129008330Y-139508921D01*
X128989117Y-139494671D01*
X128971393Y-139478607D01*
X128955329Y-139460883D01*
X128941079Y-139441670D01*
X128928782Y-139421153D01*
X128918554Y-139399529D01*
X128910496Y-139377007D01*
X128904684Y-139353803D01*
X128901174Y-139330142D01*
X128900000Y-139306250D01*
X128900000Y-138818750D01*
X128901174Y-138794858D01*
X128904684Y-138771197D01*
X128910496Y-138747993D01*
X128918554Y-138725471D01*
X128928782Y-138703847D01*
X128941079Y-138683330D01*
X128955329Y-138664117D01*
X128971393Y-138646393D01*
X128989117Y-138630329D01*
X129008330Y-138616079D01*
X129028847Y-138603782D01*
X129050471Y-138593554D01*
X129072993Y-138585496D01*
X129096197Y-138579684D01*
X129119858Y-138576174D01*
X129143750Y-138575000D01*
X130056250Y-138575000D01*
X130080142Y-138576174D01*
X130080142Y-138576174D01*
G37*
D11*
X129600000Y-139062500D03*
D10*
G36*
X130080142Y-140451174D02*
X130103803Y-140454684D01*
X130127007Y-140460496D01*
X130149529Y-140468554D01*
X130171153Y-140478782D01*
X130191670Y-140491079D01*
X130210883Y-140505329D01*
X130228607Y-140521393D01*
X130244671Y-140539117D01*
X130258921Y-140558330D01*
X130271218Y-140578847D01*
X130281446Y-140600471D01*
X130289504Y-140622993D01*
X130295316Y-140646197D01*
X130298826Y-140669858D01*
X130300000Y-140693750D01*
X130300000Y-141181250D01*
X130298826Y-141205142D01*
X130295316Y-141228803D01*
X130289504Y-141252007D01*
X130281446Y-141274529D01*
X130271218Y-141296153D01*
X130258921Y-141316670D01*
X130244671Y-141335883D01*
X130228607Y-141353607D01*
X130210883Y-141369671D01*
X130191670Y-141383921D01*
X130171153Y-141396218D01*
X130149529Y-141406446D01*
X130127007Y-141414504D01*
X130103803Y-141420316D01*
X130080142Y-141423826D01*
X130056250Y-141425000D01*
X129143750Y-141425000D01*
X129119858Y-141423826D01*
X129096197Y-141420316D01*
X129072993Y-141414504D01*
X129050471Y-141406446D01*
X129028847Y-141396218D01*
X129008330Y-141383921D01*
X128989117Y-141369671D01*
X128971393Y-141353607D01*
X128955329Y-141335883D01*
X128941079Y-141316670D01*
X128928782Y-141296153D01*
X128918554Y-141274529D01*
X128910496Y-141252007D01*
X128904684Y-141228803D01*
X128901174Y-141205142D01*
X128900000Y-141181250D01*
X128900000Y-140693750D01*
X128901174Y-140669858D01*
X128904684Y-140646197D01*
X128910496Y-140622993D01*
X128918554Y-140600471D01*
X128928782Y-140578847D01*
X128941079Y-140558330D01*
X128955329Y-140539117D01*
X128971393Y-140521393D01*
X128989117Y-140505329D01*
X129008330Y-140491079D01*
X129028847Y-140478782D01*
X129050471Y-140468554D01*
X129072993Y-140460496D01*
X129096197Y-140454684D01*
X129119858Y-140451174D01*
X129143750Y-140450000D01*
X130056250Y-140450000D01*
X130080142Y-140451174D01*
X130080142Y-140451174D01*
G37*
D11*
X129600000Y-140937500D03*
G04 #@! TD*
D10*
G04 #@! TO.C,D4*
G36*
X136480142Y-138576174D02*
X136503803Y-138579684D01*
X136527007Y-138585496D01*
X136549529Y-138593554D01*
X136571153Y-138603782D01*
X136591670Y-138616079D01*
X136610883Y-138630329D01*
X136628607Y-138646393D01*
X136644671Y-138664117D01*
X136658921Y-138683330D01*
X136671218Y-138703847D01*
X136681446Y-138725471D01*
X136689504Y-138747993D01*
X136695316Y-138771197D01*
X136698826Y-138794858D01*
X136700000Y-138818750D01*
X136700000Y-139306250D01*
X136698826Y-139330142D01*
X136695316Y-139353803D01*
X136689504Y-139377007D01*
X136681446Y-139399529D01*
X136671218Y-139421153D01*
X136658921Y-139441670D01*
X136644671Y-139460883D01*
X136628607Y-139478607D01*
X136610883Y-139494671D01*
X136591670Y-139508921D01*
X136571153Y-139521218D01*
X136549529Y-139531446D01*
X136527007Y-139539504D01*
X136503803Y-139545316D01*
X136480142Y-139548826D01*
X136456250Y-139550000D01*
X135543750Y-139550000D01*
X135519858Y-139548826D01*
X135496197Y-139545316D01*
X135472993Y-139539504D01*
X135450471Y-139531446D01*
X135428847Y-139521218D01*
X135408330Y-139508921D01*
X135389117Y-139494671D01*
X135371393Y-139478607D01*
X135355329Y-139460883D01*
X135341079Y-139441670D01*
X135328782Y-139421153D01*
X135318554Y-139399529D01*
X135310496Y-139377007D01*
X135304684Y-139353803D01*
X135301174Y-139330142D01*
X135300000Y-139306250D01*
X135300000Y-138818750D01*
X135301174Y-138794858D01*
X135304684Y-138771197D01*
X135310496Y-138747993D01*
X135318554Y-138725471D01*
X135328782Y-138703847D01*
X135341079Y-138683330D01*
X135355329Y-138664117D01*
X135371393Y-138646393D01*
X135389117Y-138630329D01*
X135408330Y-138616079D01*
X135428847Y-138603782D01*
X135450471Y-138593554D01*
X135472993Y-138585496D01*
X135496197Y-138579684D01*
X135519858Y-138576174D01*
X135543750Y-138575000D01*
X136456250Y-138575000D01*
X136480142Y-138576174D01*
X136480142Y-138576174D01*
G37*
D11*
X136000000Y-139062500D03*
D10*
G36*
X136480142Y-140451174D02*
X136503803Y-140454684D01*
X136527007Y-140460496D01*
X136549529Y-140468554D01*
X136571153Y-140478782D01*
X136591670Y-140491079D01*
X136610883Y-140505329D01*
X136628607Y-140521393D01*
X136644671Y-140539117D01*
X136658921Y-140558330D01*
X136671218Y-140578847D01*
X136681446Y-140600471D01*
X136689504Y-140622993D01*
X136695316Y-140646197D01*
X136698826Y-140669858D01*
X136700000Y-140693750D01*
X136700000Y-141181250D01*
X136698826Y-141205142D01*
X136695316Y-141228803D01*
X136689504Y-141252007D01*
X136681446Y-141274529D01*
X136671218Y-141296153D01*
X136658921Y-141316670D01*
X136644671Y-141335883D01*
X136628607Y-141353607D01*
X136610883Y-141369671D01*
X136591670Y-141383921D01*
X136571153Y-141396218D01*
X136549529Y-141406446D01*
X136527007Y-141414504D01*
X136503803Y-141420316D01*
X136480142Y-141423826D01*
X136456250Y-141425000D01*
X135543750Y-141425000D01*
X135519858Y-141423826D01*
X135496197Y-141420316D01*
X135472993Y-141414504D01*
X135450471Y-141406446D01*
X135428847Y-141396218D01*
X135408330Y-141383921D01*
X135389117Y-141369671D01*
X135371393Y-141353607D01*
X135355329Y-141335883D01*
X135341079Y-141316670D01*
X135328782Y-141296153D01*
X135318554Y-141274529D01*
X135310496Y-141252007D01*
X135304684Y-141228803D01*
X135301174Y-141205142D01*
X135300000Y-141181250D01*
X135300000Y-140693750D01*
X135301174Y-140669858D01*
X135304684Y-140646197D01*
X135310496Y-140622993D01*
X135318554Y-140600471D01*
X135328782Y-140578847D01*
X135341079Y-140558330D01*
X135355329Y-140539117D01*
X135371393Y-140521393D01*
X135389117Y-140505329D01*
X135408330Y-140491079D01*
X135428847Y-140478782D01*
X135450471Y-140468554D01*
X135472993Y-140460496D01*
X135496197Y-140454684D01*
X135519858Y-140451174D01*
X135543750Y-140450000D01*
X136456250Y-140450000D01*
X136480142Y-140451174D01*
X136480142Y-140451174D01*
G37*
D11*
X136000000Y-140937500D03*
G04 #@! TD*
D10*
G04 #@! TO.C,D2*
G36*
X123780142Y-138576174D02*
X123803803Y-138579684D01*
X123827007Y-138585496D01*
X123849529Y-138593554D01*
X123871153Y-138603782D01*
X123891670Y-138616079D01*
X123910883Y-138630329D01*
X123928607Y-138646393D01*
X123944671Y-138664117D01*
X123958921Y-138683330D01*
X123971218Y-138703847D01*
X123981446Y-138725471D01*
X123989504Y-138747993D01*
X123995316Y-138771197D01*
X123998826Y-138794858D01*
X124000000Y-138818750D01*
X124000000Y-139306250D01*
X123998826Y-139330142D01*
X123995316Y-139353803D01*
X123989504Y-139377007D01*
X123981446Y-139399529D01*
X123971218Y-139421153D01*
X123958921Y-139441670D01*
X123944671Y-139460883D01*
X123928607Y-139478607D01*
X123910883Y-139494671D01*
X123891670Y-139508921D01*
X123871153Y-139521218D01*
X123849529Y-139531446D01*
X123827007Y-139539504D01*
X123803803Y-139545316D01*
X123780142Y-139548826D01*
X123756250Y-139550000D01*
X122843750Y-139550000D01*
X122819858Y-139548826D01*
X122796197Y-139545316D01*
X122772993Y-139539504D01*
X122750471Y-139531446D01*
X122728847Y-139521218D01*
X122708330Y-139508921D01*
X122689117Y-139494671D01*
X122671393Y-139478607D01*
X122655329Y-139460883D01*
X122641079Y-139441670D01*
X122628782Y-139421153D01*
X122618554Y-139399529D01*
X122610496Y-139377007D01*
X122604684Y-139353803D01*
X122601174Y-139330142D01*
X122600000Y-139306250D01*
X122600000Y-138818750D01*
X122601174Y-138794858D01*
X122604684Y-138771197D01*
X122610496Y-138747993D01*
X122618554Y-138725471D01*
X122628782Y-138703847D01*
X122641079Y-138683330D01*
X122655329Y-138664117D01*
X122671393Y-138646393D01*
X122689117Y-138630329D01*
X122708330Y-138616079D01*
X122728847Y-138603782D01*
X122750471Y-138593554D01*
X122772993Y-138585496D01*
X122796197Y-138579684D01*
X122819858Y-138576174D01*
X122843750Y-138575000D01*
X123756250Y-138575000D01*
X123780142Y-138576174D01*
X123780142Y-138576174D01*
G37*
D11*
X123300000Y-139062500D03*
D10*
G36*
X123780142Y-140451174D02*
X123803803Y-140454684D01*
X123827007Y-140460496D01*
X123849529Y-140468554D01*
X123871153Y-140478782D01*
X123891670Y-140491079D01*
X123910883Y-140505329D01*
X123928607Y-140521393D01*
X123944671Y-140539117D01*
X123958921Y-140558330D01*
X123971218Y-140578847D01*
X123981446Y-140600471D01*
X123989504Y-140622993D01*
X123995316Y-140646197D01*
X123998826Y-140669858D01*
X124000000Y-140693750D01*
X124000000Y-141181250D01*
X123998826Y-141205142D01*
X123995316Y-141228803D01*
X123989504Y-141252007D01*
X123981446Y-141274529D01*
X123971218Y-141296153D01*
X123958921Y-141316670D01*
X123944671Y-141335883D01*
X123928607Y-141353607D01*
X123910883Y-141369671D01*
X123891670Y-141383921D01*
X123871153Y-141396218D01*
X123849529Y-141406446D01*
X123827007Y-141414504D01*
X123803803Y-141420316D01*
X123780142Y-141423826D01*
X123756250Y-141425000D01*
X122843750Y-141425000D01*
X122819858Y-141423826D01*
X122796197Y-141420316D01*
X122772993Y-141414504D01*
X122750471Y-141406446D01*
X122728847Y-141396218D01*
X122708330Y-141383921D01*
X122689117Y-141369671D01*
X122671393Y-141353607D01*
X122655329Y-141335883D01*
X122641079Y-141316670D01*
X122628782Y-141296153D01*
X122618554Y-141274529D01*
X122610496Y-141252007D01*
X122604684Y-141228803D01*
X122601174Y-141205142D01*
X122600000Y-141181250D01*
X122600000Y-140693750D01*
X122601174Y-140669858D01*
X122604684Y-140646197D01*
X122610496Y-140622993D01*
X122618554Y-140600471D01*
X122628782Y-140578847D01*
X122641079Y-140558330D01*
X122655329Y-140539117D01*
X122671393Y-140521393D01*
X122689117Y-140505329D01*
X122708330Y-140491079D01*
X122728847Y-140478782D01*
X122750471Y-140468554D01*
X122772993Y-140460496D01*
X122796197Y-140454684D01*
X122819858Y-140451174D01*
X122843750Y-140450000D01*
X123756250Y-140450000D01*
X123780142Y-140451174D01*
X123780142Y-140451174D01*
G37*
D11*
X123300000Y-140937500D03*
G04 #@! TD*
D10*
G04 #@! TO.C,R4*
G36*
X136205142Y-136501174D02*
X136228803Y-136504684D01*
X136252007Y-136510496D01*
X136274529Y-136518554D01*
X136296153Y-136528782D01*
X136316670Y-136541079D01*
X136335883Y-136555329D01*
X136353607Y-136571393D01*
X136369671Y-136589117D01*
X136383921Y-136608330D01*
X136396218Y-136628847D01*
X136406446Y-136650471D01*
X136414504Y-136672993D01*
X136420316Y-136696197D01*
X136423826Y-136719858D01*
X136425000Y-136743750D01*
X136425000Y-137656250D01*
X136423826Y-137680142D01*
X136420316Y-137703803D01*
X136414504Y-137727007D01*
X136406446Y-137749529D01*
X136396218Y-137771153D01*
X136383921Y-137791670D01*
X136369671Y-137810883D01*
X136353607Y-137828607D01*
X136335883Y-137844671D01*
X136316670Y-137858921D01*
X136296153Y-137871218D01*
X136274529Y-137881446D01*
X136252007Y-137889504D01*
X136228803Y-137895316D01*
X136205142Y-137898826D01*
X136181250Y-137900000D01*
X135693750Y-137900000D01*
X135669858Y-137898826D01*
X135646197Y-137895316D01*
X135622993Y-137889504D01*
X135600471Y-137881446D01*
X135578847Y-137871218D01*
X135558330Y-137858921D01*
X135539117Y-137844671D01*
X135521393Y-137828607D01*
X135505329Y-137810883D01*
X135491079Y-137791670D01*
X135478782Y-137771153D01*
X135468554Y-137749529D01*
X135460496Y-137727007D01*
X135454684Y-137703803D01*
X135451174Y-137680142D01*
X135450000Y-137656250D01*
X135450000Y-136743750D01*
X135451174Y-136719858D01*
X135454684Y-136696197D01*
X135460496Y-136672993D01*
X135468554Y-136650471D01*
X135478782Y-136628847D01*
X135491079Y-136608330D01*
X135505329Y-136589117D01*
X135521393Y-136571393D01*
X135539117Y-136555329D01*
X135558330Y-136541079D01*
X135578847Y-136528782D01*
X135600471Y-136518554D01*
X135622993Y-136510496D01*
X135646197Y-136504684D01*
X135669858Y-136501174D01*
X135693750Y-136500000D01*
X136181250Y-136500000D01*
X136205142Y-136501174D01*
X136205142Y-136501174D01*
G37*
D11*
X135937500Y-137200000D03*
D10*
G36*
X134330142Y-136501174D02*
X134353803Y-136504684D01*
X134377007Y-136510496D01*
X134399529Y-136518554D01*
X134421153Y-136528782D01*
X134441670Y-136541079D01*
X134460883Y-136555329D01*
X134478607Y-136571393D01*
X134494671Y-136589117D01*
X134508921Y-136608330D01*
X134521218Y-136628847D01*
X134531446Y-136650471D01*
X134539504Y-136672993D01*
X134545316Y-136696197D01*
X134548826Y-136719858D01*
X134550000Y-136743750D01*
X134550000Y-137656250D01*
X134548826Y-137680142D01*
X134545316Y-137703803D01*
X134539504Y-137727007D01*
X134531446Y-137749529D01*
X134521218Y-137771153D01*
X134508921Y-137791670D01*
X134494671Y-137810883D01*
X134478607Y-137828607D01*
X134460883Y-137844671D01*
X134441670Y-137858921D01*
X134421153Y-137871218D01*
X134399529Y-137881446D01*
X134377007Y-137889504D01*
X134353803Y-137895316D01*
X134330142Y-137898826D01*
X134306250Y-137900000D01*
X133818750Y-137900000D01*
X133794858Y-137898826D01*
X133771197Y-137895316D01*
X133747993Y-137889504D01*
X133725471Y-137881446D01*
X133703847Y-137871218D01*
X133683330Y-137858921D01*
X133664117Y-137844671D01*
X133646393Y-137828607D01*
X133630329Y-137810883D01*
X133616079Y-137791670D01*
X133603782Y-137771153D01*
X133593554Y-137749529D01*
X133585496Y-137727007D01*
X133579684Y-137703803D01*
X133576174Y-137680142D01*
X133575000Y-137656250D01*
X133575000Y-136743750D01*
X133576174Y-136719858D01*
X133579684Y-136696197D01*
X133585496Y-136672993D01*
X133593554Y-136650471D01*
X133603782Y-136628847D01*
X133616079Y-136608330D01*
X133630329Y-136589117D01*
X133646393Y-136571393D01*
X133664117Y-136555329D01*
X133683330Y-136541079D01*
X133703847Y-136528782D01*
X133725471Y-136518554D01*
X133747993Y-136510496D01*
X133771197Y-136504684D01*
X133794858Y-136501174D01*
X133818750Y-136500000D01*
X134306250Y-136500000D01*
X134330142Y-136501174D01*
X134330142Y-136501174D01*
G37*
D11*
X134062500Y-137200000D03*
G04 #@! TD*
D10*
G04 #@! TO.C,R1*
G36*
X117130142Y-136301174D02*
X117153803Y-136304684D01*
X117177007Y-136310496D01*
X117199529Y-136318554D01*
X117221153Y-136328782D01*
X117241670Y-136341079D01*
X117260883Y-136355329D01*
X117278607Y-136371393D01*
X117294671Y-136389117D01*
X117308921Y-136408330D01*
X117321218Y-136428847D01*
X117331446Y-136450471D01*
X117339504Y-136472993D01*
X117345316Y-136496197D01*
X117348826Y-136519858D01*
X117350000Y-136543750D01*
X117350000Y-137456250D01*
X117348826Y-137480142D01*
X117345316Y-137503803D01*
X117339504Y-137527007D01*
X117331446Y-137549529D01*
X117321218Y-137571153D01*
X117308921Y-137591670D01*
X117294671Y-137610883D01*
X117278607Y-137628607D01*
X117260883Y-137644671D01*
X117241670Y-137658921D01*
X117221153Y-137671218D01*
X117199529Y-137681446D01*
X117177007Y-137689504D01*
X117153803Y-137695316D01*
X117130142Y-137698826D01*
X117106250Y-137700000D01*
X116618750Y-137700000D01*
X116594858Y-137698826D01*
X116571197Y-137695316D01*
X116547993Y-137689504D01*
X116525471Y-137681446D01*
X116503847Y-137671218D01*
X116483330Y-137658921D01*
X116464117Y-137644671D01*
X116446393Y-137628607D01*
X116430329Y-137610883D01*
X116416079Y-137591670D01*
X116403782Y-137571153D01*
X116393554Y-137549529D01*
X116385496Y-137527007D01*
X116379684Y-137503803D01*
X116376174Y-137480142D01*
X116375000Y-137456250D01*
X116375000Y-136543750D01*
X116376174Y-136519858D01*
X116379684Y-136496197D01*
X116385496Y-136472993D01*
X116393554Y-136450471D01*
X116403782Y-136428847D01*
X116416079Y-136408330D01*
X116430329Y-136389117D01*
X116446393Y-136371393D01*
X116464117Y-136355329D01*
X116483330Y-136341079D01*
X116503847Y-136328782D01*
X116525471Y-136318554D01*
X116547993Y-136310496D01*
X116571197Y-136304684D01*
X116594858Y-136301174D01*
X116618750Y-136300000D01*
X117106250Y-136300000D01*
X117130142Y-136301174D01*
X117130142Y-136301174D01*
G37*
D11*
X116862500Y-137000000D03*
D10*
G36*
X119005142Y-136301174D02*
X119028803Y-136304684D01*
X119052007Y-136310496D01*
X119074529Y-136318554D01*
X119096153Y-136328782D01*
X119116670Y-136341079D01*
X119135883Y-136355329D01*
X119153607Y-136371393D01*
X119169671Y-136389117D01*
X119183921Y-136408330D01*
X119196218Y-136428847D01*
X119206446Y-136450471D01*
X119214504Y-136472993D01*
X119220316Y-136496197D01*
X119223826Y-136519858D01*
X119225000Y-136543750D01*
X119225000Y-137456250D01*
X119223826Y-137480142D01*
X119220316Y-137503803D01*
X119214504Y-137527007D01*
X119206446Y-137549529D01*
X119196218Y-137571153D01*
X119183921Y-137591670D01*
X119169671Y-137610883D01*
X119153607Y-137628607D01*
X119135883Y-137644671D01*
X119116670Y-137658921D01*
X119096153Y-137671218D01*
X119074529Y-137681446D01*
X119052007Y-137689504D01*
X119028803Y-137695316D01*
X119005142Y-137698826D01*
X118981250Y-137700000D01*
X118493750Y-137700000D01*
X118469858Y-137698826D01*
X118446197Y-137695316D01*
X118422993Y-137689504D01*
X118400471Y-137681446D01*
X118378847Y-137671218D01*
X118358330Y-137658921D01*
X118339117Y-137644671D01*
X118321393Y-137628607D01*
X118305329Y-137610883D01*
X118291079Y-137591670D01*
X118278782Y-137571153D01*
X118268554Y-137549529D01*
X118260496Y-137527007D01*
X118254684Y-137503803D01*
X118251174Y-137480142D01*
X118250000Y-137456250D01*
X118250000Y-136543750D01*
X118251174Y-136519858D01*
X118254684Y-136496197D01*
X118260496Y-136472993D01*
X118268554Y-136450471D01*
X118278782Y-136428847D01*
X118291079Y-136408330D01*
X118305329Y-136389117D01*
X118321393Y-136371393D01*
X118339117Y-136355329D01*
X118358330Y-136341079D01*
X118378847Y-136328782D01*
X118400471Y-136318554D01*
X118422993Y-136310496D01*
X118446197Y-136304684D01*
X118469858Y-136301174D01*
X118493750Y-136300000D01*
X118981250Y-136300000D01*
X119005142Y-136301174D01*
X119005142Y-136301174D01*
G37*
D11*
X118737500Y-137000000D03*
G04 #@! TD*
D10*
G04 #@! TO.C,R2*
G36*
X123880142Y-136851174D02*
X123903803Y-136854684D01*
X123927007Y-136860496D01*
X123949529Y-136868554D01*
X123971153Y-136878782D01*
X123991670Y-136891079D01*
X124010883Y-136905329D01*
X124028607Y-136921393D01*
X124044671Y-136939117D01*
X124058921Y-136958330D01*
X124071218Y-136978847D01*
X124081446Y-137000471D01*
X124089504Y-137022993D01*
X124095316Y-137046197D01*
X124098826Y-137069858D01*
X124100000Y-137093750D01*
X124100000Y-137581250D01*
X124098826Y-137605142D01*
X124095316Y-137628803D01*
X124089504Y-137652007D01*
X124081446Y-137674529D01*
X124071218Y-137696153D01*
X124058921Y-137716670D01*
X124044671Y-137735883D01*
X124028607Y-137753607D01*
X124010883Y-137769671D01*
X123991670Y-137783921D01*
X123971153Y-137796218D01*
X123949529Y-137806446D01*
X123927007Y-137814504D01*
X123903803Y-137820316D01*
X123880142Y-137823826D01*
X123856250Y-137825000D01*
X122943750Y-137825000D01*
X122919858Y-137823826D01*
X122896197Y-137820316D01*
X122872993Y-137814504D01*
X122850471Y-137806446D01*
X122828847Y-137796218D01*
X122808330Y-137783921D01*
X122789117Y-137769671D01*
X122771393Y-137753607D01*
X122755329Y-137735883D01*
X122741079Y-137716670D01*
X122728782Y-137696153D01*
X122718554Y-137674529D01*
X122710496Y-137652007D01*
X122704684Y-137628803D01*
X122701174Y-137605142D01*
X122700000Y-137581250D01*
X122700000Y-137093750D01*
X122701174Y-137069858D01*
X122704684Y-137046197D01*
X122710496Y-137022993D01*
X122718554Y-137000471D01*
X122728782Y-136978847D01*
X122741079Y-136958330D01*
X122755329Y-136939117D01*
X122771393Y-136921393D01*
X122789117Y-136905329D01*
X122808330Y-136891079D01*
X122828847Y-136878782D01*
X122850471Y-136868554D01*
X122872993Y-136860496D01*
X122896197Y-136854684D01*
X122919858Y-136851174D01*
X122943750Y-136850000D01*
X123856250Y-136850000D01*
X123880142Y-136851174D01*
X123880142Y-136851174D01*
G37*
D11*
X123400000Y-137337500D03*
D10*
G36*
X123880142Y-134976174D02*
X123903803Y-134979684D01*
X123927007Y-134985496D01*
X123949529Y-134993554D01*
X123971153Y-135003782D01*
X123991670Y-135016079D01*
X124010883Y-135030329D01*
X124028607Y-135046393D01*
X124044671Y-135064117D01*
X124058921Y-135083330D01*
X124071218Y-135103847D01*
X124081446Y-135125471D01*
X124089504Y-135147993D01*
X124095316Y-135171197D01*
X124098826Y-135194858D01*
X124100000Y-135218750D01*
X124100000Y-135706250D01*
X124098826Y-135730142D01*
X124095316Y-135753803D01*
X124089504Y-135777007D01*
X124081446Y-135799529D01*
X124071218Y-135821153D01*
X124058921Y-135841670D01*
X124044671Y-135860883D01*
X124028607Y-135878607D01*
X124010883Y-135894671D01*
X123991670Y-135908921D01*
X123971153Y-135921218D01*
X123949529Y-135931446D01*
X123927007Y-135939504D01*
X123903803Y-135945316D01*
X123880142Y-135948826D01*
X123856250Y-135950000D01*
X122943750Y-135950000D01*
X122919858Y-135948826D01*
X122896197Y-135945316D01*
X122872993Y-135939504D01*
X122850471Y-135931446D01*
X122828847Y-135921218D01*
X122808330Y-135908921D01*
X122789117Y-135894671D01*
X122771393Y-135878607D01*
X122755329Y-135860883D01*
X122741079Y-135841670D01*
X122728782Y-135821153D01*
X122718554Y-135799529D01*
X122710496Y-135777007D01*
X122704684Y-135753803D01*
X122701174Y-135730142D01*
X122700000Y-135706250D01*
X122700000Y-135218750D01*
X122701174Y-135194858D01*
X122704684Y-135171197D01*
X122710496Y-135147993D01*
X122718554Y-135125471D01*
X122728782Y-135103847D01*
X122741079Y-135083330D01*
X122755329Y-135064117D01*
X122771393Y-135046393D01*
X122789117Y-135030329D01*
X122808330Y-135016079D01*
X122828847Y-135003782D01*
X122850471Y-134993554D01*
X122872993Y-134985496D01*
X122896197Y-134979684D01*
X122919858Y-134976174D01*
X122943750Y-134975000D01*
X123856250Y-134975000D01*
X123880142Y-134976174D01*
X123880142Y-134976174D01*
G37*
D11*
X123400000Y-135462500D03*
G04 #@! TD*
D10*
G04 #@! TO.C,R3*
G36*
X130080142Y-136851174D02*
X130103803Y-136854684D01*
X130127007Y-136860496D01*
X130149529Y-136868554D01*
X130171153Y-136878782D01*
X130191670Y-136891079D01*
X130210883Y-136905329D01*
X130228607Y-136921393D01*
X130244671Y-136939117D01*
X130258921Y-136958330D01*
X130271218Y-136978847D01*
X130281446Y-137000471D01*
X130289504Y-137022993D01*
X130295316Y-137046197D01*
X130298826Y-137069858D01*
X130300000Y-137093750D01*
X130300000Y-137581250D01*
X130298826Y-137605142D01*
X130295316Y-137628803D01*
X130289504Y-137652007D01*
X130281446Y-137674529D01*
X130271218Y-137696153D01*
X130258921Y-137716670D01*
X130244671Y-137735883D01*
X130228607Y-137753607D01*
X130210883Y-137769671D01*
X130191670Y-137783921D01*
X130171153Y-137796218D01*
X130149529Y-137806446D01*
X130127007Y-137814504D01*
X130103803Y-137820316D01*
X130080142Y-137823826D01*
X130056250Y-137825000D01*
X129143750Y-137825000D01*
X129119858Y-137823826D01*
X129096197Y-137820316D01*
X129072993Y-137814504D01*
X129050471Y-137806446D01*
X129028847Y-137796218D01*
X129008330Y-137783921D01*
X128989117Y-137769671D01*
X128971393Y-137753607D01*
X128955329Y-137735883D01*
X128941079Y-137716670D01*
X128928782Y-137696153D01*
X128918554Y-137674529D01*
X128910496Y-137652007D01*
X128904684Y-137628803D01*
X128901174Y-137605142D01*
X128900000Y-137581250D01*
X128900000Y-137093750D01*
X128901174Y-137069858D01*
X128904684Y-137046197D01*
X128910496Y-137022993D01*
X128918554Y-137000471D01*
X128928782Y-136978847D01*
X128941079Y-136958330D01*
X128955329Y-136939117D01*
X128971393Y-136921393D01*
X128989117Y-136905329D01*
X129008330Y-136891079D01*
X129028847Y-136878782D01*
X129050471Y-136868554D01*
X129072993Y-136860496D01*
X129096197Y-136854684D01*
X129119858Y-136851174D01*
X129143750Y-136850000D01*
X130056250Y-136850000D01*
X130080142Y-136851174D01*
X130080142Y-136851174D01*
G37*
D11*
X129600000Y-137337500D03*
D10*
G36*
X130080142Y-134976174D02*
X130103803Y-134979684D01*
X130127007Y-134985496D01*
X130149529Y-134993554D01*
X130171153Y-135003782D01*
X130191670Y-135016079D01*
X130210883Y-135030329D01*
X130228607Y-135046393D01*
X130244671Y-135064117D01*
X130258921Y-135083330D01*
X130271218Y-135103847D01*
X130281446Y-135125471D01*
X130289504Y-135147993D01*
X130295316Y-135171197D01*
X130298826Y-135194858D01*
X130300000Y-135218750D01*
X130300000Y-135706250D01*
X130298826Y-135730142D01*
X130295316Y-135753803D01*
X130289504Y-135777007D01*
X130281446Y-135799529D01*
X130271218Y-135821153D01*
X130258921Y-135841670D01*
X130244671Y-135860883D01*
X130228607Y-135878607D01*
X130210883Y-135894671D01*
X130191670Y-135908921D01*
X130171153Y-135921218D01*
X130149529Y-135931446D01*
X130127007Y-135939504D01*
X130103803Y-135945316D01*
X130080142Y-135948826D01*
X130056250Y-135950000D01*
X129143750Y-135950000D01*
X129119858Y-135948826D01*
X129096197Y-135945316D01*
X129072993Y-135939504D01*
X129050471Y-135931446D01*
X129028847Y-135921218D01*
X129008330Y-135908921D01*
X128989117Y-135894671D01*
X128971393Y-135878607D01*
X128955329Y-135860883D01*
X128941079Y-135841670D01*
X128928782Y-135821153D01*
X128918554Y-135799529D01*
X128910496Y-135777007D01*
X128904684Y-135753803D01*
X128901174Y-135730142D01*
X128900000Y-135706250D01*
X128900000Y-135218750D01*
X128901174Y-135194858D01*
X128904684Y-135171197D01*
X128910496Y-135147993D01*
X128918554Y-135125471D01*
X128928782Y-135103847D01*
X128941079Y-135083330D01*
X128955329Y-135064117D01*
X128971393Y-135046393D01*
X128989117Y-135030329D01*
X129008330Y-135016079D01*
X129028847Y-135003782D01*
X129050471Y-134993554D01*
X129072993Y-134985496D01*
X129096197Y-134979684D01*
X129119858Y-134976174D01*
X129143750Y-134975000D01*
X130056250Y-134975000D01*
X130080142Y-134976174D01*
X130080142Y-134976174D01*
G37*
D11*
X129600000Y-135462500D03*
G04 #@! TD*
M02*
