G04 #@! TF.GenerationSoftware,KiCad,Pcbnew,5.0.2+dfsg1-1~bpo9+1*
G04 #@! TF.CreationDate,2019-04-25T12:37:05-07:00*
G04 #@! TF.ProjectId,HW,48572e6b-6963-4616-945f-706362585858,rev?*
G04 #@! TF.SameCoordinates,Original*
G04 #@! TF.FileFunction,Legend,Top*
G04 #@! TF.FilePolarity,Positive*
%FSLAX46Y46*%
G04 Gerber Fmt 4.6, Leading zero omitted, Abs format (unit mm)*
G04 Created by KiCad (PCBNEW 5.0.2+dfsg1-1~bpo9+1) date Thu 25 Apr 2019 12:37:05 PM PDT*
%MOMM*%
%LPD*%
G01*
G04 APERTURE LIST*
%ADD10C,0.150000*%
%ADD11C,0.120000*%
G04 APERTURE END LIST*
D10*
G04 #@! TO.C,LP4*
X122030000Y-140000000D02*
X124570000Y-140000000D01*
X123300000Y-138730000D02*
X123300000Y-141270000D01*
G04 #@! TO.C,LP3*
X136000000Y-141270000D02*
X136000000Y-138730000D01*
X134730000Y-140000000D02*
X137270000Y-140000000D01*
G04 #@! TO.C,LP2*
X115730000Y-140000000D02*
X118270000Y-140000000D01*
X117000000Y-138730000D02*
X117000000Y-141270000D01*
G04 #@! TO.C,LP1*
X128330000Y-140000000D02*
X130870000Y-140000000D01*
X129600000Y-138730000D02*
X129600000Y-141270000D01*
G04 #@! TO.C,Top2*
X134730000Y-132000000D02*
X137270000Y-132000000D01*
X136000000Y-130730000D02*
X136000000Y-133270000D01*
G04 #@! TO.C,Top1*
X115730000Y-132000000D02*
X118270000Y-132000000D01*
X117000000Y-130730000D02*
X117000000Y-133270000D01*
G04 #@! TO.C,SW1*
X118750000Y-132000000D02*
G75*
G03X118750000Y-132000000I-1750000J0D01*
G01*
X112850000Y-128850000D02*
X121150000Y-128850000D01*
X112850000Y-128850000D02*
X112850000Y-135150000D01*
X121150000Y-128850000D02*
X121150000Y-135150000D01*
X112850000Y-135150000D02*
X121150000Y-135150000D01*
G04 #@! TO.C,SW2*
X137750000Y-132000000D02*
G75*
G03X137750000Y-132000000I-1750000J0D01*
G01*
X131850000Y-128850000D02*
X140150000Y-128850000D01*
X131850000Y-128850000D02*
X131850000Y-135150000D01*
X140150000Y-128850000D02*
X140150000Y-135150000D01*
X131850000Y-135150000D02*
X140150000Y-135150000D01*
D11*
G04 #@! TO.C,D1*
X117960000Y-141685000D02*
X117960000Y-139000000D01*
X116040000Y-141685000D02*
X117960000Y-141685000D01*
X116040000Y-139000000D02*
X116040000Y-141685000D01*
G04 #@! TO.C,D3*
X130560000Y-141685000D02*
X130560000Y-139000000D01*
X128640000Y-141685000D02*
X130560000Y-141685000D01*
X128640000Y-139000000D02*
X128640000Y-141685000D01*
G04 #@! TO.C,D4*
X136960000Y-141685000D02*
X136960000Y-139000000D01*
X135040000Y-141685000D02*
X136960000Y-141685000D01*
X135040000Y-139000000D02*
X135040000Y-141685000D01*
G04 #@! TO.C,D2*
X124260000Y-141685000D02*
X124260000Y-139000000D01*
X122340000Y-141685000D02*
X124260000Y-141685000D01*
X122340000Y-139000000D02*
X122340000Y-141685000D01*
G04 #@! TO.C,R4*
X134741422Y-137910000D02*
X135258578Y-137910000D01*
X134741422Y-136490000D02*
X135258578Y-136490000D01*
G04 #@! TO.C,R1*
X118058578Y-136290000D02*
X117541422Y-136290000D01*
X118058578Y-137710000D02*
X117541422Y-137710000D01*
G04 #@! TO.C,R2*
X122690000Y-136141422D02*
X122690000Y-136658578D01*
X124110000Y-136141422D02*
X124110000Y-136658578D01*
G04 #@! TO.C,R3*
X128890000Y-136141422D02*
X128890000Y-136658578D01*
X130310000Y-136141422D02*
X130310000Y-136658578D01*
D10*
G04 #@! TO.C,RV4*
X131250000Y-112150000D02*
X140750000Y-112150000D01*
X131250000Y-123500000D02*
X140750000Y-123500000D01*
X140750000Y-112150000D02*
X140750000Y-123500000D01*
X131250000Y-112150000D02*
X131250000Y-123500000D01*
X139175000Y-117000000D02*
G75*
G03X139175000Y-117000000I-3175000J0D01*
G01*
X136000000Y-115730000D02*
X136000000Y-118270000D01*
X134730000Y-117000000D02*
X137270000Y-117000000D01*
G04 #@! TO.C,RV3*
X112250000Y-112150000D02*
X121750000Y-112150000D01*
X112250000Y-123500000D02*
X121750000Y-123500000D01*
X121750000Y-112150000D02*
X121750000Y-123500000D01*
X112250000Y-112150000D02*
X112250000Y-123500000D01*
X120175000Y-117000000D02*
G75*
G03X120175000Y-117000000I-3175000J0D01*
G01*
X117000000Y-115730000D02*
X117000000Y-118270000D01*
X115730000Y-117000000D02*
X118270000Y-117000000D01*
G04 #@! TO.C,RV2*
X131250000Y-92150000D02*
X140750000Y-92150000D01*
X131250000Y-103500000D02*
X140750000Y-103500000D01*
X140750000Y-92150000D02*
X140750000Y-103500000D01*
X131250000Y-92150000D02*
X131250000Y-103500000D01*
X139175000Y-97000000D02*
G75*
G03X139175000Y-97000000I-3175000J0D01*
G01*
X136000000Y-95730000D02*
X136000000Y-98270000D01*
X134730000Y-97000000D02*
X137270000Y-97000000D01*
G04 #@! TO.C,RV1*
X112250000Y-92150000D02*
X121750000Y-92150000D01*
X112250000Y-103500000D02*
X121750000Y-103500000D01*
X121750000Y-92150000D02*
X121750000Y-103500000D01*
X112250000Y-92150000D02*
X112250000Y-103500000D01*
X120175000Y-97000000D02*
G75*
G03X120175000Y-97000000I-3175000J0D01*
G01*
X117000000Y-95730000D02*
X117000000Y-98270000D01*
X115730000Y-97000000D02*
X118270000Y-97000000D01*
G04 #@! TO.C,J3*
X131500000Y-70800000D02*
X140500000Y-70800000D01*
X131500000Y-81700000D02*
X140500000Y-81700000D01*
X131500000Y-70800000D02*
X131500000Y-81700000D01*
X140500000Y-70800000D02*
X140500000Y-81700000D01*
X137800000Y-77000000D02*
G75*
G03X137800000Y-77000000I-1800000J0D01*
G01*
X136000000Y-75200000D02*
X136000000Y-78800000D01*
X134200000Y-77000000D02*
X137800000Y-77000000D01*
G04 #@! TO.C,J2*
X112500000Y-70800000D02*
X121500000Y-70800000D01*
X112500000Y-81700000D02*
X121500000Y-81700000D01*
X112500000Y-70800000D02*
X112500000Y-81700000D01*
X121500000Y-70800000D02*
X121500000Y-81700000D01*
X118800000Y-77000000D02*
G75*
G03X118800000Y-77000000I-1800000J0D01*
G01*
X117000000Y-75200000D02*
X117000000Y-78800000D01*
X115200000Y-77000000D02*
X118800000Y-77000000D01*
G04 #@! TO.C,LP4*
X121333333Y-142992380D02*
X120857142Y-142992380D01*
X120857142Y-141992380D01*
X121666666Y-142992380D02*
X121666666Y-141992380D01*
X122047619Y-141992380D01*
X122142857Y-142040000D01*
X122190476Y-142087619D01*
X122238095Y-142182857D01*
X122238095Y-142325714D01*
X122190476Y-142420952D01*
X122142857Y-142468571D01*
X122047619Y-142516190D01*
X121666666Y-142516190D01*
X123095238Y-142325714D02*
X123095238Y-142992380D01*
X122857142Y-141944761D02*
X122619047Y-142659047D01*
X123238095Y-142659047D01*
G04 #@! TO.C,LP3*
X138992380Y-140666666D02*
X138992380Y-141142857D01*
X137992380Y-141142857D01*
X138992380Y-140333333D02*
X137992380Y-140333333D01*
X137992380Y-139952380D01*
X138040000Y-139857142D01*
X138087619Y-139809523D01*
X138182857Y-139761904D01*
X138325714Y-139761904D01*
X138420952Y-139809523D01*
X138468571Y-139857142D01*
X138516190Y-139952380D01*
X138516190Y-140333333D01*
X137992380Y-139428571D02*
X137992380Y-138809523D01*
X138373333Y-139142857D01*
X138373333Y-139000000D01*
X138420952Y-138904761D01*
X138468571Y-138857142D01*
X138563809Y-138809523D01*
X138801904Y-138809523D01*
X138897142Y-138857142D01*
X138944761Y-138904761D01*
X138992380Y-139000000D01*
X138992380Y-139285714D01*
X138944761Y-139380952D01*
X138897142Y-139428571D01*
G04 #@! TO.C,LP2*
X114333333Y-142992380D02*
X113857142Y-142992380D01*
X113857142Y-141992380D01*
X114666666Y-142992380D02*
X114666666Y-141992380D01*
X115047619Y-141992380D01*
X115142857Y-142040000D01*
X115190476Y-142087619D01*
X115238095Y-142182857D01*
X115238095Y-142325714D01*
X115190476Y-142420952D01*
X115142857Y-142468571D01*
X115047619Y-142516190D01*
X114666666Y-142516190D01*
X115619047Y-142087619D02*
X115666666Y-142040000D01*
X115761904Y-141992380D01*
X116000000Y-141992380D01*
X116095238Y-142040000D01*
X116142857Y-142087619D01*
X116190476Y-142182857D01*
X116190476Y-142278095D01*
X116142857Y-142420952D01*
X115571428Y-142992380D01*
X116190476Y-142992380D01*
G04 #@! TO.C,LP1*
X128933333Y-142992380D02*
X128457142Y-142992380D01*
X128457142Y-141992380D01*
X129266666Y-142992380D02*
X129266666Y-141992380D01*
X129647619Y-141992380D01*
X129742857Y-142040000D01*
X129790476Y-142087619D01*
X129838095Y-142182857D01*
X129838095Y-142325714D01*
X129790476Y-142420952D01*
X129742857Y-142468571D01*
X129647619Y-142516190D01*
X129266666Y-142516190D01*
X130790476Y-142992380D02*
X130219047Y-142992380D01*
X130504761Y-142992380D02*
X130504761Y-141992380D01*
X130409523Y-142135238D01*
X130314285Y-142230476D01*
X130219047Y-142278095D01*
G04 #@! TO.C,Top2*
X134333333Y-132722380D02*
X134904761Y-132722380D01*
X134619047Y-133722380D02*
X134619047Y-132722380D01*
X135380952Y-133722380D02*
X135285714Y-133674761D01*
X135238095Y-133627142D01*
X135190476Y-133531904D01*
X135190476Y-133246190D01*
X135238095Y-133150952D01*
X135285714Y-133103333D01*
X135380952Y-133055714D01*
X135523809Y-133055714D01*
X135619047Y-133103333D01*
X135666666Y-133150952D01*
X135714285Y-133246190D01*
X135714285Y-133531904D01*
X135666666Y-133627142D01*
X135619047Y-133674761D01*
X135523809Y-133722380D01*
X135380952Y-133722380D01*
X136142857Y-133055714D02*
X136142857Y-134055714D01*
X136142857Y-133103333D02*
X136238095Y-133055714D01*
X136428571Y-133055714D01*
X136523809Y-133103333D01*
X136571428Y-133150952D01*
X136619047Y-133246190D01*
X136619047Y-133531904D01*
X136571428Y-133627142D01*
X136523809Y-133674761D01*
X136428571Y-133722380D01*
X136238095Y-133722380D01*
X136142857Y-133674761D01*
X137000000Y-132817619D02*
X137047619Y-132770000D01*
X137142857Y-132722380D01*
X137380952Y-132722380D01*
X137476190Y-132770000D01*
X137523809Y-132817619D01*
X137571428Y-132912857D01*
X137571428Y-133008095D01*
X137523809Y-133150952D01*
X136952380Y-133722380D01*
X137571428Y-133722380D01*
G04 #@! TO.C,Top1*
X115333333Y-132722380D02*
X115904761Y-132722380D01*
X115619047Y-133722380D02*
X115619047Y-132722380D01*
X116380952Y-133722380D02*
X116285714Y-133674761D01*
X116238095Y-133627142D01*
X116190476Y-133531904D01*
X116190476Y-133246190D01*
X116238095Y-133150952D01*
X116285714Y-133103333D01*
X116380952Y-133055714D01*
X116523809Y-133055714D01*
X116619047Y-133103333D01*
X116666666Y-133150952D01*
X116714285Y-133246190D01*
X116714285Y-133531904D01*
X116666666Y-133627142D01*
X116619047Y-133674761D01*
X116523809Y-133722380D01*
X116380952Y-133722380D01*
X117142857Y-133055714D02*
X117142857Y-134055714D01*
X117142857Y-133103333D02*
X117238095Y-133055714D01*
X117428571Y-133055714D01*
X117523809Y-133103333D01*
X117571428Y-133150952D01*
X117619047Y-133246190D01*
X117619047Y-133531904D01*
X117571428Y-133627142D01*
X117523809Y-133674761D01*
X117428571Y-133722380D01*
X117238095Y-133722380D01*
X117142857Y-133674761D01*
X118571428Y-133722380D02*
X118000000Y-133722380D01*
X118285714Y-133722380D02*
X118285714Y-132722380D01*
X118190476Y-132865238D01*
X118095238Y-132960476D01*
X118000000Y-133008095D01*
G04 #@! TO.C,SW1*
X112466666Y-136468761D02*
X112609523Y-136516380D01*
X112847619Y-136516380D01*
X112942857Y-136468761D01*
X112990476Y-136421142D01*
X113038095Y-136325904D01*
X113038095Y-136230666D01*
X112990476Y-136135428D01*
X112942857Y-136087809D01*
X112847619Y-136040190D01*
X112657142Y-135992571D01*
X112561904Y-135944952D01*
X112514285Y-135897333D01*
X112466666Y-135802095D01*
X112466666Y-135706857D01*
X112514285Y-135611619D01*
X112561904Y-135564000D01*
X112657142Y-135516380D01*
X112895238Y-135516380D01*
X113038095Y-135564000D01*
X113371428Y-135516380D02*
X113609523Y-136516380D01*
X113800000Y-135802095D01*
X113990476Y-136516380D01*
X114228571Y-135516380D01*
X115133333Y-136516380D02*
X114561904Y-136516380D01*
X114847619Y-136516380D02*
X114847619Y-135516380D01*
X114752380Y-135659238D01*
X114657142Y-135754476D01*
X114561904Y-135802095D01*
G04 #@! TO.C,SW2*
X131666666Y-128404761D02*
X131809523Y-128452380D01*
X132047619Y-128452380D01*
X132142857Y-128404761D01*
X132190476Y-128357142D01*
X132238095Y-128261904D01*
X132238095Y-128166666D01*
X132190476Y-128071428D01*
X132142857Y-128023809D01*
X132047619Y-127976190D01*
X131857142Y-127928571D01*
X131761904Y-127880952D01*
X131714285Y-127833333D01*
X131666666Y-127738095D01*
X131666666Y-127642857D01*
X131714285Y-127547619D01*
X131761904Y-127500000D01*
X131857142Y-127452380D01*
X132095238Y-127452380D01*
X132238095Y-127500000D01*
X132571428Y-127452380D02*
X132809523Y-128452380D01*
X133000000Y-127738095D01*
X133190476Y-128452380D01*
X133428571Y-127452380D01*
X133761904Y-127547619D02*
X133809523Y-127500000D01*
X133904761Y-127452380D01*
X134142857Y-127452380D01*
X134238095Y-127500000D01*
X134285714Y-127547619D01*
X134333333Y-127642857D01*
X134333333Y-127738095D01*
X134285714Y-127880952D01*
X133714285Y-128452380D01*
X134333333Y-128452380D01*
G04 #@! TO.C,D1*
X115802380Y-140738095D02*
X114802380Y-140738095D01*
X114802380Y-140500000D01*
X114850000Y-140357142D01*
X114945238Y-140261904D01*
X115040476Y-140214285D01*
X115230952Y-140166666D01*
X115373809Y-140166666D01*
X115564285Y-140214285D01*
X115659523Y-140261904D01*
X115754761Y-140357142D01*
X115802380Y-140500000D01*
X115802380Y-140738095D01*
X115802380Y-139214285D02*
X115802380Y-139785714D01*
X115802380Y-139500000D02*
X114802380Y-139500000D01*
X114945238Y-139595238D01*
X115040476Y-139690476D01*
X115088095Y-139785714D01*
G04 #@! TO.C,D3*
X128402380Y-140738095D02*
X127402380Y-140738095D01*
X127402380Y-140500000D01*
X127450000Y-140357142D01*
X127545238Y-140261904D01*
X127640476Y-140214285D01*
X127830952Y-140166666D01*
X127973809Y-140166666D01*
X128164285Y-140214285D01*
X128259523Y-140261904D01*
X128354761Y-140357142D01*
X128402380Y-140500000D01*
X128402380Y-140738095D01*
X127402380Y-139833333D02*
X127402380Y-139214285D01*
X127783333Y-139547619D01*
X127783333Y-139404761D01*
X127830952Y-139309523D01*
X127878571Y-139261904D01*
X127973809Y-139214285D01*
X128211904Y-139214285D01*
X128307142Y-139261904D01*
X128354761Y-139309523D01*
X128402380Y-139404761D01*
X128402380Y-139690476D01*
X128354761Y-139785714D01*
X128307142Y-139833333D01*
G04 #@! TO.C,D4*
X134802380Y-140738095D02*
X133802380Y-140738095D01*
X133802380Y-140500000D01*
X133850000Y-140357142D01*
X133945238Y-140261904D01*
X134040476Y-140214285D01*
X134230952Y-140166666D01*
X134373809Y-140166666D01*
X134564285Y-140214285D01*
X134659523Y-140261904D01*
X134754761Y-140357142D01*
X134802380Y-140500000D01*
X134802380Y-140738095D01*
X134135714Y-139309523D02*
X134802380Y-139309523D01*
X133754761Y-139547619D02*
X134469047Y-139785714D01*
X134469047Y-139166666D01*
G04 #@! TO.C,D2*
X122102380Y-140738095D02*
X121102380Y-140738095D01*
X121102380Y-140500000D01*
X121150000Y-140357142D01*
X121245238Y-140261904D01*
X121340476Y-140214285D01*
X121530952Y-140166666D01*
X121673809Y-140166666D01*
X121864285Y-140214285D01*
X121959523Y-140261904D01*
X122054761Y-140357142D01*
X122102380Y-140500000D01*
X122102380Y-140738095D01*
X121197619Y-139785714D02*
X121150000Y-139738095D01*
X121102380Y-139642857D01*
X121102380Y-139404761D01*
X121150000Y-139309523D01*
X121197619Y-139261904D01*
X121292857Y-139214285D01*
X121388095Y-139214285D01*
X121530952Y-139261904D01*
X122102380Y-139833333D01*
X122102380Y-139214285D01*
G04 #@! TO.C,R4*
X137833333Y-137452380D02*
X137500000Y-136976190D01*
X137261904Y-137452380D02*
X137261904Y-136452380D01*
X137642857Y-136452380D01*
X137738095Y-136500000D01*
X137785714Y-136547619D01*
X137833333Y-136642857D01*
X137833333Y-136785714D01*
X137785714Y-136880952D01*
X137738095Y-136928571D01*
X137642857Y-136976190D01*
X137261904Y-136976190D01*
X138690476Y-136785714D02*
X138690476Y-137452380D01*
X138452380Y-136404761D02*
X138214285Y-137119047D01*
X138833333Y-137119047D01*
G04 #@! TO.C,R1*
X120433333Y-137452380D02*
X120100000Y-136976190D01*
X119861904Y-137452380D02*
X119861904Y-136452380D01*
X120242857Y-136452380D01*
X120338095Y-136500000D01*
X120385714Y-136547619D01*
X120433333Y-136642857D01*
X120433333Y-136785714D01*
X120385714Y-136880952D01*
X120338095Y-136928571D01*
X120242857Y-136976190D01*
X119861904Y-136976190D01*
X121385714Y-137452380D02*
X120814285Y-137452380D01*
X121100000Y-137452380D02*
X121100000Y-136452380D01*
X121004761Y-136595238D01*
X120909523Y-136690476D01*
X120814285Y-136738095D01*
G04 #@! TO.C,R2*
X125502380Y-136566666D02*
X125026190Y-136900000D01*
X125502380Y-137138095D02*
X124502380Y-137138095D01*
X124502380Y-136757142D01*
X124550000Y-136661904D01*
X124597619Y-136614285D01*
X124692857Y-136566666D01*
X124835714Y-136566666D01*
X124930952Y-136614285D01*
X124978571Y-136661904D01*
X125026190Y-136757142D01*
X125026190Y-137138095D01*
X124597619Y-136185714D02*
X124550000Y-136138095D01*
X124502380Y-136042857D01*
X124502380Y-135804761D01*
X124550000Y-135709523D01*
X124597619Y-135661904D01*
X124692857Y-135614285D01*
X124788095Y-135614285D01*
X124930952Y-135661904D01*
X125502380Y-136233333D01*
X125502380Y-135614285D01*
G04 #@! TO.C,R3*
X131702380Y-136566666D02*
X131226190Y-136900000D01*
X131702380Y-137138095D02*
X130702380Y-137138095D01*
X130702380Y-136757142D01*
X130750000Y-136661904D01*
X130797619Y-136614285D01*
X130892857Y-136566666D01*
X131035714Y-136566666D01*
X131130952Y-136614285D01*
X131178571Y-136661904D01*
X131226190Y-136757142D01*
X131226190Y-137138095D01*
X130702380Y-136233333D02*
X130702380Y-135614285D01*
X131083333Y-135947619D01*
X131083333Y-135804761D01*
X131130952Y-135709523D01*
X131178571Y-135661904D01*
X131273809Y-135614285D01*
X131511904Y-135614285D01*
X131607142Y-135661904D01*
X131654761Y-135709523D01*
X131702380Y-135804761D01*
X131702380Y-136090476D01*
X131654761Y-136185714D01*
X131607142Y-136233333D01*
G04 #@! TO.C,RV4*
X135404761Y-126952380D02*
X135071428Y-126476190D01*
X134833333Y-126952380D02*
X134833333Y-125952380D01*
X135214285Y-125952380D01*
X135309523Y-126000000D01*
X135357142Y-126047619D01*
X135404761Y-126142857D01*
X135404761Y-126285714D01*
X135357142Y-126380952D01*
X135309523Y-126428571D01*
X135214285Y-126476190D01*
X134833333Y-126476190D01*
X135690476Y-125952380D02*
X136023809Y-126952380D01*
X136357142Y-125952380D01*
X137119047Y-126285714D02*
X137119047Y-126952380D01*
X136880952Y-125904761D02*
X136642857Y-126619047D01*
X137261904Y-126619047D01*
G04 #@! TO.C,RV3*
X116404761Y-126952380D02*
X116071428Y-126476190D01*
X115833333Y-126952380D02*
X115833333Y-125952380D01*
X116214285Y-125952380D01*
X116309523Y-126000000D01*
X116357142Y-126047619D01*
X116404761Y-126142857D01*
X116404761Y-126285714D01*
X116357142Y-126380952D01*
X116309523Y-126428571D01*
X116214285Y-126476190D01*
X115833333Y-126476190D01*
X116690476Y-125952380D02*
X117023809Y-126952380D01*
X117357142Y-125952380D01*
X117595238Y-125952380D02*
X118214285Y-125952380D01*
X117880952Y-126333333D01*
X118023809Y-126333333D01*
X118119047Y-126380952D01*
X118166666Y-126428571D01*
X118214285Y-126523809D01*
X118214285Y-126761904D01*
X118166666Y-126857142D01*
X118119047Y-126904761D01*
X118023809Y-126952380D01*
X117738095Y-126952380D01*
X117642857Y-126904761D01*
X117595238Y-126857142D01*
G04 #@! TO.C,RV2*
X135404761Y-106952380D02*
X135071428Y-106476190D01*
X134833333Y-106952380D02*
X134833333Y-105952380D01*
X135214285Y-105952380D01*
X135309523Y-106000000D01*
X135357142Y-106047619D01*
X135404761Y-106142857D01*
X135404761Y-106285714D01*
X135357142Y-106380952D01*
X135309523Y-106428571D01*
X135214285Y-106476190D01*
X134833333Y-106476190D01*
X135690476Y-105952380D02*
X136023809Y-106952380D01*
X136357142Y-105952380D01*
X136642857Y-106047619D02*
X136690476Y-106000000D01*
X136785714Y-105952380D01*
X137023809Y-105952380D01*
X137119047Y-106000000D01*
X137166666Y-106047619D01*
X137214285Y-106142857D01*
X137214285Y-106238095D01*
X137166666Y-106380952D01*
X136595238Y-106952380D01*
X137214285Y-106952380D01*
G04 #@! TO.C,RV1*
X116404761Y-106952380D02*
X116071428Y-106476190D01*
X115833333Y-106952380D02*
X115833333Y-105952380D01*
X116214285Y-105952380D01*
X116309523Y-106000000D01*
X116357142Y-106047619D01*
X116404761Y-106142857D01*
X116404761Y-106285714D01*
X116357142Y-106380952D01*
X116309523Y-106428571D01*
X116214285Y-106476190D01*
X115833333Y-106476190D01*
X116690476Y-105952380D02*
X117023809Y-106952380D01*
X117357142Y-105952380D01*
X118214285Y-106952380D02*
X117642857Y-106952380D01*
X117928571Y-106952380D02*
X117928571Y-105952380D01*
X117833333Y-106095238D01*
X117738095Y-106190476D01*
X117642857Y-106238095D01*
G04 #@! TO.C,J3*
X139730666Y-82040380D02*
X139730666Y-82754666D01*
X139683047Y-82897523D01*
X139587809Y-82992761D01*
X139444952Y-83040380D01*
X139349714Y-83040380D01*
X140111619Y-82040380D02*
X140730666Y-82040380D01*
X140397333Y-82421333D01*
X140540190Y-82421333D01*
X140635428Y-82468952D01*
X140683047Y-82516571D01*
X140730666Y-82611809D01*
X140730666Y-82849904D01*
X140683047Y-82945142D01*
X140635428Y-82992761D01*
X140540190Y-83040380D01*
X140254476Y-83040380D01*
X140159238Y-82992761D01*
X140111619Y-82945142D01*
G04 #@! TO.C,J2*
X120730666Y-82040380D02*
X120730666Y-82754666D01*
X120683047Y-82897523D01*
X120587809Y-82992761D01*
X120444952Y-83040380D01*
X120349714Y-83040380D01*
X121159238Y-82135619D02*
X121206857Y-82088000D01*
X121302095Y-82040380D01*
X121540190Y-82040380D01*
X121635428Y-82088000D01*
X121683047Y-82135619D01*
X121730666Y-82230857D01*
X121730666Y-82326095D01*
X121683047Y-82468952D01*
X121111619Y-83040380D01*
X121730666Y-83040380D01*
G04 #@! TD*
M02*
