G04 #@! TF.GenerationSoftware,KiCad,Pcbnew,5.0.2+dfsg1-1~bpo9+1*
G04 #@! TF.CreationDate,2019-04-25T12:37:05-07:00*
G04 #@! TF.ProjectId,HW,48572e6b-6963-4616-945f-706362585858,rev?*
G04 #@! TF.SameCoordinates,Original*
G04 #@! TF.FileFunction,Soldermask,Bot*
G04 #@! TF.FilePolarity,Negative*
%FSLAX46Y46*%
G04 Gerber Fmt 4.6, Leading zero omitted, Abs format (unit mm)*
G04 Created by KiCad (PCBNEW 5.0.2+dfsg1-1~bpo9+1) date Thu 25 Apr 2019 12:37:05 PM PDT*
%MOMM*%
%LPD*%
G01*
G04 APERTURE LIST*
%ADD10C,0.100000*%
G04 APERTURE END LIST*
D10*
G36*
X138026630Y-145662299D02*
X138186855Y-145710903D01*
X138334520Y-145789831D01*
X138463949Y-145896051D01*
X138570169Y-146025480D01*
X138649097Y-146173145D01*
X138697701Y-146333370D01*
X138714112Y-146500000D01*
X138697701Y-146666630D01*
X138649097Y-146826855D01*
X138570169Y-146974520D01*
X138463949Y-147103949D01*
X138334520Y-147210169D01*
X138186855Y-147289097D01*
X138026630Y-147337701D01*
X137901752Y-147350000D01*
X137818248Y-147350000D01*
X137693370Y-147337701D01*
X137533145Y-147289097D01*
X137385480Y-147210169D01*
X137256051Y-147103949D01*
X137149831Y-146974520D01*
X137070903Y-146826855D01*
X137022299Y-146666630D01*
X137005888Y-146500000D01*
X137022299Y-146333370D01*
X137070903Y-146173145D01*
X137149831Y-146025480D01*
X137256051Y-145896051D01*
X137385480Y-145789831D01*
X137533145Y-145710903D01*
X137693370Y-145662299D01*
X137818248Y-145650000D01*
X137901752Y-145650000D01*
X138026630Y-145662299D01*
X138026630Y-145662299D01*
G37*
G36*
X135486630Y-145662299D02*
X135646855Y-145710903D01*
X135794520Y-145789831D01*
X135923949Y-145896051D01*
X136030169Y-146025480D01*
X136109097Y-146173145D01*
X136157701Y-146333370D01*
X136174112Y-146500000D01*
X136157701Y-146666630D01*
X136109097Y-146826855D01*
X136030169Y-146974520D01*
X135923949Y-147103949D01*
X135794520Y-147210169D01*
X135646855Y-147289097D01*
X135486630Y-147337701D01*
X135361752Y-147350000D01*
X135278248Y-147350000D01*
X135153370Y-147337701D01*
X134993145Y-147289097D01*
X134845480Y-147210169D01*
X134716051Y-147103949D01*
X134609831Y-146974520D01*
X134530903Y-146826855D01*
X134482299Y-146666630D01*
X134465888Y-146500000D01*
X134482299Y-146333370D01*
X134530903Y-146173145D01*
X134609831Y-146025480D01*
X134716051Y-145896051D01*
X134845480Y-145789831D01*
X134993145Y-145710903D01*
X135153370Y-145662299D01*
X135278248Y-145650000D01*
X135361752Y-145650000D01*
X135486630Y-145662299D01*
X135486630Y-145662299D01*
G37*
G36*
X132946630Y-145662299D02*
X133106855Y-145710903D01*
X133254520Y-145789831D01*
X133383949Y-145896051D01*
X133490169Y-146025480D01*
X133569097Y-146173145D01*
X133617701Y-146333370D01*
X133634112Y-146500000D01*
X133617701Y-146666630D01*
X133569097Y-146826855D01*
X133490169Y-146974520D01*
X133383949Y-147103949D01*
X133254520Y-147210169D01*
X133106855Y-147289097D01*
X132946630Y-147337701D01*
X132821752Y-147350000D01*
X132738248Y-147350000D01*
X132613370Y-147337701D01*
X132453145Y-147289097D01*
X132305480Y-147210169D01*
X132176051Y-147103949D01*
X132069831Y-146974520D01*
X131990903Y-146826855D01*
X131942299Y-146666630D01*
X131925888Y-146500000D01*
X131942299Y-146333370D01*
X131990903Y-146173145D01*
X132069831Y-146025480D01*
X132176051Y-145896051D01*
X132305480Y-145789831D01*
X132453145Y-145710903D01*
X132613370Y-145662299D01*
X132738248Y-145650000D01*
X132821752Y-145650000D01*
X132946630Y-145662299D01*
X132946630Y-145662299D01*
G37*
G36*
X130406630Y-145662299D02*
X130566855Y-145710903D01*
X130714520Y-145789831D01*
X130843949Y-145896051D01*
X130950169Y-146025480D01*
X131029097Y-146173145D01*
X131077701Y-146333370D01*
X131094112Y-146500000D01*
X131077701Y-146666630D01*
X131029097Y-146826855D01*
X130950169Y-146974520D01*
X130843949Y-147103949D01*
X130714520Y-147210169D01*
X130566855Y-147289097D01*
X130406630Y-147337701D01*
X130281752Y-147350000D01*
X130198248Y-147350000D01*
X130073370Y-147337701D01*
X129913145Y-147289097D01*
X129765480Y-147210169D01*
X129636051Y-147103949D01*
X129529831Y-146974520D01*
X129450903Y-146826855D01*
X129402299Y-146666630D01*
X129385888Y-146500000D01*
X129402299Y-146333370D01*
X129450903Y-146173145D01*
X129529831Y-146025480D01*
X129636051Y-145896051D01*
X129765480Y-145789831D01*
X129913145Y-145710903D01*
X130073370Y-145662299D01*
X130198248Y-145650000D01*
X130281752Y-145650000D01*
X130406630Y-145662299D01*
X130406630Y-145662299D01*
G37*
G36*
X127866630Y-145662299D02*
X128026855Y-145710903D01*
X128174520Y-145789831D01*
X128303949Y-145896051D01*
X128410169Y-146025480D01*
X128489097Y-146173145D01*
X128537701Y-146333370D01*
X128554112Y-146500000D01*
X128537701Y-146666630D01*
X128489097Y-146826855D01*
X128410169Y-146974520D01*
X128303949Y-147103949D01*
X128174520Y-147210169D01*
X128026855Y-147289097D01*
X127866630Y-147337701D01*
X127741752Y-147350000D01*
X127658248Y-147350000D01*
X127533370Y-147337701D01*
X127373145Y-147289097D01*
X127225480Y-147210169D01*
X127096051Y-147103949D01*
X126989831Y-146974520D01*
X126910903Y-146826855D01*
X126862299Y-146666630D01*
X126845888Y-146500000D01*
X126862299Y-146333370D01*
X126910903Y-146173145D01*
X126989831Y-146025480D01*
X127096051Y-145896051D01*
X127225480Y-145789831D01*
X127373145Y-145710903D01*
X127533370Y-145662299D01*
X127658248Y-145650000D01*
X127741752Y-145650000D01*
X127866630Y-145662299D01*
X127866630Y-145662299D01*
G37*
G36*
X125326630Y-145662299D02*
X125486855Y-145710903D01*
X125634520Y-145789831D01*
X125763949Y-145896051D01*
X125870169Y-146025480D01*
X125949097Y-146173145D01*
X125997701Y-146333370D01*
X126014112Y-146500000D01*
X125997701Y-146666630D01*
X125949097Y-146826855D01*
X125870169Y-146974520D01*
X125763949Y-147103949D01*
X125634520Y-147210169D01*
X125486855Y-147289097D01*
X125326630Y-147337701D01*
X125201752Y-147350000D01*
X125118248Y-147350000D01*
X124993370Y-147337701D01*
X124833145Y-147289097D01*
X124685480Y-147210169D01*
X124556051Y-147103949D01*
X124449831Y-146974520D01*
X124370903Y-146826855D01*
X124322299Y-146666630D01*
X124305888Y-146500000D01*
X124322299Y-146333370D01*
X124370903Y-146173145D01*
X124449831Y-146025480D01*
X124556051Y-145896051D01*
X124685480Y-145789831D01*
X124833145Y-145710903D01*
X124993370Y-145662299D01*
X125118248Y-145650000D01*
X125201752Y-145650000D01*
X125326630Y-145662299D01*
X125326630Y-145662299D01*
G37*
G36*
X122786630Y-145662299D02*
X122946855Y-145710903D01*
X123094520Y-145789831D01*
X123223949Y-145896051D01*
X123330169Y-146025480D01*
X123409097Y-146173145D01*
X123457701Y-146333370D01*
X123474112Y-146500000D01*
X123457701Y-146666630D01*
X123409097Y-146826855D01*
X123330169Y-146974520D01*
X123223949Y-147103949D01*
X123094520Y-147210169D01*
X122946855Y-147289097D01*
X122786630Y-147337701D01*
X122661752Y-147350000D01*
X122578248Y-147350000D01*
X122453370Y-147337701D01*
X122293145Y-147289097D01*
X122145480Y-147210169D01*
X122016051Y-147103949D01*
X121909831Y-146974520D01*
X121830903Y-146826855D01*
X121782299Y-146666630D01*
X121765888Y-146500000D01*
X121782299Y-146333370D01*
X121830903Y-146173145D01*
X121909831Y-146025480D01*
X122016051Y-145896051D01*
X122145480Y-145789831D01*
X122293145Y-145710903D01*
X122453370Y-145662299D01*
X122578248Y-145650000D01*
X122661752Y-145650000D01*
X122786630Y-145662299D01*
X122786630Y-145662299D01*
G37*
G36*
X117706630Y-145662299D02*
X117866855Y-145710903D01*
X118014520Y-145789831D01*
X118143949Y-145896051D01*
X118250169Y-146025480D01*
X118329097Y-146173145D01*
X118377701Y-146333370D01*
X118394112Y-146500000D01*
X118377701Y-146666630D01*
X118329097Y-146826855D01*
X118250169Y-146974520D01*
X118143949Y-147103949D01*
X118014520Y-147210169D01*
X117866855Y-147289097D01*
X117706630Y-147337701D01*
X117581752Y-147350000D01*
X117498248Y-147350000D01*
X117373370Y-147337701D01*
X117213145Y-147289097D01*
X117065480Y-147210169D01*
X116936051Y-147103949D01*
X116829831Y-146974520D01*
X116750903Y-146826855D01*
X116702299Y-146666630D01*
X116685888Y-146500000D01*
X116702299Y-146333370D01*
X116750903Y-146173145D01*
X116829831Y-146025480D01*
X116936051Y-145896051D01*
X117065480Y-145789831D01*
X117213145Y-145710903D01*
X117373370Y-145662299D01*
X117498248Y-145650000D01*
X117581752Y-145650000D01*
X117706630Y-145662299D01*
X117706630Y-145662299D01*
G37*
G36*
X115850000Y-147350000D02*
X114150000Y-147350000D01*
X114150000Y-145650000D01*
X115850000Y-145650000D01*
X115850000Y-147350000D01*
X115850000Y-147350000D01*
G37*
G36*
X120246630Y-145662299D02*
X120406855Y-145710903D01*
X120554520Y-145789831D01*
X120683949Y-145896051D01*
X120790169Y-146025480D01*
X120869097Y-146173145D01*
X120917701Y-146333370D01*
X120934112Y-146500000D01*
X120917701Y-146666630D01*
X120869097Y-146826855D01*
X120790169Y-146974520D01*
X120683949Y-147103949D01*
X120554520Y-147210169D01*
X120406855Y-147289097D01*
X120246630Y-147337701D01*
X120121752Y-147350000D01*
X120038248Y-147350000D01*
X119913370Y-147337701D01*
X119753145Y-147289097D01*
X119605480Y-147210169D01*
X119476051Y-147103949D01*
X119369831Y-146974520D01*
X119290903Y-146826855D01*
X119242299Y-146666630D01*
X119225888Y-146500000D01*
X119242299Y-146333370D01*
X119290903Y-146173145D01*
X119369831Y-146025480D01*
X119476051Y-145896051D01*
X119605480Y-145789831D01*
X119753145Y-145710903D01*
X119913370Y-145662299D01*
X120038248Y-145650000D01*
X120121752Y-145650000D01*
X120246630Y-145662299D01*
X120246630Y-145662299D01*
G37*
G36*
X131737507Y-141761528D02*
X131792103Y-141784143D01*
X131841239Y-141816974D01*
X131883026Y-141858761D01*
X131915857Y-141907897D01*
X131938472Y-141962493D01*
X131950000Y-142020453D01*
X131950000Y-142079547D01*
X131938472Y-142137507D01*
X131915857Y-142192103D01*
X131883026Y-142241239D01*
X131841239Y-142283026D01*
X131792103Y-142315857D01*
X131737507Y-142338472D01*
X131679547Y-142350000D01*
X131620453Y-142350000D01*
X131562493Y-142338472D01*
X131507897Y-142315857D01*
X131458761Y-142283026D01*
X131416974Y-142241239D01*
X131384143Y-142192103D01*
X131361528Y-142137507D01*
X131350000Y-142079547D01*
X131350000Y-142020453D01*
X131361528Y-141962493D01*
X131384143Y-141907897D01*
X131416974Y-141858761D01*
X131458761Y-141816974D01*
X131507897Y-141784143D01*
X131562493Y-141761528D01*
X131620453Y-141750000D01*
X131679547Y-141750000D01*
X131737507Y-141761528D01*
X131737507Y-141761528D01*
G37*
G36*
X134037507Y-141761528D02*
X134092103Y-141784143D01*
X134141239Y-141816974D01*
X134183026Y-141858761D01*
X134215857Y-141907897D01*
X134238472Y-141962493D01*
X134250000Y-142020453D01*
X134250000Y-142079547D01*
X134238472Y-142137507D01*
X134215857Y-142192103D01*
X134183026Y-142241239D01*
X134141239Y-142283026D01*
X134092103Y-142315857D01*
X134037507Y-142338472D01*
X133979547Y-142350000D01*
X133920453Y-142350000D01*
X133862493Y-142338472D01*
X133807897Y-142315857D01*
X133758761Y-142283026D01*
X133716974Y-142241239D01*
X133684143Y-142192103D01*
X133661528Y-142137507D01*
X133650000Y-142079547D01*
X133650000Y-142020453D01*
X133661528Y-141962493D01*
X133684143Y-141907897D01*
X133716974Y-141858761D01*
X133758761Y-141816974D01*
X133807897Y-141784143D01*
X133862493Y-141761528D01*
X133920453Y-141750000D01*
X133979547Y-141750000D01*
X134037507Y-141761528D01*
X134037507Y-141761528D01*
G37*
G36*
X119137507Y-141761528D02*
X119192103Y-141784143D01*
X119241239Y-141816974D01*
X119283026Y-141858761D01*
X119315857Y-141907897D01*
X119338472Y-141962493D01*
X119350000Y-142020453D01*
X119350000Y-142079547D01*
X119338472Y-142137507D01*
X119315857Y-142192103D01*
X119283026Y-142241239D01*
X119241239Y-142283026D01*
X119192103Y-142315857D01*
X119137507Y-142338472D01*
X119079547Y-142350000D01*
X119020453Y-142350000D01*
X118962493Y-142338472D01*
X118907897Y-142315857D01*
X118858761Y-142283026D01*
X118816974Y-142241239D01*
X118784143Y-142192103D01*
X118761528Y-142137507D01*
X118750000Y-142079547D01*
X118750000Y-142020453D01*
X118761528Y-141962493D01*
X118784143Y-141907897D01*
X118816974Y-141858761D01*
X118858761Y-141816974D01*
X118907897Y-141784143D01*
X118962493Y-141761528D01*
X119020453Y-141750000D01*
X119079547Y-141750000D01*
X119137507Y-141761528D01*
X119137507Y-141761528D01*
G37*
G36*
X125437507Y-141761528D02*
X125492103Y-141784143D01*
X125541239Y-141816974D01*
X125583026Y-141858761D01*
X125615857Y-141907897D01*
X125638472Y-141962493D01*
X125650000Y-142020453D01*
X125650000Y-142079547D01*
X125638472Y-142137507D01*
X125615857Y-142192103D01*
X125583026Y-142241239D01*
X125541239Y-142283026D01*
X125492103Y-142315857D01*
X125437507Y-142338472D01*
X125379547Y-142350000D01*
X125320453Y-142350000D01*
X125262493Y-142338472D01*
X125207897Y-142315857D01*
X125158761Y-142283026D01*
X125116974Y-142241239D01*
X125084143Y-142192103D01*
X125061528Y-142137507D01*
X125050000Y-142079547D01*
X125050000Y-142020453D01*
X125061528Y-141962493D01*
X125084143Y-141907897D01*
X125116974Y-141858761D01*
X125158761Y-141816974D01*
X125207897Y-141784143D01*
X125262493Y-141761528D01*
X125320453Y-141750000D01*
X125379547Y-141750000D01*
X125437507Y-141761528D01*
X125437507Y-141761528D01*
G37*
G36*
X121337507Y-137661528D02*
X121392103Y-137684143D01*
X121441239Y-137716974D01*
X121483026Y-137758761D01*
X121515857Y-137807897D01*
X121538472Y-137862493D01*
X121550000Y-137920453D01*
X121550000Y-137979547D01*
X121538472Y-138037507D01*
X121515857Y-138092103D01*
X121483026Y-138141239D01*
X121441239Y-138183026D01*
X121392103Y-138215857D01*
X121337507Y-138238472D01*
X121279547Y-138250000D01*
X121220453Y-138250000D01*
X121162493Y-138238472D01*
X121107897Y-138215857D01*
X121058761Y-138183026D01*
X121016974Y-138141239D01*
X120984143Y-138092103D01*
X120961528Y-138037507D01*
X120950000Y-137979547D01*
X120950000Y-137920453D01*
X120961528Y-137862493D01*
X120984143Y-137807897D01*
X121016974Y-137758761D01*
X121058761Y-137716974D01*
X121107897Y-137684143D01*
X121162493Y-137661528D01*
X121220453Y-137650000D01*
X121279547Y-137650000D01*
X121337507Y-137661528D01*
X121337507Y-137661528D01*
G37*
G36*
X138137507Y-137661528D02*
X138192103Y-137684143D01*
X138241239Y-137716974D01*
X138283026Y-137758761D01*
X138315857Y-137807897D01*
X138338472Y-137862493D01*
X138350000Y-137920453D01*
X138350000Y-137979547D01*
X138338472Y-138037507D01*
X138315857Y-138092103D01*
X138283026Y-138141239D01*
X138241239Y-138183026D01*
X138192103Y-138215857D01*
X138137507Y-138238472D01*
X138079547Y-138250000D01*
X138020453Y-138250000D01*
X137962493Y-138238472D01*
X137907897Y-138215857D01*
X137858761Y-138183026D01*
X137816974Y-138141239D01*
X137784143Y-138092103D01*
X137761528Y-138037507D01*
X137750000Y-137979547D01*
X137750000Y-137920453D01*
X137761528Y-137862493D01*
X137784143Y-137807897D01*
X137816974Y-137758761D01*
X137858761Y-137716974D01*
X137907897Y-137684143D01*
X137962493Y-137661528D01*
X138020453Y-137650000D01*
X138079547Y-137650000D01*
X138137507Y-137661528D01*
X138137507Y-137661528D01*
G37*
G36*
X115037507Y-137661528D02*
X115092103Y-137684143D01*
X115141239Y-137716974D01*
X115183026Y-137758761D01*
X115215857Y-137807897D01*
X115238472Y-137862493D01*
X115250000Y-137920453D01*
X115250000Y-137979547D01*
X115238472Y-138037507D01*
X115215857Y-138092103D01*
X115183026Y-138141239D01*
X115141239Y-138183026D01*
X115092103Y-138215857D01*
X115037507Y-138238472D01*
X114979547Y-138250000D01*
X114920453Y-138250000D01*
X114862493Y-138238472D01*
X114807897Y-138215857D01*
X114758761Y-138183026D01*
X114716974Y-138141239D01*
X114684143Y-138092103D01*
X114661528Y-138037507D01*
X114650000Y-137979547D01*
X114650000Y-137920453D01*
X114661528Y-137862493D01*
X114684143Y-137807897D01*
X114716974Y-137758761D01*
X114758761Y-137716974D01*
X114807897Y-137684143D01*
X114862493Y-137661528D01*
X114920453Y-137650000D01*
X114979547Y-137650000D01*
X115037507Y-137661528D01*
X115037507Y-137661528D01*
G37*
G36*
X127637507Y-137661528D02*
X127692103Y-137684143D01*
X127741239Y-137716974D01*
X127783026Y-137758761D01*
X127815857Y-137807897D01*
X127838472Y-137862493D01*
X127850000Y-137920453D01*
X127850000Y-137979547D01*
X127838472Y-138037507D01*
X127815857Y-138092103D01*
X127783026Y-138141239D01*
X127741239Y-138183026D01*
X127692103Y-138215857D01*
X127637507Y-138238472D01*
X127579547Y-138250000D01*
X127520453Y-138250000D01*
X127462493Y-138238472D01*
X127407897Y-138215857D01*
X127358761Y-138183026D01*
X127316974Y-138141239D01*
X127284143Y-138092103D01*
X127261528Y-138037507D01*
X127250000Y-137979547D01*
X127250000Y-137920453D01*
X127261528Y-137862493D01*
X127284143Y-137807897D01*
X127316974Y-137758761D01*
X127358761Y-137716974D01*
X127407897Y-137684143D01*
X127462493Y-137661528D01*
X127520453Y-137650000D01*
X127579547Y-137650000D01*
X127637507Y-137661528D01*
X127637507Y-137661528D01*
G37*
G36*
X139423195Y-133507522D02*
X139472267Y-133517283D01*
X139610942Y-133574724D01*
X139735750Y-133658118D01*
X139841882Y-133764250D01*
X139925276Y-133889058D01*
X139982717Y-134027734D01*
X140012000Y-134174948D01*
X140012000Y-134325052D01*
X139982717Y-134472266D01*
X139925276Y-134610942D01*
X139841882Y-134735750D01*
X139735750Y-134841882D01*
X139735747Y-134841884D01*
X139610942Y-134925276D01*
X139472267Y-134982717D01*
X139423195Y-134992478D01*
X139325052Y-135012000D01*
X139174948Y-135012000D01*
X139076805Y-134992478D01*
X139027733Y-134982717D01*
X138889058Y-134925276D01*
X138764253Y-134841884D01*
X138764250Y-134841882D01*
X138658118Y-134735750D01*
X138574724Y-134610942D01*
X138517283Y-134472266D01*
X138488000Y-134325052D01*
X138488000Y-134174948D01*
X138517283Y-134027734D01*
X138574724Y-133889058D01*
X138658118Y-133764250D01*
X138764250Y-133658118D01*
X138889058Y-133574724D01*
X139027733Y-133517283D01*
X139076805Y-133507522D01*
X139174948Y-133488000D01*
X139325052Y-133488000D01*
X139423195Y-133507522D01*
X139423195Y-133507522D01*
G37*
G36*
X132923195Y-133507522D02*
X132972267Y-133517283D01*
X133110942Y-133574724D01*
X133235750Y-133658118D01*
X133341882Y-133764250D01*
X133425276Y-133889058D01*
X133482717Y-134027734D01*
X133512000Y-134174948D01*
X133512000Y-134325052D01*
X133482717Y-134472266D01*
X133425276Y-134610942D01*
X133341882Y-134735750D01*
X133235750Y-134841882D01*
X133235747Y-134841884D01*
X133110942Y-134925276D01*
X132972267Y-134982717D01*
X132923195Y-134992478D01*
X132825052Y-135012000D01*
X132674948Y-135012000D01*
X132576805Y-134992478D01*
X132527733Y-134982717D01*
X132389058Y-134925276D01*
X132264253Y-134841884D01*
X132264250Y-134841882D01*
X132158118Y-134735750D01*
X132074724Y-134610942D01*
X132017283Y-134472266D01*
X131988000Y-134325052D01*
X131988000Y-134174948D01*
X132017283Y-134027734D01*
X132074724Y-133889058D01*
X132158118Y-133764250D01*
X132264250Y-133658118D01*
X132389058Y-133574724D01*
X132527733Y-133517283D01*
X132576805Y-133507522D01*
X132674948Y-133488000D01*
X132825052Y-133488000D01*
X132923195Y-133507522D01*
X132923195Y-133507522D01*
G37*
G36*
X120423195Y-133507522D02*
X120472267Y-133517283D01*
X120610942Y-133574724D01*
X120735750Y-133658118D01*
X120841882Y-133764250D01*
X120925276Y-133889058D01*
X120982717Y-134027734D01*
X121012000Y-134174948D01*
X121012000Y-134325052D01*
X120982717Y-134472266D01*
X120925276Y-134610942D01*
X120841882Y-134735750D01*
X120735750Y-134841882D01*
X120735747Y-134841884D01*
X120610942Y-134925276D01*
X120472267Y-134982717D01*
X120423195Y-134992478D01*
X120325052Y-135012000D01*
X120174948Y-135012000D01*
X120076805Y-134992478D01*
X120027733Y-134982717D01*
X119889058Y-134925276D01*
X119764253Y-134841884D01*
X119764250Y-134841882D01*
X119658118Y-134735750D01*
X119574724Y-134610942D01*
X119517283Y-134472266D01*
X119488000Y-134325052D01*
X119488000Y-134174948D01*
X119517283Y-134027734D01*
X119574724Y-133889058D01*
X119658118Y-133764250D01*
X119764250Y-133658118D01*
X119889058Y-133574724D01*
X120027733Y-133517283D01*
X120076805Y-133507522D01*
X120174948Y-133488000D01*
X120325052Y-133488000D01*
X120423195Y-133507522D01*
X120423195Y-133507522D01*
G37*
G36*
X113923195Y-133507522D02*
X113972267Y-133517283D01*
X114110942Y-133574724D01*
X114235750Y-133658118D01*
X114341882Y-133764250D01*
X114425276Y-133889058D01*
X114482717Y-134027734D01*
X114512000Y-134174948D01*
X114512000Y-134325052D01*
X114482717Y-134472266D01*
X114425276Y-134610942D01*
X114341882Y-134735750D01*
X114235750Y-134841882D01*
X114235747Y-134841884D01*
X114110942Y-134925276D01*
X113972267Y-134982717D01*
X113923195Y-134992478D01*
X113825052Y-135012000D01*
X113674948Y-135012000D01*
X113576805Y-134992478D01*
X113527733Y-134982717D01*
X113389058Y-134925276D01*
X113264253Y-134841884D01*
X113264250Y-134841882D01*
X113158118Y-134735750D01*
X113074724Y-134610942D01*
X113017283Y-134472266D01*
X112988000Y-134325052D01*
X112988000Y-134174948D01*
X113017283Y-134027734D01*
X113074724Y-133889058D01*
X113158118Y-133764250D01*
X113264250Y-133658118D01*
X113389058Y-133574724D01*
X113527733Y-133517283D01*
X113576805Y-133507522D01*
X113674948Y-133488000D01*
X113825052Y-133488000D01*
X113923195Y-133507522D01*
X113923195Y-133507522D01*
G37*
G36*
X120423195Y-129007522D02*
X120472267Y-129017283D01*
X120610942Y-129074724D01*
X120735750Y-129158118D01*
X120841882Y-129264250D01*
X120925276Y-129389058D01*
X120982717Y-129527734D01*
X121012000Y-129674948D01*
X121012000Y-129825052D01*
X120982717Y-129972266D01*
X120925276Y-130110942D01*
X120841882Y-130235750D01*
X120735750Y-130341882D01*
X120735747Y-130341884D01*
X120610942Y-130425276D01*
X120472267Y-130482717D01*
X120423195Y-130492478D01*
X120325052Y-130512000D01*
X120174948Y-130512000D01*
X120076805Y-130492478D01*
X120027733Y-130482717D01*
X119889058Y-130425276D01*
X119764253Y-130341884D01*
X119764250Y-130341882D01*
X119658118Y-130235750D01*
X119574724Y-130110942D01*
X119517283Y-129972266D01*
X119488000Y-129825052D01*
X119488000Y-129674948D01*
X119517283Y-129527734D01*
X119574724Y-129389058D01*
X119658118Y-129264250D01*
X119764250Y-129158118D01*
X119889058Y-129074724D01*
X120027733Y-129017283D01*
X120076805Y-129007522D01*
X120174948Y-128988000D01*
X120325052Y-128988000D01*
X120423195Y-129007522D01*
X120423195Y-129007522D01*
G37*
G36*
X113923195Y-129007522D02*
X113972267Y-129017283D01*
X114110942Y-129074724D01*
X114235750Y-129158118D01*
X114341882Y-129264250D01*
X114425276Y-129389058D01*
X114482717Y-129527734D01*
X114512000Y-129674948D01*
X114512000Y-129825052D01*
X114482717Y-129972266D01*
X114425276Y-130110942D01*
X114341882Y-130235750D01*
X114235750Y-130341882D01*
X114235747Y-130341884D01*
X114110942Y-130425276D01*
X113972267Y-130482717D01*
X113923195Y-130492478D01*
X113825052Y-130512000D01*
X113674948Y-130512000D01*
X113576805Y-130492478D01*
X113527733Y-130482717D01*
X113389058Y-130425276D01*
X113264253Y-130341884D01*
X113264250Y-130341882D01*
X113158118Y-130235750D01*
X113074724Y-130110942D01*
X113017283Y-129972266D01*
X112988000Y-129825052D01*
X112988000Y-129674948D01*
X113017283Y-129527734D01*
X113074724Y-129389058D01*
X113158118Y-129264250D01*
X113264250Y-129158118D01*
X113389058Y-129074724D01*
X113527733Y-129017283D01*
X113576805Y-129007522D01*
X113674948Y-128988000D01*
X113825052Y-128988000D01*
X113923195Y-129007522D01*
X113923195Y-129007522D01*
G37*
G36*
X139423195Y-129007522D02*
X139472267Y-129017283D01*
X139610942Y-129074724D01*
X139735750Y-129158118D01*
X139841882Y-129264250D01*
X139925276Y-129389058D01*
X139982717Y-129527734D01*
X140012000Y-129674948D01*
X140012000Y-129825052D01*
X139982717Y-129972266D01*
X139925276Y-130110942D01*
X139841882Y-130235750D01*
X139735750Y-130341882D01*
X139735747Y-130341884D01*
X139610942Y-130425276D01*
X139472267Y-130482717D01*
X139423195Y-130492478D01*
X139325052Y-130512000D01*
X139174948Y-130512000D01*
X139076805Y-130492478D01*
X139027733Y-130482717D01*
X138889058Y-130425276D01*
X138764253Y-130341884D01*
X138764250Y-130341882D01*
X138658118Y-130235750D01*
X138574724Y-130110942D01*
X138517283Y-129972266D01*
X138488000Y-129825052D01*
X138488000Y-129674948D01*
X138517283Y-129527734D01*
X138574724Y-129389058D01*
X138658118Y-129264250D01*
X138764250Y-129158118D01*
X138889058Y-129074724D01*
X139027733Y-129017283D01*
X139076805Y-129007522D01*
X139174948Y-128988000D01*
X139325052Y-128988000D01*
X139423195Y-129007522D01*
X139423195Y-129007522D01*
G37*
G36*
X132923195Y-129007522D02*
X132972267Y-129017283D01*
X133110942Y-129074724D01*
X133235750Y-129158118D01*
X133341882Y-129264250D01*
X133425276Y-129389058D01*
X133482717Y-129527734D01*
X133512000Y-129674948D01*
X133512000Y-129825052D01*
X133482717Y-129972266D01*
X133425276Y-130110942D01*
X133341882Y-130235750D01*
X133235750Y-130341882D01*
X133235747Y-130341884D01*
X133110942Y-130425276D01*
X132972267Y-130482717D01*
X132923195Y-130492478D01*
X132825052Y-130512000D01*
X132674948Y-130512000D01*
X132576805Y-130492478D01*
X132527733Y-130482717D01*
X132389058Y-130425276D01*
X132264253Y-130341884D01*
X132264250Y-130341882D01*
X132158118Y-130235750D01*
X132074724Y-130110942D01*
X132017283Y-129972266D01*
X131988000Y-129825052D01*
X131988000Y-129674948D01*
X132017283Y-129527734D01*
X132074724Y-129389058D01*
X132158118Y-129264250D01*
X132264250Y-129158118D01*
X132389058Y-129074724D01*
X132527733Y-129017283D01*
X132576805Y-129007522D01*
X132674948Y-128988000D01*
X132825052Y-128988000D01*
X132923195Y-129007522D01*
X132923195Y-129007522D01*
G37*
G36*
X114647738Y-123866653D02*
X114689598Y-123874979D01*
X114724245Y-123889330D01*
X114807890Y-123923977D01*
X114914354Y-123995114D01*
X115004886Y-124085646D01*
X115076023Y-124192110D01*
X115125021Y-124310403D01*
X115150000Y-124435979D01*
X115150000Y-124564021D01*
X115125021Y-124689597D01*
X115076023Y-124807890D01*
X115004886Y-124914354D01*
X114914354Y-125004886D01*
X114807890Y-125076023D01*
X114724245Y-125110670D01*
X114689598Y-125125021D01*
X114647738Y-125133347D01*
X114564021Y-125150000D01*
X114435979Y-125150000D01*
X114352262Y-125133347D01*
X114310402Y-125125021D01*
X114275755Y-125110670D01*
X114192110Y-125076023D01*
X114085646Y-125004886D01*
X113995114Y-124914354D01*
X113923977Y-124807890D01*
X113874979Y-124689597D01*
X113850000Y-124564021D01*
X113850000Y-124435979D01*
X113874979Y-124310403D01*
X113923977Y-124192110D01*
X113995114Y-124085646D01*
X114085646Y-123995114D01*
X114192110Y-123923977D01*
X114275755Y-123889330D01*
X114310402Y-123874979D01*
X114352262Y-123866653D01*
X114435979Y-123850000D01*
X114564021Y-123850000D01*
X114647738Y-123866653D01*
X114647738Y-123866653D01*
G37*
G36*
X117147738Y-123866653D02*
X117189598Y-123874979D01*
X117224245Y-123889330D01*
X117307890Y-123923977D01*
X117414354Y-123995114D01*
X117504886Y-124085646D01*
X117576023Y-124192110D01*
X117625021Y-124310403D01*
X117650000Y-124435979D01*
X117650000Y-124564021D01*
X117625021Y-124689597D01*
X117576023Y-124807890D01*
X117504886Y-124914354D01*
X117414354Y-125004886D01*
X117307890Y-125076023D01*
X117224245Y-125110670D01*
X117189598Y-125125021D01*
X117147738Y-125133347D01*
X117064021Y-125150000D01*
X116935979Y-125150000D01*
X116852262Y-125133347D01*
X116810402Y-125125021D01*
X116775755Y-125110670D01*
X116692110Y-125076023D01*
X116585646Y-125004886D01*
X116495114Y-124914354D01*
X116423977Y-124807890D01*
X116374979Y-124689597D01*
X116350000Y-124564021D01*
X116350000Y-124435979D01*
X116374979Y-124310403D01*
X116423977Y-124192110D01*
X116495114Y-124085646D01*
X116585646Y-123995114D01*
X116692110Y-123923977D01*
X116775755Y-123889330D01*
X116810402Y-123874979D01*
X116852262Y-123866653D01*
X116935979Y-123850000D01*
X117064021Y-123850000D01*
X117147738Y-123866653D01*
X117147738Y-123866653D01*
G37*
G36*
X133647738Y-123866653D02*
X133689598Y-123874979D01*
X133724245Y-123889330D01*
X133807890Y-123923977D01*
X133914354Y-123995114D01*
X134004886Y-124085646D01*
X134076023Y-124192110D01*
X134125021Y-124310403D01*
X134150000Y-124435979D01*
X134150000Y-124564021D01*
X134125021Y-124689597D01*
X134076023Y-124807890D01*
X134004886Y-124914354D01*
X133914354Y-125004886D01*
X133807890Y-125076023D01*
X133724245Y-125110670D01*
X133689598Y-125125021D01*
X133647738Y-125133347D01*
X133564021Y-125150000D01*
X133435979Y-125150000D01*
X133352262Y-125133347D01*
X133310402Y-125125021D01*
X133275755Y-125110670D01*
X133192110Y-125076023D01*
X133085646Y-125004886D01*
X132995114Y-124914354D01*
X132923977Y-124807890D01*
X132874979Y-124689597D01*
X132850000Y-124564021D01*
X132850000Y-124435979D01*
X132874979Y-124310403D01*
X132923977Y-124192110D01*
X132995114Y-124085646D01*
X133085646Y-123995114D01*
X133192110Y-123923977D01*
X133275755Y-123889330D01*
X133310402Y-123874979D01*
X133352262Y-123866653D01*
X133435979Y-123850000D01*
X133564021Y-123850000D01*
X133647738Y-123866653D01*
X133647738Y-123866653D01*
G37*
G36*
X136147738Y-123866653D02*
X136189598Y-123874979D01*
X136224245Y-123889330D01*
X136307890Y-123923977D01*
X136414354Y-123995114D01*
X136504886Y-124085646D01*
X136576023Y-124192110D01*
X136625021Y-124310403D01*
X136650000Y-124435979D01*
X136650000Y-124564021D01*
X136625021Y-124689597D01*
X136576023Y-124807890D01*
X136504886Y-124914354D01*
X136414354Y-125004886D01*
X136307890Y-125076023D01*
X136224245Y-125110670D01*
X136189598Y-125125021D01*
X136147738Y-125133347D01*
X136064021Y-125150000D01*
X135935979Y-125150000D01*
X135852262Y-125133347D01*
X135810402Y-125125021D01*
X135775755Y-125110670D01*
X135692110Y-125076023D01*
X135585646Y-125004886D01*
X135495114Y-124914354D01*
X135423977Y-124807890D01*
X135374979Y-124689597D01*
X135350000Y-124564021D01*
X135350000Y-124435979D01*
X135374979Y-124310403D01*
X135423977Y-124192110D01*
X135495114Y-124085646D01*
X135585646Y-123995114D01*
X135692110Y-123923977D01*
X135775755Y-123889330D01*
X135810402Y-123874979D01*
X135852262Y-123866653D01*
X135935979Y-123850000D01*
X136064021Y-123850000D01*
X136147738Y-123866653D01*
X136147738Y-123866653D01*
G37*
G36*
X138647738Y-123866653D02*
X138689598Y-123874979D01*
X138724245Y-123889330D01*
X138807890Y-123923977D01*
X138914354Y-123995114D01*
X139004886Y-124085646D01*
X139076023Y-124192110D01*
X139125021Y-124310403D01*
X139150000Y-124435979D01*
X139150000Y-124564021D01*
X139125021Y-124689597D01*
X139076023Y-124807890D01*
X139004886Y-124914354D01*
X138914354Y-125004886D01*
X138807890Y-125076023D01*
X138724245Y-125110670D01*
X138689598Y-125125021D01*
X138647738Y-125133347D01*
X138564021Y-125150000D01*
X138435979Y-125150000D01*
X138352262Y-125133347D01*
X138310402Y-125125021D01*
X138275755Y-125110670D01*
X138192110Y-125076023D01*
X138085646Y-125004886D01*
X137995114Y-124914354D01*
X137923977Y-124807890D01*
X137874979Y-124689597D01*
X137850000Y-124564021D01*
X137850000Y-124435979D01*
X137874979Y-124310403D01*
X137923977Y-124192110D01*
X137995114Y-124085646D01*
X138085646Y-123995114D01*
X138192110Y-123923977D01*
X138275755Y-123889330D01*
X138310402Y-123874979D01*
X138352262Y-123866653D01*
X138435979Y-123850000D01*
X138564021Y-123850000D01*
X138647738Y-123866653D01*
X138647738Y-123866653D01*
G37*
G36*
X119647738Y-123866653D02*
X119689598Y-123874979D01*
X119724245Y-123889330D01*
X119807890Y-123923977D01*
X119914354Y-123995114D01*
X120004886Y-124085646D01*
X120076023Y-124192110D01*
X120125021Y-124310403D01*
X120150000Y-124435979D01*
X120150000Y-124564021D01*
X120125021Y-124689597D01*
X120076023Y-124807890D01*
X120004886Y-124914354D01*
X119914354Y-125004886D01*
X119807890Y-125076023D01*
X119724245Y-125110670D01*
X119689598Y-125125021D01*
X119647738Y-125133347D01*
X119564021Y-125150000D01*
X119435979Y-125150000D01*
X119352262Y-125133347D01*
X119310402Y-125125021D01*
X119275755Y-125110670D01*
X119192110Y-125076023D01*
X119085646Y-125004886D01*
X118995114Y-124914354D01*
X118923977Y-124807890D01*
X118874979Y-124689597D01*
X118850000Y-124564021D01*
X118850000Y-124435979D01*
X118874979Y-124310403D01*
X118923977Y-124192110D01*
X118995114Y-124085646D01*
X119085646Y-123995114D01*
X119192110Y-123923977D01*
X119275755Y-123889330D01*
X119310402Y-123874979D01*
X119352262Y-123866653D01*
X119435979Y-123850000D01*
X119564021Y-123850000D01*
X119647738Y-123866653D01*
X119647738Y-123866653D01*
G37*
G36*
X131375770Y-116015372D02*
X131491689Y-116038429D01*
X131673678Y-116113811D01*
X131837463Y-116223249D01*
X131976751Y-116362537D01*
X132086189Y-116526322D01*
X132161571Y-116708311D01*
X132200000Y-116901509D01*
X132200000Y-117098491D01*
X132161571Y-117291689D01*
X132086189Y-117473678D01*
X131976751Y-117637463D01*
X131837463Y-117776751D01*
X131673678Y-117886189D01*
X131491689Y-117961571D01*
X131375770Y-117984628D01*
X131298493Y-118000000D01*
X131101507Y-118000000D01*
X131024230Y-117984628D01*
X130908311Y-117961571D01*
X130726322Y-117886189D01*
X130562537Y-117776751D01*
X130423249Y-117637463D01*
X130313811Y-117473678D01*
X130238429Y-117291689D01*
X130200000Y-117098491D01*
X130200000Y-116901509D01*
X130238429Y-116708311D01*
X130313811Y-116526322D01*
X130423249Y-116362537D01*
X130562537Y-116223249D01*
X130726322Y-116113811D01*
X130908311Y-116038429D01*
X131024230Y-116015372D01*
X131101507Y-116000000D01*
X131298493Y-116000000D01*
X131375770Y-116015372D01*
X131375770Y-116015372D01*
G37*
G36*
X140975770Y-116015372D02*
X141091689Y-116038429D01*
X141273678Y-116113811D01*
X141437463Y-116223249D01*
X141576751Y-116362537D01*
X141686189Y-116526322D01*
X141761571Y-116708311D01*
X141800000Y-116901509D01*
X141800000Y-117098491D01*
X141761571Y-117291689D01*
X141686189Y-117473678D01*
X141576751Y-117637463D01*
X141437463Y-117776751D01*
X141273678Y-117886189D01*
X141091689Y-117961571D01*
X140975770Y-117984628D01*
X140898493Y-118000000D01*
X140701507Y-118000000D01*
X140624230Y-117984628D01*
X140508311Y-117961571D01*
X140326322Y-117886189D01*
X140162537Y-117776751D01*
X140023249Y-117637463D01*
X139913811Y-117473678D01*
X139838429Y-117291689D01*
X139800000Y-117098491D01*
X139800000Y-116901509D01*
X139838429Y-116708311D01*
X139913811Y-116526322D01*
X140023249Y-116362537D01*
X140162537Y-116223249D01*
X140326322Y-116113811D01*
X140508311Y-116038429D01*
X140624230Y-116015372D01*
X140701507Y-116000000D01*
X140898493Y-116000000D01*
X140975770Y-116015372D01*
X140975770Y-116015372D01*
G37*
G36*
X121975770Y-116015372D02*
X122091689Y-116038429D01*
X122273678Y-116113811D01*
X122437463Y-116223249D01*
X122576751Y-116362537D01*
X122686189Y-116526322D01*
X122761571Y-116708311D01*
X122800000Y-116901509D01*
X122800000Y-117098491D01*
X122761571Y-117291689D01*
X122686189Y-117473678D01*
X122576751Y-117637463D01*
X122437463Y-117776751D01*
X122273678Y-117886189D01*
X122091689Y-117961571D01*
X121975770Y-117984628D01*
X121898493Y-118000000D01*
X121701507Y-118000000D01*
X121624230Y-117984628D01*
X121508311Y-117961571D01*
X121326322Y-117886189D01*
X121162537Y-117776751D01*
X121023249Y-117637463D01*
X120913811Y-117473678D01*
X120838429Y-117291689D01*
X120800000Y-117098491D01*
X120800000Y-116901509D01*
X120838429Y-116708311D01*
X120913811Y-116526322D01*
X121023249Y-116362537D01*
X121162537Y-116223249D01*
X121326322Y-116113811D01*
X121508311Y-116038429D01*
X121624230Y-116015372D01*
X121701507Y-116000000D01*
X121898493Y-116000000D01*
X121975770Y-116015372D01*
X121975770Y-116015372D01*
G37*
G36*
X112375770Y-116015372D02*
X112491689Y-116038429D01*
X112673678Y-116113811D01*
X112837463Y-116223249D01*
X112976751Y-116362537D01*
X113086189Y-116526322D01*
X113161571Y-116708311D01*
X113200000Y-116901509D01*
X113200000Y-117098491D01*
X113161571Y-117291689D01*
X113086189Y-117473678D01*
X112976751Y-117637463D01*
X112837463Y-117776751D01*
X112673678Y-117886189D01*
X112491689Y-117961571D01*
X112375770Y-117984628D01*
X112298493Y-118000000D01*
X112101507Y-118000000D01*
X112024230Y-117984628D01*
X111908311Y-117961571D01*
X111726322Y-117886189D01*
X111562537Y-117776751D01*
X111423249Y-117637463D01*
X111313811Y-117473678D01*
X111238429Y-117291689D01*
X111200000Y-117098491D01*
X111200000Y-116901509D01*
X111238429Y-116708311D01*
X111313811Y-116526322D01*
X111423249Y-116362537D01*
X111562537Y-116223249D01*
X111726322Y-116113811D01*
X111908311Y-116038429D01*
X112024230Y-116015372D01*
X112101507Y-116000000D01*
X112298493Y-116000000D01*
X112375770Y-116015372D01*
X112375770Y-116015372D01*
G37*
G36*
X133647738Y-103866653D02*
X133689598Y-103874979D01*
X133724245Y-103889330D01*
X133807890Y-103923977D01*
X133914354Y-103995114D01*
X134004886Y-104085646D01*
X134076023Y-104192110D01*
X134125021Y-104310403D01*
X134150000Y-104435979D01*
X134150000Y-104564021D01*
X134125021Y-104689597D01*
X134076023Y-104807890D01*
X134004886Y-104914354D01*
X133914354Y-105004886D01*
X133807890Y-105076023D01*
X133724245Y-105110670D01*
X133689598Y-105125021D01*
X133647738Y-105133347D01*
X133564021Y-105150000D01*
X133435979Y-105150000D01*
X133352262Y-105133347D01*
X133310402Y-105125021D01*
X133275755Y-105110670D01*
X133192110Y-105076023D01*
X133085646Y-105004886D01*
X132995114Y-104914354D01*
X132923977Y-104807890D01*
X132874979Y-104689597D01*
X132850000Y-104564021D01*
X132850000Y-104435979D01*
X132874979Y-104310403D01*
X132923977Y-104192110D01*
X132995114Y-104085646D01*
X133085646Y-103995114D01*
X133192110Y-103923977D01*
X133275755Y-103889330D01*
X133310402Y-103874979D01*
X133352262Y-103866653D01*
X133435979Y-103850000D01*
X133564021Y-103850000D01*
X133647738Y-103866653D01*
X133647738Y-103866653D01*
G37*
G36*
X138647738Y-103866653D02*
X138689598Y-103874979D01*
X138724245Y-103889330D01*
X138807890Y-103923977D01*
X138914354Y-103995114D01*
X139004886Y-104085646D01*
X139076023Y-104192110D01*
X139125021Y-104310403D01*
X139150000Y-104435979D01*
X139150000Y-104564021D01*
X139125021Y-104689597D01*
X139076023Y-104807890D01*
X139004886Y-104914354D01*
X138914354Y-105004886D01*
X138807890Y-105076023D01*
X138724245Y-105110670D01*
X138689598Y-105125021D01*
X138647738Y-105133347D01*
X138564021Y-105150000D01*
X138435979Y-105150000D01*
X138352262Y-105133347D01*
X138310402Y-105125021D01*
X138275755Y-105110670D01*
X138192110Y-105076023D01*
X138085646Y-105004886D01*
X137995114Y-104914354D01*
X137923977Y-104807890D01*
X137874979Y-104689597D01*
X137850000Y-104564021D01*
X137850000Y-104435979D01*
X137874979Y-104310403D01*
X137923977Y-104192110D01*
X137995114Y-104085646D01*
X138085646Y-103995114D01*
X138192110Y-103923977D01*
X138275755Y-103889330D01*
X138310402Y-103874979D01*
X138352262Y-103866653D01*
X138435979Y-103850000D01*
X138564021Y-103850000D01*
X138647738Y-103866653D01*
X138647738Y-103866653D01*
G37*
G36*
X119647738Y-103866653D02*
X119689598Y-103874979D01*
X119724245Y-103889330D01*
X119807890Y-103923977D01*
X119914354Y-103995114D01*
X120004886Y-104085646D01*
X120076023Y-104192110D01*
X120125021Y-104310403D01*
X120150000Y-104435979D01*
X120150000Y-104564021D01*
X120125021Y-104689597D01*
X120076023Y-104807890D01*
X120004886Y-104914354D01*
X119914354Y-105004886D01*
X119807890Y-105076023D01*
X119724245Y-105110670D01*
X119689598Y-105125021D01*
X119647738Y-105133347D01*
X119564021Y-105150000D01*
X119435979Y-105150000D01*
X119352262Y-105133347D01*
X119310402Y-105125021D01*
X119275755Y-105110670D01*
X119192110Y-105076023D01*
X119085646Y-105004886D01*
X118995114Y-104914354D01*
X118923977Y-104807890D01*
X118874979Y-104689597D01*
X118850000Y-104564021D01*
X118850000Y-104435979D01*
X118874979Y-104310403D01*
X118923977Y-104192110D01*
X118995114Y-104085646D01*
X119085646Y-103995114D01*
X119192110Y-103923977D01*
X119275755Y-103889330D01*
X119310402Y-103874979D01*
X119352262Y-103866653D01*
X119435979Y-103850000D01*
X119564021Y-103850000D01*
X119647738Y-103866653D01*
X119647738Y-103866653D01*
G37*
G36*
X117147738Y-103866653D02*
X117189598Y-103874979D01*
X117224245Y-103889330D01*
X117307890Y-103923977D01*
X117414354Y-103995114D01*
X117504886Y-104085646D01*
X117576023Y-104192110D01*
X117625021Y-104310403D01*
X117650000Y-104435979D01*
X117650000Y-104564021D01*
X117625021Y-104689597D01*
X117576023Y-104807890D01*
X117504886Y-104914354D01*
X117414354Y-105004886D01*
X117307890Y-105076023D01*
X117224245Y-105110670D01*
X117189598Y-105125021D01*
X117147738Y-105133347D01*
X117064021Y-105150000D01*
X116935979Y-105150000D01*
X116852262Y-105133347D01*
X116810402Y-105125021D01*
X116775755Y-105110670D01*
X116692110Y-105076023D01*
X116585646Y-105004886D01*
X116495114Y-104914354D01*
X116423977Y-104807890D01*
X116374979Y-104689597D01*
X116350000Y-104564021D01*
X116350000Y-104435979D01*
X116374979Y-104310403D01*
X116423977Y-104192110D01*
X116495114Y-104085646D01*
X116585646Y-103995114D01*
X116692110Y-103923977D01*
X116775755Y-103889330D01*
X116810402Y-103874979D01*
X116852262Y-103866653D01*
X116935979Y-103850000D01*
X117064021Y-103850000D01*
X117147738Y-103866653D01*
X117147738Y-103866653D01*
G37*
G36*
X114647738Y-103866653D02*
X114689598Y-103874979D01*
X114724245Y-103889330D01*
X114807890Y-103923977D01*
X114914354Y-103995114D01*
X115004886Y-104085646D01*
X115076023Y-104192110D01*
X115125021Y-104310403D01*
X115150000Y-104435979D01*
X115150000Y-104564021D01*
X115125021Y-104689597D01*
X115076023Y-104807890D01*
X115004886Y-104914354D01*
X114914354Y-105004886D01*
X114807890Y-105076023D01*
X114724245Y-105110670D01*
X114689598Y-105125021D01*
X114647738Y-105133347D01*
X114564021Y-105150000D01*
X114435979Y-105150000D01*
X114352262Y-105133347D01*
X114310402Y-105125021D01*
X114275755Y-105110670D01*
X114192110Y-105076023D01*
X114085646Y-105004886D01*
X113995114Y-104914354D01*
X113923977Y-104807890D01*
X113874979Y-104689597D01*
X113850000Y-104564021D01*
X113850000Y-104435979D01*
X113874979Y-104310403D01*
X113923977Y-104192110D01*
X113995114Y-104085646D01*
X114085646Y-103995114D01*
X114192110Y-103923977D01*
X114275755Y-103889330D01*
X114310402Y-103874979D01*
X114352262Y-103866653D01*
X114435979Y-103850000D01*
X114564021Y-103850000D01*
X114647738Y-103866653D01*
X114647738Y-103866653D01*
G37*
G36*
X136147738Y-103866653D02*
X136189598Y-103874979D01*
X136224245Y-103889330D01*
X136307890Y-103923977D01*
X136414354Y-103995114D01*
X136504886Y-104085646D01*
X136576023Y-104192110D01*
X136625021Y-104310403D01*
X136650000Y-104435979D01*
X136650000Y-104564021D01*
X136625021Y-104689597D01*
X136576023Y-104807890D01*
X136504886Y-104914354D01*
X136414354Y-105004886D01*
X136307890Y-105076023D01*
X136224245Y-105110670D01*
X136189598Y-105125021D01*
X136147738Y-105133347D01*
X136064021Y-105150000D01*
X135935979Y-105150000D01*
X135852262Y-105133347D01*
X135810402Y-105125021D01*
X135775755Y-105110670D01*
X135692110Y-105076023D01*
X135585646Y-105004886D01*
X135495114Y-104914354D01*
X135423977Y-104807890D01*
X135374979Y-104689597D01*
X135350000Y-104564021D01*
X135350000Y-104435979D01*
X135374979Y-104310403D01*
X135423977Y-104192110D01*
X135495114Y-104085646D01*
X135585646Y-103995114D01*
X135692110Y-103923977D01*
X135775755Y-103889330D01*
X135810402Y-103874979D01*
X135852262Y-103866653D01*
X135935979Y-103850000D01*
X136064021Y-103850000D01*
X136147738Y-103866653D01*
X136147738Y-103866653D01*
G37*
G36*
X112375770Y-96015372D02*
X112491689Y-96038429D01*
X112673678Y-96113811D01*
X112837463Y-96223249D01*
X112976751Y-96362537D01*
X113086189Y-96526322D01*
X113161571Y-96708311D01*
X113200000Y-96901509D01*
X113200000Y-97098491D01*
X113161571Y-97291689D01*
X113086189Y-97473678D01*
X112976751Y-97637463D01*
X112837463Y-97776751D01*
X112673678Y-97886189D01*
X112491689Y-97961571D01*
X112375770Y-97984628D01*
X112298493Y-98000000D01*
X112101507Y-98000000D01*
X112024230Y-97984628D01*
X111908311Y-97961571D01*
X111726322Y-97886189D01*
X111562537Y-97776751D01*
X111423249Y-97637463D01*
X111313811Y-97473678D01*
X111238429Y-97291689D01*
X111200000Y-97098491D01*
X111200000Y-96901509D01*
X111238429Y-96708311D01*
X111313811Y-96526322D01*
X111423249Y-96362537D01*
X111562537Y-96223249D01*
X111726322Y-96113811D01*
X111908311Y-96038429D01*
X112024230Y-96015372D01*
X112101507Y-96000000D01*
X112298493Y-96000000D01*
X112375770Y-96015372D01*
X112375770Y-96015372D01*
G37*
G36*
X121975770Y-96015372D02*
X122091689Y-96038429D01*
X122273678Y-96113811D01*
X122437463Y-96223249D01*
X122576751Y-96362537D01*
X122686189Y-96526322D01*
X122761571Y-96708311D01*
X122800000Y-96901509D01*
X122800000Y-97098491D01*
X122761571Y-97291689D01*
X122686189Y-97473678D01*
X122576751Y-97637463D01*
X122437463Y-97776751D01*
X122273678Y-97886189D01*
X122091689Y-97961571D01*
X121975770Y-97984628D01*
X121898493Y-98000000D01*
X121701507Y-98000000D01*
X121624230Y-97984628D01*
X121508311Y-97961571D01*
X121326322Y-97886189D01*
X121162537Y-97776751D01*
X121023249Y-97637463D01*
X120913811Y-97473678D01*
X120838429Y-97291689D01*
X120800000Y-97098491D01*
X120800000Y-96901509D01*
X120838429Y-96708311D01*
X120913811Y-96526322D01*
X121023249Y-96362537D01*
X121162537Y-96223249D01*
X121326322Y-96113811D01*
X121508311Y-96038429D01*
X121624230Y-96015372D01*
X121701507Y-96000000D01*
X121898493Y-96000000D01*
X121975770Y-96015372D01*
X121975770Y-96015372D01*
G37*
G36*
X140975770Y-96015372D02*
X141091689Y-96038429D01*
X141273678Y-96113811D01*
X141437463Y-96223249D01*
X141576751Y-96362537D01*
X141686189Y-96526322D01*
X141761571Y-96708311D01*
X141800000Y-96901509D01*
X141800000Y-97098491D01*
X141761571Y-97291689D01*
X141686189Y-97473678D01*
X141576751Y-97637463D01*
X141437463Y-97776751D01*
X141273678Y-97886189D01*
X141091689Y-97961571D01*
X140975770Y-97984628D01*
X140898493Y-98000000D01*
X140701507Y-98000000D01*
X140624230Y-97984628D01*
X140508311Y-97961571D01*
X140326322Y-97886189D01*
X140162537Y-97776751D01*
X140023249Y-97637463D01*
X139913811Y-97473678D01*
X139838429Y-97291689D01*
X139800000Y-97098491D01*
X139800000Y-96901509D01*
X139838429Y-96708311D01*
X139913811Y-96526322D01*
X140023249Y-96362537D01*
X140162537Y-96223249D01*
X140326322Y-96113811D01*
X140508311Y-96038429D01*
X140624230Y-96015372D01*
X140701507Y-96000000D01*
X140898493Y-96000000D01*
X140975770Y-96015372D01*
X140975770Y-96015372D01*
G37*
G36*
X131375770Y-96015372D02*
X131491689Y-96038429D01*
X131673678Y-96113811D01*
X131837463Y-96223249D01*
X131976751Y-96362537D01*
X132086189Y-96526322D01*
X132161571Y-96708311D01*
X132200000Y-96901509D01*
X132200000Y-97098491D01*
X132161571Y-97291689D01*
X132086189Y-97473678D01*
X131976751Y-97637463D01*
X131837463Y-97776751D01*
X131673678Y-97886189D01*
X131491689Y-97961571D01*
X131375770Y-97984628D01*
X131298493Y-98000000D01*
X131101507Y-98000000D01*
X131024230Y-97984628D01*
X130908311Y-97961571D01*
X130726322Y-97886189D01*
X130562537Y-97776751D01*
X130423249Y-97637463D01*
X130313811Y-97473678D01*
X130238429Y-97291689D01*
X130200000Y-97098491D01*
X130200000Y-96901509D01*
X130238429Y-96708311D01*
X130313811Y-96526322D01*
X130423249Y-96362537D01*
X130562537Y-96223249D01*
X130726322Y-96113811D01*
X130908311Y-96038429D01*
X131024230Y-96015372D01*
X131101507Y-96000000D01*
X131298493Y-96000000D01*
X131375770Y-96015372D01*
X131375770Y-96015372D01*
G37*
G36*
X136262521Y-82614586D02*
X136426309Y-82682429D01*
X136573720Y-82780926D01*
X136699074Y-82906280D01*
X136797571Y-83053691D01*
X136865414Y-83217479D01*
X136900000Y-83391356D01*
X136900000Y-83568644D01*
X136865414Y-83742521D01*
X136797571Y-83906309D01*
X136699074Y-84053720D01*
X136573720Y-84179074D01*
X136426309Y-84277571D01*
X136262521Y-84345414D01*
X136088644Y-84380000D01*
X135911356Y-84380000D01*
X135737479Y-84345414D01*
X135573691Y-84277571D01*
X135426280Y-84179074D01*
X135300926Y-84053720D01*
X135202429Y-83906309D01*
X135134586Y-83742521D01*
X135100000Y-83568644D01*
X135100000Y-83391356D01*
X135134586Y-83217479D01*
X135202429Y-83053691D01*
X135300926Y-82906280D01*
X135426280Y-82780926D01*
X135573691Y-82682429D01*
X135737479Y-82614586D01*
X135911356Y-82580000D01*
X136088644Y-82580000D01*
X136262521Y-82614586D01*
X136262521Y-82614586D01*
G37*
G36*
X117262521Y-82614586D02*
X117426309Y-82682429D01*
X117573720Y-82780926D01*
X117699074Y-82906280D01*
X117797571Y-83053691D01*
X117865414Y-83217479D01*
X117900000Y-83391356D01*
X117900000Y-83568644D01*
X117865414Y-83742521D01*
X117797571Y-83906309D01*
X117699074Y-84053720D01*
X117573720Y-84179074D01*
X117426309Y-84277571D01*
X117262521Y-84345414D01*
X117088644Y-84380000D01*
X116911356Y-84380000D01*
X116737479Y-84345414D01*
X116573691Y-84277571D01*
X116426280Y-84179074D01*
X116300926Y-84053720D01*
X116202429Y-83906309D01*
X116134586Y-83742521D01*
X116100000Y-83568644D01*
X116100000Y-83391356D01*
X116134586Y-83217479D01*
X116202429Y-83053691D01*
X116300926Y-82906280D01*
X116426280Y-82780926D01*
X116573691Y-82682429D01*
X116737479Y-82614586D01*
X116911356Y-82580000D01*
X117088644Y-82580000D01*
X117262521Y-82614586D01*
X117262521Y-82614586D01*
G37*
G36*
X136262521Y-79514586D02*
X136426309Y-79582429D01*
X136573720Y-79680926D01*
X136699074Y-79806280D01*
X136797571Y-79953691D01*
X136865414Y-80117479D01*
X136900000Y-80291356D01*
X136900000Y-80468644D01*
X136865414Y-80642521D01*
X136797571Y-80806309D01*
X136699074Y-80953720D01*
X136573720Y-81079074D01*
X136426309Y-81177571D01*
X136262521Y-81245414D01*
X136088644Y-81280000D01*
X135911356Y-81280000D01*
X135737479Y-81245414D01*
X135573691Y-81177571D01*
X135426280Y-81079074D01*
X135300926Y-80953720D01*
X135202429Y-80806309D01*
X135134586Y-80642521D01*
X135100000Y-80468644D01*
X135100000Y-80291356D01*
X135134586Y-80117479D01*
X135202429Y-79953691D01*
X135300926Y-79806280D01*
X135426280Y-79680926D01*
X135573691Y-79582429D01*
X135737479Y-79514586D01*
X135911356Y-79480000D01*
X136088644Y-79480000D01*
X136262521Y-79514586D01*
X136262521Y-79514586D01*
G37*
G36*
X117262521Y-79514586D02*
X117426309Y-79582429D01*
X117573720Y-79680926D01*
X117699074Y-79806280D01*
X117797571Y-79953691D01*
X117865414Y-80117479D01*
X117900000Y-80291356D01*
X117900000Y-80468644D01*
X117865414Y-80642521D01*
X117797571Y-80806309D01*
X117699074Y-80953720D01*
X117573720Y-81079074D01*
X117426309Y-81177571D01*
X117262521Y-81245414D01*
X117088644Y-81280000D01*
X116911356Y-81280000D01*
X116737479Y-81245414D01*
X116573691Y-81177571D01*
X116426280Y-81079074D01*
X116300926Y-80953720D01*
X116202429Y-80806309D01*
X116134586Y-80642521D01*
X116100000Y-80468644D01*
X116100000Y-80291356D01*
X116134586Y-80117479D01*
X116202429Y-79953691D01*
X116300926Y-79806280D01*
X116426280Y-79680926D01*
X116573691Y-79582429D01*
X116737479Y-79514586D01*
X116911356Y-79480000D01*
X117088644Y-79480000D01*
X117262521Y-79514586D01*
X117262521Y-79514586D01*
G37*
G36*
X117262521Y-71214586D02*
X117426309Y-71282429D01*
X117573720Y-71380926D01*
X117699074Y-71506280D01*
X117797571Y-71653691D01*
X117865414Y-71817479D01*
X117900000Y-71991356D01*
X117900000Y-72168644D01*
X117865414Y-72342521D01*
X117797571Y-72506309D01*
X117699074Y-72653720D01*
X117573720Y-72779074D01*
X117426309Y-72877571D01*
X117262521Y-72945414D01*
X117088644Y-72980000D01*
X116911356Y-72980000D01*
X116737479Y-72945414D01*
X116573691Y-72877571D01*
X116426280Y-72779074D01*
X116300926Y-72653720D01*
X116202429Y-72506309D01*
X116134586Y-72342521D01*
X116100000Y-72168644D01*
X116100000Y-71991356D01*
X116134586Y-71817479D01*
X116202429Y-71653691D01*
X116300926Y-71506280D01*
X116426280Y-71380926D01*
X116573691Y-71282429D01*
X116737479Y-71214586D01*
X116911356Y-71180000D01*
X117088644Y-71180000D01*
X117262521Y-71214586D01*
X117262521Y-71214586D01*
G37*
G36*
X136262521Y-71214586D02*
X136426309Y-71282429D01*
X136573720Y-71380926D01*
X136699074Y-71506280D01*
X136797571Y-71653691D01*
X136865414Y-71817479D01*
X136900000Y-71991356D01*
X136900000Y-72168644D01*
X136865414Y-72342521D01*
X136797571Y-72506309D01*
X136699074Y-72653720D01*
X136573720Y-72779074D01*
X136426309Y-72877571D01*
X136262521Y-72945414D01*
X136088644Y-72980000D01*
X135911356Y-72980000D01*
X135737479Y-72945414D01*
X135573691Y-72877571D01*
X135426280Y-72779074D01*
X135300926Y-72653720D01*
X135202429Y-72506309D01*
X135134586Y-72342521D01*
X135100000Y-72168644D01*
X135100000Y-71991356D01*
X135134586Y-71817479D01*
X135202429Y-71653691D01*
X135300926Y-71506280D01*
X135426280Y-71380926D01*
X135573691Y-71282429D01*
X135737479Y-71214586D01*
X135911356Y-71180000D01*
X136088644Y-71180000D01*
X136262521Y-71214586D01*
X136262521Y-71214586D01*
G37*
G36*
X117706630Y-62662299D02*
X117866855Y-62710903D01*
X118014520Y-62789831D01*
X118143949Y-62896051D01*
X118250169Y-63025480D01*
X118329097Y-63173145D01*
X118377701Y-63333370D01*
X118394112Y-63500000D01*
X118377701Y-63666630D01*
X118329097Y-63826855D01*
X118250169Y-63974520D01*
X118143949Y-64103949D01*
X118014520Y-64210169D01*
X117866855Y-64289097D01*
X117706630Y-64337701D01*
X117581752Y-64350000D01*
X117498248Y-64350000D01*
X117373370Y-64337701D01*
X117213145Y-64289097D01*
X117065480Y-64210169D01*
X116936051Y-64103949D01*
X116829831Y-63974520D01*
X116750903Y-63826855D01*
X116702299Y-63666630D01*
X116685888Y-63500000D01*
X116702299Y-63333370D01*
X116750903Y-63173145D01*
X116829831Y-63025480D01*
X116936051Y-62896051D01*
X117065480Y-62789831D01*
X117213145Y-62710903D01*
X117373370Y-62662299D01*
X117498248Y-62650000D01*
X117581752Y-62650000D01*
X117706630Y-62662299D01*
X117706630Y-62662299D01*
G37*
G36*
X120246630Y-62662299D02*
X120406855Y-62710903D01*
X120554520Y-62789831D01*
X120683949Y-62896051D01*
X120790169Y-63025480D01*
X120869097Y-63173145D01*
X120917701Y-63333370D01*
X120934112Y-63500000D01*
X120917701Y-63666630D01*
X120869097Y-63826855D01*
X120790169Y-63974520D01*
X120683949Y-64103949D01*
X120554520Y-64210169D01*
X120406855Y-64289097D01*
X120246630Y-64337701D01*
X120121752Y-64350000D01*
X120038248Y-64350000D01*
X119913370Y-64337701D01*
X119753145Y-64289097D01*
X119605480Y-64210169D01*
X119476051Y-64103949D01*
X119369831Y-63974520D01*
X119290903Y-63826855D01*
X119242299Y-63666630D01*
X119225888Y-63500000D01*
X119242299Y-63333370D01*
X119290903Y-63173145D01*
X119369831Y-63025480D01*
X119476051Y-62896051D01*
X119605480Y-62789831D01*
X119753145Y-62710903D01*
X119913370Y-62662299D01*
X120038248Y-62650000D01*
X120121752Y-62650000D01*
X120246630Y-62662299D01*
X120246630Y-62662299D01*
G37*
G36*
X115850000Y-64350000D02*
X114150000Y-64350000D01*
X114150000Y-62650000D01*
X115850000Y-62650000D01*
X115850000Y-64350000D01*
X115850000Y-64350000D01*
G37*
G36*
X125326630Y-62662299D02*
X125486855Y-62710903D01*
X125634520Y-62789831D01*
X125763949Y-62896051D01*
X125870169Y-63025480D01*
X125949097Y-63173145D01*
X125997701Y-63333370D01*
X126014112Y-63500000D01*
X125997701Y-63666630D01*
X125949097Y-63826855D01*
X125870169Y-63974520D01*
X125763949Y-64103949D01*
X125634520Y-64210169D01*
X125486855Y-64289097D01*
X125326630Y-64337701D01*
X125201752Y-64350000D01*
X125118248Y-64350000D01*
X124993370Y-64337701D01*
X124833145Y-64289097D01*
X124685480Y-64210169D01*
X124556051Y-64103949D01*
X124449831Y-63974520D01*
X124370903Y-63826855D01*
X124322299Y-63666630D01*
X124305888Y-63500000D01*
X124322299Y-63333370D01*
X124370903Y-63173145D01*
X124449831Y-63025480D01*
X124556051Y-62896051D01*
X124685480Y-62789831D01*
X124833145Y-62710903D01*
X124993370Y-62662299D01*
X125118248Y-62650000D01*
X125201752Y-62650000D01*
X125326630Y-62662299D01*
X125326630Y-62662299D01*
G37*
G36*
X127866630Y-62662299D02*
X128026855Y-62710903D01*
X128174520Y-62789831D01*
X128303949Y-62896051D01*
X128410169Y-63025480D01*
X128489097Y-63173145D01*
X128537701Y-63333370D01*
X128554112Y-63500000D01*
X128537701Y-63666630D01*
X128489097Y-63826855D01*
X128410169Y-63974520D01*
X128303949Y-64103949D01*
X128174520Y-64210169D01*
X128026855Y-64289097D01*
X127866630Y-64337701D01*
X127741752Y-64350000D01*
X127658248Y-64350000D01*
X127533370Y-64337701D01*
X127373145Y-64289097D01*
X127225480Y-64210169D01*
X127096051Y-64103949D01*
X126989831Y-63974520D01*
X126910903Y-63826855D01*
X126862299Y-63666630D01*
X126845888Y-63500000D01*
X126862299Y-63333370D01*
X126910903Y-63173145D01*
X126989831Y-63025480D01*
X127096051Y-62896051D01*
X127225480Y-62789831D01*
X127373145Y-62710903D01*
X127533370Y-62662299D01*
X127658248Y-62650000D01*
X127741752Y-62650000D01*
X127866630Y-62662299D01*
X127866630Y-62662299D01*
G37*
G36*
X130406630Y-62662299D02*
X130566855Y-62710903D01*
X130714520Y-62789831D01*
X130843949Y-62896051D01*
X130950169Y-63025480D01*
X131029097Y-63173145D01*
X131077701Y-63333370D01*
X131094112Y-63500000D01*
X131077701Y-63666630D01*
X131029097Y-63826855D01*
X130950169Y-63974520D01*
X130843949Y-64103949D01*
X130714520Y-64210169D01*
X130566855Y-64289097D01*
X130406630Y-64337701D01*
X130281752Y-64350000D01*
X130198248Y-64350000D01*
X130073370Y-64337701D01*
X129913145Y-64289097D01*
X129765480Y-64210169D01*
X129636051Y-64103949D01*
X129529831Y-63974520D01*
X129450903Y-63826855D01*
X129402299Y-63666630D01*
X129385888Y-63500000D01*
X129402299Y-63333370D01*
X129450903Y-63173145D01*
X129529831Y-63025480D01*
X129636051Y-62896051D01*
X129765480Y-62789831D01*
X129913145Y-62710903D01*
X130073370Y-62662299D01*
X130198248Y-62650000D01*
X130281752Y-62650000D01*
X130406630Y-62662299D01*
X130406630Y-62662299D01*
G37*
G36*
X132946630Y-62662299D02*
X133106855Y-62710903D01*
X133254520Y-62789831D01*
X133383949Y-62896051D01*
X133490169Y-63025480D01*
X133569097Y-63173145D01*
X133617701Y-63333370D01*
X133634112Y-63500000D01*
X133617701Y-63666630D01*
X133569097Y-63826855D01*
X133490169Y-63974520D01*
X133383949Y-64103949D01*
X133254520Y-64210169D01*
X133106855Y-64289097D01*
X132946630Y-64337701D01*
X132821752Y-64350000D01*
X132738248Y-64350000D01*
X132613370Y-64337701D01*
X132453145Y-64289097D01*
X132305480Y-64210169D01*
X132176051Y-64103949D01*
X132069831Y-63974520D01*
X131990903Y-63826855D01*
X131942299Y-63666630D01*
X131925888Y-63500000D01*
X131942299Y-63333370D01*
X131990903Y-63173145D01*
X132069831Y-63025480D01*
X132176051Y-62896051D01*
X132305480Y-62789831D01*
X132453145Y-62710903D01*
X132613370Y-62662299D01*
X132738248Y-62650000D01*
X132821752Y-62650000D01*
X132946630Y-62662299D01*
X132946630Y-62662299D01*
G37*
G36*
X135486630Y-62662299D02*
X135646855Y-62710903D01*
X135794520Y-62789831D01*
X135923949Y-62896051D01*
X136030169Y-63025480D01*
X136109097Y-63173145D01*
X136157701Y-63333370D01*
X136174112Y-63500000D01*
X136157701Y-63666630D01*
X136109097Y-63826855D01*
X136030169Y-63974520D01*
X135923949Y-64103949D01*
X135794520Y-64210169D01*
X135646855Y-64289097D01*
X135486630Y-64337701D01*
X135361752Y-64350000D01*
X135278248Y-64350000D01*
X135153370Y-64337701D01*
X134993145Y-64289097D01*
X134845480Y-64210169D01*
X134716051Y-64103949D01*
X134609831Y-63974520D01*
X134530903Y-63826855D01*
X134482299Y-63666630D01*
X134465888Y-63500000D01*
X134482299Y-63333370D01*
X134530903Y-63173145D01*
X134609831Y-63025480D01*
X134716051Y-62896051D01*
X134845480Y-62789831D01*
X134993145Y-62710903D01*
X135153370Y-62662299D01*
X135278248Y-62650000D01*
X135361752Y-62650000D01*
X135486630Y-62662299D01*
X135486630Y-62662299D01*
G37*
G36*
X138026630Y-62662299D02*
X138186855Y-62710903D01*
X138334520Y-62789831D01*
X138463949Y-62896051D01*
X138570169Y-63025480D01*
X138649097Y-63173145D01*
X138697701Y-63333370D01*
X138714112Y-63500000D01*
X138697701Y-63666630D01*
X138649097Y-63826855D01*
X138570169Y-63974520D01*
X138463949Y-64103949D01*
X138334520Y-64210169D01*
X138186855Y-64289097D01*
X138026630Y-64337701D01*
X137901752Y-64350000D01*
X137818248Y-64350000D01*
X137693370Y-64337701D01*
X137533145Y-64289097D01*
X137385480Y-64210169D01*
X137256051Y-64103949D01*
X137149831Y-63974520D01*
X137070903Y-63826855D01*
X137022299Y-63666630D01*
X137005888Y-63500000D01*
X137022299Y-63333370D01*
X137070903Y-63173145D01*
X137149831Y-63025480D01*
X137256051Y-62896051D01*
X137385480Y-62789831D01*
X137533145Y-62710903D01*
X137693370Y-62662299D01*
X137818248Y-62650000D01*
X137901752Y-62650000D01*
X138026630Y-62662299D01*
X138026630Y-62662299D01*
G37*
G36*
X122786630Y-62662299D02*
X122946855Y-62710903D01*
X123094520Y-62789831D01*
X123223949Y-62896051D01*
X123330169Y-63025480D01*
X123409097Y-63173145D01*
X123457701Y-63333370D01*
X123474112Y-63500000D01*
X123457701Y-63666630D01*
X123409097Y-63826855D01*
X123330169Y-63974520D01*
X123223949Y-64103949D01*
X123094520Y-64210169D01*
X122946855Y-64289097D01*
X122786630Y-64337701D01*
X122661752Y-64350000D01*
X122578248Y-64350000D01*
X122453370Y-64337701D01*
X122293145Y-64289097D01*
X122145480Y-64210169D01*
X122016051Y-64103949D01*
X121909831Y-63974520D01*
X121830903Y-63826855D01*
X121782299Y-63666630D01*
X121765888Y-63500000D01*
X121782299Y-63333370D01*
X121830903Y-63173145D01*
X121909831Y-63025480D01*
X122016051Y-62896051D01*
X122145480Y-62789831D01*
X122293145Y-62710903D01*
X122453370Y-62662299D01*
X122578248Y-62650000D01*
X122661752Y-62650000D01*
X122786630Y-62662299D01*
X122786630Y-62662299D01*
G37*
M02*
