M48
;DRILL file {KiCad 5.0.2+dfsg1-1~bpo9+1} date Thu 25 Apr 2019 12:37:19 PM PDT
;FORMAT={-:-/ absolute / inch / decimal}
FMAT,2
INCH,TZ
T1C0.0157
T2C0.0236
T3C0.0394
T4C0.0630
T5C0.0709
%
G90
G05
T1
X4.4094Y-2.7165
X4.4094Y-3.4449
X4.5079Y-3.9961
X4.5079Y-4.7638
X4.5276Y-2.6772
X4.5866Y-3.4449
X4.6299Y-5.6378
X4.6457Y-5.0787
X4.6654Y-3.9961
X4.6654Y-4.7638
X4.7835Y-2.7756
X4.8031Y-3.4449
X4.8031Y-4.1339
X4.8031Y-4.311
X4.8622Y-4.8819
X4.9213Y-4.1339
X4.9764Y-4.189
X4.9803Y-5.6102
X5.Y-3.4449
X5.0197Y-2.7756
X5.0236Y-4.189
X5.1181Y-4.1339
X5.1811Y-2.7323
X5.1969Y-4.7835
X5.1969Y-5.6496
X5.2677Y-2.7559
X5.2953Y-4.7835
X5.3386Y-5.6378
X5.3543Y-4.0157
X5.4331Y-4.7835
T2
X5.0217Y-5.4311
X5.1831Y-5.5925
X4.5256Y-5.4311
X4.687Y-5.5925
X5.2736Y-5.5925
X5.435Y-5.4311
X4.7736Y-5.4311
X4.935Y-5.5925
T3
X4.5276Y-5.7677
X4.6276Y-5.7677
X4.7276Y-5.7677
X4.8276Y-5.7677
X4.9276Y-5.7677
X5.0276Y-5.7677
X5.1276Y-5.7677
X5.2276Y-5.7677
X5.3276Y-5.7677
X5.4276Y-5.7677
X4.4783Y-5.1083
X4.4783Y-5.2854
X4.7343Y-5.1083
X4.7343Y-5.2854
X5.2559Y-4.1142
X5.3543Y-4.1142
X5.4528Y-4.1142
X4.5079Y-4.9016
X4.6063Y-4.9016
X4.7047Y-4.9016
X4.5276Y-2.5
X4.6276Y-2.5
X4.7276Y-2.5
X4.8276Y-2.5
X4.9276Y-2.5
X5.0276Y-2.5
X5.1276Y-2.5
X5.2276Y-2.5
X5.3276Y-2.5
X5.4276Y-2.5
X5.2264Y-5.1083
X5.2264Y-5.2854
X5.4823Y-5.1083
X5.4823Y-5.2854
X5.2559Y-4.9016
X5.3543Y-4.9016
X5.4528Y-4.9016
X4.5079Y-4.1142
X4.6063Y-4.1142
X4.7047Y-4.1142
T4
X4.6063Y-2.8378
X4.6063Y-3.1646
X4.6063Y-3.2866
X5.3543Y-2.8378
X5.3543Y-3.1646
X5.3543Y-3.2866
T5
X5.1654Y-3.8189
X5.5433Y-3.8189
X4.4173Y-4.6063
X4.7953Y-4.6063
X5.1654Y-4.6063
X5.5433Y-4.6063
X4.4173Y-3.8189
X4.7953Y-3.8189
T0
M30
