M48
;Layer_Color=9474304
;FILE_FORMAT=2:5
INCH,LZ
;TYPE=PLATED
T1F00S00C0.11811
T2F00S00C0.27559
%
T01
X00293Y0011855
X0248985
X01045Y03332
X0248986Y0494061
X00293Y04941
T02
X02438Y00632
X02439Y01171
Y01809
X01742
Y0117
X01046
X01045Y0181
X00346Y01809
X00347Y0117
X00346Y00632
Y0253
Y03332
X01045Y0253
X01742Y02529
X02439Y0253
X01995Y03733
X01045Y04134
X0034837Y0413163
M30
