G04 Layer_Color=65535*
%FSLAX25Y25*%
%MOIN*%
G70*
G01*
G75*
%ADD10C,0.02000*%
%ADD13C,0.01500*%
%ADD14C,0.03000*%
D10*
X225000Y400300D02*
X255000D01*
X240000Y425300D02*
X255000Y400300D01*
X225000D02*
X240000Y425300D01*
X230000Y40300D02*
Y45300D01*
X225000D02*
X230000D01*
X225000D02*
X230000D01*
X55000Y65300D02*
X60000D01*
X55000D02*
Y70300D01*
Y65300D02*
X60000Y70300D01*
X90000D01*
Y45300D02*
Y70300D01*
X215000Y30300D02*
X230000Y45300D01*
X175000Y30300D02*
X215000D01*
X170000Y35300D02*
X175000Y30300D01*
X170000Y35300D02*
Y55300D01*
X150000Y175300D02*
X155000Y180300D01*
X150000Y185300D02*
X155000Y180300D01*
X150000Y185300D02*
X155000Y180300D01*
X145000D02*
X155000D01*
X140000Y175300D02*
X145000Y180300D01*
X140000Y165300D02*
Y175300D01*
Y165300D02*
X150000Y155300D01*
Y245300D02*
X155000Y250300D01*
X150000Y255300D02*
X155000Y250300D01*
X150000Y255300D02*
X155000Y250300D01*
X140000D02*
X155000D01*
X130000Y240300D02*
X140000Y250300D01*
X130000Y225300D02*
Y240300D01*
X220000Y175300D02*
X225000Y180300D01*
X220000Y185300D02*
X225000Y180300D01*
X220000Y185300D02*
X225000Y180300D01*
X215000D02*
X225000D01*
X205000Y170300D02*
X215000Y180300D01*
X205000Y150300D02*
Y170300D01*
Y150300D02*
X220000D01*
X95000Y160300D02*
Y165300D01*
X90000D02*
X95000D01*
X90000D02*
X95000D01*
X90000Y160300D02*
X95000Y165300D01*
X90000Y150300D02*
Y160300D01*
Y150300D02*
X100000D01*
X55000Y180300D02*
X60000Y175300D01*
X55000Y180300D02*
X60000Y185300D01*
X55000Y180300D02*
X60000Y185300D01*
X55000Y180300D02*
X65000D01*
Y165300D02*
Y180300D01*
Y155300D02*
Y165300D01*
X225000Y270300D02*
X230000D01*
Y275300D01*
Y270300D02*
Y275300D01*
X215000Y285300D02*
X230000Y270300D01*
X215000Y285300D02*
Y290300D01*
X65000Y230300D02*
X70000Y225300D01*
X50000Y235300D02*
X55000D01*
X50000Y230300D02*
Y235300D01*
Y230300D02*
Y235300D01*
X55000Y230300D01*
X65000D01*
X100000Y280300D02*
X105000Y285300D01*
X95000D02*
X100000Y280300D01*
X95000Y285300D02*
X100000Y280300D01*
Y290300D01*
X110000D01*
X60000Y335300D02*
X65000Y330300D01*
X60000Y335300D02*
X65000Y340300D01*
X60000Y335300D02*
X65000Y340300D01*
X60000Y335300D02*
X75000D01*
X80000Y330300D01*
X75000Y335300D02*
X85000Y325300D01*
Y320300D02*
Y325300D01*
X75000Y310300D02*
X85000Y320300D01*
X70000Y310300D02*
X75000D01*
X200000Y350300D02*
X205000Y345300D01*
X195000D02*
X200000Y350300D01*
Y340300D02*
Y350300D01*
Y340300D02*
X210000Y330300D01*
X220000D01*
X105000Y390300D02*
X110000Y385300D01*
X100000D02*
X105000Y390300D01*
Y380300D02*
Y390300D01*
Y380300D02*
X110000Y375300D01*
X120000Y365300D01*
X125000D01*
X155000D01*
X165000Y375300D01*
Y390300D01*
X115000Y450300D02*
X230000D01*
X115000Y460300D02*
X120000D01*
X135000D02*
X230000D01*
X127500Y467800D02*
X135000Y460300D01*
X120000D02*
X127500Y467800D01*
X230000Y470300D02*
Y490300D01*
X140000Y470300D02*
X230000D01*
X130000Y480300D02*
X140000Y470300D01*
X125000Y480300D02*
X130000D01*
X115000Y470300D02*
X125000Y480300D01*
X65000Y470300D02*
X115000D01*
X50000Y485300D02*
X65000Y470300D01*
X40000Y485300D02*
X50000D01*
Y425300D02*
X55000D01*
X50000D02*
Y430300D01*
Y425300D02*
Y430300D01*
Y425300D02*
X55000Y430300D01*
X65000Y440300D01*
Y445300D01*
D13*
X156553Y148492D02*
X154915Y150130D01*
X151638D01*
X150000Y148492D01*
Y146853D01*
X151638Y145215D01*
X154915D01*
X156553Y143577D01*
Y141938D01*
X154915Y140300D01*
X151638D01*
X150000Y141938D01*
X159830Y140300D02*
X163107D01*
X161469D01*
Y146853D01*
X159830D01*
X168022Y140300D02*
Y146853D01*
X172937D01*
X174575Y145215D01*
Y140300D01*
X225000Y145300D02*
Y155130D01*
X229915D01*
X231553Y153492D01*
Y150215D01*
X229915Y148577D01*
X225000D01*
X234830Y151854D02*
Y146938D01*
X236469Y145300D01*
X241384D01*
Y151854D01*
X244660Y145300D02*
X247937D01*
X246299D01*
Y155130D01*
X244660D01*
X252852Y145300D02*
X257767D01*
X259405Y146938D01*
X257767Y148577D01*
X254490D01*
X252852Y150215D01*
X254490Y151854D01*
X259405D01*
X267597Y145300D02*
X264321D01*
X262682Y146938D01*
Y150215D01*
X264321Y151854D01*
X267597D01*
X269236Y150215D01*
Y148577D01*
X262682D01*
X131553Y403492D02*
X129915Y405130D01*
X126638D01*
X125000Y403492D01*
Y396938D01*
X126638Y395300D01*
X129915D01*
X131553Y396938D01*
X136469Y395300D02*
X139745D01*
X141384Y396938D01*
Y400215D01*
X139745Y401854D01*
X136469D01*
X134830Y400215D01*
Y396938D01*
X136469Y395300D01*
X146299Y401854D02*
X149575D01*
X151214Y400215D01*
Y395300D01*
X146299D01*
X144660Y396938D01*
X146299Y398577D01*
X151214D01*
X154490Y401854D02*
Y395300D01*
Y398577D01*
X156129Y400215D01*
X157767Y401854D01*
X159406D01*
X164321Y395300D02*
X169236D01*
X170874Y396938D01*
X169236Y398577D01*
X165959D01*
X164321Y400215D01*
X165959Y401854D01*
X170874D01*
X179066Y395300D02*
X175789D01*
X174151Y396938D01*
Y400215D01*
X175789Y401854D01*
X179066D01*
X180704Y400215D01*
Y398577D01*
X174151D01*
X45000Y450300D02*
X48277D01*
X46638D01*
Y460130D01*
X45000Y458492D01*
X53192Y460130D02*
Y453577D01*
X56468Y450300D01*
X59745Y453577D01*
Y460130D01*
X63022Y450300D02*
X69575Y456853D01*
X77767Y460130D02*
X74490D01*
X72852Y458492D01*
Y451938D01*
X74490Y450300D01*
X77767D01*
X79405Y451938D01*
Y458492D01*
X77767Y460130D01*
X89236Y456853D02*
X84321D01*
X82682Y455215D01*
Y451938D01*
X84321Y450300D01*
X89236D01*
X94151Y458492D02*
Y456853D01*
X92512D01*
X95789D01*
X94151D01*
Y451938D01*
X95789Y450300D01*
X13680Y307512D02*
Y297682D01*
X20233D01*
X23510D02*
X26787D01*
X25148D01*
Y304235D01*
X23510D01*
X31702Y297682D02*
Y304235D01*
X36617D01*
X38255Y302597D01*
Y297682D01*
X57915Y307512D02*
X51362D01*
Y302597D01*
X54639D01*
X51362D01*
Y297682D01*
X61192D02*
Y307512D01*
X64469Y304235D01*
X67746Y307512D01*
Y297682D01*
X231553Y335130D02*
X225000D01*
Y330215D01*
X228277D01*
X225000D01*
Y325300D01*
X234830D02*
X238107D01*
X236469D01*
Y331854D01*
X234830D01*
X243022Y325300D02*
Y331854D01*
X247937D01*
X249575Y330215D01*
Y325300D01*
X257767D02*
X254490D01*
X252852Y326938D01*
Y330215D01*
X254490Y331854D01*
X257767D01*
X259405Y330215D01*
Y328577D01*
X252852D01*
X13106Y225876D02*
X6553D01*
Y220961D01*
X9829D01*
X6553D01*
Y216046D01*
X16383D02*
Y225876D01*
X19659Y222599D01*
X22936Y225876D01*
Y216046D01*
X36043Y225876D02*
Y216046D01*
X42596D01*
X50788D02*
X47511D01*
X45873Y217684D01*
Y220961D01*
X47511Y222599D01*
X50788D01*
X52426Y220961D01*
Y219322D01*
X45873D01*
X55703Y222599D02*
X58980Y216046D01*
X62257Y222599D01*
X70448Y216046D02*
X67172D01*
X65533Y217684D01*
Y220961D01*
X67172Y222599D01*
X70448D01*
X72087Y220961D01*
Y219322D01*
X65533D01*
X75363Y216046D02*
X78640D01*
X77002D01*
Y225876D01*
X75363D01*
X105000Y210300D02*
Y220130D01*
X109915D01*
X111553Y218492D01*
Y215215D01*
X109915Y213577D01*
X105000D01*
X114830Y220130D02*
Y210300D01*
X118107Y213577D01*
X121384Y210300D01*
Y220130D01*
X124660Y210300D02*
Y220130D01*
X127937Y216853D01*
X131214Y220130D01*
Y210300D01*
X144321Y220130D02*
Y210300D01*
X150874D01*
X159066D02*
X155789D01*
X154151Y211938D01*
Y215215D01*
X155789Y216853D01*
X159066D01*
X160704Y215215D01*
Y213577D01*
X154151D01*
X163981Y216853D02*
X167258Y210300D01*
X170534Y216853D01*
X178726Y210300D02*
X175449D01*
X173811Y211938D01*
Y215215D01*
X175449Y216853D01*
X178726D01*
X180365Y215215D01*
Y213577D01*
X173811D01*
X183641Y210300D02*
X186918D01*
X185280D01*
Y220130D01*
X183641D01*
X115000Y285300D02*
Y295130D01*
X119915D01*
X121553Y293492D01*
Y290215D01*
X119915Y288577D01*
X115000D01*
X124830Y295130D02*
Y285300D01*
X128107Y288577D01*
X131384Y285300D01*
Y295130D01*
X134660Y285300D02*
Y295130D01*
X137937Y291853D01*
X141214Y295130D01*
Y285300D01*
X195000Y305130D02*
Y295300D01*
X198277Y298577D01*
X201553Y295300D01*
Y305130D01*
X204830Y295300D02*
X208107D01*
X206469D01*
Y301853D01*
X204830D01*
X219575Y305130D02*
Y295300D01*
X214660D01*
X213022Y296938D01*
Y300215D01*
X214660Y301853D01*
X219575D01*
X224490Y303492D02*
Y301853D01*
X222852D01*
X226129D01*
X224490D01*
Y296938D01*
X226129Y295300D01*
X231044Y305130D02*
Y295300D01*
Y300215D01*
X232682Y301853D01*
X235959D01*
X237597Y300215D01*
Y295300D01*
X66553Y38492D02*
X64915Y40130D01*
X61638D01*
X60000Y38492D01*
Y36854D01*
X61638Y35215D01*
X64915D01*
X66553Y33577D01*
Y31938D01*
X64915Y30300D01*
X61638D01*
X60000Y31938D01*
X69830Y36854D02*
Y31938D01*
X71469Y30300D01*
X76384D01*
Y28662D01*
X74745Y27023D01*
X73107D01*
X76384Y30300D02*
Y36854D01*
X79660Y30300D02*
Y36854D01*
X84575D01*
X86214Y35215D01*
Y30300D01*
X96044Y36854D02*
X91129D01*
X89490Y35215D01*
Y31938D01*
X91129Y30300D01*
X96044D01*
X109151Y40130D02*
X112427D01*
X110789D01*
Y30300D01*
X109151D01*
X112427D01*
X117342D02*
Y36854D01*
X122258D01*
X123896Y35215D01*
Y30300D01*
X105000Y155130D02*
X111553D01*
X108277D01*
Y145300D01*
X114830Y151854D02*
Y145300D01*
Y148577D01*
X116469Y150215D01*
X118107Y151854D01*
X119745D01*
X124660Y145300D02*
X127937D01*
X126299D01*
Y151854D01*
X124660D01*
X56553Y148492D02*
X54915Y150130D01*
X51638D01*
X50000Y148492D01*
Y146853D01*
X51638Y145215D01*
X54915D01*
X56553Y143577D01*
Y141938D01*
X54915Y140300D01*
X51638D01*
X50000Y141938D01*
X61468Y146853D02*
X64745D01*
X66384Y145215D01*
Y140300D01*
X61468D01*
X59830Y141938D01*
X61468Y143577D01*
X66384D01*
X69660Y146853D02*
Y141938D01*
X71299Y140300D01*
X72937Y141938D01*
X74575Y140300D01*
X76214Y141938D01*
Y146853D01*
X145000Y65300D02*
Y75130D01*
X148277Y71854D01*
X151553Y75130D01*
Y65300D01*
X154830D02*
X158107D01*
X156468D01*
Y71854D01*
X154830D01*
X163022D02*
X169575Y65300D01*
X166299Y68577D01*
X169575Y71854D01*
X163022Y65300D01*
X187597Y75130D02*
X184321D01*
X182682Y73492D01*
Y66938D01*
X184321Y65300D01*
X187597D01*
X189236Y66938D01*
Y73492D01*
X187597Y75130D01*
X192512Y71854D02*
Y66938D01*
X194151Y65300D01*
X199066D01*
Y71854D01*
X203981Y73492D02*
Y71854D01*
X202343D01*
X205619D01*
X203981D01*
Y66938D01*
X205619Y65300D01*
D14*
X60000Y495295D02*
Y485298D01*
X64998Y480300D01*
X69997Y485298D01*
Y495295D01*
X84992Y492796D02*
X82493Y495295D01*
X77494D01*
X74995Y492796D01*
Y482799D01*
X77494Y480300D01*
X82493D01*
X84992Y482799D01*
X104985Y487798D02*
X114982D01*
X142473Y495295D02*
X137475D01*
X134976Y492796D01*
Y482799D01*
X137475Y480300D01*
X142473D01*
X144973Y482799D01*
Y492796D01*
X142473Y495295D01*
X149971D02*
Y480300D01*
Y487798D01*
X159968D01*
Y495295D01*
Y480300D01*
X164966Y495295D02*
Y480300D01*
Y487798D01*
X174963D01*
Y495295D01*
Y480300D01*
X179961Y495295D02*
Y480300D01*
Y487798D01*
X189958D01*
Y495295D01*
Y480300D01*
X194956Y495295D02*
Y480300D01*
Y487798D01*
X204953D01*
Y495295D01*
Y480300D01*
X209951Y495295D02*
Y480300D01*
Y487798D01*
X219948D01*
Y495295D01*
Y480300D01*
M02*
