M48
;DRILL file {KiCad 5.0.2+dfsg1-1~bpo9+1} date Thu 11 Apr 2019 01:14:06 PM PDT
;FORMAT={-:-/ absolute / inch / decimal}
FMAT,2
INCH,TZ
T1C0.0157
T2C0.0394
T3C0.0400
T4C0.0630
T5C0.0709
%
G90
G05
T1
X5.57Y-2.05
X5.58Y-4.81
X5.66Y-2.31
X5.67Y-2.57
X5.68Y-3.36
X5.78Y-4.68
X5.81Y-4.41
X5.85Y-3.27
X5.872Y-2.478
X5.92Y-3.94
X5.94Y-2.48
X5.94Y-3.02
X5.96Y-5.08
X5.98Y-1.98
X6.Y-4.42
X6.03Y-3.13
X6.03Y-4.3
X6.0443Y-2.58
X6.056Y-2.72
X6.07Y-2.01
X6.08Y-4.34
X6.09Y-2.25
X6.1Y-4.88
X6.13Y-2.85
X6.13Y-2.95
X6.14Y-4.39
X6.15Y-4.12
X6.16Y-2.38
X6.16Y-3.16
X6.16Y-4.83
X6.1811Y-4.5589
X6.19Y-1.96
X6.21Y-2.11
X6.21Y-4.37
X6.28Y-2.08
X6.28Y-5.18
X6.32Y-2.36
X6.32Y-4.37
X6.3295Y-4.5105
X6.33Y-2.84
X6.37Y-4.42
X6.38Y-3.16
X6.41Y-2.95
X6.45Y-2.7
X6.45Y-3.76
X6.53Y-3.34
X6.53Y-5.12
X6.58Y-4.33
X6.58Y-5.37
X6.62Y-3.08
X6.62Y-4.4
X6.69Y-3.28
X6.7Y-2.84
X6.73Y-3.72
X6.75Y-2.25
T2
X6.5716Y-3.1453
X6.67Y-3.1453
X6.7684Y-3.1453
X5.6016Y-3.1453
X5.7Y-3.1453
X5.7984Y-3.1453
X6.1016Y-3.7953
X6.2Y-3.7953
X6.2984Y-3.7953
X6.5716Y-4.4853
X6.67Y-4.4853
X6.7684Y-4.4853
X5.6016Y-4.4953
X5.7Y-4.4953
X5.7984Y-4.4953
T3
X6.01Y-5.38
X6.01Y-5.48
X6.11Y-5.38
X6.11Y-5.48
X6.21Y-5.38
X6.21Y-5.48
X6.31Y-5.38
X6.31Y-5.48
X6.41Y-5.38
X6.41Y-5.48
T4
X6.67Y-1.9449
X6.67Y-2.0669
X6.67Y-2.3937
X5.7Y-1.9449
X5.7Y-2.0669
X5.7Y-2.3937
T5
X5.511Y-2.85
X5.889Y-2.85
X6.011Y-3.5
X5.511Y-4.2
X5.889Y-4.2
X6.481Y-2.85
X6.859Y-2.85
X6.389Y-3.5
X6.481Y-4.19
X6.859Y-4.19
T0
M30
