G04 #@! TF.GenerationSoftware,KiCad,Pcbnew,5.0.2+dfsg1-1~bpo9+1*
G04 #@! TF.CreationDate,2019-02-28T12:06:51-08:00*
G04 #@! TF.ProjectId,Drum,4472756d-2e6b-4696-9361-645f70636258,rev?*
G04 #@! TF.SameCoordinates,Original*
G04 #@! TF.FileFunction,Soldermask,Bot*
G04 #@! TF.FilePolarity,Negative*
%FSLAX46Y46*%
G04 Gerber Fmt 4.6, Leading zero omitted, Abs format (unit mm)*
G04 Created by KiCad (PCBNEW 5.0.2+dfsg1-1~bpo9+1) date Thu 28 Feb 2019 12:06:51 PM PST*
%MOMM*%
%LPD*%
G01*
G04 APERTURE LIST*
%ADD10C,0.100000*%
G04 APERTURE END LIST*
D10*
G36*
X152833294Y-138290633D02*
X153005694Y-138342931D01*
X153005696Y-138342932D01*
X153164583Y-138427859D01*
X153164585Y-138427860D01*
X153164584Y-138427860D01*
X153303849Y-138542151D01*
X153418140Y-138681416D01*
X153503069Y-138840306D01*
X153555367Y-139012706D01*
X153573025Y-139192000D01*
X153555367Y-139371294D01*
X153503069Y-139543694D01*
X153503068Y-139543696D01*
X153418141Y-139702583D01*
X153303849Y-139841849D01*
X153164583Y-139956141D01*
X153005696Y-140041068D01*
X153005694Y-140041069D01*
X152833294Y-140093367D01*
X152698931Y-140106600D01*
X152609069Y-140106600D01*
X152474706Y-140093367D01*
X152302306Y-140041069D01*
X152302304Y-140041068D01*
X152143417Y-139956141D01*
X152004151Y-139841849D01*
X151889859Y-139702583D01*
X151804932Y-139543696D01*
X151804931Y-139543694D01*
X151752633Y-139371294D01*
X151734975Y-139192000D01*
X151752633Y-139012706D01*
X151804931Y-138840306D01*
X151889860Y-138681416D01*
X152004151Y-138542151D01*
X152143416Y-138427860D01*
X152143415Y-138427860D01*
X152143417Y-138427859D01*
X152302304Y-138342932D01*
X152302306Y-138342931D01*
X152474706Y-138290633D01*
X152609069Y-138277400D01*
X152698931Y-138277400D01*
X152833294Y-138290633D01*
X152833294Y-138290633D01*
G37*
G36*
X155373294Y-138290633D02*
X155545694Y-138342931D01*
X155545696Y-138342932D01*
X155704583Y-138427859D01*
X155704585Y-138427860D01*
X155704584Y-138427860D01*
X155843849Y-138542151D01*
X155958140Y-138681416D01*
X156043069Y-138840306D01*
X156095367Y-139012706D01*
X156113025Y-139192000D01*
X156095367Y-139371294D01*
X156043069Y-139543694D01*
X156043068Y-139543696D01*
X155958141Y-139702583D01*
X155843849Y-139841849D01*
X155704583Y-139956141D01*
X155545696Y-140041068D01*
X155545694Y-140041069D01*
X155373294Y-140093367D01*
X155238931Y-140106600D01*
X155149069Y-140106600D01*
X155014706Y-140093367D01*
X154842306Y-140041069D01*
X154842304Y-140041068D01*
X154683417Y-139956141D01*
X154544151Y-139841849D01*
X154429859Y-139702583D01*
X154344932Y-139543696D01*
X154344931Y-139543694D01*
X154292633Y-139371294D01*
X154274975Y-139192000D01*
X154292633Y-139012706D01*
X154344931Y-138840306D01*
X154429860Y-138681416D01*
X154544151Y-138542151D01*
X154683416Y-138427860D01*
X154683415Y-138427860D01*
X154683417Y-138427859D01*
X154842304Y-138342932D01*
X154842306Y-138342931D01*
X155014706Y-138290633D01*
X155149069Y-138277400D01*
X155238931Y-138277400D01*
X155373294Y-138290633D01*
X155373294Y-138290633D01*
G37*
G36*
X157913294Y-138290633D02*
X158085694Y-138342931D01*
X158085696Y-138342932D01*
X158244583Y-138427859D01*
X158244585Y-138427860D01*
X158244584Y-138427860D01*
X158383849Y-138542151D01*
X158498140Y-138681416D01*
X158583069Y-138840306D01*
X158635367Y-139012706D01*
X158653025Y-139192000D01*
X158635367Y-139371294D01*
X158583069Y-139543694D01*
X158583068Y-139543696D01*
X158498141Y-139702583D01*
X158383849Y-139841849D01*
X158244583Y-139956141D01*
X158085696Y-140041068D01*
X158085694Y-140041069D01*
X157913294Y-140093367D01*
X157778931Y-140106600D01*
X157689069Y-140106600D01*
X157554706Y-140093367D01*
X157382306Y-140041069D01*
X157382304Y-140041068D01*
X157223417Y-139956141D01*
X157084151Y-139841849D01*
X156969859Y-139702583D01*
X156884932Y-139543696D01*
X156884931Y-139543694D01*
X156832633Y-139371294D01*
X156814975Y-139192000D01*
X156832633Y-139012706D01*
X156884931Y-138840306D01*
X156969860Y-138681416D01*
X157084151Y-138542151D01*
X157223416Y-138427860D01*
X157223415Y-138427860D01*
X157223417Y-138427859D01*
X157382304Y-138342932D01*
X157382306Y-138342931D01*
X157554706Y-138290633D01*
X157689069Y-138277400D01*
X157778931Y-138277400D01*
X157913294Y-138290633D01*
X157913294Y-138290633D01*
G37*
G36*
X163728600Y-140106600D02*
X161899400Y-140106600D01*
X161899400Y-138277400D01*
X163728600Y-138277400D01*
X163728600Y-140106600D01*
X163728600Y-140106600D01*
G37*
G36*
X160453294Y-138290633D02*
X160625694Y-138342931D01*
X160625696Y-138342932D01*
X160784583Y-138427859D01*
X160784585Y-138427860D01*
X160784584Y-138427860D01*
X160923849Y-138542151D01*
X161038140Y-138681416D01*
X161123069Y-138840306D01*
X161175367Y-139012706D01*
X161193025Y-139192000D01*
X161175367Y-139371294D01*
X161123069Y-139543694D01*
X161123068Y-139543696D01*
X161038141Y-139702583D01*
X160923849Y-139841849D01*
X160784583Y-139956141D01*
X160625696Y-140041068D01*
X160625694Y-140041069D01*
X160453294Y-140093367D01*
X160318931Y-140106600D01*
X160229069Y-140106600D01*
X160094706Y-140093367D01*
X159922306Y-140041069D01*
X159922304Y-140041068D01*
X159763417Y-139956141D01*
X159624151Y-139841849D01*
X159509859Y-139702583D01*
X159424932Y-139543696D01*
X159424931Y-139543694D01*
X159372633Y-139371294D01*
X159354975Y-139192000D01*
X159372633Y-139012706D01*
X159424931Y-138840306D01*
X159509860Y-138681416D01*
X159624151Y-138542151D01*
X159763416Y-138427860D01*
X159763415Y-138427860D01*
X159763417Y-138427859D01*
X159922304Y-138342932D01*
X159922306Y-138342931D01*
X160094706Y-138290633D01*
X160229069Y-138277400D01*
X160318931Y-138277400D01*
X160453294Y-138290633D01*
X160453294Y-138290633D01*
G37*
G36*
X157913294Y-135750633D02*
X158085694Y-135802931D01*
X158085696Y-135802932D01*
X158244583Y-135887859D01*
X158244585Y-135887860D01*
X158244584Y-135887860D01*
X158383849Y-136002151D01*
X158498140Y-136141416D01*
X158583069Y-136300306D01*
X158635367Y-136472706D01*
X158653025Y-136652000D01*
X158635367Y-136831294D01*
X158583069Y-137003694D01*
X158583068Y-137003696D01*
X158498141Y-137162583D01*
X158383849Y-137301849D01*
X158244583Y-137416141D01*
X158085696Y-137501068D01*
X158085694Y-137501069D01*
X157913294Y-137553367D01*
X157778931Y-137566600D01*
X157689069Y-137566600D01*
X157554706Y-137553367D01*
X157382306Y-137501069D01*
X157382304Y-137501068D01*
X157223417Y-137416141D01*
X157084151Y-137301849D01*
X156969859Y-137162583D01*
X156884932Y-137003696D01*
X156884931Y-137003694D01*
X156832633Y-136831294D01*
X156814975Y-136652000D01*
X156832633Y-136472706D01*
X156884931Y-136300306D01*
X156969860Y-136141416D01*
X157084151Y-136002151D01*
X157223416Y-135887860D01*
X157223415Y-135887860D01*
X157223417Y-135887859D01*
X157382304Y-135802932D01*
X157382306Y-135802931D01*
X157554706Y-135750633D01*
X157689069Y-135737400D01*
X157778931Y-135737400D01*
X157913294Y-135750633D01*
X157913294Y-135750633D01*
G37*
G36*
X152833294Y-135750633D02*
X153005694Y-135802931D01*
X153005696Y-135802932D01*
X153164583Y-135887859D01*
X153164585Y-135887860D01*
X153164584Y-135887860D01*
X153303849Y-136002151D01*
X153418140Y-136141416D01*
X153503069Y-136300306D01*
X153555367Y-136472706D01*
X153573025Y-136652000D01*
X153555367Y-136831294D01*
X153503069Y-137003694D01*
X153503068Y-137003696D01*
X153418141Y-137162583D01*
X153303849Y-137301849D01*
X153164583Y-137416141D01*
X153005696Y-137501068D01*
X153005694Y-137501069D01*
X152833294Y-137553367D01*
X152698931Y-137566600D01*
X152609069Y-137566600D01*
X152474706Y-137553367D01*
X152302306Y-137501069D01*
X152302304Y-137501068D01*
X152143417Y-137416141D01*
X152004151Y-137301849D01*
X151889859Y-137162583D01*
X151804932Y-137003696D01*
X151804931Y-137003694D01*
X151752633Y-136831294D01*
X151734975Y-136652000D01*
X151752633Y-136472706D01*
X151804931Y-136300306D01*
X151889860Y-136141416D01*
X152004151Y-136002151D01*
X152143416Y-135887860D01*
X152143415Y-135887860D01*
X152143417Y-135887859D01*
X152302304Y-135802932D01*
X152302306Y-135802931D01*
X152474706Y-135750633D01*
X152609069Y-135737400D01*
X152698931Y-135737400D01*
X152833294Y-135750633D01*
X152833294Y-135750633D01*
G37*
G36*
X155373294Y-135750633D02*
X155545694Y-135802931D01*
X155545696Y-135802932D01*
X155704583Y-135887859D01*
X155704585Y-135887860D01*
X155704584Y-135887860D01*
X155843849Y-136002151D01*
X155958140Y-136141416D01*
X156043069Y-136300306D01*
X156095367Y-136472706D01*
X156113025Y-136652000D01*
X156095367Y-136831294D01*
X156043069Y-137003694D01*
X156043068Y-137003696D01*
X155958141Y-137162583D01*
X155843849Y-137301849D01*
X155704583Y-137416141D01*
X155545696Y-137501068D01*
X155545694Y-137501069D01*
X155373294Y-137553367D01*
X155238931Y-137566600D01*
X155149069Y-137566600D01*
X155014706Y-137553367D01*
X154842306Y-137501069D01*
X154842304Y-137501068D01*
X154683417Y-137416141D01*
X154544151Y-137301849D01*
X154429859Y-137162583D01*
X154344932Y-137003696D01*
X154344931Y-137003694D01*
X154292633Y-136831294D01*
X154274975Y-136652000D01*
X154292633Y-136472706D01*
X154344931Y-136300306D01*
X154429860Y-136141416D01*
X154544151Y-136002151D01*
X154683416Y-135887860D01*
X154683415Y-135887860D01*
X154683417Y-135887859D01*
X154842304Y-135802932D01*
X154842306Y-135802931D01*
X155014706Y-135750633D01*
X155149069Y-135737400D01*
X155238931Y-135737400D01*
X155373294Y-135750633D01*
X155373294Y-135750633D01*
G37*
G36*
X160453294Y-135750633D02*
X160625694Y-135802931D01*
X160625696Y-135802932D01*
X160784583Y-135887859D01*
X160784585Y-135887860D01*
X160784584Y-135887860D01*
X160923849Y-136002151D01*
X161038140Y-136141416D01*
X161123069Y-136300306D01*
X161175367Y-136472706D01*
X161193025Y-136652000D01*
X161175367Y-136831294D01*
X161123069Y-137003694D01*
X161123068Y-137003696D01*
X161038141Y-137162583D01*
X160923849Y-137301849D01*
X160784583Y-137416141D01*
X160625696Y-137501068D01*
X160625694Y-137501069D01*
X160453294Y-137553367D01*
X160318931Y-137566600D01*
X160229069Y-137566600D01*
X160094706Y-137553367D01*
X159922306Y-137501069D01*
X159922304Y-137501068D01*
X159763417Y-137416141D01*
X159624151Y-137301849D01*
X159509859Y-137162583D01*
X159424932Y-137003696D01*
X159424931Y-137003694D01*
X159372633Y-136831294D01*
X159354975Y-136652000D01*
X159372633Y-136472706D01*
X159424931Y-136300306D01*
X159509860Y-136141416D01*
X159624151Y-136002151D01*
X159763416Y-135887860D01*
X159763415Y-135887860D01*
X159763417Y-135887859D01*
X159922304Y-135802932D01*
X159922306Y-135802931D01*
X160094706Y-135750633D01*
X160229069Y-135737400D01*
X160318931Y-135737400D01*
X160453294Y-135750633D01*
X160453294Y-135750633D01*
G37*
G36*
X162993294Y-135750633D02*
X163165694Y-135802931D01*
X163165696Y-135802932D01*
X163324583Y-135887859D01*
X163324585Y-135887860D01*
X163324584Y-135887860D01*
X163463849Y-136002151D01*
X163578140Y-136141416D01*
X163663069Y-136300306D01*
X163715367Y-136472706D01*
X163733025Y-136652000D01*
X163715367Y-136831294D01*
X163663069Y-137003694D01*
X163663068Y-137003696D01*
X163578141Y-137162583D01*
X163463849Y-137301849D01*
X163324583Y-137416141D01*
X163165696Y-137501068D01*
X163165694Y-137501069D01*
X162993294Y-137553367D01*
X162858931Y-137566600D01*
X162769069Y-137566600D01*
X162634706Y-137553367D01*
X162462306Y-137501069D01*
X162462304Y-137501068D01*
X162303417Y-137416141D01*
X162164151Y-137301849D01*
X162049859Y-137162583D01*
X161964932Y-137003696D01*
X161964931Y-137003694D01*
X161912633Y-136831294D01*
X161894975Y-136652000D01*
X161912633Y-136472706D01*
X161964931Y-136300306D01*
X162049860Y-136141416D01*
X162164151Y-136002151D01*
X162303416Y-135887860D01*
X162303415Y-135887860D01*
X162303417Y-135887859D01*
X162462304Y-135802932D01*
X162462306Y-135802931D01*
X162634706Y-135750633D01*
X162769069Y-135737400D01*
X162858931Y-135737400D01*
X162993294Y-135750633D01*
X162993294Y-135750633D01*
G37*
G36*
X169441396Y-101577546D02*
X169614466Y-101649234D01*
X169770230Y-101753312D01*
X169902688Y-101885770D01*
X170006766Y-102041534D01*
X170078454Y-102214604D01*
X170115000Y-102398333D01*
X170115000Y-102585667D01*
X170078454Y-102769396D01*
X170006766Y-102942466D01*
X169902688Y-103098230D01*
X169770230Y-103230688D01*
X169614466Y-103334766D01*
X169441396Y-103406454D01*
X169257667Y-103443000D01*
X169070333Y-103443000D01*
X168886604Y-103406454D01*
X168713534Y-103334766D01*
X168557770Y-103230688D01*
X168425312Y-103098230D01*
X168321234Y-102942466D01*
X168249546Y-102769396D01*
X168213000Y-102585667D01*
X168213000Y-102398333D01*
X168249546Y-102214604D01*
X168321234Y-102041534D01*
X168425312Y-101885770D01*
X168557770Y-101753312D01*
X168713534Y-101649234D01*
X168886604Y-101577546D01*
X169070333Y-101541000D01*
X169257667Y-101541000D01*
X169441396Y-101577546D01*
X169441396Y-101577546D01*
G37*
G36*
X145311396Y-101577546D02*
X145484466Y-101649234D01*
X145640230Y-101753312D01*
X145772688Y-101885770D01*
X145876766Y-102041534D01*
X145948454Y-102214604D01*
X145985000Y-102398333D01*
X145985000Y-102585667D01*
X145948454Y-102769396D01*
X145876766Y-102942466D01*
X145772688Y-103098230D01*
X145640230Y-103230688D01*
X145484466Y-103334766D01*
X145311396Y-103406454D01*
X145127667Y-103443000D01*
X144940333Y-103443000D01*
X144756604Y-103406454D01*
X144583534Y-103334766D01*
X144427770Y-103230688D01*
X144295312Y-103098230D01*
X144191234Y-102942466D01*
X144119546Y-102769396D01*
X144083000Y-102585667D01*
X144083000Y-102398333D01*
X144119546Y-102214604D01*
X144191234Y-102041534D01*
X144295312Y-101885770D01*
X144427770Y-101753312D01*
X144583534Y-101649234D01*
X144756604Y-101577546D01*
X144940333Y-101541000D01*
X145127667Y-101541000D01*
X145311396Y-101577546D01*
X145311396Y-101577546D01*
G37*
G36*
X169441396Y-98477546D02*
X169614466Y-98549234D01*
X169770230Y-98653312D01*
X169902688Y-98785770D01*
X170006766Y-98941534D01*
X170078454Y-99114604D01*
X170115000Y-99298333D01*
X170115000Y-99485667D01*
X170078454Y-99669396D01*
X170006766Y-99842466D01*
X169902688Y-99998230D01*
X169770230Y-100130688D01*
X169614466Y-100234766D01*
X169441396Y-100306454D01*
X169257667Y-100343000D01*
X169070333Y-100343000D01*
X168886604Y-100306454D01*
X168713534Y-100234766D01*
X168557770Y-100130688D01*
X168425312Y-99998230D01*
X168321234Y-99842466D01*
X168249546Y-99669396D01*
X168213000Y-99485667D01*
X168213000Y-99298333D01*
X168249546Y-99114604D01*
X168321234Y-98941534D01*
X168425312Y-98785770D01*
X168557770Y-98653312D01*
X168713534Y-98549234D01*
X168886604Y-98477546D01*
X169070333Y-98441000D01*
X169257667Y-98441000D01*
X169441396Y-98477546D01*
X169441396Y-98477546D01*
G37*
G36*
X145311396Y-98477546D02*
X145484466Y-98549234D01*
X145640230Y-98653312D01*
X145772688Y-98785770D01*
X145876766Y-98941534D01*
X145948454Y-99114604D01*
X145985000Y-99298333D01*
X145985000Y-99485667D01*
X145948454Y-99669396D01*
X145876766Y-99842466D01*
X145772688Y-99998230D01*
X145640230Y-100130688D01*
X145484466Y-100234766D01*
X145311396Y-100306454D01*
X145127667Y-100343000D01*
X144940333Y-100343000D01*
X144756604Y-100306454D01*
X144583534Y-100234766D01*
X144427770Y-100130688D01*
X144295312Y-99998230D01*
X144191234Y-99842466D01*
X144119546Y-99669396D01*
X144083000Y-99485667D01*
X144083000Y-99298333D01*
X144119546Y-99114604D01*
X144191234Y-98941534D01*
X144295312Y-98785770D01*
X144427770Y-98653312D01*
X144583534Y-98549234D01*
X144756604Y-98477546D01*
X144940333Y-98441000D01*
X145127667Y-98441000D01*
X145311396Y-98477546D01*
X145311396Y-98477546D01*
G37*
G36*
X145311396Y-90177546D02*
X145484466Y-90249234D01*
X145640230Y-90353312D01*
X145772688Y-90485770D01*
X145876766Y-90641534D01*
X145948454Y-90814604D01*
X145985000Y-90998333D01*
X145985000Y-91185667D01*
X145948454Y-91369396D01*
X145876766Y-91542466D01*
X145772688Y-91698230D01*
X145640230Y-91830688D01*
X145484466Y-91934766D01*
X145311396Y-92006454D01*
X145127667Y-92043000D01*
X144940333Y-92043000D01*
X144756604Y-92006454D01*
X144583534Y-91934766D01*
X144427770Y-91830688D01*
X144295312Y-91698230D01*
X144191234Y-91542466D01*
X144119546Y-91369396D01*
X144083000Y-91185667D01*
X144083000Y-90998333D01*
X144119546Y-90814604D01*
X144191234Y-90641534D01*
X144295312Y-90485770D01*
X144427770Y-90353312D01*
X144583534Y-90249234D01*
X144756604Y-90177546D01*
X144940333Y-90141000D01*
X145127667Y-90141000D01*
X145311396Y-90177546D01*
X145311396Y-90177546D01*
G37*
G36*
X169441396Y-90177546D02*
X169614466Y-90249234D01*
X169770230Y-90353312D01*
X169902688Y-90485770D01*
X170006766Y-90641534D01*
X170078454Y-90814604D01*
X170115000Y-90998333D01*
X170115000Y-91185667D01*
X170078454Y-91369396D01*
X170006766Y-91542466D01*
X169902688Y-91698230D01*
X169770230Y-91830688D01*
X169614466Y-91934766D01*
X169441396Y-92006454D01*
X169257667Y-92043000D01*
X169070333Y-92043000D01*
X168886604Y-92006454D01*
X168713534Y-91934766D01*
X168557770Y-91830688D01*
X168425312Y-91698230D01*
X168321234Y-91542466D01*
X168249546Y-91369396D01*
X168213000Y-91185667D01*
X168213000Y-90998333D01*
X168249546Y-90814604D01*
X168321234Y-90641534D01*
X168425312Y-90485770D01*
X168557770Y-90353312D01*
X168713534Y-90249234D01*
X168886604Y-90177546D01*
X169070333Y-90141000D01*
X169257667Y-90141000D01*
X169441396Y-90177546D01*
X169441396Y-90177546D01*
G37*
G36*
X145311396Y-60937546D02*
X145484466Y-61009234D01*
X145640230Y-61113312D01*
X145772688Y-61245770D01*
X145876766Y-61401534D01*
X145948454Y-61574604D01*
X145985000Y-61758333D01*
X145985000Y-61945667D01*
X145948454Y-62129396D01*
X145876766Y-62302466D01*
X145772688Y-62458230D01*
X145640230Y-62590688D01*
X145484466Y-62694766D01*
X145311396Y-62766454D01*
X145127667Y-62803000D01*
X144940333Y-62803000D01*
X144756604Y-62766454D01*
X144583534Y-62694766D01*
X144427770Y-62590688D01*
X144295312Y-62458230D01*
X144191234Y-62302466D01*
X144119546Y-62129396D01*
X144083000Y-61945667D01*
X144083000Y-61758333D01*
X144119546Y-61574604D01*
X144191234Y-61401534D01*
X144295312Y-61245770D01*
X144427770Y-61113312D01*
X144583534Y-61009234D01*
X144756604Y-60937546D01*
X144940333Y-60901000D01*
X145127667Y-60901000D01*
X145311396Y-60937546D01*
X145311396Y-60937546D01*
G37*
G36*
X169441396Y-60937546D02*
X169614466Y-61009234D01*
X169770230Y-61113312D01*
X169902688Y-61245770D01*
X170006766Y-61401534D01*
X170078454Y-61574604D01*
X170115000Y-61758333D01*
X170115000Y-61945667D01*
X170078454Y-62129396D01*
X170006766Y-62302466D01*
X169902688Y-62458230D01*
X169770230Y-62590688D01*
X169614466Y-62694766D01*
X169441396Y-62766454D01*
X169257667Y-62803000D01*
X169070333Y-62803000D01*
X168886604Y-62766454D01*
X168713534Y-62694766D01*
X168557770Y-62590688D01*
X168425312Y-62458230D01*
X168321234Y-62302466D01*
X168249546Y-62129396D01*
X168213000Y-61945667D01*
X168213000Y-61758333D01*
X168249546Y-61574604D01*
X168321234Y-61401534D01*
X168425312Y-61245770D01*
X168557770Y-61113312D01*
X168713534Y-61009234D01*
X168886604Y-60937546D01*
X169070333Y-60901000D01*
X169257667Y-60901000D01*
X169441396Y-60937546D01*
X169441396Y-60937546D01*
G37*
G36*
X169441396Y-57837546D02*
X169614466Y-57909234D01*
X169770230Y-58013312D01*
X169902688Y-58145770D01*
X170006766Y-58301534D01*
X170078454Y-58474604D01*
X170115000Y-58658333D01*
X170115000Y-58845667D01*
X170078454Y-59029396D01*
X170006766Y-59202466D01*
X169902688Y-59358230D01*
X169770230Y-59490688D01*
X169614466Y-59594766D01*
X169441396Y-59666454D01*
X169257667Y-59703000D01*
X169070333Y-59703000D01*
X168886604Y-59666454D01*
X168713534Y-59594766D01*
X168557770Y-59490688D01*
X168425312Y-59358230D01*
X168321234Y-59202466D01*
X168249546Y-59029396D01*
X168213000Y-58845667D01*
X168213000Y-58658333D01*
X168249546Y-58474604D01*
X168321234Y-58301534D01*
X168425312Y-58145770D01*
X168557770Y-58013312D01*
X168713534Y-57909234D01*
X168886604Y-57837546D01*
X169070333Y-57801000D01*
X169257667Y-57801000D01*
X169441396Y-57837546D01*
X169441396Y-57837546D01*
G37*
G36*
X145311396Y-57837546D02*
X145484466Y-57909234D01*
X145640230Y-58013312D01*
X145772688Y-58145770D01*
X145876766Y-58301534D01*
X145948454Y-58474604D01*
X145985000Y-58658333D01*
X145985000Y-58845667D01*
X145948454Y-59029396D01*
X145876766Y-59202466D01*
X145772688Y-59358230D01*
X145640230Y-59490688D01*
X145484466Y-59594766D01*
X145311396Y-59666454D01*
X145127667Y-59703000D01*
X144940333Y-59703000D01*
X144756604Y-59666454D01*
X144583534Y-59594766D01*
X144427770Y-59490688D01*
X144295312Y-59358230D01*
X144191234Y-59202466D01*
X144119546Y-59029396D01*
X144083000Y-58845667D01*
X144083000Y-58658333D01*
X144119546Y-58474604D01*
X144191234Y-58301534D01*
X144295312Y-58145770D01*
X144427770Y-58013312D01*
X144583534Y-57909234D01*
X144756604Y-57837546D01*
X144940333Y-57801000D01*
X145127667Y-57801000D01*
X145311396Y-57837546D01*
X145311396Y-57837546D01*
G37*
G36*
X145311396Y-49537546D02*
X145484466Y-49609234D01*
X145640230Y-49713312D01*
X145772688Y-49845770D01*
X145876766Y-50001534D01*
X145948454Y-50174604D01*
X145985000Y-50358333D01*
X145985000Y-50545667D01*
X145948454Y-50729396D01*
X145876766Y-50902466D01*
X145772688Y-51058230D01*
X145640230Y-51190688D01*
X145484466Y-51294766D01*
X145311396Y-51366454D01*
X145127667Y-51403000D01*
X144940333Y-51403000D01*
X144756604Y-51366454D01*
X144583534Y-51294766D01*
X144427770Y-51190688D01*
X144295312Y-51058230D01*
X144191234Y-50902466D01*
X144119546Y-50729396D01*
X144083000Y-50545667D01*
X144083000Y-50358333D01*
X144119546Y-50174604D01*
X144191234Y-50001534D01*
X144295312Y-49845770D01*
X144427770Y-49713312D01*
X144583534Y-49609234D01*
X144756604Y-49537546D01*
X144940333Y-49501000D01*
X145127667Y-49501000D01*
X145311396Y-49537546D01*
X145311396Y-49537546D01*
G37*
G36*
X169441396Y-49537546D02*
X169614466Y-49609234D01*
X169770230Y-49713312D01*
X169902688Y-49845770D01*
X170006766Y-50001534D01*
X170078454Y-50174604D01*
X170115000Y-50358333D01*
X170115000Y-50545667D01*
X170078454Y-50729396D01*
X170006766Y-50902466D01*
X169902688Y-51058230D01*
X169770230Y-51190688D01*
X169614466Y-51294766D01*
X169441396Y-51366454D01*
X169257667Y-51403000D01*
X169070333Y-51403000D01*
X168886604Y-51366454D01*
X168713534Y-51294766D01*
X168557770Y-51190688D01*
X168425312Y-51058230D01*
X168321234Y-50902466D01*
X168249546Y-50729396D01*
X168213000Y-50545667D01*
X168213000Y-50358333D01*
X168249546Y-50174604D01*
X168321234Y-50001534D01*
X168425312Y-49845770D01*
X168557770Y-49713312D01*
X168713534Y-49609234D01*
X168886604Y-49537546D01*
X169070333Y-49501000D01*
X169257667Y-49501000D01*
X169441396Y-49537546D01*
X169441396Y-49537546D01*
G37*
M02*
