G04 #@! TF.GenerationSoftware,KiCad,Pcbnew,5.0.2+dfsg1-1~bpo9+1*
G04 #@! TF.CreationDate,2019-04-11T13:04:55-07:00*
G04 #@! TF.ProjectId,Drum,4472756d-2e6b-4696-9361-645f70636258,rev?*
G04 #@! TF.SameCoordinates,Original*
G04 #@! TF.FileFunction,Soldermask,Bot*
G04 #@! TF.FilePolarity,Negative*
%FSLAX46Y46*%
G04 Gerber Fmt 4.6, Leading zero omitted, Abs format (unit mm)*
G04 Created by KiCad (PCBNEW 5.0.2+dfsg1-1~bpo9+1) date Thu 11 Apr 2019 01:04:55 PM PDT*
%MOMM*%
%LPD*%
G01*
G04 APERTURE LIST*
%ADD10C,0.100000*%
G04 APERTURE END LIST*
D10*
G36*
X146239000Y-140969000D02*
X144337000Y-140969000D01*
X144337000Y-138367000D01*
X146239000Y-138367000D01*
X146239000Y-140969000D01*
X146239000Y-140969000D01*
G37*
G36*
X171639000Y-140461000D02*
X169737000Y-140461000D01*
X169737000Y-137859000D01*
X171639000Y-137859000D01*
X171639000Y-140461000D01*
X171639000Y-140461000D01*
G37*
G36*
X163728600Y-140106600D02*
X161899400Y-140106600D01*
X161899400Y-138277400D01*
X163728600Y-138277400D01*
X163728600Y-140106600D01*
X163728600Y-140106600D01*
G37*
G36*
X155373294Y-138290633D02*
X155545694Y-138342931D01*
X155545696Y-138342932D01*
X155704583Y-138427859D01*
X155704585Y-138427860D01*
X155704584Y-138427860D01*
X155843849Y-138542151D01*
X155958140Y-138681416D01*
X156043069Y-138840306D01*
X156095367Y-139012706D01*
X156113025Y-139192000D01*
X156095367Y-139371294D01*
X156043069Y-139543694D01*
X156043068Y-139543696D01*
X155958141Y-139702583D01*
X155843849Y-139841849D01*
X155704583Y-139956141D01*
X155545696Y-140041068D01*
X155545694Y-140041069D01*
X155373294Y-140093367D01*
X155238931Y-140106600D01*
X155149069Y-140106600D01*
X155014706Y-140093367D01*
X154842306Y-140041069D01*
X154842304Y-140041068D01*
X154683417Y-139956141D01*
X154544151Y-139841849D01*
X154429859Y-139702583D01*
X154344932Y-139543696D01*
X154344931Y-139543694D01*
X154292633Y-139371294D01*
X154274975Y-139192000D01*
X154292633Y-139012706D01*
X154344931Y-138840306D01*
X154429860Y-138681416D01*
X154544151Y-138542151D01*
X154683416Y-138427860D01*
X154683415Y-138427860D01*
X154683417Y-138427859D01*
X154842304Y-138342932D01*
X154842306Y-138342931D01*
X155014706Y-138290633D01*
X155149069Y-138277400D01*
X155238931Y-138277400D01*
X155373294Y-138290633D01*
X155373294Y-138290633D01*
G37*
G36*
X152833294Y-138290633D02*
X153005694Y-138342931D01*
X153005696Y-138342932D01*
X153164583Y-138427859D01*
X153164585Y-138427860D01*
X153164584Y-138427860D01*
X153303849Y-138542151D01*
X153418140Y-138681416D01*
X153503069Y-138840306D01*
X153555367Y-139012706D01*
X153573025Y-139192000D01*
X153555367Y-139371294D01*
X153503069Y-139543694D01*
X153503068Y-139543696D01*
X153418141Y-139702583D01*
X153303849Y-139841849D01*
X153164583Y-139956141D01*
X153005696Y-140041068D01*
X153005694Y-140041069D01*
X152833294Y-140093367D01*
X152698931Y-140106600D01*
X152609069Y-140106600D01*
X152474706Y-140093367D01*
X152302306Y-140041069D01*
X152302304Y-140041068D01*
X152143417Y-139956141D01*
X152004151Y-139841849D01*
X151889859Y-139702583D01*
X151804932Y-139543696D01*
X151804931Y-139543694D01*
X151752633Y-139371294D01*
X151734975Y-139192000D01*
X151752633Y-139012706D01*
X151804931Y-138840306D01*
X151889860Y-138681416D01*
X152004151Y-138542151D01*
X152143416Y-138427860D01*
X152143415Y-138427860D01*
X152143417Y-138427859D01*
X152302304Y-138342932D01*
X152302306Y-138342931D01*
X152474706Y-138290633D01*
X152609069Y-138277400D01*
X152698931Y-138277400D01*
X152833294Y-138290633D01*
X152833294Y-138290633D01*
G37*
G36*
X160453294Y-138290633D02*
X160625694Y-138342931D01*
X160625696Y-138342932D01*
X160784583Y-138427859D01*
X160784585Y-138427860D01*
X160784584Y-138427860D01*
X160923849Y-138542151D01*
X161038140Y-138681416D01*
X161123069Y-138840306D01*
X161175367Y-139012706D01*
X161193025Y-139192000D01*
X161175367Y-139371294D01*
X161123069Y-139543694D01*
X161123068Y-139543696D01*
X161038141Y-139702583D01*
X160923849Y-139841849D01*
X160784583Y-139956141D01*
X160625696Y-140041068D01*
X160625694Y-140041069D01*
X160453294Y-140093367D01*
X160318931Y-140106600D01*
X160229069Y-140106600D01*
X160094706Y-140093367D01*
X159922306Y-140041069D01*
X159922304Y-140041068D01*
X159763417Y-139956141D01*
X159624151Y-139841849D01*
X159509859Y-139702583D01*
X159424932Y-139543696D01*
X159424931Y-139543694D01*
X159372633Y-139371294D01*
X159354975Y-139192000D01*
X159372633Y-139012706D01*
X159424931Y-138840306D01*
X159509860Y-138681416D01*
X159624151Y-138542151D01*
X159763416Y-138427860D01*
X159763415Y-138427860D01*
X159763417Y-138427859D01*
X159922304Y-138342932D01*
X159922306Y-138342931D01*
X160094706Y-138290633D01*
X160229069Y-138277400D01*
X160318931Y-138277400D01*
X160453294Y-138290633D01*
X160453294Y-138290633D01*
G37*
G36*
X157913294Y-138290633D02*
X158085694Y-138342931D01*
X158085696Y-138342932D01*
X158244583Y-138427859D01*
X158244585Y-138427860D01*
X158244584Y-138427860D01*
X158383849Y-138542151D01*
X158498140Y-138681416D01*
X158583069Y-138840306D01*
X158635367Y-139012706D01*
X158653025Y-139192000D01*
X158635367Y-139371294D01*
X158583069Y-139543694D01*
X158583068Y-139543696D01*
X158498141Y-139702583D01*
X158383849Y-139841849D01*
X158244583Y-139956141D01*
X158085696Y-140041068D01*
X158085694Y-140041069D01*
X157913294Y-140093367D01*
X157778931Y-140106600D01*
X157689069Y-140106600D01*
X157554706Y-140093367D01*
X157382306Y-140041069D01*
X157382304Y-140041068D01*
X157223417Y-139956141D01*
X157084151Y-139841849D01*
X156969859Y-139702583D01*
X156884932Y-139543696D01*
X156884931Y-139543694D01*
X156832633Y-139371294D01*
X156814975Y-139192000D01*
X156832633Y-139012706D01*
X156884931Y-138840306D01*
X156969860Y-138681416D01*
X157084151Y-138542151D01*
X157223416Y-138427860D01*
X157223415Y-138427860D01*
X157223417Y-138427859D01*
X157382304Y-138342932D01*
X157382306Y-138342931D01*
X157554706Y-138290633D01*
X157689069Y-138277400D01*
X157778931Y-138277400D01*
X157913294Y-138290633D01*
X157913294Y-138290633D01*
G37*
G36*
X162993294Y-135750633D02*
X163165694Y-135802931D01*
X163165696Y-135802932D01*
X163324583Y-135887859D01*
X163324585Y-135887860D01*
X163324584Y-135887860D01*
X163463849Y-136002151D01*
X163578140Y-136141416D01*
X163663069Y-136300306D01*
X163715367Y-136472706D01*
X163733025Y-136652000D01*
X163715367Y-136831294D01*
X163663069Y-137003694D01*
X163663068Y-137003696D01*
X163578141Y-137162583D01*
X163463849Y-137301849D01*
X163324583Y-137416141D01*
X163165696Y-137501068D01*
X163165694Y-137501069D01*
X162993294Y-137553367D01*
X162858931Y-137566600D01*
X162769069Y-137566600D01*
X162634706Y-137553367D01*
X162462306Y-137501069D01*
X162462304Y-137501068D01*
X162303417Y-137416141D01*
X162164151Y-137301849D01*
X162049859Y-137162583D01*
X161964932Y-137003696D01*
X161964931Y-137003694D01*
X161912633Y-136831294D01*
X161894975Y-136652000D01*
X161912633Y-136472706D01*
X161964931Y-136300306D01*
X162049860Y-136141416D01*
X162164151Y-136002151D01*
X162303416Y-135887860D01*
X162303415Y-135887860D01*
X162303417Y-135887859D01*
X162462304Y-135802932D01*
X162462306Y-135802931D01*
X162634706Y-135750633D01*
X162769069Y-135737400D01*
X162858931Y-135737400D01*
X162993294Y-135750633D01*
X162993294Y-135750633D01*
G37*
G36*
X160453294Y-135750633D02*
X160625694Y-135802931D01*
X160625696Y-135802932D01*
X160784583Y-135887859D01*
X160784585Y-135887860D01*
X160784584Y-135887860D01*
X160923849Y-136002151D01*
X161038140Y-136141416D01*
X161123069Y-136300306D01*
X161175367Y-136472706D01*
X161193025Y-136652000D01*
X161175367Y-136831294D01*
X161123069Y-137003694D01*
X161123068Y-137003696D01*
X161038141Y-137162583D01*
X160923849Y-137301849D01*
X160784583Y-137416141D01*
X160625696Y-137501068D01*
X160625694Y-137501069D01*
X160453294Y-137553367D01*
X160318931Y-137566600D01*
X160229069Y-137566600D01*
X160094706Y-137553367D01*
X159922306Y-137501069D01*
X159922304Y-137501068D01*
X159763417Y-137416141D01*
X159624151Y-137301849D01*
X159509859Y-137162583D01*
X159424932Y-137003696D01*
X159424931Y-137003694D01*
X159372633Y-136831294D01*
X159354975Y-136652000D01*
X159372633Y-136472706D01*
X159424931Y-136300306D01*
X159509860Y-136141416D01*
X159624151Y-136002151D01*
X159763416Y-135887860D01*
X159763415Y-135887860D01*
X159763417Y-135887859D01*
X159922304Y-135802932D01*
X159922306Y-135802931D01*
X160094706Y-135750633D01*
X160229069Y-135737400D01*
X160318931Y-135737400D01*
X160453294Y-135750633D01*
X160453294Y-135750633D01*
G37*
G36*
X157913294Y-135750633D02*
X158085694Y-135802931D01*
X158085696Y-135802932D01*
X158244583Y-135887859D01*
X158244585Y-135887860D01*
X158244584Y-135887860D01*
X158383849Y-136002151D01*
X158498140Y-136141416D01*
X158583069Y-136300306D01*
X158635367Y-136472706D01*
X158653025Y-136652000D01*
X158635367Y-136831294D01*
X158583069Y-137003694D01*
X158583068Y-137003696D01*
X158498141Y-137162583D01*
X158383849Y-137301849D01*
X158244583Y-137416141D01*
X158085696Y-137501068D01*
X158085694Y-137501069D01*
X157913294Y-137553367D01*
X157778931Y-137566600D01*
X157689069Y-137566600D01*
X157554706Y-137553367D01*
X157382306Y-137501069D01*
X157382304Y-137501068D01*
X157223417Y-137416141D01*
X157084151Y-137301849D01*
X156969859Y-137162583D01*
X156884932Y-137003696D01*
X156884931Y-137003694D01*
X156832633Y-136831294D01*
X156814975Y-136652000D01*
X156832633Y-136472706D01*
X156884931Y-136300306D01*
X156969860Y-136141416D01*
X157084151Y-136002151D01*
X157223416Y-135887860D01*
X157223415Y-135887860D01*
X157223417Y-135887859D01*
X157382304Y-135802932D01*
X157382306Y-135802931D01*
X157554706Y-135750633D01*
X157689069Y-135737400D01*
X157778931Y-135737400D01*
X157913294Y-135750633D01*
X157913294Y-135750633D01*
G37*
G36*
X155373294Y-135750633D02*
X155545694Y-135802931D01*
X155545696Y-135802932D01*
X155704583Y-135887859D01*
X155704585Y-135887860D01*
X155704584Y-135887860D01*
X155843849Y-136002151D01*
X155958140Y-136141416D01*
X156043069Y-136300306D01*
X156095367Y-136472706D01*
X156113025Y-136652000D01*
X156095367Y-136831294D01*
X156043069Y-137003694D01*
X156043068Y-137003696D01*
X155958141Y-137162583D01*
X155843849Y-137301849D01*
X155704583Y-137416141D01*
X155545696Y-137501068D01*
X155545694Y-137501069D01*
X155373294Y-137553367D01*
X155238931Y-137566600D01*
X155149069Y-137566600D01*
X155014706Y-137553367D01*
X154842306Y-137501069D01*
X154842304Y-137501068D01*
X154683417Y-137416141D01*
X154544151Y-137301849D01*
X154429859Y-137162583D01*
X154344932Y-137003696D01*
X154344931Y-137003694D01*
X154292633Y-136831294D01*
X154274975Y-136652000D01*
X154292633Y-136472706D01*
X154344931Y-136300306D01*
X154429860Y-136141416D01*
X154544151Y-136002151D01*
X154683416Y-135887860D01*
X154683415Y-135887860D01*
X154683417Y-135887859D01*
X154842304Y-135802932D01*
X154842306Y-135802931D01*
X155014706Y-135750633D01*
X155149069Y-135737400D01*
X155238931Y-135737400D01*
X155373294Y-135750633D01*
X155373294Y-135750633D01*
G37*
G36*
X152833294Y-135750633D02*
X153005694Y-135802931D01*
X153005696Y-135802932D01*
X153164583Y-135887859D01*
X153164585Y-135887860D01*
X153164584Y-135887860D01*
X153303849Y-136002151D01*
X153418140Y-136141416D01*
X153503069Y-136300306D01*
X153555367Y-136472706D01*
X153573025Y-136652000D01*
X153555367Y-136831294D01*
X153503069Y-137003694D01*
X153503068Y-137003696D01*
X153418141Y-137162583D01*
X153303849Y-137301849D01*
X153164583Y-137416141D01*
X153005696Y-137501068D01*
X153005694Y-137501069D01*
X152833294Y-137553367D01*
X152698931Y-137566600D01*
X152609069Y-137566600D01*
X152474706Y-137553367D01*
X152302306Y-137501069D01*
X152302304Y-137501068D01*
X152143417Y-137416141D01*
X152004151Y-137301849D01*
X151889859Y-137162583D01*
X151804932Y-137003696D01*
X151804931Y-137003694D01*
X151752633Y-136831294D01*
X151734975Y-136652000D01*
X151752633Y-136472706D01*
X151804931Y-136300306D01*
X151889860Y-136141416D01*
X152004151Y-136002151D01*
X152143416Y-135887860D01*
X152143415Y-135887860D01*
X152143417Y-135887859D01*
X152302304Y-135802932D01*
X152302306Y-135802931D01*
X152474706Y-135750633D01*
X152609069Y-135737400D01*
X152698931Y-135737400D01*
X152833294Y-135750633D01*
X152833294Y-135750633D01*
G37*
G36*
X146239000Y-136969000D02*
X144337000Y-136969000D01*
X144337000Y-134367000D01*
X146239000Y-134367000D01*
X146239000Y-136969000D01*
X146239000Y-136969000D01*
G37*
G36*
X171639000Y-136461000D02*
X169737000Y-136461000D01*
X169737000Y-133859000D01*
X171639000Y-133859000D01*
X171639000Y-136461000D01*
X171639000Y-136461000D01*
G37*
G36*
X146139000Y-132699000D02*
X144437000Y-132699000D01*
X144437000Y-130397000D01*
X146139000Y-130397000D01*
X146139000Y-132699000D01*
X146139000Y-132699000D01*
G37*
G36*
X171539000Y-131175000D02*
X169837000Y-131175000D01*
X169837000Y-128873000D01*
X171539000Y-128873000D01*
X171539000Y-131175000D01*
X171539000Y-131175000D01*
G37*
G36*
X146139000Y-129699000D02*
X144437000Y-129699000D01*
X144437000Y-127397000D01*
X146139000Y-127397000D01*
X146139000Y-129699000D01*
X146139000Y-129699000D01*
G37*
G36*
X155290466Y-127195565D02*
X155329137Y-127207296D01*
X155364779Y-127226348D01*
X155396017Y-127251983D01*
X155421652Y-127283221D01*
X155440704Y-127318863D01*
X155452435Y-127357534D01*
X155457000Y-127403888D01*
X155457000Y-128055112D01*
X155452435Y-128101466D01*
X155440704Y-128140137D01*
X155421652Y-128175779D01*
X155396017Y-128207017D01*
X155364779Y-128232652D01*
X155329137Y-128251704D01*
X155290466Y-128263435D01*
X155244112Y-128268000D01*
X154167888Y-128268000D01*
X154121534Y-128263435D01*
X154082863Y-128251704D01*
X154047221Y-128232652D01*
X154015983Y-128207017D01*
X153990348Y-128175779D01*
X153971296Y-128140137D01*
X153959565Y-128101466D01*
X153955000Y-128055112D01*
X153955000Y-127403888D01*
X153959565Y-127357534D01*
X153971296Y-127318863D01*
X153990348Y-127283221D01*
X154015983Y-127251983D01*
X154047221Y-127226348D01*
X154082863Y-127207296D01*
X154121534Y-127195565D01*
X154167888Y-127191000D01*
X155244112Y-127191000D01*
X155290466Y-127195565D01*
X155290466Y-127195565D01*
G37*
G36*
X171539000Y-128175000D02*
X169837000Y-128175000D01*
X169837000Y-125873000D01*
X171539000Y-125873000D01*
X171539000Y-128175000D01*
X171539000Y-128175000D01*
G37*
G36*
X161140466Y-126045565D02*
X161179137Y-126057296D01*
X161214779Y-126076348D01*
X161246017Y-126101983D01*
X161271652Y-126133221D01*
X161290704Y-126168863D01*
X161302435Y-126207534D01*
X161307000Y-126253888D01*
X161307000Y-127330112D01*
X161302435Y-127376466D01*
X161290704Y-127415137D01*
X161271652Y-127450779D01*
X161246017Y-127482017D01*
X161214779Y-127507652D01*
X161179137Y-127526704D01*
X161140466Y-127538435D01*
X161094112Y-127543000D01*
X160442888Y-127543000D01*
X160396534Y-127538435D01*
X160357863Y-127526704D01*
X160322221Y-127507652D01*
X160290983Y-127482017D01*
X160265348Y-127450779D01*
X160246296Y-127415137D01*
X160234565Y-127376466D01*
X160230000Y-127330112D01*
X160230000Y-126253888D01*
X160234565Y-126207534D01*
X160246296Y-126168863D01*
X160265348Y-126133221D01*
X160290983Y-126101983D01*
X160322221Y-126076348D01*
X160357863Y-126057296D01*
X160396534Y-126045565D01*
X160442888Y-126041000D01*
X161094112Y-126041000D01*
X161140466Y-126045565D01*
X161140466Y-126045565D01*
G37*
G36*
X163015466Y-126045565D02*
X163054137Y-126057296D01*
X163089779Y-126076348D01*
X163121017Y-126101983D01*
X163146652Y-126133221D01*
X163165704Y-126168863D01*
X163177435Y-126207534D01*
X163182000Y-126253888D01*
X163182000Y-127330112D01*
X163177435Y-127376466D01*
X163165704Y-127415137D01*
X163146652Y-127450779D01*
X163121017Y-127482017D01*
X163089779Y-127507652D01*
X163054137Y-127526704D01*
X163015466Y-127538435D01*
X162969112Y-127543000D01*
X162317888Y-127543000D01*
X162271534Y-127538435D01*
X162232863Y-127526704D01*
X162197221Y-127507652D01*
X162165983Y-127482017D01*
X162140348Y-127450779D01*
X162121296Y-127415137D01*
X162109565Y-127376466D01*
X162105000Y-127330112D01*
X162105000Y-126253888D01*
X162109565Y-126207534D01*
X162121296Y-126168863D01*
X162140348Y-126133221D01*
X162165983Y-126101983D01*
X162197221Y-126076348D01*
X162232863Y-126057296D01*
X162271534Y-126045565D01*
X162317888Y-126041000D01*
X162969112Y-126041000D01*
X163015466Y-126045565D01*
X163015466Y-126045565D01*
G37*
G36*
X157187000Y-127118000D02*
X156025000Y-127118000D01*
X156025000Y-124466000D01*
X157187000Y-124466000D01*
X157187000Y-127118000D01*
X157187000Y-127118000D01*
G37*
G36*
X159387000Y-127118000D02*
X158225000Y-127118000D01*
X158225000Y-126366000D01*
X159387000Y-126366000D01*
X159387000Y-127118000D01*
X159387000Y-127118000D01*
G37*
G36*
X155290466Y-125320565D02*
X155329137Y-125332296D01*
X155364779Y-125351348D01*
X155396017Y-125376983D01*
X155421652Y-125408221D01*
X155440704Y-125443863D01*
X155452435Y-125482534D01*
X155457000Y-125528888D01*
X155457000Y-126180112D01*
X155452435Y-126226466D01*
X155440704Y-126265137D01*
X155421652Y-126300779D01*
X155396017Y-126332017D01*
X155364779Y-126357652D01*
X155329137Y-126376704D01*
X155290466Y-126388435D01*
X155244112Y-126393000D01*
X154167888Y-126393000D01*
X154121534Y-126388435D01*
X154082863Y-126376704D01*
X154047221Y-126357652D01*
X154015983Y-126332017D01*
X153990348Y-126300779D01*
X153971296Y-126265137D01*
X153959565Y-126226466D01*
X153955000Y-126180112D01*
X153955000Y-125528888D01*
X153959565Y-125482534D01*
X153971296Y-125443863D01*
X153990348Y-125408221D01*
X154015983Y-125376983D01*
X154047221Y-125351348D01*
X154082863Y-125332296D01*
X154121534Y-125320565D01*
X154167888Y-125316000D01*
X155244112Y-125316000D01*
X155290466Y-125320565D01*
X155290466Y-125320565D01*
G37*
G36*
X159387000Y-125218000D02*
X158225000Y-125218000D01*
X158225000Y-124466000D01*
X159387000Y-124466000D01*
X159387000Y-125218000D01*
X159387000Y-125218000D01*
G37*
G36*
X163518466Y-117363565D02*
X163557137Y-117375296D01*
X163592779Y-117394348D01*
X163624017Y-117419983D01*
X163649652Y-117451221D01*
X163668704Y-117486863D01*
X163680435Y-117525534D01*
X163685000Y-117571888D01*
X163685000Y-118648112D01*
X163680435Y-118694466D01*
X163668704Y-118733137D01*
X163649652Y-118768779D01*
X163624017Y-118800017D01*
X163592779Y-118825652D01*
X163557137Y-118844704D01*
X163518466Y-118856435D01*
X163472112Y-118861000D01*
X162820888Y-118861000D01*
X162774534Y-118856435D01*
X162735863Y-118844704D01*
X162700221Y-118825652D01*
X162668983Y-118800017D01*
X162643348Y-118768779D01*
X162624296Y-118733137D01*
X162612565Y-118694466D01*
X162608000Y-118648112D01*
X162608000Y-117571888D01*
X162612565Y-117525534D01*
X162624296Y-117486863D01*
X162643348Y-117451221D01*
X162668983Y-117419983D01*
X162700221Y-117394348D01*
X162735863Y-117375296D01*
X162774534Y-117363565D01*
X162820888Y-117359000D01*
X163472112Y-117359000D01*
X163518466Y-117363565D01*
X163518466Y-117363565D01*
G37*
G36*
X165393466Y-117363565D02*
X165432137Y-117375296D01*
X165467779Y-117394348D01*
X165499017Y-117419983D01*
X165524652Y-117451221D01*
X165543704Y-117486863D01*
X165555435Y-117525534D01*
X165560000Y-117571888D01*
X165560000Y-118648112D01*
X165555435Y-118694466D01*
X165543704Y-118733137D01*
X165524652Y-118768779D01*
X165499017Y-118800017D01*
X165467779Y-118825652D01*
X165432137Y-118844704D01*
X165393466Y-118856435D01*
X165347112Y-118861000D01*
X164695888Y-118861000D01*
X164649534Y-118856435D01*
X164610863Y-118844704D01*
X164575221Y-118825652D01*
X164543983Y-118800017D01*
X164518348Y-118768779D01*
X164499296Y-118733137D01*
X164487565Y-118694466D01*
X164483000Y-118648112D01*
X164483000Y-117571888D01*
X164487565Y-117525534D01*
X164499296Y-117486863D01*
X164518348Y-117451221D01*
X164543983Y-117419983D01*
X164575221Y-117394348D01*
X164610863Y-117375296D01*
X164649534Y-117363565D01*
X164695888Y-117359000D01*
X165347112Y-117359000D01*
X165393466Y-117363565D01*
X165393466Y-117363565D01*
G37*
G36*
X167462466Y-117497565D02*
X167501137Y-117509296D01*
X167536779Y-117528348D01*
X167568017Y-117553983D01*
X167593652Y-117585221D01*
X167612704Y-117620863D01*
X167624435Y-117659534D01*
X167629000Y-117705888D01*
X167629000Y-118357112D01*
X167624435Y-118403466D01*
X167612704Y-118442137D01*
X167593652Y-118477779D01*
X167568017Y-118509017D01*
X167536779Y-118534652D01*
X167501137Y-118553704D01*
X167462466Y-118565435D01*
X167416112Y-118570000D01*
X166339888Y-118570000D01*
X166293534Y-118565435D01*
X166254863Y-118553704D01*
X166219221Y-118534652D01*
X166187983Y-118509017D01*
X166162348Y-118477779D01*
X166143296Y-118442137D01*
X166131565Y-118403466D01*
X166127000Y-118357112D01*
X166127000Y-117705888D01*
X166131565Y-117659534D01*
X166143296Y-117620863D01*
X166162348Y-117585221D01*
X166187983Y-117553983D01*
X166219221Y-117528348D01*
X166254863Y-117509296D01*
X166293534Y-117497565D01*
X166339888Y-117493000D01*
X167416112Y-117493000D01*
X167462466Y-117497565D01*
X167462466Y-117497565D01*
G37*
G36*
X167462466Y-115622565D02*
X167501137Y-115634296D01*
X167536779Y-115653348D01*
X167568017Y-115678983D01*
X167593652Y-115710221D01*
X167612704Y-115745863D01*
X167624435Y-115784534D01*
X167629000Y-115830888D01*
X167629000Y-116482112D01*
X167624435Y-116528466D01*
X167612704Y-116567137D01*
X167593652Y-116602779D01*
X167568017Y-116634017D01*
X167536779Y-116659652D01*
X167501137Y-116678704D01*
X167462466Y-116690435D01*
X167416112Y-116695000D01*
X166339888Y-116695000D01*
X166293534Y-116690435D01*
X166254863Y-116678704D01*
X166219221Y-116659652D01*
X166187983Y-116634017D01*
X166162348Y-116602779D01*
X166143296Y-116567137D01*
X166131565Y-116528466D01*
X166127000Y-116482112D01*
X166127000Y-115830888D01*
X166131565Y-115784534D01*
X166143296Y-115745863D01*
X166162348Y-115710221D01*
X166187983Y-115678983D01*
X166219221Y-115653348D01*
X166254863Y-115634296D01*
X166293534Y-115622565D01*
X166339888Y-115618000D01*
X167416112Y-115618000D01*
X167462466Y-115622565D01*
X167462466Y-115622565D01*
G37*
G36*
X152771966Y-113553565D02*
X152810637Y-113565296D01*
X152846279Y-113584348D01*
X152877517Y-113609983D01*
X152903152Y-113641221D01*
X152922204Y-113676863D01*
X152933935Y-113715534D01*
X152938500Y-113761888D01*
X152938500Y-114838112D01*
X152933935Y-114884466D01*
X152922204Y-114923137D01*
X152903152Y-114958779D01*
X152877517Y-114990017D01*
X152846279Y-115015652D01*
X152810637Y-115034704D01*
X152771966Y-115046435D01*
X152725612Y-115051000D01*
X152074388Y-115051000D01*
X152028034Y-115046435D01*
X151989363Y-115034704D01*
X151953721Y-115015652D01*
X151922483Y-114990017D01*
X151896848Y-114958779D01*
X151877796Y-114923137D01*
X151866065Y-114884466D01*
X151861500Y-114838112D01*
X151861500Y-113761888D01*
X151866065Y-113715534D01*
X151877796Y-113676863D01*
X151896848Y-113641221D01*
X151922483Y-113609983D01*
X151953721Y-113584348D01*
X151989363Y-113565296D01*
X152028034Y-113553565D01*
X152074388Y-113549000D01*
X152725612Y-113549000D01*
X152771966Y-113553565D01*
X152771966Y-113553565D01*
G37*
G36*
X150896966Y-113553565D02*
X150935637Y-113565296D01*
X150971279Y-113584348D01*
X151002517Y-113609983D01*
X151028152Y-113641221D01*
X151047204Y-113676863D01*
X151058935Y-113715534D01*
X151063500Y-113761888D01*
X151063500Y-114838112D01*
X151058935Y-114884466D01*
X151047204Y-114923137D01*
X151028152Y-114958779D01*
X151002517Y-114990017D01*
X150971279Y-115015652D01*
X150935637Y-115034704D01*
X150896966Y-115046435D01*
X150850612Y-115051000D01*
X150199388Y-115051000D01*
X150153034Y-115046435D01*
X150114363Y-115034704D01*
X150078721Y-115015652D01*
X150047483Y-114990017D01*
X150021848Y-114958779D01*
X150002796Y-114923137D01*
X149991065Y-114884466D01*
X149986500Y-114838112D01*
X149986500Y-113761888D01*
X149991065Y-113715534D01*
X150002796Y-113676863D01*
X150021848Y-113641221D01*
X150047483Y-113609983D01*
X150078721Y-113584348D01*
X150114363Y-113565296D01*
X150153034Y-113553565D01*
X150199388Y-113549000D01*
X150850612Y-113549000D01*
X150896966Y-113553565D01*
X150896966Y-113553565D01*
G37*
G36*
X142484472Y-113505938D02*
X142612049Y-113558782D01*
X142726865Y-113635500D01*
X142824500Y-113733135D01*
X142901218Y-113847951D01*
X142954062Y-113975528D01*
X142981000Y-114110956D01*
X142981000Y-114249044D01*
X142954062Y-114384472D01*
X142901218Y-114512049D01*
X142824500Y-114626865D01*
X142726865Y-114724500D01*
X142612049Y-114801218D01*
X142484472Y-114854062D01*
X142349044Y-114881000D01*
X142210956Y-114881000D01*
X142075528Y-114854062D01*
X141947951Y-114801218D01*
X141833135Y-114724500D01*
X141735500Y-114626865D01*
X141658782Y-114512049D01*
X141605938Y-114384472D01*
X141579000Y-114249044D01*
X141579000Y-114110956D01*
X141605938Y-113975528D01*
X141658782Y-113847951D01*
X141735500Y-113733135D01*
X141833135Y-113635500D01*
X141947951Y-113558782D01*
X142075528Y-113505938D01*
X142210956Y-113479000D01*
X142349044Y-113479000D01*
X142484472Y-113505938D01*
X142484472Y-113505938D01*
G37*
G36*
X144984472Y-113505938D02*
X145112049Y-113558782D01*
X145226865Y-113635500D01*
X145324500Y-113733135D01*
X145401218Y-113847951D01*
X145454062Y-113975528D01*
X145481000Y-114110956D01*
X145481000Y-114249044D01*
X145454062Y-114384472D01*
X145401218Y-114512049D01*
X145324500Y-114626865D01*
X145226865Y-114724500D01*
X145112049Y-114801218D01*
X144984472Y-114854062D01*
X144849044Y-114881000D01*
X144710956Y-114881000D01*
X144575528Y-114854062D01*
X144447951Y-114801218D01*
X144333135Y-114724500D01*
X144235500Y-114626865D01*
X144158782Y-114512049D01*
X144105938Y-114384472D01*
X144079000Y-114249044D01*
X144079000Y-114110956D01*
X144105938Y-113975528D01*
X144158782Y-113847951D01*
X144235500Y-113733135D01*
X144333135Y-113635500D01*
X144447951Y-113558782D01*
X144575528Y-113505938D01*
X144710956Y-113479000D01*
X144849044Y-113479000D01*
X144984472Y-113505938D01*
X144984472Y-113505938D01*
G37*
G36*
X147484472Y-113505938D02*
X147612049Y-113558782D01*
X147726865Y-113635500D01*
X147824500Y-113733135D01*
X147901218Y-113847951D01*
X147954062Y-113975528D01*
X147981000Y-114110956D01*
X147981000Y-114249044D01*
X147954062Y-114384472D01*
X147901218Y-114512049D01*
X147824500Y-114626865D01*
X147726865Y-114724500D01*
X147612049Y-114801218D01*
X147484472Y-114854062D01*
X147349044Y-114881000D01*
X147210956Y-114881000D01*
X147075528Y-114854062D01*
X146947951Y-114801218D01*
X146833135Y-114724500D01*
X146735500Y-114626865D01*
X146658782Y-114512049D01*
X146605938Y-114384472D01*
X146579000Y-114249044D01*
X146579000Y-114110956D01*
X146605938Y-113975528D01*
X146658782Y-113847951D01*
X146735500Y-113733135D01*
X146833135Y-113635500D01*
X146947951Y-113558782D01*
X147075528Y-113505938D01*
X147210956Y-113479000D01*
X147349044Y-113479000D01*
X147484472Y-113505938D01*
X147484472Y-113505938D01*
G37*
G36*
X172122472Y-113251938D02*
X172250049Y-113304782D01*
X172364865Y-113381500D01*
X172462500Y-113479135D01*
X172539218Y-113593951D01*
X172592062Y-113721528D01*
X172619000Y-113856956D01*
X172619000Y-113995044D01*
X172592062Y-114130472D01*
X172539218Y-114258049D01*
X172462500Y-114372865D01*
X172364865Y-114470500D01*
X172250049Y-114547218D01*
X172122472Y-114600062D01*
X171987044Y-114627000D01*
X171848956Y-114627000D01*
X171713528Y-114600062D01*
X171585951Y-114547218D01*
X171471135Y-114470500D01*
X171373500Y-114372865D01*
X171296782Y-114258049D01*
X171243938Y-114130472D01*
X171217000Y-113995044D01*
X171217000Y-113856956D01*
X171243938Y-113721528D01*
X171296782Y-113593951D01*
X171373500Y-113479135D01*
X171471135Y-113381500D01*
X171585951Y-113304782D01*
X171713528Y-113251938D01*
X171848956Y-113225000D01*
X171987044Y-113225000D01*
X172122472Y-113251938D01*
X172122472Y-113251938D01*
G37*
G36*
X169622472Y-113251938D02*
X169750049Y-113304782D01*
X169864865Y-113381500D01*
X169962500Y-113479135D01*
X170039218Y-113593951D01*
X170092062Y-113721528D01*
X170119000Y-113856956D01*
X170119000Y-113995044D01*
X170092062Y-114130472D01*
X170039218Y-114258049D01*
X169962500Y-114372865D01*
X169864865Y-114470500D01*
X169750049Y-114547218D01*
X169622472Y-114600062D01*
X169487044Y-114627000D01*
X169348956Y-114627000D01*
X169213528Y-114600062D01*
X169085951Y-114547218D01*
X168971135Y-114470500D01*
X168873500Y-114372865D01*
X168796782Y-114258049D01*
X168743938Y-114130472D01*
X168717000Y-113995044D01*
X168717000Y-113856956D01*
X168743938Y-113721528D01*
X168796782Y-113593951D01*
X168873500Y-113479135D01*
X168971135Y-113381500D01*
X169085951Y-113304782D01*
X169213528Y-113251938D01*
X169348956Y-113225000D01*
X169487044Y-113225000D01*
X169622472Y-113251938D01*
X169622472Y-113251938D01*
G37*
G36*
X167122472Y-113251938D02*
X167250049Y-113304782D01*
X167364865Y-113381500D01*
X167462500Y-113479135D01*
X167539218Y-113593951D01*
X167592062Y-113721528D01*
X167619000Y-113856956D01*
X167619000Y-113995044D01*
X167592062Y-114130472D01*
X167539218Y-114258049D01*
X167462500Y-114372865D01*
X167364865Y-114470500D01*
X167250049Y-114547218D01*
X167122472Y-114600062D01*
X166987044Y-114627000D01*
X166848956Y-114627000D01*
X166713528Y-114600062D01*
X166585951Y-114547218D01*
X166471135Y-114470500D01*
X166373500Y-114372865D01*
X166296782Y-114258049D01*
X166243938Y-114130472D01*
X166217000Y-113995044D01*
X166217000Y-113856956D01*
X166243938Y-113721528D01*
X166296782Y-113593951D01*
X166373500Y-113479135D01*
X166471135Y-113381500D01*
X166585951Y-113304782D01*
X166713528Y-113251938D01*
X166848956Y-113225000D01*
X166987044Y-113225000D01*
X167122472Y-113251938D01*
X167122472Y-113251938D01*
G37*
G36*
X158184466Y-108473565D02*
X158223137Y-108485296D01*
X158258779Y-108504348D01*
X158290017Y-108529983D01*
X158315652Y-108561221D01*
X158334704Y-108596863D01*
X158346435Y-108635534D01*
X158351000Y-108681888D01*
X158351000Y-109758112D01*
X158346435Y-109804466D01*
X158334704Y-109843137D01*
X158315652Y-109878779D01*
X158290017Y-109910017D01*
X158258779Y-109935652D01*
X158223137Y-109954704D01*
X158184466Y-109966435D01*
X158138112Y-109971000D01*
X157486888Y-109971000D01*
X157440534Y-109966435D01*
X157401863Y-109954704D01*
X157366221Y-109935652D01*
X157334983Y-109910017D01*
X157309348Y-109878779D01*
X157290296Y-109843137D01*
X157278565Y-109804466D01*
X157274000Y-109758112D01*
X157274000Y-108681888D01*
X157278565Y-108635534D01*
X157290296Y-108596863D01*
X157309348Y-108561221D01*
X157334983Y-108529983D01*
X157366221Y-108504348D01*
X157401863Y-108485296D01*
X157440534Y-108473565D01*
X157486888Y-108469000D01*
X158138112Y-108469000D01*
X158184466Y-108473565D01*
X158184466Y-108473565D01*
G37*
G36*
X160059466Y-108473565D02*
X160098137Y-108485296D01*
X160133779Y-108504348D01*
X160165017Y-108529983D01*
X160190652Y-108561221D01*
X160209704Y-108596863D01*
X160221435Y-108635534D01*
X160226000Y-108681888D01*
X160226000Y-109758112D01*
X160221435Y-109804466D01*
X160209704Y-109843137D01*
X160190652Y-109878779D01*
X160165017Y-109910017D01*
X160133779Y-109935652D01*
X160098137Y-109954704D01*
X160059466Y-109966435D01*
X160013112Y-109971000D01*
X159361888Y-109971000D01*
X159315534Y-109966435D01*
X159276863Y-109954704D01*
X159241221Y-109935652D01*
X159209983Y-109910017D01*
X159184348Y-109878779D01*
X159165296Y-109843137D01*
X159153565Y-109804466D01*
X159149000Y-109758112D01*
X159149000Y-108681888D01*
X159153565Y-108635534D01*
X159165296Y-108596863D01*
X159184348Y-108561221D01*
X159209983Y-108529983D01*
X159241221Y-108504348D01*
X159276863Y-108485296D01*
X159315534Y-108473565D01*
X159361888Y-108469000D01*
X160013112Y-108469000D01*
X160059466Y-108473565D01*
X160059466Y-108473565D01*
G37*
G36*
X162890466Y-108607565D02*
X162929137Y-108619296D01*
X162964779Y-108638348D01*
X162996017Y-108663983D01*
X163021652Y-108695221D01*
X163040704Y-108730863D01*
X163052435Y-108769534D01*
X163057000Y-108815888D01*
X163057000Y-109467112D01*
X163052435Y-109513466D01*
X163040704Y-109552137D01*
X163021652Y-109587779D01*
X162996017Y-109619017D01*
X162964779Y-109644652D01*
X162929137Y-109663704D01*
X162890466Y-109675435D01*
X162844112Y-109680000D01*
X161767888Y-109680000D01*
X161721534Y-109675435D01*
X161682863Y-109663704D01*
X161647221Y-109644652D01*
X161615983Y-109619017D01*
X161590348Y-109587779D01*
X161571296Y-109552137D01*
X161559565Y-109513466D01*
X161555000Y-109467112D01*
X161555000Y-108815888D01*
X161559565Y-108769534D01*
X161571296Y-108730863D01*
X161590348Y-108695221D01*
X161615983Y-108663983D01*
X161647221Y-108638348D01*
X161682863Y-108619296D01*
X161721534Y-108607565D01*
X161767888Y-108603000D01*
X162844112Y-108603000D01*
X162890466Y-108607565D01*
X162890466Y-108607565D01*
G37*
G36*
X160498000Y-107920000D02*
X158846000Y-107920000D01*
X158846000Y-107218000D01*
X160498000Y-107218000D01*
X160498000Y-107920000D01*
X160498000Y-107920000D01*
G37*
G36*
X155098000Y-107920000D02*
X153446000Y-107920000D01*
X153446000Y-107218000D01*
X155098000Y-107218000D01*
X155098000Y-107920000D01*
X155098000Y-107920000D01*
G37*
G36*
X162890466Y-106732565D02*
X162929137Y-106744296D01*
X162964779Y-106763348D01*
X162996017Y-106788983D01*
X163021652Y-106820221D01*
X163040704Y-106855863D01*
X163052435Y-106894534D01*
X163057000Y-106940888D01*
X163057000Y-107592112D01*
X163052435Y-107638466D01*
X163040704Y-107677137D01*
X163021652Y-107712779D01*
X162996017Y-107744017D01*
X162964779Y-107769652D01*
X162929137Y-107788704D01*
X162890466Y-107800435D01*
X162844112Y-107805000D01*
X161767888Y-107805000D01*
X161721534Y-107800435D01*
X161682863Y-107788704D01*
X161647221Y-107769652D01*
X161615983Y-107744017D01*
X161590348Y-107712779D01*
X161571296Y-107677137D01*
X161559565Y-107638466D01*
X161555000Y-107592112D01*
X161555000Y-106940888D01*
X161559565Y-106894534D01*
X161571296Y-106855863D01*
X161590348Y-106820221D01*
X161615983Y-106788983D01*
X161647221Y-106763348D01*
X161682863Y-106744296D01*
X161721534Y-106732565D01*
X161767888Y-106728000D01*
X162844112Y-106728000D01*
X162890466Y-106732565D01*
X162890466Y-106732565D01*
G37*
G36*
X149886565Y-105669389D02*
X150077834Y-105748615D01*
X150249976Y-105863637D01*
X150396363Y-106010024D01*
X150511385Y-106182166D01*
X150590611Y-106373435D01*
X150631000Y-106576484D01*
X150631000Y-106783516D01*
X150590611Y-106986565D01*
X150511385Y-107177834D01*
X150396363Y-107349976D01*
X150249976Y-107496363D01*
X150077834Y-107611385D01*
X149886565Y-107690611D01*
X149683516Y-107731000D01*
X149476484Y-107731000D01*
X149273435Y-107690611D01*
X149082166Y-107611385D01*
X148910024Y-107496363D01*
X148763637Y-107349976D01*
X148648615Y-107177834D01*
X148569389Y-106986565D01*
X148529000Y-106783516D01*
X148529000Y-106576484D01*
X148569389Y-106373435D01*
X148648615Y-106182166D01*
X148763637Y-106010024D01*
X148910024Y-105863637D01*
X149082166Y-105748615D01*
X149273435Y-105669389D01*
X149476484Y-105629000D01*
X149683516Y-105629000D01*
X149886565Y-105669389D01*
X149886565Y-105669389D01*
G37*
G36*
X140286565Y-105669389D02*
X140477834Y-105748615D01*
X140649976Y-105863637D01*
X140796363Y-106010024D01*
X140911385Y-106182166D01*
X140990611Y-106373435D01*
X141031000Y-106576484D01*
X141031000Y-106783516D01*
X140990611Y-106986565D01*
X140911385Y-107177834D01*
X140796363Y-107349976D01*
X140649976Y-107496363D01*
X140477834Y-107611385D01*
X140286565Y-107690611D01*
X140083516Y-107731000D01*
X139876484Y-107731000D01*
X139673435Y-107690611D01*
X139482166Y-107611385D01*
X139310024Y-107496363D01*
X139163637Y-107349976D01*
X139048615Y-107177834D01*
X138969389Y-106986565D01*
X138929000Y-106783516D01*
X138929000Y-106576484D01*
X138969389Y-106373435D01*
X139048615Y-106182166D01*
X139163637Y-106010024D01*
X139310024Y-105863637D01*
X139482166Y-105748615D01*
X139673435Y-105669389D01*
X139876484Y-105629000D01*
X140083516Y-105629000D01*
X140286565Y-105669389D01*
X140286565Y-105669389D01*
G37*
G36*
X174524565Y-105415389D02*
X174715834Y-105494615D01*
X174887976Y-105609637D01*
X175034363Y-105756024D01*
X175149385Y-105928166D01*
X175228611Y-106119435D01*
X175269000Y-106322484D01*
X175269000Y-106529516D01*
X175228611Y-106732565D01*
X175149385Y-106923834D01*
X175034363Y-107095976D01*
X174887976Y-107242363D01*
X174715834Y-107357385D01*
X174524565Y-107436611D01*
X174321516Y-107477000D01*
X174114484Y-107477000D01*
X173911435Y-107436611D01*
X173720166Y-107357385D01*
X173548024Y-107242363D01*
X173401637Y-107095976D01*
X173286615Y-106923834D01*
X173207389Y-106732565D01*
X173167000Y-106529516D01*
X173167000Y-106322484D01*
X173207389Y-106119435D01*
X173286615Y-105928166D01*
X173401637Y-105756024D01*
X173548024Y-105609637D01*
X173720166Y-105494615D01*
X173911435Y-105415389D01*
X174114484Y-105375000D01*
X174321516Y-105375000D01*
X174524565Y-105415389D01*
X174524565Y-105415389D01*
G37*
G36*
X164924565Y-105415389D02*
X165115834Y-105494615D01*
X165287976Y-105609637D01*
X165434363Y-105756024D01*
X165549385Y-105928166D01*
X165628611Y-106119435D01*
X165669000Y-106322484D01*
X165669000Y-106529516D01*
X165628611Y-106732565D01*
X165549385Y-106923834D01*
X165434363Y-107095976D01*
X165287976Y-107242363D01*
X165115834Y-107357385D01*
X164924565Y-107436611D01*
X164721516Y-107477000D01*
X164514484Y-107477000D01*
X164311435Y-107436611D01*
X164120166Y-107357385D01*
X163948024Y-107242363D01*
X163801637Y-107095976D01*
X163686615Y-106923834D01*
X163607389Y-106732565D01*
X163567000Y-106529516D01*
X163567000Y-106322484D01*
X163607389Y-106119435D01*
X163686615Y-105928166D01*
X163801637Y-105756024D01*
X163948024Y-105609637D01*
X164120166Y-105494615D01*
X164311435Y-105415389D01*
X164514484Y-105375000D01*
X164721516Y-105375000D01*
X164924565Y-105415389D01*
X164924565Y-105415389D01*
G37*
G36*
X155098000Y-106650000D02*
X153446000Y-106650000D01*
X153446000Y-105948000D01*
X155098000Y-105948000D01*
X155098000Y-106650000D01*
X155098000Y-106650000D01*
G37*
G36*
X160498000Y-106650000D02*
X158846000Y-106650000D01*
X158846000Y-105948000D01*
X160498000Y-105948000D01*
X160498000Y-106650000D01*
X160498000Y-106650000D01*
G37*
G36*
X155098000Y-105380000D02*
X153446000Y-105380000D01*
X153446000Y-104678000D01*
X155098000Y-104678000D01*
X155098000Y-105380000D01*
X155098000Y-105380000D01*
G37*
G36*
X160498000Y-105380000D02*
X158846000Y-105380000D01*
X158846000Y-104678000D01*
X160498000Y-104678000D01*
X160498000Y-105380000D01*
X160498000Y-105380000D01*
G37*
G36*
X155098000Y-104110000D02*
X153446000Y-104110000D01*
X153446000Y-103408000D01*
X155098000Y-103408000D01*
X155098000Y-104110000D01*
X155098000Y-104110000D01*
G37*
G36*
X160498000Y-104110000D02*
X158846000Y-104110000D01*
X158846000Y-103408000D01*
X160498000Y-103408000D01*
X160498000Y-104110000D01*
X160498000Y-104110000D01*
G37*
G36*
X152850466Y-100853565D02*
X152889137Y-100865296D01*
X152924779Y-100884348D01*
X152956017Y-100909983D01*
X152981652Y-100941221D01*
X153000704Y-100976863D01*
X153012435Y-101015534D01*
X153017000Y-101061888D01*
X153017000Y-102138112D01*
X153012435Y-102184466D01*
X153000704Y-102223137D01*
X152981652Y-102258779D01*
X152956017Y-102290017D01*
X152924779Y-102315652D01*
X152889137Y-102334704D01*
X152850466Y-102346435D01*
X152804112Y-102351000D01*
X152152888Y-102351000D01*
X152106534Y-102346435D01*
X152067863Y-102334704D01*
X152032221Y-102315652D01*
X152000983Y-102290017D01*
X151975348Y-102258779D01*
X151956296Y-102223137D01*
X151944565Y-102184466D01*
X151940000Y-102138112D01*
X151940000Y-101061888D01*
X151944565Y-101015534D01*
X151956296Y-100976863D01*
X151975348Y-100941221D01*
X152000983Y-100909983D01*
X152032221Y-100884348D01*
X152067863Y-100865296D01*
X152106534Y-100853565D01*
X152152888Y-100849000D01*
X152804112Y-100849000D01*
X152850466Y-100853565D01*
X152850466Y-100853565D01*
G37*
G36*
X154725466Y-100853565D02*
X154764137Y-100865296D01*
X154799779Y-100884348D01*
X154831017Y-100909983D01*
X154856652Y-100941221D01*
X154875704Y-100976863D01*
X154887435Y-101015534D01*
X154892000Y-101061888D01*
X154892000Y-102138112D01*
X154887435Y-102184466D01*
X154875704Y-102223137D01*
X154856652Y-102258779D01*
X154831017Y-102290017D01*
X154799779Y-102315652D01*
X154764137Y-102334704D01*
X154725466Y-102346435D01*
X154679112Y-102351000D01*
X154027888Y-102351000D01*
X153981534Y-102346435D01*
X153942863Y-102334704D01*
X153907221Y-102315652D01*
X153875983Y-102290017D01*
X153850348Y-102258779D01*
X153831296Y-102223137D01*
X153819565Y-102184466D01*
X153815000Y-102138112D01*
X153815000Y-101061888D01*
X153819565Y-101015534D01*
X153831296Y-100976863D01*
X153850348Y-100941221D01*
X153875983Y-100909983D01*
X153907221Y-100884348D01*
X153942863Y-100865296D01*
X153981534Y-100853565D01*
X154027888Y-100849000D01*
X154679112Y-100849000D01*
X154725466Y-100853565D01*
X154725466Y-100853565D01*
G37*
G36*
X160184472Y-95725938D02*
X160312049Y-95778782D01*
X160426865Y-95855500D01*
X160524500Y-95953135D01*
X160601218Y-96067951D01*
X160654062Y-96195528D01*
X160681000Y-96330956D01*
X160681000Y-96469044D01*
X160654062Y-96604472D01*
X160601218Y-96732049D01*
X160524500Y-96846865D01*
X160426865Y-96944500D01*
X160312049Y-97021218D01*
X160184472Y-97074062D01*
X160049044Y-97101000D01*
X159910956Y-97101000D01*
X159775528Y-97074062D01*
X159647951Y-97021218D01*
X159533135Y-96944500D01*
X159435500Y-96846865D01*
X159358782Y-96732049D01*
X159305938Y-96604472D01*
X159279000Y-96469044D01*
X159279000Y-96330956D01*
X159305938Y-96195528D01*
X159358782Y-96067951D01*
X159435500Y-95953135D01*
X159533135Y-95855500D01*
X159647951Y-95778782D01*
X159775528Y-95725938D01*
X159910956Y-95699000D01*
X160049044Y-95699000D01*
X160184472Y-95725938D01*
X160184472Y-95725938D01*
G37*
G36*
X155184472Y-95725938D02*
X155312049Y-95778782D01*
X155426865Y-95855500D01*
X155524500Y-95953135D01*
X155601218Y-96067951D01*
X155654062Y-96195528D01*
X155681000Y-96330956D01*
X155681000Y-96469044D01*
X155654062Y-96604472D01*
X155601218Y-96732049D01*
X155524500Y-96846865D01*
X155426865Y-96944500D01*
X155312049Y-97021218D01*
X155184472Y-97074062D01*
X155049044Y-97101000D01*
X154910956Y-97101000D01*
X154775528Y-97074062D01*
X154647951Y-97021218D01*
X154533135Y-96944500D01*
X154435500Y-96846865D01*
X154358782Y-96732049D01*
X154305938Y-96604472D01*
X154279000Y-96469044D01*
X154279000Y-96330956D01*
X154305938Y-96195528D01*
X154358782Y-96067951D01*
X154435500Y-95953135D01*
X154533135Y-95855500D01*
X154647951Y-95778782D01*
X154775528Y-95725938D01*
X154910956Y-95699000D01*
X155049044Y-95699000D01*
X155184472Y-95725938D01*
X155184472Y-95725938D01*
G37*
G36*
X157684472Y-95725938D02*
X157812049Y-95778782D01*
X157926865Y-95855500D01*
X158024500Y-95953135D01*
X158101218Y-96067951D01*
X158154062Y-96195528D01*
X158181000Y-96330956D01*
X158181000Y-96469044D01*
X158154062Y-96604472D01*
X158101218Y-96732049D01*
X158024500Y-96846865D01*
X157926865Y-96944500D01*
X157812049Y-97021218D01*
X157684472Y-97074062D01*
X157549044Y-97101000D01*
X157410956Y-97101000D01*
X157275528Y-97074062D01*
X157147951Y-97021218D01*
X157033135Y-96944500D01*
X156935500Y-96846865D01*
X156858782Y-96732049D01*
X156805938Y-96604472D01*
X156779000Y-96469044D01*
X156779000Y-96330956D01*
X156805938Y-96195528D01*
X156858782Y-96067951D01*
X156935500Y-95953135D01*
X157033135Y-95855500D01*
X157147951Y-95778782D01*
X157275528Y-95725938D01*
X157410956Y-95699000D01*
X157549044Y-95699000D01*
X157684472Y-95725938D01*
X157684472Y-95725938D01*
G37*
G36*
X152986565Y-87889389D02*
X153177834Y-87968615D01*
X153349976Y-88083637D01*
X153496363Y-88230024D01*
X153611385Y-88402166D01*
X153690611Y-88593435D01*
X153731000Y-88796484D01*
X153731000Y-89003516D01*
X153690611Y-89206565D01*
X153611385Y-89397834D01*
X153496363Y-89569976D01*
X153349976Y-89716363D01*
X153177834Y-89831385D01*
X152986565Y-89910611D01*
X152783516Y-89951000D01*
X152576484Y-89951000D01*
X152373435Y-89910611D01*
X152182166Y-89831385D01*
X152010024Y-89716363D01*
X151863637Y-89569976D01*
X151748615Y-89397834D01*
X151669389Y-89206565D01*
X151629000Y-89003516D01*
X151629000Y-88796484D01*
X151669389Y-88593435D01*
X151748615Y-88402166D01*
X151863637Y-88230024D01*
X152010024Y-88083637D01*
X152182166Y-87968615D01*
X152373435Y-87889389D01*
X152576484Y-87849000D01*
X152783516Y-87849000D01*
X152986565Y-87889389D01*
X152986565Y-87889389D01*
G37*
G36*
X162586565Y-87889389D02*
X162777834Y-87968615D01*
X162949976Y-88083637D01*
X163096363Y-88230024D01*
X163211385Y-88402166D01*
X163290611Y-88593435D01*
X163331000Y-88796484D01*
X163331000Y-89003516D01*
X163290611Y-89206565D01*
X163211385Y-89397834D01*
X163096363Y-89569976D01*
X162949976Y-89716363D01*
X162777834Y-89831385D01*
X162586565Y-89910611D01*
X162383516Y-89951000D01*
X162176484Y-89951000D01*
X161973435Y-89910611D01*
X161782166Y-89831385D01*
X161610024Y-89716363D01*
X161463637Y-89569976D01*
X161348615Y-89397834D01*
X161269389Y-89206565D01*
X161229000Y-89003516D01*
X161229000Y-88796484D01*
X161269389Y-88593435D01*
X161348615Y-88402166D01*
X161463637Y-88230024D01*
X161610024Y-88083637D01*
X161782166Y-87968615D01*
X161973435Y-87889389D01*
X162176484Y-87849000D01*
X162383516Y-87849000D01*
X162586565Y-87889389D01*
X162586565Y-87889389D01*
G37*
G36*
X163906466Y-82953565D02*
X163945137Y-82965296D01*
X163980779Y-82984348D01*
X164012017Y-83009983D01*
X164037652Y-83041221D01*
X164056704Y-83076863D01*
X164068435Y-83115534D01*
X164073000Y-83161888D01*
X164073000Y-83813112D01*
X164068435Y-83859466D01*
X164056704Y-83898137D01*
X164037652Y-83933779D01*
X164012017Y-83965017D01*
X163980779Y-83990652D01*
X163945137Y-84009704D01*
X163906466Y-84021435D01*
X163860112Y-84026000D01*
X162783888Y-84026000D01*
X162737534Y-84021435D01*
X162698863Y-84009704D01*
X162663221Y-83990652D01*
X162631983Y-83965017D01*
X162606348Y-83933779D01*
X162587296Y-83898137D01*
X162575565Y-83859466D01*
X162571000Y-83813112D01*
X162571000Y-83161888D01*
X162575565Y-83115534D01*
X162587296Y-83076863D01*
X162606348Y-83041221D01*
X162631983Y-83009983D01*
X162663221Y-82984348D01*
X162698863Y-82965296D01*
X162737534Y-82953565D01*
X162783888Y-82949000D01*
X163860112Y-82949000D01*
X163906466Y-82953565D01*
X163906466Y-82953565D01*
G37*
G36*
X163906466Y-81078565D02*
X163945137Y-81090296D01*
X163980779Y-81109348D01*
X164012017Y-81134983D01*
X164037652Y-81166221D01*
X164056704Y-81201863D01*
X164068435Y-81240534D01*
X164073000Y-81286888D01*
X164073000Y-81938112D01*
X164068435Y-81984466D01*
X164056704Y-82023137D01*
X164037652Y-82058779D01*
X164012017Y-82090017D01*
X163980779Y-82115652D01*
X163945137Y-82134704D01*
X163906466Y-82146435D01*
X163860112Y-82151000D01*
X162783888Y-82151000D01*
X162737534Y-82146435D01*
X162698863Y-82134704D01*
X162663221Y-82115652D01*
X162631983Y-82090017D01*
X162606348Y-82058779D01*
X162587296Y-82023137D01*
X162575565Y-81984466D01*
X162571000Y-81938112D01*
X162571000Y-81286888D01*
X162575565Y-81240534D01*
X162587296Y-81201863D01*
X162606348Y-81166221D01*
X162631983Y-81134983D01*
X162663221Y-81109348D01*
X162698863Y-81090296D01*
X162737534Y-81078565D01*
X162783888Y-81074000D01*
X163860112Y-81074000D01*
X163906466Y-81078565D01*
X163906466Y-81078565D01*
G37*
G36*
X161006000Y-80996000D02*
X159354000Y-80996000D01*
X159354000Y-80294000D01*
X161006000Y-80294000D01*
X161006000Y-80996000D01*
X161006000Y-80996000D01*
G37*
G36*
X155606000Y-80996000D02*
X153954000Y-80996000D01*
X153954000Y-80294000D01*
X155606000Y-80294000D01*
X155606000Y-80996000D01*
X155606000Y-80996000D01*
G37*
G36*
X172122472Y-79215938D02*
X172250049Y-79268782D01*
X172364865Y-79345500D01*
X172462500Y-79443135D01*
X172539218Y-79557951D01*
X172592062Y-79685528D01*
X172619000Y-79820956D01*
X172619000Y-79959044D01*
X172592062Y-80094472D01*
X172539218Y-80222049D01*
X172462500Y-80336865D01*
X172364865Y-80434500D01*
X172250049Y-80511218D01*
X172122472Y-80564062D01*
X171987044Y-80591000D01*
X171848956Y-80591000D01*
X171713528Y-80564062D01*
X171585951Y-80511218D01*
X171471135Y-80434500D01*
X171373500Y-80336865D01*
X171296782Y-80222049D01*
X171243938Y-80094472D01*
X171217000Y-79959044D01*
X171217000Y-79820956D01*
X171243938Y-79685528D01*
X171296782Y-79557951D01*
X171373500Y-79443135D01*
X171471135Y-79345500D01*
X171585951Y-79268782D01*
X171713528Y-79215938D01*
X171848956Y-79189000D01*
X171987044Y-79189000D01*
X172122472Y-79215938D01*
X172122472Y-79215938D01*
G37*
G36*
X169622472Y-79215938D02*
X169750049Y-79268782D01*
X169864865Y-79345500D01*
X169962500Y-79443135D01*
X170039218Y-79557951D01*
X170092062Y-79685528D01*
X170119000Y-79820956D01*
X170119000Y-79959044D01*
X170092062Y-80094472D01*
X170039218Y-80222049D01*
X169962500Y-80336865D01*
X169864865Y-80434500D01*
X169750049Y-80511218D01*
X169622472Y-80564062D01*
X169487044Y-80591000D01*
X169348956Y-80591000D01*
X169213528Y-80564062D01*
X169085951Y-80511218D01*
X168971135Y-80434500D01*
X168873500Y-80336865D01*
X168796782Y-80222049D01*
X168743938Y-80094472D01*
X168717000Y-79959044D01*
X168717000Y-79820956D01*
X168743938Y-79685528D01*
X168796782Y-79557951D01*
X168873500Y-79443135D01*
X168971135Y-79345500D01*
X169085951Y-79268782D01*
X169213528Y-79215938D01*
X169348956Y-79189000D01*
X169487044Y-79189000D01*
X169622472Y-79215938D01*
X169622472Y-79215938D01*
G37*
G36*
X167122472Y-79215938D02*
X167250049Y-79268782D01*
X167364865Y-79345500D01*
X167462500Y-79443135D01*
X167539218Y-79557951D01*
X167592062Y-79685528D01*
X167619000Y-79820956D01*
X167619000Y-79959044D01*
X167592062Y-80094472D01*
X167539218Y-80222049D01*
X167462500Y-80336865D01*
X167364865Y-80434500D01*
X167250049Y-80511218D01*
X167122472Y-80564062D01*
X166987044Y-80591000D01*
X166848956Y-80591000D01*
X166713528Y-80564062D01*
X166585951Y-80511218D01*
X166471135Y-80434500D01*
X166373500Y-80336865D01*
X166296782Y-80222049D01*
X166243938Y-80094472D01*
X166217000Y-79959044D01*
X166217000Y-79820956D01*
X166243938Y-79685528D01*
X166296782Y-79557951D01*
X166373500Y-79443135D01*
X166471135Y-79345500D01*
X166585951Y-79268782D01*
X166713528Y-79215938D01*
X166848956Y-79189000D01*
X166987044Y-79189000D01*
X167122472Y-79215938D01*
X167122472Y-79215938D01*
G37*
G36*
X142484472Y-79215938D02*
X142612049Y-79268782D01*
X142726865Y-79345500D01*
X142824500Y-79443135D01*
X142901218Y-79557951D01*
X142954062Y-79685528D01*
X142981000Y-79820956D01*
X142981000Y-79959044D01*
X142954062Y-80094472D01*
X142901218Y-80222049D01*
X142824500Y-80336865D01*
X142726865Y-80434500D01*
X142612049Y-80511218D01*
X142484472Y-80564062D01*
X142349044Y-80591000D01*
X142210956Y-80591000D01*
X142075528Y-80564062D01*
X141947951Y-80511218D01*
X141833135Y-80434500D01*
X141735500Y-80336865D01*
X141658782Y-80222049D01*
X141605938Y-80094472D01*
X141579000Y-79959044D01*
X141579000Y-79820956D01*
X141605938Y-79685528D01*
X141658782Y-79557951D01*
X141735500Y-79443135D01*
X141833135Y-79345500D01*
X141947951Y-79268782D01*
X142075528Y-79215938D01*
X142210956Y-79189000D01*
X142349044Y-79189000D01*
X142484472Y-79215938D01*
X142484472Y-79215938D01*
G37*
G36*
X144984472Y-79215938D02*
X145112049Y-79268782D01*
X145226865Y-79345500D01*
X145324500Y-79443135D01*
X145401218Y-79557951D01*
X145454062Y-79685528D01*
X145481000Y-79820956D01*
X145481000Y-79959044D01*
X145454062Y-80094472D01*
X145401218Y-80222049D01*
X145324500Y-80336865D01*
X145226865Y-80434500D01*
X145112049Y-80511218D01*
X144984472Y-80564062D01*
X144849044Y-80591000D01*
X144710956Y-80591000D01*
X144575528Y-80564062D01*
X144447951Y-80511218D01*
X144333135Y-80434500D01*
X144235500Y-80336865D01*
X144158782Y-80222049D01*
X144105938Y-80094472D01*
X144079000Y-79959044D01*
X144079000Y-79820956D01*
X144105938Y-79685528D01*
X144158782Y-79557951D01*
X144235500Y-79443135D01*
X144333135Y-79345500D01*
X144447951Y-79268782D01*
X144575528Y-79215938D01*
X144710956Y-79189000D01*
X144849044Y-79189000D01*
X144984472Y-79215938D01*
X144984472Y-79215938D01*
G37*
G36*
X147484472Y-79215938D02*
X147612049Y-79268782D01*
X147726865Y-79345500D01*
X147824500Y-79443135D01*
X147901218Y-79557951D01*
X147954062Y-79685528D01*
X147981000Y-79820956D01*
X147981000Y-79959044D01*
X147954062Y-80094472D01*
X147901218Y-80222049D01*
X147824500Y-80336865D01*
X147726865Y-80434500D01*
X147612049Y-80511218D01*
X147484472Y-80564062D01*
X147349044Y-80591000D01*
X147210956Y-80591000D01*
X147075528Y-80564062D01*
X146947951Y-80511218D01*
X146833135Y-80434500D01*
X146735500Y-80336865D01*
X146658782Y-80222049D01*
X146605938Y-80094472D01*
X146579000Y-79959044D01*
X146579000Y-79820956D01*
X146605938Y-79685528D01*
X146658782Y-79557951D01*
X146735500Y-79443135D01*
X146833135Y-79345500D01*
X146947951Y-79268782D01*
X147075528Y-79215938D01*
X147210956Y-79189000D01*
X147349044Y-79189000D01*
X147484472Y-79215938D01*
X147484472Y-79215938D01*
G37*
G36*
X161006000Y-79726000D02*
X159354000Y-79726000D01*
X159354000Y-79024000D01*
X161006000Y-79024000D01*
X161006000Y-79726000D01*
X161006000Y-79726000D01*
G37*
G36*
X155606000Y-79726000D02*
X153954000Y-79726000D01*
X153954000Y-79024000D01*
X155606000Y-79024000D01*
X155606000Y-79726000D01*
X155606000Y-79726000D01*
G37*
G36*
X161006000Y-78456000D02*
X159354000Y-78456000D01*
X159354000Y-77754000D01*
X161006000Y-77754000D01*
X161006000Y-78456000D01*
X161006000Y-78456000D01*
G37*
G36*
X155606000Y-78456000D02*
X153954000Y-78456000D01*
X153954000Y-77754000D01*
X155606000Y-77754000D01*
X155606000Y-78456000D01*
X155606000Y-78456000D01*
G37*
G36*
X155606000Y-77186000D02*
X153954000Y-77186000D01*
X153954000Y-76484000D01*
X155606000Y-76484000D01*
X155606000Y-77186000D01*
X155606000Y-77186000D01*
G37*
G36*
X161006000Y-77186000D02*
X159354000Y-77186000D01*
X159354000Y-76484000D01*
X161006000Y-76484000D01*
X161006000Y-77186000D01*
X161006000Y-77186000D01*
G37*
G36*
X152771966Y-74183565D02*
X152810637Y-74195296D01*
X152846279Y-74214348D01*
X152877517Y-74239983D01*
X152903152Y-74271221D01*
X152922204Y-74306863D01*
X152933935Y-74345534D01*
X152938500Y-74391888D01*
X152938500Y-75468112D01*
X152933935Y-75514466D01*
X152922204Y-75553137D01*
X152903152Y-75588779D01*
X152877517Y-75620017D01*
X152846279Y-75645652D01*
X152810637Y-75664704D01*
X152771966Y-75676435D01*
X152725612Y-75681000D01*
X152074388Y-75681000D01*
X152028034Y-75676435D01*
X151989363Y-75664704D01*
X151953721Y-75645652D01*
X151922483Y-75620017D01*
X151896848Y-75588779D01*
X151877796Y-75553137D01*
X151866065Y-75514466D01*
X151861500Y-75468112D01*
X151861500Y-74391888D01*
X151866065Y-74345534D01*
X151877796Y-74306863D01*
X151896848Y-74271221D01*
X151922483Y-74239983D01*
X151953721Y-74214348D01*
X151989363Y-74195296D01*
X152028034Y-74183565D01*
X152074388Y-74179000D01*
X152725612Y-74179000D01*
X152771966Y-74183565D01*
X152771966Y-74183565D01*
G37*
G36*
X154646966Y-74183565D02*
X154685637Y-74195296D01*
X154721279Y-74214348D01*
X154752517Y-74239983D01*
X154778152Y-74271221D01*
X154797204Y-74306863D01*
X154808935Y-74345534D01*
X154813500Y-74391888D01*
X154813500Y-75468112D01*
X154808935Y-75514466D01*
X154797204Y-75553137D01*
X154778152Y-75588779D01*
X154752517Y-75620017D01*
X154721279Y-75645652D01*
X154685637Y-75664704D01*
X154646966Y-75676435D01*
X154600612Y-75681000D01*
X153949388Y-75681000D01*
X153903034Y-75676435D01*
X153864363Y-75664704D01*
X153828721Y-75645652D01*
X153797483Y-75620017D01*
X153771848Y-75588779D01*
X153752796Y-75553137D01*
X153741065Y-75514466D01*
X153736500Y-75468112D01*
X153736500Y-74391888D01*
X153741065Y-74345534D01*
X153752796Y-74306863D01*
X153771848Y-74271221D01*
X153797483Y-74239983D01*
X153828721Y-74214348D01*
X153864363Y-74195296D01*
X153903034Y-74183565D01*
X153949388Y-74179000D01*
X154600612Y-74179000D01*
X154646966Y-74183565D01*
X154646966Y-74183565D01*
G37*
G36*
X140286565Y-71379389D02*
X140477834Y-71458615D01*
X140649976Y-71573637D01*
X140796363Y-71720024D01*
X140911385Y-71892166D01*
X140990611Y-72083435D01*
X141031000Y-72286484D01*
X141031000Y-72493516D01*
X140990611Y-72696565D01*
X140911385Y-72887834D01*
X140796363Y-73059976D01*
X140649976Y-73206363D01*
X140477834Y-73321385D01*
X140286565Y-73400611D01*
X140083516Y-73441000D01*
X139876484Y-73441000D01*
X139673435Y-73400611D01*
X139482166Y-73321385D01*
X139310024Y-73206363D01*
X139163637Y-73059976D01*
X139048615Y-72887834D01*
X138969389Y-72696565D01*
X138929000Y-72493516D01*
X138929000Y-72286484D01*
X138969389Y-72083435D01*
X139048615Y-71892166D01*
X139163637Y-71720024D01*
X139310024Y-71573637D01*
X139482166Y-71458615D01*
X139673435Y-71379389D01*
X139876484Y-71339000D01*
X140083516Y-71339000D01*
X140286565Y-71379389D01*
X140286565Y-71379389D01*
G37*
G36*
X149886565Y-71379389D02*
X150077834Y-71458615D01*
X150249976Y-71573637D01*
X150396363Y-71720024D01*
X150511385Y-71892166D01*
X150590611Y-72083435D01*
X150631000Y-72286484D01*
X150631000Y-72493516D01*
X150590611Y-72696565D01*
X150511385Y-72887834D01*
X150396363Y-73059976D01*
X150249976Y-73206363D01*
X150077834Y-73321385D01*
X149886565Y-73400611D01*
X149683516Y-73441000D01*
X149476484Y-73441000D01*
X149273435Y-73400611D01*
X149082166Y-73321385D01*
X148910024Y-73206363D01*
X148763637Y-73059976D01*
X148648615Y-72887834D01*
X148569389Y-72696565D01*
X148529000Y-72493516D01*
X148529000Y-72286484D01*
X148569389Y-72083435D01*
X148648615Y-71892166D01*
X148763637Y-71720024D01*
X148910024Y-71573637D01*
X149082166Y-71458615D01*
X149273435Y-71379389D01*
X149476484Y-71339000D01*
X149683516Y-71339000D01*
X149886565Y-71379389D01*
X149886565Y-71379389D01*
G37*
G36*
X174524565Y-71379389D02*
X174715834Y-71458615D01*
X174887976Y-71573637D01*
X175034363Y-71720024D01*
X175149385Y-71892166D01*
X175228611Y-72083435D01*
X175269000Y-72286484D01*
X175269000Y-72493516D01*
X175228611Y-72696565D01*
X175149385Y-72887834D01*
X175034363Y-73059976D01*
X174887976Y-73206363D01*
X174715834Y-73321385D01*
X174524565Y-73400611D01*
X174321516Y-73441000D01*
X174114484Y-73441000D01*
X173911435Y-73400611D01*
X173720166Y-73321385D01*
X173548024Y-73206363D01*
X173401637Y-73059976D01*
X173286615Y-72887834D01*
X173207389Y-72696565D01*
X173167000Y-72493516D01*
X173167000Y-72286484D01*
X173207389Y-72083435D01*
X173286615Y-71892166D01*
X173401637Y-71720024D01*
X173548024Y-71573637D01*
X173720166Y-71458615D01*
X173911435Y-71379389D01*
X174114484Y-71339000D01*
X174321516Y-71339000D01*
X174524565Y-71379389D01*
X174524565Y-71379389D01*
G37*
G36*
X164924565Y-71379389D02*
X165115834Y-71458615D01*
X165287976Y-71573637D01*
X165434363Y-71720024D01*
X165549385Y-71892166D01*
X165628611Y-72083435D01*
X165669000Y-72286484D01*
X165669000Y-72493516D01*
X165628611Y-72696565D01*
X165549385Y-72887834D01*
X165434363Y-73059976D01*
X165287976Y-73206363D01*
X165115834Y-73321385D01*
X164924565Y-73400611D01*
X164721516Y-73441000D01*
X164514484Y-73441000D01*
X164311435Y-73400611D01*
X164120166Y-73321385D01*
X163948024Y-73206363D01*
X163801637Y-73059976D01*
X163686615Y-72887834D01*
X163607389Y-72696565D01*
X163567000Y-72493516D01*
X163567000Y-72286484D01*
X163607389Y-72083435D01*
X163686615Y-71892166D01*
X163801637Y-71720024D01*
X163948024Y-71573637D01*
X164120166Y-71458615D01*
X164311435Y-71379389D01*
X164514484Y-71339000D01*
X164721516Y-71339000D01*
X164924565Y-71379389D01*
X164924565Y-71379389D01*
G37*
G36*
X161489000Y-70455000D02*
X159887000Y-70455000D01*
X159887000Y-69753000D01*
X161489000Y-69753000D01*
X161489000Y-70455000D01*
X161489000Y-70455000D01*
G37*
G36*
X156089000Y-70455000D02*
X154487000Y-70455000D01*
X154487000Y-69753000D01*
X156089000Y-69753000D01*
X156089000Y-70455000D01*
X156089000Y-70455000D01*
G37*
G36*
X161489000Y-69185000D02*
X159887000Y-69185000D01*
X159887000Y-68483000D01*
X161489000Y-68483000D01*
X161489000Y-69185000D01*
X161489000Y-69185000D01*
G37*
G36*
X156089000Y-69185000D02*
X154487000Y-69185000D01*
X154487000Y-68483000D01*
X156089000Y-68483000D01*
X156089000Y-69185000D01*
X156089000Y-69185000D01*
G37*
G36*
X151072466Y-67325565D02*
X151111137Y-67337296D01*
X151146779Y-67356348D01*
X151178017Y-67381983D01*
X151203652Y-67413221D01*
X151222704Y-67448863D01*
X151234435Y-67487534D01*
X151239000Y-67533888D01*
X151239000Y-68610112D01*
X151234435Y-68656466D01*
X151222704Y-68695137D01*
X151203652Y-68730779D01*
X151178017Y-68762017D01*
X151146779Y-68787652D01*
X151111137Y-68806704D01*
X151072466Y-68818435D01*
X151026112Y-68823000D01*
X150374888Y-68823000D01*
X150328534Y-68818435D01*
X150289863Y-68806704D01*
X150254221Y-68787652D01*
X150222983Y-68762017D01*
X150197348Y-68730779D01*
X150178296Y-68695137D01*
X150166565Y-68656466D01*
X150162000Y-68610112D01*
X150162000Y-67533888D01*
X150166565Y-67487534D01*
X150178296Y-67448863D01*
X150197348Y-67413221D01*
X150222983Y-67381983D01*
X150254221Y-67356348D01*
X150289863Y-67337296D01*
X150328534Y-67325565D01*
X150374888Y-67321000D01*
X151026112Y-67321000D01*
X151072466Y-67325565D01*
X151072466Y-67325565D01*
G37*
G36*
X152947466Y-67325565D02*
X152986137Y-67337296D01*
X153021779Y-67356348D01*
X153053017Y-67381983D01*
X153078652Y-67413221D01*
X153097704Y-67448863D01*
X153109435Y-67487534D01*
X153114000Y-67533888D01*
X153114000Y-68610112D01*
X153109435Y-68656466D01*
X153097704Y-68695137D01*
X153078652Y-68730779D01*
X153053017Y-68762017D01*
X153021779Y-68787652D01*
X152986137Y-68806704D01*
X152947466Y-68818435D01*
X152901112Y-68823000D01*
X152249888Y-68823000D01*
X152203534Y-68818435D01*
X152164863Y-68806704D01*
X152129221Y-68787652D01*
X152097983Y-68762017D01*
X152072348Y-68730779D01*
X152053296Y-68695137D01*
X152041565Y-68656466D01*
X152037000Y-68610112D01*
X152037000Y-67533888D01*
X152041565Y-67487534D01*
X152053296Y-67448863D01*
X152072348Y-67413221D01*
X152097983Y-67381983D01*
X152129221Y-67356348D01*
X152164863Y-67337296D01*
X152203534Y-67325565D01*
X152249888Y-67321000D01*
X152901112Y-67321000D01*
X152947466Y-67325565D01*
X152947466Y-67325565D01*
G37*
G36*
X161489000Y-67915000D02*
X159887000Y-67915000D01*
X159887000Y-67213000D01*
X161489000Y-67213000D01*
X161489000Y-67915000D01*
X161489000Y-67915000D01*
G37*
G36*
X156089000Y-67915000D02*
X154487000Y-67915000D01*
X154487000Y-67213000D01*
X156089000Y-67213000D01*
X156089000Y-67915000D01*
X156089000Y-67915000D01*
G37*
G36*
X167462466Y-65760065D02*
X167501137Y-65771796D01*
X167536779Y-65790848D01*
X167568017Y-65816483D01*
X167593652Y-65847721D01*
X167612704Y-65883363D01*
X167624435Y-65922034D01*
X167629000Y-65968388D01*
X167629000Y-66619612D01*
X167624435Y-66665966D01*
X167612704Y-66704637D01*
X167593652Y-66740279D01*
X167568017Y-66771517D01*
X167536779Y-66797152D01*
X167501137Y-66816204D01*
X167462466Y-66827935D01*
X167416112Y-66832500D01*
X166339888Y-66832500D01*
X166293534Y-66827935D01*
X166254863Y-66816204D01*
X166219221Y-66797152D01*
X166187983Y-66771517D01*
X166162348Y-66740279D01*
X166143296Y-66704637D01*
X166131565Y-66665966D01*
X166127000Y-66619612D01*
X166127000Y-65968388D01*
X166131565Y-65922034D01*
X166143296Y-65883363D01*
X166162348Y-65847721D01*
X166187983Y-65816483D01*
X166219221Y-65790848D01*
X166254863Y-65771796D01*
X166293534Y-65760065D01*
X166339888Y-65755500D01*
X167416112Y-65755500D01*
X167462466Y-65760065D01*
X167462466Y-65760065D01*
G37*
G36*
X156089000Y-66645000D02*
X154487000Y-66645000D01*
X154487000Y-65943000D01*
X156089000Y-65943000D01*
X156089000Y-66645000D01*
X156089000Y-66645000D01*
G37*
G36*
X161489000Y-66645000D02*
X159887000Y-66645000D01*
X159887000Y-65943000D01*
X161489000Y-65943000D01*
X161489000Y-66645000D01*
X161489000Y-66645000D01*
G37*
G36*
X161489000Y-65375000D02*
X159887000Y-65375000D01*
X159887000Y-64673000D01*
X161489000Y-64673000D01*
X161489000Y-65375000D01*
X161489000Y-65375000D01*
G37*
G36*
X156089000Y-65375000D02*
X154487000Y-65375000D01*
X154487000Y-64673000D01*
X156089000Y-64673000D01*
X156089000Y-65375000D01*
X156089000Y-65375000D01*
G37*
G36*
X167462466Y-63885065D02*
X167501137Y-63896796D01*
X167536779Y-63915848D01*
X167568017Y-63941483D01*
X167593652Y-63972721D01*
X167612704Y-64008363D01*
X167624435Y-64047034D01*
X167629000Y-64093388D01*
X167629000Y-64744612D01*
X167624435Y-64790966D01*
X167612704Y-64829637D01*
X167593652Y-64865279D01*
X167568017Y-64896517D01*
X167536779Y-64922152D01*
X167501137Y-64941204D01*
X167462466Y-64952935D01*
X167416112Y-64957500D01*
X166339888Y-64957500D01*
X166293534Y-64952935D01*
X166254863Y-64941204D01*
X166219221Y-64922152D01*
X166187983Y-64896517D01*
X166162348Y-64865279D01*
X166143296Y-64829637D01*
X166131565Y-64790966D01*
X166127000Y-64744612D01*
X166127000Y-64093388D01*
X166131565Y-64047034D01*
X166143296Y-64008363D01*
X166162348Y-63972721D01*
X166187983Y-63941483D01*
X166219221Y-63915848D01*
X166254863Y-63896796D01*
X166293534Y-63885065D01*
X166339888Y-63880500D01*
X167416112Y-63880500D01*
X167462466Y-63885065D01*
X167462466Y-63885065D01*
G37*
G36*
X161489000Y-64105000D02*
X159887000Y-64105000D01*
X159887000Y-63403000D01*
X161489000Y-63403000D01*
X161489000Y-64105000D01*
X161489000Y-64105000D01*
G37*
G36*
X156089000Y-64105000D02*
X154487000Y-64105000D01*
X154487000Y-63403000D01*
X156089000Y-63403000D01*
X156089000Y-64105000D01*
X156089000Y-64105000D01*
G37*
G36*
X153746466Y-62887565D02*
X153785137Y-62899296D01*
X153820779Y-62918348D01*
X153852017Y-62943983D01*
X153877652Y-62975221D01*
X153896704Y-63010863D01*
X153908435Y-63049534D01*
X153913000Y-63095888D01*
X153913000Y-63747112D01*
X153908435Y-63793466D01*
X153896704Y-63832137D01*
X153877652Y-63867779D01*
X153852017Y-63899017D01*
X153820779Y-63924652D01*
X153785137Y-63943704D01*
X153746466Y-63955435D01*
X153700112Y-63960000D01*
X152623888Y-63960000D01*
X152577534Y-63955435D01*
X152538863Y-63943704D01*
X152503221Y-63924652D01*
X152471983Y-63899017D01*
X152446348Y-63867779D01*
X152427296Y-63832137D01*
X152415565Y-63793466D01*
X152411000Y-63747112D01*
X152411000Y-63095888D01*
X152415565Y-63049534D01*
X152427296Y-63010863D01*
X152446348Y-62975221D01*
X152471983Y-62943983D01*
X152503221Y-62918348D01*
X152538863Y-62899296D01*
X152577534Y-62887565D01*
X152623888Y-62883000D01*
X153700112Y-62883000D01*
X153746466Y-62887565D01*
X153746466Y-62887565D01*
G37*
G36*
X148158466Y-62633565D02*
X148197137Y-62645296D01*
X148232779Y-62664348D01*
X148264017Y-62689983D01*
X148289652Y-62721221D01*
X148308704Y-62756863D01*
X148320435Y-62795534D01*
X148325000Y-62841888D01*
X148325000Y-63493112D01*
X148320435Y-63539466D01*
X148308704Y-63578137D01*
X148289652Y-63613779D01*
X148264017Y-63645017D01*
X148232779Y-63670652D01*
X148197137Y-63689704D01*
X148158466Y-63701435D01*
X148112112Y-63706000D01*
X147035888Y-63706000D01*
X146989534Y-63701435D01*
X146950863Y-63689704D01*
X146915221Y-63670652D01*
X146883983Y-63645017D01*
X146858348Y-63613779D01*
X146839296Y-63578137D01*
X146827565Y-63539466D01*
X146823000Y-63493112D01*
X146823000Y-62841888D01*
X146827565Y-62795534D01*
X146839296Y-62756863D01*
X146858348Y-62721221D01*
X146883983Y-62689983D01*
X146915221Y-62664348D01*
X146950863Y-62645296D01*
X146989534Y-62633565D01*
X147035888Y-62629000D01*
X148112112Y-62629000D01*
X148158466Y-62633565D01*
X148158466Y-62633565D01*
G37*
G36*
X167462466Y-62125565D02*
X167501137Y-62137296D01*
X167536779Y-62156348D01*
X167568017Y-62181983D01*
X167593652Y-62213221D01*
X167612704Y-62248863D01*
X167624435Y-62287534D01*
X167629000Y-62333888D01*
X167629000Y-62985112D01*
X167624435Y-63031466D01*
X167612704Y-63070137D01*
X167593652Y-63105779D01*
X167568017Y-63137017D01*
X167536779Y-63162652D01*
X167501137Y-63181704D01*
X167462466Y-63193435D01*
X167416112Y-63198000D01*
X166339888Y-63198000D01*
X166293534Y-63193435D01*
X166254863Y-63181704D01*
X166219221Y-63162652D01*
X166187983Y-63137017D01*
X166162348Y-63105779D01*
X166143296Y-63070137D01*
X166131565Y-63031466D01*
X166127000Y-62985112D01*
X166127000Y-62333888D01*
X166131565Y-62287534D01*
X166143296Y-62248863D01*
X166162348Y-62213221D01*
X166187983Y-62181983D01*
X166219221Y-62156348D01*
X166254863Y-62137296D01*
X166293534Y-62125565D01*
X166339888Y-62121000D01*
X167416112Y-62121000D01*
X167462466Y-62125565D01*
X167462466Y-62125565D01*
G37*
G36*
X156089000Y-62835000D02*
X154487000Y-62835000D01*
X154487000Y-62133000D01*
X156089000Y-62133000D01*
X156089000Y-62835000D01*
X156089000Y-62835000D01*
G37*
G36*
X161489000Y-62835000D02*
X159887000Y-62835000D01*
X159887000Y-62133000D01*
X161489000Y-62133000D01*
X161489000Y-62835000D01*
X161489000Y-62835000D01*
G37*
G36*
X153746466Y-61012565D02*
X153785137Y-61024296D01*
X153820779Y-61043348D01*
X153852017Y-61068983D01*
X153877652Y-61100221D01*
X153896704Y-61135863D01*
X153908435Y-61174534D01*
X153913000Y-61220888D01*
X153913000Y-61872112D01*
X153908435Y-61918466D01*
X153896704Y-61957137D01*
X153877652Y-61992779D01*
X153852017Y-62024017D01*
X153820779Y-62049652D01*
X153785137Y-62068704D01*
X153746466Y-62080435D01*
X153700112Y-62085000D01*
X152623888Y-62085000D01*
X152577534Y-62080435D01*
X152538863Y-62068704D01*
X152503221Y-62049652D01*
X152471983Y-62024017D01*
X152446348Y-61992779D01*
X152427296Y-61957137D01*
X152415565Y-61918466D01*
X152411000Y-61872112D01*
X152411000Y-61220888D01*
X152415565Y-61174534D01*
X152427296Y-61135863D01*
X152446348Y-61100221D01*
X152471983Y-61068983D01*
X152503221Y-61043348D01*
X152538863Y-61024296D01*
X152577534Y-61012565D01*
X152623888Y-61008000D01*
X153700112Y-61008000D01*
X153746466Y-61012565D01*
X153746466Y-61012565D01*
G37*
G36*
X148158466Y-60758565D02*
X148197137Y-60770296D01*
X148232779Y-60789348D01*
X148264017Y-60814983D01*
X148289652Y-60846221D01*
X148308704Y-60881863D01*
X148320435Y-60920534D01*
X148325000Y-60966888D01*
X148325000Y-61618112D01*
X148320435Y-61664466D01*
X148308704Y-61703137D01*
X148289652Y-61738779D01*
X148264017Y-61770017D01*
X148232779Y-61795652D01*
X148197137Y-61814704D01*
X148158466Y-61826435D01*
X148112112Y-61831000D01*
X147035888Y-61831000D01*
X146989534Y-61826435D01*
X146950863Y-61814704D01*
X146915221Y-61795652D01*
X146883983Y-61770017D01*
X146858348Y-61738779D01*
X146839296Y-61703137D01*
X146827565Y-61664466D01*
X146823000Y-61618112D01*
X146823000Y-60966888D01*
X146827565Y-60920534D01*
X146839296Y-60881863D01*
X146858348Y-60846221D01*
X146883983Y-60814983D01*
X146915221Y-60789348D01*
X146950863Y-60770296D01*
X146989534Y-60758565D01*
X147035888Y-60754000D01*
X148112112Y-60754000D01*
X148158466Y-60758565D01*
X148158466Y-60758565D01*
G37*
G36*
X145057396Y-59885546D02*
X145230466Y-59957234D01*
X145386230Y-60061312D01*
X145518688Y-60193770D01*
X145622766Y-60349534D01*
X145694454Y-60522604D01*
X145731000Y-60706333D01*
X145731000Y-60893667D01*
X145694454Y-61077396D01*
X145622766Y-61250466D01*
X145518688Y-61406230D01*
X145386230Y-61538688D01*
X145230466Y-61642766D01*
X145057396Y-61714454D01*
X144873667Y-61751000D01*
X144686333Y-61751000D01*
X144502604Y-61714454D01*
X144329534Y-61642766D01*
X144173770Y-61538688D01*
X144041312Y-61406230D01*
X143937234Y-61250466D01*
X143865546Y-61077396D01*
X143829000Y-60893667D01*
X143829000Y-60706333D01*
X143865546Y-60522604D01*
X143937234Y-60349534D01*
X144041312Y-60193770D01*
X144173770Y-60061312D01*
X144329534Y-59957234D01*
X144502604Y-59885546D01*
X144686333Y-59849000D01*
X144873667Y-59849000D01*
X145057396Y-59885546D01*
X145057396Y-59885546D01*
G37*
G36*
X169695396Y-59885546D02*
X169868466Y-59957234D01*
X170024230Y-60061312D01*
X170156688Y-60193770D01*
X170260766Y-60349534D01*
X170332454Y-60522604D01*
X170369000Y-60706333D01*
X170369000Y-60893667D01*
X170332454Y-61077396D01*
X170260766Y-61250466D01*
X170156688Y-61406230D01*
X170024230Y-61538688D01*
X169868466Y-61642766D01*
X169695396Y-61714454D01*
X169511667Y-61751000D01*
X169324333Y-61751000D01*
X169140604Y-61714454D01*
X168967534Y-61642766D01*
X168811770Y-61538688D01*
X168679312Y-61406230D01*
X168575234Y-61250466D01*
X168503546Y-61077396D01*
X168467000Y-60893667D01*
X168467000Y-60706333D01*
X168503546Y-60522604D01*
X168575234Y-60349534D01*
X168679312Y-60193770D01*
X168811770Y-60061312D01*
X168967534Y-59957234D01*
X169140604Y-59885546D01*
X169324333Y-59849000D01*
X169511667Y-59849000D01*
X169695396Y-59885546D01*
X169695396Y-59885546D01*
G37*
G36*
X167462466Y-60250565D02*
X167501137Y-60262296D01*
X167536779Y-60281348D01*
X167568017Y-60306983D01*
X167593652Y-60338221D01*
X167612704Y-60373863D01*
X167624435Y-60412534D01*
X167629000Y-60458888D01*
X167629000Y-61110112D01*
X167624435Y-61156466D01*
X167612704Y-61195137D01*
X167593652Y-61230779D01*
X167568017Y-61262017D01*
X167536779Y-61287652D01*
X167501137Y-61306704D01*
X167462466Y-61318435D01*
X167416112Y-61323000D01*
X166339888Y-61323000D01*
X166293534Y-61318435D01*
X166254863Y-61306704D01*
X166219221Y-61287652D01*
X166187983Y-61262017D01*
X166162348Y-61230779D01*
X166143296Y-61195137D01*
X166131565Y-61156466D01*
X166127000Y-61110112D01*
X166127000Y-60458888D01*
X166131565Y-60412534D01*
X166143296Y-60373863D01*
X166162348Y-60338221D01*
X166187983Y-60306983D01*
X166219221Y-60281348D01*
X166254863Y-60262296D01*
X166293534Y-60250565D01*
X166339888Y-60246000D01*
X167416112Y-60246000D01*
X167462466Y-60250565D01*
X167462466Y-60250565D01*
G37*
G36*
X149599637Y-60901354D02*
X148697637Y-60901354D01*
X148697637Y-59899354D01*
X149599637Y-59899354D01*
X149599637Y-60901354D01*
X149599637Y-60901354D01*
G37*
G36*
X153746466Y-59331565D02*
X153785137Y-59343296D01*
X153820779Y-59362348D01*
X153852017Y-59387983D01*
X153877652Y-59419221D01*
X153896704Y-59454863D01*
X153908435Y-59493534D01*
X153913000Y-59539888D01*
X153913000Y-60191112D01*
X153908435Y-60237466D01*
X153896704Y-60276137D01*
X153877652Y-60311779D01*
X153852017Y-60343017D01*
X153820779Y-60368652D01*
X153785137Y-60387704D01*
X153746466Y-60399435D01*
X153700112Y-60404000D01*
X152623888Y-60404000D01*
X152577534Y-60399435D01*
X152538863Y-60387704D01*
X152503221Y-60368652D01*
X152471983Y-60343017D01*
X152446348Y-60311779D01*
X152427296Y-60276137D01*
X152415565Y-60237466D01*
X152411000Y-60191112D01*
X152411000Y-59539888D01*
X152415565Y-59493534D01*
X152427296Y-59454863D01*
X152446348Y-59419221D01*
X152471983Y-59387983D01*
X152503221Y-59362348D01*
X152538863Y-59343296D01*
X152577534Y-59331565D01*
X152623888Y-59327000D01*
X153700112Y-59327000D01*
X153746466Y-59331565D01*
X153746466Y-59331565D01*
G37*
G36*
X148649637Y-58901354D02*
X147747637Y-58901354D01*
X147747637Y-57899354D01*
X148649637Y-57899354D01*
X148649637Y-58901354D01*
X148649637Y-58901354D01*
G37*
G36*
X150549637Y-58901354D02*
X149647637Y-58901354D01*
X149647637Y-57899354D01*
X150549637Y-57899354D01*
X150549637Y-58901354D01*
X150549637Y-58901354D01*
G37*
G36*
X153746466Y-57456565D02*
X153785137Y-57468296D01*
X153820779Y-57487348D01*
X153852017Y-57512983D01*
X153877652Y-57544221D01*
X153896704Y-57579863D01*
X153908435Y-57618534D01*
X153913000Y-57664888D01*
X153913000Y-58316112D01*
X153908435Y-58362466D01*
X153896704Y-58401137D01*
X153877652Y-58436779D01*
X153852017Y-58468017D01*
X153820779Y-58493652D01*
X153785137Y-58512704D01*
X153746466Y-58524435D01*
X153700112Y-58529000D01*
X152623888Y-58529000D01*
X152577534Y-58524435D01*
X152538863Y-58512704D01*
X152503221Y-58493652D01*
X152471983Y-58468017D01*
X152446348Y-58436779D01*
X152427296Y-58401137D01*
X152415565Y-58362466D01*
X152411000Y-58316112D01*
X152411000Y-57664888D01*
X152415565Y-57618534D01*
X152427296Y-57579863D01*
X152446348Y-57544221D01*
X152471983Y-57512983D01*
X152503221Y-57487348D01*
X152538863Y-57468296D01*
X152577534Y-57456565D01*
X152623888Y-57452000D01*
X153700112Y-57452000D01*
X153746466Y-57456565D01*
X153746466Y-57456565D01*
G37*
G36*
X161837466Y-55641565D02*
X161876137Y-55653296D01*
X161911779Y-55672348D01*
X161943017Y-55697983D01*
X161968652Y-55729221D01*
X161987704Y-55764863D01*
X161999435Y-55803534D01*
X162004000Y-55849888D01*
X162004000Y-56926112D01*
X161999435Y-56972466D01*
X161987704Y-57011137D01*
X161968652Y-57046779D01*
X161943017Y-57078017D01*
X161911779Y-57103652D01*
X161876137Y-57122704D01*
X161837466Y-57134435D01*
X161791112Y-57139000D01*
X161139888Y-57139000D01*
X161093534Y-57134435D01*
X161054863Y-57122704D01*
X161019221Y-57103652D01*
X160987983Y-57078017D01*
X160962348Y-57046779D01*
X160943296Y-57011137D01*
X160931565Y-56972466D01*
X160927000Y-56926112D01*
X160927000Y-55849888D01*
X160931565Y-55803534D01*
X160943296Y-55764863D01*
X160962348Y-55729221D01*
X160987983Y-55697983D01*
X161019221Y-55672348D01*
X161054863Y-55653296D01*
X161093534Y-55641565D01*
X161139888Y-55637000D01*
X161791112Y-55637000D01*
X161837466Y-55641565D01*
X161837466Y-55641565D01*
G37*
G36*
X159962466Y-55641565D02*
X160001137Y-55653296D01*
X160036779Y-55672348D01*
X160068017Y-55697983D01*
X160093652Y-55729221D01*
X160112704Y-55764863D01*
X160124435Y-55803534D01*
X160129000Y-55849888D01*
X160129000Y-56926112D01*
X160124435Y-56972466D01*
X160112704Y-57011137D01*
X160093652Y-57046779D01*
X160068017Y-57078017D01*
X160036779Y-57103652D01*
X160001137Y-57122704D01*
X159962466Y-57134435D01*
X159916112Y-57139000D01*
X159264888Y-57139000D01*
X159218534Y-57134435D01*
X159179863Y-57122704D01*
X159144221Y-57103652D01*
X159112983Y-57078017D01*
X159087348Y-57046779D01*
X159068296Y-57011137D01*
X159056565Y-56972466D01*
X159052000Y-56926112D01*
X159052000Y-55849888D01*
X159056565Y-55803534D01*
X159068296Y-55764863D01*
X159087348Y-55729221D01*
X159112983Y-55697983D01*
X159144221Y-55672348D01*
X159179863Y-55653296D01*
X159218534Y-55641565D01*
X159264888Y-55637000D01*
X159916112Y-55637000D01*
X159962466Y-55641565D01*
X159962466Y-55641565D01*
G37*
G36*
X151982103Y-55351919D02*
X152020774Y-55363650D01*
X152056416Y-55382702D01*
X152087654Y-55408337D01*
X152113289Y-55439575D01*
X152132341Y-55475217D01*
X152144072Y-55513888D01*
X152148637Y-55560242D01*
X152148637Y-56636466D01*
X152144072Y-56682820D01*
X152132341Y-56721491D01*
X152113289Y-56757133D01*
X152087654Y-56788371D01*
X152056416Y-56814006D01*
X152020774Y-56833058D01*
X151982103Y-56844789D01*
X151935749Y-56849354D01*
X151284525Y-56849354D01*
X151238171Y-56844789D01*
X151199500Y-56833058D01*
X151163858Y-56814006D01*
X151132620Y-56788371D01*
X151106985Y-56757133D01*
X151087933Y-56721491D01*
X151076202Y-56682820D01*
X151071637Y-56636466D01*
X151071637Y-55560242D01*
X151076202Y-55513888D01*
X151087933Y-55475217D01*
X151106985Y-55439575D01*
X151132620Y-55408337D01*
X151163858Y-55382702D01*
X151199500Y-55363650D01*
X151238171Y-55351919D01*
X151284525Y-55347354D01*
X151935749Y-55347354D01*
X151982103Y-55351919D01*
X151982103Y-55351919D01*
G37*
G36*
X148347603Y-55351919D02*
X148386274Y-55363650D01*
X148421916Y-55382702D01*
X148453154Y-55408337D01*
X148478789Y-55439575D01*
X148497841Y-55475217D01*
X148509572Y-55513888D01*
X148514137Y-55560242D01*
X148514137Y-56636466D01*
X148509572Y-56682820D01*
X148497841Y-56721491D01*
X148478789Y-56757133D01*
X148453154Y-56788371D01*
X148421916Y-56814006D01*
X148386274Y-56833058D01*
X148347603Y-56844789D01*
X148301249Y-56849354D01*
X147650025Y-56849354D01*
X147603671Y-56844789D01*
X147565000Y-56833058D01*
X147529358Y-56814006D01*
X147498120Y-56788371D01*
X147472485Y-56757133D01*
X147453433Y-56721491D01*
X147441702Y-56682820D01*
X147437137Y-56636466D01*
X147437137Y-55560242D01*
X147441702Y-55513888D01*
X147453433Y-55475217D01*
X147472485Y-55439575D01*
X147498120Y-55408337D01*
X147529358Y-55382702D01*
X147565000Y-55363650D01*
X147603671Y-55351919D01*
X147650025Y-55347354D01*
X148301249Y-55347354D01*
X148347603Y-55351919D01*
X148347603Y-55351919D01*
G37*
G36*
X150107103Y-55351919D02*
X150145774Y-55363650D01*
X150181416Y-55382702D01*
X150212654Y-55408337D01*
X150238289Y-55439575D01*
X150257341Y-55475217D01*
X150269072Y-55513888D01*
X150273637Y-55560242D01*
X150273637Y-56636466D01*
X150269072Y-56682820D01*
X150257341Y-56721491D01*
X150238289Y-56757133D01*
X150212654Y-56788371D01*
X150181416Y-56814006D01*
X150145774Y-56833058D01*
X150107103Y-56844789D01*
X150060749Y-56849354D01*
X149409525Y-56849354D01*
X149363171Y-56844789D01*
X149324500Y-56833058D01*
X149288858Y-56814006D01*
X149257620Y-56788371D01*
X149231985Y-56757133D01*
X149212933Y-56721491D01*
X149201202Y-56682820D01*
X149196637Y-56636466D01*
X149196637Y-55560242D01*
X149201202Y-55513888D01*
X149212933Y-55475217D01*
X149231985Y-55439575D01*
X149257620Y-55408337D01*
X149288858Y-55382702D01*
X149324500Y-55363650D01*
X149363171Y-55351919D01*
X149409525Y-55347354D01*
X150060749Y-55347354D01*
X150107103Y-55351919D01*
X150107103Y-55351919D01*
G37*
G36*
X146472603Y-55351919D02*
X146511274Y-55363650D01*
X146546916Y-55382702D01*
X146578154Y-55408337D01*
X146603789Y-55439575D01*
X146622841Y-55475217D01*
X146634572Y-55513888D01*
X146639137Y-55560242D01*
X146639137Y-56636466D01*
X146634572Y-56682820D01*
X146622841Y-56721491D01*
X146603789Y-56757133D01*
X146578154Y-56788371D01*
X146546916Y-56814006D01*
X146511274Y-56833058D01*
X146472603Y-56844789D01*
X146426249Y-56849354D01*
X145775025Y-56849354D01*
X145728671Y-56844789D01*
X145690000Y-56833058D01*
X145654358Y-56814006D01*
X145623120Y-56788371D01*
X145597485Y-56757133D01*
X145578433Y-56721491D01*
X145566702Y-56682820D01*
X145562137Y-56636466D01*
X145562137Y-55560242D01*
X145566702Y-55513888D01*
X145578433Y-55475217D01*
X145597485Y-55439575D01*
X145623120Y-55408337D01*
X145654358Y-55382702D01*
X145690000Y-55363650D01*
X145728671Y-55351919D01*
X145775025Y-55347354D01*
X146426249Y-55347354D01*
X146472603Y-55351919D01*
X146472603Y-55351919D01*
G37*
G36*
X142436466Y-54625565D02*
X142475137Y-54637296D01*
X142510779Y-54656348D01*
X142542017Y-54681983D01*
X142567652Y-54713221D01*
X142586704Y-54748863D01*
X142598435Y-54787534D01*
X142603000Y-54833888D01*
X142603000Y-55910112D01*
X142598435Y-55956466D01*
X142586704Y-55995137D01*
X142567652Y-56030779D01*
X142542017Y-56062017D01*
X142510779Y-56087652D01*
X142475137Y-56106704D01*
X142436466Y-56118435D01*
X142390112Y-56123000D01*
X141738888Y-56123000D01*
X141692534Y-56118435D01*
X141653863Y-56106704D01*
X141618221Y-56087652D01*
X141586983Y-56062017D01*
X141561348Y-56030779D01*
X141542296Y-55995137D01*
X141530565Y-55956466D01*
X141526000Y-55910112D01*
X141526000Y-54833888D01*
X141530565Y-54787534D01*
X141542296Y-54748863D01*
X141561348Y-54713221D01*
X141586983Y-54681983D01*
X141618221Y-54656348D01*
X141653863Y-54637296D01*
X141692534Y-54625565D01*
X141738888Y-54621000D01*
X142390112Y-54621000D01*
X142436466Y-54625565D01*
X142436466Y-54625565D01*
G37*
G36*
X144311466Y-54625565D02*
X144350137Y-54637296D01*
X144385779Y-54656348D01*
X144417017Y-54681983D01*
X144442652Y-54713221D01*
X144461704Y-54748863D01*
X144473435Y-54787534D01*
X144478000Y-54833888D01*
X144478000Y-55910112D01*
X144473435Y-55956466D01*
X144461704Y-55995137D01*
X144442652Y-56030779D01*
X144417017Y-56062017D01*
X144385779Y-56087652D01*
X144350137Y-56106704D01*
X144311466Y-56118435D01*
X144265112Y-56123000D01*
X143613888Y-56123000D01*
X143567534Y-56118435D01*
X143528863Y-56106704D01*
X143493221Y-56087652D01*
X143461983Y-56062017D01*
X143436348Y-56030779D01*
X143417296Y-55995137D01*
X143405565Y-55956466D01*
X143401000Y-55910112D01*
X143401000Y-54833888D01*
X143405565Y-54787534D01*
X143417296Y-54748863D01*
X143436348Y-54713221D01*
X143461983Y-54681983D01*
X143493221Y-54656348D01*
X143528863Y-54637296D01*
X143567534Y-54625565D01*
X143613888Y-54621000D01*
X144265112Y-54621000D01*
X144311466Y-54625565D01*
X144311466Y-54625565D01*
G37*
G36*
X156876000Y-55088000D02*
X155224000Y-55088000D01*
X155224000Y-54386000D01*
X156876000Y-54386000D01*
X156876000Y-55088000D01*
X156876000Y-55088000D01*
G37*
G36*
X162276000Y-55088000D02*
X160624000Y-55088000D01*
X160624000Y-54386000D01*
X162276000Y-54386000D01*
X162276000Y-55088000D01*
X162276000Y-55088000D01*
G37*
G36*
X164922466Y-53743565D02*
X164961137Y-53755296D01*
X164996779Y-53774348D01*
X165028017Y-53799983D01*
X165053652Y-53831221D01*
X165072704Y-53866863D01*
X165084435Y-53905534D01*
X165089000Y-53951888D01*
X165089000Y-54603112D01*
X165084435Y-54649466D01*
X165072704Y-54688137D01*
X165053652Y-54723779D01*
X165028017Y-54755017D01*
X164996779Y-54780652D01*
X164961137Y-54799704D01*
X164922466Y-54811435D01*
X164876112Y-54816000D01*
X163799888Y-54816000D01*
X163753534Y-54811435D01*
X163714863Y-54799704D01*
X163679221Y-54780652D01*
X163647983Y-54755017D01*
X163622348Y-54723779D01*
X163603296Y-54688137D01*
X163591565Y-54649466D01*
X163587000Y-54603112D01*
X163587000Y-53951888D01*
X163591565Y-53905534D01*
X163603296Y-53866863D01*
X163622348Y-53831221D01*
X163647983Y-53799983D01*
X163679221Y-53774348D01*
X163714863Y-53755296D01*
X163753534Y-53743565D01*
X163799888Y-53739000D01*
X164876112Y-53739000D01*
X164922466Y-53743565D01*
X164922466Y-53743565D01*
G37*
G36*
X151931466Y-52593565D02*
X151970137Y-52605296D01*
X152005779Y-52624348D01*
X152037017Y-52649983D01*
X152062652Y-52681221D01*
X152081704Y-52716863D01*
X152093435Y-52755534D01*
X152098000Y-52801888D01*
X152098000Y-53878112D01*
X152093435Y-53924466D01*
X152081704Y-53963137D01*
X152062652Y-53998779D01*
X152037017Y-54030017D01*
X152005779Y-54055652D01*
X151970137Y-54074704D01*
X151931466Y-54086435D01*
X151885112Y-54091000D01*
X151233888Y-54091000D01*
X151187534Y-54086435D01*
X151148863Y-54074704D01*
X151113221Y-54055652D01*
X151081983Y-54030017D01*
X151056348Y-53998779D01*
X151037296Y-53963137D01*
X151025565Y-53924466D01*
X151021000Y-53878112D01*
X151021000Y-52801888D01*
X151025565Y-52755534D01*
X151037296Y-52716863D01*
X151056348Y-52681221D01*
X151081983Y-52649983D01*
X151113221Y-52624348D01*
X151148863Y-52605296D01*
X151187534Y-52593565D01*
X151233888Y-52589000D01*
X151885112Y-52589000D01*
X151931466Y-52593565D01*
X151931466Y-52593565D01*
G37*
G36*
X150056466Y-52593565D02*
X150095137Y-52605296D01*
X150130779Y-52624348D01*
X150162017Y-52649983D01*
X150187652Y-52681221D01*
X150206704Y-52716863D01*
X150218435Y-52755534D01*
X150223000Y-52801888D01*
X150223000Y-53878112D01*
X150218435Y-53924466D01*
X150206704Y-53963137D01*
X150187652Y-53998779D01*
X150162017Y-54030017D01*
X150130779Y-54055652D01*
X150095137Y-54074704D01*
X150056466Y-54086435D01*
X150010112Y-54091000D01*
X149358888Y-54091000D01*
X149312534Y-54086435D01*
X149273863Y-54074704D01*
X149238221Y-54055652D01*
X149206983Y-54030017D01*
X149181348Y-53998779D01*
X149162296Y-53963137D01*
X149150565Y-53924466D01*
X149146000Y-53878112D01*
X149146000Y-52801888D01*
X149150565Y-52755534D01*
X149162296Y-52716863D01*
X149181348Y-52681221D01*
X149206983Y-52649983D01*
X149238221Y-52624348D01*
X149273863Y-52605296D01*
X149312534Y-52593565D01*
X149358888Y-52589000D01*
X150010112Y-52589000D01*
X150056466Y-52593565D01*
X150056466Y-52593565D01*
G37*
G36*
X162276000Y-53818000D02*
X160624000Y-53818000D01*
X160624000Y-53116000D01*
X162276000Y-53116000D01*
X162276000Y-53818000D01*
X162276000Y-53818000D01*
G37*
G36*
X156876000Y-53818000D02*
X155224000Y-53818000D01*
X155224000Y-53116000D01*
X156876000Y-53116000D01*
X156876000Y-53818000D01*
X156876000Y-53818000D01*
G37*
G36*
X145057396Y-51585546D02*
X145230466Y-51657234D01*
X145386230Y-51761312D01*
X145518688Y-51893770D01*
X145622766Y-52049534D01*
X145694454Y-52222604D01*
X145731000Y-52406333D01*
X145731000Y-52593667D01*
X145694454Y-52777396D01*
X145622766Y-52950466D01*
X145518688Y-53106230D01*
X145386230Y-53238688D01*
X145230466Y-53342766D01*
X145057396Y-53414454D01*
X144873667Y-53451000D01*
X144686333Y-53451000D01*
X144502604Y-53414454D01*
X144329534Y-53342766D01*
X144173770Y-53238688D01*
X144041312Y-53106230D01*
X143937234Y-52950466D01*
X143865546Y-52777396D01*
X143829000Y-52593667D01*
X143829000Y-52406333D01*
X143865546Y-52222604D01*
X143937234Y-52049534D01*
X144041312Y-51893770D01*
X144173770Y-51761312D01*
X144329534Y-51657234D01*
X144502604Y-51585546D01*
X144686333Y-51549000D01*
X144873667Y-51549000D01*
X145057396Y-51585546D01*
X145057396Y-51585546D01*
G37*
G36*
X169695396Y-51585546D02*
X169868466Y-51657234D01*
X170024230Y-51761312D01*
X170156688Y-51893770D01*
X170260766Y-52049534D01*
X170332454Y-52222604D01*
X170369000Y-52406333D01*
X170369000Y-52593667D01*
X170332454Y-52777396D01*
X170260766Y-52950466D01*
X170156688Y-53106230D01*
X170024230Y-53238688D01*
X169868466Y-53342766D01*
X169695396Y-53414454D01*
X169511667Y-53451000D01*
X169324333Y-53451000D01*
X169140604Y-53414454D01*
X168967534Y-53342766D01*
X168811770Y-53238688D01*
X168679312Y-53106230D01*
X168575234Y-52950466D01*
X168503546Y-52777396D01*
X168467000Y-52593667D01*
X168467000Y-52406333D01*
X168503546Y-52222604D01*
X168575234Y-52049534D01*
X168679312Y-51893770D01*
X168811770Y-51761312D01*
X168967534Y-51657234D01*
X169140604Y-51585546D01*
X169324333Y-51549000D01*
X169511667Y-51549000D01*
X169695396Y-51585546D01*
X169695396Y-51585546D01*
G37*
G36*
X164922466Y-51868565D02*
X164961137Y-51880296D01*
X164996779Y-51899348D01*
X165028017Y-51924983D01*
X165053652Y-51956221D01*
X165072704Y-51991863D01*
X165084435Y-52030534D01*
X165089000Y-52076888D01*
X165089000Y-52728112D01*
X165084435Y-52774466D01*
X165072704Y-52813137D01*
X165053652Y-52848779D01*
X165028017Y-52880017D01*
X164996779Y-52905652D01*
X164961137Y-52924704D01*
X164922466Y-52936435D01*
X164876112Y-52941000D01*
X163799888Y-52941000D01*
X163753534Y-52936435D01*
X163714863Y-52924704D01*
X163679221Y-52905652D01*
X163647983Y-52880017D01*
X163622348Y-52848779D01*
X163603296Y-52813137D01*
X163591565Y-52774466D01*
X163587000Y-52728112D01*
X163587000Y-52076888D01*
X163591565Y-52030534D01*
X163603296Y-51991863D01*
X163622348Y-51956221D01*
X163647983Y-51924983D01*
X163679221Y-51899348D01*
X163714863Y-51880296D01*
X163753534Y-51868565D01*
X163799888Y-51864000D01*
X164876112Y-51864000D01*
X164922466Y-51868565D01*
X164922466Y-51868565D01*
G37*
G36*
X156876000Y-52548000D02*
X155224000Y-52548000D01*
X155224000Y-51846000D01*
X156876000Y-51846000D01*
X156876000Y-52548000D01*
X156876000Y-52548000D01*
G37*
G36*
X162276000Y-52548000D02*
X160624000Y-52548000D01*
X160624000Y-51846000D01*
X162276000Y-51846000D01*
X162276000Y-52548000D01*
X162276000Y-52548000D01*
G37*
G36*
X149040466Y-50815565D02*
X149079137Y-50827296D01*
X149114779Y-50846348D01*
X149146017Y-50871983D01*
X149171652Y-50903221D01*
X149190704Y-50938863D01*
X149202435Y-50977534D01*
X149207000Y-51023888D01*
X149207000Y-52100112D01*
X149202435Y-52146466D01*
X149190704Y-52185137D01*
X149171652Y-52220779D01*
X149146017Y-52252017D01*
X149114779Y-52277652D01*
X149079137Y-52296704D01*
X149040466Y-52308435D01*
X148994112Y-52313000D01*
X148342888Y-52313000D01*
X148296534Y-52308435D01*
X148257863Y-52296704D01*
X148222221Y-52277652D01*
X148190983Y-52252017D01*
X148165348Y-52220779D01*
X148146296Y-52185137D01*
X148134565Y-52146466D01*
X148130000Y-52100112D01*
X148130000Y-51023888D01*
X148134565Y-50977534D01*
X148146296Y-50938863D01*
X148165348Y-50903221D01*
X148190983Y-50871983D01*
X148222221Y-50846348D01*
X148257863Y-50827296D01*
X148296534Y-50815565D01*
X148342888Y-50811000D01*
X148994112Y-50811000D01*
X149040466Y-50815565D01*
X149040466Y-50815565D01*
G37*
G36*
X150915466Y-50815565D02*
X150954137Y-50827296D01*
X150989779Y-50846348D01*
X151021017Y-50871983D01*
X151046652Y-50903221D01*
X151065704Y-50938863D01*
X151077435Y-50977534D01*
X151082000Y-51023888D01*
X151082000Y-52100112D01*
X151077435Y-52146466D01*
X151065704Y-52185137D01*
X151046652Y-52220779D01*
X151021017Y-52252017D01*
X150989779Y-52277652D01*
X150954137Y-52296704D01*
X150915466Y-52308435D01*
X150869112Y-52313000D01*
X150217888Y-52313000D01*
X150171534Y-52308435D01*
X150132863Y-52296704D01*
X150097221Y-52277652D01*
X150065983Y-52252017D01*
X150040348Y-52220779D01*
X150021296Y-52185137D01*
X150009565Y-52146466D01*
X150005000Y-52100112D01*
X150005000Y-51023888D01*
X150009565Y-50977534D01*
X150021296Y-50938863D01*
X150040348Y-50903221D01*
X150065983Y-50871983D01*
X150097221Y-50846348D01*
X150132863Y-50827296D01*
X150171534Y-50815565D01*
X150217888Y-50811000D01*
X150869112Y-50811000D01*
X150915466Y-50815565D01*
X150915466Y-50815565D01*
G37*
G36*
X156876000Y-51278000D02*
X155224000Y-51278000D01*
X155224000Y-50576000D01*
X156876000Y-50576000D01*
X156876000Y-51278000D01*
X156876000Y-51278000D01*
G37*
G36*
X162276000Y-51278000D02*
X160624000Y-51278000D01*
X160624000Y-50576000D01*
X162276000Y-50576000D01*
X162276000Y-51278000D01*
X162276000Y-51278000D01*
G37*
G36*
X147904466Y-49425565D02*
X147943137Y-49437296D01*
X147978779Y-49456348D01*
X148010017Y-49481983D01*
X148035652Y-49513221D01*
X148054704Y-49548863D01*
X148066435Y-49587534D01*
X148071000Y-49633888D01*
X148071000Y-50285112D01*
X148066435Y-50331466D01*
X148054704Y-50370137D01*
X148035652Y-50405779D01*
X148010017Y-50437017D01*
X147978779Y-50462652D01*
X147943137Y-50481704D01*
X147904466Y-50493435D01*
X147858112Y-50498000D01*
X146781888Y-50498000D01*
X146735534Y-50493435D01*
X146696863Y-50481704D01*
X146661221Y-50462652D01*
X146629983Y-50437017D01*
X146604348Y-50405779D01*
X146585296Y-50370137D01*
X146573565Y-50331466D01*
X146569000Y-50285112D01*
X146569000Y-49633888D01*
X146573565Y-49587534D01*
X146585296Y-49548863D01*
X146604348Y-49513221D01*
X146629983Y-49481983D01*
X146661221Y-49456348D01*
X146696863Y-49437296D01*
X146735534Y-49425565D01*
X146781888Y-49421000D01*
X147858112Y-49421000D01*
X147904466Y-49425565D01*
X147904466Y-49425565D01*
G37*
G36*
X169695396Y-48485546D02*
X169868466Y-48557234D01*
X170024230Y-48661312D01*
X170156688Y-48793770D01*
X170260766Y-48949534D01*
X170332454Y-49122604D01*
X170369000Y-49306333D01*
X170369000Y-49493667D01*
X170332454Y-49677396D01*
X170260766Y-49850466D01*
X170156688Y-50006230D01*
X170024230Y-50138688D01*
X169868466Y-50242766D01*
X169695396Y-50314454D01*
X169511667Y-50351000D01*
X169324333Y-50351000D01*
X169140604Y-50314454D01*
X168967534Y-50242766D01*
X168811770Y-50138688D01*
X168679312Y-50006230D01*
X168575234Y-49850466D01*
X168503546Y-49677396D01*
X168467000Y-49493667D01*
X168467000Y-49306333D01*
X168503546Y-49122604D01*
X168575234Y-48949534D01*
X168679312Y-48793770D01*
X168811770Y-48661312D01*
X168967534Y-48557234D01*
X169140604Y-48485546D01*
X169324333Y-48449000D01*
X169511667Y-48449000D01*
X169695396Y-48485546D01*
X169695396Y-48485546D01*
G37*
G36*
X145057396Y-48485546D02*
X145230466Y-48557234D01*
X145386230Y-48661312D01*
X145518688Y-48793770D01*
X145622766Y-48949534D01*
X145694454Y-49122604D01*
X145731000Y-49306333D01*
X145731000Y-49493667D01*
X145694454Y-49677396D01*
X145622766Y-49850466D01*
X145518688Y-50006230D01*
X145386230Y-50138688D01*
X145230466Y-50242766D01*
X145057396Y-50314454D01*
X144873667Y-50351000D01*
X144686333Y-50351000D01*
X144502604Y-50314454D01*
X144329534Y-50242766D01*
X144173770Y-50138688D01*
X144041312Y-50006230D01*
X143937234Y-49850466D01*
X143865546Y-49677396D01*
X143829000Y-49493667D01*
X143829000Y-49306333D01*
X143865546Y-49122604D01*
X143937234Y-48949534D01*
X144041312Y-48793770D01*
X144173770Y-48661312D01*
X144329534Y-48557234D01*
X144502604Y-48485546D01*
X144686333Y-48449000D01*
X144873667Y-48449000D01*
X145057396Y-48485546D01*
X145057396Y-48485546D01*
G37*
G36*
X154374466Y-48529565D02*
X154413137Y-48541296D01*
X154448779Y-48560348D01*
X154480017Y-48585983D01*
X154505652Y-48617221D01*
X154524704Y-48652863D01*
X154536435Y-48691534D01*
X154541000Y-48737888D01*
X154541000Y-49814112D01*
X154536435Y-49860466D01*
X154524704Y-49899137D01*
X154505652Y-49934779D01*
X154480017Y-49966017D01*
X154448779Y-49991652D01*
X154413137Y-50010704D01*
X154374466Y-50022435D01*
X154328112Y-50027000D01*
X153676888Y-50027000D01*
X153630534Y-50022435D01*
X153591863Y-50010704D01*
X153556221Y-49991652D01*
X153524983Y-49966017D01*
X153499348Y-49934779D01*
X153480296Y-49899137D01*
X153468565Y-49860466D01*
X153464000Y-49814112D01*
X153464000Y-48737888D01*
X153468565Y-48691534D01*
X153480296Y-48652863D01*
X153499348Y-48617221D01*
X153524983Y-48585983D01*
X153556221Y-48560348D01*
X153591863Y-48541296D01*
X153630534Y-48529565D01*
X153676888Y-48525000D01*
X154328112Y-48525000D01*
X154374466Y-48529565D01*
X154374466Y-48529565D01*
G37*
G36*
X156249466Y-48529565D02*
X156288137Y-48541296D01*
X156323779Y-48560348D01*
X156355017Y-48585983D01*
X156380652Y-48617221D01*
X156399704Y-48652863D01*
X156411435Y-48691534D01*
X156416000Y-48737888D01*
X156416000Y-49814112D01*
X156411435Y-49860466D01*
X156399704Y-49899137D01*
X156380652Y-49934779D01*
X156355017Y-49966017D01*
X156323779Y-49991652D01*
X156288137Y-50010704D01*
X156249466Y-50022435D01*
X156203112Y-50027000D01*
X155551888Y-50027000D01*
X155505534Y-50022435D01*
X155466863Y-50010704D01*
X155431221Y-49991652D01*
X155399983Y-49966017D01*
X155374348Y-49934779D01*
X155355296Y-49899137D01*
X155343565Y-49860466D01*
X155339000Y-49814112D01*
X155339000Y-48737888D01*
X155343565Y-48691534D01*
X155355296Y-48652863D01*
X155374348Y-48617221D01*
X155399983Y-48585983D01*
X155431221Y-48560348D01*
X155466863Y-48541296D01*
X155505534Y-48529565D01*
X155551888Y-48525000D01*
X156203112Y-48525000D01*
X156249466Y-48529565D01*
X156249466Y-48529565D01*
G37*
G36*
X158692466Y-48021565D02*
X158731137Y-48033296D01*
X158766779Y-48052348D01*
X158798017Y-48077983D01*
X158823652Y-48109221D01*
X158842704Y-48144863D01*
X158854435Y-48183534D01*
X158859000Y-48229888D01*
X158859000Y-49306112D01*
X158854435Y-49352466D01*
X158842704Y-49391137D01*
X158823652Y-49426779D01*
X158798017Y-49458017D01*
X158766779Y-49483652D01*
X158731137Y-49502704D01*
X158692466Y-49514435D01*
X158646112Y-49519000D01*
X157994888Y-49519000D01*
X157948534Y-49514435D01*
X157909863Y-49502704D01*
X157874221Y-49483652D01*
X157842983Y-49458017D01*
X157817348Y-49426779D01*
X157798296Y-49391137D01*
X157786565Y-49352466D01*
X157782000Y-49306112D01*
X157782000Y-48229888D01*
X157786565Y-48183534D01*
X157798296Y-48144863D01*
X157817348Y-48109221D01*
X157842983Y-48077983D01*
X157874221Y-48052348D01*
X157909863Y-48033296D01*
X157948534Y-48021565D01*
X157994888Y-48017000D01*
X158646112Y-48017000D01*
X158692466Y-48021565D01*
X158692466Y-48021565D01*
G37*
G36*
X160567466Y-48021565D02*
X160606137Y-48033296D01*
X160641779Y-48052348D01*
X160673017Y-48077983D01*
X160698652Y-48109221D01*
X160717704Y-48144863D01*
X160729435Y-48183534D01*
X160734000Y-48229888D01*
X160734000Y-49306112D01*
X160729435Y-49352466D01*
X160717704Y-49391137D01*
X160698652Y-49426779D01*
X160673017Y-49458017D01*
X160641779Y-49483652D01*
X160606137Y-49502704D01*
X160567466Y-49514435D01*
X160521112Y-49519000D01*
X159869888Y-49519000D01*
X159823534Y-49514435D01*
X159784863Y-49502704D01*
X159749221Y-49483652D01*
X159717983Y-49458017D01*
X159692348Y-49426779D01*
X159673296Y-49391137D01*
X159661565Y-49352466D01*
X159657000Y-49306112D01*
X159657000Y-48229888D01*
X159661565Y-48183534D01*
X159673296Y-48144863D01*
X159692348Y-48109221D01*
X159717983Y-48077983D01*
X159749221Y-48052348D01*
X159784863Y-48033296D01*
X159823534Y-48021565D01*
X159869888Y-48017000D01*
X160521112Y-48017000D01*
X160567466Y-48021565D01*
X160567466Y-48021565D01*
G37*
G36*
X147904466Y-47550565D02*
X147943137Y-47562296D01*
X147978779Y-47581348D01*
X148010017Y-47606983D01*
X148035652Y-47638221D01*
X148054704Y-47673863D01*
X148066435Y-47712534D01*
X148071000Y-47758888D01*
X148071000Y-48410112D01*
X148066435Y-48456466D01*
X148054704Y-48495137D01*
X148035652Y-48530779D01*
X148010017Y-48562017D01*
X147978779Y-48587652D01*
X147943137Y-48606704D01*
X147904466Y-48618435D01*
X147858112Y-48623000D01*
X146781888Y-48623000D01*
X146735534Y-48618435D01*
X146696863Y-48606704D01*
X146661221Y-48587652D01*
X146629983Y-48562017D01*
X146604348Y-48530779D01*
X146585296Y-48495137D01*
X146573565Y-48456466D01*
X146569000Y-48410112D01*
X146569000Y-47758888D01*
X146573565Y-47712534D01*
X146585296Y-47673863D01*
X146604348Y-47638221D01*
X146629983Y-47606983D01*
X146661221Y-47581348D01*
X146696863Y-47562296D01*
X146735534Y-47550565D01*
X146781888Y-47546000D01*
X147858112Y-47546000D01*
X147904466Y-47550565D01*
X147904466Y-47550565D01*
G37*
M02*
