G04 #@! TF.GenerationSoftware,KiCad,Pcbnew,5.0.2+dfsg1-1~bpo9+1*
G04 #@! TF.CreationDate,2019-04-11T13:04:55-07:00*
G04 #@! TF.ProjectId,Drum,4472756d-2e6b-4696-9361-645f70636258,rev?*
G04 #@! TF.SameCoordinates,Original*
G04 #@! TF.FileFunction,Copper,L1,Top*
G04 #@! TF.FilePolarity,Positive*
%FSLAX46Y46*%
G04 Gerber Fmt 4.6, Leading zero omitted, Abs format (unit mm)*
G04 Created by KiCad (PCBNEW 5.0.2+dfsg1-1~bpo9+1) date Thu 11 Apr 2019 01:04:55 PM PDT*
%MOMM*%
%LPD*%
G01*
G04 APERTURE LIST*
G04 #@! TA.AperFunction,ComponentPad*
%ADD10C,1.800000*%
G04 #@! TD*
G04 #@! TA.AperFunction,ComponentPad*
%ADD11C,2.000000*%
G04 #@! TD*
G04 #@! TA.AperFunction,ComponentPad*
%ADD12C,1.300000*%
G04 #@! TD*
G04 #@! TA.AperFunction,ComponentPad*
%ADD13O,1.727200X1.727200*%
G04 #@! TD*
G04 #@! TA.AperFunction,ComponentPad*
%ADD14R,1.727200X1.727200*%
G04 #@! TD*
G04 #@! TA.AperFunction,ViaPad*
%ADD15C,0.800000*%
G04 #@! TD*
G04 #@! TA.AperFunction,Conductor*
%ADD16C,0.250000*%
G04 #@! TD*
G04 #@! TA.AperFunction,Conductor*
%ADD17C,1.000000*%
G04 #@! TD*
G04 #@! TA.AperFunction,Conductor*
%ADD18C,0.254000*%
G04 #@! TD*
G04 APERTURE END LIST*
D10*
G04 #@! TO.P,J1,3*
G04 #@! TO.N,Net-(J1-Pad3)*
X144780000Y-60800000D03*
G04 #@! TO.P,J1,1*
G04 #@! TO.N,GND*
X144780000Y-49400000D03*
G04 #@! TO.P,J1,2*
G04 #@! TO.N,Net-(J1-Pad2)*
X144780000Y-52500000D03*
G04 #@! TD*
D11*
G04 #@! TO.P,RV1,*
G04 #@! TO.N,*
X174218000Y-72390000D03*
X164618000Y-72390000D03*
D12*
G04 #@! TO.P,RV1,3*
G04 #@! TO.N,Net-(R7-Pad1)*
X171918000Y-79890000D03*
G04 #@! TO.P,RV1,2*
G04 #@! TO.N,GND*
X169418000Y-79890000D03*
G04 #@! TO.P,RV1,1*
X166918000Y-79890000D03*
G04 #@! TD*
D11*
G04 #@! TO.P,RV3,*
G04 #@! TO.N,*
X162280000Y-88900000D03*
X152680000Y-88900000D03*
D12*
G04 #@! TO.P,RV3,3*
G04 #@! TO.N,Net-(R9-Pad2)*
X159980000Y-96400000D03*
G04 #@! TO.P,RV3,2*
G04 #@! TO.N,Net-(RV3-Pad1)*
X157480000Y-96400000D03*
G04 #@! TO.P,RV3,1*
X154980000Y-96400000D03*
G04 #@! TD*
D11*
G04 #@! TO.P,RV5,*
G04 #@! TO.N,*
X174218000Y-106426000D03*
X164618000Y-106426000D03*
D12*
G04 #@! TO.P,RV5,3*
G04 #@! TO.N,Net-(RV5-Pad3)*
X171918000Y-113926000D03*
G04 #@! TO.P,RV5,2*
G04 #@! TO.N,Net-(R12-Pad1)*
X169418000Y-113926000D03*
G04 #@! TO.P,RV5,1*
X166918000Y-113926000D03*
G04 #@! TD*
D11*
G04 #@! TO.P,RV4,*
G04 #@! TO.N,*
X149580000Y-106680000D03*
X139980000Y-106680000D03*
D12*
G04 #@! TO.P,RV4,3*
G04 #@! TO.N,Net-(R11-Pad1)*
X147280000Y-114180000D03*
G04 #@! TO.P,RV4,2*
G04 #@! TO.N,GND*
X144780000Y-114180000D03*
G04 #@! TO.P,RV4,1*
X142280000Y-114180000D03*
G04 #@! TD*
D11*
G04 #@! TO.P,RV2,*
G04 #@! TO.N,*
X149580000Y-72390000D03*
X139980000Y-72390000D03*
D12*
G04 #@! TO.P,RV2,3*
G04 #@! TO.N,Net-(R6-Pad2)*
X147280000Y-79890000D03*
G04 #@! TO.P,RV2,2*
X144780000Y-79890000D03*
G04 #@! TO.P,RV2,1*
G04 #@! TO.N,Net-(C7-Pad1)*
X142280000Y-79890000D03*
G04 #@! TD*
D13*
G04 #@! TO.P,J3,10*
G04 #@! TO.N,Net-(D1-Pad2)*
X152654000Y-136652000D03*
G04 #@! TO.P,J3,9*
X152654000Y-139192000D03*
G04 #@! TO.P,J3,8*
G04 #@! TO.N,GND*
X155194000Y-136652000D03*
G04 #@! TO.P,J3,7*
X155194000Y-139192000D03*
G04 #@! TO.P,J3,6*
X157734000Y-136652000D03*
G04 #@! TO.P,J3,5*
X157734000Y-139192000D03*
G04 #@! TO.P,J3,4*
X160274000Y-136652000D03*
G04 #@! TO.P,J3,3*
X160274000Y-139192000D03*
G04 #@! TO.P,J3,2*
G04 #@! TO.N,Net-(D2-Pad1)*
X162814000Y-136652000D03*
D14*
G04 #@! TO.P,J3,1*
X162814000Y-139192000D03*
G04 #@! TD*
D10*
G04 #@! TO.P,J2,3*
G04 #@! TO.N,Net-(C10-Pad2)*
X169418000Y-60800000D03*
G04 #@! TO.P,J2,1*
G04 #@! TO.N,GND*
X169418000Y-49400000D03*
G04 #@! TO.P,J2,2*
G04 #@! TO.N,Net-(J2-Pad2)*
X169418000Y-52500000D03*
G04 #@! TD*
D15*
G04 #@! TO.N,+5V*
X168148000Y-111760000D03*
G04 #@! TO.N,GND*
X160528000Y-59944000D03*
X156464000Y-60452000D03*
X154686000Y-57150000D03*
X143764000Y-58674000D03*
X141478000Y-52070000D03*
X154178000Y-51054000D03*
X159512000Y-52832000D03*
X163830000Y-68580000D03*
X155702000Y-72390000D03*
X153162000Y-79502000D03*
X150876000Y-76708000D03*
X165862000Y-84836000D03*
X169926000Y-83312000D03*
X150368000Y-100076000D03*
X153162000Y-109220000D03*
X156210000Y-104648000D03*
X155956000Y-111506000D03*
X160528000Y-110998000D03*
X157734000Y-110998000D03*
X154940000Y-123952000D03*
X156464000Y-122682000D03*
X159512000Y-131572000D03*
X167132000Y-136398000D03*
X146812000Y-118872000D03*
X170942000Y-94488000D03*
X163830000Y-95504000D03*
X170180000Y-72136000D03*
X171450000Y-57150000D03*
X144018000Y-65278000D03*
X144272000Y-85344000D03*
X147574000Y-112014000D03*
X141732000Y-122174000D03*
G04 #@! TO.N,Net-(R10-Pad1)*
X167132000Y-109982000D03*
X154432000Y-110236000D03*
G04 #@! TO.N,Net-(C7-Pad1)*
X151892000Y-50292000D03*
G04 #@! TO.N,Net-(R7-Pad1)*
X148590000Y-83058000D03*
G04 #@! TO.N,+5V*
X153526000Y-65532000D03*
X153822000Y-69088000D03*
X149148637Y-62941363D03*
X150876000Y-62992000D03*
X160768500Y-114567500D03*
X168148000Y-78232000D03*
X160782000Y-72136000D03*
G04 #@! TO.N,+12V*
X157226000Y-49784000D03*
X162052000Y-80264000D03*
X157734000Y-53594000D03*
X156464000Y-80264000D03*
G04 #@! TO.N,-12V*
X165862000Y-130048000D03*
X151384000Y-129032000D03*
X162814000Y-74930000D03*
X155702000Y-74930000D03*
G04 #@! TO.N,Net-(C15-Pad2)*
X152400000Y-112268000D03*
X161798000Y-112268000D03*
G04 #@! TO.N,Net-(RV5-Pad3)*
X156999990Y-115796010D03*
G04 #@! TD*
D16*
G04 #@! TO.N,Net-(R10-Pad1)*
X154686000Y-109982000D02*
X154432000Y-110236000D01*
X167132000Y-109982000D02*
X154686000Y-109982000D01*
G04 #@! TO.N,Net-(C7-Pad1)*
X142280000Y-79890000D02*
X142280000Y-75652000D01*
X142280000Y-75652000D02*
X151892000Y-66040000D01*
X151892000Y-66040000D02*
X151892000Y-50292000D01*
G04 #@! TO.N,Net-(R7-Pad1)*
X171268001Y-80539999D02*
X171918000Y-79890000D01*
X168350001Y-83457999D02*
X171268001Y-80539999D01*
X148989999Y-83457999D02*
X168350001Y-83457999D01*
X148590000Y-83058000D02*
X148989999Y-83457999D01*
G04 #@! TO.N,+5V*
X153526000Y-68792000D02*
X153822000Y-69088000D01*
X153526000Y-65532000D02*
X153526000Y-68792000D01*
X150876000Y-62992000D02*
X149148637Y-62941363D01*
X161168499Y-114167501D02*
X162438499Y-114167501D01*
X160768500Y-114567500D02*
X161168499Y-114167501D01*
X164846000Y-111760000D02*
X168148000Y-111760000D01*
X162438499Y-114167501D02*
X164846000Y-111760000D01*
X163631001Y-73715001D02*
X168148000Y-78232000D01*
X162361001Y-73715001D02*
X163631001Y-73715001D01*
X153822000Y-69088000D02*
X154221999Y-69487999D01*
X158242000Y-69487999D02*
X160528000Y-71882000D01*
X154221999Y-69487999D02*
X158242000Y-69487999D01*
X160528000Y-71882000D02*
X160782000Y-72136000D01*
X160782000Y-72136000D02*
X162361001Y-73715001D01*
G04 #@! TO.N,+12V*
X157226000Y-49784000D02*
X156972000Y-49784000D01*
X162052000Y-80264000D02*
X162052000Y-80264000D01*
X157226000Y-53086000D02*
X157734000Y-53594000D01*
X157226000Y-49784000D02*
X157226000Y-53086000D01*
X162052000Y-80264000D02*
X156464000Y-80264000D01*
G04 #@! TO.N,-12V*
X151384000Y-129032000D02*
X151384000Y-130048000D01*
X151384000Y-130048000D02*
X165296315Y-130048000D01*
X165296315Y-130048000D02*
X165862000Y-130048000D01*
X162814000Y-74930000D02*
X155702000Y-74930000D01*
D17*
G04 #@! TO.N,Net-(D2-Pad1)*
X162814000Y-136652000D02*
X162814000Y-139192000D01*
D16*
G04 #@! TO.N,Net-(C15-Pad2)*
X161798000Y-112268000D02*
X152400000Y-112268000D01*
G04 #@! TO.N,Net-(RV5-Pad3)*
X171918000Y-114845238D02*
X170177238Y-116586000D01*
X171918000Y-113926000D02*
X171918000Y-114845238D01*
X170177238Y-116586000D02*
X157734000Y-116586000D01*
X157734000Y-116586000D02*
X156972000Y-115824000D01*
G04 #@! TD*
D18*
G04 #@! TO.N,GND*
G36*
X143699839Y-48499447D02*
X143443357Y-48585852D01*
X143233542Y-49159336D01*
X143259161Y-49769460D01*
X143443357Y-50214148D01*
X143699841Y-50300554D01*
X144600395Y-49400000D01*
X144586253Y-49385858D01*
X144765858Y-49206253D01*
X144780000Y-49220395D01*
X144794143Y-49206253D01*
X144973748Y-49385858D01*
X144959605Y-49400000D01*
X145860159Y-50300554D01*
X146116643Y-50214148D01*
X146326458Y-49640664D01*
X146300839Y-49030540D01*
X146116643Y-48585852D01*
X145860161Y-48499447D01*
X145972608Y-48387000D01*
X168225392Y-48387000D01*
X168337839Y-48499447D01*
X168081357Y-48585852D01*
X167871542Y-49159336D01*
X167897161Y-49769460D01*
X168081357Y-50214148D01*
X168337841Y-50300554D01*
X169238395Y-49400000D01*
X169224253Y-49385858D01*
X169403858Y-49206253D01*
X169418000Y-49220395D01*
X169432143Y-49206253D01*
X169611748Y-49385858D01*
X169597605Y-49400000D01*
X170498159Y-50300554D01*
X170754643Y-50214148D01*
X170964458Y-49640664D01*
X170938839Y-49030540D01*
X170754643Y-48585852D01*
X170498161Y-48499447D01*
X170610608Y-48387000D01*
X175133000Y-48387000D01*
X175133000Y-70999294D01*
X174543222Y-70755000D01*
X173892778Y-70755000D01*
X173291847Y-71003914D01*
X172831914Y-71463847D01*
X172583000Y-72064778D01*
X172583000Y-72715222D01*
X172831914Y-73316153D01*
X173291847Y-73776086D01*
X173892778Y-74025000D01*
X174543222Y-74025000D01*
X175133000Y-73780706D01*
X175133000Y-105035294D01*
X174543222Y-104791000D01*
X173892778Y-104791000D01*
X173291847Y-105039914D01*
X172831914Y-105499847D01*
X172583000Y-106100778D01*
X172583000Y-106751222D01*
X172831914Y-107352153D01*
X173291847Y-107812086D01*
X173892778Y-108061000D01*
X174543222Y-108061000D01*
X175133000Y-107816706D01*
X175133000Y-142113000D01*
X139827000Y-142113000D01*
X139827000Y-136652000D01*
X151126041Y-136652000D01*
X151242350Y-137236725D01*
X151573570Y-137732430D01*
X151857281Y-137922000D01*
X151573570Y-138111570D01*
X151242350Y-138607275D01*
X151126041Y-139192000D01*
X151242350Y-139776725D01*
X151573570Y-140272430D01*
X152069275Y-140603650D01*
X152506402Y-140690600D01*
X152801598Y-140690600D01*
X153238725Y-140603650D01*
X153734430Y-140272430D01*
X153935854Y-139970979D01*
X153987179Y-140080490D01*
X154419053Y-140474688D01*
X154834974Y-140646958D01*
X155067000Y-140525817D01*
X155067000Y-139319000D01*
X155321000Y-139319000D01*
X155321000Y-140525817D01*
X155553026Y-140646958D01*
X155968947Y-140474688D01*
X156400821Y-140080490D01*
X156464000Y-139945687D01*
X156527179Y-140080490D01*
X156959053Y-140474688D01*
X157374974Y-140646958D01*
X157607000Y-140525817D01*
X157607000Y-139319000D01*
X157861000Y-139319000D01*
X157861000Y-140525817D01*
X158093026Y-140646958D01*
X158508947Y-140474688D01*
X158940821Y-140080490D01*
X159004000Y-139945687D01*
X159067179Y-140080490D01*
X159499053Y-140474688D01*
X159914974Y-140646958D01*
X160147000Y-140525817D01*
X160147000Y-139319000D01*
X157861000Y-139319000D01*
X157607000Y-139319000D01*
X155321000Y-139319000D01*
X155067000Y-139319000D01*
X155047000Y-139319000D01*
X155047000Y-139065000D01*
X155067000Y-139065000D01*
X155067000Y-136779000D01*
X155321000Y-136779000D01*
X155321000Y-139065000D01*
X157607000Y-139065000D01*
X157607000Y-136779000D01*
X157861000Y-136779000D01*
X157861000Y-139065000D01*
X160147000Y-139065000D01*
X160147000Y-136779000D01*
X157861000Y-136779000D01*
X157607000Y-136779000D01*
X155321000Y-136779000D01*
X155067000Y-136779000D01*
X155047000Y-136779000D01*
X155047000Y-136525000D01*
X155067000Y-136525000D01*
X155067000Y-135318183D01*
X155321000Y-135318183D01*
X155321000Y-136525000D01*
X157607000Y-136525000D01*
X157607000Y-135318183D01*
X157861000Y-135318183D01*
X157861000Y-136525000D01*
X160147000Y-136525000D01*
X160147000Y-135318183D01*
X160401000Y-135318183D01*
X160401000Y-136525000D01*
X160421000Y-136525000D01*
X160421000Y-136779000D01*
X160401000Y-136779000D01*
X160401000Y-139065000D01*
X160421000Y-139065000D01*
X160421000Y-139319000D01*
X160401000Y-139319000D01*
X160401000Y-140525817D01*
X160633026Y-140646958D01*
X161048947Y-140474688D01*
X161334480Y-140214064D01*
X161352243Y-140303365D01*
X161492591Y-140513409D01*
X161702635Y-140653757D01*
X161950400Y-140703040D01*
X163677600Y-140703040D01*
X163925365Y-140653757D01*
X164135409Y-140513409D01*
X164275757Y-140303365D01*
X164325040Y-140055600D01*
X164325040Y-138328400D01*
X164275757Y-138080635D01*
X164135409Y-137870591D01*
X163949000Y-137746036D01*
X163949000Y-137650760D01*
X164225650Y-137236725D01*
X164341959Y-136652000D01*
X164225650Y-136067275D01*
X163894430Y-135571570D01*
X163398725Y-135240350D01*
X162961598Y-135153400D01*
X162666402Y-135153400D01*
X162229275Y-135240350D01*
X161733570Y-135571570D01*
X161532146Y-135873021D01*
X161480821Y-135763510D01*
X161048947Y-135369312D01*
X160633026Y-135197042D01*
X160401000Y-135318183D01*
X160147000Y-135318183D01*
X159914974Y-135197042D01*
X159499053Y-135369312D01*
X159067179Y-135763510D01*
X159004000Y-135898313D01*
X158940821Y-135763510D01*
X158508947Y-135369312D01*
X158093026Y-135197042D01*
X157861000Y-135318183D01*
X157607000Y-135318183D01*
X157374974Y-135197042D01*
X156959053Y-135369312D01*
X156527179Y-135763510D01*
X156464000Y-135898313D01*
X156400821Y-135763510D01*
X155968947Y-135369312D01*
X155553026Y-135197042D01*
X155321000Y-135318183D01*
X155067000Y-135318183D01*
X154834974Y-135197042D01*
X154419053Y-135369312D01*
X153987179Y-135763510D01*
X153935854Y-135873021D01*
X153734430Y-135571570D01*
X153238725Y-135240350D01*
X152801598Y-135153400D01*
X152506402Y-135153400D01*
X152069275Y-135240350D01*
X151573570Y-135571570D01*
X151242350Y-136067275D01*
X151126041Y-136652000D01*
X139827000Y-136652000D01*
X139827000Y-128826126D01*
X150349000Y-128826126D01*
X150349000Y-129237874D01*
X150506569Y-129618280D01*
X150624001Y-129735712D01*
X150624001Y-129973144D01*
X150609111Y-130048000D01*
X150668096Y-130344537D01*
X150836071Y-130595929D01*
X151087463Y-130763904D01*
X151309148Y-130808000D01*
X151384000Y-130822889D01*
X151458852Y-130808000D01*
X165158289Y-130808000D01*
X165275720Y-130925431D01*
X165656126Y-131083000D01*
X166067874Y-131083000D01*
X166448280Y-130925431D01*
X166739431Y-130634280D01*
X166897000Y-130253874D01*
X166897000Y-129842126D01*
X166739431Y-129461720D01*
X166448280Y-129170569D01*
X166067874Y-129013000D01*
X165656126Y-129013000D01*
X165275720Y-129170569D01*
X165158289Y-129288000D01*
X152398237Y-129288000D01*
X152419000Y-129237874D01*
X152419000Y-128826126D01*
X152261431Y-128445720D01*
X151970280Y-128154569D01*
X151589874Y-127997000D01*
X151178126Y-127997000D01*
X150797720Y-128154569D01*
X150506569Y-128445720D01*
X150349000Y-128826126D01*
X139827000Y-128826126D01*
X139827000Y-115590136D01*
X155964990Y-115590136D01*
X155964990Y-116001884D01*
X156122559Y-116382290D01*
X156413710Y-116673441D01*
X156794116Y-116831010D01*
X156904208Y-116831010D01*
X157143671Y-117070473D01*
X157186071Y-117133929D01*
X157249527Y-117176329D01*
X157437462Y-117301904D01*
X157485605Y-117311480D01*
X157659148Y-117346000D01*
X157659152Y-117346000D01*
X157734000Y-117360888D01*
X157808848Y-117346000D01*
X170102391Y-117346000D01*
X170177238Y-117360888D01*
X170252085Y-117346000D01*
X170252090Y-117346000D01*
X170473775Y-117301904D01*
X170725167Y-117133929D01*
X170767569Y-117070470D01*
X172402473Y-115435567D01*
X172465929Y-115393167D01*
X172633904Y-115141775D01*
X172662313Y-114998952D01*
X173007371Y-114653894D01*
X173203000Y-114181602D01*
X173203000Y-113670398D01*
X173007371Y-113198106D01*
X172645894Y-112836629D01*
X172173602Y-112641000D01*
X171662398Y-112641000D01*
X171190106Y-112836629D01*
X170828629Y-113198106D01*
X170668000Y-113585900D01*
X170507371Y-113198106D01*
X170145894Y-112836629D01*
X169673602Y-112641000D01*
X169162398Y-112641000D01*
X168690106Y-112836629D01*
X168328629Y-113198106D01*
X168168000Y-113585900D01*
X168007371Y-113198106D01*
X167645894Y-112836629D01*
X167173602Y-112641000D01*
X166662398Y-112641000D01*
X166190106Y-112836629D01*
X165828629Y-113198106D01*
X165633000Y-113670398D01*
X165633000Y-114181602D01*
X165828629Y-114653894D01*
X166190106Y-115015371D01*
X166662398Y-115211000D01*
X167173602Y-115211000D01*
X167645894Y-115015371D01*
X168007371Y-114653894D01*
X168168000Y-114266100D01*
X168328629Y-114653894D01*
X168690106Y-115015371D01*
X169162398Y-115211000D01*
X169673602Y-115211000D01*
X170145894Y-115015371D01*
X170507371Y-114653894D01*
X170668000Y-114266100D01*
X170828629Y-114653894D01*
X170931586Y-114756851D01*
X169862437Y-115826000D01*
X158048802Y-115826000D01*
X158034990Y-115812188D01*
X158034990Y-115590136D01*
X157877421Y-115209730D01*
X157586270Y-114918579D01*
X157205864Y-114761010D01*
X156794116Y-114761010D01*
X156413710Y-114918579D01*
X156122559Y-115209730D01*
X155964990Y-115590136D01*
X139827000Y-115590136D01*
X139827000Y-115079016D01*
X141560590Y-115079016D01*
X141616271Y-115309611D01*
X142099078Y-115477622D01*
X142609428Y-115448083D01*
X142943729Y-115309611D01*
X142999410Y-115079016D01*
X144060590Y-115079016D01*
X144116271Y-115309611D01*
X144599078Y-115477622D01*
X145109428Y-115448083D01*
X145443729Y-115309611D01*
X145499410Y-115079016D01*
X144780000Y-114359605D01*
X144060590Y-115079016D01*
X142999410Y-115079016D01*
X142280000Y-114359605D01*
X141560590Y-115079016D01*
X139827000Y-115079016D01*
X139827000Y-113999078D01*
X140982378Y-113999078D01*
X141011917Y-114509428D01*
X141150389Y-114843729D01*
X141380984Y-114899410D01*
X142100395Y-114180000D01*
X142459605Y-114180000D01*
X143179016Y-114899410D01*
X143409611Y-114843729D01*
X143519540Y-114527831D01*
X143650389Y-114843729D01*
X143880984Y-114899410D01*
X144600395Y-114180000D01*
X144959605Y-114180000D01*
X145679016Y-114899410D01*
X145909611Y-114843729D01*
X146025777Y-114509906D01*
X146190629Y-114907894D01*
X146552106Y-115269371D01*
X147024398Y-115465000D01*
X147535602Y-115465000D01*
X148007894Y-115269371D01*
X148369371Y-114907894D01*
X148565000Y-114435602D01*
X148565000Y-113924398D01*
X148369371Y-113452106D01*
X148007894Y-113090629D01*
X147535602Y-112895000D01*
X147024398Y-112895000D01*
X146552106Y-113090629D01*
X146190629Y-113452106D01*
X146036831Y-113823408D01*
X145909611Y-113516271D01*
X145679016Y-113460590D01*
X144959605Y-114180000D01*
X144600395Y-114180000D01*
X143880984Y-113460590D01*
X143650389Y-113516271D01*
X143540460Y-113832169D01*
X143409611Y-113516271D01*
X143179016Y-113460590D01*
X142459605Y-114180000D01*
X142100395Y-114180000D01*
X141380984Y-113460590D01*
X141150389Y-113516271D01*
X140982378Y-113999078D01*
X139827000Y-113999078D01*
X139827000Y-113280984D01*
X141560590Y-113280984D01*
X142280000Y-114000395D01*
X142999410Y-113280984D01*
X144060590Y-113280984D01*
X144780000Y-114000395D01*
X145499410Y-113280984D01*
X145443729Y-113050389D01*
X144960922Y-112882378D01*
X144450572Y-112911917D01*
X144116271Y-113050389D01*
X144060590Y-113280984D01*
X142999410Y-113280984D01*
X142943729Y-113050389D01*
X142460922Y-112882378D01*
X141950572Y-112911917D01*
X141616271Y-113050389D01*
X141560590Y-113280984D01*
X139827000Y-113280984D01*
X139827000Y-112062126D01*
X151365000Y-112062126D01*
X151365000Y-112473874D01*
X151522569Y-112854280D01*
X151813720Y-113145431D01*
X152194126Y-113303000D01*
X152605874Y-113303000D01*
X152986280Y-113145431D01*
X153103711Y-113028000D01*
X161094289Y-113028000D01*
X161211720Y-113145431D01*
X161592126Y-113303000D01*
X162003874Y-113303000D01*
X162384280Y-113145431D01*
X162675431Y-112854280D01*
X162833000Y-112473874D01*
X162833000Y-112062126D01*
X162675431Y-111681720D01*
X162384280Y-111390569D01*
X162003874Y-111233000D01*
X161592126Y-111233000D01*
X161211720Y-111390569D01*
X161094289Y-111508000D01*
X153103711Y-111508000D01*
X152986280Y-111390569D01*
X152605874Y-111233000D01*
X152194126Y-111233000D01*
X151813720Y-111390569D01*
X151522569Y-111681720D01*
X151365000Y-112062126D01*
X139827000Y-112062126D01*
X139827000Y-110030126D01*
X153397000Y-110030126D01*
X153397000Y-110441874D01*
X153554569Y-110822280D01*
X153845720Y-111113431D01*
X154226126Y-111271000D01*
X154637874Y-111271000D01*
X155018280Y-111113431D01*
X155309431Y-110822280D01*
X155342684Y-110742000D01*
X166428289Y-110742000D01*
X166545720Y-110859431D01*
X166885084Y-111000000D01*
X164920848Y-111000000D01*
X164846000Y-110985112D01*
X164771152Y-111000000D01*
X164771148Y-111000000D01*
X164549463Y-111044096D01*
X164298071Y-111212071D01*
X164255671Y-111275527D01*
X162123698Y-113407501D01*
X161243345Y-113407501D01*
X161168498Y-113392613D01*
X161093651Y-113407501D01*
X161093647Y-113407501D01*
X160871962Y-113451597D01*
X160750882Y-113532500D01*
X160562626Y-113532500D01*
X160182220Y-113690069D01*
X159891069Y-113981220D01*
X159733500Y-114361626D01*
X159733500Y-114773374D01*
X159891069Y-115153780D01*
X160182220Y-115444931D01*
X160562626Y-115602500D01*
X160974374Y-115602500D01*
X161354780Y-115444931D01*
X161645931Y-115153780D01*
X161739659Y-114927501D01*
X162363652Y-114927501D01*
X162438499Y-114942389D01*
X162513346Y-114927501D01*
X162513351Y-114927501D01*
X162735036Y-114883405D01*
X162986428Y-114715430D01*
X163028830Y-114651971D01*
X165160802Y-112520000D01*
X167444289Y-112520000D01*
X167561720Y-112637431D01*
X167942126Y-112795000D01*
X168353874Y-112795000D01*
X168734280Y-112637431D01*
X169025431Y-112346280D01*
X169183000Y-111965874D01*
X169183000Y-111554126D01*
X169025431Y-111173720D01*
X168734280Y-110882569D01*
X168353874Y-110725000D01*
X167942126Y-110725000D01*
X167789485Y-110788226D01*
X168009431Y-110568280D01*
X168167000Y-110187874D01*
X168167000Y-109776126D01*
X168009431Y-109395720D01*
X167718280Y-109104569D01*
X167337874Y-108947000D01*
X166926126Y-108947000D01*
X166545720Y-109104569D01*
X166428289Y-109222000D01*
X154760846Y-109222000D01*
X154685999Y-109207112D01*
X154663456Y-109211596D01*
X154637874Y-109201000D01*
X154226126Y-109201000D01*
X153845720Y-109358569D01*
X153554569Y-109649720D01*
X153397000Y-110030126D01*
X139827000Y-110030126D01*
X139827000Y-108315000D01*
X140305222Y-108315000D01*
X140906153Y-108066086D01*
X141366086Y-107606153D01*
X141615000Y-107005222D01*
X141615000Y-106354778D01*
X147945000Y-106354778D01*
X147945000Y-107005222D01*
X148193914Y-107606153D01*
X148653847Y-108066086D01*
X149254778Y-108315000D01*
X149905222Y-108315000D01*
X150506153Y-108066086D01*
X150966086Y-107606153D01*
X151215000Y-107005222D01*
X151215000Y-106354778D01*
X151109790Y-106100778D01*
X162983000Y-106100778D01*
X162983000Y-106751222D01*
X163231914Y-107352153D01*
X163691847Y-107812086D01*
X164292778Y-108061000D01*
X164943222Y-108061000D01*
X165544153Y-107812086D01*
X166004086Y-107352153D01*
X166253000Y-106751222D01*
X166253000Y-106100778D01*
X166004086Y-105499847D01*
X165544153Y-105039914D01*
X164943222Y-104791000D01*
X164292778Y-104791000D01*
X163691847Y-105039914D01*
X163231914Y-105499847D01*
X162983000Y-106100778D01*
X151109790Y-106100778D01*
X150966086Y-105753847D01*
X150506153Y-105293914D01*
X149905222Y-105045000D01*
X149254778Y-105045000D01*
X148653847Y-105293914D01*
X148193914Y-105753847D01*
X147945000Y-106354778D01*
X141615000Y-106354778D01*
X141366086Y-105753847D01*
X140906153Y-105293914D01*
X140305222Y-105045000D01*
X139827000Y-105045000D01*
X139827000Y-96144398D01*
X153695000Y-96144398D01*
X153695000Y-96655602D01*
X153890629Y-97127894D01*
X154252106Y-97489371D01*
X154724398Y-97685000D01*
X155235602Y-97685000D01*
X155707894Y-97489371D01*
X156069371Y-97127894D01*
X156230000Y-96740100D01*
X156390629Y-97127894D01*
X156752106Y-97489371D01*
X157224398Y-97685000D01*
X157735602Y-97685000D01*
X158207894Y-97489371D01*
X158569371Y-97127894D01*
X158730000Y-96740100D01*
X158890629Y-97127894D01*
X159252106Y-97489371D01*
X159724398Y-97685000D01*
X160235602Y-97685000D01*
X160707894Y-97489371D01*
X161069371Y-97127894D01*
X161265000Y-96655602D01*
X161265000Y-96144398D01*
X161069371Y-95672106D01*
X160707894Y-95310629D01*
X160235602Y-95115000D01*
X159724398Y-95115000D01*
X159252106Y-95310629D01*
X158890629Y-95672106D01*
X158730000Y-96059900D01*
X158569371Y-95672106D01*
X158207894Y-95310629D01*
X157735602Y-95115000D01*
X157224398Y-95115000D01*
X156752106Y-95310629D01*
X156390629Y-95672106D01*
X156230000Y-96059900D01*
X156069371Y-95672106D01*
X155707894Y-95310629D01*
X155235602Y-95115000D01*
X154724398Y-95115000D01*
X154252106Y-95310629D01*
X153890629Y-95672106D01*
X153695000Y-96144398D01*
X139827000Y-96144398D01*
X139827000Y-88574778D01*
X151045000Y-88574778D01*
X151045000Y-89225222D01*
X151293914Y-89826153D01*
X151753847Y-90286086D01*
X152354778Y-90535000D01*
X153005222Y-90535000D01*
X153606153Y-90286086D01*
X154066086Y-89826153D01*
X154315000Y-89225222D01*
X154315000Y-88574778D01*
X160645000Y-88574778D01*
X160645000Y-89225222D01*
X160893914Y-89826153D01*
X161353847Y-90286086D01*
X161954778Y-90535000D01*
X162605222Y-90535000D01*
X163206153Y-90286086D01*
X163666086Y-89826153D01*
X163915000Y-89225222D01*
X163915000Y-88574778D01*
X163666086Y-87973847D01*
X163206153Y-87513914D01*
X162605222Y-87265000D01*
X161954778Y-87265000D01*
X161353847Y-87513914D01*
X160893914Y-87973847D01*
X160645000Y-88574778D01*
X154315000Y-88574778D01*
X154066086Y-87973847D01*
X153606153Y-87513914D01*
X153005222Y-87265000D01*
X152354778Y-87265000D01*
X151753847Y-87513914D01*
X151293914Y-87973847D01*
X151045000Y-88574778D01*
X139827000Y-88574778D01*
X139827000Y-82852126D01*
X147555000Y-82852126D01*
X147555000Y-83263874D01*
X147712569Y-83644280D01*
X148003720Y-83935431D01*
X148384126Y-84093000D01*
X148572382Y-84093000D01*
X148693462Y-84173903D01*
X148915147Y-84217999D01*
X148915151Y-84217999D01*
X148989998Y-84232887D01*
X149064845Y-84217999D01*
X168275154Y-84217999D01*
X168350001Y-84232887D01*
X168424848Y-84217999D01*
X168424853Y-84217999D01*
X168646538Y-84173903D01*
X168897930Y-84005928D01*
X168940332Y-83942469D01*
X171707802Y-81175000D01*
X172173602Y-81175000D01*
X172645894Y-80979371D01*
X173007371Y-80617894D01*
X173203000Y-80145602D01*
X173203000Y-79634398D01*
X173007371Y-79162106D01*
X172645894Y-78800629D01*
X172173602Y-78605000D01*
X171662398Y-78605000D01*
X171190106Y-78800629D01*
X170828629Y-79162106D01*
X170674831Y-79533408D01*
X170547611Y-79226271D01*
X170317016Y-79170590D01*
X169597605Y-79890000D01*
X169611748Y-79904142D01*
X169432142Y-80083748D01*
X169418000Y-80069605D01*
X168698590Y-80789016D01*
X168754271Y-81019611D01*
X169237078Y-81187622D01*
X169564529Y-81168669D01*
X168035200Y-82697999D01*
X149561159Y-82697999D01*
X149467431Y-82471720D01*
X149176280Y-82180569D01*
X148795874Y-82023000D01*
X148384126Y-82023000D01*
X148003720Y-82180569D01*
X147712569Y-82471720D01*
X147555000Y-82852126D01*
X139827000Y-82852126D01*
X139827000Y-79634398D01*
X140995000Y-79634398D01*
X140995000Y-80145602D01*
X141190629Y-80617894D01*
X141552106Y-80979371D01*
X142024398Y-81175000D01*
X142535602Y-81175000D01*
X143007894Y-80979371D01*
X143369371Y-80617894D01*
X143530000Y-80230100D01*
X143690629Y-80617894D01*
X144052106Y-80979371D01*
X144524398Y-81175000D01*
X145035602Y-81175000D01*
X145507894Y-80979371D01*
X145869371Y-80617894D01*
X146030000Y-80230100D01*
X146190629Y-80617894D01*
X146552106Y-80979371D01*
X147024398Y-81175000D01*
X147535602Y-81175000D01*
X148007894Y-80979371D01*
X148369371Y-80617894D01*
X148565000Y-80145602D01*
X148565000Y-80058126D01*
X155429000Y-80058126D01*
X155429000Y-80469874D01*
X155586569Y-80850280D01*
X155877720Y-81141431D01*
X156258126Y-81299000D01*
X156669874Y-81299000D01*
X157050280Y-81141431D01*
X157167711Y-81024000D01*
X161348289Y-81024000D01*
X161465720Y-81141431D01*
X161846126Y-81299000D01*
X162257874Y-81299000D01*
X162638280Y-81141431D01*
X162929431Y-80850280D01*
X162954807Y-80789016D01*
X166198590Y-80789016D01*
X166254271Y-81019611D01*
X166737078Y-81187622D01*
X167247428Y-81158083D01*
X167581729Y-81019611D01*
X167637410Y-80789016D01*
X166918000Y-80069605D01*
X166198590Y-80789016D01*
X162954807Y-80789016D01*
X163087000Y-80469874D01*
X163087000Y-80058126D01*
X162942420Y-79709078D01*
X165620378Y-79709078D01*
X165649917Y-80219428D01*
X165788389Y-80553729D01*
X166018984Y-80609410D01*
X166738395Y-79890000D01*
X166018984Y-79170590D01*
X165788389Y-79226271D01*
X165620378Y-79709078D01*
X162942420Y-79709078D01*
X162929431Y-79677720D01*
X162638280Y-79386569D01*
X162257874Y-79229000D01*
X161846126Y-79229000D01*
X161465720Y-79386569D01*
X161348289Y-79504000D01*
X157167711Y-79504000D01*
X157050280Y-79386569D01*
X156669874Y-79229000D01*
X156258126Y-79229000D01*
X155877720Y-79386569D01*
X155586569Y-79677720D01*
X155429000Y-80058126D01*
X148565000Y-80058126D01*
X148565000Y-79634398D01*
X148369371Y-79162106D01*
X148007894Y-78800629D01*
X147535602Y-78605000D01*
X147024398Y-78605000D01*
X146552106Y-78800629D01*
X146190629Y-79162106D01*
X146030000Y-79549900D01*
X145869371Y-79162106D01*
X145507894Y-78800629D01*
X145035602Y-78605000D01*
X144524398Y-78605000D01*
X144052106Y-78800629D01*
X143690629Y-79162106D01*
X143530000Y-79549900D01*
X143369371Y-79162106D01*
X143040000Y-78832735D01*
X143040000Y-75966801D01*
X146942023Y-72064778D01*
X147945000Y-72064778D01*
X147945000Y-72715222D01*
X148193914Y-73316153D01*
X148653847Y-73776086D01*
X149254778Y-74025000D01*
X149905222Y-74025000D01*
X150506153Y-73776086D01*
X150966086Y-73316153D01*
X151215000Y-72715222D01*
X151215000Y-72064778D01*
X150966086Y-71463847D01*
X150506153Y-71003914D01*
X149905222Y-70755000D01*
X149254778Y-70755000D01*
X148653847Y-71003914D01*
X148193914Y-71463847D01*
X147945000Y-72064778D01*
X146942023Y-72064778D01*
X152376473Y-66630329D01*
X152439929Y-66587929D01*
X152559198Y-66409431D01*
X152607904Y-66336538D01*
X152617480Y-66288395D01*
X152650862Y-66120573D01*
X152766000Y-66235711D01*
X152766001Y-68717148D01*
X152751112Y-68792000D01*
X152787000Y-68972421D01*
X152787000Y-69293874D01*
X152944569Y-69674280D01*
X153235720Y-69965431D01*
X153616126Y-70123000D01*
X153804382Y-70123000D01*
X153925462Y-70203903D01*
X154147147Y-70247999D01*
X154147151Y-70247999D01*
X154221998Y-70262887D01*
X154296845Y-70247999D01*
X157916877Y-70247999D01*
X159747000Y-72164586D01*
X159747000Y-72341874D01*
X159904569Y-72722280D01*
X160195720Y-73013431D01*
X160576126Y-73171000D01*
X160742199Y-73171000D01*
X161741198Y-74170000D01*
X156405711Y-74170000D01*
X156288280Y-74052569D01*
X155907874Y-73895000D01*
X155496126Y-73895000D01*
X155115720Y-74052569D01*
X154824569Y-74343720D01*
X154667000Y-74724126D01*
X154667000Y-75135874D01*
X154824569Y-75516280D01*
X155115720Y-75807431D01*
X155496126Y-75965000D01*
X155907874Y-75965000D01*
X156288280Y-75807431D01*
X156405711Y-75690000D01*
X162110289Y-75690000D01*
X162227720Y-75807431D01*
X162608126Y-75965000D01*
X163019874Y-75965000D01*
X163400280Y-75807431D01*
X163691431Y-75516280D01*
X163849000Y-75135874D01*
X163849000Y-75007801D01*
X167113000Y-78271802D01*
X167113000Y-78437874D01*
X167190147Y-78624123D01*
X167098922Y-78592378D01*
X166588572Y-78621917D01*
X166254271Y-78760389D01*
X166198590Y-78990984D01*
X166918000Y-79710395D01*
X166932143Y-79696253D01*
X167111748Y-79875858D01*
X167097605Y-79890000D01*
X167817016Y-80609410D01*
X168047611Y-80553729D01*
X168157540Y-80237831D01*
X168288389Y-80553729D01*
X168518984Y-80609410D01*
X169238395Y-79890000D01*
X169224252Y-79875858D01*
X169403858Y-79696253D01*
X169418000Y-79710395D01*
X170137410Y-78990984D01*
X170081729Y-78760389D01*
X169598922Y-78592378D01*
X169107214Y-78620838D01*
X169183000Y-78437874D01*
X169183000Y-78026126D01*
X169025431Y-77645720D01*
X168734280Y-77354569D01*
X168353874Y-77197000D01*
X168187802Y-77197000D01*
X164994543Y-74003742D01*
X165544153Y-73776086D01*
X166004086Y-73316153D01*
X166253000Y-72715222D01*
X166253000Y-72064778D01*
X166004086Y-71463847D01*
X165544153Y-71003914D01*
X164943222Y-70755000D01*
X164292778Y-70755000D01*
X163691847Y-71003914D01*
X163231914Y-71463847D01*
X162983000Y-72064778D01*
X162983000Y-72715222D01*
X163082320Y-72955001D01*
X162675803Y-72955001D01*
X161817000Y-72096199D01*
X161817000Y-71930126D01*
X161659431Y-71549720D01*
X161368280Y-71258569D01*
X160987874Y-71101000D01*
X160833071Y-71101000D01*
X158837242Y-69010879D01*
X158789929Y-68940070D01*
X158671508Y-68860943D01*
X158554974Y-68779128D01*
X158546101Y-68777149D01*
X158538537Y-68772095D01*
X158398826Y-68744305D01*
X158259877Y-68713317D01*
X158175996Y-68727999D01*
X154793159Y-68727999D01*
X154699431Y-68501720D01*
X154408280Y-68210569D01*
X154286000Y-68159919D01*
X154286000Y-66235711D01*
X154403431Y-66118280D01*
X154561000Y-65737874D01*
X154561000Y-65326126D01*
X154403431Y-64945720D01*
X154112280Y-64654569D01*
X153731874Y-64497000D01*
X153320126Y-64497000D01*
X152939720Y-64654569D01*
X152652000Y-64942289D01*
X152652000Y-60494670D01*
X167883000Y-60494670D01*
X167883000Y-61105330D01*
X168116690Y-61669507D01*
X168548493Y-62101310D01*
X169112670Y-62335000D01*
X169723330Y-62335000D01*
X170287507Y-62101310D01*
X170719310Y-61669507D01*
X170953000Y-61105330D01*
X170953000Y-60494670D01*
X170719310Y-59930493D01*
X170287507Y-59498690D01*
X169723330Y-59265000D01*
X169112670Y-59265000D01*
X168548493Y-59498690D01*
X168116690Y-59930493D01*
X167883000Y-60494670D01*
X152652000Y-60494670D01*
X152652000Y-50995711D01*
X152769431Y-50878280D01*
X152927000Y-50497874D01*
X152927000Y-50086126D01*
X152769431Y-49705720D01*
X152641837Y-49578126D01*
X156191000Y-49578126D01*
X156191000Y-49989874D01*
X156348569Y-50370280D01*
X156466000Y-50487711D01*
X156466001Y-53011148D01*
X156451112Y-53086000D01*
X156466001Y-53160852D01*
X156510097Y-53382537D01*
X156678072Y-53633929D01*
X156699000Y-53647913D01*
X156699000Y-53799874D01*
X156856569Y-54180280D01*
X157147720Y-54471431D01*
X157528126Y-54629000D01*
X157939874Y-54629000D01*
X158320280Y-54471431D01*
X158611431Y-54180280D01*
X158769000Y-53799874D01*
X158769000Y-53388126D01*
X158611431Y-53007720D01*
X158320280Y-52716569D01*
X157986000Y-52578106D01*
X157986000Y-52194670D01*
X167883000Y-52194670D01*
X167883000Y-52805330D01*
X168116690Y-53369507D01*
X168548493Y-53801310D01*
X169112670Y-54035000D01*
X169723330Y-54035000D01*
X170287507Y-53801310D01*
X170719310Y-53369507D01*
X170953000Y-52805330D01*
X170953000Y-52194670D01*
X170719310Y-51630493D01*
X170287507Y-51198690D01*
X169723330Y-50965000D01*
X169112670Y-50965000D01*
X168548493Y-51198690D01*
X168116690Y-51630493D01*
X167883000Y-52194670D01*
X157986000Y-52194670D01*
X157986000Y-50487711D01*
X157993552Y-50480159D01*
X168517446Y-50480159D01*
X168603852Y-50736643D01*
X169177336Y-50946458D01*
X169787460Y-50920839D01*
X170232148Y-50736643D01*
X170318554Y-50480159D01*
X169418000Y-49579605D01*
X168517446Y-50480159D01*
X157993552Y-50480159D01*
X158103431Y-50370280D01*
X158261000Y-49989874D01*
X158261000Y-49578126D01*
X158103431Y-49197720D01*
X157812280Y-48906569D01*
X157431874Y-48749000D01*
X157020126Y-48749000D01*
X156639720Y-48906569D01*
X156348569Y-49197720D01*
X156191000Y-49578126D01*
X152641837Y-49578126D01*
X152478280Y-49414569D01*
X152097874Y-49257000D01*
X151686126Y-49257000D01*
X151305720Y-49414569D01*
X151014569Y-49705720D01*
X150857000Y-50086126D01*
X150857000Y-50497874D01*
X151014569Y-50878280D01*
X151132001Y-50995712D01*
X151132000Y-61977763D01*
X151081874Y-61957000D01*
X150670126Y-61957000D01*
X150289720Y-62114569D01*
X150192647Y-62211642D01*
X149873264Y-62202279D01*
X149734917Y-62063932D01*
X149354511Y-61906363D01*
X148942763Y-61906363D01*
X148562357Y-62063932D01*
X148271206Y-62355083D01*
X148113637Y-62735489D01*
X148113637Y-63147237D01*
X148271206Y-63527643D01*
X148562357Y-63818794D01*
X148942763Y-63976363D01*
X149354511Y-63976363D01*
X149734917Y-63818794D01*
X149831990Y-63721721D01*
X150151373Y-63731084D01*
X150289720Y-63869431D01*
X150670126Y-64027000D01*
X151081874Y-64027000D01*
X151132000Y-64006237D01*
X151132000Y-65725198D01*
X141795528Y-75061671D01*
X141732072Y-75104071D01*
X141689672Y-75167527D01*
X141689671Y-75167528D01*
X141564097Y-75355463D01*
X141505112Y-75652000D01*
X141520001Y-75726852D01*
X141520000Y-78832735D01*
X141190629Y-79162106D01*
X140995000Y-79634398D01*
X139827000Y-79634398D01*
X139827000Y-74025000D01*
X140305222Y-74025000D01*
X140906153Y-73776086D01*
X141366086Y-73316153D01*
X141615000Y-72715222D01*
X141615000Y-72064778D01*
X141366086Y-71463847D01*
X140906153Y-71003914D01*
X140305222Y-70755000D01*
X139827000Y-70755000D01*
X139827000Y-60494670D01*
X143245000Y-60494670D01*
X143245000Y-61105330D01*
X143478690Y-61669507D01*
X143910493Y-62101310D01*
X144474670Y-62335000D01*
X145085330Y-62335000D01*
X145649507Y-62101310D01*
X146081310Y-61669507D01*
X146315000Y-61105330D01*
X146315000Y-60494670D01*
X146081310Y-59930493D01*
X145649507Y-59498690D01*
X145085330Y-59265000D01*
X144474670Y-59265000D01*
X143910493Y-59498690D01*
X143478690Y-59930493D01*
X143245000Y-60494670D01*
X139827000Y-60494670D01*
X139827000Y-52194670D01*
X143245000Y-52194670D01*
X143245000Y-52805330D01*
X143478690Y-53369507D01*
X143910493Y-53801310D01*
X144474670Y-54035000D01*
X145085330Y-54035000D01*
X145649507Y-53801310D01*
X146081310Y-53369507D01*
X146315000Y-52805330D01*
X146315000Y-52194670D01*
X146081310Y-51630493D01*
X145649507Y-51198690D01*
X145085330Y-50965000D01*
X144474670Y-50965000D01*
X143910493Y-51198690D01*
X143478690Y-51630493D01*
X143245000Y-52194670D01*
X139827000Y-52194670D01*
X139827000Y-50480159D01*
X143879446Y-50480159D01*
X143965852Y-50736643D01*
X144539336Y-50946458D01*
X145149460Y-50920839D01*
X145594148Y-50736643D01*
X145680554Y-50480159D01*
X144780000Y-49579605D01*
X143879446Y-50480159D01*
X139827000Y-50480159D01*
X139827000Y-48387000D01*
X143587392Y-48387000D01*
X143699839Y-48499447D01*
X143699839Y-48499447D01*
G37*
X143699839Y-48499447D02*
X143443357Y-48585852D01*
X143233542Y-49159336D01*
X143259161Y-49769460D01*
X143443357Y-50214148D01*
X143699841Y-50300554D01*
X144600395Y-49400000D01*
X144586253Y-49385858D01*
X144765858Y-49206253D01*
X144780000Y-49220395D01*
X144794143Y-49206253D01*
X144973748Y-49385858D01*
X144959605Y-49400000D01*
X145860159Y-50300554D01*
X146116643Y-50214148D01*
X146326458Y-49640664D01*
X146300839Y-49030540D01*
X146116643Y-48585852D01*
X145860161Y-48499447D01*
X145972608Y-48387000D01*
X168225392Y-48387000D01*
X168337839Y-48499447D01*
X168081357Y-48585852D01*
X167871542Y-49159336D01*
X167897161Y-49769460D01*
X168081357Y-50214148D01*
X168337841Y-50300554D01*
X169238395Y-49400000D01*
X169224253Y-49385858D01*
X169403858Y-49206253D01*
X169418000Y-49220395D01*
X169432143Y-49206253D01*
X169611748Y-49385858D01*
X169597605Y-49400000D01*
X170498159Y-50300554D01*
X170754643Y-50214148D01*
X170964458Y-49640664D01*
X170938839Y-49030540D01*
X170754643Y-48585852D01*
X170498161Y-48499447D01*
X170610608Y-48387000D01*
X175133000Y-48387000D01*
X175133000Y-70999294D01*
X174543222Y-70755000D01*
X173892778Y-70755000D01*
X173291847Y-71003914D01*
X172831914Y-71463847D01*
X172583000Y-72064778D01*
X172583000Y-72715222D01*
X172831914Y-73316153D01*
X173291847Y-73776086D01*
X173892778Y-74025000D01*
X174543222Y-74025000D01*
X175133000Y-73780706D01*
X175133000Y-105035294D01*
X174543222Y-104791000D01*
X173892778Y-104791000D01*
X173291847Y-105039914D01*
X172831914Y-105499847D01*
X172583000Y-106100778D01*
X172583000Y-106751222D01*
X172831914Y-107352153D01*
X173291847Y-107812086D01*
X173892778Y-108061000D01*
X174543222Y-108061000D01*
X175133000Y-107816706D01*
X175133000Y-142113000D01*
X139827000Y-142113000D01*
X139827000Y-136652000D01*
X151126041Y-136652000D01*
X151242350Y-137236725D01*
X151573570Y-137732430D01*
X151857281Y-137922000D01*
X151573570Y-138111570D01*
X151242350Y-138607275D01*
X151126041Y-139192000D01*
X151242350Y-139776725D01*
X151573570Y-140272430D01*
X152069275Y-140603650D01*
X152506402Y-140690600D01*
X152801598Y-140690600D01*
X153238725Y-140603650D01*
X153734430Y-140272430D01*
X153935854Y-139970979D01*
X153987179Y-140080490D01*
X154419053Y-140474688D01*
X154834974Y-140646958D01*
X155067000Y-140525817D01*
X155067000Y-139319000D01*
X155321000Y-139319000D01*
X155321000Y-140525817D01*
X155553026Y-140646958D01*
X155968947Y-140474688D01*
X156400821Y-140080490D01*
X156464000Y-139945687D01*
X156527179Y-140080490D01*
X156959053Y-140474688D01*
X157374974Y-140646958D01*
X157607000Y-140525817D01*
X157607000Y-139319000D01*
X157861000Y-139319000D01*
X157861000Y-140525817D01*
X158093026Y-140646958D01*
X158508947Y-140474688D01*
X158940821Y-140080490D01*
X159004000Y-139945687D01*
X159067179Y-140080490D01*
X159499053Y-140474688D01*
X159914974Y-140646958D01*
X160147000Y-140525817D01*
X160147000Y-139319000D01*
X157861000Y-139319000D01*
X157607000Y-139319000D01*
X155321000Y-139319000D01*
X155067000Y-139319000D01*
X155047000Y-139319000D01*
X155047000Y-139065000D01*
X155067000Y-139065000D01*
X155067000Y-136779000D01*
X155321000Y-136779000D01*
X155321000Y-139065000D01*
X157607000Y-139065000D01*
X157607000Y-136779000D01*
X157861000Y-136779000D01*
X157861000Y-139065000D01*
X160147000Y-139065000D01*
X160147000Y-136779000D01*
X157861000Y-136779000D01*
X157607000Y-136779000D01*
X155321000Y-136779000D01*
X155067000Y-136779000D01*
X155047000Y-136779000D01*
X155047000Y-136525000D01*
X155067000Y-136525000D01*
X155067000Y-135318183D01*
X155321000Y-135318183D01*
X155321000Y-136525000D01*
X157607000Y-136525000D01*
X157607000Y-135318183D01*
X157861000Y-135318183D01*
X157861000Y-136525000D01*
X160147000Y-136525000D01*
X160147000Y-135318183D01*
X160401000Y-135318183D01*
X160401000Y-136525000D01*
X160421000Y-136525000D01*
X160421000Y-136779000D01*
X160401000Y-136779000D01*
X160401000Y-139065000D01*
X160421000Y-139065000D01*
X160421000Y-139319000D01*
X160401000Y-139319000D01*
X160401000Y-140525817D01*
X160633026Y-140646958D01*
X161048947Y-140474688D01*
X161334480Y-140214064D01*
X161352243Y-140303365D01*
X161492591Y-140513409D01*
X161702635Y-140653757D01*
X161950400Y-140703040D01*
X163677600Y-140703040D01*
X163925365Y-140653757D01*
X164135409Y-140513409D01*
X164275757Y-140303365D01*
X164325040Y-140055600D01*
X164325040Y-138328400D01*
X164275757Y-138080635D01*
X164135409Y-137870591D01*
X163949000Y-137746036D01*
X163949000Y-137650760D01*
X164225650Y-137236725D01*
X164341959Y-136652000D01*
X164225650Y-136067275D01*
X163894430Y-135571570D01*
X163398725Y-135240350D01*
X162961598Y-135153400D01*
X162666402Y-135153400D01*
X162229275Y-135240350D01*
X161733570Y-135571570D01*
X161532146Y-135873021D01*
X161480821Y-135763510D01*
X161048947Y-135369312D01*
X160633026Y-135197042D01*
X160401000Y-135318183D01*
X160147000Y-135318183D01*
X159914974Y-135197042D01*
X159499053Y-135369312D01*
X159067179Y-135763510D01*
X159004000Y-135898313D01*
X158940821Y-135763510D01*
X158508947Y-135369312D01*
X158093026Y-135197042D01*
X157861000Y-135318183D01*
X157607000Y-135318183D01*
X157374974Y-135197042D01*
X156959053Y-135369312D01*
X156527179Y-135763510D01*
X156464000Y-135898313D01*
X156400821Y-135763510D01*
X155968947Y-135369312D01*
X155553026Y-135197042D01*
X155321000Y-135318183D01*
X155067000Y-135318183D01*
X154834974Y-135197042D01*
X154419053Y-135369312D01*
X153987179Y-135763510D01*
X153935854Y-135873021D01*
X153734430Y-135571570D01*
X153238725Y-135240350D01*
X152801598Y-135153400D01*
X152506402Y-135153400D01*
X152069275Y-135240350D01*
X151573570Y-135571570D01*
X151242350Y-136067275D01*
X151126041Y-136652000D01*
X139827000Y-136652000D01*
X139827000Y-128826126D01*
X150349000Y-128826126D01*
X150349000Y-129237874D01*
X150506569Y-129618280D01*
X150624001Y-129735712D01*
X150624001Y-129973144D01*
X150609111Y-130048000D01*
X150668096Y-130344537D01*
X150836071Y-130595929D01*
X151087463Y-130763904D01*
X151309148Y-130808000D01*
X151384000Y-130822889D01*
X151458852Y-130808000D01*
X165158289Y-130808000D01*
X165275720Y-130925431D01*
X165656126Y-131083000D01*
X166067874Y-131083000D01*
X166448280Y-130925431D01*
X166739431Y-130634280D01*
X166897000Y-130253874D01*
X166897000Y-129842126D01*
X166739431Y-129461720D01*
X166448280Y-129170569D01*
X166067874Y-129013000D01*
X165656126Y-129013000D01*
X165275720Y-129170569D01*
X165158289Y-129288000D01*
X152398237Y-129288000D01*
X152419000Y-129237874D01*
X152419000Y-128826126D01*
X152261431Y-128445720D01*
X151970280Y-128154569D01*
X151589874Y-127997000D01*
X151178126Y-127997000D01*
X150797720Y-128154569D01*
X150506569Y-128445720D01*
X150349000Y-128826126D01*
X139827000Y-128826126D01*
X139827000Y-115590136D01*
X155964990Y-115590136D01*
X155964990Y-116001884D01*
X156122559Y-116382290D01*
X156413710Y-116673441D01*
X156794116Y-116831010D01*
X156904208Y-116831010D01*
X157143671Y-117070473D01*
X157186071Y-117133929D01*
X157249527Y-117176329D01*
X157437462Y-117301904D01*
X157485605Y-117311480D01*
X157659148Y-117346000D01*
X157659152Y-117346000D01*
X157734000Y-117360888D01*
X157808848Y-117346000D01*
X170102391Y-117346000D01*
X170177238Y-117360888D01*
X170252085Y-117346000D01*
X170252090Y-117346000D01*
X170473775Y-117301904D01*
X170725167Y-117133929D01*
X170767569Y-117070470D01*
X172402473Y-115435567D01*
X172465929Y-115393167D01*
X172633904Y-115141775D01*
X172662313Y-114998952D01*
X173007371Y-114653894D01*
X173203000Y-114181602D01*
X173203000Y-113670398D01*
X173007371Y-113198106D01*
X172645894Y-112836629D01*
X172173602Y-112641000D01*
X171662398Y-112641000D01*
X171190106Y-112836629D01*
X170828629Y-113198106D01*
X170668000Y-113585900D01*
X170507371Y-113198106D01*
X170145894Y-112836629D01*
X169673602Y-112641000D01*
X169162398Y-112641000D01*
X168690106Y-112836629D01*
X168328629Y-113198106D01*
X168168000Y-113585900D01*
X168007371Y-113198106D01*
X167645894Y-112836629D01*
X167173602Y-112641000D01*
X166662398Y-112641000D01*
X166190106Y-112836629D01*
X165828629Y-113198106D01*
X165633000Y-113670398D01*
X165633000Y-114181602D01*
X165828629Y-114653894D01*
X166190106Y-115015371D01*
X166662398Y-115211000D01*
X167173602Y-115211000D01*
X167645894Y-115015371D01*
X168007371Y-114653894D01*
X168168000Y-114266100D01*
X168328629Y-114653894D01*
X168690106Y-115015371D01*
X169162398Y-115211000D01*
X169673602Y-115211000D01*
X170145894Y-115015371D01*
X170507371Y-114653894D01*
X170668000Y-114266100D01*
X170828629Y-114653894D01*
X170931586Y-114756851D01*
X169862437Y-115826000D01*
X158048802Y-115826000D01*
X158034990Y-115812188D01*
X158034990Y-115590136D01*
X157877421Y-115209730D01*
X157586270Y-114918579D01*
X157205864Y-114761010D01*
X156794116Y-114761010D01*
X156413710Y-114918579D01*
X156122559Y-115209730D01*
X155964990Y-115590136D01*
X139827000Y-115590136D01*
X139827000Y-115079016D01*
X141560590Y-115079016D01*
X141616271Y-115309611D01*
X142099078Y-115477622D01*
X142609428Y-115448083D01*
X142943729Y-115309611D01*
X142999410Y-115079016D01*
X144060590Y-115079016D01*
X144116271Y-115309611D01*
X144599078Y-115477622D01*
X145109428Y-115448083D01*
X145443729Y-115309611D01*
X145499410Y-115079016D01*
X144780000Y-114359605D01*
X144060590Y-115079016D01*
X142999410Y-115079016D01*
X142280000Y-114359605D01*
X141560590Y-115079016D01*
X139827000Y-115079016D01*
X139827000Y-113999078D01*
X140982378Y-113999078D01*
X141011917Y-114509428D01*
X141150389Y-114843729D01*
X141380984Y-114899410D01*
X142100395Y-114180000D01*
X142459605Y-114180000D01*
X143179016Y-114899410D01*
X143409611Y-114843729D01*
X143519540Y-114527831D01*
X143650389Y-114843729D01*
X143880984Y-114899410D01*
X144600395Y-114180000D01*
X144959605Y-114180000D01*
X145679016Y-114899410D01*
X145909611Y-114843729D01*
X146025777Y-114509906D01*
X146190629Y-114907894D01*
X146552106Y-115269371D01*
X147024398Y-115465000D01*
X147535602Y-115465000D01*
X148007894Y-115269371D01*
X148369371Y-114907894D01*
X148565000Y-114435602D01*
X148565000Y-113924398D01*
X148369371Y-113452106D01*
X148007894Y-113090629D01*
X147535602Y-112895000D01*
X147024398Y-112895000D01*
X146552106Y-113090629D01*
X146190629Y-113452106D01*
X146036831Y-113823408D01*
X145909611Y-113516271D01*
X145679016Y-113460590D01*
X144959605Y-114180000D01*
X144600395Y-114180000D01*
X143880984Y-113460590D01*
X143650389Y-113516271D01*
X143540460Y-113832169D01*
X143409611Y-113516271D01*
X143179016Y-113460590D01*
X142459605Y-114180000D01*
X142100395Y-114180000D01*
X141380984Y-113460590D01*
X141150389Y-113516271D01*
X140982378Y-113999078D01*
X139827000Y-113999078D01*
X139827000Y-113280984D01*
X141560590Y-113280984D01*
X142280000Y-114000395D01*
X142999410Y-113280984D01*
X144060590Y-113280984D01*
X144780000Y-114000395D01*
X145499410Y-113280984D01*
X145443729Y-113050389D01*
X144960922Y-112882378D01*
X144450572Y-112911917D01*
X144116271Y-113050389D01*
X144060590Y-113280984D01*
X142999410Y-113280984D01*
X142943729Y-113050389D01*
X142460922Y-112882378D01*
X141950572Y-112911917D01*
X141616271Y-113050389D01*
X141560590Y-113280984D01*
X139827000Y-113280984D01*
X139827000Y-112062126D01*
X151365000Y-112062126D01*
X151365000Y-112473874D01*
X151522569Y-112854280D01*
X151813720Y-113145431D01*
X152194126Y-113303000D01*
X152605874Y-113303000D01*
X152986280Y-113145431D01*
X153103711Y-113028000D01*
X161094289Y-113028000D01*
X161211720Y-113145431D01*
X161592126Y-113303000D01*
X162003874Y-113303000D01*
X162384280Y-113145431D01*
X162675431Y-112854280D01*
X162833000Y-112473874D01*
X162833000Y-112062126D01*
X162675431Y-111681720D01*
X162384280Y-111390569D01*
X162003874Y-111233000D01*
X161592126Y-111233000D01*
X161211720Y-111390569D01*
X161094289Y-111508000D01*
X153103711Y-111508000D01*
X152986280Y-111390569D01*
X152605874Y-111233000D01*
X152194126Y-111233000D01*
X151813720Y-111390569D01*
X151522569Y-111681720D01*
X151365000Y-112062126D01*
X139827000Y-112062126D01*
X139827000Y-110030126D01*
X153397000Y-110030126D01*
X153397000Y-110441874D01*
X153554569Y-110822280D01*
X153845720Y-111113431D01*
X154226126Y-111271000D01*
X154637874Y-111271000D01*
X155018280Y-111113431D01*
X155309431Y-110822280D01*
X155342684Y-110742000D01*
X166428289Y-110742000D01*
X166545720Y-110859431D01*
X166885084Y-111000000D01*
X164920848Y-111000000D01*
X164846000Y-110985112D01*
X164771152Y-111000000D01*
X164771148Y-111000000D01*
X164549463Y-111044096D01*
X164298071Y-111212071D01*
X164255671Y-111275527D01*
X162123698Y-113407501D01*
X161243345Y-113407501D01*
X161168498Y-113392613D01*
X161093651Y-113407501D01*
X161093647Y-113407501D01*
X160871962Y-113451597D01*
X160750882Y-113532500D01*
X160562626Y-113532500D01*
X160182220Y-113690069D01*
X159891069Y-113981220D01*
X159733500Y-114361626D01*
X159733500Y-114773374D01*
X159891069Y-115153780D01*
X160182220Y-115444931D01*
X160562626Y-115602500D01*
X160974374Y-115602500D01*
X161354780Y-115444931D01*
X161645931Y-115153780D01*
X161739659Y-114927501D01*
X162363652Y-114927501D01*
X162438499Y-114942389D01*
X162513346Y-114927501D01*
X162513351Y-114927501D01*
X162735036Y-114883405D01*
X162986428Y-114715430D01*
X163028830Y-114651971D01*
X165160802Y-112520000D01*
X167444289Y-112520000D01*
X167561720Y-112637431D01*
X167942126Y-112795000D01*
X168353874Y-112795000D01*
X168734280Y-112637431D01*
X169025431Y-112346280D01*
X169183000Y-111965874D01*
X169183000Y-111554126D01*
X169025431Y-111173720D01*
X168734280Y-110882569D01*
X168353874Y-110725000D01*
X167942126Y-110725000D01*
X167789485Y-110788226D01*
X168009431Y-110568280D01*
X168167000Y-110187874D01*
X168167000Y-109776126D01*
X168009431Y-109395720D01*
X167718280Y-109104569D01*
X167337874Y-108947000D01*
X166926126Y-108947000D01*
X166545720Y-109104569D01*
X166428289Y-109222000D01*
X154760846Y-109222000D01*
X154685999Y-109207112D01*
X154663456Y-109211596D01*
X154637874Y-109201000D01*
X154226126Y-109201000D01*
X153845720Y-109358569D01*
X153554569Y-109649720D01*
X153397000Y-110030126D01*
X139827000Y-110030126D01*
X139827000Y-108315000D01*
X140305222Y-108315000D01*
X140906153Y-108066086D01*
X141366086Y-107606153D01*
X141615000Y-107005222D01*
X141615000Y-106354778D01*
X147945000Y-106354778D01*
X147945000Y-107005222D01*
X148193914Y-107606153D01*
X148653847Y-108066086D01*
X149254778Y-108315000D01*
X149905222Y-108315000D01*
X150506153Y-108066086D01*
X150966086Y-107606153D01*
X151215000Y-107005222D01*
X151215000Y-106354778D01*
X151109790Y-106100778D01*
X162983000Y-106100778D01*
X162983000Y-106751222D01*
X163231914Y-107352153D01*
X163691847Y-107812086D01*
X164292778Y-108061000D01*
X164943222Y-108061000D01*
X165544153Y-107812086D01*
X166004086Y-107352153D01*
X166253000Y-106751222D01*
X166253000Y-106100778D01*
X166004086Y-105499847D01*
X165544153Y-105039914D01*
X164943222Y-104791000D01*
X164292778Y-104791000D01*
X163691847Y-105039914D01*
X163231914Y-105499847D01*
X162983000Y-106100778D01*
X151109790Y-106100778D01*
X150966086Y-105753847D01*
X150506153Y-105293914D01*
X149905222Y-105045000D01*
X149254778Y-105045000D01*
X148653847Y-105293914D01*
X148193914Y-105753847D01*
X147945000Y-106354778D01*
X141615000Y-106354778D01*
X141366086Y-105753847D01*
X140906153Y-105293914D01*
X140305222Y-105045000D01*
X139827000Y-105045000D01*
X139827000Y-96144398D01*
X153695000Y-96144398D01*
X153695000Y-96655602D01*
X153890629Y-97127894D01*
X154252106Y-97489371D01*
X154724398Y-97685000D01*
X155235602Y-97685000D01*
X155707894Y-97489371D01*
X156069371Y-97127894D01*
X156230000Y-96740100D01*
X156390629Y-97127894D01*
X156752106Y-97489371D01*
X157224398Y-97685000D01*
X157735602Y-97685000D01*
X158207894Y-97489371D01*
X158569371Y-97127894D01*
X158730000Y-96740100D01*
X158890629Y-97127894D01*
X159252106Y-97489371D01*
X159724398Y-97685000D01*
X160235602Y-97685000D01*
X160707894Y-97489371D01*
X161069371Y-97127894D01*
X161265000Y-96655602D01*
X161265000Y-96144398D01*
X161069371Y-95672106D01*
X160707894Y-95310629D01*
X160235602Y-95115000D01*
X159724398Y-95115000D01*
X159252106Y-95310629D01*
X158890629Y-95672106D01*
X158730000Y-96059900D01*
X158569371Y-95672106D01*
X158207894Y-95310629D01*
X157735602Y-95115000D01*
X157224398Y-95115000D01*
X156752106Y-95310629D01*
X156390629Y-95672106D01*
X156230000Y-96059900D01*
X156069371Y-95672106D01*
X155707894Y-95310629D01*
X155235602Y-95115000D01*
X154724398Y-95115000D01*
X154252106Y-95310629D01*
X153890629Y-95672106D01*
X153695000Y-96144398D01*
X139827000Y-96144398D01*
X139827000Y-88574778D01*
X151045000Y-88574778D01*
X151045000Y-89225222D01*
X151293914Y-89826153D01*
X151753847Y-90286086D01*
X152354778Y-90535000D01*
X153005222Y-90535000D01*
X153606153Y-90286086D01*
X154066086Y-89826153D01*
X154315000Y-89225222D01*
X154315000Y-88574778D01*
X160645000Y-88574778D01*
X160645000Y-89225222D01*
X160893914Y-89826153D01*
X161353847Y-90286086D01*
X161954778Y-90535000D01*
X162605222Y-90535000D01*
X163206153Y-90286086D01*
X163666086Y-89826153D01*
X163915000Y-89225222D01*
X163915000Y-88574778D01*
X163666086Y-87973847D01*
X163206153Y-87513914D01*
X162605222Y-87265000D01*
X161954778Y-87265000D01*
X161353847Y-87513914D01*
X160893914Y-87973847D01*
X160645000Y-88574778D01*
X154315000Y-88574778D01*
X154066086Y-87973847D01*
X153606153Y-87513914D01*
X153005222Y-87265000D01*
X152354778Y-87265000D01*
X151753847Y-87513914D01*
X151293914Y-87973847D01*
X151045000Y-88574778D01*
X139827000Y-88574778D01*
X139827000Y-82852126D01*
X147555000Y-82852126D01*
X147555000Y-83263874D01*
X147712569Y-83644280D01*
X148003720Y-83935431D01*
X148384126Y-84093000D01*
X148572382Y-84093000D01*
X148693462Y-84173903D01*
X148915147Y-84217999D01*
X148915151Y-84217999D01*
X148989998Y-84232887D01*
X149064845Y-84217999D01*
X168275154Y-84217999D01*
X168350001Y-84232887D01*
X168424848Y-84217999D01*
X168424853Y-84217999D01*
X168646538Y-84173903D01*
X168897930Y-84005928D01*
X168940332Y-83942469D01*
X171707802Y-81175000D01*
X172173602Y-81175000D01*
X172645894Y-80979371D01*
X173007371Y-80617894D01*
X173203000Y-80145602D01*
X173203000Y-79634398D01*
X173007371Y-79162106D01*
X172645894Y-78800629D01*
X172173602Y-78605000D01*
X171662398Y-78605000D01*
X171190106Y-78800629D01*
X170828629Y-79162106D01*
X170674831Y-79533408D01*
X170547611Y-79226271D01*
X170317016Y-79170590D01*
X169597605Y-79890000D01*
X169611748Y-79904142D01*
X169432142Y-80083748D01*
X169418000Y-80069605D01*
X168698590Y-80789016D01*
X168754271Y-81019611D01*
X169237078Y-81187622D01*
X169564529Y-81168669D01*
X168035200Y-82697999D01*
X149561159Y-82697999D01*
X149467431Y-82471720D01*
X149176280Y-82180569D01*
X148795874Y-82023000D01*
X148384126Y-82023000D01*
X148003720Y-82180569D01*
X147712569Y-82471720D01*
X147555000Y-82852126D01*
X139827000Y-82852126D01*
X139827000Y-79634398D01*
X140995000Y-79634398D01*
X140995000Y-80145602D01*
X141190629Y-80617894D01*
X141552106Y-80979371D01*
X142024398Y-81175000D01*
X142535602Y-81175000D01*
X143007894Y-80979371D01*
X143369371Y-80617894D01*
X143530000Y-80230100D01*
X143690629Y-80617894D01*
X144052106Y-80979371D01*
X144524398Y-81175000D01*
X145035602Y-81175000D01*
X145507894Y-80979371D01*
X145869371Y-80617894D01*
X146030000Y-80230100D01*
X146190629Y-80617894D01*
X146552106Y-80979371D01*
X147024398Y-81175000D01*
X147535602Y-81175000D01*
X148007894Y-80979371D01*
X148369371Y-80617894D01*
X148565000Y-80145602D01*
X148565000Y-80058126D01*
X155429000Y-80058126D01*
X155429000Y-80469874D01*
X155586569Y-80850280D01*
X155877720Y-81141431D01*
X156258126Y-81299000D01*
X156669874Y-81299000D01*
X157050280Y-81141431D01*
X157167711Y-81024000D01*
X161348289Y-81024000D01*
X161465720Y-81141431D01*
X161846126Y-81299000D01*
X162257874Y-81299000D01*
X162638280Y-81141431D01*
X162929431Y-80850280D01*
X162954807Y-80789016D01*
X166198590Y-80789016D01*
X166254271Y-81019611D01*
X166737078Y-81187622D01*
X167247428Y-81158083D01*
X167581729Y-81019611D01*
X167637410Y-80789016D01*
X166918000Y-80069605D01*
X166198590Y-80789016D01*
X162954807Y-80789016D01*
X163087000Y-80469874D01*
X163087000Y-80058126D01*
X162942420Y-79709078D01*
X165620378Y-79709078D01*
X165649917Y-80219428D01*
X165788389Y-80553729D01*
X166018984Y-80609410D01*
X166738395Y-79890000D01*
X166018984Y-79170590D01*
X165788389Y-79226271D01*
X165620378Y-79709078D01*
X162942420Y-79709078D01*
X162929431Y-79677720D01*
X162638280Y-79386569D01*
X162257874Y-79229000D01*
X161846126Y-79229000D01*
X161465720Y-79386569D01*
X161348289Y-79504000D01*
X157167711Y-79504000D01*
X157050280Y-79386569D01*
X156669874Y-79229000D01*
X156258126Y-79229000D01*
X155877720Y-79386569D01*
X155586569Y-79677720D01*
X155429000Y-80058126D01*
X148565000Y-80058126D01*
X148565000Y-79634398D01*
X148369371Y-79162106D01*
X148007894Y-78800629D01*
X147535602Y-78605000D01*
X147024398Y-78605000D01*
X146552106Y-78800629D01*
X146190629Y-79162106D01*
X146030000Y-79549900D01*
X145869371Y-79162106D01*
X145507894Y-78800629D01*
X145035602Y-78605000D01*
X144524398Y-78605000D01*
X144052106Y-78800629D01*
X143690629Y-79162106D01*
X143530000Y-79549900D01*
X143369371Y-79162106D01*
X143040000Y-78832735D01*
X143040000Y-75966801D01*
X146942023Y-72064778D01*
X147945000Y-72064778D01*
X147945000Y-72715222D01*
X148193914Y-73316153D01*
X148653847Y-73776086D01*
X149254778Y-74025000D01*
X149905222Y-74025000D01*
X150506153Y-73776086D01*
X150966086Y-73316153D01*
X151215000Y-72715222D01*
X151215000Y-72064778D01*
X150966086Y-71463847D01*
X150506153Y-71003914D01*
X149905222Y-70755000D01*
X149254778Y-70755000D01*
X148653847Y-71003914D01*
X148193914Y-71463847D01*
X147945000Y-72064778D01*
X146942023Y-72064778D01*
X152376473Y-66630329D01*
X152439929Y-66587929D01*
X152559198Y-66409431D01*
X152607904Y-66336538D01*
X152617480Y-66288395D01*
X152650862Y-66120573D01*
X152766000Y-66235711D01*
X152766001Y-68717148D01*
X152751112Y-68792000D01*
X152787000Y-68972421D01*
X152787000Y-69293874D01*
X152944569Y-69674280D01*
X153235720Y-69965431D01*
X153616126Y-70123000D01*
X153804382Y-70123000D01*
X153925462Y-70203903D01*
X154147147Y-70247999D01*
X154147151Y-70247999D01*
X154221998Y-70262887D01*
X154296845Y-70247999D01*
X157916877Y-70247999D01*
X159747000Y-72164586D01*
X159747000Y-72341874D01*
X159904569Y-72722280D01*
X160195720Y-73013431D01*
X160576126Y-73171000D01*
X160742199Y-73171000D01*
X161741198Y-74170000D01*
X156405711Y-74170000D01*
X156288280Y-74052569D01*
X155907874Y-73895000D01*
X155496126Y-73895000D01*
X155115720Y-74052569D01*
X154824569Y-74343720D01*
X154667000Y-74724126D01*
X154667000Y-75135874D01*
X154824569Y-75516280D01*
X155115720Y-75807431D01*
X155496126Y-75965000D01*
X155907874Y-75965000D01*
X156288280Y-75807431D01*
X156405711Y-75690000D01*
X162110289Y-75690000D01*
X162227720Y-75807431D01*
X162608126Y-75965000D01*
X163019874Y-75965000D01*
X163400280Y-75807431D01*
X163691431Y-75516280D01*
X163849000Y-75135874D01*
X163849000Y-75007801D01*
X167113000Y-78271802D01*
X167113000Y-78437874D01*
X167190147Y-78624123D01*
X167098922Y-78592378D01*
X166588572Y-78621917D01*
X166254271Y-78760389D01*
X166198590Y-78990984D01*
X166918000Y-79710395D01*
X166932143Y-79696253D01*
X167111748Y-79875858D01*
X167097605Y-79890000D01*
X167817016Y-80609410D01*
X168047611Y-80553729D01*
X168157540Y-80237831D01*
X168288389Y-80553729D01*
X168518984Y-80609410D01*
X169238395Y-79890000D01*
X169224252Y-79875858D01*
X169403858Y-79696253D01*
X169418000Y-79710395D01*
X170137410Y-78990984D01*
X170081729Y-78760389D01*
X169598922Y-78592378D01*
X169107214Y-78620838D01*
X169183000Y-78437874D01*
X169183000Y-78026126D01*
X169025431Y-77645720D01*
X168734280Y-77354569D01*
X168353874Y-77197000D01*
X168187802Y-77197000D01*
X164994543Y-74003742D01*
X165544153Y-73776086D01*
X166004086Y-73316153D01*
X166253000Y-72715222D01*
X166253000Y-72064778D01*
X166004086Y-71463847D01*
X165544153Y-71003914D01*
X164943222Y-70755000D01*
X164292778Y-70755000D01*
X163691847Y-71003914D01*
X163231914Y-71463847D01*
X162983000Y-72064778D01*
X162983000Y-72715222D01*
X163082320Y-72955001D01*
X162675803Y-72955001D01*
X161817000Y-72096199D01*
X161817000Y-71930126D01*
X161659431Y-71549720D01*
X161368280Y-71258569D01*
X160987874Y-71101000D01*
X160833071Y-71101000D01*
X158837242Y-69010879D01*
X158789929Y-68940070D01*
X158671508Y-68860943D01*
X158554974Y-68779128D01*
X158546101Y-68777149D01*
X158538537Y-68772095D01*
X158398826Y-68744305D01*
X158259877Y-68713317D01*
X158175996Y-68727999D01*
X154793159Y-68727999D01*
X154699431Y-68501720D01*
X154408280Y-68210569D01*
X154286000Y-68159919D01*
X154286000Y-66235711D01*
X154403431Y-66118280D01*
X154561000Y-65737874D01*
X154561000Y-65326126D01*
X154403431Y-64945720D01*
X154112280Y-64654569D01*
X153731874Y-64497000D01*
X153320126Y-64497000D01*
X152939720Y-64654569D01*
X152652000Y-64942289D01*
X152652000Y-60494670D01*
X167883000Y-60494670D01*
X167883000Y-61105330D01*
X168116690Y-61669507D01*
X168548493Y-62101310D01*
X169112670Y-62335000D01*
X169723330Y-62335000D01*
X170287507Y-62101310D01*
X170719310Y-61669507D01*
X170953000Y-61105330D01*
X170953000Y-60494670D01*
X170719310Y-59930493D01*
X170287507Y-59498690D01*
X169723330Y-59265000D01*
X169112670Y-59265000D01*
X168548493Y-59498690D01*
X168116690Y-59930493D01*
X167883000Y-60494670D01*
X152652000Y-60494670D01*
X152652000Y-50995711D01*
X152769431Y-50878280D01*
X152927000Y-50497874D01*
X152927000Y-50086126D01*
X152769431Y-49705720D01*
X152641837Y-49578126D01*
X156191000Y-49578126D01*
X156191000Y-49989874D01*
X156348569Y-50370280D01*
X156466000Y-50487711D01*
X156466001Y-53011148D01*
X156451112Y-53086000D01*
X156466001Y-53160852D01*
X156510097Y-53382537D01*
X156678072Y-53633929D01*
X156699000Y-53647913D01*
X156699000Y-53799874D01*
X156856569Y-54180280D01*
X157147720Y-54471431D01*
X157528126Y-54629000D01*
X157939874Y-54629000D01*
X158320280Y-54471431D01*
X158611431Y-54180280D01*
X158769000Y-53799874D01*
X158769000Y-53388126D01*
X158611431Y-53007720D01*
X158320280Y-52716569D01*
X157986000Y-52578106D01*
X157986000Y-52194670D01*
X167883000Y-52194670D01*
X167883000Y-52805330D01*
X168116690Y-53369507D01*
X168548493Y-53801310D01*
X169112670Y-54035000D01*
X169723330Y-54035000D01*
X170287507Y-53801310D01*
X170719310Y-53369507D01*
X170953000Y-52805330D01*
X170953000Y-52194670D01*
X170719310Y-51630493D01*
X170287507Y-51198690D01*
X169723330Y-50965000D01*
X169112670Y-50965000D01*
X168548493Y-51198690D01*
X168116690Y-51630493D01*
X167883000Y-52194670D01*
X157986000Y-52194670D01*
X157986000Y-50487711D01*
X157993552Y-50480159D01*
X168517446Y-50480159D01*
X168603852Y-50736643D01*
X169177336Y-50946458D01*
X169787460Y-50920839D01*
X170232148Y-50736643D01*
X170318554Y-50480159D01*
X169418000Y-49579605D01*
X168517446Y-50480159D01*
X157993552Y-50480159D01*
X158103431Y-50370280D01*
X158261000Y-49989874D01*
X158261000Y-49578126D01*
X158103431Y-49197720D01*
X157812280Y-48906569D01*
X157431874Y-48749000D01*
X157020126Y-48749000D01*
X156639720Y-48906569D01*
X156348569Y-49197720D01*
X156191000Y-49578126D01*
X152641837Y-49578126D01*
X152478280Y-49414569D01*
X152097874Y-49257000D01*
X151686126Y-49257000D01*
X151305720Y-49414569D01*
X151014569Y-49705720D01*
X150857000Y-50086126D01*
X150857000Y-50497874D01*
X151014569Y-50878280D01*
X151132001Y-50995712D01*
X151132000Y-61977763D01*
X151081874Y-61957000D01*
X150670126Y-61957000D01*
X150289720Y-62114569D01*
X150192647Y-62211642D01*
X149873264Y-62202279D01*
X149734917Y-62063932D01*
X149354511Y-61906363D01*
X148942763Y-61906363D01*
X148562357Y-62063932D01*
X148271206Y-62355083D01*
X148113637Y-62735489D01*
X148113637Y-63147237D01*
X148271206Y-63527643D01*
X148562357Y-63818794D01*
X148942763Y-63976363D01*
X149354511Y-63976363D01*
X149734917Y-63818794D01*
X149831990Y-63721721D01*
X150151373Y-63731084D01*
X150289720Y-63869431D01*
X150670126Y-64027000D01*
X151081874Y-64027000D01*
X151132000Y-64006237D01*
X151132000Y-65725198D01*
X141795528Y-75061671D01*
X141732072Y-75104071D01*
X141689672Y-75167527D01*
X141689671Y-75167528D01*
X141564097Y-75355463D01*
X141505112Y-75652000D01*
X141520001Y-75726852D01*
X141520000Y-78832735D01*
X141190629Y-79162106D01*
X140995000Y-79634398D01*
X139827000Y-79634398D01*
X139827000Y-74025000D01*
X140305222Y-74025000D01*
X140906153Y-73776086D01*
X141366086Y-73316153D01*
X141615000Y-72715222D01*
X141615000Y-72064778D01*
X141366086Y-71463847D01*
X140906153Y-71003914D01*
X140305222Y-70755000D01*
X139827000Y-70755000D01*
X139827000Y-60494670D01*
X143245000Y-60494670D01*
X143245000Y-61105330D01*
X143478690Y-61669507D01*
X143910493Y-62101310D01*
X144474670Y-62335000D01*
X145085330Y-62335000D01*
X145649507Y-62101310D01*
X146081310Y-61669507D01*
X146315000Y-61105330D01*
X146315000Y-60494670D01*
X146081310Y-59930493D01*
X145649507Y-59498690D01*
X145085330Y-59265000D01*
X144474670Y-59265000D01*
X143910493Y-59498690D01*
X143478690Y-59930493D01*
X143245000Y-60494670D01*
X139827000Y-60494670D01*
X139827000Y-52194670D01*
X143245000Y-52194670D01*
X143245000Y-52805330D01*
X143478690Y-53369507D01*
X143910493Y-53801310D01*
X144474670Y-54035000D01*
X145085330Y-54035000D01*
X145649507Y-53801310D01*
X146081310Y-53369507D01*
X146315000Y-52805330D01*
X146315000Y-52194670D01*
X146081310Y-51630493D01*
X145649507Y-51198690D01*
X145085330Y-50965000D01*
X144474670Y-50965000D01*
X143910493Y-51198690D01*
X143478690Y-51630493D01*
X143245000Y-52194670D01*
X139827000Y-52194670D01*
X139827000Y-50480159D01*
X143879446Y-50480159D01*
X143965852Y-50736643D01*
X144539336Y-50946458D01*
X145149460Y-50920839D01*
X145594148Y-50736643D01*
X145680554Y-50480159D01*
X144780000Y-49579605D01*
X143879446Y-50480159D01*
X139827000Y-50480159D01*
X139827000Y-48387000D01*
X143587392Y-48387000D01*
X143699839Y-48499447D01*
G04 #@! TD*
M02*
