G04 #@! TF.GenerationSoftware,KiCad,Pcbnew,5.0.2+dfsg1-1~bpo9+1*
G04 #@! TF.CreationDate,2019-04-11T13:04:55-07:00*
G04 #@! TF.ProjectId,Drum,4472756d-2e6b-4696-9361-645f70636258,rev?*
G04 #@! TF.SameCoordinates,Original*
G04 #@! TF.FileFunction,Legend,Bot*
G04 #@! TF.FilePolarity,Positive*
%FSLAX46Y46*%
G04 Gerber Fmt 4.6, Leading zero omitted, Abs format (unit mm)*
G04 Created by KiCad (PCBNEW 5.0.2+dfsg1-1~bpo9+1) date Thu 11 Apr 2019 01:04:55 PM PDT*
%MOMM*%
%LPD*%
G01*
G04 APERTURE LIST*
%ADD10C,1.000000*%
%ADD11C,0.120000*%
%ADD12C,0.150000*%
G04 APERTURE END LIST*
D10*
X162560000Y-132842000D02*
X162560000Y-129794000D01*
D11*
G04 #@! TO.C,C7*
X148030000Y-48763422D02*
X148030000Y-49280578D01*
X146610000Y-48763422D02*
X146610000Y-49280578D01*
G04 #@! TO.C,D1*
X143638000Y-134268000D02*
X143638000Y-139668000D01*
X146938000Y-134268000D02*
X146938000Y-139668000D01*
X143638000Y-134268000D02*
X146938000Y-134268000D01*
D12*
G04 #@! TO.C,U4*
X154897000Y-108189000D02*
X153497000Y-108189000D01*
X154897000Y-103089000D02*
X159047000Y-103089000D01*
X154897000Y-108239000D02*
X159047000Y-108239000D01*
X154897000Y-103089000D02*
X154897000Y-103234000D01*
X159047000Y-103089000D02*
X159047000Y-103234000D01*
X159047000Y-108239000D02*
X159047000Y-108094000D01*
X154897000Y-108239000D02*
X154897000Y-108189000D01*
D11*
G04 #@! TO.C,R1*
X147296715Y-56808354D02*
X146779559Y-56808354D01*
X147296715Y-55388354D02*
X146779559Y-55388354D01*
G04 #@! TO.C,Q1*
X150728637Y-60160354D02*
X150728637Y-58700354D01*
X147568637Y-60160354D02*
X147568637Y-58000354D01*
X147568637Y-60160354D02*
X148498637Y-60160354D01*
X150728637Y-60160354D02*
X149798637Y-60160354D01*
G04 #@! TO.C,R3*
X150931215Y-56808354D02*
X150414059Y-56808354D01*
X150931215Y-55388354D02*
X150414059Y-55388354D01*
G04 #@! TO.C,C16*
X164342578Y-118820000D02*
X163825422Y-118820000D01*
X164342578Y-117400000D02*
X163825422Y-117400000D01*
G04 #@! TO.C,C15*
X163016000Y-107945422D02*
X163016000Y-108462578D01*
X161596000Y-107945422D02*
X161596000Y-108462578D01*
G04 #@! TO.C,C14*
X153078922Y-74220000D02*
X153596078Y-74220000D01*
X153078922Y-75640000D02*
X153596078Y-75640000D01*
D12*
G04 #@! TO.C,U5*
X155405000Y-81265000D02*
X154005000Y-81265000D01*
X155405000Y-76165000D02*
X159555000Y-76165000D01*
X155405000Y-81315000D02*
X159555000Y-81315000D01*
X155405000Y-76165000D02*
X155405000Y-76310000D01*
X159555000Y-76165000D02*
X159555000Y-76310000D01*
X159555000Y-81315000D02*
X159555000Y-81170000D01*
X155405000Y-81315000D02*
X155405000Y-81265000D01*
D11*
G04 #@! TO.C,C13*
X146910500Y-132235500D02*
X146535500Y-132235500D01*
X146723000Y-132423000D02*
X146723000Y-132048000D01*
X144228000Y-131618563D02*
X143528000Y-130918563D01*
X146348000Y-131618563D02*
X147048000Y-130918563D01*
X143528000Y-130918563D02*
X143528000Y-128288000D01*
X147048000Y-130918563D02*
X147048000Y-128288000D01*
X147048000Y-128288000D02*
X146348000Y-128288000D01*
X143528000Y-128288000D02*
X144228000Y-128288000D01*
G04 #@! TO.C,C12*
X169065500Y-126336500D02*
X169440500Y-126336500D01*
X169253000Y-126149000D02*
X169253000Y-126524000D01*
X171748000Y-126953437D02*
X172448000Y-127653437D01*
X169628000Y-126953437D02*
X168928000Y-127653437D01*
X172448000Y-127653437D02*
X172448000Y-130284000D01*
X168928000Y-127653437D02*
X168928000Y-130284000D01*
X168928000Y-130284000D02*
X169628000Y-130284000D01*
X172448000Y-130284000D02*
X171748000Y-130284000D01*
G04 #@! TO.C,D2*
X172338000Y-140560000D02*
X172338000Y-135160000D01*
X169038000Y-140560000D02*
X169038000Y-135160000D01*
X172338000Y-140560000D02*
X169038000Y-140560000D01*
G04 #@! TO.C,J3*
X168414000Y-142847000D02*
X168414000Y-140307000D01*
X168414000Y-142847000D02*
X165874000Y-142847000D01*
X168164000Y-142597000D02*
X168164000Y-133247000D01*
X147304000Y-142597000D02*
X168164000Y-142597000D01*
X147304000Y-133247000D02*
X147304000Y-142597000D01*
X168164000Y-133247000D02*
X147304000Y-133247000D01*
G04 #@! TO.C,C1*
X153996000Y-127050578D02*
X153996000Y-126533422D01*
X155416000Y-127050578D02*
X155416000Y-126533422D01*
G04 #@! TO.C,C2*
X151896578Y-68782000D02*
X151379422Y-68782000D01*
X151896578Y-67362000D02*
X151379422Y-67362000D01*
G04 #@! TO.C,C3*
X161447422Y-126082000D02*
X161964578Y-126082000D01*
X161447422Y-127502000D02*
X161964578Y-127502000D01*
G04 #@! TO.C,C4*
X155198578Y-49986000D02*
X154681422Y-49986000D01*
X155198578Y-48566000D02*
X154681422Y-48566000D01*
G04 #@! TO.C,C5*
X160269422Y-55678000D02*
X160786578Y-55678000D01*
X160269422Y-57098000D02*
X160786578Y-57098000D01*
G04 #@! TO.C,C6*
X150363422Y-52630000D02*
X150880578Y-52630000D01*
X150363422Y-54050000D02*
X150880578Y-54050000D01*
G04 #@! TO.C,C8*
X159008578Y-109930000D02*
X158491422Y-109930000D01*
X159008578Y-108510000D02*
X158491422Y-108510000D01*
G04 #@! TO.C,C9*
X153157422Y-100890000D02*
X153674578Y-100890000D01*
X153157422Y-102310000D02*
X153674578Y-102310000D01*
G04 #@! TO.C,C10*
X166168000Y-61980578D02*
X166168000Y-61463422D01*
X167588000Y-61980578D02*
X167588000Y-61463422D01*
G04 #@! TO.C,C11*
X164032000Y-82291422D02*
X164032000Y-82808578D01*
X162612000Y-82291422D02*
X162612000Y-82808578D01*
D12*
G04 #@! TO.C,U1*
X155913000Y-70719000D02*
X154538000Y-70719000D01*
X155913000Y-61844000D02*
X160063000Y-61844000D01*
X155913000Y-70744000D02*
X160063000Y-70744000D01*
X155913000Y-61844000D02*
X155913000Y-61959000D01*
X160063000Y-61844000D02*
X160063000Y-61959000D01*
X160063000Y-70744000D02*
X160063000Y-70629000D01*
X155913000Y-70744000D02*
X155913000Y-70719000D01*
G04 #@! TO.C,U3*
X160825000Y-50307000D02*
X162225000Y-50307000D01*
X160825000Y-55407000D02*
X156675000Y-55407000D01*
X160825000Y-50257000D02*
X156675000Y-50257000D01*
X160825000Y-55407000D02*
X160825000Y-55262000D01*
X156675000Y-55407000D02*
X156675000Y-55262000D01*
X156675000Y-50257000D02*
X156675000Y-50402000D01*
X160825000Y-50257000D02*
X160825000Y-50307000D01*
D11*
G04 #@! TO.C,U2*
X158606000Y-127402000D02*
X156156000Y-127402000D01*
X156806000Y-124182000D02*
X158606000Y-124182000D01*
G04 #@! TO.C,R5*
X152452000Y-59186578D02*
X152452000Y-58669422D01*
X153872000Y-59186578D02*
X153872000Y-58669422D01*
G04 #@! TO.C,R4*
X152452000Y-62742578D02*
X152452000Y-62225422D01*
X153872000Y-62742578D02*
X153872000Y-62225422D01*
G04 #@! TO.C,R2*
X148284000Y-61971422D02*
X148284000Y-62488578D01*
X146864000Y-61971422D02*
X146864000Y-62488578D01*
G04 #@! TO.C,R6*
X149864578Y-52272000D02*
X149347422Y-52272000D01*
X149864578Y-50852000D02*
X149347422Y-50852000D01*
G04 #@! TO.C,R7*
X142743422Y-54662000D02*
X143260578Y-54662000D01*
X142743422Y-56082000D02*
X143260578Y-56082000D01*
G04 #@! TO.C,R8*
X158999422Y-48058000D02*
X159516578Y-48058000D01*
X158999422Y-49478000D02*
X159516578Y-49478000D01*
G04 #@! TO.C,R9*
X165048000Y-53081422D02*
X165048000Y-53598578D01*
X163628000Y-53081422D02*
X163628000Y-53598578D01*
G04 #@! TO.C,R12*
X167588000Y-116835422D02*
X167588000Y-117352578D01*
X166168000Y-116835422D02*
X166168000Y-117352578D01*
G04 #@! TO.C,R10*
X166168000Y-65615078D02*
X166168000Y-65097922D01*
X167588000Y-65615078D02*
X167588000Y-65097922D01*
G04 #@! TO.C,R11*
X151203922Y-113590000D02*
X151721078Y-113590000D01*
X151203922Y-115010000D02*
X151721078Y-115010000D01*
G04 #@! TO.C,C7*
D12*
X149264666Y-47601142D02*
X149312285Y-47648761D01*
X149455142Y-47696380D01*
X149550380Y-47696380D01*
X149693238Y-47648761D01*
X149788476Y-47553523D01*
X149836095Y-47458285D01*
X149883714Y-47267809D01*
X149883714Y-47124952D01*
X149836095Y-46934476D01*
X149788476Y-46839238D01*
X149693238Y-46744000D01*
X149550380Y-46696380D01*
X149455142Y-46696380D01*
X149312285Y-46744000D01*
X149264666Y-46791619D01*
X148931333Y-46696380D02*
X148264666Y-46696380D01*
X148693238Y-47696380D01*
G04 #@! TO.C,D1*
X142692380Y-136421904D02*
X141692380Y-136421904D01*
X141692380Y-136660000D01*
X141740000Y-136802857D01*
X141835238Y-136898095D01*
X141930476Y-136945714D01*
X142120952Y-136993333D01*
X142263809Y-136993333D01*
X142454285Y-136945714D01*
X142549523Y-136898095D01*
X142644761Y-136802857D01*
X142692380Y-136660000D01*
X142692380Y-136421904D01*
X142692380Y-137945714D02*
X142692380Y-137374285D01*
X142692380Y-137660000D02*
X141692380Y-137660000D01*
X141835238Y-137564761D01*
X141930476Y-137469523D01*
X141978095Y-137374285D01*
G04 #@! TO.C,U4*
X157249904Y-106316380D02*
X157249904Y-107125904D01*
X157202285Y-107221142D01*
X157154666Y-107268761D01*
X157059428Y-107316380D01*
X156868952Y-107316380D01*
X156773714Y-107268761D01*
X156726095Y-107221142D01*
X156678476Y-107125904D01*
X156678476Y-106316380D01*
X155773714Y-106649714D02*
X155773714Y-107316380D01*
X156011809Y-106268761D02*
X156249904Y-106983047D01*
X155630857Y-106983047D01*
G04 #@! TO.C,R1*
X147204803Y-54900734D02*
X147538137Y-54424544D01*
X147776232Y-54900734D02*
X147776232Y-53900734D01*
X147395279Y-53900734D01*
X147300041Y-53948354D01*
X147252422Y-53995973D01*
X147204803Y-54091211D01*
X147204803Y-54234068D01*
X147252422Y-54329306D01*
X147300041Y-54376925D01*
X147395279Y-54424544D01*
X147776232Y-54424544D01*
X146252422Y-54900734D02*
X146823851Y-54900734D01*
X146538137Y-54900734D02*
X146538137Y-53900734D01*
X146633375Y-54043592D01*
X146728613Y-54138830D01*
X146823851Y-54186449D01*
G04 #@! TO.C,Q1*
X147196256Y-59305115D02*
X147148637Y-59209877D01*
X147053398Y-59114639D01*
X146910541Y-58971782D01*
X146862922Y-58876544D01*
X146862922Y-58781306D01*
X147101017Y-58828925D02*
X147053398Y-58733687D01*
X146958160Y-58638449D01*
X146767684Y-58590830D01*
X146434351Y-58590830D01*
X146243875Y-58638449D01*
X146148637Y-58733687D01*
X146101017Y-58828925D01*
X146101017Y-59019401D01*
X146148637Y-59114639D01*
X146243875Y-59209877D01*
X146434351Y-59257496D01*
X146767684Y-59257496D01*
X146958160Y-59209877D01*
X147053398Y-59114639D01*
X147101017Y-59019401D01*
X147101017Y-58828925D01*
X147101017Y-60209877D02*
X147101017Y-59638449D01*
X147101017Y-59924163D02*
X146101017Y-59924163D01*
X146243875Y-59828925D01*
X146339113Y-59733687D01*
X146386732Y-59638449D01*
G04 #@! TO.C,R3*
X153582666Y-56586380D02*
X153916000Y-56110190D01*
X154154095Y-56586380D02*
X154154095Y-55586380D01*
X153773142Y-55586380D01*
X153677904Y-55634000D01*
X153630285Y-55681619D01*
X153582666Y-55776857D01*
X153582666Y-55919714D01*
X153630285Y-56014952D01*
X153677904Y-56062571D01*
X153773142Y-56110190D01*
X154154095Y-56110190D01*
X153249333Y-55586380D02*
X152630285Y-55586380D01*
X152963619Y-55967333D01*
X152820761Y-55967333D01*
X152725523Y-56014952D01*
X152677904Y-56062571D01*
X152630285Y-56157809D01*
X152630285Y-56395904D01*
X152677904Y-56491142D01*
X152725523Y-56538761D01*
X152820761Y-56586380D01*
X153106476Y-56586380D01*
X153201714Y-56538761D01*
X153249333Y-56491142D01*
G04 #@! TO.C,C16*
X164726857Y-116817142D02*
X164774476Y-116864761D01*
X164917333Y-116912380D01*
X165012571Y-116912380D01*
X165155428Y-116864761D01*
X165250666Y-116769523D01*
X165298285Y-116674285D01*
X165345904Y-116483809D01*
X165345904Y-116340952D01*
X165298285Y-116150476D01*
X165250666Y-116055238D01*
X165155428Y-115960000D01*
X165012571Y-115912380D01*
X164917333Y-115912380D01*
X164774476Y-115960000D01*
X164726857Y-116007619D01*
X163774476Y-116912380D02*
X164345904Y-116912380D01*
X164060190Y-116912380D02*
X164060190Y-115912380D01*
X164155428Y-116055238D01*
X164250666Y-116150476D01*
X164345904Y-116198095D01*
X162917333Y-115912380D02*
X163107809Y-115912380D01*
X163203047Y-115960000D01*
X163250666Y-116007619D01*
X163345904Y-116150476D01*
X163393523Y-116340952D01*
X163393523Y-116721904D01*
X163345904Y-116817142D01*
X163298285Y-116864761D01*
X163203047Y-116912380D01*
X163012571Y-116912380D01*
X162917333Y-116864761D01*
X162869714Y-116817142D01*
X162822095Y-116721904D01*
X162822095Y-116483809D01*
X162869714Y-116388571D01*
X162917333Y-116340952D01*
X163012571Y-116293333D01*
X163203047Y-116293333D01*
X163298285Y-116340952D01*
X163345904Y-116388571D01*
X163393523Y-116483809D01*
G04 #@! TO.C,C15*
X162663142Y-104259142D02*
X162710761Y-104211523D01*
X162758380Y-104068666D01*
X162758380Y-103973428D01*
X162710761Y-103830571D01*
X162615523Y-103735333D01*
X162520285Y-103687714D01*
X162329809Y-103640095D01*
X162186952Y-103640095D01*
X161996476Y-103687714D01*
X161901238Y-103735333D01*
X161806000Y-103830571D01*
X161758380Y-103973428D01*
X161758380Y-104068666D01*
X161806000Y-104211523D01*
X161853619Y-104259142D01*
X162758380Y-105211523D02*
X162758380Y-104640095D01*
X162758380Y-104925809D02*
X161758380Y-104925809D01*
X161901238Y-104830571D01*
X161996476Y-104735333D01*
X162044095Y-104640095D01*
X161758380Y-106116285D02*
X161758380Y-105640095D01*
X162234571Y-105592476D01*
X162186952Y-105640095D01*
X162139333Y-105735333D01*
X162139333Y-105973428D01*
X162186952Y-106068666D01*
X162234571Y-106116285D01*
X162329809Y-106163904D01*
X162567904Y-106163904D01*
X162663142Y-106116285D01*
X162710761Y-106068666D01*
X162758380Y-105973428D01*
X162758380Y-105735333D01*
X162710761Y-105640095D01*
X162663142Y-105592476D01*
G04 #@! TO.C,C14*
X154058857Y-73509142D02*
X154106476Y-73556761D01*
X154249333Y-73604380D01*
X154344571Y-73604380D01*
X154487428Y-73556761D01*
X154582666Y-73461523D01*
X154630285Y-73366285D01*
X154677904Y-73175809D01*
X154677904Y-73032952D01*
X154630285Y-72842476D01*
X154582666Y-72747238D01*
X154487428Y-72652000D01*
X154344571Y-72604380D01*
X154249333Y-72604380D01*
X154106476Y-72652000D01*
X154058857Y-72699619D01*
X153106476Y-73604380D02*
X153677904Y-73604380D01*
X153392190Y-73604380D02*
X153392190Y-72604380D01*
X153487428Y-72747238D01*
X153582666Y-72842476D01*
X153677904Y-72890095D01*
X152249333Y-72937714D02*
X152249333Y-73604380D01*
X152487428Y-72556761D02*
X152725523Y-73271047D01*
X152106476Y-73271047D01*
G04 #@! TO.C,U5*
X158241904Y-81692380D02*
X158241904Y-82501904D01*
X158194285Y-82597142D01*
X158146666Y-82644761D01*
X158051428Y-82692380D01*
X157860952Y-82692380D01*
X157765714Y-82644761D01*
X157718095Y-82597142D01*
X157670476Y-82501904D01*
X157670476Y-81692380D01*
X156718095Y-81692380D02*
X157194285Y-81692380D01*
X157241904Y-82168571D01*
X157194285Y-82120952D01*
X157099047Y-82073333D01*
X156860952Y-82073333D01*
X156765714Y-82120952D01*
X156718095Y-82168571D01*
X156670476Y-82263809D01*
X156670476Y-82501904D01*
X156718095Y-82597142D01*
X156765714Y-82644761D01*
X156860952Y-82692380D01*
X157099047Y-82692380D01*
X157194285Y-82644761D01*
X157241904Y-82597142D01*
G04 #@! TO.C,C13*
X148345142Y-129405142D02*
X148392761Y-129357523D01*
X148440380Y-129214666D01*
X148440380Y-129119428D01*
X148392761Y-128976571D01*
X148297523Y-128881333D01*
X148202285Y-128833714D01*
X148011809Y-128786095D01*
X147868952Y-128786095D01*
X147678476Y-128833714D01*
X147583238Y-128881333D01*
X147488000Y-128976571D01*
X147440380Y-129119428D01*
X147440380Y-129214666D01*
X147488000Y-129357523D01*
X147535619Y-129405142D01*
X148440380Y-130357523D02*
X148440380Y-129786095D01*
X148440380Y-130071809D02*
X147440380Y-130071809D01*
X147583238Y-129976571D01*
X147678476Y-129881333D01*
X147726095Y-129786095D01*
X147440380Y-130690857D02*
X147440380Y-131309904D01*
X147821333Y-130976571D01*
X147821333Y-131119428D01*
X147868952Y-131214666D01*
X147916571Y-131262285D01*
X148011809Y-131309904D01*
X148249904Y-131309904D01*
X148345142Y-131262285D01*
X148392761Y-131214666D01*
X148440380Y-131119428D01*
X148440380Y-130833714D01*
X148392761Y-130738476D01*
X148345142Y-130690857D01*
G04 #@! TO.C,C12*
X168345142Y-127881142D02*
X168392761Y-127833523D01*
X168440380Y-127690666D01*
X168440380Y-127595428D01*
X168392761Y-127452571D01*
X168297523Y-127357333D01*
X168202285Y-127309714D01*
X168011809Y-127262095D01*
X167868952Y-127262095D01*
X167678476Y-127309714D01*
X167583238Y-127357333D01*
X167488000Y-127452571D01*
X167440380Y-127595428D01*
X167440380Y-127690666D01*
X167488000Y-127833523D01*
X167535619Y-127881142D01*
X168440380Y-128833523D02*
X168440380Y-128262095D01*
X168440380Y-128547809D02*
X167440380Y-128547809D01*
X167583238Y-128452571D01*
X167678476Y-128357333D01*
X167726095Y-128262095D01*
X167535619Y-129214476D02*
X167488000Y-129262095D01*
X167440380Y-129357333D01*
X167440380Y-129595428D01*
X167488000Y-129690666D01*
X167535619Y-129738285D01*
X167630857Y-129785904D01*
X167726095Y-129785904D01*
X167868952Y-129738285D01*
X168440380Y-129166857D01*
X168440380Y-129785904D01*
G04 #@! TO.C,D2*
X173640380Y-136421904D02*
X172640380Y-136421904D01*
X172640380Y-136660000D01*
X172688000Y-136802857D01*
X172783238Y-136898095D01*
X172878476Y-136945714D01*
X173068952Y-136993333D01*
X173211809Y-136993333D01*
X173402285Y-136945714D01*
X173497523Y-136898095D01*
X173592761Y-136802857D01*
X173640380Y-136660000D01*
X173640380Y-136421904D01*
X172735619Y-137374285D02*
X172688000Y-137421904D01*
X172640380Y-137517142D01*
X172640380Y-137755238D01*
X172688000Y-137850476D01*
X172735619Y-137898095D01*
X172830857Y-137945714D01*
X172926095Y-137945714D01*
X173068952Y-137898095D01*
X173640380Y-137326666D01*
X173640380Y-137945714D01*
G04 #@! TO.C,J3*
X166838380Y-132000666D02*
X167552666Y-132000666D01*
X167695523Y-131953047D01*
X167790761Y-131857809D01*
X167838380Y-131714952D01*
X167838380Y-131619714D01*
X166838380Y-132381619D02*
X166838380Y-133000666D01*
X167219333Y-132667333D01*
X167219333Y-132810190D01*
X167266952Y-132905428D01*
X167314571Y-132953047D01*
X167409809Y-133000666D01*
X167647904Y-133000666D01*
X167743142Y-132953047D01*
X167790761Y-132905428D01*
X167838380Y-132810190D01*
X167838380Y-132524476D01*
X167790761Y-132429238D01*
X167743142Y-132381619D01*
G04 #@! TO.C,C1*
X153063142Y-126625333D02*
X153110761Y-126577714D01*
X153158380Y-126434857D01*
X153158380Y-126339619D01*
X153110761Y-126196761D01*
X153015523Y-126101523D01*
X152920285Y-126053904D01*
X152729809Y-126006285D01*
X152586952Y-126006285D01*
X152396476Y-126053904D01*
X152301238Y-126101523D01*
X152206000Y-126196761D01*
X152158380Y-126339619D01*
X152158380Y-126434857D01*
X152206000Y-126577714D01*
X152253619Y-126625333D01*
X153158380Y-127577714D02*
X153158380Y-127006285D01*
X153158380Y-127292000D02*
X152158380Y-127292000D01*
X152301238Y-127196761D01*
X152396476Y-127101523D01*
X152444095Y-127006285D01*
G04 #@! TO.C,C2*
X151804666Y-66779142D02*
X151852285Y-66826761D01*
X151995142Y-66874380D01*
X152090380Y-66874380D01*
X152233238Y-66826761D01*
X152328476Y-66731523D01*
X152376095Y-66636285D01*
X152423714Y-66445809D01*
X152423714Y-66302952D01*
X152376095Y-66112476D01*
X152328476Y-66017238D01*
X152233238Y-65922000D01*
X152090380Y-65874380D01*
X151995142Y-65874380D01*
X151852285Y-65922000D01*
X151804666Y-65969619D01*
X151423714Y-65969619D02*
X151376095Y-65922000D01*
X151280857Y-65874380D01*
X151042761Y-65874380D01*
X150947523Y-65922000D01*
X150899904Y-65969619D01*
X150852285Y-66064857D01*
X150852285Y-66160095D01*
X150899904Y-66302952D01*
X151471333Y-66874380D01*
X150852285Y-66874380D01*
G04 #@! TO.C,C3*
X161872666Y-128799142D02*
X161920285Y-128846761D01*
X162063142Y-128894380D01*
X162158380Y-128894380D01*
X162301238Y-128846761D01*
X162396476Y-128751523D01*
X162444095Y-128656285D01*
X162491714Y-128465809D01*
X162491714Y-128322952D01*
X162444095Y-128132476D01*
X162396476Y-128037238D01*
X162301238Y-127942000D01*
X162158380Y-127894380D01*
X162063142Y-127894380D01*
X161920285Y-127942000D01*
X161872666Y-127989619D01*
X161539333Y-127894380D02*
X160920285Y-127894380D01*
X161253619Y-128275333D01*
X161110761Y-128275333D01*
X161015523Y-128322952D01*
X160967904Y-128370571D01*
X160920285Y-128465809D01*
X160920285Y-128703904D01*
X160967904Y-128799142D01*
X161015523Y-128846761D01*
X161110761Y-128894380D01*
X161396476Y-128894380D01*
X161491714Y-128846761D01*
X161539333Y-128799142D01*
G04 #@! TO.C,C4*
X152312666Y-49633142D02*
X152360285Y-49680761D01*
X152503142Y-49728380D01*
X152598380Y-49728380D01*
X152741238Y-49680761D01*
X152836476Y-49585523D01*
X152884095Y-49490285D01*
X152931714Y-49299809D01*
X152931714Y-49156952D01*
X152884095Y-48966476D01*
X152836476Y-48871238D01*
X152741238Y-48776000D01*
X152598380Y-48728380D01*
X152503142Y-48728380D01*
X152360285Y-48776000D01*
X152312666Y-48823619D01*
X151455523Y-49061714D02*
X151455523Y-49728380D01*
X151693619Y-48680761D02*
X151931714Y-49395047D01*
X151312666Y-49395047D01*
G04 #@! TO.C,C5*
X160694666Y-58395142D02*
X160742285Y-58442761D01*
X160885142Y-58490380D01*
X160980380Y-58490380D01*
X161123238Y-58442761D01*
X161218476Y-58347523D01*
X161266095Y-58252285D01*
X161313714Y-58061809D01*
X161313714Y-57918952D01*
X161266095Y-57728476D01*
X161218476Y-57633238D01*
X161123238Y-57538000D01*
X160980380Y-57490380D01*
X160885142Y-57490380D01*
X160742285Y-57538000D01*
X160694666Y-57585619D01*
X159789904Y-57490380D02*
X160266095Y-57490380D01*
X160313714Y-57966571D01*
X160266095Y-57918952D01*
X160170857Y-57871333D01*
X159932761Y-57871333D01*
X159837523Y-57918952D01*
X159789904Y-57966571D01*
X159742285Y-58061809D01*
X159742285Y-58299904D01*
X159789904Y-58395142D01*
X159837523Y-58442761D01*
X159932761Y-58490380D01*
X160170857Y-58490380D01*
X160266095Y-58442761D01*
X160313714Y-58395142D01*
G04 #@! TO.C,C6*
X153476666Y-53805142D02*
X153524285Y-53852761D01*
X153667142Y-53900380D01*
X153762380Y-53900380D01*
X153905238Y-53852761D01*
X154000476Y-53757523D01*
X154048095Y-53662285D01*
X154095714Y-53471809D01*
X154095714Y-53328952D01*
X154048095Y-53138476D01*
X154000476Y-53043238D01*
X153905238Y-52948000D01*
X153762380Y-52900380D01*
X153667142Y-52900380D01*
X153524285Y-52948000D01*
X153476666Y-52995619D01*
X152619523Y-52900380D02*
X152810000Y-52900380D01*
X152905238Y-52948000D01*
X152952857Y-52995619D01*
X153048095Y-53138476D01*
X153095714Y-53328952D01*
X153095714Y-53709904D01*
X153048095Y-53805142D01*
X153000476Y-53852761D01*
X152905238Y-53900380D01*
X152714761Y-53900380D01*
X152619523Y-53852761D01*
X152571904Y-53805142D01*
X152524285Y-53709904D01*
X152524285Y-53471809D01*
X152571904Y-53376571D01*
X152619523Y-53328952D01*
X152714761Y-53281333D01*
X152905238Y-53281333D01*
X153000476Y-53328952D01*
X153048095Y-53376571D01*
X153095714Y-53471809D01*
G04 #@! TO.C,C8*
X158916666Y-111101142D02*
X158964285Y-111148761D01*
X159107142Y-111196380D01*
X159202380Y-111196380D01*
X159345238Y-111148761D01*
X159440476Y-111053523D01*
X159488095Y-110958285D01*
X159535714Y-110767809D01*
X159535714Y-110624952D01*
X159488095Y-110434476D01*
X159440476Y-110339238D01*
X159345238Y-110244000D01*
X159202380Y-110196380D01*
X159107142Y-110196380D01*
X158964285Y-110244000D01*
X158916666Y-110291619D01*
X158345238Y-110624952D02*
X158440476Y-110577333D01*
X158488095Y-110529714D01*
X158535714Y-110434476D01*
X158535714Y-110386857D01*
X158488095Y-110291619D01*
X158440476Y-110244000D01*
X158345238Y-110196380D01*
X158154761Y-110196380D01*
X158059523Y-110244000D01*
X158011904Y-110291619D01*
X157964285Y-110386857D01*
X157964285Y-110434476D01*
X158011904Y-110529714D01*
X158059523Y-110577333D01*
X158154761Y-110624952D01*
X158345238Y-110624952D01*
X158440476Y-110672571D01*
X158488095Y-110720190D01*
X158535714Y-110815428D01*
X158535714Y-111005904D01*
X158488095Y-111101142D01*
X158440476Y-111148761D01*
X158345238Y-111196380D01*
X158154761Y-111196380D01*
X158059523Y-111148761D01*
X158011904Y-111101142D01*
X157964285Y-111005904D01*
X157964285Y-110815428D01*
X158011904Y-110720190D01*
X158059523Y-110672571D01*
X158154761Y-110624952D01*
G04 #@! TO.C,C9*
X156376666Y-102211142D02*
X156424285Y-102258761D01*
X156567142Y-102306380D01*
X156662380Y-102306380D01*
X156805238Y-102258761D01*
X156900476Y-102163523D01*
X156948095Y-102068285D01*
X156995714Y-101877809D01*
X156995714Y-101734952D01*
X156948095Y-101544476D01*
X156900476Y-101449238D01*
X156805238Y-101354000D01*
X156662380Y-101306380D01*
X156567142Y-101306380D01*
X156424285Y-101354000D01*
X156376666Y-101401619D01*
X155900476Y-102306380D02*
X155710000Y-102306380D01*
X155614761Y-102258761D01*
X155567142Y-102211142D01*
X155471904Y-102068285D01*
X155424285Y-101877809D01*
X155424285Y-101496857D01*
X155471904Y-101401619D01*
X155519523Y-101354000D01*
X155614761Y-101306380D01*
X155805238Y-101306380D01*
X155900476Y-101354000D01*
X155948095Y-101401619D01*
X155995714Y-101496857D01*
X155995714Y-101734952D01*
X155948095Y-101830190D01*
X155900476Y-101877809D01*
X155805238Y-101925428D01*
X155614761Y-101925428D01*
X155519523Y-101877809D01*
X155471904Y-101830190D01*
X155424285Y-101734952D01*
G04 #@! TO.C,C10*
X167235142Y-57777142D02*
X167282761Y-57729523D01*
X167330380Y-57586666D01*
X167330380Y-57491428D01*
X167282761Y-57348571D01*
X167187523Y-57253333D01*
X167092285Y-57205714D01*
X166901809Y-57158095D01*
X166758952Y-57158095D01*
X166568476Y-57205714D01*
X166473238Y-57253333D01*
X166378000Y-57348571D01*
X166330380Y-57491428D01*
X166330380Y-57586666D01*
X166378000Y-57729523D01*
X166425619Y-57777142D01*
X167330380Y-58729523D02*
X167330380Y-58158095D01*
X167330380Y-58443809D02*
X166330380Y-58443809D01*
X166473238Y-58348571D01*
X166568476Y-58253333D01*
X166616095Y-58158095D01*
X166330380Y-59348571D02*
X166330380Y-59443809D01*
X166378000Y-59539047D01*
X166425619Y-59586666D01*
X166520857Y-59634285D01*
X166711333Y-59681904D01*
X166949428Y-59681904D01*
X167139904Y-59634285D01*
X167235142Y-59586666D01*
X167282761Y-59539047D01*
X167330380Y-59443809D01*
X167330380Y-59348571D01*
X167282761Y-59253333D01*
X167235142Y-59205714D01*
X167139904Y-59158095D01*
X166949428Y-59110476D01*
X166711333Y-59110476D01*
X166520857Y-59158095D01*
X166425619Y-59205714D01*
X166378000Y-59253333D01*
X166330380Y-59348571D01*
G04 #@! TO.C,C11*
X162029142Y-81907142D02*
X162076761Y-81859523D01*
X162124380Y-81716666D01*
X162124380Y-81621428D01*
X162076761Y-81478571D01*
X161981523Y-81383333D01*
X161886285Y-81335714D01*
X161695809Y-81288095D01*
X161552952Y-81288095D01*
X161362476Y-81335714D01*
X161267238Y-81383333D01*
X161172000Y-81478571D01*
X161124380Y-81621428D01*
X161124380Y-81716666D01*
X161172000Y-81859523D01*
X161219619Y-81907142D01*
X162124380Y-82859523D02*
X162124380Y-82288095D01*
X162124380Y-82573809D02*
X161124380Y-82573809D01*
X161267238Y-82478571D01*
X161362476Y-82383333D01*
X161410095Y-82288095D01*
X162124380Y-83811904D02*
X162124380Y-83240476D01*
X162124380Y-83526190D02*
X161124380Y-83526190D01*
X161267238Y-83430952D01*
X161362476Y-83335714D01*
X161410095Y-83240476D01*
G04 #@! TO.C,U1*
X158749904Y-71121380D02*
X158749904Y-71930904D01*
X158702285Y-72026142D01*
X158654666Y-72073761D01*
X158559428Y-72121380D01*
X158368952Y-72121380D01*
X158273714Y-72073761D01*
X158226095Y-72026142D01*
X158178476Y-71930904D01*
X158178476Y-71121380D01*
X157178476Y-72121380D02*
X157749904Y-72121380D01*
X157464190Y-72121380D02*
X157464190Y-71121380D01*
X157559428Y-71264238D01*
X157654666Y-71359476D01*
X157749904Y-71407095D01*
G04 #@! TO.C,U3*
X159511904Y-51454380D02*
X159511904Y-52263904D01*
X159464285Y-52359142D01*
X159416666Y-52406761D01*
X159321428Y-52454380D01*
X159130952Y-52454380D01*
X159035714Y-52406761D01*
X158988095Y-52359142D01*
X158940476Y-52263904D01*
X158940476Y-51454380D01*
X158559523Y-51454380D02*
X157940476Y-51454380D01*
X158273809Y-51835333D01*
X158130952Y-51835333D01*
X158035714Y-51882952D01*
X157988095Y-51930571D01*
X157940476Y-52025809D01*
X157940476Y-52263904D01*
X157988095Y-52359142D01*
X158035714Y-52406761D01*
X158130952Y-52454380D01*
X158416666Y-52454380D01*
X158511904Y-52406761D01*
X158559523Y-52359142D01*
G04 #@! TO.C,U2*
X158467904Y-128144380D02*
X158467904Y-128953904D01*
X158420285Y-129049142D01*
X158372666Y-129096761D01*
X158277428Y-129144380D01*
X158086952Y-129144380D01*
X157991714Y-129096761D01*
X157944095Y-129049142D01*
X157896476Y-128953904D01*
X157896476Y-128144380D01*
X157467904Y-128239619D02*
X157420285Y-128192000D01*
X157325047Y-128144380D01*
X157086952Y-128144380D01*
X156991714Y-128192000D01*
X156944095Y-128239619D01*
X156896476Y-128334857D01*
X156896476Y-128430095D01*
X156944095Y-128572952D01*
X157515523Y-129144380D01*
X156896476Y-129144380D01*
G04 #@! TO.C,R5*
X155264380Y-58761333D02*
X154788190Y-58428000D01*
X155264380Y-58189904D02*
X154264380Y-58189904D01*
X154264380Y-58570857D01*
X154312000Y-58666095D01*
X154359619Y-58713714D01*
X154454857Y-58761333D01*
X154597714Y-58761333D01*
X154692952Y-58713714D01*
X154740571Y-58666095D01*
X154788190Y-58570857D01*
X154788190Y-58189904D01*
X154264380Y-59666095D02*
X154264380Y-59189904D01*
X154740571Y-59142285D01*
X154692952Y-59189904D01*
X154645333Y-59285142D01*
X154645333Y-59523238D01*
X154692952Y-59618476D01*
X154740571Y-59666095D01*
X154835809Y-59713714D01*
X155073904Y-59713714D01*
X155169142Y-59666095D01*
X155216761Y-59618476D01*
X155264380Y-59523238D01*
X155264380Y-59285142D01*
X155216761Y-59189904D01*
X155169142Y-59142285D01*
G04 #@! TO.C,R4*
X152090380Y-61555333D02*
X151614190Y-61222000D01*
X152090380Y-60983904D02*
X151090380Y-60983904D01*
X151090380Y-61364857D01*
X151138000Y-61460095D01*
X151185619Y-61507714D01*
X151280857Y-61555333D01*
X151423714Y-61555333D01*
X151518952Y-61507714D01*
X151566571Y-61460095D01*
X151614190Y-61364857D01*
X151614190Y-60983904D01*
X151423714Y-62412476D02*
X152090380Y-62412476D01*
X151042761Y-62174380D02*
X151757047Y-61936285D01*
X151757047Y-62555333D01*
G04 #@! TO.C,R2*
X148026380Y-64857333D02*
X147550190Y-64524000D01*
X148026380Y-64285904D02*
X147026380Y-64285904D01*
X147026380Y-64666857D01*
X147074000Y-64762095D01*
X147121619Y-64809714D01*
X147216857Y-64857333D01*
X147359714Y-64857333D01*
X147454952Y-64809714D01*
X147502571Y-64762095D01*
X147550190Y-64666857D01*
X147550190Y-64285904D01*
X147121619Y-65238285D02*
X147074000Y-65285904D01*
X147026380Y-65381142D01*
X147026380Y-65619238D01*
X147074000Y-65714476D01*
X147121619Y-65762095D01*
X147216857Y-65809714D01*
X147312095Y-65809714D01*
X147454952Y-65762095D01*
X148026380Y-65190666D01*
X148026380Y-65809714D01*
G04 #@! TO.C,R6*
X149772666Y-50364380D02*
X150106000Y-49888190D01*
X150344095Y-50364380D02*
X150344095Y-49364380D01*
X149963142Y-49364380D01*
X149867904Y-49412000D01*
X149820285Y-49459619D01*
X149772666Y-49554857D01*
X149772666Y-49697714D01*
X149820285Y-49792952D01*
X149867904Y-49840571D01*
X149963142Y-49888190D01*
X150344095Y-49888190D01*
X148915523Y-49364380D02*
X149106000Y-49364380D01*
X149201238Y-49412000D01*
X149248857Y-49459619D01*
X149344095Y-49602476D01*
X149391714Y-49792952D01*
X149391714Y-50173904D01*
X149344095Y-50269142D01*
X149296476Y-50316761D01*
X149201238Y-50364380D01*
X149010761Y-50364380D01*
X148915523Y-50316761D01*
X148867904Y-50269142D01*
X148820285Y-50173904D01*
X148820285Y-49935809D01*
X148867904Y-49840571D01*
X148915523Y-49792952D01*
X149010761Y-49745333D01*
X149201238Y-49745333D01*
X149296476Y-49792952D01*
X149344095Y-49840571D01*
X149391714Y-49935809D01*
G04 #@! TO.C,R7*
X143168666Y-57474380D02*
X143502000Y-56998190D01*
X143740095Y-57474380D02*
X143740095Y-56474380D01*
X143359142Y-56474380D01*
X143263904Y-56522000D01*
X143216285Y-56569619D01*
X143168666Y-56664857D01*
X143168666Y-56807714D01*
X143216285Y-56902952D01*
X143263904Y-56950571D01*
X143359142Y-56998190D01*
X143740095Y-56998190D01*
X142835333Y-56474380D02*
X142168666Y-56474380D01*
X142597238Y-57474380D01*
G04 #@! TO.C,R8*
X162218666Y-49220380D02*
X162552000Y-48744190D01*
X162790095Y-49220380D02*
X162790095Y-48220380D01*
X162409142Y-48220380D01*
X162313904Y-48268000D01*
X162266285Y-48315619D01*
X162218666Y-48410857D01*
X162218666Y-48553714D01*
X162266285Y-48648952D01*
X162313904Y-48696571D01*
X162409142Y-48744190D01*
X162790095Y-48744190D01*
X161647238Y-48648952D02*
X161742476Y-48601333D01*
X161790095Y-48553714D01*
X161837714Y-48458476D01*
X161837714Y-48410857D01*
X161790095Y-48315619D01*
X161742476Y-48268000D01*
X161647238Y-48220380D01*
X161456761Y-48220380D01*
X161361523Y-48268000D01*
X161313904Y-48315619D01*
X161266285Y-48410857D01*
X161266285Y-48458476D01*
X161313904Y-48553714D01*
X161361523Y-48601333D01*
X161456761Y-48648952D01*
X161647238Y-48648952D01*
X161742476Y-48696571D01*
X161790095Y-48744190D01*
X161837714Y-48839428D01*
X161837714Y-49029904D01*
X161790095Y-49125142D01*
X161742476Y-49172761D01*
X161647238Y-49220380D01*
X161456761Y-49220380D01*
X161361523Y-49172761D01*
X161313904Y-49125142D01*
X161266285Y-49029904D01*
X161266285Y-48839428D01*
X161313904Y-48744190D01*
X161361523Y-48696571D01*
X161456761Y-48648952D01*
G04 #@! TO.C,R9*
X164790380Y-55967333D02*
X164314190Y-55634000D01*
X164790380Y-55395904D02*
X163790380Y-55395904D01*
X163790380Y-55776857D01*
X163838000Y-55872095D01*
X163885619Y-55919714D01*
X163980857Y-55967333D01*
X164123714Y-55967333D01*
X164218952Y-55919714D01*
X164266571Y-55872095D01*
X164314190Y-55776857D01*
X164314190Y-55395904D01*
X164790380Y-56443523D02*
X164790380Y-56634000D01*
X164742761Y-56729238D01*
X164695142Y-56776857D01*
X164552285Y-56872095D01*
X164361809Y-56919714D01*
X163980857Y-56919714D01*
X163885619Y-56872095D01*
X163838000Y-56824476D01*
X163790380Y-56729238D01*
X163790380Y-56538761D01*
X163838000Y-56443523D01*
X163885619Y-56395904D01*
X163980857Y-56348285D01*
X164218952Y-56348285D01*
X164314190Y-56395904D01*
X164361809Y-56443523D01*
X164409428Y-56538761D01*
X164409428Y-56729238D01*
X164361809Y-56824476D01*
X164314190Y-56872095D01*
X164218952Y-56919714D01*
G04 #@! TO.C,R12*
X167330380Y-119753142D02*
X166854190Y-119419809D01*
X167330380Y-119181714D02*
X166330380Y-119181714D01*
X166330380Y-119562666D01*
X166378000Y-119657904D01*
X166425619Y-119705523D01*
X166520857Y-119753142D01*
X166663714Y-119753142D01*
X166758952Y-119705523D01*
X166806571Y-119657904D01*
X166854190Y-119562666D01*
X166854190Y-119181714D01*
X167330380Y-120705523D02*
X167330380Y-120134095D01*
X167330380Y-120419809D02*
X166330380Y-120419809D01*
X166473238Y-120324571D01*
X166568476Y-120229333D01*
X166616095Y-120134095D01*
X166425619Y-121086476D02*
X166378000Y-121134095D01*
X166330380Y-121229333D01*
X166330380Y-121467428D01*
X166378000Y-121562666D01*
X166425619Y-121610285D01*
X166520857Y-121657904D01*
X166616095Y-121657904D01*
X166758952Y-121610285D01*
X167330380Y-121038857D01*
X167330380Y-121657904D01*
G04 #@! TO.C,R10*
X165330380Y-64713642D02*
X164854190Y-64380309D01*
X165330380Y-64142214D02*
X164330380Y-64142214D01*
X164330380Y-64523166D01*
X164378000Y-64618404D01*
X164425619Y-64666023D01*
X164520857Y-64713642D01*
X164663714Y-64713642D01*
X164758952Y-64666023D01*
X164806571Y-64618404D01*
X164854190Y-64523166D01*
X164854190Y-64142214D01*
X165330380Y-65666023D02*
X165330380Y-65094595D01*
X165330380Y-65380309D02*
X164330380Y-65380309D01*
X164473238Y-65285071D01*
X164568476Y-65189833D01*
X164616095Y-65094595D01*
X164330380Y-66285071D02*
X164330380Y-66380309D01*
X164378000Y-66475547D01*
X164425619Y-66523166D01*
X164520857Y-66570785D01*
X164711333Y-66618404D01*
X164949428Y-66618404D01*
X165139904Y-66570785D01*
X165235142Y-66523166D01*
X165282761Y-66475547D01*
X165330380Y-66380309D01*
X165330380Y-66285071D01*
X165282761Y-66189833D01*
X165235142Y-66142214D01*
X165139904Y-66094595D01*
X164949428Y-66046976D01*
X164711333Y-66046976D01*
X164520857Y-66094595D01*
X164425619Y-66142214D01*
X164378000Y-66189833D01*
X164330380Y-66285071D01*
G04 #@! TO.C,R11*
X152105357Y-116402380D02*
X152438690Y-115926190D01*
X152676785Y-116402380D02*
X152676785Y-115402380D01*
X152295833Y-115402380D01*
X152200595Y-115450000D01*
X152152976Y-115497619D01*
X152105357Y-115592857D01*
X152105357Y-115735714D01*
X152152976Y-115830952D01*
X152200595Y-115878571D01*
X152295833Y-115926190D01*
X152676785Y-115926190D01*
X151152976Y-116402380D02*
X151724404Y-116402380D01*
X151438690Y-116402380D02*
X151438690Y-115402380D01*
X151533928Y-115545238D01*
X151629166Y-115640476D01*
X151724404Y-115688095D01*
X150200595Y-116402380D02*
X150772023Y-116402380D01*
X150486309Y-116402380D02*
X150486309Y-115402380D01*
X150581547Y-115545238D01*
X150676785Y-115640476D01*
X150772023Y-115688095D01*
G04 #@! TD*
M02*
