M48
;DRILL file {KiCad 5.0.2+dfsg1-1~bpo9+1} date Thu 28 Feb 2019 12:14:28 PM PST
;FORMAT={-:-/ absolute / inch / decimal}
FMAT,2
INCH,TZ
T1C0.0157
T2C0.0400
T3C0.0630
%
G90
G05
T1
X5.61Y-2.54
X5.62Y-2.75
X5.64Y-5.16
X5.78Y-5.6
X5.85Y-4.11
X5.87Y-2.54
X5.88Y-5.18
X5.9Y-4.17
X5.93Y-2.42
X5.95Y-4.11
X5.96Y-2.15
X5.96Y-2.77
X5.98Y-2.48
X5.99Y-3.81
X6.01Y-4.01
X6.0109Y-3.75
X6.04Y-3.25
X6.07Y-5.62
X6.0834Y-1.96
X6.14Y-4.92
X6.17Y-3.37
X6.17Y-4.11
X6.18Y-2.17
X6.18Y-2.48
X6.21Y-3.8
X6.22Y-2.13
X6.22Y-3.04
X6.22Y-3.14
X6.22Y-3.85
X6.23Y-2.37
X6.23Y-2.78
X6.24Y-2.26
X6.27Y-3.53
X6.27Y-4.06
X6.31Y-5.25
X6.33Y-2.5
X6.34Y-3.27
X6.45Y-5.24
X6.45Y-5.61
X6.47Y-2.07
X6.47Y-2.18
X6.47Y-2.73
X6.47Y-3.7
X6.47Y-3.87
X6.48Y-1.99
X6.52Y-2.35
X6.55Y-3.05
X6.71Y-2.88
X6.74Y-5.18
X6.74Y-5.51
X6.75Y-2.64
X6.91Y-3.71
T2
X6.01Y-5.38
X6.01Y-5.48
X6.11Y-5.38
X6.11Y-5.48
X6.21Y-5.38
X6.21Y-5.48
X6.31Y-5.38
X6.31Y-5.48
X6.41Y-5.38
X6.41Y-5.48
T3
X5.71Y-1.9863
X5.71Y-2.3131
X5.71Y-2.4351
X5.71Y-3.5863
X5.71Y-3.9131
X5.71Y-4.0351
X6.66Y-3.5863
X6.66Y-3.9131
X6.66Y-4.0351
X6.66Y-1.9863
X6.66Y-2.3131
X6.66Y-2.4351
T0
M30
